<?xml version="1.0" encoding="UTF-8"?>
<svg xmlns="http://www.w3.org/2000/svg" xmlns:xlink="http://www.w3.org/1999/xlink" width="125.562pt" height="147.162pt" viewBox="0 0 125.562 147.162" version="1.1">
<defs>
<clipPath id="clip1">
  <path d="M 0 0 L 125.5625 0 L 125.5625 55 L 0 55 Z M 0 0 "/>
</clipPath>
<clipPath id="clip2">
  <path d="M 0 46 L 125.5625 46 L 125.5625 101 L 0 101 Z M 0 46 "/>
</clipPath>
<clipPath id="clip3">
  <path d="M 0 93 L 125.5625 93 L 125.5625 147.160156 L 0 147.160156 Z M 0 93 "/>
</clipPath>
</defs>
<g id="surface1">
<path style="fill-rule:nonzero;fill:rgb(30.000305%,77.487183%,95.610046%);fill-opacity:1;stroke-width:0.3985;stroke-linecap:butt;stroke-linejoin:miter;stroke:rgb(0%,0%,0%);stroke-opacity:1;stroke-miterlimit:10;" d="M 9.00025 10.800531 C 9.00025 15.769281 4.969 19.800531 0.00025 19.800531 C -4.972406 19.800531 -8.99975 15.769281 -8.99975 10.800531 C -8.99975 5.827875 -4.972406 1.800531 0.00025 1.800531 C 4.969 1.800531 9.00025 5.827875 9.00025 10.800531 Z M 9.00025 10.800531 " transform="matrix(1,0,0,-1,62.781,26.781)"/>
<path style="fill-rule:nonzero;fill:rgb(30.000305%,77.487183%,95.610046%);fill-opacity:1;stroke-width:0.3985;stroke-linecap:butt;stroke-linejoin:miter;stroke:rgb(0%,0%,0%);stroke-opacity:1;stroke-miterlimit:10;" d="M 9.00025 -10.801031 C 9.00025 -5.828375 4.969 -1.801031 0.00025 -1.801031 C -4.972406 -1.801031 -8.99975 -5.828375 -8.99975 -10.801031 C -8.99975 -15.769781 -4.972406 -19.801031 0.00025 -19.801031 C 4.969 -19.801031 9.00025 -15.769781 9.00025 -10.801031 Z M 9.00025 -10.801031 " transform="matrix(1,0,0,-1,62.781,26.781)"/>
<path style="fill-rule:nonzero;fill:rgb(30.000305%,77.487183%,95.610046%);fill-opacity:1;stroke-width:0.3985;stroke-linecap:butt;stroke-linejoin:miter;stroke:rgb(0%,0%,0%);stroke-opacity:1;stroke-miterlimit:10;" d="M 30.601813 10.800531 C 30.601813 15.769281 26.570563 19.800531 21.601813 19.800531 C 16.629156 19.800531 12.601813 15.769281 12.601813 10.800531 C 12.601813 5.827875 16.629156 1.800531 21.601813 1.800531 C 26.570563 1.800531 30.601813 5.827875 30.601813 10.800531 Z M 30.601813 10.800531 " transform="matrix(1,0,0,-1,62.781,26.781)"/>
<path style="fill-rule:nonzero;fill:rgb(30.000305%,77.487183%,95.610046%);fill-opacity:1;stroke-width:0.3985;stroke-linecap:butt;stroke-linejoin:miter;stroke:rgb(0%,0%,0%);stroke-opacity:1;stroke-miterlimit:10;" d="M 30.601813 -10.801031 C 30.601813 -5.828375 26.570563 -1.801031 21.601813 -1.801031 C 16.629156 -1.801031 12.601813 -5.828375 12.601813 -10.801031 C 12.601813 -15.769781 16.629156 -19.801031 21.601813 -19.801031 C 26.570563 -19.801031 30.601813 -15.769781 30.601813 -10.801031 Z M 30.601813 -10.801031 " transform="matrix(1,0,0,-1,62.781,26.781)"/>
<path style="fill-rule:nonzero;fill:rgb(30.000305%,77.487183%,95.610046%);fill-opacity:1;stroke-width:0.3985;stroke-linecap:butt;stroke-linejoin:miter;stroke:rgb(0%,0%,0%);stroke-opacity:1;stroke-miterlimit:10;" d="M 52.199469 10.800531 C 52.199469 15.769281 48.172125 19.800531 43.199469 19.800531 C 38.230719 19.800531 34.199469 15.769281 34.199469 10.800531 C 34.199469 5.827875 38.230719 1.800531 43.199469 1.800531 C 48.172125 1.800531 52.199469 5.827875 52.199469 10.800531 Z M 52.199469 10.800531 " transform="matrix(1,0,0,-1,62.781,26.781)"/>
<path style="fill-rule:nonzero;fill:rgb(30.000305%,77.487183%,95.610046%);fill-opacity:1;stroke-width:0.3985;stroke-linecap:butt;stroke-linejoin:miter;stroke:rgb(0%,0%,0%);stroke-opacity:1;stroke-miterlimit:10;" d="M 52.199469 -10.801031 C 52.199469 -5.828375 48.172125 -1.801031 43.199469 -1.801031 C 38.230719 -1.801031 34.199469 -5.828375 34.199469 -10.801031 C 34.199469 -15.769781 38.230719 -19.801031 43.199469 -19.801031 C 48.172125 -19.801031 52.199469 -15.769781 52.199469 -10.801031 Z M 52.199469 -10.801031 " transform="matrix(1,0,0,-1,62.781,26.781)"/>
<path style="fill-rule:nonzero;fill:rgb(30.000305%,77.487183%,95.610046%);fill-opacity:1;stroke-width:0.3985;stroke-linecap:butt;stroke-linejoin:miter;stroke:rgb(0%,0%,0%);stroke-opacity:1;stroke-miterlimit:10;" d="M -12.601312 10.800531 C -12.601312 15.769281 -16.628656 19.800531 -21.601312 19.800531 C -26.570062 19.800531 -30.601312 15.769281 -30.601312 10.800531 C -30.601312 5.827875 -26.570062 1.800531 -21.601312 1.800531 C -16.628656 1.800531 -12.601312 5.827875 -12.601312 10.800531 Z M -12.601312 10.800531 " transform="matrix(1,0,0,-1,62.781,26.781)"/>
<path style="fill-rule:nonzero;fill:rgb(30.000305%,77.487183%,95.610046%);fill-opacity:1;stroke-width:0.3985;stroke-linecap:butt;stroke-linejoin:miter;stroke:rgb(0%,0%,0%);stroke-opacity:1;stroke-miterlimit:10;" d="M -12.601312 -10.801031 C -12.601312 -5.828375 -16.628656 -1.801031 -21.601312 -1.801031 C -26.570062 -1.801031 -30.601312 -5.828375 -30.601312 -10.801031 C -30.601312 -15.769781 -26.570062 -19.801031 -21.601312 -19.801031 C -16.628656 -19.801031 -12.601312 -15.769781 -12.601312 -10.801031 Z M -12.601312 -10.801031 " transform="matrix(1,0,0,-1,62.781,26.781)"/>
<path style="fill-rule:nonzero;fill:rgb(30.000305%,77.487183%,95.610046%);fill-opacity:1;stroke-width:0.3985;stroke-linecap:butt;stroke-linejoin:miter;stroke:rgb(0%,0%,0%);stroke-opacity:1;stroke-miterlimit:10;" d="M -34.198969 10.800531 C -34.198969 15.769281 -38.230219 19.800531 -43.202875 19.800531 C -48.171625 19.800531 -52.202875 15.769281 -52.202875 10.800531 C -52.202875 5.827875 -48.171625 1.800531 -43.202875 1.800531 C -38.230219 1.800531 -34.198969 5.827875 -34.198969 10.800531 Z M -34.198969 10.800531 " transform="matrix(1,0,0,-1,62.781,26.781)"/>
<path style="fill-rule:nonzero;fill:rgb(30.000305%,77.487183%,95.610046%);fill-opacity:1;stroke-width:0.3985;stroke-linecap:butt;stroke-linejoin:miter;stroke:rgb(0%,0%,0%);stroke-opacity:1;stroke-miterlimit:10;" d="M -34.198969 -10.801031 C -34.198969 -5.828375 -38.230219 -1.801031 -43.202875 -1.801031 C -48.171625 -1.801031 -52.202875 -5.828375 -52.202875 -10.801031 C -52.202875 -15.769781 -48.171625 -19.801031 -43.202875 -19.801031 C -38.230219 -19.801031 -34.198969 -15.769781 -34.198969 -10.801031 Z M -34.198969 -10.801031 " transform="matrix(1,0,0,-1,62.781,26.781)"/>
<g clip-path="url(#clip1)" clip-rule="nonzero">
<path style="fill:none;stroke-width:0.3985;stroke-linecap:butt;stroke-linejoin:miter;stroke:rgb(0%,0%,0%);stroke-opacity:1;stroke-miterlimit:10;" d="M -57.601312 -9.644781 L -57.601312 9.644281 C -57.601312 16.24975 -52.24975 21.601313 -45.644281 21.601313 L 45.644781 21.601313 C 52.25025 21.601313 57.601813 16.24975 57.601813 9.644281 L 57.601813 -9.644781 C 57.601813 -16.246344 52.25025 -21.601812 45.644781 -21.601812 L -45.644281 -21.601812 C -52.24975 -21.601812 -57.601312 -16.246344 -57.601312 -9.644781 Z M -57.601312 -9.644781 " transform="matrix(1,0,0,-1,62.781,26.781)"/>
</g>
<path style="fill-rule:nonzero;fill:rgb(30.000305%,77.487183%,95.610046%);fill-opacity:1;stroke-width:0.3985;stroke-linecap:butt;stroke-linejoin:miter;stroke:rgb(0%,0%,0%);stroke-opacity:1;stroke-miterlimit:10;" d="M 9.00025 -36.00025 C 9.00025 -31.0315 4.969 -27.00025 0.00025 -27.00025 C -4.972406 -27.00025 -8.99975 -31.0315 -8.99975 -36.00025 C -8.99975 -40.972906 -4.972406 -45.00025 0.00025 -45.00025 C 4.969 -45.00025 9.00025 -40.972906 9.00025 -36.00025 Z M 9.00025 -36.00025 " transform="matrix(1,0,0,-1,62.781,26.781)"/>
<path style="fill-rule:nonzero;fill:rgb(30.000305%,77.487183%,95.610046%);fill-opacity:1;stroke-width:0.3985;stroke-linecap:butt;stroke-linejoin:miter;stroke:rgb(0%,0%,0%);stroke-opacity:1;stroke-miterlimit:10;" d="M 9.00025 -57.597906 C 9.00025 -52.629156 4.969 -48.597906 0.00025 -48.597906 C -4.972406 -48.597906 -8.99975 -52.629156 -8.99975 -57.597906 C -8.99975 -62.570562 -4.972406 -66.601812 0.00025 -66.601812 C 4.969 -66.601812 9.00025 -62.570562 9.00025 -57.597906 Z M 9.00025 -57.597906 " transform="matrix(1,0,0,-1,62.781,26.781)"/>
<path style="fill-rule:nonzero;fill:rgb(30.000305%,77.487183%,95.610046%);fill-opacity:1;stroke-width:0.3985;stroke-linecap:butt;stroke-linejoin:miter;stroke:rgb(0%,0%,0%);stroke-opacity:1;stroke-miterlimit:10;" d="M 30.601813 -36.00025 C 30.601813 -31.0315 26.570563 -27.00025 21.601813 -27.00025 C 16.629156 -27.00025 12.601813 -31.0315 12.601813 -36.00025 C 12.601813 -40.972906 16.629156 -45.00025 21.601813 -45.00025 C 26.570563 -45.00025 30.601813 -40.972906 30.601813 -36.00025 Z M 30.601813 -36.00025 " transform="matrix(1,0,0,-1,62.781,26.781)"/>
<path style="fill-rule:nonzero;fill:rgb(30.000305%,77.487183%,95.610046%);fill-opacity:1;stroke-width:0.3985;stroke-linecap:butt;stroke-linejoin:miter;stroke:rgb(0%,0%,0%);stroke-opacity:1;stroke-miterlimit:10;" d="M 30.601813 -57.597906 C 30.601813 -52.629156 26.570563 -48.597906 21.601813 -48.597906 C 16.629156 -48.597906 12.601813 -52.629156 12.601813 -57.597906 C 12.601813 -62.570562 16.629156 -66.601812 21.601813 -66.601812 C 26.570563 -66.601812 30.601813 -62.570562 30.601813 -57.597906 Z M 30.601813 -57.597906 " transform="matrix(1,0,0,-1,62.781,26.781)"/>
<path style="fill-rule:nonzero;fill:rgb(30.000305%,77.487183%,95.610046%);fill-opacity:1;stroke-width:0.3985;stroke-linecap:butt;stroke-linejoin:miter;stroke:rgb(0%,0%,0%);stroke-opacity:1;stroke-miterlimit:10;" d="M 52.199469 -36.00025 C 52.199469 -31.0315 48.172125 -27.00025 43.199469 -27.00025 C 38.230719 -27.00025 34.199469 -31.0315 34.199469 -36.00025 C 34.199469 -40.972906 38.230719 -45.00025 43.199469 -45.00025 C 48.172125 -45.00025 52.199469 -40.972906 52.199469 -36.00025 Z M 52.199469 -36.00025 " transform="matrix(1,0,0,-1,62.781,26.781)"/>
<path style="fill-rule:nonzero;fill:rgb(30.000305%,77.487183%,95.610046%);fill-opacity:1;stroke-width:0.3985;stroke-linecap:butt;stroke-linejoin:miter;stroke:rgb(0%,0%,0%);stroke-opacity:1;stroke-miterlimit:10;" d="M 52.199469 -57.597906 C 52.199469 -52.629156 48.172125 -48.597906 43.199469 -48.597906 C 38.230719 -48.597906 34.199469 -52.629156 34.199469 -57.597906 C 34.199469 -62.570562 38.230719 -66.601812 43.199469 -66.601812 C 48.172125 -66.601812 52.199469 -62.570562 52.199469 -57.597906 Z M 52.199469 -57.597906 " transform="matrix(1,0,0,-1,62.781,26.781)"/>
<path style="fill-rule:nonzero;fill:rgb(30.000305%,77.487183%,95.610046%);fill-opacity:1;stroke-width:0.3985;stroke-linecap:butt;stroke-linejoin:miter;stroke:rgb(0%,0%,0%);stroke-opacity:1;stroke-miterlimit:10;" d="M -12.601312 -36.00025 C -12.601312 -31.0315 -16.628656 -27.00025 -21.601312 -27.00025 C -26.570062 -27.00025 -30.601312 -31.0315 -30.601312 -36.00025 C -30.601312 -40.972906 -26.570062 -45.00025 -21.601312 -45.00025 C -16.628656 -45.00025 -12.601312 -40.972906 -12.601312 -36.00025 Z M -12.601312 -36.00025 " transform="matrix(1,0,0,-1,62.781,26.781)"/>
<path style="fill-rule:nonzero;fill:rgb(30.000305%,77.487183%,95.610046%);fill-opacity:1;stroke-width:0.3985;stroke-linecap:butt;stroke-linejoin:miter;stroke:rgb(0%,0%,0%);stroke-opacity:1;stroke-miterlimit:10;" d="M -12.601312 -57.597906 C -12.601312 -52.629156 -16.628656 -48.597906 -21.601312 -48.597906 C -26.570062 -48.597906 -30.601312 -52.629156 -30.601312 -57.597906 C -30.601312 -62.570562 -26.570062 -66.601812 -21.601312 -66.601812 C -16.628656 -66.601812 -12.601312 -62.570562 -12.601312 -57.597906 Z M -12.601312 -57.597906 " transform="matrix(1,0,0,-1,62.781,26.781)"/>
<path style="fill-rule:nonzero;fill:rgb(30.000305%,77.487183%,95.610046%);fill-opacity:1;stroke-width:0.3985;stroke-linecap:butt;stroke-linejoin:miter;stroke:rgb(0%,0%,0%);stroke-opacity:1;stroke-miterlimit:10;" d="M -34.198969 -36.00025 C -34.198969 -31.0315 -38.230219 -27.00025 -43.202875 -27.00025 C -48.171625 -27.00025 -52.202875 -31.0315 -52.202875 -36.00025 C -52.202875 -40.972906 -48.171625 -45.00025 -43.202875 -45.00025 C -38.230219 -45.00025 -34.198969 -40.972906 -34.198969 -36.00025 Z M -34.198969 -36.00025 " transform="matrix(1,0,0,-1,62.781,26.781)"/>
<path style="fill-rule:nonzero;fill:rgb(30.000305%,77.487183%,95.610046%);fill-opacity:1;stroke-width:0.3985;stroke-linecap:butt;stroke-linejoin:miter;stroke:rgb(0%,0%,0%);stroke-opacity:1;stroke-miterlimit:10;" d="M -34.198969 -57.597906 C -34.198969 -52.629156 -38.230219 -48.597906 -43.202875 -48.597906 C -48.171625 -48.597906 -52.202875 -52.629156 -52.202875 -57.597906 C -52.202875 -62.570562 -48.171625 -66.601812 -43.202875 -66.601812 C -38.230219 -66.601812 -34.198969 -62.570562 -34.198969 -57.597906 Z M -34.198969 -57.597906 " transform="matrix(1,0,0,-1,62.781,26.781)"/>
<g clip-path="url(#clip2)" clip-rule="nonzero">
<path style="fill:none;stroke-width:0.3985;stroke-linecap:butt;stroke-linejoin:miter;stroke:rgb(0%,0%,0%);stroke-opacity:1;stroke-miterlimit:10;" d="M -57.601312 -56.445562 L -57.601312 -37.1565 C -57.601312 -30.551031 -52.24975 -25.199469 -45.644281 -25.199469 L 45.644781 -25.199469 C 52.25025 -25.199469 57.601813 -30.551031 57.601813 -37.1565 L 57.601813 -56.445562 C 57.601813 -63.047125 52.25025 -68.398687 45.644781 -68.398687 L -45.644281 -68.398687 C -52.24975 -68.398687 -57.601312 -63.047125 -57.601312 -56.445562 Z M -57.601312 -56.445562 " transform="matrix(1,0,0,-1,62.781,26.781)"/>
</g>
<path style="fill-rule:nonzero;fill:rgb(30.000305%,77.487183%,95.610046%);fill-opacity:1;stroke-width:0.3985;stroke-linecap:butt;stroke-linejoin:miter;stroke:rgb(0%,0%,0%);stroke-opacity:1;stroke-miterlimit:10;" d="M 9.00025 -82.801031 C 9.00025 -77.832281 4.969 -73.801031 0.00025 -73.801031 C -4.972406 -73.801031 -8.99975 -77.832281 -8.99975 -82.801031 C -8.99975 -87.773687 -4.972406 -91.801031 0.00025 -91.801031 C 4.969 -91.801031 9.00025 -87.773687 9.00025 -82.801031 Z M 9.00025 -82.801031 " transform="matrix(1,0,0,-1,62.781,26.781)"/>
<path style="fill-rule:nonzero;fill:rgb(30.000305%,77.487183%,95.610046%);fill-opacity:1;stroke-width:0.3985;stroke-linecap:butt;stroke-linejoin:miter;stroke:rgb(0%,0%,0%);stroke-opacity:1;stroke-miterlimit:10;" d="M 9.00025 -104.402594 C 9.00025 -99.429937 4.969 -95.402594 0.00025 -95.402594 C -4.972406 -95.402594 -8.99975 -99.429937 -8.99975 -104.402594 C -8.99975 -109.371344 -4.972406 -113.402594 0.00025 -113.402594 C 4.969 -113.402594 9.00025 -109.371344 9.00025 -104.402594 Z M 9.00025 -104.402594 " transform="matrix(1,0,0,-1,62.781,26.781)"/>
<path style="fill-rule:nonzero;fill:rgb(30.000305%,77.487183%,95.610046%);fill-opacity:1;stroke-width:0.3985;stroke-linecap:butt;stroke-linejoin:miter;stroke:rgb(0%,0%,0%);stroke-opacity:1;stroke-miterlimit:10;" d="M 30.601813 -82.801031 C 30.601813 -77.832281 26.570563 -73.801031 21.601813 -73.801031 C 16.629156 -73.801031 12.601813 -77.832281 12.601813 -82.801031 C 12.601813 -87.773687 16.629156 -91.801031 21.601813 -91.801031 C 26.570563 -91.801031 30.601813 -87.773687 30.601813 -82.801031 Z M 30.601813 -82.801031 " transform="matrix(1,0,0,-1,62.781,26.781)"/>
<path style="fill-rule:nonzero;fill:rgb(30.000305%,77.487183%,95.610046%);fill-opacity:1;stroke-width:0.3985;stroke-linecap:butt;stroke-linejoin:miter;stroke:rgb(0%,0%,0%);stroke-opacity:1;stroke-miterlimit:10;" d="M 30.601813 -104.402594 C 30.601813 -99.429937 26.570563 -95.402594 21.601813 -95.402594 C 16.629156 -95.402594 12.601813 -99.429937 12.601813 -104.402594 C 12.601813 -109.371344 16.629156 -113.402594 21.601813 -113.402594 C 26.570563 -113.402594 30.601813 -109.371344 30.601813 -104.402594 Z M 30.601813 -104.402594 " transform="matrix(1,0,0,-1,62.781,26.781)"/>
<path style="fill-rule:nonzero;fill:rgb(30.000305%,77.487183%,95.610046%);fill-opacity:1;stroke-width:0.3985;stroke-linecap:butt;stroke-linejoin:miter;stroke:rgb(0%,0%,0%);stroke-opacity:1;stroke-miterlimit:10;" d="M 52.199469 -82.801031 C 52.199469 -77.832281 48.172125 -73.801031 43.199469 -73.801031 C 38.230719 -73.801031 34.199469 -77.832281 34.199469 -82.801031 C 34.199469 -87.773687 38.230719 -91.801031 43.199469 -91.801031 C 48.172125 -91.801031 52.199469 -87.773687 52.199469 -82.801031 Z M 52.199469 -82.801031 " transform="matrix(1,0,0,-1,62.781,26.781)"/>
<path style="fill-rule:nonzero;fill:rgb(30.000305%,77.487183%,95.610046%);fill-opacity:1;stroke-width:0.3985;stroke-linecap:butt;stroke-linejoin:miter;stroke:rgb(0%,0%,0%);stroke-opacity:1;stroke-miterlimit:10;" d="M 52.199469 -104.402594 C 52.199469 -99.429937 48.172125 -95.402594 43.199469 -95.402594 C 38.230719 -95.402594 34.199469 -99.429937 34.199469 -104.402594 C 34.199469 -109.371344 38.230719 -113.402594 43.199469 -113.402594 C 48.172125 -113.402594 52.199469 -109.371344 52.199469 -104.402594 Z M 52.199469 -104.402594 " transform="matrix(1,0,0,-1,62.781,26.781)"/>
<path style="fill-rule:nonzero;fill:rgb(30.000305%,77.487183%,95.610046%);fill-opacity:1;stroke-width:0.3985;stroke-linecap:butt;stroke-linejoin:miter;stroke:rgb(0%,0%,0%);stroke-opacity:1;stroke-miterlimit:10;" d="M -12.601312 -82.801031 C -12.601312 -77.832281 -16.628656 -73.801031 -21.601312 -73.801031 C -26.570062 -73.801031 -30.601312 -77.832281 -30.601312 -82.801031 C -30.601312 -87.773687 -26.570062 -91.801031 -21.601312 -91.801031 C -16.628656 -91.801031 -12.601312 -87.773687 -12.601312 -82.801031 Z M -12.601312 -82.801031 " transform="matrix(1,0,0,-1,62.781,26.781)"/>
<path style="fill-rule:nonzero;fill:rgb(30.000305%,77.487183%,95.610046%);fill-opacity:1;stroke-width:0.3985;stroke-linecap:butt;stroke-linejoin:miter;stroke:rgb(0%,0%,0%);stroke-opacity:1;stroke-miterlimit:10;" d="M -12.601312 -104.402594 C -12.601312 -99.429937 -16.628656 -95.402594 -21.601312 -95.402594 C -26.570062 -95.402594 -30.601312 -99.429937 -30.601312 -104.402594 C -30.601312 -109.371344 -26.570062 -113.402594 -21.601312 -113.402594 C -16.628656 -113.402594 -12.601312 -109.371344 -12.601312 -104.402594 Z M -12.601312 -104.402594 " transform="matrix(1,0,0,-1,62.781,26.781)"/>
<path style="fill-rule:nonzero;fill:rgb(30.000305%,77.487183%,95.610046%);fill-opacity:1;stroke-width:0.3985;stroke-linecap:butt;stroke-linejoin:miter;stroke:rgb(0%,0%,0%);stroke-opacity:1;stroke-miterlimit:10;" d="M -34.198969 -82.801031 C -34.198969 -77.832281 -38.230219 -73.801031 -43.202875 -73.801031 C -48.171625 -73.801031 -52.202875 -77.832281 -52.202875 -82.801031 C -52.202875 -87.773687 -48.171625 -91.801031 -43.202875 -91.801031 C -38.230219 -91.801031 -34.198969 -87.773687 -34.198969 -82.801031 Z M -34.198969 -82.801031 " transform="matrix(1,0,0,-1,62.781,26.781)"/>
<path style="fill-rule:nonzero;fill:rgb(30.000305%,77.487183%,95.610046%);fill-opacity:1;stroke-width:0.3985;stroke-linecap:butt;stroke-linejoin:miter;stroke:rgb(0%,0%,0%);stroke-opacity:1;stroke-miterlimit:10;" d="M -34.198969 -104.402594 C -34.198969 -99.429937 -38.230219 -95.402594 -43.202875 -95.402594 C -48.171625 -95.402594 -52.202875 -99.429937 -52.202875 -104.402594 C -52.202875 -109.371344 -48.171625 -113.402594 -43.202875 -113.402594 C -38.230219 -113.402594 -34.198969 -109.371344 -34.198969 -104.402594 Z M -34.198969 -104.402594 " transform="matrix(1,0,0,-1,62.781,26.781)"/>
<g clip-path="url(#clip3)" clip-rule="nonzero">
<path style="fill:none;stroke-width:0.3985;stroke-linecap:butt;stroke-linejoin:miter;stroke:rgb(0%,0%,0%);stroke-opacity:1;stroke-miterlimit:10;" d="M -57.601312 -103.246344 L -57.601312 -83.957281 C -57.601312 -77.351812 -52.24975 -72.00025 -45.644281 -72.00025 L 45.644781 -72.00025 C 52.25025 -72.00025 57.601813 -77.351812 57.601813 -83.957281 L 57.601813 -103.246344 C 57.601813 -109.847906 52.25025 -115.203375 45.644781 -115.203375 L -45.644281 -115.203375 C -52.24975 -115.203375 -57.601312 -109.847906 -57.601312 -103.246344 Z M -57.601312 -103.246344 " transform="matrix(1,0,0,-1,62.781,26.781)"/>
</g>
</g>
</svg>
