<?xml version="1.0" encoding="UTF-8" standalone="no"?>
<!DOCTYPE svg PUBLIC "-//W3C//DTD SVG 1.1//EN" "http://www.w3.org/Graphics/SVG/1.1/DTD/svg11.dtd">
<svg xmlns="http://www.w3.org/2000/svg" xmlns:xlink="http://www.w3.org/1999/xlink" version="1.1" width="468pt" height="468pt" viewBox="0 0 468 468">
<g enable-background="new">
<g>
<clipPath id="cp0">
<path transform="matrix(.001968504,0,0,.001968504,0,0)" d="M 0 0 L 237744 0 L 237744 237744 L 0 237744 L 0 0 Z "/>
</clipPath>
<g clip-path="url(#cp0)">
<path transform="matrix(.001968504,0,0,.001968504,0,0)" d="M 0 0 L 237744 0 L 237744 237744 L 0 237744 Z " fill-opacity="0" fill-rule="evenodd"/>
<path transform="matrix(.001968504,0,0,.001968504,0,0)" d="M 118872.089 27432.387 L 118872.089 27432.387 " fill-opacity="0" fill-rule="evenodd"/>
<path transform="matrix(.001968504,0,0,.001968504,0,0)" stroke-width="381" stroke-linecap="butt" stroke-linejoin="round" fill="none" stroke="#000000" d="M 118872.089 27432.387 L 118872.089 27432.387 "/>
<path transform="matrix(.001968504,0,0,.001968504,0,0)" d="M 64650 -2483 L 83706 -2483 L 83706 18853 L 64650 18853 Z " fill-opacity="0" fill-rule="evenodd"/>
<path transform="matrix(.75,0,0,.75,127.26378,-4.8877956)" d="M 17.387154 6.108528 L 32.628595 6.108528 L 32.628595 42.409448 L 17.387154 42.409448 L 17.387154 6.108528 Z " fill-opacity="0"/>
<symbol id="font_1_14">
<path d="M .25732423 0 L .17822266 0 L .17822266 .50878909 C .17822266 .55110678 .17952474 .5911458 .1821289 .62890627 C .17529297 .6220703 .16764324 .6149089 .15917969 .6074219 C .15071614 .5999349 .111979167 .5681966 .04296875 .51220706 L 0 .5678711 L .18896485 .7138672 L .25732423 .7138672 L .25732423 0 Z "/>
</symbol>
<use xlink:href="#font_1_14" transform="matrix(20,0,0,-20,142.14008,21.062203)"/>
<path transform="matrix(.75,0,0,.75,127.26378,-4.8877956)" d="M 32.628595 6.108528 L 32.628595 6.108528 L 32.628595 42.409448 L 32.628595 6.108528 Z " fill-opacity="0"/>
<path transform="matrix(.75,0,0,.75,127.26378,-4.8877956)" d="M 17.387154 36.333333 L 32.628595 36.333333 L 32.628595 38.733335 L 17.387154 38.733335 L 17.387154 36.333333 Z "/>
<symbol id="font_1_15">
<path d="M .46923829 0 L 0 0 L 0 .06982422 L .18798828 .25878907 C .24527996 .31673179 .28304038 .3580729 .30126954 .3828125 C .3194987 .4075521 .33317057 .43164063 .34228517 .45507813 C .35139976 .47851563 .35595704 .50374349 .35595704 .5307617 C .35595704 .56884768 .34440104 .5989583 .32128907 .62109377 C .2981771 .6435547 .26611329 .65478518 .22509766 .65478518 C .19547527 .65478518 .1673177 .64990237 .140625 .6401367 C .11425781 .6303711 .08479818 .6126302 .052246095 .58691409 L .009277344 .64208987 C .075032558 .69677737 .14664714 .7241211 .2241211 .7241211 C .29117839 .7241211 .34375 .70686849 .38183595 .6723633 C .41992188 .6381836 .43896485 .5921224 .43896485 .5341797 C .43896485 .48893229 .42626954 .4441732 .4008789 .39990235 C .37548829 .3556315 .32796226 .29964195 .25830079 .2319336 L .10205078 .07910156 L .10205078 .07519531 L .46923829 .07519531 L .46923829 0 Z "/>
</symbol>
<use xlink:href="#font_1_15" transform="matrix(20,0,0,-20,141.2807,45.062204)"/>
<path transform="matrix(.001968504,0,0,.001968504,0,0)" d="M 27432.083 27432.387 L 210312.08 27432.387 L 210312.08 210312.39 L 27432.083 210312.39 Z " fill-opacity="0" fill-rule="evenodd"/>
<path transform="matrix(.001968504,0,0,.001968504,0,0)" stroke-width="762" stroke-linecap="butt" stroke-linejoin="round" fill="none" stroke="#000000" d="M 27432.083 27432.387 L 210312.08 27432.387 L 210312.08 210312.39 L 27432.083 210312.39 Z "/>
<path transform="matrix(.001968504,0,0,.001968504,0,0)" d="M 118872 22872 L 118872 31992 " fill-opacity="0" fill-rule="evenodd"/>
<path transform="matrix(.001968504,0,0,.001968504,0,0)" stroke-width="381" stroke-linecap="butt" stroke-linejoin="round" fill="none" stroke="#000000" d="M 118872 22872 L 118872 31992 "/>
<path transform="matrix(.001968504,0,0,.001968504,0,0)" d="M 118910 205751 L 118910 214871 " fill-opacity="0" fill-rule="evenodd"/>
<path transform="matrix(.001968504,0,0,.001968504,0,0)" stroke-width="381" stroke-linecap="butt" stroke-linejoin="round" fill="none" stroke="#000000" d="M 118910 205751 L 118910 214871 "/>
<path transform="matrix(.001968504,0,0,.001968504,0,0)" d="M 22853 118852.5 L 31973 118852.5 " fill-opacity="0" fill-rule="evenodd"/>
<path transform="matrix(.001968504,0,0,.001968504,0,0)" stroke-width="381" stroke-linecap="butt" stroke-linejoin="round" fill="none" stroke="#000000" d="M 22853 118852.5 L 31973 118852.5 "/>
<path transform="matrix(.001968504,0,0,.001968504,0,0)" d="M 205732 118814.5 L 214852 118814.5 " fill-opacity="0" fill-rule="evenodd"/>
<path transform="matrix(.001968504,0,0,.001968504,0,0)" stroke-width="381" stroke-linecap="butt" stroke-linejoin="round" fill="none" stroke="#000000" d="M 205732 118814.5 L 214852 118814.5 "/>
<path transform="matrix(.001968504,0,0,.001968504,0,0)" d="M 27441.872 118862.16 L 118863.589 27440.442 L 210285.3 118862.16 L 118863.589 210283.86 Z " fill-opacity="0" fill-rule="evenodd"/>
<path transform="matrix(.001968504,0,0,.001968504,0,0)" stroke-width="762" stroke-linecap="butt" stroke-linejoin="round" fill="none" stroke="#000000" d="M 27441.872 118862.16 L 118863.589 27440.442 L 210285.3 118862.16 L 118863.589 210283.86 Z "/>
<path transform="matrix(.001968504,0,0,.001968504,0,0)" d="M 70872.949 70871.6 L 75432.04 75430.69 " fill-opacity="0" fill-rule="evenodd"/>
<path transform="matrix(.001968504,0,0,.001968504,0,0)" stroke-width="381" stroke-linecap="butt" stroke-linejoin="round" fill="none" stroke="#000000" d="M 70872.949 70871.6 L 75432.04 75430.69 "/>
<path transform="matrix(.001968504,0,0,.001968504,0,0)" d="M 162313.16 162273.82 L 166872.25 166832.9 " fill-opacity="0" fill-rule="evenodd"/>
<path transform="matrix(.001968504,0,0,.001968504,0,0)" stroke-width="381" stroke-linecap="butt" stroke-linejoin="round" fill="none" stroke="#000000" d="M 162313.16 162273.82 L 166872.25 166832.9 "/>
<path transform="matrix(.001968504,0,0,.001968504,0,0)" d="M 70853.7 166852.16 L 75412.79 162293.07 " fill-opacity="0" fill-rule="evenodd"/>
<path transform="matrix(.001968504,0,0,.001968504,0,0)" stroke-width="381" stroke-linecap="butt" stroke-linejoin="round" fill="none" stroke="#000000" d="M 70853.7 166852.16 L 75412.79 162293.07 "/>
<path transform="matrix(.001968504,0,0,.001968504,0,0)" d="M 162255.92 75411.949 L 166815 70852.85 " fill-opacity="0" fill-rule="evenodd"/>
<path transform="matrix(.001968504,0,0,.001968504,0,0)" stroke-width="381" stroke-linecap="butt" stroke-linejoin="round" fill="none" stroke="#000000" d="M 162255.92 75411.949 L 166815 70852.85 "/>
<path transform="matrix(.001968504,0,0,.001968504,0,0)" d="M 118836.69 73184.03 L 164538.4 118885.74 L 118836.69 164587.46 L 73134.98 118885.74 Z " fill-opacity="0" fill-rule="evenodd"/>
<path transform="matrix(.001968504,0,0,.001968504,0,0)" stroke-width="762" stroke-linecap="butt" stroke-linejoin="round" fill="none" stroke="#000000" d="M 118836.69 73184.03 L 164538.4 118885.74 L 118836.69 164587.46 L 73134.98 118885.74 Z "/>
<path transform="matrix(.001968504,0,0,.001968504,0,0)" d="M 143711.53 94019.76 L 139333.28 98398.01 " fill-opacity="0" fill-rule="evenodd"/>
<path transform="matrix(.001968504,0,0,.001968504,0,0)" stroke-width="381" stroke-linecap="butt" stroke-linejoin="round" fill="none" stroke="#000000" d="M 143711.53 94019.76 L 139333.28 98398.01 "/>
<path transform="matrix(.001968504,0,0,.001968504,0,0)" d="M 98511.09 139243.96 L 94012.89 143742.16 " fill-opacity="0" fill-rule="evenodd"/>
<path transform="matrix(.001968504,0,0,.001968504,0,0)" stroke-width="381" stroke-linecap="butt" stroke-linejoin="round" fill="none" stroke="#000000" d="M 98511.09 139243.96 L 94012.89 143742.16 "/>
<path transform="matrix(.001968504,0,0,.001968504,0,0)" d="M 93991.5 94008.01 L 98711.61 98728.12 " fill-opacity="0" fill-rule="evenodd"/>
<path transform="matrix(.001968504,0,0,.001968504,0,0)" stroke-width="381" stroke-linecap="butt" stroke-linejoin="round" fill="none" stroke="#000000" d="M 93991.5 94008.01 L 98711.61 98728.12 "/>
<path transform="matrix(.001968504,0,0,.001968504,0,0)" d="M 139008.83 139002.36 L 143728.94 143722.47 " fill-opacity="0" fill-rule="evenodd"/>
<path transform="matrix(.001968504,0,0,.001968504,0,0)" stroke-width="381" stroke-linecap="butt" stroke-linejoin="round" fill="none" stroke="#000000" d="M 139008.83 139002.36 L 143728.94 143722.47 "/>
<path transform="matrix(.001968504,0,0,.001968504,0,0)" d="M 209868 56489 L 228924 56489 L 228924 77825 L 209868 77825 Z " fill-opacity="0" fill-rule="evenodd"/>
<path transform="matrix(.75,0,0,.75,413.12599,111.19882)" d="M 17.387154 6.108528 L 32.628595 6.108528 L 32.628595 42.409448 L 17.387154 42.409448 L 17.387154 6.108528 Z " fill-opacity="0"/>
<use xlink:href="#font_1_14" transform="matrix(20,0,0,-20,428.0023,137.14882)"/>
<path transform="matrix(.75,0,0,.75,413.12599,111.19882)" d="M 32.628595 6.108528 L 32.628595 6.108528 L 32.628595 42.409448 L 32.628595 6.108528 Z " fill-opacity="0"/>
<path transform="matrix(.75,0,0,.75,413.12599,111.19882)" d="M 17.387154 36.333333 L 32.628595 36.333333 L 32.628595 38.733335 L 17.387154 38.733335 L 17.387154 36.333333 Z "/>
<use xlink:href="#font_1_15" transform="matrix(20,0,0,-20,427.1429,161.14882)"/>
<path transform="matrix(.001968504,0,0,.001968504,0,0)" d="M 8783 151969 L 27839 151969 L 27839 173305 L 8783 173305 Z " fill-opacity="0" fill-rule="evenodd"/>
<path transform="matrix(.75,0,0,.75,17.289372,299.15159)" d="M 17.387154 6.108528 L 32.628595 6.108528 L 32.628595 42.409448 L 17.387154 42.409448 L 17.387154 6.108528 Z " fill-opacity="0"/>
<use xlink:href="#font_1_14" transform="matrix(20,0,0,-20,32.165674,325.1016)"/>
<path transform="matrix(.75,0,0,.75,17.289372,299.15159)" d="M 32.628595 6.108528 L 32.628595 6.108528 L 32.628595 42.409448 L 32.628595 6.108528 Z " fill-opacity="0"/>
<path transform="matrix(.75,0,0,.75,17.289372,299.15159)" d="M 17.387154 36.333333 L 32.628595 36.333333 L 32.628595 38.733335 L 17.387154 38.733335 L 17.387154 36.333333 Z "/>
<use xlink:href="#font_1_15" transform="matrix(20,0,0,-20,31.3063,349.10157)"/>
<path transform="matrix(.001968504,0,0,.001968504,0,0)" d="M 158856 207949 L 177912 207949 L 177912 232465 L 158856 232465 Z " fill-opacity="0" fill-rule="evenodd"/>
<path transform="matrix(.75,0,0,.75,312.70869,409.34846)" d="M 17.387154 6.108528 L 32.628595 6.108528 L 32.628595 42.409448 L 17.387154 42.409448 L 17.387154 6.108528 Z " fill-opacity="0"/>
<use xlink:href="#font_1_14" transform="matrix(20,0,0,-20,327.585,435.29847)"/>
<path transform="matrix(.75,0,0,.75,312.70869,409.34846)" d="M 32.628595 6.108528 L 32.628595 6.108528 L 32.628595 42.409448 L 32.628595 6.108528 Z " fill-opacity="0"/>
<path transform="matrix(.75,0,0,.75,312.70869,409.34846)" d="M 17.387154 36.333333 L 32.628595 36.333333 L 32.628595 38.733335 L 17.387154 38.733335 L 17.387154 36.333333 Z "/>
<use xlink:href="#font_1_15" transform="matrix(20,0,0,-20,326.72563,459.29847)"/>
<path transform="matrix(.001968504,0,0,.001968504,0,0)" d="M 118835.69 73184.03 L 164537.4 118885.74 L 118835.69 164587.46 L 73133.98 118885.74 Z " fill-opacity="0" fill-rule="evenodd"/>
<path transform="matrix(.001968504,0,0,.001968504,0,0)" stroke-width="762" stroke-linecap="butt" stroke-linejoin="round" fill="none" stroke="#000000" d="M 118835.69 73184.03 L 164537.4 118885.74 L 118835.69 164587.46 L 73133.98 118885.74 Z "/>
<path transform="matrix(.001968504,0,0,.001968504,0,0)" d="M 143710.53 94019.76 L 139332.28 98398.01 " fill-opacity="0" fill-rule="evenodd"/>
<path transform="matrix(.001968504,0,0,.001968504,0,0)" stroke-width="381" stroke-linecap="butt" stroke-linejoin="round" fill="none" stroke="#000000" d="M 143710.53 94019.76 L 139332.28 98398.01 "/>
<path transform="matrix(.001968504,0,0,.001968504,0,0)" d="M 98510.09 139243.96 L 94011.89 143742.16 " fill-opacity="0" fill-rule="evenodd"/>
<path transform="matrix(.001968504,0,0,.001968504,0,0)" stroke-width="381" stroke-linecap="butt" stroke-linejoin="round" fill="none" stroke="#000000" d="M 98510.09 139243.96 L 94011.89 143742.16 "/>
<path transform="matrix(.001968504,0,0,.001968504,0,0)" d="M 93990.5 94008.01 L 98710.61 98728.12 " fill-opacity="0" fill-rule="evenodd"/>
<path transform="matrix(.001968504,0,0,.001968504,0,0)" stroke-width="381" stroke-linecap="butt" stroke-linejoin="round" fill="none" stroke="#000000" d="M 93990.5 94008.01 L 98710.61 98728.12 "/>
<path transform="matrix(.001968504,0,0,.001968504,0,0)" d="M 139007.83 139002.36 L 143727.94 143722.47 " fill-opacity="0" fill-rule="evenodd"/>
<path transform="matrix(.001968504,0,0,.001968504,0,0)" stroke-width="381" stroke-linecap="butt" stroke-linejoin="round" fill="none" stroke="#000000" d="M 139007.83 139002.36 L 143727.94 143722.47 "/>
<path transform="matrix(.001968504,0,0,.001968504,0,0)" d="M 73188.63 73179.29 L 164592.07 73179.29 L 164592.07 164582.72 L 73188.63 164582.72 Z " fill-opacity="0" fill-rule="evenodd"/>
<path transform="matrix(.001968504,0,0,.001968504,0,0)" stroke-width="762" stroke-linecap="butt" stroke-linejoin="round" fill="none" stroke="#000000" d="M 73188.63 73179.29 L 164592.07 73179.29 L 164592.07 164582.72 L 73188.63 164582.72 Z "/>
<path transform="matrix(.001968504,0,0,.001968504,0,0)" d="M 118890.308 70900.01 L 118890.308 75458.19 " fill-opacity="0" fill-rule="evenodd"/>
<path transform="matrix(.001968504,0,0,.001968504,0,0)" stroke-width="381" stroke-linecap="butt" stroke-linejoin="round" fill="none" stroke="#000000" d="M 118890.308 70900.01 L 118890.308 75458.19 "/>
<path transform="matrix(.001968504,0,0,.001968504,0,0)" d="M 118909.3 162302.94 L 118909.3 166861.11 " fill-opacity="0" fill-rule="evenodd"/>
<path transform="matrix(.001968504,0,0,.001968504,0,0)" stroke-width="381" stroke-linecap="butt" stroke-linejoin="round" fill="none" stroke="#000000" d="M 118909.3 162302.94 L 118909.3 166861.11 "/>
<path transform="matrix(.001968504,0,0,.001968504,0,0)" d="M 70900.01 118871.06 L 76417.808 118871.06 " fill-opacity="0" fill-rule="evenodd"/>
<path transform="matrix(.001968504,0,0,.001968504,0,0)" stroke-width="381" stroke-linecap="butt" stroke-linejoin="round" fill="none" stroke="#000000" d="M 70900.01 118871.06 L 76417.808 118871.06 "/>
<path transform="matrix(.001968504,0,0,.001968504,0,0)" d="M 162302.94 118852.07 L 166861.11 118852.07 " fill-opacity="0" fill-rule="evenodd"/>
<path transform="matrix(.001968504,0,0,.001968504,0,0)" stroke-width="381" stroke-linecap="butt" stroke-linejoin="round" fill="none" stroke="#000000" d="M 162302.94 118852.07 L 166861.11 118852.07 "/>
<path transform="matrix(.001968504,0,0,.001968504,0,0)" d="M 73187.63 73179.29 L 164591.07 73179.29 L 164591.07 164582.72 L 73187.63 164582.72 Z " fill-opacity="0" fill-rule="evenodd"/>
<path transform="matrix(.001968504,0,0,.001968504,0,0)" stroke-width="762" stroke-linecap="butt" stroke-linejoin="round" fill="none" stroke="#000000" d="M 73187.63 73179.29 L 164591.07 73179.29 L 164591.07 164582.72 L 73187.63 164582.72 Z "/>
<path transform="matrix(.001968504,0,0,.001968504,0,0)" d="M 162241.35 118850.9 L 168592.82 118850.9 " fill-opacity="0" fill-rule="evenodd"/>
<path transform="matrix(.001968504,0,0,.001968504,0,0)" stroke-width="381" stroke-linecap="butt" stroke-linejoin="round" fill="none" stroke="#000000" d="M 162241.35 118850.9 L 168592.82 118850.9 "/>
<path transform="matrix(.001968504,0,0,.001968504,0,0)" d="M 69156.49 118870.66 L 74872.2 118870.66 " fill-opacity="0" fill-rule="evenodd"/>
<path transform="matrix(.001968504,0,0,.001968504,0,0)" stroke-width="381" stroke-linecap="butt" stroke-linejoin="round" fill="none" stroke="#000000" d="M 69156.49 118870.66 L 74872.2 118870.66 "/>
<path transform="matrix(.001968504,0,0,.001968504,0,0)" d="M 118913 160958 L 118913 168604.94 " fill-opacity="0" fill-rule="evenodd"/>
<path transform="matrix(.001968504,0,0,.001968504,0,0)" stroke-width="381" stroke-linecap="butt" stroke-linejoin="round" fill="none" stroke="#000000" d="M 118913 160958 L 118913 168604.94 "/>
<path transform="matrix(.001968504,0,0,.001968504,0,0)" d="M 118889.52 69157.85 L 118889.52 76570.88 " fill-opacity="0" fill-rule="evenodd"/>
<path transform="matrix(.001968504,0,0,.001968504,0,0)" stroke-width="381" stroke-linecap="butt" stroke-linejoin="round" fill="none" stroke="#000000" d="M 118889.52 69157.85 L 118889.52 76570.88 "/>
</g>
</g>
</g>
</svg>
