<?xml version="1.0" encoding="UTF-8" standalone="no"?>
<!DOCTYPE svg PUBLIC "-//W3C//DTD SVG 1.1//EN" "http://www.w3.org/Graphics/SVG/1.1/DTD/svg11.dtd">
<svg xmlns="http://www.w3.org/2000/svg" xmlns:xlink="http://www.w3.org/1999/xlink" version="1.1" width="432pt" height="432pt" viewBox="0 0 432 432">
<g enable-background="new">
<g>
<clipPath id="cp0">
<path transform="matrix(.001968504,0,0,.001968504,0,0)" d="M 0 0 L 219456 0 L 219456 219456 L 0 219456 L 0 0 Z "/>
</clipPath>
<g clip-path="url(#cp0)">
<path transform="matrix(.001968504,0,0,.001968504,0,0)" d="M 0 0 L 219456 0 L 219456 219456 L 0 219456 Z " fill-opacity="0" fill-rule="evenodd"/>
<path transform="matrix(.001968504,0,0,.001968504,0,0)" d="M 18288.083 18288.387 L 201168.08 18288.387 L 201168.08 201168.39 L 18288.083 201168.39 Z " fill-opacity="0" fill-rule="evenodd"/>
<path transform="matrix(.001968504,0,0,.001968504,0,0)" stroke-width="762" stroke-linecap="butt" stroke-linejoin="round" fill="none" stroke="#000000" d="M 18288.083 18288.387 L 201168.08 18288.387 L 201168.08 201168.39 L 18288.083 201168.39 Z "/>
</g>
</g>
</g>
</svg>
