<?xml version="1.0" encoding="UTF-8" standalone="no"?>
<!DOCTYPE svg PUBLIC "-//W3C//DTD SVG 1.1//EN" "http://www.w3.org/Graphics/SVG/1.1/DTD/svg11.dtd">
<svg xmlns="http://www.w3.org/2000/svg" xmlns:xlink="http://www.w3.org/1999/xlink" version="1.1" width="468pt" height="468pt" viewBox="0 0 468 468">
<g enable-background="new">
<g>
<clipPath id="cp0">
<path transform="matrix(.001968504,0,0,.001968504,0,0)" d="M 0 0 L 237744 0 L 237744 237744 L 0 237744 L 0 0 Z "/>
</clipPath>
<g clip-path="url(#cp0)">
<path transform="matrix(.001968504,0,0,.001968504,0,0)" d="M 0 0 L 237744 0 L 237744 237744 L 0 237744 Z " fill-opacity="0" fill-rule="evenodd"/>
<path transform="matrix(.001968504,0,0,.001968504,0,0)" d="M 119182.089 26812.387 L 119182.089 26812.387 " fill-opacity="0" fill-rule="evenodd"/>
<path transform="matrix(.001968504,0,0,.001968504,0,0)" stroke-width="381" stroke-linecap="butt" stroke-linejoin="round" fill="none" stroke="#000000" d="M 119182.089 26812.387 L 119182.089 26812.387 "/>
<path transform="matrix(.001968504,0,0,.001968504,0,0)" d="M 27742.083 26812.387 L 210622.08 26812.387 L 210622.08 209692.39 L 27742.083 209692.39 Z " fill-opacity="0" fill-rule="evenodd"/>
<path transform="matrix(.001968504,0,0,.001968504,0,0)" stroke-width="762" stroke-linecap="butt" stroke-linejoin="round" fill="none" stroke="#000000" d="M 27742.083 26812.387 L 210622.08 26812.387 L 210622.08 209692.39 L 27742.083 209692.39 Z "/>
<path transform="matrix(.001968504,0,0,.001968504,0,0)" d="M 73404 22252 L 73404 31372 " fill-opacity="0" fill-rule="evenodd"/>
<path transform="matrix(.001968504,0,0,.001968504,0,0)" stroke-width="381" stroke-linecap="butt" stroke-linejoin="round" fill="none" stroke="#000000" d="M 73404 22252 L 73404 31372 "/>
<path transform="matrix(.001968504,0,0,.001968504,0,0)" d="M 119182 22252 L 119182 31372 " fill-opacity="0" fill-rule="evenodd"/>
<path transform="matrix(.001968504,0,0,.001968504,0,0)" stroke-width="381" stroke-linecap="butt" stroke-linejoin="round" fill="none" stroke="#000000" d="M 119182 22252 L 119182 31372 "/>
<path transform="matrix(.001968504,0,0,.001968504,0,0)" d="M 164884 22252 L 164884 31372 " fill-opacity="0" fill-rule="evenodd"/>
<path transform="matrix(.001968504,0,0,.001968504,0,0)" stroke-width="381" stroke-linecap="butt" stroke-linejoin="round" fill="none" stroke="#000000" d="M 164884 22252 L 164884 31372 "/>
<path transform="matrix(.001968504,0,0,.001968504,0,0)" d="M 73442 205131 L 73442 214251 " fill-opacity="0" fill-rule="evenodd"/>
<path transform="matrix(.001968504,0,0,.001968504,0,0)" stroke-width="381" stroke-linecap="butt" stroke-linejoin="round" fill="none" stroke="#000000" d="M 73442 205131 L 73442 214251 "/>
<path transform="matrix(.001968504,0,0,.001968504,0,0)" d="M 119220 205131 L 119220 214251 " fill-opacity="0" fill-rule="evenodd"/>
<path transform="matrix(.001968504,0,0,.001968504,0,0)" stroke-width="381" stroke-linecap="butt" stroke-linejoin="round" fill="none" stroke="#000000" d="M 119220 205131 L 119220 214251 "/>
<path transform="matrix(.001968504,0,0,.001968504,0,0)" d="M 164922 205131 L 164922 214251 " fill-opacity="0" fill-rule="evenodd"/>
<path transform="matrix(.001968504,0,0,.001968504,0,0)" stroke-width="381" stroke-linecap="butt" stroke-linejoin="round" fill="none" stroke="#000000" d="M 164922 205131 L 164922 214251 "/>
<path transform="matrix(.001968504,0,0,.001968504,0,0)" d="M 23163 164010.5 L 32283 164010.5 " fill-opacity="0" fill-rule="evenodd"/>
<path transform="matrix(.001968504,0,0,.001968504,0,0)" stroke-width="381" stroke-linecap="butt" stroke-linejoin="round" fill="none" stroke="#000000" d="M 23163 164010.5 L 32283 164010.5 "/>
<path transform="matrix(.001968504,0,0,.001968504,0,0)" d="M 23163 118232.5 L 32283 118232.5 " fill-opacity="0" fill-rule="evenodd"/>
<path transform="matrix(.001968504,0,0,.001968504,0,0)" stroke-width="381" stroke-linecap="butt" stroke-linejoin="round" fill="none" stroke="#000000" d="M 23163 118232.5 L 32283 118232.5 "/>
<path transform="matrix(.001968504,0,0,.001968504,0,0)" d="M 23163 72530.5 L 32283 72530.5 " fill-opacity="0" fill-rule="evenodd"/>
<path transform="matrix(.001968504,0,0,.001968504,0,0)" stroke-width="381" stroke-linecap="butt" stroke-linejoin="round" fill="none" stroke="#000000" d="M 23163 72530.5 L 32283 72530.5 "/>
<path transform="matrix(.001968504,0,0,.001968504,0,0)" d="M 206042 163972.5 L 215162 163972.5 " fill-opacity="0" fill-rule="evenodd"/>
<path transform="matrix(.001968504,0,0,.001968504,0,0)" stroke-width="381" stroke-linecap="butt" stroke-linejoin="round" fill="none" stroke="#000000" d="M 206042 163972.5 L 215162 163972.5 "/>
<path transform="matrix(.001968504,0,0,.001968504,0,0)" d="M 206042 118194.5 L 215162 118194.5 " fill-opacity="0" fill-rule="evenodd"/>
<path transform="matrix(.001968504,0,0,.001968504,0,0)" stroke-width="381" stroke-linecap="butt" stroke-linejoin="round" fill="none" stroke="#000000" d="M 206042 118194.5 L 215162 118194.5 "/>
<path transform="matrix(.001968504,0,0,.001968504,0,0)" d="M 206042 72492.5 L 215162 72492.5 " fill-opacity="0" fill-rule="evenodd"/>
<path transform="matrix(.001968504,0,0,.001968504,0,0)" stroke-width="381" stroke-linecap="butt" stroke-linejoin="round" fill="none" stroke="#000000" d="M 206042 72492.5 L 215162 72492.5 "/>
<path transform="matrix(.001968504,0,0,.001968504,0,0)" d="M 73469.63 26799.768 L 210684.5 72373.46 L 165110.8 209588.33 L 27895.94 164014.63 Z " fill-opacity="0" fill-rule="evenodd"/>
<path transform="matrix(.001968504,0,0,.001968504,0,0)" stroke-width="762" stroke-linecap="butt" stroke-linejoin="round" fill="none" stroke="#000000" d="M 73469.63 26799.768 L 210684.5 72373.46 L 165110.8 209588.33 L 27895.94 164014.63 Z "/>
<path transform="matrix(.001968504,0,0,.001968504,0,0)" d="M 108866.22 34757.06 L 106593.519 41599.798 " fill-opacity="0" fill-rule="evenodd"/>
<path transform="matrix(.001968504,0,0,.001968504,0,0)" stroke-width="381" stroke-linecap="butt" stroke-linejoin="round" fill="none" stroke="#000000" d="M 108866.22 34757.06 L 106593.519 41599.798 "/>
<path transform="matrix(.001968504,0,0,.001968504,0,0)" d="M 143213.46 46164.939 L 140940.75 53007.67 " fill-opacity="0" fill-rule="evenodd"/>
<path transform="matrix(.001968504,0,0,.001968504,0,0)" stroke-width="381" stroke-linecap="butt" stroke-linejoin="round" fill="none" stroke="#000000" d="M 143213.46 46164.939 L 140940.75 53007.67 "/>
<path transform="matrix(.001968504,0,0,.001968504,0,0)" d="M 177503.67 57553.876 L 175230.97 64396.61 " fill-opacity="0" fill-rule="evenodd"/>
<path transform="matrix(.001968504,0,0,.001968504,0,0)" stroke-width="381" stroke-linecap="butt" stroke-linejoin="round" fill="none" stroke="#000000" d="M 177503.67 57553.876 L 175230.97 64396.61 "/>
<path transform="matrix(.001968504,0,0,.001968504,0,0)" d="M 63321.287 171980.64 L 61048.583 178823.38 " fill-opacity="0" fill-rule="evenodd"/>
<path transform="matrix(.001968504,0,0,.001968504,0,0)" stroke-width="381" stroke-linecap="butt" stroke-linejoin="round" fill="none" stroke="#000000" d="M 63321.287 171980.64 L 61048.583 178823.38 "/>
<path transform="matrix(.001968504,0,0,.001968504,0,0)" d="M 97668.519 183388.52 L 95395.81 190231.25 " fill-opacity="0" fill-rule="evenodd"/>
<path transform="matrix(.001968504,0,0,.001968504,0,0)" stroke-width="381" stroke-linecap="butt" stroke-linejoin="round" fill="none" stroke="#000000" d="M 97668.519 183388.52 L 95395.81 190231.25 "/>
<path transform="matrix(.001968504,0,0,.001968504,0,0)" d="M 131958.74 194777.46 L 129686.02 201620.19 " fill-opacity="0" fill-rule="evenodd"/>
<path transform="matrix(.001968504,0,0,.001968504,0,0)" stroke-width="381" stroke-linecap="butt" stroke-linejoin="round" fill="none" stroke="#000000" d="M 131958.74 194777.46 L 129686.02 201620.19 "/>
<path transform="matrix(.001968504,0,0,.001968504,0,0)" d="M 35844.18 128598.41 L 42686.919 130871.11 " fill-opacity="0" fill-rule="evenodd"/>
<path transform="matrix(.001968504,0,0,.001968504,0,0)" stroke-width="381" stroke-linecap="butt" stroke-linejoin="round" fill="none" stroke="#000000" d="M 35844.18 128598.41 L 42686.919 130871.11 "/>
<path transform="matrix(.001968504,0,0,.001968504,0,0)" d="M 47252.06 94251.17 L 54094.794 96523.878 " fill-opacity="0" fill-rule="evenodd"/>
<path transform="matrix(.001968504,0,0,.001968504,0,0)" stroke-width="381" stroke-linecap="butt" stroke-linejoin="round" fill="none" stroke="#000000" d="M 47252.06 94251.17 L 54094.794 96523.878 "/>
<path transform="matrix(.001968504,0,0,.001968504,0,0)" d="M 58640.998 59960.96 L 65483.736 62233.666 " fill-opacity="0" fill-rule="evenodd"/>
<path transform="matrix(.001968504,0,0,.001968504,0,0)" stroke-width="381" stroke-linecap="butt" stroke-linejoin="round" fill="none" stroke="#000000" d="M 58640.998 59960.96 L 65483.736 62233.666 "/>
<path transform="matrix(.001968504,0,0,.001968504,0,0)" d="M 173067.77 174143.35 L 179910.5 176416.05 " fill-opacity="0" fill-rule="evenodd"/>
<path transform="matrix(.001968504,0,0,.001968504,0,0)" stroke-width="381" stroke-linecap="butt" stroke-linejoin="round" fill="none" stroke="#000000" d="M 173067.77 174143.35 L 179910.5 176416.05 "/>
<path transform="matrix(.001968504,0,0,.001968504,0,0)" d="M 184475.64 139796.11 L 191318.38 142068.82 " fill-opacity="0" fill-rule="evenodd"/>
<path transform="matrix(.001968504,0,0,.001968504,0,0)" stroke-width="381" stroke-linecap="butt" stroke-linejoin="round" fill="none" stroke="#000000" d="M 184475.64 139796.11 L 191318.38 142068.82 "/>
<path transform="matrix(.001968504,0,0,.001968504,0,0)" d="M 195864.58 105505.9 L 202707.32 107778.6 " fill-opacity="0" fill-rule="evenodd"/>
<path transform="matrix(.001968504,0,0,.001968504,0,0)" stroke-width="381" stroke-linecap="butt" stroke-linejoin="round" fill="none" stroke="#000000" d="M 195864.58 105505.9 L 202707.32 107778.6 "/>
<path transform="matrix(.001968504,0,0,.001968504,0,0)" d="M 107646.24 38183 L 199357.67 106793.49 L 130747.17 198504.92 L 39035.75 129894.42 Z " fill-opacity="0" fill-rule="evenodd"/>
<path transform="matrix(.001968504,0,0,.001968504,0,0)" stroke-width="762" stroke-linecap="butt" stroke-linejoin="round" fill="none" stroke="#000000" d="M 107646.24 38183 L 199357.67 106793.49 L 130747.17 198504.92 L 39035.75 129894.42 Z "/>
<path transform="matrix(.001968504,0,0,.001968504,0,0)" d="M 132305.28 52775.87 L 128870.699 57366.88 " fill-opacity="0" fill-rule="evenodd"/>
<path transform="matrix(.001968504,0,0,.001968504,0,0)" stroke-width="381" stroke-linecap="butt" stroke-linejoin="round" fill="none" stroke="#000000" d="M 132305.28 52775.87 L 128870.699 57366.88 "/>
<path transform="matrix(.001968504,0,0,.001968504,0,0)" d="M 155349.92 70015.87 L 151915.35 74606.878 " fill-opacity="0" fill-rule="evenodd"/>
<path transform="matrix(.001968504,0,0,.001968504,0,0)" stroke-width="381" stroke-linecap="butt" stroke-linejoin="round" fill="none" stroke="#000000" d="M 155349.92 70015.87 L 151915.35 74606.878 "/>
<path transform="matrix(.001968504,0,0,.001968504,0,0)" d="M 178356.32 87227.24 L 174921.72 91818.25 " fill-opacity="0" fill-rule="evenodd"/>
<path transform="matrix(.001968504,0,0,.001968504,0,0)" stroke-width="381" stroke-linecap="butt" stroke-linejoin="round" fill="none" stroke="#000000" d="M 178356.32 87227.24 L 174921.72 91818.25 "/>
<path transform="matrix(.001968504,0,0,.001968504,0,0)" d="M 63452.185 144851.47 L 60017.59 149442.49 " fill-opacity="0" fill-rule="evenodd"/>
<path transform="matrix(.001968504,0,0,.001968504,0,0)" stroke-width="381" stroke-linecap="butt" stroke-linejoin="round" fill="none" stroke="#000000" d="M 63452.185 144851.47 L 60017.59 149442.49 "/>
<path transform="matrix(.001968504,0,0,.001968504,0,0)" d="M 86496.83 162091.47 L 83062.238 166682.47 " fill-opacity="0" fill-rule="evenodd"/>
<path transform="matrix(.001968504,0,0,.001968504,0,0)" stroke-width="381" stroke-linecap="butt" stroke-linejoin="round" fill="none" stroke="#000000" d="M 86496.83 162091.47 L 83062.238 166682.47 "/>
<path transform="matrix(.001968504,0,0,.001968504,0,0)" d="M 109503.21 179302.85 L 106068.628 183893.85 " fill-opacity="0" fill-rule="evenodd"/>
<path transform="matrix(.001968504,0,0,.001968504,0,0)" stroke-width="381" stroke-linecap="butt" stroke-linejoin="round" fill="none" stroke="#000000" d="M 109503.21 179302.85 L 106068.628 183893.85 "/>
<path transform="matrix(.001968504,0,0,.001968504,0,0)" d="M 53627.716 105216.339 L 58218.724 108650.93 " fill-opacity="0" fill-rule="evenodd"/>
<path transform="matrix(.001968504,0,0,.001968504,0,0)" stroke-width="381" stroke-linecap="butt" stroke-linejoin="round" fill="none" stroke="#000000" d="M 53627.716 105216.339 L 58218.724 108650.93 "/>
<path transform="matrix(.001968504,0,0,.001968504,0,0)" d="M 70867.71 82171.699 L 75458.72 85606.29 " fill-opacity="0" fill-rule="evenodd"/>
<path transform="matrix(.001968504,0,0,.001968504,0,0)" stroke-width="381" stroke-linecap="butt" stroke-linejoin="round" fill="none" stroke="#000000" d="M 70867.71 82171.699 L 75458.72 85606.29 "/>
<path transform="matrix(.001968504,0,0,.001968504,0,0)" d="M 88079.08 59165.31 L 92670.09 62599.9 " fill-opacity="0" fill-rule="evenodd"/>
<path transform="matrix(.001968504,0,0,.001968504,0,0)" stroke-width="381" stroke-linecap="butt" stroke-linejoin="round" fill="none" stroke="#000000" d="M 88079.08 59165.31 L 92670.09 62599.9 "/>
<path transform="matrix(.001968504,0,0,.001968504,0,0)" d="M 145703.32 174069.44 L 150294.33 177504.03 " fill-opacity="0" fill-rule="evenodd"/>
<path transform="matrix(.001968504,0,0,.001968504,0,0)" stroke-width="381" stroke-linecap="butt" stroke-linejoin="round" fill="none" stroke="#000000" d="M 145703.32 174069.44 L 150294.33 177504.03 "/>
<path transform="matrix(.001968504,0,0,.001968504,0,0)" d="M 162943.32 151024.8 L 167534.32 154459.39 " fill-opacity="0" fill-rule="evenodd"/>
<path transform="matrix(.001968504,0,0,.001968504,0,0)" stroke-width="381" stroke-linecap="butt" stroke-linejoin="round" fill="none" stroke="#000000" d="M 162943.32 151024.8 L 167534.32 154459.39 "/>
<path transform="matrix(.001968504,0,0,.001968504,0,0)" d="M 180154.69 128018.41 L 184745.69 131453 " fill-opacity="0" fill-rule="evenodd"/>
<path transform="matrix(.001968504,0,0,.001968504,0,0)" stroke-width="381" stroke-linecap="butt" stroke-linejoin="round" fill="none" stroke="#000000" d="M 180154.69 128018.41 L 184745.69 131453 "/>
<path transform="matrix(.001968504,0,0,.001968504,0,0)" d="M 130532.69 55299.13 L 182236.5 129684.85 L 107850.78 181388.67 L 56146.96 107002.949 Z " fill-opacity="0" fill-rule="evenodd"/>
<path transform="matrix(.001968504,0,0,.001968504,0,0)" stroke-width="762" stroke-linecap="butt" stroke-linejoin="round" fill="none" stroke="#000000" d="M 130532.69 55299.13 L 182236.5 129684.85 L 107850.78 181388.67 L 56146.96 107002.949 Z "/>
<path transform="matrix(.001968504,0,0,.001968504,0,0)" d="M 145396.88 72406.58 L 141673.17 74994.839 " fill-opacity="0" fill-rule="evenodd"/>
<path transform="matrix(.001968504,0,0,.001968504,0,0)" stroke-width="381" stroke-linecap="butt" stroke-linejoin="round" fill="none" stroke="#000000" d="M 145396.88 72406.58 L 141673.17 74994.839 "/>
<path transform="matrix(.001968504,0,0,.001968504,0,0)" d="M 158388.67 91097.738 L 154664.97 93685.99 " fill-opacity="0" fill-rule="evenodd"/>
<path transform="matrix(.001968504,0,0,.001968504,0,0)" stroke-width="381" stroke-linecap="butt" stroke-linejoin="round" fill="none" stroke="#000000" d="M 158388.67 91097.738 L 154664.97 93685.99 "/>
<path transform="matrix(.001968504,0,0,.001968504,0,0)" d="M 171358.9 109757.86 L 167635.2 112346.12 " fill-opacity="0" fill-rule="evenodd"/>
<path transform="matrix(.001968504,0,0,.001968504,0,0)" stroke-width="381" stroke-linecap="butt" stroke-linejoin="round" fill="none" stroke="#000000" d="M 171358.9 109757.86 L 167635.2 112346.12 "/>
<path transform="matrix(.001968504,0,0,.001968504,0,0)" d="M 70738.167 124323.16 L 67014.47 126911.41 " fill-opacity="0" fill-rule="evenodd"/>
<path transform="matrix(.001968504,0,0,.001968504,0,0)" stroke-width="381" stroke-linecap="butt" stroke-linejoin="round" fill="none" stroke="#000000" d="M 70738.167 124323.16 L 67014.47 126911.41 "/>
<path transform="matrix(.001968504,0,0,.001968504,0,0)" d="M 83729.96 143014.32 L 80006.269 145602.57 " fill-opacity="0" fill-rule="evenodd"/>
<path transform="matrix(.001968504,0,0,.001968504,0,0)" stroke-width="381" stroke-linecap="butt" stroke-linejoin="round" fill="none" stroke="#000000" d="M 83729.96 143014.32 L 80006.269 145602.57 "/>
<path transform="matrix(.001968504,0,0,.001968504,0,0)" d="M 96700.19 161674.44 L 92976.49 164262.69 " fill-opacity="0" fill-rule="evenodd"/>
<path transform="matrix(.001968504,0,0,.001968504,0,0)" stroke-width="381" stroke-linecap="butt" stroke-linejoin="round" fill="none" stroke="#000000" d="M 96700.19 161674.44 L 92976.49 164262.69 "/>
<path transform="matrix(.001968504,0,0,.001968504,0,0)" d="M 73258.488 92124.24 L 75846.74 95847.94 " fill-opacity="0" fill-rule="evenodd"/>
<path transform="matrix(.001968504,0,0,.001968504,0,0)" stroke-width="381" stroke-linecap="butt" stroke-linejoin="round" fill="none" stroke="#000000" d="M 73258.488 92124.24 L 75846.74 95847.94 "/>
<path transform="matrix(.001968504,0,0,.001968504,0,0)" d="M 91949.64 79132.449 L 94537.9 82856.14 " fill-opacity="0" fill-rule="evenodd"/>
<path transform="matrix(.001968504,0,0,.001968504,0,0)" stroke-width="381" stroke-linecap="butt" stroke-linejoin="round" fill="none" stroke="#000000" d="M 91949.64 79132.449 L 94537.9 82856.14 "/>
<path transform="matrix(.001968504,0,0,.001968504,0,0)" d="M 110609.769 66162.22 L 113198.02 69885.917 " fill-opacity="0" fill-rule="evenodd"/>
<path transform="matrix(.001968504,0,0,.001968504,0,0)" stroke-width="381" stroke-linecap="butt" stroke-linejoin="round" fill="none" stroke="#000000" d="M 110609.769 66162.22 L 113198.02 69885.917 "/>
<path transform="matrix(.001968504,0,0,.001968504,0,0)" d="M 125175.06 166782.96 L 127763.31 170506.64 " fill-opacity="0" fill-rule="evenodd"/>
<path transform="matrix(.001968504,0,0,.001968504,0,0)" stroke-width="381" stroke-linecap="butt" stroke-linejoin="round" fill="none" stroke="#000000" d="M 125175.06 166782.96 L 127763.31 170506.64 "/>
<path transform="matrix(.001968504,0,0,.001968504,0,0)" d="M 143866.22 153791.16 L 146454.47 157514.85 " fill-opacity="0" fill-rule="evenodd"/>
<path transform="matrix(.001968504,0,0,.001968504,0,0)" stroke-width="381" stroke-linecap="butt" stroke-linejoin="round" fill="none" stroke="#000000" d="M 143866.22 153791.16 L 146454.47 157514.85 "/>
<path transform="matrix(.001968504,0,0,.001968504,0,0)" d="M 162526.35 140820.92 L 165114.6 144544.63 " fill-opacity="0" fill-rule="evenodd"/>
<path transform="matrix(.001968504,0,0,.001968504,0,0)" stroke-width="381" stroke-linecap="butt" stroke-linejoin="round" fill="none" stroke="#000000" d="M 162526.35 140820.92 L 165114.6 144544.63 "/>
<path transform="matrix(.001968504,0,0,.001968504,0,0)" d="M 40266 -2483 L 59322 -2483 L 59322 18853 L 40266 18853 Z " fill-opacity="0" fill-rule="evenodd"/>
<path transform="matrix(.75,0,0,.75,79.26378,-4.8877956)" d="M 17.387154 6.108528 L 32.628595 6.108528 L 32.628595 42.409448 L 17.387154 42.409448 L 17.387154 6.108528 Z " fill-opacity="0"/>
<symbol id="font_1_14">
<path d="M .25732423 0 L .17822266 0 L .17822266 .50878909 C .17822266 .55110678 .17952474 .5911458 .1821289 .62890627 C .17529297 .6220703 .16764324 .6149089 .15917969 .6074219 C .15071614 .5999349 .111979167 .5681966 .04296875 .51220706 L 0 .5678711 L .18896485 .7138672 L .25732423 .7138672 L .25732423 0 Z "/>
</symbol>
<use xlink:href="#font_1_14" transform="matrix(20,0,0,-20,94.14008,21.062203)"/>
<path transform="matrix(.75,0,0,.75,79.26378,-4.8877956)" d="M 32.628595 6.108528 L 32.628595 6.108528 L 32.628595 42.409448 L 32.628595 6.108528 Z " fill-opacity="0"/>
<path transform="matrix(.75,0,0,.75,79.26378,-4.8877956)" d="M 17.387154 36.333333 L 32.628595 36.333333 L 32.628595 38.733335 L 17.387154 38.733335 L 17.387154 36.333333 Z "/>
<symbol id="font_1_17">
<path d="M .5307617 .1640625 L .4248047 .1640625 L .4248047 0 L .34716798 0 L .34716798 .1640625 L 0 .1640625 L 0 .23486328 L .3388672 .71777346 L .4248047 .71777346 L .4248047 .23779297 L .5307617 .23779297 L .5307617 .1640625 M .34716798 .23779297 L .34716798 .47509767 C .34716798 .52164718 .34879557 .57421877 .35205079 .6328125 L .34814454 .6328125 C .33251954 .6015625 .3178711 .5756836 .30419923 .5551758 L .08105469 .23779297 L .34716798 .23779297 Z "/>
</symbol>
<use xlink:href="#font_1_17" transform="matrix(20,0,0,-20,92.72407,45.062204)"/>
<path transform="matrix(.001968504,0,0,.001968504,0,0)" d="M 209868 34398 L 228924 34398 L 228924 55734 L 209868 55734 Z " fill-opacity="0" fill-rule="evenodd"/>
<path transform="matrix(.75,0,0,.75,413.12599,67.7126)" d="M 17.387154 6.108528 L 32.628595 6.108528 L 32.628595 42.409448 L 17.387154 42.409448 L 17.387154 6.108528 Z " fill-opacity="0"/>
<use xlink:href="#font_1_14" transform="matrix(20,0,0,-20,428.0023,93.6626)"/>
<path transform="matrix(.75,0,0,.75,413.12599,67.7126)" d="M 32.628595 6.108528 L 32.628595 6.108528 L 32.628595 42.409448 L 32.628595 6.108528 Z " fill-opacity="0"/>
<path transform="matrix(.75,0,0,.75,413.12599,67.7126)" d="M 17.387154 36.333333 L 32.628595 36.333333 L 32.628595 38.733335 L 17.387154 38.733335 L 17.387154 36.333333 Z "/>
<use xlink:href="#font_1_17" transform="matrix(20,0,0,-20,426.58628,117.6626)"/>
<path transform="matrix(.001968504,0,0,.001968504,0,0)" d="M 8783 173982 L 27839 173982 L 27839 195318 L 8783 195318 Z " fill-opacity="0" fill-rule="evenodd"/>
<path transform="matrix(.75,0,0,.75,17.289372,342.48426)" d="M 17.387154 6.108528 L 32.628595 6.108528 L 32.628595 42.409448 L 17.387154 42.409448 L 17.387154 6.108528 Z " fill-opacity="0"/>
<use xlink:href="#font_1_14" transform="matrix(20,0,0,-20,32.165674,368.43428)"/>
<path transform="matrix(.75,0,0,.75,17.289372,342.48426)" d="M 32.628595 6.108528 L 32.628595 6.108528 L 32.628595 42.409448 L 32.628595 6.108528 Z " fill-opacity="0"/>
<path transform="matrix(.75,0,0,.75,17.289372,342.48426)" d="M 17.387154 36.333333 L 32.628595 36.333333 L 32.628595 38.733335 L 17.387154 38.733335 L 17.387154 36.333333 Z "/>
<use xlink:href="#font_1_17" transform="matrix(20,0,0,-20,30.749659,392.43428)"/>
<path transform="matrix(.001968504,0,0,.001968504,0,0)" d="M 180582 207949 L 199638 207949 L 199638 232777 L 180582 232777 Z " fill-opacity="0" fill-rule="evenodd"/>
<path transform="matrix(.75,0,0,.75,355.47639,409.34846)" d="M 17.387154 6.108528 L 32.628595 6.108528 L 32.628595 42.409448 L 17.387154 42.409448 L 17.387154 6.108528 Z " fill-opacity="0"/>
<use xlink:href="#font_1_14" transform="matrix(20,0,0,-20,370.3527,435.29847)"/>
<path transform="matrix(.75,0,0,.75,355.47639,409.34846)" d="M 32.628595 6.108528 L 32.628595 6.108528 L 32.628595 42.409448 L 32.628595 6.108528 Z " fill-opacity="0"/>
<path transform="matrix(.75,0,0,.75,355.47639,409.34846)" d="M 17.387154 36.333333 L 32.628595 36.333333 L 32.628595 38.733335 L 17.387154 38.733335 L 17.387154 36.333333 Z "/>
<use xlink:href="#font_1_17" transform="matrix(20,0,0,-20,368.93669,459.29847)"/>
</g>
</g>
</g>
</svg>
