<?xml version="1.0" encoding="UTF-8" standalone="no"?>
<!DOCTYPE svg PUBLIC "-//W3C//DTD SVG 1.1//EN" "http://www.w3.org/Graphics/SVG/1.1/DTD/svg11.dtd">
<svg xmlns="http://www.w3.org/2000/svg" xmlns:xlink="http://www.w3.org/1999/xlink" version="1.1" width="468pt" height="468pt" viewBox="0 0 468 468">
<g enable-background="new">
<g>
<clipPath id="cp0">
<path transform="matrix(.001968504,0,0,.001968504,0,0)" d="M 0 0 L 237744 0 L 237744 237744 L 0 237744 L 0 0 Z "/>
</clipPath>
<g clip-path="url(#cp0)">
<path transform="matrix(.001968504,0,0,.001968504,0,0)" d="M 0 0 L 237744 0 L 237744 237744 L 0 237744 Z " fill-opacity="0" fill-rule="evenodd"/>
<path transform="matrix(.001968504,0,0,.001968504,0,0)" d="M 27761.583 26812.387 L 210641.58 26812.387 L 210641.58 209692.39 L 27761.583 209692.39 Z " fill-opacity="0" fill-rule="evenodd"/>
<path transform="matrix(.001968504,0,0,.001968504,0,0)" stroke-width="762" stroke-linecap="butt" stroke-linejoin="round" fill="none" stroke="#000000" d="M 27761.583 26812.387 L 210641.58 26812.387 L 210641.58 209692.39 L 27761.583 209692.39 Z "/>
<path transform="matrix(.001968504,0,0,.001968504,0,0)" d="M 28244 72565 L 73496 26909 L 210633 72472 L 73558 209780 Z " fill-opacity="0" fill-rule="evenodd"/>
<path transform="matrix(.001968504,0,0,.001968504,0,0)" stroke-width="762" stroke-linecap="butt" stroke-linejoin="round" fill="none" stroke="#000000" d="M 28244 72565 L 73496 26909 L 210633 72472 L 73558 209780 Z "/>
<path transform="matrix(.001968504,0,0,.001968504,0,0)" d="M 119201.589 26812.387 L 119201.589 26812.387 " fill-opacity="0" fill-rule="evenodd"/>
<path transform="matrix(.001968504,0,0,.001968504,0,0)" stroke-width="381" stroke-linecap="butt" stroke-linejoin="round" fill="none" stroke="#000000" d="M 119201.589 26812.387 L 119201.589 26812.387 "/>
<path transform="matrix(.001968504,0,0,.001968504,0,0)" d="M 73423.5 22252 L 73423.5 31372 " fill-opacity="0" fill-rule="evenodd"/>
<path transform="matrix(.001968504,0,0,.001968504,0,0)" stroke-width="381" stroke-linecap="butt" stroke-linejoin="round" fill="none" stroke="#000000" d="M 73423.5 22252 L 73423.5 31372 "/>
<path transform="matrix(.001968504,0,0,.001968504,0,0)" d="M 119201.5 22252 L 119201.5 31372 " fill-opacity="0" fill-rule="evenodd"/>
<path transform="matrix(.001968504,0,0,.001968504,0,0)" stroke-width="381" stroke-linecap="butt" stroke-linejoin="round" fill="none" stroke="#000000" d="M 119201.5 22252 L 119201.5 31372 "/>
<path transform="matrix(.001968504,0,0,.001968504,0,0)" d="M 164903.5 22252 L 164903.5 31372 " fill-opacity="0" fill-rule="evenodd"/>
<path transform="matrix(.001968504,0,0,.001968504,0,0)" stroke-width="381" stroke-linecap="butt" stroke-linejoin="round" fill="none" stroke="#000000" d="M 164903.5 22252 L 164903.5 31372 "/>
<path transform="matrix(.001968504,0,0,.001968504,0,0)" d="M 73461.5 205131 L 73461.5 214251 " fill-opacity="0" fill-rule="evenodd"/>
<path transform="matrix(.001968504,0,0,.001968504,0,0)" stroke-width="381" stroke-linecap="butt" stroke-linejoin="round" fill="none" stroke="#000000" d="M 73461.5 205131 L 73461.5 214251 "/>
<path transform="matrix(.001968504,0,0,.001968504,0,0)" d="M 119239.5 205131 L 119239.5 214251 " fill-opacity="0" fill-rule="evenodd"/>
<path transform="matrix(.001968504,0,0,.001968504,0,0)" stroke-width="381" stroke-linecap="butt" stroke-linejoin="round" fill="none" stroke="#000000" d="M 119239.5 205131 L 119239.5 214251 "/>
<path transform="matrix(.001968504,0,0,.001968504,0,0)" d="M 164941.5 205131 L 164941.5 214251 " fill-opacity="0" fill-rule="evenodd"/>
<path transform="matrix(.001968504,0,0,.001968504,0,0)" stroke-width="381" stroke-linecap="butt" stroke-linejoin="round" fill="none" stroke="#000000" d="M 164941.5 205131 L 164941.5 214251 "/>
<path transform="matrix(.001968504,0,0,.001968504,0,0)" d="M 23182.5 164010.5 L 32302.5 164010.5 " fill-opacity="0" fill-rule="evenodd"/>
<path transform="matrix(.001968504,0,0,.001968504,0,0)" stroke-width="381" stroke-linecap="butt" stroke-linejoin="round" fill="none" stroke="#000000" d="M 23182.5 164010.5 L 32302.5 164010.5 "/>
<path transform="matrix(.001968504,0,0,.001968504,0,0)" d="M 23182.5 118232.5 L 32302.5 118232.5 " fill-opacity="0" fill-rule="evenodd"/>
<path transform="matrix(.001968504,0,0,.001968504,0,0)" stroke-width="381" stroke-linecap="butt" stroke-linejoin="round" fill="none" stroke="#000000" d="M 23182.5 118232.5 L 32302.5 118232.5 "/>
<path transform="matrix(.001968504,0,0,.001968504,0,0)" d="M 23182.5 72530.5 L 32302.5 72530.5 " fill-opacity="0" fill-rule="evenodd"/>
<path transform="matrix(.001968504,0,0,.001968504,0,0)" stroke-width="381" stroke-linecap="butt" stroke-linejoin="round" fill="none" stroke="#000000" d="M 23182.5 72530.5 L 32302.5 72530.5 "/>
<path transform="matrix(.001968504,0,0,.001968504,0,0)" d="M 206061.5 163972.5 L 215181.5 163972.5 " fill-opacity="0" fill-rule="evenodd"/>
<path transform="matrix(.001968504,0,0,.001968504,0,0)" stroke-width="381" stroke-linecap="butt" stroke-linejoin="round" fill="none" stroke="#000000" d="M 206061.5 163972.5 L 215181.5 163972.5 "/>
<path transform="matrix(.001968504,0,0,.001968504,0,0)" d="M 206061.5 118194.5 L 215181.5 118194.5 " fill-opacity="0" fill-rule="evenodd"/>
<path transform="matrix(.001968504,0,0,.001968504,0,0)" stroke-width="381" stroke-linecap="butt" stroke-linejoin="round" fill="none" stroke="#000000" d="M 206061.5 118194.5 L 215181.5 118194.5 "/>
<path transform="matrix(.001968504,0,0,.001968504,0,0)" d="M 206061.5 72492.5 L 215181.5 72492.5 " fill-opacity="0" fill-rule="evenodd"/>
<path transform="matrix(.001968504,0,0,.001968504,0,0)" stroke-width="381" stroke-linecap="butt" stroke-linejoin="round" fill="none" stroke="#000000" d="M 206061.5 72492.5 L 215181.5 72492.5 "/>
<path transform="matrix(.001968504,0,0,.001968504,0,0)" d="M 40266 -2483 L 59322 -2483 L 59322 18853 L 40266 18853 Z " fill-opacity="0" fill-rule="evenodd"/>
<path transform="matrix(.75,0,0,.75,79.26378,-4.8877956)" d="M 17.387154 6.108528 L 32.628595 6.108528 L 32.628595 42.409448 L 17.387154 42.409448 L 17.387154 6.108528 Z " fill-opacity="0"/>
<symbol id="font_1_14">
<path d="M .25732423 0 L .17822266 0 L .17822266 .50878909 C .17822266 .55110678 .17952474 .5911458 .1821289 .62890627 C .17529297 .6220703 .16764324 .6149089 .15917969 .6074219 C .15071614 .5999349 .111979167 .5681966 .04296875 .51220706 L 0 .5678711 L .18896485 .7138672 L .25732423 .7138672 L .25732423 0 Z "/>
</symbol>
<use xlink:href="#font_1_14" transform="matrix(20,0,0,-20,94.14008,21.062203)"/>
<path transform="matrix(.75,0,0,.75,79.26378,-4.8877956)" d="M 32.628595 6.108528 L 32.628595 6.108528 L 32.628595 42.409448 L 32.628595 6.108528 Z " fill-opacity="0"/>
<path transform="matrix(.75,0,0,.75,79.26378,-4.8877956)" d="M 17.387154 36.333333 L 32.628595 36.333333 L 32.628595 38.733335 L 17.387154 38.733335 L 17.387154 36.333333 Z "/>
<symbol id="font_1_17">
<path d="M .5307617 .1640625 L .4248047 .1640625 L .4248047 0 L .34716798 0 L .34716798 .1640625 L 0 .1640625 L 0 .23486328 L .3388672 .71777346 L .4248047 .71777346 L .4248047 .23779297 L .5307617 .23779297 L .5307617 .1640625 M .34716798 .23779297 L .34716798 .47509767 C .34716798 .52164718 .34879557 .57421877 .35205079 .6328125 L .34814454 .6328125 C .33251954 .6015625 .3178711 .5756836 .30419923 .5551758 L .08105469 .23779297 L .34716798 .23779297 Z "/>
</symbol>
<use xlink:href="#font_1_17" transform="matrix(20,0,0,-20,92.72407,45.062204)"/>
<path transform="matrix(.001968504,0,0,.001968504,0,0)" d="M 209868 38007 L 228924 38007 L 228924 59343 L 209868 59343 Z " fill-opacity="0" fill-rule="evenodd"/>
<path transform="matrix(.75,0,0,.75,413.12599,74.816928)" d="M 17.387154 6.108528 L 32.628595 6.108528 L 32.628595 42.409448 L 17.387154 42.409448 L 17.387154 6.108528 Z " fill-opacity="0"/>
<use xlink:href="#font_1_14" transform="matrix(20,0,0,-20,428.0023,100.76692)"/>
<path transform="matrix(.75,0,0,.75,413.12599,74.816928)" d="M 32.628595 6.108528 L 32.628595 6.108528 L 32.628595 42.409448 L 32.628595 6.108528 Z " fill-opacity="0"/>
<path transform="matrix(.75,0,0,.75,413.12599,74.816928)" d="M 17.387154 36.333333 L 32.628595 36.333333 L 32.628595 38.733335 L 17.387154 38.733335 L 17.387154 36.333333 Z "/>
<use xlink:href="#font_1_17" transform="matrix(20,0,0,-20,426.58628,124.76692)"/>
<path transform="matrix(.001968504,0,0,.001968504,0,0)" d="M 8783 34316 L 27839 34316 L 27839 55652 L 8783 55652 Z " fill-opacity="0" fill-rule="evenodd"/>
<path transform="matrix(.75,0,0,.75,17.289372,67.551189)" d="M 17.387154 6.108528 L 32.628595 6.108528 L 32.628595 42.409448 L 17.387154 42.409448 L 17.387154 6.108528 Z " fill-opacity="0"/>
<use xlink:href="#font_1_14" transform="matrix(20,0,0,-20,32.165674,93.50118)"/>
<path transform="matrix(.75,0,0,.75,17.289372,67.551189)" d="M 32.628595 6.108528 L 32.628595 6.108528 L 32.628595 42.409448 L 32.628595 6.108528 Z " fill-opacity="0"/>
<path transform="matrix(.75,0,0,.75,17.289372,67.551189)" d="M 17.387154 36.333333 L 32.628595 36.333333 L 32.628595 38.733335 L 17.387154 38.733335 L 17.387154 36.333333 Z "/>
<use xlink:href="#font_1_17" transform="matrix(20,0,0,-20,30.749659,117.50118)"/>
<path transform="matrix(.001968504,0,0,.001968504,0,0)" d="M 40266 207949 L 59322 207949 L 59322 232777 L 40266 232777 Z " fill-opacity="0" fill-rule="evenodd"/>
<path transform="matrix(.75,0,0,.75,79.26378,409.34846)" d="M 17.387154 6.108528 L 32.628595 6.108528 L 32.628595 42.409448 L 17.387154 42.409448 L 17.387154 6.108528 Z " fill-opacity="0"/>
<use xlink:href="#font_1_14" transform="matrix(20,0,0,-20,94.14008,435.29847)"/>
<path transform="matrix(.75,0,0,.75,79.26378,409.34846)" d="M 32.628595 6.108528 L 32.628595 6.108528 L 32.628595 42.409448 L 32.628595 6.108528 Z " fill-opacity="0"/>
<path transform="matrix(.75,0,0,.75,79.26378,409.34846)" d="M 17.387154 36.333333 L 32.628595 36.333333 L 32.628595 38.733335 L 17.387154 38.733335 L 17.387154 36.333333 Z "/>
<use xlink:href="#font_1_17" transform="matrix(20,0,0,-20,92.72407,459.29847)"/>
<path transform="matrix(.001968504,0,0,.001968504,0,0)" d="M 63781 37213 L 39883 107140 L 176911 106674 L 105914 37695 Z " fill-opacity="0" fill-rule="evenodd"/>
<path transform="matrix(.001968504,0,0,.001968504,0,0)" stroke-width="762" stroke-linecap="butt" stroke-linejoin="round" fill="none" stroke="#000000" d="M 63781 37213 L 39883 107140 L 176911 106674 L 105914 37695 Z "/>
<path transform="matrix(.001968504,0,0,.001968504,0,0)" d="M 37328.357 58025.548 L 42386.197 63044.7 " fill-opacity="0" fill-rule="evenodd"/>
<path transform="matrix(.001968504,0,0,.001968504,0,0)" stroke-width="381" stroke-linecap="butt" stroke-linejoin="round" fill="none" stroke="#000000" d="M 37328.357 58025.548 L 42386.197 63044.7 "/>
<path transform="matrix(.001968504,0,0,.001968504,0,0)" d="M 49262.68 46155.314 L 54320.52 51174.46 " fill-opacity="0" fill-rule="evenodd"/>
<path transform="matrix(.001968504,0,0,.001968504,0,0)" stroke-width="381" stroke-linecap="butt" stroke-linejoin="round" fill="none" stroke="#000000" d="M 49262.68 46155.314 L 54320.52 51174.46 "/>
<path transform="matrix(.001968504,0,0,.001968504,0,0)" d="M 61177.19 34304.787 L 66235.03 39323.935 " fill-opacity="0" fill-rule="evenodd"/>
<path transform="matrix(.001968504,0,0,.001968504,0,0)" stroke-width="381" stroke-linecap="butt" stroke-linejoin="round" fill="none" stroke="#000000" d="M 61177.19 34304.787 L 66235.03 39323.935 "/>
<path transform="matrix(.001968504,0,0,.001968504,0,0)" d="M 107542.08 171350.22 L 111021.78 174847.49 " fill-opacity="0" fill-rule="evenodd"/>
<path transform="matrix(.001968504,0,0,.001968504,0,0)" stroke-width="381" stroke-linecap="butt" stroke-linejoin="round" fill="none" stroke="#000000" d="M 107542.08 171350.22 L 111021.78 174847.49 "/>
<path transform="matrix(.001968504,0,0,.001968504,0,0)" d="M 141060.74 137831.57 L 144540.44 141328.83 " fill-opacity="0" fill-rule="evenodd"/>
<path transform="matrix(.001968504,0,0,.001968504,0,0)" stroke-width="381" stroke-linecap="butt" stroke-linejoin="round" fill="none" stroke="#000000" d="M 141060.74 137831.57 L 144540.44 141328.83 "/>
<path transform="matrix(.001968504,0,0,.001968504,0,0)" d="M 174523.74 104368.558 L 178003.44 107865.83 " fill-opacity="0" fill-rule="evenodd"/>
<path transform="matrix(.001968504,0,0,.001968504,0,0)" stroke-width="381" stroke-linecap="butt" stroke-linejoin="round" fill="none" stroke="#000000" d="M 174523.74 104368.558 L 178003.44 107865.83 "/>
<path transform="matrix(.001968504,0,0,.001968504,0,0)" d="M 173271.49 64642.857 L 175625.67 57717.318 " fill-opacity="0" fill-rule="evenodd"/>
<path transform="matrix(.001968504,0,0,.001968504,0,0)" stroke-width="381" stroke-linecap="butt" stroke-linejoin="round" fill="none" stroke="#000000" d="M 173271.49 64642.857 L 175625.67 57717.318 "/>
<path transform="matrix(.001968504,0,0,.001968504,0,0)" d="M 139111.96 52923.689 L 141466.13 45998.154 " fill-opacity="0" fill-rule="evenodd"/>
<path transform="matrix(.001968504,0,0,.001968504,0,0)" stroke-width="381" stroke-linecap="butt" stroke-linejoin="round" fill="none" stroke="#000000" d="M 139111.96 52923.689 L 141466.13 45998.154 "/>
<path transform="matrix(.001968504,0,0,.001968504,0,0)" d="M 105009.12 41223.974 L 107363.3 34298.439 " fill-opacity="0" fill-rule="evenodd"/>
<path transform="matrix(.001968504,0,0,.001968504,0,0)" stroke-width="381" stroke-linecap="butt" stroke-linejoin="round" fill="none" stroke="#000000" d="M 105009.12 41223.974 L 107363.3 34298.439 "/>
<path transform="matrix(.001968504,0,0,.001968504,0,0)" d="M 66078.6 174493.75 L 59153.068 176847.92 " fill-opacity="0" fill-rule="evenodd"/>
<path transform="matrix(.001968504,0,0,.001968504,0,0)" stroke-width="381" stroke-linecap="butt" stroke-linejoin="round" fill="none" stroke="#000000" d="M 66078.6 174493.75 L 59153.068 176847.92 "/>
<path transform="matrix(.001968504,0,0,.001968504,0,0)" d="M 54359.435 140334.2 L 47433.9 142688.38 " fill-opacity="0" fill-rule="evenodd"/>
<path transform="matrix(.001968504,0,0,.001968504,0,0)" stroke-width="381" stroke-linecap="butt" stroke-linejoin="round" fill="none" stroke="#000000" d="M 54359.435 140334.2 L 47433.9 142688.38 "/>
<path transform="matrix(.001968504,0,0,.001968504,0,0)" d="M 42659.724 106231.37 L 35734.189 108585.55 " fill-opacity="0" fill-rule="evenodd"/>
<path transform="matrix(.001968504,0,0,.001968504,0,0)" stroke-width="381" stroke-linecap="butt" stroke-linejoin="round" fill="none" stroke="#000000" d="M 42659.724 106231.37 L 35734.189 108585.55 "/>
<path transform="matrix(.001968504,0,0,.001968504,0,0)" d="M 125984.519 53458.388 L 122335.988 57165.626 " fill-opacity="0" fill-rule="evenodd"/>
<path transform="matrix(.001968504,0,0,.001968504,0,0)" stroke-width="381" stroke-linecap="butt" stroke-linejoin="round" fill="none" stroke="#000000" d="M 125984.519 53458.388 L 122335.988 57165.626 "/>
<path transform="matrix(.001968504,0,0,.001968504,0,0)" d="M 143247.4 70652.6 L 139598.88 74359.84 " fill-opacity="0" fill-rule="evenodd"/>
<path transform="matrix(.001968504,0,0,.001968504,0,0)" stroke-width="381" stroke-linecap="butt" stroke-linejoin="round" fill="none" stroke="#000000" d="M 143247.4 70652.6 L 139598.88 74359.84 "/>
<path transform="matrix(.001968504,0,0,.001968504,0,0)" d="M 160481.63 87818.27 L 156833.1 91525.519 " fill-opacity="0" fill-rule="evenodd"/>
<path transform="matrix(.001968504,0,0,.001968504,0,0)" stroke-width="381" stroke-linecap="butt" stroke-linejoin="round" fill="none" stroke="#000000" d="M 160481.63 87818.27 L 156833.1 91525.519 "/>
<path transform="matrix(.001968504,0,0,.001968504,0,0)" d="M 54780.947 54457.744 L 60112.25 56240.01 " fill-opacity="0" fill-rule="evenodd"/>
<path transform="matrix(.001968504,0,0,.001968504,0,0)" stroke-width="381" stroke-linecap="butt" stroke-linejoin="round" fill="none" stroke="#000000" d="M 54780.947 54457.744 L 60112.25 56240.01 "/>
<path transform="matrix(.001968504,0,0,.001968504,0,0)" d="M 49200.607 71564.988 L 54531.916 73347.25 " fill-opacity="0" fill-rule="evenodd"/>
<path transform="matrix(.001968504,0,0,.001968504,0,0)" stroke-width="381" stroke-linecap="butt" stroke-linejoin="round" fill="none" stroke="#000000" d="M 49200.607 71564.988 L 54531.916 73347.25 "/>
<path transform="matrix(.001968504,0,0,.001968504,0,0)" d="M 43629.53 88643.82 L 48960.84 90426.089 " fill-opacity="0" fill-rule="evenodd"/>
<path transform="matrix(.001968504,0,0,.001968504,0,0)" stroke-width="381" stroke-linecap="butt" stroke-linejoin="round" fill="none" stroke="#000000" d="M 43629.53 88643.82 L 48960.84 90426.089 "/>
<path transform="matrix(.001968504,0,0,.001968504,0,0)" d="M 74578.28 35133.634 L 74578.28 39798.517 " fill-opacity="0" fill-rule="evenodd"/>
<path transform="matrix(.001968504,0,0,.001968504,0,0)" stroke-width="381" stroke-linecap="butt" stroke-linejoin="round" fill="none" stroke="#000000" d="M 74578.28 35133.634 L 74578.28 39798.517 "/>
<path transform="matrix(.001968504,0,0,.001968504,0,0)" d="M 85322.38 35133.634 L 85322.38 39798.517 " fill-opacity="0" fill-rule="evenodd"/>
<path transform="matrix(.001968504,0,0,.001968504,0,0)" stroke-width="381" stroke-linecap="butt" stroke-linejoin="round" fill="none" stroke="#000000" d="M 85322.38 35133.634 L 85322.38 39798.517 "/>
<path transform="matrix(.001968504,0,0,.001968504,0,0)" d="M 96048.64 35133.634 L 96048.64 39798.517 " fill-opacity="0" fill-rule="evenodd"/>
<path transform="matrix(.001968504,0,0,.001968504,0,0)" stroke-width="381" stroke-linecap="butt" stroke-linejoin="round" fill="none" stroke="#000000" d="M 96048.64 35133.634 L 96048.64 39798.517 "/>
<path transform="matrix(.001968504,0,0,.001968504,0,0)" d="M 74148.128 104468.2 L 74148.128 109133.089 " fill-opacity="0" fill-rule="evenodd"/>
<path transform="matrix(.001968504,0,0,.001968504,0,0)" stroke-width="381" stroke-linecap="butt" stroke-linejoin="round" fill="none" stroke="#000000" d="M 74148.128 104468.2 L 74148.128 109133.089 "/>
<path transform="matrix(.001968504,0,0,.001968504,0,0)" d="M 108086.32 104468.2 L 108086.32 109133.089 " fill-opacity="0" fill-rule="evenodd"/>
<path transform="matrix(.001968504,0,0,.001968504,0,0)" stroke-width="381" stroke-linecap="butt" stroke-linejoin="round" fill="none" stroke="#000000" d="M 108086.32 104468.2 L 108086.32 109133.089 "/>
<path transform="matrix(.001968504,0,0,.001968504,0,0)" d="M 142026.28 104468.2 L 142026.28 109133.089 " fill-opacity="0" fill-rule="evenodd"/>
<path transform="matrix(.001968504,0,0,.001968504,0,0)" stroke-width="381" stroke-linecap="butt" stroke-linejoin="round" fill="none" stroke="#000000" d="M 142026.28 104468.2 L 142026.28 109133.089 "/>
<path transform="matrix(.001968504,0,0,.001968504,0,0)" d="M 74644 37338 L 57549 55489 L 74179 107047 L 124055 55525 Z " fill-opacity="0" fill-rule="evenodd"/>
<path transform="matrix(.001968504,0,0,.001968504,0,0)" stroke-width="762" stroke-linecap="butt" stroke-linejoin="round" fill="none" stroke="#000000" d="M 74644 37338 L 57549 55489 L 74179 107047 L 124055 55525 Z "/>
</g>
</g>
</g>
</svg>
