<?xml version="1.0" encoding="UTF-8" standalone="no"?>
<!DOCTYPE svg PUBLIC "-//W3C//DTD SVG 1.1//EN" "http://www.w3.org/Graphics/SVG/1.1/DTD/svg11.dtd">
<svg xmlns="http://www.w3.org/2000/svg" xmlns:xlink="http://www.w3.org/1999/xlink" version="1.1" width="468pt" height="468pt" viewBox="0 0 468 468">
<g enable-background="new">
<g>
<clipPath id="cp0">
<path transform="matrix(.001968504,0,0,.001968504,0,0)" d="M 0 0 L 237744 0 L 237744 237744 L 0 237744 L 0 0 Z "/>
</clipPath>
<g clip-path="url(#cp0)">
<path transform="matrix(.001968504,0,0,.001968504,0,0)" d="M 0 0 L 237744 0 L 237744 237744 L 0 237744 Z " fill-opacity="0" fill-rule="evenodd"/>
<path transform="matrix(.001968504,0,0,.001968504,0,0)" d="M 119201.589 26812.387 L 119201.589 26812.387 " fill-opacity="0" fill-rule="evenodd"/>
<path transform="matrix(.001968504,0,0,.001968504,0,0)" stroke-width="381" stroke-linecap="butt" stroke-linejoin="round" fill="none" stroke="#000000" d="M 119201.589 26812.387 L 119201.589 26812.387 "/>
<path transform="matrix(.001968504,0,0,.001968504,0,0)" d="M 27761.583 26812.387 L 210641.58 26812.387 L 210641.58 209692.39 L 27761.583 209692.39 Z " fill-opacity="0" fill-rule="evenodd"/>
<path transform="matrix(.001968504,0,0,.001968504,0,0)" stroke-width="762" stroke-linecap="butt" stroke-linejoin="round" fill="none" stroke="#000000" d="M 27761.583 26812.387 L 210641.58 26812.387 L 210641.58 209692.39 L 27761.583 209692.39 Z "/>
<path transform="matrix(.001968504,0,0,.001968504,0,0)" d="M 73423.5 22252 L 73423.5 31372 " fill-opacity="0" fill-rule="evenodd"/>
<path transform="matrix(.001968504,0,0,.001968504,0,0)" stroke-width="381" stroke-linecap="butt" stroke-linejoin="round" fill="none" stroke="#000000" d="M 73423.5 22252 L 73423.5 31372 "/>
<path transform="matrix(.001968504,0,0,.001968504,0,0)" d="M 119201.5 22252 L 119201.5 31372 " fill-opacity="0" fill-rule="evenodd"/>
<path transform="matrix(.001968504,0,0,.001968504,0,0)" stroke-width="381" stroke-linecap="butt" stroke-linejoin="round" fill="none" stroke="#000000" d="M 119201.5 22252 L 119201.5 31372 "/>
<path transform="matrix(.001968504,0,0,.001968504,0,0)" d="M 164903.5 22252 L 164903.5 31372 " fill-opacity="0" fill-rule="evenodd"/>
<path transform="matrix(.001968504,0,0,.001968504,0,0)" stroke-width="381" stroke-linecap="butt" stroke-linejoin="round" fill="none" stroke="#000000" d="M 164903.5 22252 L 164903.5 31372 "/>
<path transform="matrix(.001968504,0,0,.001968504,0,0)" d="M 73461.5 205131 L 73461.5 214251 " fill-opacity="0" fill-rule="evenodd"/>
<path transform="matrix(.001968504,0,0,.001968504,0,0)" stroke-width="381" stroke-linecap="butt" stroke-linejoin="round" fill="none" stroke="#000000" d="M 73461.5 205131 L 73461.5 214251 "/>
<path transform="matrix(.001968504,0,0,.001968504,0,0)" d="M 119239.5 205131 L 119239.5 214251 " fill-opacity="0" fill-rule="evenodd"/>
<path transform="matrix(.001968504,0,0,.001968504,0,0)" stroke-width="381" stroke-linecap="butt" stroke-linejoin="round" fill="none" stroke="#000000" d="M 119239.5 205131 L 119239.5 214251 "/>
<path transform="matrix(.001968504,0,0,.001968504,0,0)" d="M 164941.5 205131 L 164941.5 214251 " fill-opacity="0" fill-rule="evenodd"/>
<path transform="matrix(.001968504,0,0,.001968504,0,0)" stroke-width="381" stroke-linecap="butt" stroke-linejoin="round" fill="none" stroke="#000000" d="M 164941.5 205131 L 164941.5 214251 "/>
<path transform="matrix(.001968504,0,0,.001968504,0,0)" d="M 23182.5 164010.5 L 32302.5 164010.5 " fill-opacity="0" fill-rule="evenodd"/>
<path transform="matrix(.001968504,0,0,.001968504,0,0)" stroke-width="381" stroke-linecap="butt" stroke-linejoin="round" fill="none" stroke="#000000" d="M 23182.5 164010.5 L 32302.5 164010.5 "/>
<path transform="matrix(.001968504,0,0,.001968504,0,0)" d="M 23182.5 118232.5 L 32302.5 118232.5 " fill-opacity="0" fill-rule="evenodd"/>
<path transform="matrix(.001968504,0,0,.001968504,0,0)" stroke-width="381" stroke-linecap="butt" stroke-linejoin="round" fill="none" stroke="#000000" d="M 23182.5 118232.5 L 32302.5 118232.5 "/>
<path transform="matrix(.001968504,0,0,.001968504,0,0)" d="M 23182.5 72530.5 L 32302.5 72530.5 " fill-opacity="0" fill-rule="evenodd"/>
<path transform="matrix(.001968504,0,0,.001968504,0,0)" stroke-width="381" stroke-linecap="butt" stroke-linejoin="round" fill="none" stroke="#000000" d="M 23182.5 72530.5 L 32302.5 72530.5 "/>
<path transform="matrix(.001968504,0,0,.001968504,0,0)" d="M 206061.5 163972.5 L 215181.5 163972.5 " fill-opacity="0" fill-rule="evenodd"/>
<path transform="matrix(.001968504,0,0,.001968504,0,0)" stroke-width="381" stroke-linecap="butt" stroke-linejoin="round" fill="none" stroke="#000000" d="M 206061.5 163972.5 L 215181.5 163972.5 "/>
<path transform="matrix(.001968504,0,0,.001968504,0,0)" d="M 206061.5 118194.5 L 215181.5 118194.5 " fill-opacity="0" fill-rule="evenodd"/>
<path transform="matrix(.001968504,0,0,.001968504,0,0)" stroke-width="381" stroke-linecap="butt" stroke-linejoin="round" fill="none" stroke="#000000" d="M 206061.5 118194.5 L 215181.5 118194.5 "/>
<path transform="matrix(.001968504,0,0,.001968504,0,0)" d="M 206061.5 72492.5 L 215181.5 72492.5 " fill-opacity="0" fill-rule="evenodd"/>
<path transform="matrix(.001968504,0,0,.001968504,0,0)" stroke-width="381" stroke-linecap="butt" stroke-linejoin="round" fill="none" stroke="#000000" d="M 206061.5 72492.5 L 215181.5 72492.5 "/>
<path transform="matrix(.001968504,0,0,.001968504,0,0)" d="M 40266 -2483 L 59322 -2483 L 59322 18853 L 40266 18853 Z " fill-opacity="0" fill-rule="evenodd"/>
<path transform="matrix(.75,0,0,.75,79.26378,-4.8877956)" d="M 17.387154 6.108528 L 32.628595 6.108528 L 32.628595 42.409448 L 17.387154 42.409448 L 17.387154 6.108528 Z " fill-opacity="0"/>
<symbol id="font_1_14">
<path d="M .25732423 0 L .17822266 0 L .17822266 .50878909 C .17822266 .55110678 .17952474 .5911458 .1821289 .62890627 C .17529297 .6220703 .16764324 .6149089 .15917969 .6074219 C .15071614 .5999349 .111979167 .5681966 .04296875 .51220706 L 0 .5678711 L .18896485 .7138672 L .25732423 .7138672 L .25732423 0 Z "/>
</symbol>
<use xlink:href="#font_1_14" transform="matrix(20,0,0,-20,94.14008,21.062203)"/>
<path transform="matrix(.75,0,0,.75,79.26378,-4.8877956)" d="M 32.628595 6.108528 L 32.628595 6.108528 L 32.628595 42.409448 L 32.628595 6.108528 Z " fill-opacity="0"/>
<path transform="matrix(.75,0,0,.75,79.26378,-4.8877956)" d="M 17.387154 36.333333 L 32.628595 36.333333 L 32.628595 38.733335 L 17.387154 38.733335 L 17.387154 36.333333 Z "/>
<symbol id="font_1_17">
<path d="M .5307617 .1640625 L .4248047 .1640625 L .4248047 0 L .34716798 0 L .34716798 .1640625 L 0 .1640625 L 0 .23486328 L .3388672 .71777346 L .4248047 .71777346 L .4248047 .23779297 L .5307617 .23779297 L .5307617 .1640625 M .34716798 .23779297 L .34716798 .47509767 C .34716798 .52164718 .34879557 .57421877 .35205079 .6328125 L .34814454 .6328125 C .33251954 .6015625 .3178711 .5756836 .30419923 .5551758 L .08105469 .23779297 L .34716798 .23779297 Z "/>
</symbol>
<use xlink:href="#font_1_17" transform="matrix(20,0,0,-20,92.72407,45.062204)"/>
<path transform="matrix(.001968504,0,0,.001968504,0,0)" d="M 209868 173982 L 228924 173982 L 228924 195318 L 209868 195318 Z " fill-opacity="0" fill-rule="evenodd"/>
<path transform="matrix(.75,0,0,.75,413.12599,342.48426)" d="M 17.387154 6.108528 L 32.628595 6.108528 L 32.628595 42.409448 L 17.387154 42.409448 L 17.387154 6.108528 Z " fill-opacity="0"/>
<use xlink:href="#font_1_14" transform="matrix(20,0,0,-20,428.0023,368.43428)"/>
<path transform="matrix(.75,0,0,.75,413.12599,342.48426)" d="M 32.628595 6.108528 L 32.628595 6.108528 L 32.628595 42.409448 L 32.628595 6.108528 Z " fill-opacity="0"/>
<path transform="matrix(.75,0,0,.75,413.12599,342.48426)" d="M 17.387154 36.333333 L 32.628595 36.333333 L 32.628595 38.733335 L 17.387154 38.733335 L 17.387154 36.333333 Z "/>
<use xlink:href="#font_1_17" transform="matrix(20,0,0,-20,426.58628,392.43428)"/>
<path transform="matrix(.001968504,0,0,.001968504,0,0)" d="M 8783 34316 L 27839 34316 L 27839 55652 L 8783 55652 Z " fill-opacity="0" fill-rule="evenodd"/>
<path transform="matrix(.75,0,0,.75,17.289372,67.551189)" d="M 17.387154 6.108528 L 32.628595 6.108528 L 32.628595 42.409448 L 17.387154 42.409448 L 17.387154 6.108528 Z " fill-opacity="0"/>
<use xlink:href="#font_1_14" transform="matrix(20,0,0,-20,32.165674,93.50118)"/>
<path transform="matrix(.75,0,0,.75,17.289372,67.551189)" d="M 32.628595 6.108528 L 32.628595 6.108528 L 32.628595 42.409448 L 32.628595 6.108528 Z " fill-opacity="0"/>
<path transform="matrix(.75,0,0,.75,17.289372,67.551189)" d="M 17.387154 36.333333 L 32.628595 36.333333 L 32.628595 38.733335 L 17.387154 38.733335 L 17.387154 36.333333 Z "/>
<use xlink:href="#font_1_17" transform="matrix(20,0,0,-20,30.749659,117.50118)"/>
<path transform="matrix(.001968504,0,0,.001968504,0,0)" d="M 180582 207949 L 199638 207949 L 199638 232777 L 180582 232777 Z " fill-opacity="0" fill-rule="evenodd"/>
<path transform="matrix(.75,0,0,.75,355.47639,409.34846)" d="M 17.387154 6.108528 L 32.628595 6.108528 L 32.628595 42.409448 L 17.387154 42.409448 L 17.387154 6.108528 Z " fill-opacity="0"/>
<use xlink:href="#font_1_14" transform="matrix(20,0,0,-20,370.3527,435.29847)"/>
<path transform="matrix(.75,0,0,.75,355.47639,409.34846)" d="M 32.628595 6.108528 L 32.628595 6.108528 L 32.628595 42.409448 L 32.628595 6.108528 Z " fill-opacity="0"/>
<path transform="matrix(.75,0,0,.75,355.47639,409.34846)" d="M 17.387154 36.333333 L 32.628595 36.333333 L 32.628595 38.733335 L 17.387154 38.733335 L 17.387154 36.333333 Z "/>
<use xlink:href="#font_1_17" transform="matrix(20,0,0,-20,368.93669,459.29847)"/>
<path transform="matrix(.001968504,0,0,.001968504,0,0)" d="M 28051.188 72590.769 L 73624.88 27017.07 L 210602 163994.19 L 165028.32 209567.89 Z " fill-opacity="0" fill-rule="evenodd"/>
<path transform="matrix(.001968504,0,0,.001968504,0,0)" stroke-width="762" stroke-linecap="butt" stroke-linejoin="round" fill="none" stroke="#000000" d="M 28051.188 72590.769 L 73624.88 27017.07 L 210602 163994.19 L 165028.32 209567.89 Z "/>
<path transform="matrix(.001968504,0,0,.001968504,0,0)" d="M 36842.1 57452.36 L 42016.2 62632.44 " fill-opacity="0" fill-rule="evenodd"/>
<path transform="matrix(.001968504,0,0,.001968504,0,0)" stroke-width="381" stroke-linecap="butt" stroke-linejoin="round" fill="none" stroke="#000000" d="M 36842.1 57452.36 L 42016.2 62632.44 "/>
<path transform="matrix(.001968504,0,0,.001968504,0,0)" d="M 48249.98 46044.486 L 53424.08 51224.564 " fill-opacity="0" fill-rule="evenodd"/>
<path transform="matrix(.001968504,0,0,.001968504,0,0)" stroke-width="381" stroke-linecap="butt" stroke-linejoin="round" fill="none" stroke="#000000" d="M 48249.98 46044.486 L 53424.08 51224.564 "/>
<path transform="matrix(.001968504,0,0,.001968504,0,0)" d="M 59638.919 34655.548 L 64813.017 39835.626 " fill-opacity="0" fill-rule="evenodd"/>
<path transform="matrix(.001968504,0,0,.001968504,0,0)" stroke-width="381" stroke-linecap="butt" stroke-linejoin="round" fill="none" stroke="#000000" d="M 59638.919 34655.548 L 64813.017 39835.626 "/>
<path transform="matrix(.001968504,0,0,.001968504,0,0)" d="M 173827.94 194419.27 L 179002.05 199599.35 " fill-opacity="0" fill-rule="evenodd"/>
<path transform="matrix(.001968504,0,0,.001968504,0,0)" stroke-width="381" stroke-linecap="butt" stroke-linejoin="round" fill="none" stroke="#000000" d="M 173827.94 194419.27 L 179002.05 199599.35 "/>
<path transform="matrix(.001968504,0,0,.001968504,0,0)" d="M 185235.83 183011.39 L 190409.92 188191.47 " fill-opacity="0" fill-rule="evenodd"/>
<path transform="matrix(.001968504,0,0,.001968504,0,0)" stroke-width="381" stroke-linecap="butt" stroke-linejoin="round" fill="none" stroke="#000000" d="M 185235.83 183011.39 L 190409.92 188191.47 "/>
<path transform="matrix(.001968504,0,0,.001968504,0,0)" d="M 196624.77 171622.46 L 201798.86 176802.53 " fill-opacity="0" fill-rule="evenodd"/>
<path transform="matrix(.001968504,0,0,.001968504,0,0)" stroke-width="381" stroke-linecap="butt" stroke-linejoin="round" fill="none" stroke="#000000" d="M 196624.77 171622.46 L 201798.86 176802.53 "/>
<path transform="matrix(.001968504,0,0,.001968504,0,0)" d="M 129463.32 178751.46 L 134636.7 173578.07 " fill-opacity="0" fill-rule="evenodd"/>
<path transform="matrix(.001968504,0,0,.001968504,0,0)" stroke-width="381" stroke-linecap="butt" stroke-linejoin="round" fill="none" stroke="#000000" d="M 129463.32 178751.46 L 134636.7 173578.07 "/>
<path transform="matrix(.001968504,0,0,.001968504,0,0)" d="M 95175.59 144463.72 L 100348.99 139290.33 " fill-opacity="0" fill-rule="evenodd"/>
<path transform="matrix(.001968504,0,0,.001968504,0,0)" stroke-width="381" stroke-linecap="butt" stroke-linejoin="round" fill="none" stroke="#000000" d="M 95175.59 144463.72 L 100348.99 139290.33 "/>
<path transform="matrix(.001968504,0,0,.001968504,0,0)" d="M 60944.798 110232.93 L 66118.19 105059.54 " fill-opacity="0" fill-rule="evenodd"/>
<path transform="matrix(.001968504,0,0,.001968504,0,0)" stroke-width="381" stroke-linecap="butt" stroke-linejoin="round" fill="none" stroke="#000000" d="M 60944.798 110232.93 L 66118.19 105059.54 "/>
<path transform="matrix(.001968504,0,0,.001968504,0,0)" d="M 174697.3 133460.53 L 179870.7 128287.15 " fill-opacity="0" fill-rule="evenodd"/>
<path transform="matrix(.001968504,0,0,.001968504,0,0)" stroke-width="381" stroke-linecap="butt" stroke-linejoin="round" fill="none" stroke="#000000" d="M 174697.3 133460.53 L 179870.7 128287.15 "/>
<path transform="matrix(.001968504,0,0,.001968504,0,0)" d="M 140409.58 99172.82 L 145582.97 93999.42 " fill-opacity="0" fill-rule="evenodd"/>
<path transform="matrix(.001968504,0,0,.001968504,0,0)" stroke-width="381" stroke-linecap="butt" stroke-linejoin="round" fill="none" stroke="#000000" d="M 140409.58 99172.82 L 145582.97 93999.42 "/>
<path transform="matrix(.001968504,0,0,.001968504,0,0)" d="M 106178.78 64942.02 L 111352.17 59768.626 " fill-opacity="0" fill-rule="evenodd"/>
<path transform="matrix(.001968504,0,0,.001968504,0,0)" stroke-width="381" stroke-linecap="butt" stroke-linejoin="round" fill="none" stroke="#000000" d="M 106178.78 64942.02 L 111352.17 59768.626 "/>
<path transform="matrix(.001968504,0,0,.001968504,0,0)" d="M 40042 60677 L 63351 107823 L 200065 174987 L 177350 130914 Z " fill-opacity="0" fill-rule="evenodd"/>
<path transform="matrix(.001968504,0,0,.001968504,0,0)" stroke-width="762" stroke-linecap="butt" stroke-linejoin="round" fill="none" stroke="#000000" d="M 40042 60677 L 63351 107823 L 200065 174987 L 177350 130914 Z "/>
<path transform="matrix(.001968504,0,0,.001968504,0,0)" d="M 109287 93247 L 106995 97819 " fill-opacity="0" fill-rule="evenodd"/>
<path transform="matrix(.001968504,0,0,.001968504,0,0)" stroke-width="381" stroke-linecap="butt" stroke-linejoin="round" fill="none" stroke="#000000" d="M 109287 93247 L 106995 97819 "/>
<path transform="matrix(.001968504,0,0,.001968504,0,0)" d="M 74995 75601 L 72703 80173 " fill-opacity="0" fill-rule="evenodd"/>
<path transform="matrix(.001968504,0,0,.001968504,0,0)" stroke-width="381" stroke-linecap="butt" stroke-linejoin="round" fill="none" stroke="#000000" d="M 74995 75601 L 72703 80173 "/>
<path transform="matrix(.001968504,0,0,.001968504,0,0)" d="M 143781 110826 L 141489 115398 " fill-opacity="0" fill-rule="evenodd"/>
<path transform="matrix(.001968504,0,0,.001968504,0,0)" stroke-width="381" stroke-linecap="butt" stroke-linejoin="round" fill="none" stroke="#000000" d="M 143781 110826 L 141489 115398 "/>
<path transform="matrix(.001968504,0,0,.001968504,0,0)" d="M 98447 122649 L 96155 127221 " fill-opacity="0" fill-rule="evenodd"/>
<path transform="matrix(.001968504,0,0,.001968504,0,0)" stroke-width="381" stroke-linecap="butt" stroke-linejoin="round" fill="none" stroke="#000000" d="M 98447 122649 L 96155 127221 "/>
<path transform="matrix(.001968504,0,0,.001968504,0,0)" d="M 133308 139413 L 131016 143985 " fill-opacity="0" fill-rule="evenodd"/>
<path transform="matrix(.001968504,0,0,.001968504,0,0)" stroke-width="381" stroke-linecap="butt" stroke-linejoin="round" fill="none" stroke="#000000" d="M 133308 139413 L 131016 143985 "/>
<path transform="matrix(.001968504,0,0,.001968504,0,0)" d="M 167533 156473 L 165241 161045 " fill-opacity="0" fill-rule="evenodd"/>
<path transform="matrix(.001968504,0,0,.001968504,0,0)" stroke-width="381" stroke-linecap="butt" stroke-linejoin="round" fill="none" stroke="#000000" d="M 167533 156473 L 165241 161045 "/>
<path transform="matrix(.001968504,0,0,.001968504,0,0)" d="M 59514 94377 L 55014 96981 " fill-opacity="0" fill-rule="evenodd"/>
<path transform="matrix(.001968504,0,0,.001968504,0,0)" stroke-width="381" stroke-linecap="butt" stroke-linejoin="round" fill="none" stroke="#000000" d="M 59514 94377 L 55014 96981 "/>
<path transform="matrix(.001968504,0,0,.001968504,0,0)" d="M 53658 82677 L 49158 85281 " fill-opacity="0" fill-rule="evenodd"/>
<path transform="matrix(.001968504,0,0,.001968504,0,0)" stroke-width="381" stroke-linecap="butt" stroke-linejoin="round" fill="none" stroke="#000000" d="M 53658 82677 L 49158 85281 "/>
<path transform="matrix(.001968504,0,0,.001968504,0,0)" d="M 47957 70932 L 43457 73536 " fill-opacity="0" fill-rule="evenodd"/>
<path transform="matrix(.001968504,0,0,.001968504,0,0)" stroke-width="381" stroke-linecap="butt" stroke-linejoin="round" fill="none" stroke="#000000" d="M 47957 70932 L 43457 73536 "/>
<path transform="matrix(.001968504,0,0,.001968504,0,0)" d="M 196316 162009 L 191816 164613 " fill-opacity="0" fill-rule="evenodd"/>
<path transform="matrix(.001968504,0,0,.001968504,0,0)" stroke-width="381" stroke-linecap="butt" stroke-linejoin="round" fill="none" stroke="#000000" d="M 196316 162009 L 191816 164613 "/>
<path transform="matrix(.001968504,0,0,.001968504,0,0)" d="M 190460 150309 L 185960 152913 " fill-opacity="0" fill-rule="evenodd"/>
<path transform="matrix(.001968504,0,0,.001968504,0,0)" stroke-width="381" stroke-linecap="butt" stroke-linejoin="round" fill="none" stroke="#000000" d="M 190460 150309 L 185960 152913 "/>
<path transform="matrix(.001968504,0,0,.001968504,0,0)" d="M 184759 138564 L 180259 141168 " fill-opacity="0" fill-rule="evenodd"/>
<path transform="matrix(.001968504,0,0,.001968504,0,0)" stroke-width="381" stroke-linecap="butt" stroke-linejoin="round" fill="none" stroke="#000000" d="M 184759 138564 L 180259 141168 "/>
<path transform="matrix(.001968504,0,0,.001968504,0,0)" d="M 73934 78058 L 45690 72316 L 166516 158662 L 194139 163317 Z " fill-opacity="0" fill-rule="evenodd"/>
<path transform="matrix(.001968504,0,0,.001968504,0,0)" stroke-width="762" stroke-linecap="butt" stroke-linejoin="round" fill="none" stroke="#000000" d="M 73934 78058 L 45690 72316 L 166516 158662 L 194139 163317 Z "/>
</g>
</g>
</g>
</svg>
