<?xml version="1.0" encoding="UTF-8" standalone="no"?>
<!DOCTYPE svg PUBLIC "-//W3C//DTD SVG 1.1//EN" "http://www.w3.org/Graphics/SVG/1.1/DTD/svg11.dtd">
<svg xmlns="http://www.w3.org/2000/svg" xmlns:xlink="http://www.w3.org/1999/xlink" version="1.1" width="421.2pt" height="50.4pt" viewBox="0 0 421.2 50.4">
<g enable-background="new">
<g id="Layer-1" data-name="Layer">
<clipPath id="cp0">
<path transform="matrix(1,0,0,-1,0,50.4)" d="M 0 50.4 L 421.2 50.4 L 421.2 0 L 0 0 Z "/>
</clipPath>
<g clip-path="url(#cp0)">
<path transform="matrix(1,0,0,-1,152.5626,29.218401)" d="M 0 0 C -13.423 0 -22.44 2.209 -22.44 4.273 C -22.44 6.337 -13.423 8.546 0 8.546 C 1.513 8.546 107.805 8.499 107.805 8.499 C 120.409 7.955 139.187 6.399 139.237 4.341 C 139.291 2.149 120.465 .629 107.799 .143 C 106.747 .141 1.95 0 0 0 " fill="#c28453"/>
<path transform="matrix(1,0,0,-1,152.5621,20.510802)" d="M 0 0 C -12.482 0 -22.601 -1.985 -22.601 -4.434 C -22.601 -6.883 -12.482 -8.869 0 -8.869 C 1.973 -8.869 107.806 -8.726 107.806 -8.726 C 107.806 -8.726 139.475 -7.509 139.398 -4.363 C 139.327 -1.406 107.806 -.047 107.806 -.047 C 107.806 -.047 1.513 0 0 0 M 0 -.322 C 1.509 -.322 107.171 -.369 107.789 -.369 L 107.792 -.369 C 107.871 -.373 115.755 -.717 123.547 -1.417 C 138.292 -2.743 139.07 -4.11 139.077 -4.371 C 139.084 -4.648 138.369 -6.101 123.604 -7.403 C 115.795 -8.092 107.873 -8.401 107.806 -8.404 C 106.747 -8.405 1.95 -8.547 0 -8.547 C -13.129 -8.547 -22.279 -6.379 -22.279 -4.434 C -22.279 -2.489 -13.129 -.322 0 -.322 " fill="#7c532e"/>
<path transform="matrix(1,0,0,-1,135.3014,26.196902)" d="M 0 0 C 0 0 11.348 -1.812 16.498 -2.002 C 21.647 -2.193 119.777 -1.716 127.788 -1.526 C 135.799 -1.335 153.155 0 153.155 .667 C 153.155 1.335 130.077 -.667 126.834 -.763 C 126.537 -.771 126.24 -.772 125.943 -.776 C 125.338 -.782 124.732 -.786 124.127 -.791 C 123.241 -.797 122.354 -.802 121.468 -.807 C 120.328 -.814 119.188 -.82 118.05 -.825 C 116.684 -.832 115.318 -.838 113.953 -.845 C 112.39 -.852 110.825 -.858 109.262 -.865 C 107.527 -.872 105.793 -.879 104.059 -.886 C 102.181 -.893 100.303 -.9 98.426 -.907 C 96.432 -.914 94.438 -.921 92.445 -.928 C 90.363 -.935 88.282 -.942 86.2 -.949 C 84.059 -.956 81.916 -.962 79.773 -.969 C 77.599 -.976 75.423 -.982 73.248 -.988 C 71.066 -.995 68.886 -1.001 66.705 -1.007 C 64.546 -1.013 62.387 -1.018 60.228 -1.024 C 58.119 -1.029 56.009 -1.034 53.899 -1.039 C 51.867 -1.043 49.834 -1.048 47.802 -1.052 C 45.874 -1.056 43.946 -1.06 42.018 -1.063 C 40.222 -1.066 38.426 -1.069 36.63 -1.072 C 34.994 -1.074 33.357 -1.076 31.721 -1.077 C 30.271 -1.079 28.822 -1.08 27.373 -1.08 C 26.138 -1.08 24.904 -1.08 23.669 -1.079 C 22.676 -1.078 21.684 -1.077 20.691 -1.074 C 19.545 -1.071 18.396 -1.085 17.25 -1.051 C 14.628 -.973 12.018 -.549 9.419 -.223 C 6.991 .082 4.514 .444 2.06 .377 C 1.396 .359 .59 .349 0 0 " fill="#ddb384"/>
</g>
<clipPath id="cp1">
<path transform="matrix(1,0,0,-1,0,50.4)" d="M 129.961 25.455 C 129.961 23.006 140.08 21.02 152.562 21.02 C 154.535 21.02 260.368 21.163 260.368 21.163 C 260.368 21.163 292.036 22.38 291.961 25.527 C 291.889 28.483 260.368 29.842 260.368 29.842 C 260.368 29.842 154.076 29.889 152.562 29.889 C 140.08 29.889 129.961 27.904 129.961 25.455 "/>
</clipPath>
<g clip-path="url(#cp1)">
<path transform="matrix(1,0,0,-1,153.3683,19.557202)" stroke-width=".241" stroke-linecap="round" stroke-linejoin="round" fill="none" stroke="#7c532e" d="M 0 0 C .216 .379 3.485 -6.734 0 -11.062 "/>
<path transform="matrix(1,0,0,-1,156.1407,19.557202)" stroke-width=".241" stroke-linecap="round" stroke-linejoin="round" fill="none" stroke="#7c532e" d="M 0 0 C .216 .379 3.485 -6.734 0 -11.062 "/>
<path transform="matrix(1,0,0,-1,150.5958,19.557202)" stroke-width=".241" stroke-linecap="round" stroke-linejoin="round" fill="none" stroke="#7c532e" d="M 0 0 C .216 .379 3.485 -6.735 0 -11.062 "/>
<path transform="matrix(1,0,0,-1,158.9132,19.557202)" stroke-width=".241" stroke-linecap="round" stroke-linejoin="round" fill="none" stroke="#7c532e" d="M 0 0 C .216 .379 3.486 -6.734 0 -11.062 "/>
<path transform="matrix(1,0,0,-1,161.6856,19.557202)" stroke-width=".241" stroke-linecap="round" stroke-linejoin="round" fill="none" stroke="#7c532e" d="M 0 0 C .216 .379 3.485 -6.734 0 -11.062 "/>
<path transform="matrix(1,0,0,-1,164.4581,19.557202)" stroke-width=".241" stroke-linecap="round" stroke-linejoin="round" fill="none" stroke="#7c532e" d="M 0 0 C .216 .379 3.485 -6.734 0 -11.062 "/>
<path transform="matrix(1,0,0,-1,167.2306,19.557202)" stroke-width=".241" stroke-linecap="round" stroke-linejoin="round" fill="none" stroke="#7c532e" d="M 0 0 C .216 .379 3.485 -6.734 0 -11.062 "/>
<path transform="matrix(1,0,0,-1,170.003,19.557202)" stroke-width=".241" stroke-linecap="round" stroke-linejoin="round" fill="none" stroke="#7c532e" d="M 0 0 C .216 .379 3.485 -6.734 0 -11.062 "/>
<path transform="matrix(1,0,0,-1,172.7755,19.557202)" stroke-width=".241" stroke-linecap="round" stroke-linejoin="round" fill="none" stroke="#7c532e" d="M 0 0 C .216 .379 3.485 -6.734 0 -11.062 "/>
<path transform="matrix(1,0,0,-1,175.5479,19.557202)" stroke-width=".241" stroke-linecap="round" stroke-linejoin="round" fill="none" stroke="#7c532e" d="M 0 0 C .216 .379 3.485 -6.734 0 -11.062 "/>
<path transform="matrix(1,0,0,-1,178.3204,19.557202)" stroke-width=".241" stroke-linecap="round" stroke-linejoin="round" fill="none" stroke="#7c532e" d="M 0 0 C .216 .379 3.485 -6.734 0 -11.062 "/>
<path transform="matrix(1,0,0,-1,181.0929,19.557202)" stroke-width=".241" stroke-linecap="round" stroke-linejoin="round" fill="none" stroke="#7c532e" d="M 0 0 C .216 .379 3.485 -6.734 0 -11.062 "/>
<path transform="matrix(1,0,0,-1,183.8653,19.557202)" stroke-width=".241" stroke-linecap="round" stroke-linejoin="round" fill="none" stroke="#7c532e" d="M 0 0 C .216 .379 3.485 -6.734 0 -11.062 "/>
<path transform="matrix(1,0,0,-1,186.6378,19.557202)" stroke-width=".241" stroke-linecap="round" stroke-linejoin="round" fill="none" stroke="#7c532e" d="M 0 0 C .216 .379 3.485 -6.734 0 -11.062 "/>
<path transform="matrix(1,0,0,-1,147.8233,19.557202)" stroke-width=".241" stroke-linecap="round" stroke-linejoin="round" fill="none" stroke="#7c532e" d="M 0 0 C .216 .379 3.485 -6.734 0 -11.062 "/>
<path transform="matrix(1,0,0,-1,145.0509,20.126103)" stroke-width=".241" stroke-linecap="round" stroke-linejoin="round" fill="none" stroke="#7c532e" d="M 0 0 C .189 .365 3.23 -5.948 0 -9.734 "/>
<path transform="matrix(1,0,0,-1,142.2784,20.126103)" stroke-width=".241" stroke-linecap="round" stroke-linejoin="round" fill="none" stroke="#7c532e" d="M 0 0 C .189 .365 3.229 -5.948 0 -9.734 "/>
<path transform="matrix(1,0,0,-1,139.506,20.126103)" stroke-width=".241" stroke-linecap="round" stroke-linejoin="round" fill="none" stroke="#7c532e" d="M 0 0 C .188 .365 3.23 -5.948 0 -9.734 "/>
<path transform="matrix(1,0,0,-1,136.7335,20.126103)" stroke-width=".241" stroke-linecap="round" stroke-linejoin="round" fill="none" stroke="#7c532e" d="M 0 0 C .189 .365 3.23 -5.948 0 -9.734 "/>
<path transform="matrix(1,0,0,-1,133.961,20.126103)" stroke-width=".241" stroke-linecap="round" stroke-linejoin="round" fill="none" stroke="#7c532e" d="M 0 0 C .189 .365 3.23 -5.948 0 -9.734 "/>
<path transform="matrix(1,0,0,-1,131.1886,20.126103)" stroke-width=".241" stroke-linecap="round" stroke-linejoin="round" fill="none" stroke="#7c532e" d="M 0 0 C .189 .365 3.229 -5.948 0 -9.734 "/>
<path transform="matrix(1,0,0,-1,211.5904,19.557202)" stroke-width=".241" stroke-linecap="round" stroke-linejoin="round" fill="none" stroke="#7c532e" d="M 0 0 C .216 .379 3.484 -6.734 0 -11.062 "/>
<path transform="matrix(1,0,0,-1,214.3629,19.557202)" stroke-width=".241" stroke-linecap="round" stroke-linejoin="round" fill="none" stroke="#7c532e" d="M 0 0 C .216 .379 3.484 -6.734 0 -11.062 "/>
<path transform="matrix(1,0,0,-1,208.818,19.557202)" stroke-width=".241" stroke-linecap="round" stroke-linejoin="round" fill="none" stroke="#7c532e" d="M 0 0 C .215 .379 3.485 -6.734 0 -11.062 "/>
<path transform="matrix(1,0,0,-1,217.1353,19.557202)" stroke-width=".241" stroke-linecap="round" stroke-linejoin="round" fill="none" stroke="#7c532e" d="M 0 0 C .216 .379 3.484 -6.734 0 -11.062 "/>
<path transform="matrix(1,0,0,-1,219.9078,19.557202)" stroke-width=".241" stroke-linecap="round" stroke-linejoin="round" fill="none" stroke="#7c532e" d="M 0 0 C .216 .379 3.485 -6.734 0 -11.062 "/>
<path transform="matrix(1,0,0,-1,222.6803,19.557202)" stroke-width=".241" stroke-linecap="round" stroke-linejoin="round" fill="none" stroke="#7c532e" d="M 0 0 C .215 .379 3.484 -6.734 0 -11.062 "/>
<path transform="matrix(1,0,0,-1,225.4527,19.557202)" stroke-width=".241" stroke-linecap="round" stroke-linejoin="round" fill="none" stroke="#7c532e" d="M 0 0 C .216 .379 3.485 -6.734 0 -11.062 "/>
<path transform="matrix(1,0,0,-1,228.2252,19.557202)" stroke-width=".241" stroke-linecap="round" stroke-linejoin="round" fill="none" stroke="#7c532e" d="M 0 0 C .216 .379 3.484 -6.735 0 -11.062 "/>
<path transform="matrix(1,0,0,-1,230.9977,19.557202)" stroke-width=".241" stroke-linecap="round" stroke-linejoin="round" fill="none" stroke="#7c532e" d="M 0 0 C .216 .379 3.484 -6.734 0 -11.062 "/>
<path transform="matrix(1,0,0,-1,233.7701,19.557202)" stroke-width=".241" stroke-linecap="round" stroke-linejoin="round" fill="none" stroke="#7c532e" d="M 0 0 C .215 .379 3.485 -6.734 0 -11.062 "/>
<path transform="matrix(1,0,0,-1,236.5426,19.557202)" stroke-width=".241" stroke-linecap="round" stroke-linejoin="round" fill="none" stroke="#7c532e" d="M 0 0 C .216 .379 3.485 -6.734 0 -11.062 "/>
<path transform="matrix(1,0,0,-1,239.315,19.557202)" stroke-width=".241" stroke-linecap="round" stroke-linejoin="round" fill="none" stroke="#7c532e" d="M 0 0 C .216 .379 3.485 -6.734 0 -11.062 "/>
<path transform="matrix(1,0,0,-1,242.0875,19.557202)" stroke-width=".241" stroke-linecap="round" stroke-linejoin="round" fill="none" stroke="#7c532e" d="M 0 0 C .216 .379 3.485 -6.734 0 -11.062 "/>
<path transform="matrix(1,0,0,-1,244.86,19.557202)" stroke-width=".241" stroke-linecap="round" stroke-linejoin="round" fill="none" stroke="#7c532e" d="M 0 0 C .215 .379 3.485 -6.734 0 -11.062 "/>
<path transform="matrix(1,0,0,-1,247.6324,19.557202)" stroke-width=".241" stroke-linecap="round" stroke-linejoin="round" fill="none" stroke="#7c532e" d="M 0 0 C .215 .379 3.485 -6.734 0 -11.062 "/>
<path transform="matrix(1,0,0,-1,250.4049,19.557202)" stroke-width=".241" stroke-linecap="round" stroke-linejoin="round" fill="none" stroke="#7c532e" d="M 0 0 C .216 .379 3.485 -6.734 0 -11.062 "/>
<path transform="matrix(1,0,0,-1,253.1773,19.557202)" stroke-width=".241" stroke-linecap="round" stroke-linejoin="round" fill="none" stroke="#7c532e" d="M 0 0 C .216 .379 3.485 -6.734 0 -11.062 "/>
<path transform="matrix(1,0,0,-1,206.0455,19.557202)" stroke-width=".241" stroke-linecap="round" stroke-linejoin="round" fill="none" stroke="#7c532e" d="M 0 0 C .216 .379 3.484 -6.734 0 -11.062 "/>
<path transform="matrix(1,0,0,-1,255.9498,19.557202)" stroke-width=".241" stroke-linecap="round" stroke-linejoin="round" fill="none" stroke="#7c532e" d="M 0 0 C .216 .379 3.485 -6.734 0 -11.062 "/>
<path transform="matrix(1,0,0,-1,258.7223,19.557202)" stroke-width=".241" stroke-linecap="round" stroke-linejoin="round" fill="none" stroke="#7c532e" d="M 0 0 C .216 .379 3.485 -6.734 0 -11.062 "/>
<path transform="matrix(1,0,0,-1,261.4947,19.557202)" stroke-width=".241" stroke-linecap="round" stroke-linejoin="round" fill="none" stroke="#7c532e" d="M 0 0 C .216 .379 3.485 -6.734 0 -11.062 "/>
<path transform="matrix(1,0,0,-1,264.2672,19.557202)" stroke-width=".241" stroke-linecap="round" stroke-linejoin="round" fill="none" stroke="#7c532e" d="M 0 0 C .216 .379 3.485 -6.734 0 -11.062 "/>
<path transform="matrix(1,0,0,-1,267.0396,19.557202)" stroke-width=".241" stroke-linecap="round" stroke-linejoin="round" fill="none" stroke="#7c532e" d="M 0 0 C .216 .379 3.485 -6.734 0 -11.062 "/>
<path transform="matrix(1,0,0,-1,269.8121,19.557202)" stroke-width=".241" stroke-linecap="round" stroke-linejoin="round" fill="none" stroke="#7c532e" d="M 0 0 C .216 .379 3.485 -6.734 0 -11.062 "/>
<path transform="matrix(1,0,0,-1,272.5846,19.557202)" stroke-width=".241" stroke-linecap="round" stroke-linejoin="round" fill="none" stroke="#7c532e" d="M 0 0 C .216 .379 3.485 -6.734 0 -11.062 "/>
<path transform="matrix(1,0,0,-1,275.357,19.557202)" stroke-width=".241" stroke-linecap="round" stroke-linejoin="round" fill="none" stroke="#7c532e" d="M 0 0 C .216 .379 3.484 -6.734 0 -11.062 "/>
<path transform="matrix(1,0,0,-1,278.1295,19.557202)" stroke-width=".241" stroke-linecap="round" stroke-linejoin="round" fill="none" stroke="#7c532e" d="M 0 0 C .216 .379 3.484 -6.734 0 -11.062 "/>
<path transform="matrix(1,0,0,-1,280.9019,19.557202)" stroke-width=".241" stroke-linecap="round" stroke-linejoin="round" fill="none" stroke="#7c532e" d="M 0 0 C .216 .379 3.484 -6.734 0 -11.062 "/>
<path transform="matrix(1,0,0,-1,283.6744,19.557202)" stroke-width=".241" stroke-linecap="round" stroke-linejoin="round" fill="none" stroke="#7c532e" d="M 0 0 C .216 .379 3.485 -6.734 0 -11.062 "/>
<path transform="matrix(1,0,0,-1,286.4469,19.557202)" stroke-width=".241" stroke-linecap="round" stroke-linejoin="round" fill="none" stroke="#7c532e" d="M 0 0 C .216 .379 3.485 -6.734 0 -11.062 "/>
<path transform="matrix(1,0,0,-1,289.2193,19.557202)" stroke-width=".241" stroke-linecap="round" stroke-linejoin="round" fill="none" stroke="#7c532e" d="M 0 0 C .216 .379 3.484 -6.734 0 -11.062 "/>
</g>
<clipPath id="cp2">
<path transform="matrix(1,0,0,-1,0,50.4)" d="M 0 50.4 L 421.2 50.4 L 421.2 0 L 0 0 Z "/>
</clipPath>
<g clip-path="url(#cp2)">
<path transform="matrix(1,0,0,-1,152.5621,20.510802)" d="M 0 0 C -12.482 0 -22.601 -1.985 -22.601 -4.434 C -22.601 -6.883 -12.482 -8.869 0 -8.869 C 1.973 -8.869 107.806 -8.726 107.806 -8.726 C 107.806 -8.726 139.475 -7.509 139.398 -4.363 C 139.327 -1.406 107.806 -.047 107.806 -.047 C 107.806 -.047 1.513 0 0 0 M 0 -.482 C 1.506 -.482 106.848 -.53 107.778 -.53 L 107.785 -.53 C 107.861 -.533 115.51 -.867 123.18 -1.546 C 137.672 -2.829 138.832 -4.138 138.916 -4.372 C 138.888 -4.532 138.209 -5.968 123.354 -7.264 C 115.627 -7.937 107.865 -8.24 107.806 -8.243 C 106.747 -8.244 1.95 -8.386 0 -8.386 C -13.704 -8.386 -22.118 -6.084 -22.118 -4.434 C -22.118 -2.784 -13.704 -.482 0 -.482 " fill="#7c532e"/>
<path transform="matrix(1,0,0,-1,193.8228,30.312102)" d="M 0 0 C -1.229 0 -2.178 .01 -2.53 .028 C -3.507 .079 -4.509 .701 -4.897 .969 C -2.37 5.553 -4.279 9.019 -4.796 9.813 C -4.38 10.247 -4.093 10.447 -3.277 10.502 C -2.649 10.544 -.651 10.566 2.661 10.566 C 4.712 10.566 6.785 10.558 8.01 10.553 L 9.452 10.553 C 9.98 10.553 10.487 10.505 10.869 9.923 C 11.384 9.139 12.042 6.017 11.95 4.25 C 11.86 2.534 11.051 .527 9.899 .278 C 9.012 .086 3.576 0 0 0 " fill="#ddb384"/>
<path transform="matrix(1,0,0,-1,196.4942,19.505002)" d="M 0 0 C -2.62 0 -5.208 -.013 -5.965 -.064 C -6.926 -.128 -7.24 -.394 -7.777 -.97 C -7.777 -.97 -4.88 -4.677 -7.884 -9.907 C -7.884 -9.907 -6.549 -10.95 -5.214 -11.02 C -4.86 -11.038 -3.908 -11.048 -2.674 -11.048 C .748 -11.048 6.332 -10.969 7.279 -10.765 C 8.566 -10.487 9.424 -8.4 9.52 -6.569 C 9.615 -4.738 8.948 -1.585 8.399 -.751 C 7.957 -.078 7.358 -.013 6.781 -.013 C 6.643 -.013 6.506 -.016 6.373 -.016 C 5.859 -.016 2.911 0 0 0 M 0 -.482 C 2.049 -.482 4.117 -.491 5.34 -.496 L 6.373 -.499 L 6.58 -.497 L 6.781 -.495 C 7.359 -.496 7.707 -.576 7.996 -1.016 C 8.448 -1.705 9.133 -4.696 9.038 -6.544 C 8.942 -8.379 8.089 -10.096 7.177 -10.293 C 6.386 -10.464 1.547 -10.565 -2.674 -10.565 C -3.912 -10.565 -4.852 -10.555 -5.189 -10.538 C -5.983 -10.496 -6.805 -10.044 -7.251 -9.759 C -4.929 -5.373 -6.507 -2.077 -7.158 -1.024 C -6.833 -.713 -6.572 -.588 -5.933 -.546 C -5.309 -.504 -3.313 -.482 0 -.482 " fill="#7c532e"/>
<path transform="matrix(1,0,0,-1,190.3336,28.073801)" d="M 0 0 C 0 0 -.206 .771 .445 .744 C 1.096 .717 4.386 .611 6.476 .611 C 8.566 .611 14.116 .691 14.288 .584 C 14.459 .478 14.665 -.053 13.945 -.08 C 13.226 -.106 .788 -.346 0 0 " fill="#e7cca2"/>
</g>
</g>
</g>
</svg>
