<?xml version="1.0" encoding="UTF-8" standalone="no"?>
<!DOCTYPE svg PUBLIC "-//W3C//DTD SVG 1.1//EN" "http://www.w3.org/Graphics/SVG/1.1/DTD/svg11.dtd">
<svg xmlns="http://www.w3.org/2000/svg" xmlns:xlink="http://www.w3.org/1999/xlink" version="1.1" width="421.2pt" height="50.4pt" viewBox="0 0 421.2 50.4">
<g enable-background="new">
<g id="Layer-1" data-name="Layer">
<clipPath id="cp0">
<path transform="matrix(1,0,0,-1,0,50.4)" d="M 0 50.4 L 421.2 50.4 L 421.2 0 L 0 0 Z "/>
</clipPath>
<g clip-path="url(#cp0)">
<path transform="matrix(1,0,0,-1,60.7364,35.978105)" d="M 0 0 C -31.125 0 -57.419 5.034 -57.419 10.993 C -57.419 16.951 -31.125 21.985 0 21.985 C 3.867 21.985 275.503 21.863 275.503 21.863 C 307.742 20.473 355.773 16.477 355.901 11.167 C 356.038 5.514 307.888 1.61 275.491 .365 C 272.798 .362 4.984 0 0 0 " fill="#c28453"/>
<path transform="matrix(1,0,0,-1,60.7364,13.652901)" d="M 0 0 C -31.899 0 -57.759 -5.074 -57.759 -11.333 C -57.759 -17.591 -31.899 -22.665 0 -22.665 C 5.042 -22.665 275.503 -22.3 275.503 -22.3 C 275.503 -22.3 356.435 -19.19 356.241 -11.15 C 356.058 -3.595 275.503 -.122 275.503 -.122 C 275.503 -.122 3.867 0 0 0 M 0 -.68 C 3.823 -.68 272.787 -.8 275.474 -.801 C 275.675 -.81 295.832 -1.689 315.747 -3.48 C 352.598 -6.793 355.539 -10.201 355.562 -11.167 C 355.586 -12.196 352.799 -15.807 315.89 -19.062 C 295.928 -20.823 275.679 -21.613 275.502 -21.62 C 272.798 -21.624 4.984 -21.986 0 -21.986 C -15.385 -21.986 -29.843 -20.812 -40.711 -18.679 C -50.96 -16.668 -57.079 -13.922 -57.079 -11.333 C -57.079 -8.744 -50.96 -5.997 -40.711 -3.986 C -29.843 -1.854 -15.385 -.68 0 -.68 " fill="#7c532e"/>
<path transform="matrix(1,0,0,-1,16.6251,28.184203)" d="M 0 0 C 0 0 29.001 -4.63 42.162 -5.118 C 55.322 -5.605 306.098 -4.387 326.57 -3.899 C 347.041 -3.412 391.396 0 391.396 1.706 C 391.396 3.412 332.418 -1.706 324.132 -1.95 C 323.374 -1.972 322.614 -1.975 321.855 -1.983 C 320.308 -1.999 318.761 -2.01 317.213 -2.021 C 314.949 -2.037 312.684 -2.05 310.418 -2.063 C 307.506 -2.08 304.594 -2.095 301.682 -2.11 C 298.192 -2.127 294.703 -2.144 291.213 -2.159 C 287.217 -2.177 283.221 -2.194 279.225 -2.21 C 274.792 -2.229 270.36 -2.247 265.927 -2.264 C 261.128 -2.282 256.331 -2.3 251.532 -2.317 C 246.437 -2.336 241.343 -2.354 236.249 -2.372 C 230.929 -2.39 225.61 -2.408 220.291 -2.425 C 214.816 -2.442 209.341 -2.46 203.867 -2.477 C 198.307 -2.494 192.749 -2.51 187.189 -2.526 C 181.615 -2.542 176.042 -2.558 170.468 -2.573 C 164.951 -2.588 159.434 -2.603 153.916 -2.617 C 148.525 -2.63 143.134 -2.643 137.743 -2.656 C 132.549 -2.667 127.354 -2.679 122.16 -2.689 C 117.233 -2.7 112.306 -2.709 107.379 -2.718 C 102.789 -2.726 98.2 -2.733 93.61 -2.739 C 89.428 -2.745 85.246 -2.75 81.064 -2.753 C 77.36 -2.757 73.657 -2.759 69.953 -2.76 C 66.798 -2.761 63.643 -2.76 60.487 -2.758 C 57.951 -2.756 55.415 -2.752 52.878 -2.746 C 49.948 -2.739 47.011 -2.773 44.083 -2.687 C 37.383 -2.488 30.713 -1.404 24.072 -.57 C 17.865 .208 11.535 1.135 5.264 .964 C 3.568 .918 1.509 .892 0 0 " fill="#ddb384"/>
</g>
<clipPath id="cp1">
<path transform="matrix(1,0,0,-1,0,50.4)" d="M 2.977 25.414 C 2.977 19.156 28.837 14.082 60.736 14.082 C 65.778 14.082 336.24 14.448 336.24 14.448 C 336.24 14.448 417.172 17.556 416.977 25.597 C 416.794 33.152 336.24 36.625 336.24 36.625 C 336.24 36.625 64.604 36.747 60.736 36.747 C 28.837 36.747 2.977 31.674 2.977 25.414 "/>
</clipPath>
<g clip-path="url(#cp1)">
<path transform="matrix(1,0,0,-1,62.797,11.2159)" stroke-width=".51" stroke-linecap="round" stroke-linejoin="round" fill="none" stroke="#7c532e" d="M 0 0 C .551 .969 8.906 -17.211 0 -28.271 "/>
<path transform="matrix(1,0,0,-1,69.8819,11.2159)" stroke-width=".51" stroke-linecap="round" stroke-linejoin="round" fill="none" stroke="#7c532e" d="M 0 0 C .552 .969 8.907 -17.211 0 -28.271 "/>
<path transform="matrix(1,0,0,-1,55.7115,11.2159)" stroke-width=".51" stroke-linecap="round" stroke-linejoin="round" fill="none" stroke="#7c532e" d="M 0 0 C .552 .969 8.907 -17.211 0 -28.271 "/>
<path transform="matrix(1,0,0,-1,76.9674,11.2159)" stroke-width=".51" stroke-linecap="round" stroke-linejoin="round" fill="none" stroke="#7c532e" d="M 0 0 C .551 .969 8.906 -17.211 0 -28.271 "/>
<path transform="matrix(1,0,0,-1,84.0524,11.2159)" stroke-width=".51" stroke-linecap="round" stroke-linejoin="round" fill="none" stroke="#7c532e" d="M 0 0 C .552 .969 8.907 -17.211 0 -28.271 "/>
<path transform="matrix(1,0,0,-1,91.1378,11.2159)" stroke-width=".51" stroke-linecap="round" stroke-linejoin="round" fill="none" stroke="#7c532e" d="M 0 0 C .551 .969 8.906 -17.211 0 -28.271 "/>
<path transform="matrix(1,0,0,-1,98.2228,11.2159)" stroke-width=".51" stroke-linecap="round" stroke-linejoin="round" fill="none" stroke="#7c532e" d="M 0 0 C .551 .969 8.907 -17.211 0 -28.271 "/>
<path transform="matrix(1,0,0,-1,105.3077,11.2159)" stroke-width=".51" stroke-linecap="round" stroke-linejoin="round" fill="none" stroke="#7c532e" d="M 0 0 C .552 .969 8.907 -17.211 0 -28.271 "/>
<path transform="matrix(1,0,0,-1,112.3932,11.2159)" stroke-width=".51" stroke-linecap="round" stroke-linejoin="round" fill="none" stroke="#7c532e" d="M 0 0 C .551 .969 8.907 -17.211 0 -28.271 "/>
<path transform="matrix(1,0,0,-1,119.4781,11.2159)" stroke-width=".51" stroke-linecap="round" stroke-linejoin="round" fill="none" stroke="#7c532e" d="M 0 0 C .552 .969 8.907 -17.211 0 -28.271 "/>
<path transform="matrix(1,0,0,-1,126.5636,11.2159)" stroke-width=".51" stroke-linecap="round" stroke-linejoin="round" fill="none" stroke="#7c532e" d="M 0 0 C .551 .969 8.907 -17.211 0 -28.271 "/>
<path transform="matrix(1,0,0,-1,133.6485,11.2159)" stroke-width=".51" stroke-linecap="round" stroke-linejoin="round" fill="none" stroke="#7c532e" d="M 0 0 C .552 .969 8.907 -17.211 0 -28.271 "/>
<path transform="matrix(1,0,0,-1,140.734,11.2159)" stroke-width=".51" stroke-linecap="round" stroke-linejoin="round" fill="none" stroke="#7c532e" d="M 0 0 C .551 .969 8.907 -17.211 0 -28.271 "/>
<path transform="matrix(1,0,0,-1,147.8189,11.2159)" stroke-width=".51" stroke-linecap="round" stroke-linejoin="round" fill="none" stroke="#7c532e" d="M 0 0 C .552 .969 8.907 -17.211 0 -28.271 "/>
<path transform="matrix(1,0,0,-1,48.6266,11.2159)" stroke-width=".51" stroke-linecap="round" stroke-linejoin="round" fill="none" stroke="#7c532e" d="M 0 0 C .551 .969 8.906 -17.211 0 -28.271 "/>
<path transform="matrix(1,0,0,-1,41.5411,12.670002)" stroke-width=".51" stroke-linecap="round" stroke-linejoin="round" fill="none" stroke="#7c532e" d="M 0 0 C .482 .933 8.254 -15.201 0 -24.878 "/>
<path transform="matrix(1,0,0,-1,34.4562,12.670002)" stroke-width=".51" stroke-linecap="round" stroke-linejoin="round" fill="none" stroke="#7c532e" d="M 0 0 C .482 .933 8.254 -15.201 0 -24.878 "/>
<path transform="matrix(1,0,0,-1,27.3712,12.670002)" stroke-width=".51" stroke-linecap="round" stroke-linejoin="round" fill="none" stroke="#7c532e" d="M 0 0 C .481 .933 8.254 -15.201 0 -24.878 "/>
<path transform="matrix(1,0,0,-1,20.2857,12.670002)" stroke-width=".51" stroke-linecap="round" stroke-linejoin="round" fill="none" stroke="#7c532e" d="M 0 0 C .482 .933 8.254 -15.201 0 -24.878 "/>
<path transform="matrix(1,0,0,-1,13.2008,12.670002)" stroke-width=".51" stroke-linecap="round" stroke-linejoin="round" fill="none" stroke="#7c532e" d="M 0 0 C .482 .933 8.254 -15.201 0 -24.878 "/>
<path transform="matrix(1,0,0,-1,6.1153,12.670002)" stroke-width=".51" stroke-linecap="round" stroke-linejoin="round" fill="none" stroke="#7c532e" d="M 0 0 C .482 .933 8.254 -15.201 0 -24.878 "/>
<path transform="matrix(1,0,0,-1,211.5855,11.2159)" stroke-width=".51" stroke-linecap="round" stroke-linejoin="round" fill="none" stroke="#7c532e" d="M 0 0 C .552 .969 8.907 -17.211 0 -28.271 "/>
<path transform="matrix(1,0,0,-1,218.6705,11.2159)" stroke-width=".51" stroke-linecap="round" stroke-linejoin="round" fill="none" stroke="#7c532e" d="M 0 0 C .552 .969 8.907 -17.211 0 -28.271 "/>
<path transform="matrix(1,0,0,-1,204.5006,11.2159)" stroke-width=".51" stroke-linecap="round" stroke-linejoin="round" fill="none" stroke="#7c532e" d="M 0 0 C .552 .969 8.906 -17.211 0 -28.271 "/>
<path transform="matrix(1,0,0,-1,225.7564,11.2159)" stroke-width=".51" stroke-linecap="round" stroke-linejoin="round" fill="none" stroke="#7c532e" d="M 0 0 C .551 .969 8.906 -17.211 0 -28.271 "/>
<path transform="matrix(1,0,0,-1,232.8414,11.2159)" stroke-width=".51" stroke-linecap="round" stroke-linejoin="round" fill="none" stroke="#7c532e" d="M 0 0 C .551 .969 8.906 -17.211 0 -28.271 "/>
<path transform="matrix(1,0,0,-1,239.9264,11.2159)" stroke-width=".51" stroke-linecap="round" stroke-linejoin="round" fill="none" stroke="#7c532e" d="M 0 0 C .552 .969 8.906 -17.211 0 -28.271 "/>
<path transform="matrix(1,0,0,-1,247.0113,11.2159)" stroke-width=".51" stroke-linecap="round" stroke-linejoin="round" fill="none" stroke="#7c532e" d="M 0 0 C .552 .969 8.907 -17.211 0 -28.271 "/>
<path transform="matrix(1,0,0,-1,254.0963,11.2159)" stroke-width=".51" stroke-linecap="round" stroke-linejoin="round" fill="none" stroke="#7c532e" d="M 0 0 C .552 .969 8.907 -17.211 0 -28.271 "/>
<path transform="matrix(1,0,0,-1,261.1822,11.2159)" stroke-width=".51" stroke-linecap="round" stroke-linejoin="round" fill="none" stroke="#7c532e" d="M 0 0 C .551 .969 8.906 -17.211 0 -28.271 "/>
<path transform="matrix(1,0,0,-1,268.2672,11.2159)" stroke-width=".51" stroke-linecap="round" stroke-linejoin="round" fill="none" stroke="#7c532e" d="M 0 0 C .551 .969 8.906 -17.211 0 -28.271 "/>
<path transform="matrix(1,0,0,-1,275.3521,11.2159)" stroke-width=".51" stroke-linecap="round" stroke-linejoin="round" fill="none" stroke="#7c532e" d="M 0 0 C .552 .969 8.907 -17.211 0 -28.271 "/>
<path transform="matrix(1,0,0,-1,282.4371,11.2159)" stroke-width=".51" stroke-linecap="round" stroke-linejoin="round" fill="none" stroke="#7c532e" d="M 0 0 C .552 .969 8.907 -17.211 0 -28.271 "/>
<path transform="matrix(1,0,0,-1,289.523,11.2159)" stroke-width=".51" stroke-linecap="round" stroke-linejoin="round" fill="none" stroke="#7c532e" d="M 0 0 C .551 .969 8.906 -17.211 0 -28.271 "/>
<path transform="matrix(1,0,0,-1,296.608,11.2159)" stroke-width=".51" stroke-linecap="round" stroke-linejoin="round" fill="none" stroke="#7c532e" d="M 0 0 C .551 .969 8.906 -17.211 0 -28.271 "/>
<path transform="matrix(1,0,0,-1,303.693,11.2159)" stroke-width=".51" stroke-linecap="round" stroke-linejoin="round" fill="none" stroke="#7c532e" d="M 0 0 C .552 .969 8.907 -17.211 0 -28.271 "/>
<path transform="matrix(1,0,0,-1,310.7779,11.2159)" stroke-width=".51" stroke-linecap="round" stroke-linejoin="round" fill="none" stroke="#7c532e" d="M 0 0 C .552 .969 8.907 -17.211 0 -28.271 "/>
<path transform="matrix(1,0,0,-1,317.8629,11.2159)" stroke-width=".51" stroke-linecap="round" stroke-linejoin="round" fill="none" stroke="#7c532e" d="M 0 0 C .552 .969 8.907 -17.211 0 -28.271 "/>
<path transform="matrix(1,0,0,-1,197.4151,11.2159)" stroke-width=".51" stroke-linecap="round" stroke-linejoin="round" fill="none" stroke="#7c532e" d="M 0 0 C .551 .969 8.907 -17.211 0 -28.271 "/>
<path transform="matrix(1,0,0,-1,324.9488,11.2159)" stroke-width=".51" stroke-linecap="round" stroke-linejoin="round" fill="none" stroke="#7c532e" d="M 0 0 C .551 .969 8.906 -17.211 0 -28.271 "/>
<path transform="matrix(1,0,0,-1,332.0338,11.2159)" stroke-width=".51" stroke-linecap="round" stroke-linejoin="round" fill="none" stroke="#7c532e" d="M 0 0 C .552 .969 8.906 -17.211 0 -28.271 "/>
<path transform="matrix(1,0,0,-1,339.1187,11.2159)" stroke-width=".51" stroke-linecap="round" stroke-linejoin="round" fill="none" stroke="#7c532e" d="M 0 0 C .552 .969 8.907 -17.211 0 -28.271 "/>
<path transform="matrix(1,0,0,-1,346.2037,11.2159)" stroke-width=".51" stroke-linecap="round" stroke-linejoin="round" fill="none" stroke="#7c532e" d="M 0 0 C .552 .969 8.907 -17.211 0 -28.271 "/>
<path transform="matrix(1,0,0,-1,353.2896,11.2159)" stroke-width=".51" stroke-linecap="round" stroke-linejoin="round" fill="none" stroke="#7c532e" d="M 0 0 C .551 .969 8.906 -17.211 0 -28.271 "/>
<path transform="matrix(1,0,0,-1,360.3746,11.2159)" stroke-width=".51" stroke-linecap="round" stroke-linejoin="round" fill="none" stroke="#7c532e" d="M 0 0 C .551 .969 8.906 -17.211 0 -28.271 "/>
<path transform="matrix(1,0,0,-1,367.4596,11.2159)" stroke-width=".51" stroke-linecap="round" stroke-linejoin="round" fill="none" stroke="#7c532e" d="M 0 0 C .552 .969 8.907 -17.211 0 -28.271 "/>
<path transform="matrix(1,0,0,-1,374.5445,11.2159)" stroke-width=".51" stroke-linecap="round" stroke-linejoin="round" fill="none" stroke="#7c532e" d="M 0 0 C .552 .969 8.907 -17.211 0 -28.271 "/>
<path transform="matrix(1,0,0,-1,381.6305,11.2159)" stroke-width=".51" stroke-linecap="round" stroke-linejoin="round" fill="none" stroke="#7c532e" d="M 0 0 C .551 .969 8.906 -17.211 0 -28.271 "/>
<path transform="matrix(1,0,0,-1,388.7154,11.2159)" stroke-width=".51" stroke-linecap="round" stroke-linejoin="round" fill="none" stroke="#7c532e" d="M 0 0 C .552 .969 8.906 -17.211 0 -28.271 "/>
<path transform="matrix(1,0,0,-1,395.8004,11.2159)" stroke-width=".51" stroke-linecap="round" stroke-linejoin="round" fill="none" stroke="#7c532e" d="M 0 0 C .551 .969 8.906 -17.211 0 -28.271 "/>
<path transform="matrix(1,0,0,-1,402.8853,11.2159)" stroke-width=".51" stroke-linecap="round" stroke-linejoin="round" fill="none" stroke="#7c532e" d="M 0 0 C .552 .969 8.907 -17.211 0 -28.271 "/>
<path transform="matrix(1,0,0,-1,409.9703,11.2159)" stroke-width=".51" stroke-linecap="round" stroke-linejoin="round" fill="none" stroke="#7c532e" d="M 0 0 C .552 .969 8.907 -17.211 0 -28.271 "/>
</g>
<clipPath id="cp2">
<path transform="matrix(1,0,0,-1,0,50.4)" d="M 0 50.4 L 421.2 50.4 L 421.2 0 L 0 0 Z "/>
</clipPath>
<g clip-path="url(#cp2)">
<path transform="matrix(1,0,0,-1,60.7364,13.652901)" d="M 0 0 C -31.899 0 -57.759 -5.074 -57.759 -11.333 C -57.759 -17.591 -31.899 -22.665 0 -22.665 C 5.042 -22.665 275.503 -22.3 275.503 -22.3 C 275.503 -22.3 356.435 -19.19 356.241 -11.15 C 356.058 -3.595 275.503 -.122 275.503 -.122 C 275.503 -.122 3.867 0 0 0 M 0 -1.02 C 3.823 -1.02 272.787 -1.14 275.459 -1.14 C 275.661 -1.149 295.811 -2.029 315.718 -3.818 C 327.392 -4.868 336.695 -6.02 343.367 -7.243 C 355.044 -9.381 355.221 -11.157 355.222 -11.174 C 355.232 -11.591 354.213 -15.341 315.862 -18.724 C 295.91 -20.484 275.667 -21.273 275.502 -21.28 C 272.797 -21.284 4.983 -21.646 0 -21.646 C -15.364 -21.646 -29.799 -20.474 -40.646 -18.346 C -52.512 -16.018 -56.74 -13.196 -56.74 -11.333 C -56.74 -9.469 -52.512 -6.648 -40.646 -4.319 C -29.799 -2.191 -15.364 -1.02 0 -1.02 " fill="#7c532e"/>
<path transform="matrix(1,0,0,-1,166.1695,38.8087)" d="M 0 0 C -3.172 0 -5.588 .027 -6.461 .073 C -9.054 .208 -11.707 1.897 -12.644 2.552 C -8.828 9.424 -8.981 15.247 -9.798 18.949 C -10.514 22.198 -11.825 24.382 -12.379 25.203 C -11.266 26.372 -10.531 26.909 -8.373 27.054 C -6.763 27.162 -1.643 27.217 6.846 27.217 C 12.082 27.217 17.364 27.196 20.488 27.184 C 21.802 27.178 22.735 27.174 23.123 27.174 L 24.166 27.184 C 25.547 27.184 26.87 27.057 27.876 25.526 C 29.201 23.51 30.893 15.493 30.657 10.964 C 30.426 6.538 28.325 1.36 25.331 .714 C 23.053 .222 9.148 0 .002 0 Z " fill="#ddb384"/>
<path transform="matrix(1,0,0,-1,173.0079,11.0826)" d="M 0 0 C -6.694 0 -13.311 -.034 -15.245 -.164 C -17.7 -.329 -18.503 -1.007 -19.875 -2.479 C -19.875 -2.479 -12.473 -11.953 -20.149 -25.319 C -20.149 -25.319 -16.738 -27.984 -13.326 -28.162 C -12.422 -28.209 -9.987 -28.235 -6.835 -28.235 C 1.911 -28.235 16.182 -28.033 18.6 -27.51 C 21.89 -26.8 24.083 -21.468 24.327 -16.789 C 24.571 -12.109 22.865 -4.053 21.464 -1.92 C 20.333 -.199 18.804 -.033 17.328 -.033 C 16.975 -.033 16.625 -.042 16.285 -.042 C 14.973 -.042 7.438 0 0 0 M 0 -1.019 C 5.238 -1.019 10.524 -1.04 13.649 -1.052 C 14.963 -1.058 15.896 -1.061 16.285 -1.061 C 16.458 -1.061 16.634 -1.059 16.811 -1.057 C 16.982 -1.054 17.154 -1.052 17.328 -1.052 C 18.849 -1.052 19.823 -1.279 20.612 -2.479 C 21.899 -4.439 23.541 -12.285 23.31 -16.735 C 23.026 -22.18 20.532 -26.05 18.385 -26.514 C 16.144 -26.999 2.288 -27.216 -6.835 -27.216 C -10 -27.216 -12.407 -27.189 -13.273 -27.144 C -15.453 -27.031 -17.703 -25.742 -18.813 -25.012 C -15.15 -18.178 -15.319 -12.381 -16.138 -8.667 C -16.786 -5.73 -17.916 -3.628 -18.569 -2.588 C -17.674 -1.697 -16.973 -1.301 -15.177 -1.181 C -13.579 -1.074 -8.472 -1.019 0 -1.019 " fill="#7c532e"/>
<path transform="matrix(1,0,0,-1,157.2628,32.9815)" d="M 0 0 C 0 0 -.525 1.969 1.138 1.901 C 2.802 1.833 11.208 1.562 16.549 1.562 C 21.891 1.562 36.076 1.766 36.514 1.494 C 36.951 1.222 37.477 -.136 35.638 -.204 C 33.799 -.271 2.014 -.883 0 0 " fill="#e7cca2"/>
</g>
</g>
</g>
</svg>
