<?xml version="1.0" encoding="UTF-8" standalone="no"?>
<!DOCTYPE svg PUBLIC "-//W3C//DTD SVG 1.1//EN" "http://www.w3.org/Graphics/SVG/1.1/DTD/svg11.dtd">
<svg xmlns="http://www.w3.org/2000/svg" xmlns:xlink="http://www.w3.org/1999/xlink" version="1.1" width="396pt" height="34.56pt" viewBox="0 0 396 34.56">
<g enable-background="new">
<g id="Layer-1" data-name="Layer">
<clipPath id="cp0">
<path transform="matrix(1,0,0,-1,0,34.56)" d="M 0 34.56 L 396 34.56 L 396 0 L 0 0 Z "/>
</clipPath>
<g clip-path="url(#cp0)">
<path transform="matrix(1,0,0,-1,55.6689,29.512602)" d="M 0 0 C -22.372 0 -37.401 3.683 -37.401 7.123 C -37.401 10.562 -22.372 14.245 0 14.245 C 2.522 14.245 179.676 14.166 179.676 14.166 C 200.682 13.26 231.979 10.667 232.062 7.235 C 232.151 3.582 200.776 1.049 179.665 .238 C 177.911 .236 3.25 0 0 0 " fill="#c28453"/>
<path transform="matrix(1,0,0,-1,55.6689,14.999502)" d="M 0 0 C -20.804 0 -37.669 -3.309 -37.669 -7.391 C -37.669 -11.472 -20.804 -14.781 0 -14.781 C 3.288 -14.781 179.676 -14.543 179.676 -14.543 C 179.676 -14.543 232.458 -12.515 232.331 -7.271 C 232.212 -2.344 179.676 -.08 179.676 -.08 C 179.676 -.08 2.522 0 0 0 M 0 -.536 C 2.493 -.536 177.904 -.615 179.653 -.615 C 179.784 -.621 192.928 -1.195 205.914 -2.362 C 230.487 -4.572 231.784 -6.85 231.795 -7.284 C 231.806 -7.748 230.615 -10.168 206.007 -12.339 C 192.991 -13.487 179.787 -14.002 179.675 -14.006 C 177.911 -14.009 3.25 -14.245 0 -14.245 C -21.883 -14.245 -37.132 -10.633 -37.132 -7.391 C -37.132 -4.148 -21.883 -.536 0 -.536 " fill="#7c532e"/>
<path transform="matrix(1,0,0,-1,26.9009,24.476002)" d="M 0 0 C 0 0 18.914 -3.02 27.497 -3.338 C 36.079 -3.656 199.628 -2.861 212.98 -2.543 C 226.331 -2.225 255.258 0 255.258 1.112 C 255.258 2.225 216.794 -1.113 211.39 -1.271 C 210.896 -1.286 210.4 -1.288 209.905 -1.293 C 208.896 -1.304 207.887 -1.311 206.878 -1.318 C 205.401 -1.329 203.924 -1.337 202.447 -1.346 C 200.547 -1.356 198.648 -1.367 196.749 -1.376 C 194.473 -1.387 192.197 -1.398 189.921 -1.408 C 187.315 -1.42 184.709 -1.431 182.103 -1.442 C 179.212 -1.454 176.321 -1.465 173.431 -1.477 C 170.301 -1.488 167.171 -1.5 164.042 -1.512 L 154.075 -1.547 C 150.605 -1.559 147.136 -1.57 143.667 -1.582 C 140.097 -1.593 136.526 -1.604 132.956 -1.615 C 129.331 -1.626 125.705 -1.637 122.079 -1.648 C 118.444 -1.658 114.81 -1.668 111.175 -1.678 C 107.576 -1.688 103.978 -1.697 100.38 -1.707 C 96.864 -1.715 93.348 -1.724 89.832 -1.732 C 86.444 -1.74 83.057 -1.747 79.669 -1.754 C 76.456 -1.761 73.243 -1.767 70.029 -1.772 C 67.036 -1.778 64.043 -1.782 61.05 -1.787 C 58.322 -1.79 55.595 -1.793 52.868 -1.796 C 50.452 -1.798 48.037 -1.8 45.621 -1.8 C 43.563 -1.8 41.506 -1.8 39.448 -1.799 C 37.794 -1.797 36.14 -1.795 34.485 -1.791 C 32.575 -1.786 30.659 -1.809 28.75 -1.752 C 24.38 -1.623 20.03 -.916 15.699 -.372 C 11.651 .136 7.522 .74 3.433 .628 C 2.327 .599 .984 .582 0 0 " fill="#ddb384"/>
</g>
<clipPath id="cp1">
<path transform="matrix(1,0,0,-1,0,34.56)" d="M 18 12.17 C 18 8.088 34.865 4.779 55.669 4.779 C 58.957 4.779 235.345 5.018 235.345 5.018 C 235.345 5.018 288.127 7.045 288 12.29 C 287.881 17.216 235.345 19.481 235.345 19.481 C 235.345 19.481 58.191 19.561 55.669 19.561 C 34.865 19.561 18 16.252 18 12.17 "/>
</clipPath>
<g clip-path="url(#cp1)">
<path transform="matrix(1,0,0,-1,57.0127,13.410101)" stroke-width=".402" stroke-linecap="round" stroke-linejoin="round" fill="none" stroke="#7c532e" d="M 0 0 C .359 .632 5.809 -11.225 0 -18.437 "/>
<path transform="matrix(1,0,0,-1,61.6333,13.410101)" stroke-width=".402" stroke-linecap="round" stroke-linejoin="round" fill="none" stroke="#7c532e" d="M 0 0 C .36 .632 5.809 -11.225 0 -18.437 "/>
<path transform="matrix(1,0,0,-1,52.3916,13.410101)" stroke-width=".402" stroke-linecap="round" stroke-linejoin="round" fill="none" stroke="#7c532e" d="M 0 0 C .36 .632 5.809 -11.225 0 -18.437 "/>
<path transform="matrix(1,0,0,-1,66.2539,13.410101)" stroke-width=".402" stroke-linecap="round" stroke-linejoin="round" fill="none" stroke="#7c532e" d="M 0 0 C .36 .632 5.809 -11.225 0 -18.437 "/>
<path transform="matrix(1,0,0,-1,70.875,13.410101)" stroke-width=".402" stroke-linecap="round" stroke-linejoin="round" fill="none" stroke="#7c532e" d="M 0 0 C .359 .632 5.809 -11.225 0 -18.437 "/>
<path transform="matrix(1,0,0,-1,75.4956,13.410101)" stroke-width=".402" stroke-linecap="round" stroke-linejoin="round" fill="none" stroke="#7c532e" d="M 0 0 C .36 .632 5.809 -11.225 0 -18.437 "/>
<path transform="matrix(1,0,0,-1,80.1162,13.410101)" stroke-width=".402" stroke-linecap="round" stroke-linejoin="round" fill="none" stroke="#7c532e" d="M 0 0 C .36 .632 5.809 -11.225 0 -18.437 "/>
<path transform="matrix(1,0,0,-1,84.7373,13.410101)" stroke-width=".402" stroke-linecap="round" stroke-linejoin="round" fill="none" stroke="#7c532e" d="M 0 0 C .359 .632 5.809 -11.225 0 -18.437 "/>
<path transform="matrix(1,0,0,-1,89.3579,13.410101)" stroke-width=".402" stroke-linecap="round" stroke-linejoin="round" fill="none" stroke="#7c532e" d="M 0 0 C .36 .632 5.809 -11.225 0 -18.437 "/>
<path transform="matrix(1,0,0,-1,93.9785,13.410101)" stroke-width=".402" stroke-linecap="round" stroke-linejoin="round" fill="none" stroke="#7c532e" d="M 0 0 C .36 .632 5.809 -11.225 0 -18.437 "/>
<path transform="matrix(1,0,0,-1,98.5996,13.410101)" stroke-width=".402" stroke-linecap="round" stroke-linejoin="round" fill="none" stroke="#7c532e" d="M 0 0 C .359 .632 5.809 -11.225 0 -18.437 "/>
<path transform="matrix(1,0,0,-1,103.2202,13.410101)" stroke-width=".402" stroke-linecap="round" stroke-linejoin="round" fill="none" stroke="#7c532e" d="M 0 0 C .36 .632 5.809 -11.225 0 -18.437 "/>
<path transform="matrix(1,0,0,-1,107.8408,13.410101)" stroke-width=".402" stroke-linecap="round" stroke-linejoin="round" fill="none" stroke="#7c532e" d="M 0 0 C .36 .632 5.809 -11.225 0 -18.437 "/>
<path transform="matrix(1,0,0,-1,112.4619,13.410101)" stroke-width=".402" stroke-linecap="round" stroke-linejoin="round" fill="none" stroke="#7c532e" d="M 0 0 C .359 .632 5.809 -11.225 0 -18.437 "/>
<path transform="matrix(1,0,0,-1,47.771,13.410101)" stroke-width=".402" stroke-linecap="round" stroke-linejoin="round" fill="none" stroke="#7c532e" d="M 0 0 C .359 .632 5.809 -11.225 0 -18.437 "/>
<path transform="matrix(1,0,0,-1,43.1504,14.358301)" stroke-width=".402" stroke-linecap="round" stroke-linejoin="round" fill="none" stroke="#7c532e" d="M 0 0 C .314 .609 5.383 -9.914 0 -16.225 "/>
<path transform="matrix(1,0,0,-1,38.5293,14.358301)" stroke-width=".402" stroke-linecap="round" stroke-linejoin="round" fill="none" stroke="#7c532e" d="M 0 0 C .314 .609 5.383 -9.914 0 -16.225 "/>
<path transform="matrix(1,0,0,-1,33.9087,14.358301)" stroke-width=".402" stroke-linecap="round" stroke-linejoin="round" fill="none" stroke="#7c532e" d="M 0 0 C .314 .609 5.383 -9.914 0 -16.225 "/>
<path transform="matrix(1,0,0,-1,29.2881,14.358301)" stroke-width=".402" stroke-linecap="round" stroke-linejoin="round" fill="none" stroke="#7c532e" d="M 0 0 C .314 .609 5.383 -9.914 0 -16.225 "/>
<path transform="matrix(1,0,0,-1,24.667,14.358301)" stroke-width=".402" stroke-linecap="round" stroke-linejoin="round" fill="none" stroke="#7c532e" d="M 0 0 C .314 .609 5.383 -9.914 0 -16.225 "/>
<path transform="matrix(1,0,0,-1,20.0464,14.358301)" stroke-width=".402" stroke-linecap="round" stroke-linejoin="round" fill="none" stroke="#7c532e" d="M 0 0 C .314 .609 5.383 -9.914 0 -16.225 "/>
<path transform="matrix(1,0,0,-1,154.0488,13.410101)" stroke-width=".402" stroke-linecap="round" stroke-linejoin="round" fill="none" stroke="#7c532e" d="M 0 0 C .359 .632 5.809 -11.225 0 -18.437 "/>
<path transform="matrix(1,0,0,-1,158.6694,13.410101)" stroke-width=".402" stroke-linecap="round" stroke-linejoin="round" fill="none" stroke="#7c532e" d="M 0 0 C .36 .632 5.809 -11.225 0 -18.437 "/>
<path transform="matrix(1,0,0,-1,149.4277,13.410101)" stroke-width=".402" stroke-linecap="round" stroke-linejoin="round" fill="none" stroke="#7c532e" d="M 0 0 C .36 .632 5.809 -11.225 0 -18.437 "/>
<path transform="matrix(1,0,0,-1,163.29,13.410101)" stroke-width=".402" stroke-linecap="round" stroke-linejoin="round" fill="none" stroke="#7c532e" d="M 0 0 C .36 .632 5.809 -11.225 0 -18.437 "/>
<path transform="matrix(1,0,0,-1,167.9111,13.410101)" stroke-width=".402" stroke-linecap="round" stroke-linejoin="round" fill="none" stroke="#7c532e" d="M 0 0 C .359 .632 5.809 -11.225 0 -18.437 "/>
<path transform="matrix(1,0,0,-1,172.5317,13.410101)" stroke-width=".402" stroke-linecap="round" stroke-linejoin="round" fill="none" stroke="#7c532e" d="M 0 0 C .36 .632 5.809 -11.225 0 -18.437 "/>
<path transform="matrix(1,0,0,-1,177.1523,13.410101)" stroke-width=".402" stroke-linecap="round" stroke-linejoin="round" fill="none" stroke="#7c532e" d="M 0 0 C .36 .632 5.809 -11.225 0 -18.437 "/>
<path transform="matrix(1,0,0,-1,181.7734,13.410101)" stroke-width=".402" stroke-linecap="round" stroke-linejoin="round" fill="none" stroke="#7c532e" d="M 0 0 C .359 .632 5.809 -11.225 0 -18.437 "/>
<path transform="matrix(1,0,0,-1,186.394,13.410101)" stroke-width=".402" stroke-linecap="round" stroke-linejoin="round" fill="none" stroke="#7c532e" d="M 0 0 C .36 .632 5.809 -11.225 0 -18.437 "/>
<path transform="matrix(1,0,0,-1,191.0146,13.410101)" stroke-width=".402" stroke-linecap="round" stroke-linejoin="round" fill="none" stroke="#7c532e" d="M 0 0 C .36 .632 5.809 -11.225 0 -18.437 "/>
<path transform="matrix(1,0,0,-1,195.6357,13.410101)" stroke-width=".402" stroke-linecap="round" stroke-linejoin="round" fill="none" stroke="#7c532e" d="M 0 0 C .359 .632 5.809 -11.225 0 -18.437 "/>
<path transform="matrix(1,0,0,-1,200.2563,13.410101)" stroke-width=".402" stroke-linecap="round" stroke-linejoin="round" fill="none" stroke="#7c532e" d="M 0 0 C .36 .632 5.809 -11.225 0 -18.437 "/>
<path transform="matrix(1,0,0,-1,204.877,13.410101)" stroke-width=".402" stroke-linecap="round" stroke-linejoin="round" fill="none" stroke="#7c532e" d="M 0 0 C .36 .632 5.809 -11.225 0 -18.437 "/>
<path transform="matrix(1,0,0,-1,209.498,13.410101)" stroke-width=".402" stroke-linecap="round" stroke-linejoin="round" fill="none" stroke="#7c532e" d="M 0 0 C .359 .632 5.809 -11.225 0 -18.437 "/>
<path transform="matrix(1,0,0,-1,214.1187,13.410101)" stroke-width=".402" stroke-linecap="round" stroke-linejoin="round" fill="none" stroke="#7c532e" d="M 0 0 C .36 .632 5.809 -11.225 0 -18.437 "/>
<path transform="matrix(1,0,0,-1,218.7393,13.410101)" stroke-width=".402" stroke-linecap="round" stroke-linejoin="round" fill="none" stroke="#7c532e" d="M 0 0 C .359 .632 5.809 -11.225 0 -18.437 "/>
<path transform="matrix(1,0,0,-1,223.3604,13.410101)" stroke-width=".402" stroke-linecap="round" stroke-linejoin="round" fill="none" stroke="#7c532e" d="M 0 0 C .359 .632 5.809 -11.225 0 -18.437 "/>
<path transform="matrix(1,0,0,-1,144.8071,13.410101)" stroke-width=".402" stroke-linecap="round" stroke-linejoin="round" fill="none" stroke="#7c532e" d="M 0 0 C .36 .632 5.809 -11.225 0 -18.437 "/>
<path transform="matrix(1,0,0,-1,227.9814,13.410101)" stroke-width=".402" stroke-linecap="round" stroke-linejoin="round" fill="none" stroke="#7c532e" d="M 0 0 C .359 .632 5.809 -11.225 0 -18.437 "/>
<path transform="matrix(1,0,0,-1,232.6016,13.410101)" stroke-width=".402" stroke-linecap="round" stroke-linejoin="round" fill="none" stroke="#7c532e" d="M 0 0 C .36 .632 5.809 -11.225 0 -18.437 "/>
<path transform="matrix(1,0,0,-1,237.2227,13.410101)" stroke-width=".402" stroke-linecap="round" stroke-linejoin="round" fill="none" stroke="#7c532e" d="M 0 0 C .359 .632 5.809 -11.225 0 -18.437 "/>
<path transform="matrix(1,0,0,-1,241.8437,13.410101)" stroke-width=".402" stroke-linecap="round" stroke-linejoin="round" fill="none" stroke="#7c532e" d="M 0 0 C .359 .632 5.808 -11.225 0 -18.437 "/>
<path transform="matrix(1,0,0,-1,246.4639,13.410101)" stroke-width=".402" stroke-linecap="round" stroke-linejoin="round" fill="none" stroke="#7c532e" d="M 0 0 C .36 .632 5.809 -11.225 0 -18.437 "/>
<path transform="matrix(1,0,0,-1,251.085,13.410101)" stroke-width=".402" stroke-linecap="round" stroke-linejoin="round" fill="none" stroke="#7c532e" d="M 0 0 C .359 .632 5.809 -11.225 0 -18.437 "/>
<path transform="matrix(1,0,0,-1,255.7061,13.410101)" stroke-width=".402" stroke-linecap="round" stroke-linejoin="round" fill="none" stroke="#7c532e" d="M 0 0 C .359 .632 5.809 -11.225 0 -18.437 "/>
<path transform="matrix(1,0,0,-1,260.3262,13.410101)" stroke-width=".402" stroke-linecap="round" stroke-linejoin="round" fill="none" stroke="#7c532e" d="M 0 0 C .36 .632 5.809 -11.225 0 -18.437 "/>
<path transform="matrix(1,0,0,-1,264.9473,13.410101)" stroke-width=".402" stroke-linecap="round" stroke-linejoin="round" fill="none" stroke="#7c532e" d="M 0 0 C .359 .632 5.809 -11.225 0 -18.437 "/>
<path transform="matrix(1,0,0,-1,269.5684,13.410101)" stroke-width=".402" stroke-linecap="round" stroke-linejoin="round" fill="none" stroke="#7c532e" d="M 0 0 C .359 .632 5.809 -11.225 0 -18.437 "/>
<path transform="matrix(1,0,0,-1,274.1885,13.410101)" stroke-width=".402" stroke-linecap="round" stroke-linejoin="round" fill="none" stroke="#7c532e" d="M 0 0 C .36 .632 5.809 -11.225 0 -18.437 "/>
<path transform="matrix(1,0,0,-1,278.8096,13.410101)" stroke-width=".402" stroke-linecap="round" stroke-linejoin="round" fill="none" stroke="#7c532e" d="M 0 0 C .359 .632 5.809 -11.225 0 -18.437 "/>
<path transform="matrix(1,0,0,-1,283.4307,13.410101)" stroke-width=".402" stroke-linecap="round" stroke-linejoin="round" fill="none" stroke="#7c532e" d="M 0 0 C .359 .632 5.809 -11.225 0 -18.437 "/>
</g>
<clipPath id="cp2">
<path transform="matrix(1,0,0,-1,0,34.56)" d="M 0 34.56 L 396 34.56 L 396 0 L 0 0 Z "/>
</clipPath>
<g clip-path="url(#cp2)">
<path transform="matrix(1,0,0,-1,55.6689,14.999502)" d="M 0 0 C -20.804 0 -37.669 -3.309 -37.669 -7.391 C -37.669 -11.472 -20.804 -14.781 0 -14.781 C 3.288 -14.781 179.676 -14.543 179.676 -14.543 C 179.676 -14.543 232.458 -12.515 232.331 -7.271 C 232.212 -2.344 179.676 -.08 179.676 -.08 C 179.676 -.08 2.522 0 0 0 M 0 -.805 C 2.493 -.805 177.904 -.883 179.642 -.883 C 179.769 -.889 192.52 -1.445 205.303 -2.577 C 229.452 -4.715 231.387 -6.897 231.526 -7.287 C 231.479 -7.553 230.348 -9.947 205.589 -12.106 C 192.711 -13.229 179.774 -13.734 179.675 -13.738 C 177.911 -13.741 3.25 -13.977 0 -13.977 C -22.84 -13.977 -36.864 -10.141 -36.864 -7.391 C -36.864 -4.641 -22.84 -.805 0 -.805 " fill="#7c532e"/>
<path transform="matrix(1,0,0,-1,124.4302,31.334902)" d="M 0 0 C -2.068 0 -3.642 .018 -4.21 .047 C -5.843 .132 -7.51 1.17 -8.155 1.616 C -3.944 9.253 -7.125 15.031 -7.987 16.355 C -7.294 17.078 -6.815 17.412 -5.457 17.504 C -4.41 17.574 -1.081 17.61 4.437 17.61 C 7.857 17.61 11.312 17.596 13.356 17.588 L 15.08 17.582 L 15.76 17.588 C 16.641 17.588 17.484 17.508 18.121 16.539 C 18.979 15.232 20.076 10.028 19.923 7.084 C 19.774 4.223 18.424 .878 16.504 .463 C 15.024 .144 5.962 0 0 0 Z " fill="#ddb384"/>
<path transform="matrix(1,0,0,-1,128.8892,13.3227009)" d="M 0 0 C -4.366 0 -8.681 -.022 -9.942 -.107 C -11.543 -.215 -12.067 -.657 -12.962 -1.617 C -12.962 -1.617 -8.134 -7.796 -13.141 -16.512 C -13.141 -16.512 -10.916 -18.251 -8.69 -18.367 C -8.101 -18.397 -6.513 -18.415 -4.458 -18.415 C 1.247 -18.415 10.553 -18.283 12.13 -17.942 C 14.276 -17.478 15.707 -14.001 15.866 -10.949 C 16.024 -7.897 14.912 -2.643 13.998 -1.252 C 13.26 -.13 12.264 -.021 11.301 -.021 C 11.071 -.021 10.843 -.028 10.621 -.028 C 9.765 -.028 4.851 0 0 0 M 0 -.805 C 3.415 -.805 6.861 -.818 8.899 -.827 C 9.758 -.83 10.367 -.832 10.621 -.832 L 10.966 -.829 L 11.301 -.826 C 12.266 -.826 12.843 -.96 13.326 -1.694 C 14.08 -2.842 15.223 -7.828 15.062 -10.907 C 14.903 -13.965 13.482 -16.827 11.96 -17.155 C 10.644 -17.44 2.579 -17.61 -4.458 -17.61 C -6.52 -17.61 -8.086 -17.592 -8.649 -17.563 C -9.972 -17.494 -11.343 -16.741 -12.085 -16.265 C -8.216 -8.956 -10.846 -3.463 -11.93 -1.708 C -11.389 -1.188 -10.953 -.981 -9.888 -.91 C -8.849 -.84 -5.522 -.805 0 -.805 " fill="#7c532e"/>
<path transform="matrix(1,0,0,-1,118.6206,27.6049)" d="M 0 0 C 0 0 -.342 1.285 .743 1.24 C 1.828 1.196 7.31 1.019 10.793 1.019 C 14.276 1.019 23.528 1.152 23.813 .975 C 24.099 .797 24.441 -.088 23.242 -.133 C 22.043 -.177 1.313 -.576 0 0 " fill="#e7cca2"/>
</g>
</g>
</g>
</svg>
