<?xml version="1.0" encoding="UTF-8" standalone="no"?>
<!DOCTYPE svg PUBLIC "-//W3C//DTD SVG 1.1//EN" "http://www.w3.org/Graphics/SVG/1.1/DTD/svg11.dtd">
<svg xmlns="http://www.w3.org/2000/svg" xmlns:xlink="http://www.w3.org/1999/xlink" version="1.1" width="421.2pt" height="50.4pt" viewBox="0 0 421.2 50.4">
<g enable-background="new">
<g id="Layer-1" data-name="Layer">
<clipPath id="cp0">
<path transform="matrix(1,0,0,-1,0,50.4)" d="M 0 50.4 L 421.2 50.4 L 421.2 0 L 0 0 Z "/>
</clipPath>
<g clip-path="url(#cp0)">
<path transform="matrix(1,0,0,-1,105.7179,33.5489)" d="M 0 0 C -23.735 0 -39.68 4.497 -39.68 8.697 C -39.68 12.896 -23.735 17.394 0 17.394 C 2.69 17.394 191.655 17.294 191.655 17.294 C 218.57 15.94 247.243 12.514 247.319 8.835 C 247.401 4.914 218.689 1.509 191.632 .296 C 189.773 .294 3.467 0 0 0 " fill="#c28453"/>
<path transform="matrix(1,0,0,-1,105.7179,15.654903)" d="M 0 0 C -22.191 0 -40.18 -4.118 -40.18 -9.197 C -40.18 -14.277 -22.191 -18.395 0 -18.395 C 3.507 -18.395 191.655 -18.098 191.655 -18.098 C 191.655 -18.098 247.956 -15.574 247.82 -9.049 C 247.693 -2.917 191.655 -.099 191.655 -.099 C 191.655 -.099 2.69 0 0 0 M 0 -1.001 C 2.656 -1.001 189.262 -1.099 191.596 -1.099 L 191.604 -1.099 C 191.745 -1.106 205.753 -1.82 219.592 -3.271 C 246.449 -6.088 246.816 -8.949 246.819 -9.07 C 246.822 -9.198 246.575 -12.257 219.693 -15.023 C 205.824 -16.451 191.75 -17.091 191.653 -17.096 C 189.772 -17.099 3.466 -17.393 0 -17.393 C -24.274 -17.393 -39.179 -12.62 -39.179 -9.197 C -39.179 -7.741 -36.292 -5.525 -28.188 -3.67 C -20.67 -1.949 -10.659 -1.001 0 -1.001 " fill="#7c532e"/>
<path transform="matrix(1,0,0,-1,75.0318,27.4479)" d="M 0 0 C 0 0 20.175 -3.758 29.33 -4.154 C 38.485 -4.549 212.937 -3.561 227.179 -3.165 C 241.42 -2.769 272.275 0 272.275 1.384 C 272.275 2.769 231.248 -1.385 225.483 -1.583 C 224.956 -1.601 224.427 -1.603 223.899 -1.609 C 222.823 -1.622 221.747 -1.631 220.67 -1.64 C 219.095 -1.653 217.52 -1.664 215.943 -1.675 C 213.918 -1.688 211.892 -1.701 209.865 -1.712 C 207.438 -1.727 205.011 -1.74 202.583 -1.752 C 199.804 -1.767 197.023 -1.781 194.243 -1.794 C 191.16 -1.809 188.076 -1.823 184.993 -1.837 C 181.654 -1.853 178.316 -1.867 174.979 -1.881 C 171.435 -1.896 167.891 -1.911 164.347 -1.925 C 160.646 -1.939 156.946 -1.954 153.245 -1.968 C 149.437 -1.982 145.629 -1.997 141.82 -2.01 C 137.953 -2.024 134.086 -2.038 130.219 -2.05 C 126.341 -2.063 122.464 -2.076 118.587 -2.088 C 114.749 -2.101 110.91 -2.112 107.072 -2.124 C 103.322 -2.135 99.571 -2.145 95.821 -2.155 C 92.208 -2.165 88.595 -2.174 84.981 -2.183 C 81.554 -2.191 78.126 -2.199 74.698 -2.206 C 71.505 -2.212 68.312 -2.218 65.12 -2.223 C 62.211 -2.228 59.302 -2.232 56.393 -2.235 C 53.816 -2.238 51.239 -2.239 48.663 -2.24 C 46.468 -2.241 44.273 -2.24 42.078 -2.238 C 40.313 -2.236 38.549 -2.234 36.785 -2.229 C 34.747 -2.223 32.703 -2.251 30.667 -2.181 C 26.005 -2.019 21.366 -1.139 16.746 -.463 C 12.428 .169 8.024 .921 3.662 .782 C 2.482 .745 1.05 .724 0 0 " fill="#ddb384"/>
</g>
<clipPath id="cp1">
<path transform="matrix(1,0,0,-1,0,50.4)" d="M 65.538 25.548 C 65.538 20.469 83.527 16.35 105.718 16.35 C 109.225 16.35 297.373 16.647 297.373 16.647 C 297.373 16.647 353.673 19.171 353.538 25.696 C 353.411 31.828 297.373 34.646 297.373 34.646 C 297.373 34.646 108.408 34.745 105.718 34.745 C 83.527 34.745 65.538 30.627 65.538 25.548 "/>
</clipPath>
<g clip-path="url(#cp1)">
<path transform="matrix(1,0,0,-1,107.1515,13.677303)" stroke-width=".751" stroke-linecap="round" stroke-linejoin="round" fill="none" stroke="#7c532e" d="M 0 0 C .451 .708 6.826 -13.915 0 -22.943 "/>
<path transform="matrix(1,0,0,-1,112.0802,13.677303)" stroke-width=".751" stroke-linecap="round" stroke-linejoin="round" fill="none" stroke="#7c532e" d="M 0 0 C .451 .708 6.826 -13.915 0 -22.943 "/>
<path transform="matrix(1,0,0,-1,102.2223,13.677303)" stroke-width=".751" stroke-linecap="round" stroke-linejoin="round" fill="none" stroke="#7c532e" d="M 0 0 C .451 .708 6.827 -13.915 0 -22.943 "/>
<path transform="matrix(1,0,0,-1,117.0089,13.677303)" stroke-width=".751" stroke-linecap="round" stroke-linejoin="round" fill="none" stroke="#7c532e" d="M 0 0 C .451 .708 6.826 -13.915 0 -22.943 "/>
<path transform="matrix(1,0,0,-1,121.9376,13.677303)" stroke-width=".751" stroke-linecap="round" stroke-linejoin="round" fill="none" stroke="#7c532e" d="M 0 0 C .451 .708 6.827 -13.915 0 -22.943 "/>
<path transform="matrix(1,0,0,-1,126.8663,13.677303)" stroke-width=".751" stroke-linecap="round" stroke-linejoin="round" fill="none" stroke="#7c532e" d="M 0 0 C .451 .708 6.827 -13.915 0 -22.943 "/>
<path transform="matrix(1,0,0,-1,131.7955,13.677303)" stroke-width=".751" stroke-linecap="round" stroke-linejoin="round" fill="none" stroke="#7c532e" d="M 0 0 C .451 .708 6.826 -13.915 0 -22.943 "/>
<path transform="matrix(1,0,0,-1,136.7242,13.677303)" stroke-width=".751" stroke-linecap="round" stroke-linejoin="round" fill="none" stroke="#7c532e" d="M 0 0 C .451 .708 6.826 -13.915 0 -22.943 "/>
<path transform="matrix(1,0,0,-1,141.6529,13.677303)" stroke-width=".751" stroke-linecap="round" stroke-linejoin="round" fill="none" stroke="#7c532e" d="M 0 0 C .451 .708 6.826 -13.915 0 -22.943 "/>
<path transform="matrix(1,0,0,-1,146.5816,13.677303)" stroke-width=".751" stroke-linecap="round" stroke-linejoin="round" fill="none" stroke="#7c532e" d="M 0 0 C .451 .708 6.827 -13.915 0 -22.943 "/>
<path transform="matrix(1,0,0,-1,151.5108,13.677303)" stroke-width=".751" stroke-linecap="round" stroke-linejoin="round" fill="none" stroke="#7c532e" d="M 0 0 C .451 .708 6.826 -13.915 0 -22.943 "/>
<path transform="matrix(1,0,0,-1,156.4395,13.677303)" stroke-width=".751" stroke-linecap="round" stroke-linejoin="round" fill="none" stroke="#7c532e" d="M 0 0 C .451 .708 6.826 -13.915 0 -22.943 "/>
<path transform="matrix(1,0,0,-1,161.3683,13.677303)" stroke-width=".751" stroke-linecap="round" stroke-linejoin="round" fill="none" stroke="#7c532e" d="M 0 0 C .451 .708 6.826 -13.915 0 -22.943 "/>
<path transform="matrix(1,0,0,-1,166.297,13.677303)" stroke-width=".751" stroke-linecap="round" stroke-linejoin="round" fill="none" stroke="#7c532e" d="M 0 0 C .451 .708 6.826 -13.915 0 -22.943 "/>
<path transform="matrix(1,0,0,-1,97.2936,13.677303)" stroke-width=".751" stroke-linecap="round" stroke-linejoin="round" fill="none" stroke="#7c532e" d="M 0 0 C .451 .708 6.826 -13.915 0 -22.943 "/>
<path transform="matrix(1,0,0,-1,92.3649,14.857002)" stroke-width=".751" stroke-linecap="round" stroke-linejoin="round" fill="none" stroke="#7c532e" d="M 0 0 C .395 .679 6.296 -12.283 0 -20.19 "/>
<path transform="matrix(1,0,0,-1,87.4361,14.857002)" stroke-width=".751" stroke-linecap="round" stroke-linejoin="round" fill="none" stroke="#7c532e" d="M 0 0 C .394 .679 6.296 -12.283 0 -20.19 "/>
<path transform="matrix(1,0,0,-1,82.5069,14.857002)" stroke-width=".751" stroke-linecap="round" stroke-linejoin="round" fill="none" stroke="#7c532e" d="M 0 0 C .395 .679 6.297 -12.283 0 -20.19 "/>
<path transform="matrix(1,0,0,-1,77.5782,14.857002)" stroke-width=".751" stroke-linecap="round" stroke-linejoin="round" fill="none" stroke="#7c532e" d="M 0 0 C .395 .679 6.297 -12.283 0 -20.19 "/>
<path transform="matrix(1,0,0,-1,72.6495,14.857002)" stroke-width=".751" stroke-linecap="round" stroke-linejoin="round" fill="none" stroke="#7c532e" d="M 0 0 C .395 .679 6.297 -12.283 0 -20.19 "/>
<path transform="matrix(1,0,0,-1,67.7208,14.857002)" stroke-width=".751" stroke-linecap="round" stroke-linejoin="round" fill="none" stroke="#7c532e" d="M 0 0 C .394 .679 6.296 -12.283 0 -20.19 "/>
<path transform="matrix(1,0,0,-1,210.6568,13.677303)" stroke-width=".751" stroke-linecap="round" stroke-linejoin="round" fill="none" stroke="#7c532e" d="M 0 0 C .45 .708 6.826 -13.915 0 -22.943 "/>
<path transform="matrix(1,0,0,-1,215.5855,13.677303)" stroke-width=".751" stroke-linecap="round" stroke-linejoin="round" fill="none" stroke="#7c532e" d="M 0 0 C .45 .708 6.826 -13.915 0 -22.943 "/>
<path transform="matrix(1,0,0,-1,205.7281,13.677303)" stroke-width=".751" stroke-linecap="round" stroke-linejoin="round" fill="none" stroke="#7c532e" d="M 0 0 C .45 .708 6.826 -13.915 0 -22.943 "/>
<path transform="matrix(1,0,0,-1,220.5143,13.677303)" stroke-width=".751" stroke-linecap="round" stroke-linejoin="round" fill="none" stroke="#7c532e" d="M 0 0 C .45 .708 6.826 -13.915 0 -22.943 "/>
<path transform="matrix(1,0,0,-1,225.443,13.677303)" stroke-width=".751" stroke-linecap="round" stroke-linejoin="round" fill="none" stroke="#7c532e" d="M 0 0 C .451 .708 6.826 -13.915 0 -22.943 "/>
<path transform="matrix(1,0,0,-1,230.3717,13.677303)" stroke-width=".751" stroke-linecap="round" stroke-linejoin="round" fill="none" stroke="#7c532e" d="M 0 0 C .451 .708 6.826 -13.915 0 -22.943 "/>
<path transform="matrix(1,0,0,-1,235.3004,13.677303)" stroke-width=".751" stroke-linecap="round" stroke-linejoin="round" fill="none" stroke="#7c532e" d="M 0 0 C .451 .708 6.826 -13.915 0 -22.943 "/>
<path transform="matrix(1,0,0,-1,240.2291,13.677303)" stroke-width=".751" stroke-linecap="round" stroke-linejoin="round" fill="none" stroke="#7c532e" d="M 0 0 C .451 .708 6.826 -13.915 0 -22.943 "/>
<path transform="matrix(1,0,0,-1,245.1578,13.677303)" stroke-width=".751" stroke-linecap="round" stroke-linejoin="round" fill="none" stroke="#7c532e" d="M 0 0 C .451 .708 6.827 -13.915 0 -22.943 "/>
<path transform="matrix(1,0,0,-1,250.0875,13.677303)" stroke-width=".751" stroke-linecap="round" stroke-linejoin="round" fill="none" stroke="#7c532e" d="M 0 0 C .45 .708 6.826 -13.915 0 -22.943 "/>
<path transform="matrix(1,0,0,-1,255.0162,13.677303)" stroke-width=".751" stroke-linecap="round" stroke-linejoin="round" fill="none" stroke="#7c532e" d="M 0 0 C .45 .708 6.826 -13.915 0 -22.943 "/>
<path transform="matrix(1,0,0,-1,259.9449,13.677303)" stroke-width=".751" stroke-linecap="round" stroke-linejoin="round" fill="none" stroke="#7c532e" d="M 0 0 C .451 .708 6.826 -13.915 0 -22.943 "/>
<path transform="matrix(1,0,0,-1,264.8736,13.677303)" stroke-width=".751" stroke-linecap="round" stroke-linejoin="round" fill="none" stroke="#7c532e" d="M 0 0 C .45 .708 6.826 -13.915 0 -22.943 "/>
<path transform="matrix(1,0,0,-1,269.8023,13.677303)" stroke-width=".751" stroke-linecap="round" stroke-linejoin="round" fill="none" stroke="#7c532e" d="M 0 0 C .451 .708 6.826 -13.915 0 -22.943 "/>
<path transform="matrix(1,0,0,-1,274.731,13.677303)" stroke-width=".751" stroke-linecap="round" stroke-linejoin="round" fill="none" stroke="#7c532e" d="M 0 0 C .451 .708 6.826 -13.915 0 -22.943 "/>
<path transform="matrix(1,0,0,-1,279.6598,13.677303)" stroke-width=".751" stroke-linecap="round" stroke-linejoin="round" fill="none" stroke="#7c532e" d="M 0 0 C .451 .708 6.826 -13.915 0 -22.943 "/>
<path transform="matrix(1,0,0,-1,284.5885,13.677303)" stroke-width=".751" stroke-linecap="round" stroke-linejoin="round" fill="none" stroke="#7c532e" d="M 0 0 C .451 .708 6.826 -13.915 0 -22.943 "/>
<path transform="matrix(1,0,0,-1,200.7989,13.677303)" stroke-width=".751" stroke-linecap="round" stroke-linejoin="round" fill="none" stroke="#7c532e" d="M 0 0 C .451 .708 6.827 -13.915 0 -22.943 "/>
<path transform="matrix(1,0,0,-1,289.5172,13.677303)" stroke-width=".751" stroke-linecap="round" stroke-linejoin="round" fill="none" stroke="#7c532e" d="M 0 0 C .451 .708 6.827 -13.915 0 -22.943 "/>
<path transform="matrix(1,0,0,-1,294.4469,13.677303)" stroke-width=".751" stroke-linecap="round" stroke-linejoin="round" fill="none" stroke="#7c532e" d="M 0 0 C .45 .708 6.826 -13.915 0 -22.943 "/>
<path transform="matrix(1,0,0,-1,299.3756,13.677303)" stroke-width=".751" stroke-linecap="round" stroke-linejoin="round" fill="none" stroke="#7c532e" d="M 0 0 C .45 .708 6.826 -13.915 0 -22.943 "/>
<path transform="matrix(1,0,0,-1,304.3043,13.677303)" stroke-width=".751" stroke-linecap="round" stroke-linejoin="round" fill="none" stroke="#7c532e" d="M 0 0 C .451 .708 6.826 -13.915 0 -22.943 "/>
<path transform="matrix(1,0,0,-1,309.233,13.677303)" stroke-width=".751" stroke-linecap="round" stroke-linejoin="round" fill="none" stroke="#7c532e" d="M 0 0 C .451 .708 6.826 -13.915 0 -22.943 "/>
<path transform="matrix(1,0,0,-1,314.1617,13.677303)" stroke-width=".751" stroke-linecap="round" stroke-linejoin="round" fill="none" stroke="#7c532e" d="M 0 0 C .451 .708 6.826 -13.915 0 -22.943 "/>
<path transform="matrix(1,0,0,-1,319.0904,13.677303)" stroke-width=".751" stroke-linecap="round" stroke-linejoin="round" fill="none" stroke="#7c532e" d="M 0 0 C .451 .708 6.826 -13.915 0 -22.943 "/>
<path transform="matrix(1,0,0,-1,324.0191,13.677303)" stroke-width=".751" stroke-linecap="round" stroke-linejoin="round" fill="none" stroke="#7c532e" d="M 0 0 C .451 .708 6.826 -13.915 0 -22.943 "/>
<path transform="matrix(1,0,0,-1,328.9478,13.677303)" stroke-width=".751" stroke-linecap="round" stroke-linejoin="round" fill="none" stroke="#7c532e" d="M 0 0 C .451 .708 6.827 -13.915 0 -22.943 "/>
<path transform="matrix(1,0,0,-1,333.8766,13.677303)" stroke-width=".751" stroke-linecap="round" stroke-linejoin="round" fill="none" stroke="#7c532e" d="M 0 0 C .451 .708 6.826 -13.915 0 -22.943 "/>
<path transform="matrix(1,0,0,-1,338.8062,13.677303)" stroke-width=".751" stroke-linecap="round" stroke-linejoin="round" fill="none" stroke="#7c532e" d="M 0 0 C .45 .708 6.826 -13.915 0 -22.943 "/>
<path transform="matrix(1,0,0,-1,343.735,13.677303)" stroke-width=".751" stroke-linecap="round" stroke-linejoin="round" fill="none" stroke="#7c532e" d="M 0 0 C .45 .708 6.826 -13.915 0 -22.943 "/>
<path transform="matrix(1,0,0,-1,348.6637,13.677303)" stroke-width=".751" stroke-linecap="round" stroke-linejoin="round" fill="none" stroke="#7c532e" d="M 0 0 C .451 .708 6.826 -13.915 0 -22.943 "/>
</g>
<clipPath id="cp2">
<path transform="matrix(1,0,0,-1,0,50.4)" d="M 0 50.4 L 421.2 50.4 L 421.2 0 L 0 0 Z "/>
</clipPath>
<g clip-path="url(#cp2)">
<path transform="matrix(1,0,0,-1,105.7179,15.654903)" d="M 0 0 C -22.191 0 -40.18 -4.118 -40.18 -9.197 C -40.18 -14.277 -22.191 -18.395 0 -18.395 C 3.507 -18.395 191.655 -18.098 191.655 -18.098 C 191.655 -18.098 247.956 -15.574 247.82 -9.049 C 247.693 -2.917 191.655 -.099 191.655 -.099 C 191.655 -.099 2.69 0 0 0 M 0 -1.502 C 2.647 -1.502 188.055 -1.599 191.617 -1.601 C 192.403 -1.642 205.221 -2.312 218.257 -3.637 C 241.402 -5.99 245.508 -8.356 246.234 -9.097 C 245.611 -9.774 241.755 -12.326 218.392 -14.652 C 205.286 -15.957 192.362 -16.562 191.62 -16.596 C 188.25 -16.601 3.452 -16.892 0 -16.892 C -25.394 -16.892 -38.678 -11.883 -38.678 -9.197 C -38.678 -6.512 -25.394 -1.502 0 -1.502 " fill="#7c532e"/>
<path transform="matrix(1,0,0,-1,179.0611,35.733)" d="M 0 0 C -2.197 0 -3.867 .022 -4.466 .058 C -5.995 .151 -7.587 1.245 -8.327 1.821 C -3.934 11.241 -7.112 18.221 -8.153 20.086 C -7.482 20.882 -7.033 21.185 -5.788 21.283 C -4.681 21.369 -1.139 21.413 4.739 21.413 C 8.386 21.413 12.069 21.396 14.248 21.386 L 16.087 21.379 L 16.814 21.387 C 17.706 21.387 18.436 21.302 19.036 20.237 C 19.94 18.631 21.094 12.211 20.932 8.573 C 20.757 4.655 19.191 .988 17.514 .565 C 16.109 .212 7.507 0 .001 0 Z " fill="#ddb384"/>
<path transform="matrix(1,0,0,-1,183.8204,13.5685009)" d="M 0 0 C -4.658 0 -9.26 -.028 -10.606 -.133 C -12.313 -.267 -12.873 -.818 -13.827 -2.012 C -13.827 -2.012 -8.677 -9.701 -14.018 -20.548 C -14.018 -20.548 -11.644 -22.711 -9.271 -22.856 C -8.642 -22.894 -6.948 -22.916 -4.755 -22.916 C 1.329 -22.916 11.256 -22.751 12.938 -22.327 C 15.228 -21.75 16.753 -17.423 16.923 -13.625 C 17.092 -9.828 15.905 -3.289 14.931 -1.559 C 14.144 -.162 13.081 -.027 12.053 -.027 C 11.808 -.027 11.565 -.035 11.328 -.035 C 10.415 -.035 5.174 0 0 0 M 0 -1.502 C 3.641 -1.502 7.315 -1.519 9.489 -1.529 C 10.406 -1.534 11.057 -1.537 11.328 -1.537 C 11.453 -1.537 11.58 -1.535 11.708 -1.533 C 11.822 -1.531 11.938 -1.529 12.053 -1.529 C 12.92 -1.529 13.25 -1.635 13.622 -2.296 C 14.387 -3.654 15.588 -9.852 15.422 -13.559 C 15.254 -17.314 13.752 -20.573 12.571 -20.871 C 11.241 -21.206 2.542 -21.414 -4.755 -21.414 C -6.94 -21.414 -8.595 -21.392 -9.18 -21.356 C -10.2 -21.294 -11.349 -20.659 -12.153 -20.102 C -8.296 -11.338 -10.768 -4.656 -12.004 -2.194 C -11.61 -1.811 -11.263 -1.691 -10.488 -1.631 C -9.74 -1.572 -7.313 -1.502 0 -1.502 " fill="#7c532e"/>
<path transform="matrix(1,0,0,-1,172.8668,31.341403)" d="M 0 0 C 0 0 -.366 1.598 .792 1.543 C 1.949 1.488 7.797 1.268 11.513 1.268 C 15.228 1.268 25.096 1.433 25.4 1.212 C 25.705 .992 26.071 -.11 24.792 -.166 C 23.512 -.221 1.401 -.716 0 0 " fill="#e7cca2"/>
</g>
</g>
</g>
</svg>
