<?xml version="1.0" encoding="UTF-8" standalone="no"?>
<!DOCTYPE svg PUBLIC "-//W3C//DTD SVG 1.1//EN" "http://www.w3.org/Graphics/SVG/1.1/DTD/svg11.dtd">
<svg xmlns="http://www.w3.org/2000/svg" xmlns:xlink="http://www.w3.org/1999/xlink" version="1.1" width="421.2pt" height="50.4pt" viewBox="0 0 421.2 50.4">
<g enable-background="new">
<g id="Layer-1" data-name="Layer">
<clipPath id="cp0">
<path transform="matrix(1,0,0,-1,0,50.4)" d="M 0 50.4 L 421.2 50.4 L 421.2 0 L 0 0 Z "/>
</clipPath>
<g clip-path="url(#cp0)">
<path transform="matrix(1,0,0,-1,119.6954,31.827502)" d="M 0 0 C -20.881 0 -34.907 3.438 -34.907 6.648 C -34.907 9.858 -20.881 13.296 0 13.296 C 2.354 13.296 167.698 13.222 167.698 13.222 C 187.303 12.376 216.514 9.956 216.592 6.753 C 216.674 3.344 187.391 .979 167.688 .223 C 166.051 .221 3.034 0 0 0 " fill="#c28453"/>
<path transform="matrix(1,0,0,-1,119.6954,18.2816)" d="M 0 0 C -19.417 0 -35.157 -3.088 -35.157 -6.898 C -35.157 -10.708 -19.417 -13.796 0 -13.796 C 3.069 -13.796 167.698 -13.573 167.698 -13.573 C 167.698 -13.573 216.96 -11.681 216.842 -6.787 C 216.731 -2.188 167.698 -.074 167.698 -.074 C 167.698 -.074 2.354 0 0 0 M 0 -.5 C 2.327 -.5 166.044 -.574 167.676 -.574 C 167.798 -.58 180.063 -1.115 192.183 -2.205 C 215.122 -4.267 216.333 -6.393 216.342 -6.799 C 216.352 -7.231 215.241 -9.49 192.274 -11.516 C 180.125 -12.588 167.801 -13.068 167.697 -13.073 C 166.051 -13.075 3.034 -13.295 0 -13.295 C -20.424 -13.295 -34.657 -9.924 -34.657 -6.898 C -34.657 -3.872 -20.424 -.5 0 -.5 " fill="#7c532e"/>
<path transform="matrix(1,0,0,-1,92.8453,27.1263)" d="M 0 0 C 0 0 17.653 -2.819 25.664 -3.115 C 33.674 -3.412 186.32 -2.67 198.781 -2.374 C 211.242 -2.077 238.241 0 238.241 1.038 C 238.241 2.077 202.342 -1.039 197.298 -1.187 C 196.836 -1.201 196.374 -1.202 195.912 -1.207 C 194.97 -1.217 194.028 -1.224 193.087 -1.23 C 191.708 -1.24 190.329 -1.248 188.95 -1.256 C 187.178 -1.266 185.405 -1.275 183.632 -1.284 C 181.508 -1.295 179.384 -1.305 177.26 -1.314 C 174.828 -1.325 172.395 -1.335 169.963 -1.346 C 167.265 -1.357 164.566 -1.368 161.868 -1.378 C 158.948 -1.389 156.027 -1.4 153.106 -1.411 C 150.005 -1.422 146.904 -1.433 143.804 -1.444 C 140.565 -1.455 137.327 -1.465 134.09 -1.476 C 130.757 -1.487 127.425 -1.498 124.093 -1.508 C 120.709 -1.518 117.325 -1.528 113.94 -1.538 C 110.548 -1.548 107.156 -1.557 103.763 -1.566 C 100.405 -1.576 97.046 -1.584 93.688 -1.593 C 90.406 -1.601 87.125 -1.609 83.843 -1.617 C 80.682 -1.624 77.52 -1.631 74.358 -1.637 C 71.359 -1.643 68.36 -1.649 65.361 -1.654 C 62.567 -1.659 59.773 -1.664 56.98 -1.667 C 54.434 -1.671 51.889 -1.674 49.343 -1.676 C 47.089 -1.678 44.834 -1.68 42.58 -1.68 C 40.659 -1.681 38.739 -1.68 36.818 -1.679 C 35.274 -1.677 33.73 -1.675 32.187 -1.671 C 30.403 -1.667 28.615 -1.688 26.833 -1.635 C 22.755 -1.514 18.695 -.854 14.652 -.347 C 10.874 .127 7.021 .691 3.204 .587 C 2.171 .559 .918 .542 0 0 " fill="#ddb384"/>
</g>
<clipPath id="cp1">
<path transform="matrix(1,0,0,-1,0,50.4)" d="M 84.538 25.221 C 84.538 21.411 100.278 18.322 119.695 18.322 C 122.764 18.322 287.393 18.545 287.393 18.545 C 287.393 18.545 336.656 20.438 336.538 25.331 C 336.426 29.93 287.393 32.044 287.393 32.044 C 287.393 32.044 122.049 32.118 119.695 32.118 C 100.278 32.118 84.538 29.03 84.538 25.221 "/>
</clipPath>
<g clip-path="url(#cp1)">
<path transform="matrix(1,0,0,-1,120.9498,16.798203)" stroke-width=".376" stroke-linecap="round" stroke-linejoin="round" fill="none" stroke="#7c532e" d="M 0 0 C .335 .589 5.421 -10.476 0 -17.208 "/>
<path transform="matrix(1,0,0,-1,125.2623,16.798203)" stroke-width=".376" stroke-linecap="round" stroke-linejoin="round" fill="none" stroke="#7c532e" d="M 0 0 C .336 .589 5.421 -10.476 0 -17.208 "/>
<path transform="matrix(1,0,0,-1,116.6368,16.798203)" stroke-width=".376" stroke-linecap="round" stroke-linejoin="round" fill="none" stroke="#7c532e" d="M 0 0 C .336 .589 5.421 -10.476 0 -17.208 "/>
<path transform="matrix(1,0,0,-1,129.5753,16.798203)" stroke-width=".376" stroke-linecap="round" stroke-linejoin="round" fill="none" stroke="#7c532e" d="M 0 0 C .335 .589 5.421 -10.476 0 -17.208 "/>
<path transform="matrix(1,0,0,-1,133.8878,16.798203)" stroke-width=".376" stroke-linecap="round" stroke-linejoin="round" fill="none" stroke="#7c532e" d="M 0 0 C .335 .589 5.421 -10.476 0 -17.208 "/>
<path transform="matrix(1,0,0,-1,138.2008,16.798203)" stroke-width=".376" stroke-linecap="round" stroke-linejoin="round" fill="none" stroke="#7c532e" d="M 0 0 C .335 .589 5.421 -10.476 0 -17.208 "/>
<path transform="matrix(1,0,0,-1,142.5133,16.798203)" stroke-width=".376" stroke-linecap="round" stroke-linejoin="round" fill="none" stroke="#7c532e" d="M 0 0 C .335 .589 5.421 -10.476 0 -17.208 "/>
<path transform="matrix(1,0,0,-1,146.8258,16.798203)" stroke-width=".376" stroke-linecap="round" stroke-linejoin="round" fill="none" stroke="#7c532e" d="M 0 0 C .336 .589 5.422 -10.476 0 -17.208 "/>
<path transform="matrix(1,0,0,-1,151.1388,16.798203)" stroke-width=".376" stroke-linecap="round" stroke-linejoin="round" fill="none" stroke="#7c532e" d="M 0 0 C .335 .589 5.421 -10.476 0 -17.208 "/>
<path transform="matrix(1,0,0,-1,155.4513,16.798203)" stroke-width=".376" stroke-linecap="round" stroke-linejoin="round" fill="none" stroke="#7c532e" d="M 0 0 C .336 .589 5.421 -10.476 0 -17.208 "/>
<path transform="matrix(1,0,0,-1,159.7643,16.798203)" stroke-width=".376" stroke-linecap="round" stroke-linejoin="round" fill="none" stroke="#7c532e" d="M 0 0 C .335 .589 5.421 -10.476 0 -17.208 "/>
<path transform="matrix(1,0,0,-1,164.0768,16.798203)" stroke-width=".376" stroke-linecap="round" stroke-linejoin="round" fill="none" stroke="#7c532e" d="M 0 0 C .336 .589 5.421 -10.476 0 -17.208 "/>
<path transform="matrix(1,0,0,-1,168.3897,16.798203)" stroke-width=".376" stroke-linecap="round" stroke-linejoin="round" fill="none" stroke="#7c532e" d="M 0 0 C .336 .589 5.421 -10.476 0 -17.208 "/>
<path transform="matrix(1,0,0,-1,172.7022,16.798203)" stroke-width=".376" stroke-linecap="round" stroke-linejoin="round" fill="none" stroke="#7c532e" d="M 0 0 C .335 .589 5.422 -10.476 0 -17.208 "/>
<path transform="matrix(1,0,0,-1,112.3243,16.798203)" stroke-width=".376" stroke-linecap="round" stroke-linejoin="round" fill="none" stroke="#7c532e" d="M 0 0 C .335 .589 5.421 -10.476 0 -17.208 "/>
<path transform="matrix(1,0,0,-1,108.0113,17.682904)" stroke-width=".376" stroke-linecap="round" stroke-linejoin="round" fill="none" stroke="#7c532e" d="M 0 0 C .293 .568 5.024 -9.252 0 -15.143 "/>
<path transform="matrix(1,0,0,-1,103.6988,17.682904)" stroke-width=".376" stroke-linecap="round" stroke-linejoin="round" fill="none" stroke="#7c532e" d="M 0 0 C .293 .568 5.024 -9.252 0 -15.143 "/>
<path transform="matrix(1,0,0,-1,99.3863,17.682904)" stroke-width=".376" stroke-linecap="round" stroke-linejoin="round" fill="none" stroke="#7c532e" d="M 0 0 C .293 .568 5.024 -9.252 0 -15.143 "/>
<path transform="matrix(1,0,0,-1,95.0733,17.682904)" stroke-width=".376" stroke-linecap="round" stroke-linejoin="round" fill="none" stroke="#7c532e" d="M 0 0 C .293 .568 5.024 -9.252 0 -15.143 "/>
<path transform="matrix(1,0,0,-1,90.7608,17.682904)" stroke-width=".376" stroke-linecap="round" stroke-linejoin="round" fill="none" stroke="#7c532e" d="M 0 0 C .293 .568 5.024 -9.252 0 -15.143 "/>
<path transform="matrix(1,0,0,-1,86.4479,17.682904)" stroke-width=".376" stroke-linecap="round" stroke-linejoin="round" fill="none" stroke="#7c532e" d="M 0 0 C .293 .568 5.024 -9.252 0 -15.143 "/>
<path transform="matrix(1,0,0,-1,211.5172,16.798203)" stroke-width=".376" stroke-linecap="round" stroke-linejoin="round" fill="none" stroke="#7c532e" d="M 0 0 C .335 .589 5.421 -10.476 0 -17.208 "/>
<path transform="matrix(1,0,0,-1,215.8297,16.798203)" stroke-width=".376" stroke-linecap="round" stroke-linejoin="round" fill="none" stroke="#7c532e" d="M 0 0 C .336 .589 5.421 -10.476 0 -17.208 "/>
<path transform="matrix(1,0,0,-1,207.2037,16.798203)" stroke-width=".376" stroke-linecap="round" stroke-linejoin="round" fill="none" stroke="#7c532e" d="M 0 0 C .336 .589 5.422 -10.476 0 -17.208 "/>
<path transform="matrix(1,0,0,-1,220.1422,16.798203)" stroke-width=".376" stroke-linecap="round" stroke-linejoin="round" fill="none" stroke="#7c532e" d="M 0 0 C .336 .589 5.422 -10.476 0 -17.208 "/>
<path transform="matrix(1,0,0,-1,224.4547,16.798203)" stroke-width=".376" stroke-linecap="round" stroke-linejoin="round" fill="none" stroke="#7c532e" d="M 0 0 C .336 .589 5.421 -10.476 0 -17.208 "/>
<path transform="matrix(1,0,0,-1,228.7672,16.798203)" stroke-width=".376" stroke-linecap="round" stroke-linejoin="round" fill="none" stroke="#7c532e" d="M 0 0 C .336 .589 5.422 -10.476 0 -17.208 "/>
<path transform="matrix(1,0,0,-1,233.0807,16.798203)" stroke-width=".376" stroke-linecap="round" stroke-linejoin="round" fill="none" stroke="#7c532e" d="M 0 0 C .335 .589 5.421 -10.476 0 -17.208 "/>
<path transform="matrix(1,0,0,-1,237.3932,16.798203)" stroke-width=".376" stroke-linecap="round" stroke-linejoin="round" fill="none" stroke="#7c532e" d="M 0 0 C .336 .589 5.422 -10.476 0 -17.208 "/>
<path transform="matrix(1,0,0,-1,241.7057,16.798203)" stroke-width=".376" stroke-linecap="round" stroke-linejoin="round" fill="none" stroke="#7c532e" d="M 0 0 C .336 .589 5.422 -10.476 0 -17.208 "/>
<path transform="matrix(1,0,0,-1,246.0182,16.798203)" stroke-width=".376" stroke-linecap="round" stroke-linejoin="round" fill="none" stroke="#7c532e" d="M 0 0 C .336 .589 5.422 -10.476 0 -17.208 "/>
<path transform="matrix(1,0,0,-1,250.3316,16.798203)" stroke-width=".376" stroke-linecap="round" stroke-linejoin="round" fill="none" stroke="#7c532e" d="M 0 0 C .335 .589 5.421 -10.476 0 -17.208 "/>
<path transform="matrix(1,0,0,-1,254.6441,16.798203)" stroke-width=".376" stroke-linecap="round" stroke-linejoin="round" fill="none" stroke="#7c532e" d="M 0 0 C .336 .589 5.421 -10.476 0 -17.208 "/>
<path transform="matrix(1,0,0,-1,258.9566,16.798203)" stroke-width=".376" stroke-linecap="round" stroke-linejoin="round" fill="none" stroke="#7c532e" d="M 0 0 C .336 .589 5.422 -10.476 0 -17.208 "/>
<path transform="matrix(1,0,0,-1,263.2691,16.798203)" stroke-width=".376" stroke-linecap="round" stroke-linejoin="round" fill="none" stroke="#7c532e" d="M 0 0 C .336 .589 5.422 -10.476 0 -17.208 "/>
<path transform="matrix(1,0,0,-1,267.5816,16.798203)" stroke-width=".376" stroke-linecap="round" stroke-linejoin="round" fill="none" stroke="#7c532e" d="M 0 0 C .336 .589 5.422 -10.476 0 -17.208 "/>
<path transform="matrix(1,0,0,-1,271.8951,16.798203)" stroke-width=".376" stroke-linecap="round" stroke-linejoin="round" fill="none" stroke="#7c532e" d="M 0 0 C .336 .589 5.421 -10.476 0 -17.208 "/>
<path transform="matrix(1,0,0,-1,276.2076,16.798203)" stroke-width=".376" stroke-linecap="round" stroke-linejoin="round" fill="none" stroke="#7c532e" d="M 0 0 C .336 .589 5.421 -10.476 0 -17.208 "/>
<path transform="matrix(1,0,0,-1,202.8912,16.798203)" stroke-width=".376" stroke-linecap="round" stroke-linejoin="round" fill="none" stroke="#7c532e" d="M 0 0 C .336 .589 5.421 -10.476 0 -17.208 "/>
<path transform="matrix(1,0,0,-1,280.5201,16.798203)" stroke-width=".376" stroke-linecap="round" stroke-linejoin="round" fill="none" stroke="#7c532e" d="M 0 0 C .336 .589 5.422 -10.476 0 -17.208 "/>
<path transform="matrix(1,0,0,-1,284.8326,16.798203)" stroke-width=".376" stroke-linecap="round" stroke-linejoin="round" fill="none" stroke="#7c532e" d="M 0 0 C .336 .589 5.422 -10.476 0 -17.208 "/>
<path transform="matrix(1,0,0,-1,289.1461,16.798203)" stroke-width=".376" stroke-linecap="round" stroke-linejoin="round" fill="none" stroke="#7c532e" d="M 0 0 C .336 .589 5.421 -10.476 0 -17.208 "/>
<path transform="matrix(1,0,0,-1,293.4586,16.798203)" stroke-width=".376" stroke-linecap="round" stroke-linejoin="round" fill="none" stroke="#7c532e" d="M 0 0 C .336 .589 5.421 -10.476 0 -17.208 "/>
<path transform="matrix(1,0,0,-1,297.7711,16.798203)" stroke-width=".376" stroke-linecap="round" stroke-linejoin="round" fill="none" stroke="#7c532e" d="M 0 0 C .336 .589 5.421 -10.476 0 -17.208 "/>
<path transform="matrix(1,0,0,-1,302.0836,16.798203)" stroke-width=".376" stroke-linecap="round" stroke-linejoin="round" fill="none" stroke="#7c532e" d="M 0 0 C .336 .589 5.422 -10.476 0 -17.208 "/>
<path transform="matrix(1,0,0,-1,306.3971,16.798203)" stroke-width=".376" stroke-linecap="round" stroke-linejoin="round" fill="none" stroke="#7c532e" d="M 0 0 C .336 .589 5.421 -10.476 0 -17.208 "/>
<path transform="matrix(1,0,0,-1,310.7096,16.798203)" stroke-width=".376" stroke-linecap="round" stroke-linejoin="round" fill="none" stroke="#7c532e" d="M 0 0 C .335 .589 5.421 -10.476 0 -17.208 "/>
<path transform="matrix(1,0,0,-1,315.0221,16.798203)" stroke-width=".376" stroke-linecap="round" stroke-linejoin="round" fill="none" stroke="#7c532e" d="M 0 0 C .336 .589 5.422 -10.476 0 -17.208 "/>
<path transform="matrix(1,0,0,-1,319.3346,16.798203)" stroke-width=".376" stroke-linecap="round" stroke-linejoin="round" fill="none" stroke="#7c532e" d="M 0 0 C .336 .589 5.422 -10.476 0 -17.208 "/>
<path transform="matrix(1,0,0,-1,323.6471,16.798203)" stroke-width=".376" stroke-linecap="round" stroke-linejoin="round" fill="none" stroke="#7c532e" d="M 0 0 C .336 .589 5.422 -10.476 0 -17.208 "/>
<path transform="matrix(1,0,0,-1,327.9605,16.798203)" stroke-width=".376" stroke-linecap="round" stroke-linejoin="round" fill="none" stroke="#7c532e" d="M 0 0 C .335 .589 5.421 -10.476 0 -17.208 "/>
<path transform="matrix(1,0,0,-1,332.273,16.798203)" stroke-width=".376" stroke-linecap="round" stroke-linejoin="round" fill="none" stroke="#7c532e" d="M 0 0 C .336 .589 5.421 -10.476 0 -17.208 "/>
</g>
<clipPath id="cp2">
<path transform="matrix(1,0,0,-1,0,50.4)" d="M 0 50.4 L 421.2 50.4 L 421.2 0 L 0 0 Z "/>
</clipPath>
<g clip-path="url(#cp2)">
<path transform="matrix(1,0,0,-1,119.6954,18.2816)" d="M 0 0 C -19.417 0 -35.157 -3.088 -35.157 -6.898 C -35.157 -10.708 -19.417 -13.796 0 -13.796 C 3.069 -13.796 167.698 -13.573 167.698 -13.573 C 167.698 -13.573 216.96 -11.681 216.842 -6.787 C 216.731 -2.188 167.698 -.074 167.698 -.074 C 167.698 -.074 2.354 0 0 0 M 0 -.751 C 2.327 -.751 166.044 -.824 167.666 -.824 C 167.785 -.83 179.681 -1.349 191.612 -2.405 C 214.156 -4.4 215.961 -6.437 216.092 -6.801 C 216.047 -7.049 214.992 -9.284 191.883 -11.299 C 179.864 -12.348 167.79 -12.818 167.697 -12.822 C 166.05 -12.825 3.033 -13.045 0 -13.045 C -21.317 -13.045 -34.406 -9.465 -34.406 -6.898 C -34.406 -4.331 -21.317 -.751 0 -.751 " fill="#7c532e"/>
<path transform="matrix(1,0,0,-1,183.878,33.527704)" d="M 0 0 C -1.934 0 -3.404 .017 -3.935 .044 C -5.459 .123 -7.014 1.092 -7.617 1.508 C -3.687 8.637 -6.655 14.028 -7.46 15.265 C -6.812 15.939 -6.366 16.251 -5.098 16.336 C -4.119 16.402 -1.006 16.436 4.157 16.436 C 7.345 16.436 10.562 16.423 12.465 16.415 L 14.069 16.409 L 14.705 16.415 C 15.526 16.415 16.313 16.341 16.908 15.437 C 17.709 14.215 18.733 9.357 18.59 6.611 C 18.451 3.941 17.191 .819 15.399 .433 C 14.018 .134 5.563 0 .001 0 Z " fill="#ddb384"/>
<path transform="matrix(1,0,0,-1,188.0343,16.716603)" d="M 0 0 C -4.075 0 -8.102 -.021 -9.279 -.1 C -10.773 -.2 -11.263 -.613 -12.098 -1.509 C -12.098 -1.509 -7.592 -7.276 -12.265 -15.412 C -12.265 -15.412 -10.188 -17.034 -8.111 -17.142 C -7.561 -17.171 -6.078 -17.187 -4.16 -17.187 C 1.164 -17.187 9.85 -17.063 11.322 -16.746 C 13.325 -16.313 14.66 -13.068 14.808 -10.219 C 14.957 -7.371 13.918 -2.467 13.065 -1.169 C 12.376 -.121 11.446 -.02 10.548 -.02 C 10.333 -.02 10.12 -.026 9.913 -.026 C 9.114 -.026 4.528 0 0 0 M 0 -.751 C 3.188 -.751 6.404 -.764 8.307 -.771 C 9.107 -.774 9.676 -.777 9.913 -.777 L 10.235 -.774 L 10.548 -.771 C 11.448 -.771 11.987 -.896 12.438 -1.581 C 13.142 -2.652 14.208 -7.306 14.058 -10.18 C 13.91 -13.034 12.584 -15.705 11.164 -16.012 C 9.934 -16.277 2.407 -16.436 -4.16 -16.436 C -6.084 -16.436 -7.547 -16.419 -8.072 -16.392 C -9.307 -16.328 -10.586 -15.625 -11.279 -15.181 C -7.667 -8.358 -10.122 -3.232 -11.134 -1.594 C -10.629 -1.109 -10.223 -.916 -9.229 -.849 C -8.259 -.784 -5.154 -.751 0 -.751 " fill="#7c532e"/>
<path transform="matrix(1,0,0,-1,178.4508,30.046702)" d="M 0 0 C 0 0 -.32 1.199 .693 1.158 C 1.706 1.116 6.822 .951 10.073 .951 C 13.325 .951 21.959 1.075 22.226 .91 C 22.492 .744 22.812 -.083 21.692 -.124 C 20.573 -.165 1.226 -.537 0 0 " fill="#e7cca2"/>
</g>
</g>
</g>
</svg>
