<?xml version="1.0" encoding="UTF-8" standalone="no"?>
<!DOCTYPE svg PUBLIC "-//W3C//DTD SVG 1.1//EN" "http://www.w3.org/Graphics/SVG/1.1/DTD/svg11.dtd">
<svg xmlns="http://www.w3.org/2000/svg" xmlns:xlink="http://www.w3.org/1999/xlink" version="1.1" width="396pt" height="34.6667pt" viewBox="0 0 396 34.6667">
<g enable-background="new">
<g id="Layer-1" data-name="Layer 1">
<clipPath id="cp0">
<path transform="matrix(1,0,0,-1,0,34.6667)" d="M 0 34.667 L 396 34.667 L 396 0 L 0 0 Z "/>
</clipPath>
<g clip-path="url(#cp0)">
<path transform="matrix(1,0,0,-1,63.2026,25.694499)" d="M 0 0 C -26.836 0 -44.863 4.41 -44.863 8.529 C -44.863 12.648 -26.836 17.058 0 17.058 C 3.026 17.058 215.611 16.962 215.611 16.962 C 240.81 15.876 278.358 12.769 278.458 8.664 C 278.564 4.292 240.923 1.259 215.598 .286 C 213.494 .283 3.9 0 0 0 " fill="#c28453"/>
<path transform="matrix(1,0,0,-1,63.2026,8.296598)" d="M 0 0 C -24.965 0 -45.203 -3.971 -45.203 -8.869 C -45.203 -13.767 -24.965 -17.738 0 -17.738 C 3.946 -17.738 215.611 -17.452 215.611 -17.452 C 215.611 -17.452 278.95 -15.019 278.797 -8.726 C 278.654 -2.813 215.611 -.096 215.611 -.096 C 215.611 -.096 3.026 0 0 0 M 0 -.68 C 2.992 -.68 213.485 -.774 215.583 -.774 C 215.74 -.781 231.511 -1.47 247.093 -2.871 C 276.551 -5.519 278.105 -8.227 278.118 -8.742 C 278.131 -9.292 276.704 -12.169 247.206 -14.771 C 231.587 -16.149 215.744 -16.767 215.61 -16.772 C 213.494 -16.775 3.9 -17.059 0 -17.059 C -26.238 -17.059 -44.523 -12.743 -44.523 -8.869 C -44.523 -4.996 -26.238 -.68 0 -.68 " fill="#7c532e"/>
<path transform="matrix(1,0,0,-1,28.6807,19.669098)" d="M 0 0 C 0 0 22.697 -3.624 32.996 -4.005 C 43.295 -4.387 239.555 -3.433 255.576 -3.051 C 271.598 -2.67 306.31 0 306.31 1.335 C 306.31 2.67 260.153 -1.335 253.669 -1.525 C 253.075 -1.543 252.48 -1.545 251.887 -1.551 C 250.676 -1.564 249.465 -1.573 248.254 -1.581 C 246.481 -1.594 244.709 -1.604 242.937 -1.615 C 240.657 -1.627 238.378 -1.64 236.099 -1.651 C 233.368 -1.665 230.637 -1.677 227.906 -1.689 C 224.778 -1.704 221.651 -1.717 218.523 -1.73 C 215.055 -1.744 211.586 -1.758 208.117 -1.771 C 204.361 -1.786 200.606 -1.8 196.851 -1.813 C 192.864 -1.828 188.877 -1.842 184.89 -1.855 C 180.727 -1.87 176.564 -1.884 172.401 -1.897 C 168.117 -1.911 163.832 -1.925 159.547 -1.938 C 155.197 -1.951 150.846 -1.964 146.496 -1.977 C 142.134 -1.99 137.772 -2.002 133.41 -2.014 C 129.092 -2.025 124.774 -2.037 120.456 -2.047 C 116.237 -2.058 112.018 -2.068 107.799 -2.078 C 103.734 -2.087 99.669 -2.096 95.604 -2.104 C 91.748 -2.112 87.892 -2.12 84.036 -2.126 C 80.444 -2.133 76.852 -2.139 73.26 -2.144 C 69.987 -2.148 66.714 -2.152 63.441 -2.155 C 60.543 -2.157 57.645 -2.159 54.746 -2.16 C 52.276 -2.16 49.807 -2.16 47.338 -2.158 C 45.353 -2.156 43.368 -2.154 41.383 -2.149 C 39.09 -2.143 36.791 -2.17 34.5 -2.102 C 29.256 -1.947 24.037 -1.098 18.839 -.446 C 13.981 .164 9.028 .889 4.119 .755 C 2.792 .719 1.181 .698 0 0 " fill="#ddb384"/>
</g>
<clipPath id="cp1">
<path transform="matrix(1,0,0,-1,0,34.6667)" d="M 18 17.501 C 18 12.603 38.237 8.632 63.202 8.632 C 67.148 8.632 278.814 8.918 278.814 8.918 C 278.814 8.918 342.152 11.352 342 17.644 C 341.856 23.557 278.814 26.275 278.814 26.275 C 278.814 26.275 66.229 26.37 63.202 26.37 C 38.237 26.37 18 22.399 18 17.501 "/>
</clipPath>
<g clip-path="url(#cp1)">
<path transform="matrix(1,0,0,-1,64.8149,6.3893988)" stroke-width=".51" stroke-linecap="round" stroke-linejoin="round" fill="none" stroke="#7c532e" d="M 0 0 C .432 .758 6.971 -13.47 0 -22.125 "/>
<path transform="matrix(1,0,0,-1,70.3599,6.3893988)" stroke-width=".51" stroke-linecap="round" stroke-linejoin="round" fill="none" stroke="#7c532e" d="M 0 0 C .432 .758 6.97 -13.47 0 -22.125 "/>
<path transform="matrix(1,0,0,-1,59.27,6.3893988)" stroke-width=".51" stroke-linecap="round" stroke-linejoin="round" fill="none" stroke="#7c532e" d="M 0 0 C .432 .758 6.97 -13.47 0 -22.125 "/>
<path transform="matrix(1,0,0,-1,75.9048,6.3893988)" stroke-width=".51" stroke-linecap="round" stroke-linejoin="round" fill="none" stroke="#7c532e" d="M 0 0 C .432 .758 6.971 -13.47 0 -22.125 "/>
<path transform="matrix(1,0,0,-1,81.4497,6.3893988)" stroke-width=".51" stroke-linecap="round" stroke-linejoin="round" fill="none" stroke="#7c532e" d="M 0 0 C .432 .758 6.97 -13.47 0 -22.125 "/>
<path transform="matrix(1,0,0,-1,86.9946,6.3893988)" stroke-width=".51" stroke-linecap="round" stroke-linejoin="round" fill="none" stroke="#7c532e" d="M 0 0 C .432 .758 6.97 -13.47 0 -22.125 "/>
<path transform="matrix(1,0,0,-1,92.5396,6.3893988)" stroke-width=".51" stroke-linecap="round" stroke-linejoin="round" fill="none" stroke="#7c532e" d="M 0 0 C .432 .758 6.97 -13.47 0 -22.125 "/>
<path transform="matrix(1,0,0,-1,98.0845,6.3893988)" stroke-width=".51" stroke-linecap="round" stroke-linejoin="round" fill="none" stroke="#7c532e" d="M 0 0 C .432 .758 6.97 -13.47 0 -22.125 "/>
<path transform="matrix(1,0,0,-1,103.6294,6.3893988)" stroke-width=".51" stroke-linecap="round" stroke-linejoin="round" fill="none" stroke="#7c532e" d="M 0 0 C .432 .758 6.97 -13.47 0 -22.125 "/>
<path transform="matrix(1,0,0,-1,109.1743,6.3893988)" stroke-width=".51" stroke-linecap="round" stroke-linejoin="round" fill="none" stroke="#7c532e" d="M 0 0 C .432 .758 6.971 -13.47 0 -22.125 "/>
<path transform="matrix(1,0,0,-1,114.7192,6.3893988)" stroke-width=".51" stroke-linecap="round" stroke-linejoin="round" fill="none" stroke="#7c532e" d="M 0 0 C .432 .758 6.971 -13.47 0 -22.125 "/>
<path transform="matrix(1,0,0,-1,120.2642,6.3893988)" stroke-width=".51" stroke-linecap="round" stroke-linejoin="round" fill="none" stroke="#7c532e" d="M 0 0 C .432 .758 6.971 -13.47 0 -22.125 "/>
<path transform="matrix(1,0,0,-1,125.8091,6.3893988)" stroke-width=".51" stroke-linecap="round" stroke-linejoin="round" fill="none" stroke="#7c532e" d="M 0 0 C .432 .758 6.97 -13.47 0 -22.125 "/>
<path transform="matrix(1,0,0,-1,131.354,6.3893988)" stroke-width=".51" stroke-linecap="round" stroke-linejoin="round" fill="none" stroke="#7c532e" d="M 0 0 C .432 .758 6.97 -13.47 0 -22.125 "/>
<path transform="matrix(1,0,0,-1,53.7251,6.3893988)" stroke-width=".51" stroke-linecap="round" stroke-linejoin="round" fill="none" stroke="#7c532e" d="M 0 0 C .432 .758 6.97 -13.47 0 -22.125 "/>
<path transform="matrix(1,0,0,-1,48.1802,7.5274984)" stroke-width=".51" stroke-linecap="round" stroke-linejoin="round" fill="none" stroke="#7c532e" d="M 0 0 C .377 .73 6.459 -11.896 0 -19.469 "/>
<path transform="matrix(1,0,0,-1,42.6353,7.5274984)" stroke-width=".51" stroke-linecap="round" stroke-linejoin="round" fill="none" stroke="#7c532e" d="M 0 0 C .377 .73 6.459 -11.896 0 -19.469 "/>
<path transform="matrix(1,0,0,-1,37.0903,7.5274984)" stroke-width=".51" stroke-linecap="round" stroke-linejoin="round" fill="none" stroke="#7c532e" d="M 0 0 C .377 .73 6.459 -11.896 0 -19.469 "/>
<path transform="matrix(1,0,0,-1,31.5454,7.5274984)" stroke-width=".51" stroke-linecap="round" stroke-linejoin="round" fill="none" stroke="#7c532e" d="M 0 0 C .377 .73 6.459 -11.896 0 -19.469 "/>
<path transform="matrix(1,0,0,-1,26.0005,7.5274984)" stroke-width=".51" stroke-linecap="round" stroke-linejoin="round" fill="none" stroke="#7c532e" d="M 0 0 C .377 .73 6.459 -11.896 0 -19.469 "/>
<path transform="matrix(1,0,0,-1,20.4556,7.5274984)" stroke-width=".51" stroke-linecap="round" stroke-linejoin="round" fill="none" stroke="#7c532e" d="M 0 0 C .377 .73 6.459 -11.896 0 -19.469 "/>
<path transform="matrix(1,0,0,-1,181.2583,6.3893988)" stroke-width=".51" stroke-linecap="round" stroke-linejoin="round" fill="none" stroke="#7c532e" d="M 0 0 C .432 .758 6.97 -13.47 0 -22.125 "/>
<path transform="matrix(1,0,0,-1,186.8032,6.3893988)" stroke-width=".51" stroke-linecap="round" stroke-linejoin="round" fill="none" stroke="#7c532e" d="M 0 0 C .432 .758 6.971 -13.47 0 -22.125 "/>
<path transform="matrix(1,0,0,-1,175.7134,6.3893988)" stroke-width=".51" stroke-linecap="round" stroke-linejoin="round" fill="none" stroke="#7c532e" d="M 0 0 C .432 .758 6.971 -13.47 0 -22.125 "/>
<path transform="matrix(1,0,0,-1,192.3481,6.3893988)" stroke-width=".51" stroke-linecap="round" stroke-linejoin="round" fill="none" stroke="#7c532e" d="M 0 0 C .432 .758 6.97 -13.47 0 -22.125 "/>
<path transform="matrix(1,0,0,-1,197.8931,6.3893988)" stroke-width=".51" stroke-linecap="round" stroke-linejoin="round" fill="none" stroke="#7c532e" d="M 0 0 C .432 .758 6.971 -13.47 0 -22.125 "/>
<path transform="matrix(1,0,0,-1,203.438,6.3893988)" stroke-width=".51" stroke-linecap="round" stroke-linejoin="round" fill="none" stroke="#7c532e" d="M 0 0 C .432 .758 6.97 -13.47 0 -22.125 "/>
<path transform="matrix(1,0,0,-1,208.9829,6.3893988)" stroke-width=".51" stroke-linecap="round" stroke-linejoin="round" fill="none" stroke="#7c532e" d="M 0 0 C .432 .758 6.971 -13.47 0 -22.125 "/>
<path transform="matrix(1,0,0,-1,214.5278,6.3893988)" stroke-width=".51" stroke-linecap="round" stroke-linejoin="round" fill="none" stroke="#7c532e" d="M 0 0 C .432 .758 6.97 -13.47 0 -22.125 "/>
<path transform="matrix(1,0,0,-1,220.0732,6.3893988)" stroke-width=".51" stroke-linecap="round" stroke-linejoin="round" fill="none" stroke="#7c532e" d="M 0 0 C .432 .758 6.97 -13.47 0 -22.125 "/>
<path transform="matrix(1,0,0,-1,225.6182,6.3893988)" stroke-width=".51" stroke-linecap="round" stroke-linejoin="round" fill="none" stroke="#7c532e" d="M 0 0 C .432 .758 6.97 -13.47 0 -22.125 "/>
<path transform="matrix(1,0,0,-1,231.1631,6.3893988)" stroke-width=".51" stroke-linecap="round" stroke-linejoin="round" fill="none" stroke="#7c532e" d="M 0 0 C .432 .758 6.97 -13.47 0 -22.125 "/>
<path transform="matrix(1,0,0,-1,236.708,6.3893988)" stroke-width=".51" stroke-linecap="round" stroke-linejoin="round" fill="none" stroke="#7c532e" d="M 0 0 C .432 .758 6.97 -13.47 0 -22.125 "/>
<path transform="matrix(1,0,0,-1,242.2529,6.3893988)" stroke-width=".51" stroke-linecap="round" stroke-linejoin="round" fill="none" stroke="#7c532e" d="M 0 0 C .432 .758 6.97 -13.47 0 -22.125 "/>
<path transform="matrix(1,0,0,-1,247.7979,6.3893988)" stroke-width=".51" stroke-linecap="round" stroke-linejoin="round" fill="none" stroke="#7c532e" d="M 0 0 C .431 .758 6.97 -13.47 0 -22.125 "/>
<path transform="matrix(1,0,0,-1,253.3428,6.3893988)" stroke-width=".51" stroke-linecap="round" stroke-linejoin="round" fill="none" stroke="#7c532e" d="M 0 0 C .432 .758 6.97 -13.47 0 -22.125 "/>
<path transform="matrix(1,0,0,-1,258.8877,6.3893988)" stroke-width=".51" stroke-linecap="round" stroke-linejoin="round" fill="none" stroke="#7c532e" d="M 0 0 C .432 .758 6.97 -13.47 0 -22.125 "/>
<path transform="matrix(1,0,0,-1,264.4326,6.3893988)" stroke-width=".51" stroke-linecap="round" stroke-linejoin="round" fill="none" stroke="#7c532e" d="M 0 0 C .432 .758 6.97 -13.47 0 -22.125 "/>
<path transform="matrix(1,0,0,-1,170.1685,6.3893988)" stroke-width=".51" stroke-linecap="round" stroke-linejoin="round" fill="none" stroke="#7c532e" d="M 0 0 C .432 .758 6.971 -13.47 0 -22.125 "/>
<path transform="matrix(1,0,0,-1,269.9775,6.3893988)" stroke-width=".51" stroke-linecap="round" stroke-linejoin="round" fill="none" stroke="#7c532e" d="M 0 0 C .431 .758 6.97 -13.47 0 -22.125 "/>
<path transform="matrix(1,0,0,-1,275.5225,6.3893988)" stroke-width=".51" stroke-linecap="round" stroke-linejoin="round" fill="none" stroke="#7c532e" d="M 0 0 C .432 .758 6.97 -13.47 0 -22.125 "/>
<path transform="matrix(1,0,0,-1,281.0674,6.3893988)" stroke-width=".51" stroke-linecap="round" stroke-linejoin="round" fill="none" stroke="#7c532e" d="M 0 0 C .432 .758 6.97 -13.47 0 -22.125 "/>
<path transform="matrix(1,0,0,-1,286.6123,6.3893988)" stroke-width=".51" stroke-linecap="round" stroke-linejoin="round" fill="none" stroke="#7c532e" d="M 0 0 C .432 .758 6.97 -13.47 0 -22.125 "/>
<path transform="matrix(1,0,0,-1,292.1572,6.3893988)" stroke-width=".51" stroke-linecap="round" stroke-linejoin="round" fill="none" stroke="#7c532e" d="M 0 0 C .432 .758 6.97 -13.47 0 -22.125 "/>
<path transform="matrix(1,0,0,-1,297.7021,6.3893988)" stroke-width=".51" stroke-linecap="round" stroke-linejoin="round" fill="none" stroke="#7c532e" d="M 0 0 C .431 .758 6.97 -13.47 0 -22.125 "/>
<path transform="matrix(1,0,0,-1,303.2471,6.3893988)" stroke-width=".51" stroke-linecap="round" stroke-linejoin="round" fill="none" stroke="#7c532e" d="M 0 0 C .431 .758 6.97 -13.47 0 -22.125 "/>
<path transform="matrix(1,0,0,-1,308.792,6.3893988)" stroke-width=".51" stroke-linecap="round" stroke-linejoin="round" fill="none" stroke="#7c532e" d="M 0 0 C .432 .758 6.97 -13.47 0 -22.125 "/>
<path transform="matrix(1,0,0,-1,314.3369,6.3893988)" stroke-width=".51" stroke-linecap="round" stroke-linejoin="round" fill="none" stroke="#7c532e" d="M 0 0 C .432 .758 6.97 -13.47 0 -22.125 "/>
<path transform="matrix(1,0,0,-1,319.8818,6.3893988)" stroke-width=".51" stroke-linecap="round" stroke-linejoin="round" fill="none" stroke="#7c532e" d="M 0 0 C .432 .758 6.97 -13.47 0 -22.125 "/>
<path transform="matrix(1,0,0,-1,325.4268,6.3893988)" stroke-width=".51" stroke-linecap="round" stroke-linejoin="round" fill="none" stroke="#7c532e" d="M 0 0 C .432 .758 6.97 -13.47 0 -22.125 "/>
<path transform="matrix(1,0,0,-1,330.9717,6.3893988)" stroke-width=".51" stroke-linecap="round" stroke-linejoin="round" fill="none" stroke="#7c532e" d="M 0 0 C .432 .758 6.97 -13.47 0 -22.125 "/>
<path transform="matrix(1,0,0,-1,336.5166,6.3893988)" stroke-width=".51" stroke-linecap="round" stroke-linejoin="round" fill="none" stroke="#7c532e" d="M 0 0 C .432 .758 6.97 -13.47 0 -22.125 "/>
</g>
<clipPath id="cp2">
<path transform="matrix(1,0,0,-1,0,34.6667)" d="M 0 34.667 L 396 34.667 L 396 0 L 0 0 Z "/>
</clipPath>
<g clip-path="url(#cp2)">
<path transform="matrix(1,0,0,-1,63.2026,8.296598)" d="M 0 0 C -24.965 0 -45.203 -3.971 -45.203 -8.869 C -45.203 -13.767 -24.965 -17.738 0 -17.738 C 3.946 -17.738 215.611 -17.452 215.611 -17.452 C 215.611 -17.452 278.95 -15.019 278.797 -8.726 C 278.654 -2.813 215.611 -.096 215.611 -.096 C 215.611 -.096 3.026 0 0 0 M 0 -1.02 C 2.991 -1.02 213.485 -1.114 215.567 -1.114 C 215.719 -1.12 230.935 -1.784 246.23 -3.135 C 274.529 -5.633 277.473 -8.189 277.77 -8.762 C 277.592 -9.197 275.322 -11.992 246.478 -14.494 C 231.101 -15.828 215.726 -16.428 215.61 -16.433 C 213.494 -16.436 3.9 -16.719 0 -16.719 C -12.01 -16.719 -23.292 -15.803 -31.767 -14.14 C -41.568 -12.217 -44.184 -9.922 -44.184 -8.869 C -44.184 -7.816 -41.568 -5.521 -31.767 -3.598 C -23.292 -1.935 -12.01 -1.02 0 -1.02 " fill="#7c532e"/>
<path transform="matrix(1,0,0,-1,145.7192,27.872799)" d="M 0 0 C -2.483 0 -4.373 .021 -5.055 .057 C -6.985 .157 -8.966 1.38 -9.754 1.92 C -4.731 11.053 -8.5 17.97 -9.554 19.597 C -8.734 20.448 -8.16 20.843 -6.549 20.951 C -5.292 21.035 -1.291 21.078 5.344 21.078 C 9.443 21.078 13.581 21.062 16.028 21.052 L 18.093 21.045 L 18.909 21.052 C 19.958 21.052 20.963 20.957 21.72 19.805 C 22.748 18.24 24.061 12.003 23.878 8.475 C 23.699 5.052 22.088 1.051 19.796 .556 C 18.022 .172 7.153 0 .001 0 Z " fill="#ddb384"/>
<path transform="matrix(1,0,0,-1,151.0674,6.2848989)" d="M 0 0 C -5.24 0 -10.417 -.027 -11.931 -.128 C -13.853 -.257 -14.481 -.789 -15.555 -1.94 C -15.555 -1.94 -9.762 -9.355 -15.77 -19.815 C -15.77 -19.815 -13.099 -21.901 -10.429 -22.04 C -9.722 -22.077 -7.816 -22.098 -5.35 -22.098 C 1.495 -22.098 12.664 -21.939 14.556 -21.53 C 17.131 -20.974 18.848 -16.801 19.039 -13.139 C 19.229 -9.477 17.894 -3.172 16.797 -1.503 C 15.912 -.156 14.716 -.026 13.561 -.026 C 13.285 -.026 13.011 -.033 12.745 -.033 C 11.718 -.033 5.821 0 0 0 M 0 -1.019 C 4.098 -1.019 8.233 -1.036 10.679 -1.045 C 11.709 -1.049 12.44 -1.052 12.745 -1.052 C 12.881 -1.052 13.02 -1.05 13.159 -1.048 C 13.292 -1.047 13.426 -1.045 13.561 -1.045 C 14.699 -1.045 15.38 -1.202 15.946 -2.063 C 16.847 -3.435 18.212 -9.399 18.021 -13.086 C 17.831 -16.733 16.146 -20.144 14.341 -20.534 C 12.764 -20.875 3.091 -21.078 -5.35 -21.078 C -7.823 -21.078 -9.702 -21.057 -10.376 -21.022 C -11.928 -20.941 -13.538 -20.068 -14.433 -19.5 C -9.836 -10.778 -12.93 -4.21 -14.248 -2.059 C -13.622 -1.467 -13.101 -1.229 -11.863 -1.146 C -10.617 -1.062 -6.625 -1.019 0 -1.019 " fill="#7c532e"/>
<path transform="matrix(1,0,0,-1,138.7451,23.423499)" d="M 0 0 C 0 0 -.411 1.542 .891 1.488 C 2.193 1.435 8.771 1.223 12.951 1.223 C 17.131 1.223 28.233 1.382 28.576 1.169 C 28.918 .957 29.329 -.106 27.89 -.159 C 26.451 -.212 1.576 -.691 0 0 " fill="#e7cca2"/>
</g>
</g>
</g>
</svg>
