<?xml version="1.0" encoding="UTF-8" standalone="no"?>
<!DOCTYPE svg PUBLIC "-//W3C//DTD SVG 1.1//EN" "http://www.w3.org/Graphics/SVG/1.1/DTD/svg11.dtd">
<svg xmlns="http://www.w3.org/2000/svg" xmlns:xlink="http://www.w3.org/1999/xlink" version="1.1" width="457.8462pt" height="472.6154pt" viewBox="0 0 457.8462 472.6154">
<g enable-background="new">
<clipPath id="cp106">
<path transform="matrix(1,0,0,-1,-58.51471,712.9695)" d="M 0 0 L 603 0 L 603 783 L 0 783 Z "/>
</clipPath>
<g clip-path="url(#cp106)">
<path transform="matrix(1,0,0,-1,-58.51471,712.9695)" d="M 43.2 50.4 L 531 50.4 L 531 747 L 43.2 747 Z " fill="#ffffff" fill-rule="evenodd"/>
<path transform="matrix(1,0,0,-1,-58.51471,712.9695)" d="M 63.106 653.294 L 511.094 653.294 L 510.594 652.294 L 63.606 652.294 Z " fill="#231f20"/>
<path transform="matrix(1,0,0,-1,-58.51471,712.9695)" d="M 63.106 571.494 L 511.094 571.494 L 510.594 570.994 L 63.606 570.994 Z " fill="#d6d9d8"/>
<path transform="matrix(1,0,0,-1,-58.51471,712.9695)" d="M 63.106 490.194 L 511.094 490.194 L 510.594 489.694 L 63.606 489.694 Z " fill="#d6d9d8"/>
<path transform="matrix(1,0,0,-1,-58.51471,712.9695)" d="M 63.106 408.894 L 511.094 408.894 L 510.594 408.394 L 63.606 408.394 Z " fill="#d6d9d8"/>
<path transform="matrix(1,0,0,-1,-58.51471,712.9695)" d="M 63.106 327.594 L 511.094 327.594 L 510.594 327.094 L 63.606 327.094 Z " fill="#d6d9d8"/>
<path transform="matrix(1,0,0,-1,-58.51471,712.9695)" d="M 192.1554 708.144 L 192.1554 652.294 L 191.1554 653.294 L 191.1554 707.144 Z " fill="#231f20"/>
<path transform="matrix(1,0,0,-1,-58.51471,712.9695)" d="M 191.9054 653.294 L 191.9054 245.794 L 191.4054 246.294 L 191.4054 652.294 Z " fill="#d6d9d8"/>
<path transform="matrix(1,0,0,-1,-58.51471,712.9695)" d="M 254.2198 708.144 L 254.2198 652.294 L 253.2198 653.294 L 253.2198 707.144 Z " fill="#231f20"/>
<path transform="matrix(1,0,0,-1,-58.51471,712.9695)" d="M 253.9698 653.294 L 253.9698 245.794 L 253.4698 246.294 L 253.4698 652.294 Z " fill="#d6d9d8"/>
<path transform="matrix(1,0,0,-1,-58.51471,712.9695)" d="M 307.4179 708.144 L 307.4179 652.294 L 306.4179 653.294 L 306.4179 707.144 Z " fill="#231f20"/>
<path transform="matrix(1,0,0,-1,-58.51471,712.9695)" d="M 307.1679 653.294 L 307.1679 245.794 L 306.6679 246.294 L 306.6679 652.294 Z " fill="#d6d9d8"/>
<path transform="matrix(1,0,0,-1,-58.51471,712.9695)" d="M 409.381 708.144 L 409.381 652.294 L 408.381 653.294 L 408.381 707.144 Z " fill="#231f20"/>
<path transform="matrix(1,0,0,-1,-58.51471,712.9695)" d="M 409.131 653.294 L 409.131 245.794 L 408.631 246.294 L 408.631 652.294 Z " fill="#d6d9d8"/>
<path transform="matrix(1,0,0,-1,-58.51471,712.9695)" d="M 62.856 708.144 L 511.344 708.144 L 510.344 707.144 L 63.856 707.144 Z " fill="#231f20"/>
<path transform="matrix(1,0,0,-1,-58.51471,712.9695)" d="M 511.094 245.794 L 63.106 245.794 L 63.606 246.294 L 510.594 246.294 Z " fill="#d6d9d8"/>
<path transform="matrix(1,0,0,-1,-58.51471,712.9695)" d="M 62.856 652.294 L 62.856 708.144 L 63.856 707.144 L 63.856 653.294 Z " fill="#231f20"/>
<path transform="matrix(1,0,0,-1,-58.51471,712.9695)" d="M 63.106 245.794 L 63.106 653.294 L 63.606 652.294 L 63.606 246.294 Z " fill="#d6d9d8"/>
<path transform="matrix(1,0,0,-1,-58.51471,712.9695)" d="M 511.344 708.144 L 511.344 652.294 L 510.344 653.294 L 510.344 707.144 Z " fill="#231f20"/>
<path transform="matrix(1,0,0,-1,-58.51471,712.9695)" d="M 511.094 653.294 L 511.094 245.794 L 510.594 246.294 L 510.594 652.294 Z " fill="#d6d9d8"/>
<symbol id="font_6b_b">
<path d="M .47509767 0 L .35986329 0 L .35986329 .33203126 C .35986329 .3736979 .35139976 .40478517 .33447267 .42529298 C .3178711 .44580079 .29134117 .4560547 .2548828 .4560547 C .2063802 .4560547 .17089844 .44173179 .1484375 .41308595 C .12597656 .3844401 .114746097 .33642579 .114746097 .26904298 L .114746097 0 L 0 0 L 0 .54003909 L .08984375 .54003909 L .10595703 .46923829 L .111816409 .46923829 C .12809246 .49495445 .15120442 .5148112 .18115235 .5288086 C .21110027 .54280599 .24430339 .5498047 .28076173 .5498047 C .410319 .5498047 .47509767 .48388673 .47509767 .35205079 L .47509767 0 Z "/>
</symbol>
<symbol id="font_6b_11">
<path d="M .3857422 .009765625 L .3696289 .080566409 L .36376954 .080566409 C .347819 .0555013 .32503257 .035807294 .29541017 .021484375 C .26611329 .0071614587 .23258464 0 .19482422 0 C .12939453 0 .080566409 .016276041 .048339845 .048828126 C .016113282 .08138021 0 .13069661 0 .19677735 L 0 .5498047 L .115722659 .5498047 L .115722659 .21679688 C .115722659 .17545574 .124186199 .14436849 .14111328 .123535159 C .15804036 .103027347 .18457031 .09277344 .22070313 .09277344 C .26888023 .09277344 .30419923 .10709635 .32666017 .13574219 C .34944663 .16471355 .36083985 .21305339 .36083985 .28076173 L .36083985 .5498047 L .47607423 .5498047 L .47607423 .009765625 L .3857422 .009765625 Z "/>
</symbol>
<symbol id="font_6b_a">
<path d="M .45507813 0 L .33984376 0 L .33984376 .3330078 C .33984376 .37434898 .33203126 .4051107 .31640626 .42529298 C .30078126 .44580079 .2763672 .4560547 .24316406 .4560547 C .19889324 .4560547 .16634114 .441569 .14550781 .41259767 C .125 .3839518 .114746097 .33610026 .114746097 .26904298 L .114746097 0 L 0 0 L 0 .54003909 L .08984375 .54003909 L .10595703 .46923829 L .111816409 .46923829 C .12679036 .49495445 .1484375 .5148112 .17675781 .5288086 C .20540364 .54280599 .2368164 .5498047 .2709961 .5498047 C .3540039 .5498047 .40901695 .5214844 .43603517 .46484376 L .44384767 .46484376 C .4597982 .49153648 .48225913 .5123698 .51123049 .52734377 C .54020187 .5423177 .57340499 .5498047 .61083987 .5498047 C .67529299 .5498047 .72216799 .5335286 .75146487 .50097659 C .7810872 .46842448 .79589846 .41878257 .79589846 .35205079 L .79589846 0 L .68115237 0 L .68115237 .3330078 C .68115237 .37434898 .67317709 .4051107 .65722659 .42529298 C .64160159 .44580079 .6171875 .4560547 .5839844 .4560547 C .539388 .4560547 .50667318 .44205729 .48583985 .4140625 C .46533204 .38639323 .45507813 .34375 .45507813 .2861328 L .45507813 0 Z "/>
</symbol>
<symbol id="font_6b_3">
<path d="M .2758789 .5595703 C .34326173 .5595703 .39567057 .53515627 .43310548 .48632813 C .47086589 .4375 .4897461 .36897788 .4897461 .28076173 C .4897461 .19222005 .47070313 .12320963 .4326172 .07373047 C .39453126 .024576823 .34163413 0 .27392579 0 C .2055664 0 .15250652 .024576823 .114746097 .07373047 L .106933597 .07373047 L .0859375 .009765625 L 0 .009765625 L 0 .76953127 L .114746097 .76953127 L .114746097 .5888672 C .114746097 .5755208 .114095058 .55566409 .11279297 .5292969 C .11149088 .5029297 .11051432 .48616538 .10986328 .4790039 L .114746097 .4790039 C .15120442 .53271487 .20491536 .5595703 .2758789 .5595703 M .24609375 .4658203 C .1998698 .4658203 .1665039 .45214845 .1459961 .4248047 C .1258138 .39778648 .11539713 .3523763 .114746097 .28857423 L .114746097 .28076173 C .114746097 .21500652 .12516277 .1673177 .1459961 .13769531 C .16682942 .10839844 .20084636 .09375 .24804688 .09375 C .28873698 .09375 .3194987 .10986328 .34033204 .14208985 C .36149089 .1743164 .3720703 .22086589 .3720703 .28173829 C .3720703 .40445964 .33007813 .4658203 .24609375 .4658203 Z "/>
</symbol>
<symbol id="font_6b_6">
<path d="M .2680664 0 C .18408203 0 .11832682 .024414063 .07080078 .07324219 C .02360026 .122395839 0 .1899414 0 .2758789 C 0 .36409507 .021972657 .433431 .06591797 .48388673 C .10986328 .53434249 .17024739 .5595703 .24707031 .5595703 C .31835938 .5595703 .37467448 .53792318 .41601563 .4946289 C .45735679 .45133464 .47802735 .3917643 .47802735 .31591798 L .47802735 .25390626 L .11816406 .25390626 C .119791667 .20149739 .13395183 .16113281 .16064453 .1328125 C .18733724 .10481771 .22493489 .09082031 .2734375 .09082031 C .30533854 .09082031 .33496095 .09375 .3623047 .099609378 C .38997398 .10579427 .41959635 .115885417 .45117188 .12988281 L .45117188 .036621095 C .4231771 .02327474 .39485679 .013834636 .36621095 .008300781 C .3375651 .002766927 .30485026 0 .2680664 0 M .24707031 .47265626 C .21061199 .47265626 .18131511 .46110026 .15917969 .43798829 C .1373698 .4148763 .12434896 .3811849 .12011719 .33691407 L .36523438 .33691407 C .36458335 .3815104 .35384117 .4152018 .3330078 .43798829 C .31217448 .46110026 .28352867 .47265626 .24707031 .47265626 Z "/>
</symbol>
<symbol id="font_6b_e">
<path d="M .27392579 .5498047 C .29703776 .5498047 .31608073 .54817709 .3310547 .5449219 L .31982423 .43798829 C .3035482 .44189454 .2866211 .44384767 .26904298 .44384767 C .22314453 .44384767 .18587239 .4288737 .15722656 .39892579 C .12890625 .36897788 .114746097 .33007813 .114746097 .28222657 L .114746097 0 L 0 0 L 0 .54003909 L .08984375 .54003909 L .10498047 .44482423 L .110839847 .44482423 C .12874349 .47705079 .15201824 .5026042 .18066406 .5214844 C .20963542 .54036459 .24072266 .5498047 .27392579 .5498047 Z "/>
</symbol>
<use xlink:href="#font_6b_b" transform="matrix(11,0,0,-11,143.86743,21.06781)" fill="#262324"/>
<use xlink:href="#font_6b_11" transform="matrix(11,0,0,-11,150.78772,21.175232)" fill="#262324"/>
<use xlink:href="#font_6b_a" transform="matrix(11,0,0,-11,157.81543,21.06781)" fill="#262324"/>
<use xlink:href="#font_6b_3" transform="matrix(11,0,0,-11,168.33144,21.175232)" fill="#262324"/>
<use xlink:href="#font_6b_6" transform="matrix(11,0,0,-11,174.82994,21.175232)" fill="#262324"/>
<use xlink:href="#font_6b_e" transform="matrix(11,0,0,-11,181.52043,21.06781)" fill="#262324"/>
<symbol id="font_6b_c">
<path d="M .51123049 .28076173 C .51123049 .19254558 .48860679 .123697917 .44335938 .07421875 C .39811198 .024739584 .3351237 0 .25439454 0 C .2039388 0 .15934246 .0113932299 .12060547 .034179689 C .08186849 .056966146 .052083333 .08968099 .03125 .13232422 C .010416667 .17496746 0 .22444661 0 .28076173 C 0 .3683268 .022460938 .4366862 .06738281 .48583985 C .11230469 .53499349 .17561849 .5595703 .25732423 .5595703 C .33544923 .5595703 .3972982 .53434249 .4428711 .48388673 C .488444 .4337565 .51123049 .3660482 .51123049 .28076173 M .11816406 .28076173 C .11816406 .15608724 .16422527 .09375 .25634767 .09375 C .3474935 .09375 .3930664 .15608724 .3930664 .28076173 C .3930664 .40413413 .34716798 .4658203 .2553711 .4658203 C .20719402 .4658203 .17220052 .44986979 .15039063 .41796876 C .12890625 .38606773 .11816406 .34033204 .11816406 .28076173 Z "/>
</symbol>
<symbol id="font_6b_7">
<path d="M .3359375 .453125 L .20410156 .453125 L .20410156 0 L .08886719 0 L .08886719 .453125 L 0 .453125 L 0 .50683596 L .08886719 .5419922 L .08886719 .57714846 C .08886719 .6409505 .10384115 .68815109 .13378906 .71875 C .16373699 .7496745 .20947266 .7651367 .2709961 .7651367 C .3113607 .7651367 .35107423 .75846359 .39013673 .7451172 L .35986329 .6582031 C .33154298 .6673177 .30452476 .671875 .2788086 .671875 C .25276695 .671875 .23372396 .663737 .22167969 .64746096 C .20996094 .63151046 .20410156 .6074219 .20410156 .5751953 L .20410156 .54003909 L .3359375 .54003909 L .3359375 .453125 Z "/>
</symbol>
<symbol id="font_6b_1">
<path d="M 0 0 Z "/>
</symbol>
<symbol id="font_6b_f">
<path d="M .39697267 .16357422 C .39697267 .110839847 .37776695 .0703125 .33935548 .041992189 C .300944 .0139973959 .24593099 0 .1743164 0 C .102376308 0 .044596357 .010904948 .0009765625 .032714845 L .0009765625 .13183594 C .064453128 .10253906 .123535159 .087890628 .17822266 .087890628 C .24886067 .087890628 .2841797 .10921224 .2841797 .15185547 C .2841797 .16552735 .28027345 .17692058 .27246095 .18603516 C .26464845 .19514974 .25179038 .20458985 .23388672 .21435547 C .21598308 .2241211 .19108074 .2351888 .15917969 .2475586 C .09700521 .27164714 .05485026 .2957357 .032714845 .31982423 C .010904948 .34391276 0 .37516276 0 .41357423 C 0 .4597982 .018554688 .49560548 .055664064 .5209961 C .09309896 .5467122 .1438802 .5595703 .20800781 .5595703 C .27148438 .5595703 .33154298 .5467122 .3881836 .5209961 L .35107423 .4345703 C .292806 .45865885 .24381511 .47070313 .20410156 .47070313 C .14355469 .47070313 .11328125 .45345054 .11328125 .4189453 C .11328125 .40201823 .12109375 .3876953 .13671875 .37597657 C .15266927 .3642578 .18717449 .34814454 .24023438 .32763673 C .28483073 .31038413 .31722007 .29459635 .33740235 .28027345 C .35758464 .26595054 .3725586 .24934896 .38232423 .23046875 C .39208985 .21191406 .39697267 .18961589 .39697267 .16357422 Z "/>
</symbol>
<symbol id="font_6b_8">
<path d="M .47509767 0 L .35986329 0 L .35986329 .33203126 C .35986329 .3736979 .35139976 .40478517 .33447267 .42529298 C .3178711 .44580079 .29134117 .4560547 .2548828 .4560547 C .20670574 .4560547 .17122396 .441569 .1484375 .41259767 C .12597656 .3839518 .114746097 .33577476 .114746097 .2680664 L .114746097 0 L 0 0 L 0 .7597656 L .114746097 .7597656 L .114746097 .56689456 C .114746097 .53597006 .11279297 .5029297 .10888672 .46777345 L .11621094 .46777345 C .13183594 .4938151 .15348308 .5139974 .18115235 .5283203 C .20914714 .54264327 .24169922 .5498047 .2788086 .5498047 C .40966798 .5498047 .47509767 .48388673 .47509767 .35205079 L .47509767 0 Z "/>
</symbol>
<symbol id="font_6b_2">
<path d="M .37597657 .009765625 L .35302735 .08496094 L .3491211 .08496094 C .32307945 .052083333 .296875 .029622397 .2705078 .017578125 C .24414063 .005859375 .21028646 0 .16894531 0 C .115885417 0 .07438151 .014322917 .044433595 .04296875 C .014811198 .071614589 0 .11214193 0 .16455078 C 0 .22021485 .020670573 .26220704 .06201172 .29052735 C .10335287 .31884767 .16634114 .3343099 .25097657 .33691407 L .34423829 .33984376 L .34423829 .36865235 C .34423829 .40315757 .33610026 .4288737 .31982423 .44580079 C .3038737 .46305339 .27897135 .4716797 .24511719 .4716797 C .21744792 .4716797 .19091797 .4676107 .16552735 .45947267 C .14013672 .45133464 .115722659 .44173179 .092285159 .43066407 L .05517578 .5126953 C .084472659 .5279948 .11653646 .5395508 .15136719 .5473633 C .18619792 .5555013 .21907552 .5595703 .25 .5595703 C .3186849 .5595703 .37044273 .5445964 .40527345 .51464846 C .4404297 .48470054 .4580078 .43766276 .4580078 .37353517 L .4580078 .009765625 L .37597657 .009765625 M .20507813 .087890628 C .2467448 .087890628 .2801107 .09944662 .30517579 .122558597 C .3305664 .1459961 .34326173 .17871094 .34326173 .22070313 L .34326173 .26757813 L .27392579 .26464845 C .21988933 .2626953 .1805013 .25358073 .15576172 .23730469 C .13134766 .22135417 .119140628 .19677735 .119140628 .16357422 C .119140628 .13948567 .12630208 .12076823 .140625 .107421878 C .15494792 .09440104 .1764323 .087890628 .20507813 .087890628 Z "/>
</symbol>
<symbol id="font_6b_5">
<path d="M .21435547 0 C .14697266 0 .09440104 .024414063 .056640626 .07324219 C .018880209 .12207031 0 .19059246 0 .2788086 C 0 .36735026 .019042969 .4361979 .057128908 .48535157 C .09554037 .53483077 .14860027 .5595703 .2163086 .5595703 C .28727214 .5595703 .3413086 .5333659 .37841798 .48095704 L .38427735 .48095704 C .3787435 .51969406 .37597657 .55029299 .37597657 .5727539 L .37597657 .76953127 L .49121095 .76953127 L .49121095 .009765625 L .4013672 .009765625 L .38134767 .080566409 L .37597657 .080566409 C .33919273 .026855469 .285319 0 .21435547 0 M .24511719 .09277344 C .29231773 .09277344 .32666017 .10595703 .34814454 .13232422 C .3696289 .15901692 .38069663 .20214844 .38134767 .26171876 L .38134767 .27783204 C .38134767 .34586589 .37027995 .39420573 .34814454 .42285157 C .32600913 .4514974 .29134117 .4658203 .24414063 .4658203 C .20377605 .4658203 .1726888 .4493815 .1508789 .4165039 C .12906902 .3839518 .11816406 .33740235 .11816406 .27685548 C .11816406 .21695964 .12874349 .17122396 .14990235 .13964844 C .1710612 .10839844 .20279949 .09277344 .24511719 .09277344 Z "/>
</symbol>
<use xlink:href="#font_6b_c" transform="matrix(11,0,0,-11,138.55544,37.125185)" fill="#262324"/>
<use xlink:href="#font_6b_7" transform="matrix(11,0,0,-11,144.90557,37.01776)" fill="#262324"/>
<use xlink:href="#font_6b_1" transform="matrix(11,0,0,-11,148.69957,37.01776)" fill="#262324"/>
<use xlink:href="#font_6b_f" transform="matrix(11,0,0,-11,152.07494,37.125185)" fill="#262324"/>
<use xlink:href="#font_6b_8" transform="matrix(11,0,0,-11,157.7969,37.01776)" fill="#262324"/>
<use xlink:href="#font_6b_2" transform="matrix(11,0,0,-11,164.35196,37.125185)" fill="#262324"/>
<use xlink:href="#font_6b_5" transform="matrix(11,0,0,-11,170.79642,37.125185)" fill="#262324"/>
<use xlink:href="#font_6b_6" transform="matrix(11,0,0,-11,177.64942,37.125185)" fill="#262324"/>
<use xlink:href="#font_6b_5" transform="matrix(11,0,0,-11,183.98542,37.125185)" fill="#262324"/>
<symbol id="font_6b_d">
<path d="M .27392579 .23046875 C .2055664 .23046875 .15250652 .25504557 .114746097 .30419923 L .107910159 .30419923 C .112467449 .2586263 .114746097 .23095703 .114746097 .2211914 L .114746097 0 L 0 0 L 0 .78027346 L .09277344 .78027346 C .0953776 .7701823 .100748699 .74609377 .10888672 .7080078 L .114746097 .7080078 C .15055339 .7626953 .20426433 .79003909 .2758789 .79003909 C .34326173 .79003909 .39567057 .765625 .43310548 .7167969 C .47086589 .66796877 .4897461 .5994466 .4897461 .51123049 C .4897461 .4230143 .47054038 .35416667 .4321289 .3046875 C .39404298 .25520835 .3413086 .23046875 .27392579 .23046875 M .24609375 .69628909 C .20052083 .69628909 .16715496 .6829427 .1459961 .65625 C .12516277 .6295573 .114746097 .58691409 .114746097 .5283203 L .114746097 .51123049 C .114746097 .44547526 .12516277 .39778648 .1459961 .36816407 C .16682942 .3388672 .20084636 .32421876 .24804688 .32421876 C .2877604 .32421876 .31835938 .34049479 .33984376 .37304688 C .36132813 .40559898 .3720703 .4519857 .3720703 .51220706 C .3720703 .5727539 .36132813 .61848959 .33984376 .64941409 C .3186849 .68066409 .2874349 .69628909 .24609375 .69628909 Z "/>
</symbol>
<symbol id="font_6b_10">
<path d="M .26416017 .09277344 C .29215495 .09277344 .32014976 .09716797 .34814454 .10595703 L .34814454 .01953125 C .33544923 .0139973959 .3190104 .0094401049 .29882813 .005859375 C .27897135 .001953125 .25830079 0 .2368164 0 C .12809246 0 .07373047 .057291669 .07373047 .171875 L .07373047 .46289063 L 0 .46289063 L 0 .5136719 L .07910156 .55566409 L .11816406 .6699219 L .18896485 .6699219 L .18896485 .5498047 L .34277345 .5498047 L .34277345 .46289063 L .18896485 .46289063 L .18896485 .17382813 C .18896485 .14615886 .19580078 .12565105 .20947266 .11230469 C .22347005 .09928385 .24169922 .09277344 .26416017 .09277344 Z "/>
</symbol>
<use xlink:href="#font_6b_d" transform="matrix(11,0,0,-11,151.24733,55.61035)" fill="#262324"/>
<use xlink:href="#font_6b_2" transform="matrix(11,0,0,-11,157.68138,53.075197)" fill="#262324"/>
<use xlink:href="#font_6b_e" transform="matrix(11,0,0,-11,164.48033,52.967775)" fill="#262324"/>
<use xlink:href="#font_6b_10" transform="matrix(11,0,0,-11,168.52846,53.075197)" fill="#262324"/>
<use xlink:href="#font_6b_f" transform="matrix(11,0,0,-11,173.16835,53.075197)" fill="#262324"/>
<symbol id="font_6b_9">
<path d="M .12158203 0 L .0068359377 0 L .0068359377 .54003909 L .12158203 .54003909 L .12158203 0 M 0 .68310549 C 0 .7036133 .005533854 .71940109 .016601563 .73046877 C .027994791 .74153646 .044108076 .7470703 .064941409 .7470703 C .085123699 .7470703 .100748699 .74153646 .111816409 .73046877 C .12320963 .71940109 .12890625 .7036133 .12890625 .68310549 C .12890625 .6635742 .12320963 .648112 .111816409 .63671877 C .100748699 .62565109 .085123699 .6201172 .064941409 .6201172 C .044108076 .6201172 .027994791 .62565109 .016601563 .63671877 C .005533854 .648112 0 .6635742 0 .68310549 Z "/>
</symbol>
<symbol id="font_6b_13">
<path d="M .40966798 0 L 0 0 L 0 .07080078 L .27294923 .45214845 L .016601563 .45214845 L .016601563 .54003909 L .40185548 .54003909 L .40185548 .45996095 L .13476563 .087890628 L .40966798 .087890628 L .40966798 0 Z "/>
</symbol>
<use xlink:href="#font_6b_f" transform="matrix(11,0,0,-11,205.53787,21.175232)" fill="#262324"/>
<use xlink:href="#font_6b_9" transform="matrix(11,0,0,-11,211.18466,21.06781)" fill="#262324"/>
<use xlink:href="#font_6b_13" transform="matrix(11,0,0,-11,213.78076,21.06781)" fill="#262324"/>
<use xlink:href="#font_6b_6" transform="matrix(11,0,0,-11,219.22138,21.175232)" fill="#262324"/>
<use xlink:href="#font_6b_1" transform="matrix(11,0,0,-11,225.00952,21.06781)" fill="#262324"/>
<use xlink:href="#font_6b_c" transform="matrix(11,0,0,-11,228.40637,21.175232)" fill="#262324"/>
<use xlink:href="#font_6b_7" transform="matrix(11,0,0,-11,234.75653,21.06781)" fill="#262324"/>
<symbol id="font_6b_4">
<path d="M .25 0 C .16829427 0 .10611979 .023763022 .06347656 .07128906 C .021158854 .119140628 0 .18766277 0 .27685548 C 0 .36767579 .022135416 .4375 .06640625 .48632813 C .1110026 .53515627 .17529297 .5595703 .25927735 .5595703 C .3162435 .5595703 .36751304 .5489909 .41308595 .52783206 L .37841798 .43554688 C .32991538 .4544271 .2898763 .4638672 .25830079 .4638672 C .1648763 .4638672 .11816406 .40185548 .11816406 .27783204 C .11816406 .21728516 .12972005 .17171224 .15283203 .14111328 C .17626953 .110839847 .21044922 .095703128 .2553711 .095703128 C .30647788 .095703128 .35481773 .10839844 .40039063 .13378906 L .40039063 .033691408 C .3798828 .021647135 .35791017 .013020833 .33447267 .0078125 C .3113607 .0026041668 .28320313 0 .25 0 Z "/>
</symbol>
<use xlink:href="#font_6b_6" transform="matrix(11,0,0,-11,209.77835,37.125185)" fill="#262324"/>
<use xlink:href="#font_6b_2" transform="matrix(11,0,0,-11,216.0499,37.125185)" fill="#262324"/>
<use xlink:href="#font_6b_4" transform="matrix(11,0,0,-11,222.49436,37.125185)" fill="#262324"/>
<use xlink:href="#font_6b_8" transform="matrix(11,0,0,-11,228.29386,37.01776)" fill="#262324"/>
<use xlink:href="#font_6b_d" transform="matrix(11,0,0,-11,211.55612,55.61035)" fill="#262324"/>
<use xlink:href="#font_6b_2" transform="matrix(11,0,0,-11,217.99018,53.075197)" fill="#262324"/>
<use xlink:href="#font_6b_e" transform="matrix(11,0,0,-11,224.78913,52.967775)" fill="#262324"/>
<use xlink:href="#font_6b_10" transform="matrix(11,0,0,-11,228.83725,53.075197)" fill="#262324"/>
<symbol id="font_6b_12">
<path d="M .5151367 0 L .4453125 .25195313 C .43684898 .27864585 .42154948 .34065757 .39941407 .43798829 L .39501954 .43798829 C .3761393 .35009767 .36116538 .2877604 .35009767 .25097657 L .2783203 0 L .15136719 0 L 0 .54003909 L .1171875 .54003909 L .18603516 .27392579 C .20166016 .20817058 .21272786 .15185547 .21923828 .10498047 L .22216797 .10498047 C .22542317 .12874349 .23030599 .15592449 .2368164 .18652344 C .24365235 .21744792 .24951172 .24055989 .25439454 .25585938 L .33642579 .54003909 L .46240235 .54003909 L .5419922 .25585938 C .546875 .23990886 .55289718 .2154948 .5600586 .18261719 C .5675456 .14973958 .5719401 .124186199 .5732422 .10595703 L .57714846 .10595703 C .58203127 .1459961 .5934245 .20198567 .6113281 .27392579 L .68115237 .54003909 L .7963867 .54003909 L .64404299 0 L .5151367 0 Z "/>
</symbol>
<use xlink:href="#font_6b_12" transform="matrix(11,0,0,-11,260.14894,29.042786)" fill="#262324"/>
<use xlink:href="#font_6b_c" transform="matrix(11,0,0,-11,269.56538,29.150208)" fill="#262324"/>
<use xlink:href="#font_6b_e" transform="matrix(11,0,0,-11,276.62989,29.042786)" fill="#262324"/>
<use xlink:href="#font_6b_5" transform="matrix(11,0,0,-11,281.0164,29.150208)" fill="#262324"/>
<use xlink:href="#font_6b_1" transform="matrix(11,0,0,-11,287.32154,29.042786)" fill="#262324"/>
<use xlink:href="#font_6b_b" transform="matrix(11,0,0,-11,291.07289,29.042786)" fill="#262324"/>
<use xlink:href="#font_6b_2" transform="matrix(11,0,0,-11,297.62794,29.150208)" fill="#262324"/>
<use xlink:href="#font_6b_a" transform="matrix(11,0,0,-11,304.42689,29.042786)" fill="#262324"/>
<use xlink:href="#font_6b_6" transform="matrix(11,0,0,-11,314.58839,29.150208)" fill="#262324"/>
<use xlink:href="#font_6b_1" transform="matrix(11,0,0,-11,320.37654,29.042786)" fill="#262324"/>
<use xlink:href="#font_6b_7" transform="matrix(11,0,0,-11,323.4135,29.042786)" fill="#262324"/>
<use xlink:href="#font_6b_c" transform="matrix(11,0,0,-11,327.7554,29.150208)" fill="#262324"/>
<use xlink:href="#font_6b_e" transform="matrix(11,0,0,-11,334.81993,29.042786)" fill="#262324"/>
<use xlink:href="#font_6b_10" transform="matrix(11,0,0,-11,254.70526,45.10022)" fill="#262324"/>
<use xlink:href="#font_6b_8" transform="matrix(11,0,0,-11,259.72114,44.992799)" fill="#262324"/>
<use xlink:href="#font_6b_6" transform="matrix(11,0,0,-11,266.34065,45.10022)" fill="#262324"/>
<use xlink:href="#font_6b_1" transform="matrix(11,0,0,-11,272.12879,44.992799)" fill="#262324"/>
<use xlink:href="#font_6b_f" transform="matrix(11,0,0,-11,275.50416,45.10022)" fill="#262324"/>
<use xlink:href="#font_6b_8" transform="matrix(11,0,0,-11,281.22615,44.992799)" fill="#262324"/>
<use xlink:href="#font_6b_2" transform="matrix(11,0,0,-11,287.7812,45.10022)" fill="#262324"/>
<use xlink:href="#font_6b_5" transform="matrix(11,0,0,-11,294.22566,45.10022)" fill="#262324"/>
<use xlink:href="#font_6b_6" transform="matrix(11,0,0,-11,301.07865,45.10022)" fill="#262324"/>
<use xlink:href="#font_6b_5" transform="matrix(11,0,0,-11,307.41465,45.10022)" fill="#262324"/>
<use xlink:href="#font_6b_1" transform="matrix(11,0,0,-11,313.7198,44.992799)" fill="#262324"/>
<use xlink:href="#font_6b_d" transform="matrix(11,0,0,-11,317.47114,47.635377)" fill="#262324"/>
<use xlink:href="#font_6b_2" transform="matrix(11,0,0,-11,323.90519,45.10022)" fill="#262324"/>
<use xlink:href="#font_6b_e" transform="matrix(11,0,0,-11,330.70414,44.992799)" fill="#262324"/>
<use xlink:href="#font_6b_10" transform="matrix(11,0,0,-11,334.75227,45.10022)" fill="#262324"/>
<use xlink:href="#font_6b_f" transform="matrix(11,0,0,-11,339.39216,45.10022)" fill="#262324"/>
<use xlink:href="#font_6b_b" transform="matrix(11,0,0,-11,355.34974,29.042786)" fill="#262324"/>
<use xlink:href="#font_6b_11" transform="matrix(11,0,0,-11,362.27003,29.150208)" fill="#262324"/>
<use xlink:href="#font_6b_a" transform="matrix(11,0,0,-11,369.29774,29.042786)" fill="#262324"/>
<use xlink:href="#font_6b_3" transform="matrix(11,0,0,-11,379.81373,29.150208)" fill="#262324"/>
<use xlink:href="#font_6b_6" transform="matrix(11,0,0,-11,386.31224,29.150208)" fill="#262324"/>
<use xlink:href="#font_6b_e" transform="matrix(11,0,0,-11,393.00273,29.042786)" fill="#262324"/>
<use xlink:href="#font_6b_1" transform="matrix(11,0,0,-11,396.84138,29.042786)" fill="#262324"/>
<use xlink:href="#font_6b_b" transform="matrix(11,0,0,-11,400.5927,29.042786)" fill="#262324"/>
<use xlink:href="#font_6b_2" transform="matrix(11,0,0,-11,407.14778,29.150208)" fill="#262324"/>
<use xlink:href="#font_6b_a" transform="matrix(11,0,0,-11,413.94673,29.042786)" fill="#262324"/>
<use xlink:href="#font_6b_6" transform="matrix(11,0,0,-11,424.10823,29.150208)" fill="#262324"/>
<use xlink:href="#font_6b_1" transform="matrix(11,0,0,-11,429.89637,29.042786)" fill="#262324"/>
<use xlink:href="#font_6b_7" transform="matrix(11,0,0,-11,432.93336,29.042786)" fill="#262324"/>
<use xlink:href="#font_6b_c" transform="matrix(11,0,0,-11,437.27525,29.150208)" fill="#262324"/>
<use xlink:href="#font_6b_e" transform="matrix(11,0,0,-11,444.33976,29.042786)" fill="#262324"/>
<use xlink:href="#font_6b_10" transform="matrix(11,0,0,-11,356.66838,45.10022)" fill="#262324"/>
<use xlink:href="#font_6b_8" transform="matrix(11,0,0,-11,361.68424,44.992799)" fill="#262324"/>
<use xlink:href="#font_6b_6" transform="matrix(11,0,0,-11,368.30378,45.10022)" fill="#262324"/>
<use xlink:href="#font_6b_1" transform="matrix(11,0,0,-11,374.09193,44.992799)" fill="#262324"/>
<use xlink:href="#font_6b_f" transform="matrix(11,0,0,-11,377.4673,45.10022)" fill="#262324"/>
<use xlink:href="#font_6b_8" transform="matrix(11,0,0,-11,383.18928,44.992799)" fill="#262324"/>
<use xlink:href="#font_6b_2" transform="matrix(11,0,0,-11,389.74433,45.10022)" fill="#262324"/>
<use xlink:href="#font_6b_5" transform="matrix(11,0,0,-11,396.18879,45.10022)" fill="#262324"/>
<use xlink:href="#font_6b_6" transform="matrix(11,0,0,-11,403.04179,45.10022)" fill="#262324"/>
<use xlink:href="#font_6b_5" transform="matrix(11,0,0,-11,409.37779,45.10022)" fill="#262324"/>
<use xlink:href="#font_6b_1" transform="matrix(11,0,0,-11,415.68293,44.992799)" fill="#262324"/>
<use xlink:href="#font_6b_d" transform="matrix(11,0,0,-11,419.43428,47.635377)" fill="#262324"/>
<use xlink:href="#font_6b_2" transform="matrix(11,0,0,-11,425.86833,45.10022)" fill="#262324"/>
<use xlink:href="#font_6b_e" transform="matrix(11,0,0,-11,432.66728,44.992799)" fill="#262324"/>
<use xlink:href="#font_6b_10" transform="matrix(11,0,0,-11,436.7154,45.10022)" fill="#262324"/>
<use xlink:href="#font_6b_f" transform="matrix(11,0,0,-11,441.3553,45.10022)" fill="#262324"/>
</g>
<clipPath id="cp108">
<path transform="matrix(1,0,0,-1,-58.51471,712.9695)" d="M 80.3774 579.9946 L 80.3774 643.7975 L 174.6326 643.7975 L 174.6326 579.9946 Z M 174.6326 643.7975 "/>
</clipPath>
<g clip-path="url(#cp108)">
<clipPath id="cp109">
<path transform="matrix(1,0,0,-1,-58.51471,712.9695)" d="M 97.295 581.7663 L 157.715 581.7663 L 157.715 642.1863 L 97.295 642.1863 Z "/>
</clipPath>
<g clip-path="url(#cp109)">
<path transform="matrix(1,0,0,-1,-58.51471,712.9695)" d="M 98.5034 582.8929 L 98.5034 611.8945 L 127.505 611.8945 L 127.505 582.8929 Z " fill="#7fcfeb"/>
</g>
</g>
<clipPath id="cp110">
<path transform="matrix(1,0,0,-1,-58.51471,712.9695)" d="M 80.3774 579.9946 L 80.3774 643.7975 L 174.6326 643.7975 L 174.6326 579.9946 Z M 174.6326 643.7975 "/>
</clipPath>
<g clip-path="url(#cp110)">
<clipPath id="cp111">
<path transform="matrix(1,0,0,-1,-58.51471,712.9695)" d="M 97.295 581.7663 L 157.715 581.7663 L 157.715 642.1863 L 97.295 642.1863 Z "/>
</clipPath>
<g clip-path="url(#cp111)">
<path transform="matrix(.8056,0,0,.8056,79.86589,127.17517)" stroke-width="1" stroke-linecap="butt" stroke-dasharray="2.9888,2.9888" stroke-linejoin="bevel" fill="none" stroke="#231f20" d="M -13.5 3.6016 L -13.5 -68.3984 "/>
</g>
</g>
<clipPath id="cp112">
<path transform="matrix(1,0,0,-1,-58.51471,712.9695)" d="M 80.3774 579.9946 L 80.3774 643.7975 L 174.6326 643.7975 L 174.6326 579.9946 Z M 174.6326 643.7975 "/>
</clipPath>
<g clip-path="url(#cp112)">
<clipPath id="cp113">
<path transform="matrix(1,0,0,-1,-58.51471,712.9695)" d="M 97.295 581.7663 L 157.715 581.7663 L 157.715 642.1863 L 97.295 642.1863 Z "/>
</clipPath>
<g clip-path="url(#cp113)">
<path transform="matrix(.8056,0,0,.8056,79.86589,127.17517)" stroke-width="1" stroke-linecap="butt" stroke-dasharray="2.9888,2.9888" stroke-linejoin="bevel" fill="none" stroke="#231f20" d="M -49.5 -32.3984 L 22.5 -32.3984 "/>
</g>
</g>
<clipPath id="cp114">
<path transform="matrix(1,0,0,-1,-58.51471,712.9695)" d="M 80.3774 579.9946 L 80.3774 643.7975 L 174.6326 643.7975 L 174.6326 579.9946 Z M 174.6326 643.7975 "/>
</clipPath>
<g clip-path="url(#cp114)">
<clipPath id="cp115">
<path transform="matrix(1,0,0,-1,-58.51471,712.9695)" d="M 97.295 581.7663 L 157.715 581.7663 L 157.715 642.1863 L 97.295 642.1863 Z "/>
</clipPath>
<g clip-path="url(#cp115)">
<path transform="matrix(.8056,0,0,.8056,79.86589,127.17517)" stroke-width="1" stroke-linecap="butt" stroke-linejoin="bevel" fill="none" stroke="#231f20" d="M -49.5 3.6016 L -49.5 -68.3984 L 22.5 -68.3984 L 22.5 3.6016 Z "/>
</g>
</g>
<clipPath id="cp116">
<path transform="matrix(1,0,0,-1,-58.51471,712.9695)" d="M 0 0 L 603 0 L 603 783 L 0 783 Z "/>
</clipPath>
<g clip-path="url(#cp116)">
<symbol id="font_75_3">
<path d="M .25732423 0 L .17822266 0 L .17822266 .50878909 C .17822266 .55110678 .17952474 .5911458 .1821289 .62890627 C .17529297 .6220703 .16764324 .6149089 .15917969 .6074219 C .15071614 .5999349 .111979167 .5681966 .04296875 .51220706 L 0 .5678711 L .18896485 .7138672 L .25732423 .7138672 L .25732423 0 Z "/>
</symbol>
<use xlink:href="#font_75_3" transform="matrix(11,0,0,-11,162.03786,105.34277)" fill="#262324"/>
</g>
<clipPath id="cp118">
<path transform="matrix(1,0,0,-1,-58.51471,712.9695)" d="M 274.8491 600.41 L 285.7886 600.41 L 285.7886 623.378 L 274.8491 623.378 Z "/>
</clipPath>
<g clip-path="url(#cp118)">
<path transform="matrix(1,0,0,-1,-58.51471,712.9695)" d="M 276.6891 611.1484 L 283.95948 611.1484 L 283.95948 612.06997 L 276.6891 612.06997 Z " fill="#262324"/>
<path transform="matrix(1,0,0,-1,-58.51471,712.9695)" d="M 281.8553 614.233 L 278.8745 614.233 L 278.8745 614.395 C 279.6737 614.4382 279.9005 614.665 279.9005 615.259 L 279.9005 620.1082 C 279.9005 620.4754 279.8033 620.6374 279.5765 620.6374 C 279.4685 620.6374 279.2849 620.5834 279.0905 620.5078 L 278.7989 620.3998 L 278.7989 620.551 L 280.7321 621.5338 L 280.8293 621.5014 L 280.8293 615.0538 C 280.8293 614.5894 281.0453 614.395 281.8553 614.395 L 281.8553 614.233 Z " fill="#262324"/>
<path transform="matrix(1,0,0,-1,-58.51471,712.9695)" d="M 282.7085 603.4344 L 281.5961 603.4344 L 281.5961 601.6308 L 280.7537 601.6308 L 280.7537 603.4344 L 277.7297 603.4344 L 277.7297 604.1256 L 281.1209 608.9316 L 281.5961 608.9316 L 281.5961 604.1256 L 282.7085 604.1256 L 282.7085 603.4344 Z M 280.7537 604.1256 L 280.7537 607.83 L 278.1617 604.1256 L 280.7537 604.1256 Z " fill="#262324"/>
</g>
<clipPath id="cp119">
<path transform="matrix(1,0,0,-1,-58.51471,712.9695)" d="M 0 0 L 603 0 L 603 783 L 0 783 Z "/>
</clipPath>
<g clip-path="url(#cp119)">
<symbol id="font_75_14">
<path d="M .49169923 .27783204 C .49169923 .19059246 .46972657 .122395839 .42578126 .07324219 C .38183595 .024414063 .3211263 0 .24365235 0 C .19580078 0 .15332031 .011230469 .11621094 .033691408 C .07910156 .056152345 .05045573 .088378909 .030273438 .1303711 C .0100911459 .17236328 0 .22151692 0 .27783204 C 0 .36507163 .021809897 .43294273 .06542969 .4814453 C .10904948 .53027346 .16959636 .5546875 .24707031 .5546875 C .3219401 .5546875 .38134767 .52978518 .42529298 .47998048 C .4695638 .43017579 .49169923 .36279298 .49169923 .27783204 M .083984378 .27783204 C .083984378 .20947266 .09765625 .15738933 .125 .12158203 C .15234375 .08577474 .19254558 .067871097 .24560547 .067871097 C .29866538 .067871097 .3388672 .08561198 .36621095 .12109375 C .39388023 .15690105 .40771485 .20914714 .40771485 .27783204 C .40771485 .34586589 .39388023 .39746095 .36621095 .4326172 C .3388672 .46809898 .29833985 .48583985 .2446289 .48583985 C .19156902 .48583985 .15152996 .46842448 .12451172 .43359376 C .09749349 .39876304 .083984378 .34684245 .083984378 .27783204 Z "/>
</symbol>
<symbol id="font_75_13">
<path d="M .36621095 0 L .36621095 .3461914 C .36621095 .3898112 .35628257 .42236329 .33642579 .44384767 C .316569 .46533204 .28548179 .47607423 .24316406 .47607423 C .18717449 .47607423 .14615886 .4609375 .12011719 .43066407 C .09407552 .40039063 .08105469 .3504232 .08105469 .28076173 L .08105469 0 L 0 0 L 0 .53515627 L .06591797 .53515627 L .07910156 .46191407 L .08300781 .46191407 C .099609378 .48828126 .12288412 .5086263 .15283203 .5229492 C .18277996 .53759768 .21614583 .5449219 .2529297 .5449219 C .3173828 .5449219 .3658854 .5292969 .3984375 .49804688 C .4309896 .4671224 .44726563 .41748048 .44726563 .3491211 L .44726563 0 L .36621095 0 Z "/>
</symbol>
<symbol id="font_75_e">
<path d="M .25585938 0 C .17675781 0 .11425781 .024088541 .068359378 .072265628 C .022786459 .12044271 0 .18733724 0 .27294923 C 0 .35921226 .021158854 .42773438 .06347656 .47851563 C .10611979 .5292969 .1632487 .5546875 .23486328 .5546875 C .30192057 .5546875 .35498048 .53255209 .39404298 .48828126 C .43310548 .44433595 .45263673 .38623048 .45263673 .31396485 L .45263673 .2626953 L .083984378 .2626953 C .08561198 .1998698 .10139974 .15218099 .13134766 .119628909 C .1616211 .08707682 .20410156 .07080078 .25878907 .07080078 C .31640626 .07080078 .3733724 .082845058 .4296875 .106933597 L .4296875 .03466797 C .40104167 .022298178 .3738607 .013509114 .34814454 .008300781 C .3227539 .002766927 .2919922 0 .25585938 0 M .23388672 .4868164 C .19091797 .4868164 .15657552 .472819 .13085938 .44482423 C .10546875 .41682945 .09049479 .37809245 .0859375 .32861329 L .36572267 .32861329 C .36572267 .37972007 .35432945 .41878257 .33154298 .44580079 C .3087565 .47314454 .27620445 .4868164 .23388672 .4868164 Z "/>
</symbol>
<symbol id="font_75_2">
<path d="M 0 0 L 0 .07421875 L .2397461 .07421875 L .2397461 0 L 0 0 Z "/>
</symbol>
<symbol id="font_75_f">
<path d="M .31298829 .47216798 L .17675781 .47216798 L .17675781 0 L .095703128 0 L .095703128 .47216798 L 0 .47216798 L 0 .50878909 L .095703128 .53808596 L .095703128 .5678711 C .095703128 .69938156 .15315755 .7651367 .2680664 .7651367 C .29638673 .7651367 .32958985 .7594401 .36767579 .7480469 L .3466797 .68310549 C .3154297 .6931966 .28873698 .6982422 .26660157 .6982422 C .23600261 .6982422 .2133789 .6879883 .19873047 .66748049 C .18408203 .64729818 .17675781 .6147461 .17675781 .5698242 L .17675781 .53515627 L .31298829 .53515627 L .31298829 .47216798 Z "/>
</symbol>
<symbol id="font_75_18">
<path d="M .08203125 .5449219 L .08203125 .1977539 C .08203125 .15413411 .09195963 .12158203 .111816409 .100097659 C .13167317 .07861328 .16276042 .067871097 .20507813 .067871097 C .26106773 .067871097 .30192057 .08317057 .32763673 .11376953 C .35367839 .14436849 .36669923 .19433594 .36669923 .26367188 L .36669923 .5449219 L .4477539 .5449219 L .4477539 .009765625 L .38085938 .009765625 L .36914063 .08154297 L .3647461 .08154297 C .34814454 .05517578 .32503257 .03499349 .29541017 .020996094 C .26611329 .0069986979 .23258464 0 .19482422 0 C .12972005 0 .08089193 .015462239 .048339845 .04638672 C .016113282 .077311199 0 .12679036 0 .19482422 L 0 .5449219 L .08203125 .5449219 Z "/>
</symbol>
<symbol id="font_75_15">
<path d="M .24414063 .5449219 C .26790367 .5449219 .28922526 .54296877 .30810548 .5390625 L .296875 .4638672 C .2747396 .46875 .25520835 .4711914 .23828125 .4711914 C .19498699 .4711914 .15787761 .45361329 .12695313 .41845704 C .096354167 .38330079 .08105469 .33951823 .08105469 .28710938 L .08105469 0 L 0 0 L 0 .53515627 L .06689453 .53515627 L .076171878 .43603517 L .080078128 .43603517 C .0999349 .47086589 .12386068 .49772135 .15185547 .51660159 C .17985027 .53548178 .21061199 .5449219 .24414063 .5449219 Z "/>
</symbol>
<symbol id="font_75_17">
<path d="M .24365235 .06689453 C .25797526 .06689453 .2718099 .067871097 .28515626 .06982422 C .2985026 .07210287 .30908204 .07438151 .31689454 .076660159 L .31689454 .0146484379 C .30810548 .010416667 .29508464 .0069986979 .27783204 .0043945314 C .26090495 .0014648438 .24560547 0 .2319336 0 C .12841797 0 .076660159 .05452474 .076660159 .16357422 L .076660159 .4819336 L 0 .4819336 L 0 .5209961 L .076660159 .5546875 L .110839847 .6689453 L .15771485 .6689453 L .15771485 .5449219 L .31298829 .5449219 L .31298829 .4819336 L .15771485 .4819336 L .15771485 .16699219 C .15771485 .13476563 .16536458 .11002604 .18066406 .09277344 C .19596355 .075520839 .21695964 .06689453 .24365235 .06689453 Z "/>
</symbol>
<symbol id="font_75_11">
<path d="M .36621095 0 L .36621095 .3461914 C .36621095 .3898112 .35628257 .42236329 .33642579 .44384767 C .316569 .46533204 .28548179 .47607423 .24316406 .47607423 C .18684896 .47607423 .14567058 .46077476 .119628909 .43017579 C .09391276 .3995768 .08105469 .34944663 .08105469 .27978517 L .08105469 0 L 0 0 L 0 .7597656 L .08105469 .7597656 L .08105469 .52978518 C .08105469 .5021159 .0797526 .47916667 .07714844 .4609375 L .08203125 .4609375 C .09798177 .48665367 .12060547 .50683596 .14990235 .5214844 C .17952474 .5364583 .21321614 .5439453 .25097657 .5439453 C .31640626 .5439453 .36539714 .5283203 .39794923 .4970703 C .4308268 .46614585 .44726563 .41682945 .44726563 .3491211 L .44726563 0 L .36621095 0 Z "/>
</symbol>
<use xlink:href="#font_75_14" transform="matrix(11,0,0,-11,272.32518,105.450199)" fill="#262324"/>
<use xlink:href="#font_75_13" transform="matrix(11,0,0,-11,279.2968,105.34277)" fill="#262324"/>
<use xlink:href="#font_75_e" transform="matrix(11,0,0,-11,285.7122,105.450199)" fill="#262324"/>
<use xlink:href="#font_75_2" transform="matrix(11,0,0,-11,291.71669,102.802249)" fill="#262324"/>
<use xlink:href="#font_75_f" transform="matrix(11,0,0,-11,294.95228,105.34277)" fill="#262324"/>
<use xlink:href="#font_75_14" transform="matrix(11,0,0,-11,299.1322,105.450199)" fill="#262324"/>
<use xlink:href="#font_75_18" transform="matrix(11,0,0,-11,306.0394,105.450199)" fill="#262324"/>
<use xlink:href="#font_75_15" transform="matrix(11,0,0,-11,312.84687,105.34277)" fill="#262324"/>
<use xlink:href="#font_75_17" transform="matrix(11,0,0,-11,316.55607,105.450199)" fill="#262324"/>
<use xlink:href="#font_75_11" transform="matrix(11,0,0,-11,321.21788,105.34277)" fill="#262324"/>
</g>
<clipPath id="cp120">
<path transform="matrix(1,0,0,-1,-58.51471,712.9695)" d="M 454.3927 600.41 L 465.3322 600.41 L 465.3322 623.378 L 454.3927 623.378 Z "/>
</clipPath>
<g clip-path="url(#cp120)">
<path transform="matrix(1,0,0,-1,-58.51471,712.9695)" d="M 456.2327 611.1484 L 463.50309 611.1484 L 463.50309 612.06997 L 456.2327 612.06997 Z " fill="#262324"/>
<path transform="matrix(1,0,0,-1,-58.51471,712.9695)" d="M 461.3989 614.233 L 458.4181 614.233 L 458.4181 614.395 C 459.2173 614.4382 459.4441 614.665 459.4441 615.259 L 459.4441 620.1082 C 459.4441 620.4754 459.3469 620.6374 459.1201 620.6374 C 459.0121 620.6374 458.8285 620.5834 458.6341 620.5078 L 458.3425 620.3998 L 458.3425 620.551 L 460.2757 621.5338 L 460.3729 621.5014 L 460.3729 615.0538 C 460.3729 614.5894 460.5889 614.395 461.3989 614.395 L 461.3989 614.233 Z " fill="#262324"/>
<path transform="matrix(1,0,0,-1,-58.51471,712.9695)" d="M 462.2521 603.4344 L 461.1397 603.4344 L 461.1397 601.6308 L 460.2973 601.6308 L 460.2973 603.4344 L 457.2733 603.4344 L 457.2733 604.1256 L 460.6645 608.9316 L 461.1397 608.9316 L 461.1397 604.1256 L 462.2521 604.1256 L 462.2521 603.4344 Z M 460.2973 604.1256 L 460.2973 607.83 L 457.7053 604.1256 L 460.2973 604.1256 Z " fill="#262324"/>
</g>
<clipPath id="cp121">
<path transform="matrix(1,0,0,-1,-58.51471,712.9695)" d="M 80.3774 498.6946 L 80.3774 562.4975 L 174.6326 562.4975 L 174.6326 498.6946 Z M 174.6326 562.4975 "/>
</clipPath>
<g clip-path="url(#cp121)">
<clipPath id="cp122">
<path transform="matrix(1,0,0,-1,-58.51471,712.9695)" d="M 97.295 500.4663 L 157.715 500.4663 L 157.715 560.8863 L 97.295 560.8863 Z "/>
</clipPath>
<g clip-path="url(#cp122)">
<path transform="matrix(1,0,0,-1,-58.51471,712.9695)" d="M 98.5034 501.5929 L 98.5034 530.5945 L 156.5066 530.5945 L 156.5066 501.5929 Z M 156.5066 530.5945 L 156.5066 559.5961 L 127.505 559.5961 L 127.505 530.5945 Z " fill="#7fcfeb"/>
</g>
</g>
<clipPath id="cp123">
<path transform="matrix(1,0,0,-1,-58.51471,712.9695)" d="M 80.3774 498.6946 L 80.3774 562.4975 L 174.6326 562.4975 L 174.6326 498.6946 Z M 174.6326 562.4975 "/>
</clipPath>
<g clip-path="url(#cp123)">
<clipPath id="cp124">
<path transform="matrix(1,0,0,-1,-58.51471,712.9695)" d="M 97.295 500.4663 L 157.715 500.4663 L 157.715 560.8863 L 97.295 560.8863 Z "/>
</clipPath>
<g clip-path="url(#cp124)">
<path transform="matrix(.8056,0,0,.8056,79.86589,208.47519)" stroke-width="1" stroke-linecap="butt" stroke-dasharray="2.9888,2.9888" stroke-linejoin="bevel" fill="none" stroke="#231f20" d="M -13.5 3.6016 L -13.5 -68.3984 "/>
</g>
</g>
<clipPath id="cp125">
<path transform="matrix(1,0,0,-1,-58.51471,712.9695)" d="M 80.3774 498.6946 L 80.3774 562.4975 L 174.6326 562.4975 L 174.6326 498.6946 Z M 174.6326 562.4975 "/>
</clipPath>
<g clip-path="url(#cp125)">
<clipPath id="cp126">
<path transform="matrix(1,0,0,-1,-58.51471,712.9695)" d="M 97.295 500.4663 L 157.715 500.4663 L 157.715 560.8863 L 97.295 560.8863 Z "/>
</clipPath>
<g clip-path="url(#cp126)">
<path transform="matrix(.8056,0,0,.8056,79.86589,208.47519)" stroke-width="1" stroke-linecap="butt" stroke-dasharray="2.9888,2.9888" stroke-linejoin="bevel" fill="none" stroke="#231f20" d="M -49.5 -32.3984 L 22.5 -32.3984 "/>
</g>
</g>
<clipPath id="cp127">
<path transform="matrix(1,0,0,-1,-58.51471,712.9695)" d="M 80.3774 498.6946 L 80.3774 562.4975 L 174.6326 562.4975 L 174.6326 498.6946 Z M 174.6326 562.4975 "/>
</clipPath>
<g clip-path="url(#cp127)">
<clipPath id="cp128">
<path transform="matrix(1,0,0,-1,-58.51471,712.9695)" d="M 97.295 500.4663 L 157.715 500.4663 L 157.715 560.8863 L 97.295 560.8863 Z "/>
</clipPath>
<g clip-path="url(#cp128)">
<path transform="matrix(.8056,0,0,.8056,79.86589,208.47519)" stroke-width="1" stroke-linecap="butt" stroke-linejoin="bevel" fill="none" stroke="#231f20" d="M -49.5 3.6016 L -49.5 -68.3984 L 22.5 -68.3984 L 22.5 3.6016 Z "/>
</g>
</g>
<clipPath id="cp129">
<path transform="matrix(1,0,0,-1,-58.51471,712.9695)" d="M 0 0 L 603 0 L 603 783 L 0 783 Z "/>
</clipPath>
<g clip-path="url(#cp129)">
<symbol id="font_75_5">
<path d="M .4453125 .55566409 C .4453125 .5100911 .43245445 .472819 .40673829 .44384767 C .38134767 .4148763 .34521485 .3955078 .29833985 .3857422 L .29833985 .38183595 C .3556315 .37467448 .39811198 .3564453 .42578126 .32714845 C .45345054 .29785157 .46728517 .2594401 .46728517 .21191406 C .46728517 .1438802 .4436849 .09147135 .39648438 .0546875 C .34928385 .018229166 .28222657 0 .1953125 0 C .15755208 0 .12288412 .0029296876 .091308597 .0087890629 C .060058595 .014322917 .029622397 .024251303 0 .03857422 L 0 .115722659 C .030924479 .10042318 .063802089 .08870443 .09863281 .080566409 C .13378906 .072753909 .16699219 .068847659 .19824219 .068847659 C .3216146 .068847659 .38330079 .1171875 .38330079 .21386719 C .38330079 .30045573 .31526695 .34375 .17919922 .34375 L .10888672 .34375 L .10888672 .41357423 L .18017578 .41357423 C .23583985 .41357423 .2799479 .42578126 .3125 .4501953 C .3450521 .4749349 .36132813 .50911459 .36132813 .5527344 C .36132813 .5875651 .34928385 .6149089 .3251953 .6347656 C .30143229 .6546224 .26904298 .6645508 .22802735 .6645508 C .19677735 .6645508 .1673177 .66031906 .13964844 .65185549 C .111979167 .6433919 .08040365 .6277669 .044921876 .60498049 L .00390625 .65966799 C .033203126 .68277999 .06689453 .7008464 .10498047 .7138672 C .14339192 .72721359 .18375652 .7338867 .22607422 .7338867 C .29541017 .7338867 .34928385 .7179362 .3876953 .68603518 C .42610679 .65445968 .4453125 .6110026 .4453125 .55566409 Z "/>
</symbol>
<use xlink:href="#font_75_5" transform="matrix(11,0,0,-11,161.53298,186.75019)" fill="#262324"/>
</g>
<clipPath id="cp130">
<path transform="matrix(1,0,0,-1,-58.51471,712.9695)" d="M 274.8491 519.11 L 285.7886 519.11 L 285.7886 542.078 L 274.8491 542.078 Z "/>
</clipPath>
<g clip-path="url(#cp130)">
<path transform="matrix(1,0,0,-1,-58.51471,712.9695)" d="M 276.6891 529.8484 L 283.95948 529.8484 L 283.95948 530.76998 L 276.6891 530.76998 Z " fill="#262324"/>
<path transform="matrix(1,0,0,-1,-58.51471,712.9695)" d="M 281.8553 532.933 L 278.8745 532.933 L 278.8745 533.095 C 279.6737 533.1382 279.9005 533.365 279.9005 533.959 L 279.9005 538.8082 C 279.9005 539.1754 279.8033 539.3374 279.5765 539.3374 C 279.4685 539.3374 279.2849 539.2834 279.0905 539.2078 L 278.7989 539.0998 L 278.7989 539.251 L 280.7321 540.2338 L 280.8293 540.2014 L 280.8293 533.7538 C 280.8293 533.2894 281.0453 533.095 281.8553 533.095 L 281.8553 532.933 Z " fill="#262324"/>
<path transform="matrix(1,0,0,-1,-58.51471,712.9695)" d="M 282.7085 522.1344 L 281.5961 522.1344 L 281.5961 520.3308 L 280.7537 520.3308 L 280.7537 522.1344 L 277.7297 522.1344 L 277.7297 522.8256 L 281.1209 527.6316 L 281.5961 527.6316 L 281.5961 522.8256 L 282.7085 522.8256 L 282.7085 522.1344 Z M 280.7537 522.8256 L 280.7537 526.53 L 278.1617 522.8256 L 280.7537 522.8256 Z " fill="#262324"/>
</g>
<clipPath id="cp131">
<path transform="matrix(1,0,0,-1,-58.51471,712.9695)" d="M 0 0 L 603 0 L 603 783 L 0 783 Z "/>
</clipPath>
<g clip-path="url(#cp131)">
<symbol id="font_75_16">
<path d="M .37939454 .15576172 C .37939454 .10595703 .36083985 .06754557 .32373048 .040527345 C .2866211 .013509114 .23453777 0 .16748047 0 C .09651693 0 .041178388 .011230469 .0014648438 .033691408 L .0014648438 .10888672 C .02718099 .09586588 .0546875 .08561198 .083984378 .078125 C .11360677 .07063802 .14208985 .06689453 .1694336 .06689453 C .2117513 .06689453 .24430339 .07356771 .26708985 .08691406 C .2898763 .10058594 .30126954 .12125651 .30126954 .14892578 C .30126954 .16975911 .29215495 .1875 .27392579 .20214844 C .25602214 .21712239 .22086589 .23470052 .16845703 .2548828 C .118652347 .2734375 .08317057 .28955079 .06201172 .30322267 C .041178388 .31722007 .025553385 .3330078 .015136719 .35058595 C .0050455729 .36816407 0 .38916017 0 .41357423 C 0 .457194 .017740885 .49153648 .053222658 .51660159 C .08870443 .5419922 .1373698 .5546875 .19921875 .5546875 C .25683595 .5546875 .31315104 .54296877 .36816407 .51953127 L .33935548 .45361329 C .28564454 .4757487 .23697917 .4868164 .19335938 .4868164 C .15494792 .4868164 .12597656 .48079429 .10644531 .46875 C .08691406 .45670573 .07714844 .44010417 .07714844 .4189453 C .07714844 .4046224 .080729167 .39241538 .087890628 .38232423 C .0953776 .37223307 .10725912 .36263023 .123535159 .35351563 C .1398112 .34440104 .1710612 .33121745 .21728516 .31396485 C .28076173 .29085288 .32356773 .26757813 .34570313 .24414063 C .36816407 .22070313 .37939454 .19124349 .37939454 .15576172 Z "/>
</symbol>
<use xlink:href="#font_75_17" transform="matrix(11,0,0,-11,265.2998,186.75019)" fill="#262324"/>
<use xlink:href="#font_75_11" transform="matrix(11,0,0,-11,269.9616,186.64276)" fill="#262324"/>
<use xlink:href="#font_75_15" transform="matrix(11,0,0,-11,276.70463,186.64276)" fill="#262324"/>
<use xlink:href="#font_75_e" transform="matrix(11,0,0,-11,280.865,186.75019)" fill="#262324"/>
<use xlink:href="#font_75_e" transform="matrix(11,0,0,-11,287.03599,186.75019)" fill="#262324"/>
<use xlink:href="#font_75_2" transform="matrix(11,0,0,-11,293.04048,184.10224)" fill="#262324"/>
<use xlink:href="#font_75_f" transform="matrix(11,0,0,-11,296.27607,186.64276)" fill="#262324"/>
<use xlink:href="#font_75_14" transform="matrix(11,0,0,-11,300.456,186.75019)" fill="#262324"/>
<use xlink:href="#font_75_18" transform="matrix(11,0,0,-11,307.3632,186.75019)" fill="#262324"/>
<use xlink:href="#font_75_15" transform="matrix(11,0,0,-11,314.17066,186.64276)" fill="#262324"/>
<use xlink:href="#font_75_17" transform="matrix(11,0,0,-11,317.87986,186.75019)" fill="#262324"/>
<use xlink:href="#font_75_11" transform="matrix(11,0,0,-11,322.54167,186.64276)" fill="#262324"/>
<use xlink:href="#font_75_16" transform="matrix(11,0,0,-11,328.9087,186.75019)" fill="#262324"/>
</g>
<clipPath id="cp132">
<path transform="matrix(1,0,0,-1,-58.51471,712.9695)" d="M 454.3927 519.11 L 465.3322 519.11 L 465.3322 542.078 L 454.3927 542.078 Z "/>
</clipPath>
<g clip-path="url(#cp132)">
<path transform="matrix(1,0,0,-1,-58.51471,712.9695)" d="M 456.2327 529.8484 L 463.50309 529.8484 L 463.50309 530.76998 L 456.2327 530.76998 Z " fill="#262324"/>
<path transform="matrix(1,0,0,-1,-58.51471,712.9695)" d="M 457.8025 538.5928 L 457.6297 538.636 C 457.9429 539.662 458.6233 540.3856 459.7465 540.3856 C 460.7509 540.3856 461.4313 539.7916 461.4313 538.906 C 461.4313 538.3876 461.1505 537.8476 460.4269 537.4156 C 460.9021 537.2104 461.0965 537.0808 461.3233 536.8432 C 461.6257 536.5084 461.7985 536.0116 461.7985 535.45 C 461.7985 534.8776 461.6149 534.3484 461.3017 533.938 C 460.7833 533.2468 459.7573 532.9336 458.7961 532.9336 C 458.0077 532.9336 457.5865 533.1604 457.5865 533.5492 C 457.5865 533.776 457.7809 533.938 458.0293 533.938 C 458.2129 533.938 458.3857 533.8732 458.6881 533.6572 C 459.0877 533.3764 459.3145 533.3224 459.6169 533.3224 C 460.4161 533.3224 461.0209 534.0568 461.0209 534.9748 C 461.0209 535.7956 460.6429 536.3248 459.8977 536.5408 C 459.6601 536.6164 459.4117 536.6488 458.7961 536.6488 L 458.7961 536.8 C 459.2065 536.9404 459.4873 537.0592 459.7033 537.1888 C 460.2325 537.4912 460.5781 537.9772 460.5781 538.636 C 460.5781 539.3704 460.1245 539.7376 459.4117 539.7376 C 458.7421 539.7376 458.2453 539.392 457.8025 538.5928 Z " fill="#262324"/>
<path transform="matrix(1,0,0,-1,-58.51471,712.9695)" d="M 462.2521 522.1344 L 461.1397 522.1344 L 461.1397 520.3308 L 460.2973 520.3308 L 460.2973 522.1344 L 457.2733 522.1344 L 457.2733 522.8256 L 460.6645 527.6316 L 461.1397 527.6316 L 461.1397 522.8256 L 462.2521 522.8256 L 462.2521 522.1344 Z M 460.2973 522.8256 L 460.2973 526.53 L 457.7053 522.8256 L 460.2973 522.8256 Z " fill="#262324"/>
</g>
<clipPath id="cp133">
<path transform="matrix(1,0,0,-1,-58.51471,712.9695)" d="M 80.3774 417.3946 L 80.3774 481.1975 L 174.6326 481.1975 L 174.6326 417.3946 Z M 174.6326 481.1975 "/>
</clipPath>
<g clip-path="url(#cp133)">
<clipPath id="cp134">
<path transform="matrix(1,0,0,-1,-58.51471,712.9695)" d="M 97.295 419.1663 L 157.715 419.1663 L 157.715 479.5863 L 97.295 479.5863 Z "/>
</clipPath>
<g clip-path="url(#cp134)">
<path transform="matrix(1,0,0,-1,-58.51471,712.9695)" d="M 98.5034 420.2929 L 98.5034 478.2961 L 156.5066 478.2961 L 156.5066 420.2929 Z " fill="#7fcfeb"/>
</g>
</g>
<clipPath id="cp135">
<path transform="matrix(1,0,0,-1,-58.51471,712.9695)" d="M 80.3774 417.3946 L 80.3774 481.1975 L 174.6326 481.1975 L 174.6326 417.3946 Z M 174.6326 481.1975 "/>
</clipPath>
<g clip-path="url(#cp135)">
<clipPath id="cp136">
<path transform="matrix(1,0,0,-1,-58.51471,712.9695)" d="M 97.295 419.1663 L 157.715 419.1663 L 157.715 479.5863 L 97.295 479.5863 Z "/>
</clipPath>
<g clip-path="url(#cp136)">
<path transform="matrix(.8056,0,0,.8056,79.86589,289.77519)" stroke-width="1" stroke-linecap="butt" stroke-dasharray="2.9888,2.9888" stroke-linejoin="bevel" fill="none" stroke="#231f20" d="M -13.5 3.6016 L -13.5 -68.3984 "/>
</g>
</g>
<clipPath id="cp137">
<path transform="matrix(1,0,0,-1,-58.51471,712.9695)" d="M 80.3774 417.3946 L 80.3774 481.1975 L 174.6326 481.1975 L 174.6326 417.3946 Z M 174.6326 481.1975 "/>
</clipPath>
<g clip-path="url(#cp137)">
<clipPath id="cp138">
<path transform="matrix(1,0,0,-1,-58.51471,712.9695)" d="M 97.295 419.1663 L 157.715 419.1663 L 157.715 479.5863 L 97.295 479.5863 Z "/>
</clipPath>
<g clip-path="url(#cp138)">
<path transform="matrix(.8056,0,0,.8056,79.86589,289.77519)" stroke-width="1" stroke-linecap="butt" stroke-dasharray="2.9888,2.9888" stroke-linejoin="bevel" fill="none" stroke="#231f20" d="M -49.5 -32.3984 L 22.5 -32.3984 "/>
</g>
</g>
<clipPath id="cp139">
<path transform="matrix(1,0,0,-1,-58.51471,712.9695)" d="M 80.3774 417.3946 L 80.3774 481.1975 L 174.6326 481.1975 L 174.6326 417.3946 Z M 174.6326 481.1975 "/>
</clipPath>
<g clip-path="url(#cp139)">
<clipPath id="cp140">
<path transform="matrix(1,0,0,-1,-58.51471,712.9695)" d="M 97.295 419.1663 L 157.715 419.1663 L 157.715 479.5863 L 97.295 479.5863 Z "/>
</clipPath>
<g clip-path="url(#cp140)">
<path transform="matrix(.8056,0,0,.8056,79.86589,289.77519)" stroke-width="1" stroke-linecap="butt" stroke-linejoin="bevel" fill="none" stroke="#231f20" d="M -49.5 3.6016 L -49.5 -68.3984 L 22.5 -68.3984 L 22.5 3.6016 Z "/>
</g>
</g>
<clipPath id="cp141">
<path transform="matrix(1,0,0,-1,-58.51471,712.9695)" d="M 0 0 L 603 0 L 603 783 L 0 783 Z "/>
</clipPath>
<g clip-path="url(#cp141)">
<symbol id="font_75_6">
<path d="M .5307617 .1640625 L .4248047 .1640625 L .4248047 0 L .34716798 0 L .34716798 .1640625 L 0 .1640625 L 0 .23486328 L .3388672 .71777346 L .4248047 .71777346 L .4248047 .23779297 L .5307617 .23779297 L .5307617 .1640625 M .34716798 .23779297 L .34716798 .47509767 C .34716798 .52164718 .34879557 .57421877 .35205079 .6328125 L .34814454 .6328125 C .33251954 .6015625 .3178711 .5756836 .30419923 .5551758 L .08105469 .23779297 L .34716798 .23779297 Z "/>
</symbol>
<use xlink:href="#font_75_6" transform="matrix(11,0,0,-11,161.25905,267.94279)" fill="#262324"/>
</g>
<clipPath id="cp142">
<path transform="matrix(1,0,0,-1,-58.51471,712.9695)" d="M 274.8491 437.81 L 285.7886 437.81 L 285.7886 460.77799 L 274.8491 460.77799 Z "/>
</clipPath>
<g clip-path="url(#cp142)">
<path transform="matrix(1,0,0,-1,-58.51471,712.9695)" d="M 276.6891 448.5484 L 283.95948 448.5484 L 283.95948 449.47 L 276.6891 449.47 Z " fill="#262324"/>
<path transform="matrix(1,0,0,-1,-58.51471,712.9695)" d="M 281.8553 451.633 L 278.8745 451.633 L 278.8745 451.795 C 279.6737 451.8382 279.9005 452.065 279.9005 452.659 L 279.9005 457.5082 C 279.9005 457.8754 279.8033 458.0374 279.5765 458.0374 C 279.4685 458.0374 279.2849 457.9834 279.0905 457.9078 L 278.7989 457.7998 L 278.7989 457.951 L 280.7321 458.9338 L 280.8293 458.9014 L 280.8293 452.4538 C 280.8293 451.9894 281.0453 451.795 281.8553 451.795 L 281.8553 451.633 Z " fill="#262324"/>
<path transform="matrix(1,0,0,-1,-58.51471,712.9695)" d="M 282.7085 440.8344 L 281.5961 440.8344 L 281.5961 439.0308 L 280.7537 439.0308 L 280.7537 440.8344 L 277.7297 440.8344 L 277.7297 441.5256 L 281.1209 446.3316 L 281.5961 446.3316 L 281.5961 441.5256 L 282.7085 441.5256 L 282.7085 440.8344 Z M 280.7537 441.5256 L 280.7537 445.23 L 278.1617 441.5256 L 280.7537 441.5256 Z " fill="#262324"/>
</g>
<clipPath id="cp143">
<path transform="matrix(1,0,0,-1,-58.51471,712.9695)" d="M 0 0 L 603 0 L 603 783 L 0 783 Z "/>
</clipPath>
<g clip-path="url(#cp143)">
<use xlink:href="#font_75_f" transform="matrix(11,0,0,-11,268.21626,267.94279)" fill="#262324"/>
<use xlink:href="#font_75_14" transform="matrix(11,0,0,-11,272.39619,268.0502)" fill="#262324"/>
<use xlink:href="#font_75_18" transform="matrix(11,0,0,-11,279.30339,268.0502)" fill="#262324"/>
<use xlink:href="#font_75_15" transform="matrix(11,0,0,-11,286.11085,267.94279)" fill="#262324"/>
<use xlink:href="#font_75_2" transform="matrix(11,0,0,-11,290.1047,265.40226)" fill="#262324"/>
<use xlink:href="#font_75_f" transform="matrix(11,0,0,-11,293.3403,267.94279)" fill="#262324"/>
<use xlink:href="#font_75_14" transform="matrix(11,0,0,-11,297.52024,268.0502)" fill="#262324"/>
<use xlink:href="#font_75_18" transform="matrix(11,0,0,-11,304.42744,268.0502)" fill="#262324"/>
<use xlink:href="#font_75_15" transform="matrix(11,0,0,-11,311.2349,267.94279)" fill="#262324"/>
<use xlink:href="#font_75_17" transform="matrix(11,0,0,-11,314.9441,268.0502)" fill="#262324"/>
<use xlink:href="#font_75_11" transform="matrix(11,0,0,-11,319.6059,267.94279)" fill="#262324"/>
<use xlink:href="#font_75_16" transform="matrix(11,0,0,-11,325.97294,268.0502)" fill="#262324"/>
</g>
<clipPath id="cp144">
<path transform="matrix(1,0,0,-1,-58.51471,712.9695)" d="M 454.3927 437.81 L 465.3322 437.81 L 465.3322 460.77799 L 454.3927 460.77799 Z "/>
</clipPath>
<g clip-path="url(#cp144)">
<path transform="matrix(1,0,0,-1,-58.51471,712.9695)" d="M 456.2327 448.5484 L 463.50309 448.5484 L 463.50309 449.47 L 456.2327 449.47 Z " fill="#262324"/>
<path transform="matrix(1,0,0,-1,-58.51471,712.9695)" d="M 462.2521 453.4366 L 461.1397 453.4366 L 461.1397 451.633 L 460.2973 451.633 L 460.2973 453.4366 L 457.2733 453.4366 L 457.2733 454.1278 L 460.6645 458.9338 L 461.1397 458.9338 L 461.1397 454.1278 L 462.2521 454.1278 L 462.2521 453.4366 Z M 460.2973 454.1278 L 460.2973 457.8322 L 457.7053 454.1278 L 460.2973 454.1278 Z " fill="#262324"/>
<path transform="matrix(1,0,0,-1,-58.51471,712.9695)" d="M 462.2521 440.8344 L 461.1397 440.8344 L 461.1397 439.0308 L 460.2973 439.0308 L 460.2973 440.8344 L 457.2733 440.8344 L 457.2733 441.5256 L 460.6645 446.3316 L 461.1397 446.3316 L 461.1397 441.5256 L 462.2521 441.5256 L 462.2521 440.8344 Z M 460.2973 441.5256 L 460.2973 445.23 L 457.7053 441.5256 L 460.2973 441.5256 Z " fill="#262324"/>
</g>
<clipPath id="cp145">
<path transform="matrix(1,0,0,-1,-58.51471,712.9695)" d="M 66.6025 336.0946 L 66.6025 399.8975 L 188.4117 399.8975 L 188.4117 336.0946 Z M 188.4117 399.8975 "/>
</clipPath>
<g clip-path="url(#cp145)">
<clipPath id="cp146">
<path transform="matrix(1,0,0,-1,-58.51471,712.9695)" d="M 68.2137 337.8663 L 186.6369 337.8663 L 186.6369 398.28633 L 68.2137 398.28633 Z "/>
</clipPath>
<g clip-path="url(#cp146)">
<path transform="matrix(1,0,0,-1,-58.51471,712.9695)" d="M 69.50073 338.9929 L 69.50073 396.9961 L 146.8195 396.9961 L 146.8195 338.9929 Z " fill="#7fcfeb"/>
</g>
</g>
<clipPath id="cp147">
<path transform="matrix(1,0,0,-1,-58.51471,712.9695)" d="M 66.6025 336.0946 L 66.6025 399.8975 L 188.4117 399.8975 L 188.4117 336.0946 Z M 188.4117 399.8975 "/>
</clipPath>
<g clip-path="url(#cp147)">
<clipPath id="cp148">
<path transform="matrix(1,0,0,-1,-58.51471,712.9695)" d="M 68.2137 337.8663 L 186.6369 337.8663 L 186.6369 398.28633 L 68.2137 398.28633 Z "/>
</clipPath>
<g clip-path="url(#cp148)">
<path transform="matrix(.8056,0,0,.8056,66.09099,371.0752)" stroke-width="1" stroke-linecap="butt" stroke-dasharray="2.9888,2.9888" stroke-linejoin="bevel" fill="none" stroke="#231f20" d="M -20.375 3.6016 L -20.375 -68.3984 "/>
</g>
</g>
<clipPath id="cp149">
<path transform="matrix(1,0,0,-1,-58.51471,712.9695)" d="M 66.6025 336.0946 L 66.6025 399.8975 L 188.4117 399.8975 L 188.4117 336.0946 Z M 188.4117 399.8975 "/>
</clipPath>
<g clip-path="url(#cp149)">
<clipPath id="cp150">
<path transform="matrix(1,0,0,-1,-58.51471,712.9695)" d="M 68.2137 337.8663 L 186.6369 337.8663 L 186.6369 398.28633 L 68.2137 398.28633 Z "/>
</clipPath>
<g clip-path="url(#cp150)">
<path transform="matrix(.8056,0,0,.8056,66.09099,371.0752)" stroke-width="1" stroke-linecap="butt" stroke-dasharray="2.9888,2.9888" stroke-linejoin="bevel" fill="none" stroke="#231f20" d="M 27.5742 3.6016 L 27.5742 -68.3984 "/>
</g>
</g>
<clipPath id="cp151">
<path transform="matrix(1,0,0,-1,-58.51471,712.9695)" d="M 66.6025 336.0946 L 66.6025 399.8975 L 188.4117 399.8975 L 188.4117 336.0946 Z M 188.4117 399.8975 "/>
</clipPath>
<g clip-path="url(#cp151)">
<clipPath id="cp152">
<path transform="matrix(1,0,0,-1,-58.51471,712.9695)" d="M 68.2137 337.8663 L 186.6369 337.8663 L 186.6369 398.28633 L 68.2137 398.28633 Z "/>
</clipPath>
<g clip-path="url(#cp152)">
<path transform="matrix(.8056,0,0,.8056,66.09099,371.0752)" stroke-width="1" stroke-linecap="butt" stroke-linejoin="bevel" fill="none" stroke="#231f20" d="M -68.4024 3.6016 L -68.4024 -68.3984 L 75.6016 -68.3984 L 75.6016 3.6016 Z "/>
</g>
</g>
<clipPath id="cp153">
<path transform="matrix(1,0,0,-1,-58.51471,712.9695)" d="M 0 0 L 603 0 L 603 783 L 0 783 Z "/>
</clipPath>
<g clip-path="url(#cp153)">
<symbol id="font_75_4">
<path d="M .46923829 0 L 0 0 L 0 .06982422 L .18798828 .25878907 C .24527996 .31673179 .28304038 .3580729 .30126954 .3828125 C .3194987 .4075521 .33317057 .43164063 .34228517 .45507813 C .35139976 .47851563 .35595704 .50374349 .35595704 .5307617 C .35595704 .56884768 .34440104 .5989583 .32128907 .62109377 C .2981771 .6435547 .26611329 .65478518 .22509766 .65478518 C .19547527 .65478518 .1673177 .64990237 .140625 .6401367 C .11425781 .6303711 .08479818 .6126302 .052246095 .58691409 L .009277344 .64208987 C .075032558 .69677737 .14664714 .7241211 .2241211 .7241211 C .29117839 .7241211 .34375 .70686849 .38183595 .6723633 C .41992188 .6381836 .43896485 .5921224 .43896485 .5341797 C .43896485 .48893229 .42626954 .4441732 .4008789 .39990235 C .37548829 .3556315 .32796226 .29964195 .25830079 .2319336 L .10205078 .07910156 L .10205078 .07519531 L .46923829 .07519531 L .46923829 0 Z "/>
</symbol>
<use xlink:href="#font_75_4" transform="matrix(11,0,0,-11,161.5652,349.24278)" fill="#262324"/>
</g>
<clipPath id="cp154">
<path transform="matrix(1,0,0,-1,-58.51471,712.9695)" d="M 274.8491 356.51 L 285.7886 356.51 L 285.7886 379.478 L 274.8491 379.478 Z "/>
</clipPath>
<g clip-path="url(#cp154)">
<path transform="matrix(1,0,0,-1,-58.51471,712.9695)" d="M 276.6891 367.2484 L 283.95948 367.2484 L 283.95948 368.17 L 276.6891 368.17 Z " fill="#262324"/>
<path transform="matrix(1,0,0,-1,-58.51471,712.9695)" d="M 281.8553 370.333 L 278.8745 370.333 L 278.8745 370.495 C 279.6737 370.5382 279.9005 370.765 279.9005 371.359 L 279.9005 376.2082 C 279.9005 376.5754 279.8033 376.7374 279.5765 376.7374 C 279.4685 376.7374 279.2849 376.6834 279.0905 376.6078 L 278.7989 376.4998 L 278.7989 376.651 L 280.7321 377.6338 L 280.8293 377.6014 L 280.8293 371.1538 C 280.8293 370.6894 281.0453 370.495 281.8553 370.495 L 281.8553 370.333 Z " fill="#262324"/>
<path transform="matrix(1,0,0,-1,-58.51471,712.9695)" d="M 278.2589 363.2388 L 278.0861 363.282 C 278.3993 364.308 279.0797 365.0316 280.2029 365.0316 C 281.2073 365.0316 281.8877 364.4376 281.8877 363.552 C 281.8877 363.0336 281.6069 362.4936 280.8833 362.0616 C 281.3585 361.8564 281.5529 361.7268 281.7797 361.4892 C 282.0821 361.1544 282.2549 360.6576 282.2549 360.096 C 282.2549 359.5236 282.0713 358.9944 281.7581 358.584 C 281.2397 357.8928 280.2137 357.5796 279.2525 357.5796 C 278.4641 357.5796 278.0429 357.8064 278.0429 358.1952 C 278.0429 358.422 278.2373 358.584 278.4857 358.584 C 278.6693 358.584 278.8421 358.5192 279.1445 358.3032 C 279.5441 358.0224 279.7709 357.9684 280.0733 357.9684 C 280.8725 357.9684 281.4773 358.7028 281.4773 359.6208 C 281.4773 360.4416 281.0993 360.9708 280.3541 361.1868 C 280.1165 361.2624 279.8681 361.2948 279.2525 361.2948 L 279.2525 361.446 C 279.6629 361.5864 279.9437 361.7052 280.1597 361.8348 C 280.6889 362.1372 281.0345 362.6232 281.0345 363.282 C 281.0345 364.0164 280.5809 364.3836 279.8681 364.3836 C 279.1985 364.3836 278.7017 364.038 278.2589 363.2388 Z " fill="#262324"/>
</g>
<clipPath id="cp155">
<path transform="matrix(1,0,0,-1,-58.51471,712.9695)" d="M 0 0 L 603 0 L 603 783 L 0 783 Z "/>
</clipPath>
<g clip-path="url(#cp155)">
<symbol id="font_75_1a">
<path d="M .51171877 0 L .41357423 .31396485 C .4073893 .33317057 .39583335 .37679038 .37890626 .44482423 L .375 .44482423 C .36197917 .38785807 .35058595 .34391276 .3408203 .31298829 L .2397461 0 L .1459961 0 L 0 .53515627 L .08496094 .53515627 C .11946615 .40071617 .14567058 .29833985 .16357422 .22802735 C .18180339 .15771485 .19222005 .11035156 .19482422 .0859375 L .19873047 .0859375 C .2023112 .10449219 .20800781 .12841797 .21582031 .15771485 C .22395833 .18733724 .23095703 .21077474 .2368164 .22802735 L .33496095 .53515627 L .42285157 .53515627 L .5185547 .22802735 C .5367839 .17203777 .5491536 .125 .55566409 .08691406 L .5595703 .08691406 C .5608724 .09863281 .56429037 .11669922 .5698242 .14111328 C .5756836 .16552735 .6097005 .296875 .671875 .53515627 L .7558594 .53515627 L .60791018 0 L .51171877 0 Z "/>
</symbol>
<symbol id="font_75_12">
<path d="M .087890628 0 L .0068359377 0 L .0068359377 .53515627 L .087890628 .53515627 L .087890628 0 M 0 .6801758 C 0 .69873049 .0045572917 .71223959 .013671875 .7207031 C .022786459 .7294922 .034179689 .7338867 .047851564 .7338867 C .060872396 .7338867 .07210287 .7294922 .08154297 .7207031 C .09098307 .71191409 .095703128 .69840499 .095703128 .6801758 C .095703128 .6619466 .09098307 .6482747 .08154297 .63916018 C .07210287 .6303711 .060872396 .62597659 .047851564 .62597659 C .034179689 .62597659 .022786459 .6303711 .013671875 .63916018 C .0045572917 .6482747 0 .6619466 0 .6801758 Z "/>
</symbol>
<symbol id="font_75_d">
<path d="M .39404298 .08154297 L .38964845 .08154297 C .35221354 .02718099 .29622398 0 .22167969 0 C .1516927 0 .09716797 .023925782 .05810547 .071777347 C .01936849 .119628909 0 .18766277 0 .2758789 C 0 .36409507 .01953125 .4326172 .05859375 .4814453 C .09765625 .53027346 .15201824 .5546875 .22167969 .5546875 C .29427085 .5546875 .3499349 .5283203 .38867188 .47558595 L .39501954 .47558595 L .39160157 .51416018 L .38964845 .5517578 L .38964845 .76953127 L .47070313 .76953127 L .47070313 .009765625 L .40478517 .009765625 L .39404298 .08154297 M .2319336 .067871097 C .28727214 .067871097 .3273112 .082845058 .35205079 .11279297 C .37711589 .1430664 .38964845 .19173177 .38964845 .25878907 L .38964845 .2758789 C .38964845 .35172526 .37695313 .40576173 .3515625 .43798829 C .3264974 .47054038 .28629557 .4868164 .23095703 .4868164 C .18343099 .4868164 .14697266 .46826173 .12158203 .43115235 C .09651693 .3943685 .083984378 .34228517 .083984378 .27490235 C .083984378 .20654297 .09651693 .15494792 .12158203 .12011719 C .14664714 .08528646 .18343099 .067871097 .2319336 .067871097 Z "/>
</symbol>
<use xlink:href="#font_75_17" transform="matrix(11,0,0,-11,273.292,349.3502)" fill="#262324"/>
<use xlink:href="#font_75_1a" transform="matrix(11,0,0,-11,277.13203,349.24278)" fill="#262324"/>
<use xlink:href="#font_75_14" transform="matrix(11,0,0,-11,286.1732,349.3502)" fill="#262324"/>
<use xlink:href="#font_75_2" transform="matrix(11,0,0,-11,292.6507,346.70225)" fill="#262324"/>
<use xlink:href="#font_75_17" transform="matrix(11,0,0,-11,295.89704,349.3502)" fill="#262324"/>
<use xlink:href="#font_75_11" transform="matrix(11,0,0,-11,300.55885,349.24278)" fill="#262324"/>
<use xlink:href="#font_75_12" transform="matrix(11,0,0,-11,307.22666,349.24278)" fill="#262324"/>
<use xlink:href="#font_75_15" transform="matrix(11,0,0,-11,310.07386,349.24278)" fill="#262324"/>
<use xlink:href="#font_75_d" transform="matrix(11,0,0,-11,314.23423,349.3502)" fill="#262324"/>
<use xlink:href="#font_75_16" transform="matrix(11,0,0,-11,320.9179,349.3502)" fill="#262324"/>
</g>
<clipPath id="cp156">
<path transform="matrix(1,0,0,-1,-58.51471,712.9695)" d="M 454.3927 356.51 L 465.3322 356.51 L 465.3322 379.478 L 454.3927 379.478 Z "/>
</clipPath>
<g clip-path="url(#cp156)">
<path transform="matrix(1,0,0,-1,-58.51471,712.9695)" d="M 456.2327 367.2484 L 463.50309 367.2484 L 463.50309 368.17 L 456.2327 368.17 Z " fill="#262324"/>
<path transform="matrix(1,0,0,-1,-58.51471,712.9695)" d="M 462.2629 371.8126 L 461.6797 370.333 L 457.4569 370.333 L 457.4569 370.4626 L 459.3793 372.5038 C 460.3945 373.573 460.7833 374.3938 460.7833 375.3118 C 460.7833 376.2946 460.2001 376.8346 459.2821 376.8346 C 458.5045 376.8346 458.1265 376.489 457.6945 375.4306 L 457.4677 375.4846 C 457.6945 376.7482 458.3857 377.6338 459.7141 377.6338 C 460.9345 377.6338 461.7121 376.8022 461.7121 375.733 C 461.7121 374.8798 461.2909 374.0698 460.3297 373.0546 L 458.5477 371.1538 L 461.0749 371.1538 C 461.5285 371.1538 461.7553 371.2726 462.1117 371.8774 Z " fill="#262324"/>
<path transform="matrix(1,0,0,-1,-58.51471,712.9695)" d="M 457.8025 363.2388 L 457.6297 363.282 C 457.9429 364.308 458.6233 365.0316 459.7465 365.0316 C 460.7509 365.0316 461.4313 364.4376 461.4313 363.552 C 461.4313 363.0336 461.1505 362.4936 460.4269 362.0616 C 460.9021 361.8564 461.0965 361.7268 461.3233 361.4892 C 461.6257 361.1544 461.7985 360.6576 461.7985 360.096 C 461.7985 359.5236 461.6149 358.9944 461.3017 358.584 C 460.7833 357.8928 459.7573 357.5796 458.7961 357.5796 C 458.0077 357.5796 457.5865 357.8064 457.5865 358.1952 C 457.5865 358.422 457.7809 358.584 458.0293 358.584 C 458.2129 358.584 458.3857 358.5192 458.6881 358.3032 C 459.0877 358.0224 459.3145 357.9684 459.6169 357.9684 C 460.4161 357.9684 461.0209 358.7028 461.0209 359.6208 C 461.0209 360.4416 460.6429 360.9708 459.8977 361.1868 C 459.6601 361.2624 459.4117 361.2948 458.7961 361.2948 L 458.7961 361.446 C 459.2065 361.5864 459.4873 361.7052 459.7033 361.8348 C 460.2325 362.1372 460.5781 362.6232 460.5781 363.282 C 460.5781 364.0164 460.1245 364.3836 459.4117 364.3836 C 458.7421 364.3836 458.2453 364.038 457.8025 363.2388 Z " fill="#262324"/>
</g>
<clipPath id="cp157">
<path transform="matrix(1,0,0,-1,-58.51471,712.9695)" d="M 66.6025 254.7946 L 66.6025 318.5975 L 188.4117 318.5975 L 188.4117 254.7946 Z M 188.4117 318.5975 "/>
</clipPath>
<g clip-path="url(#cp157)">
<clipPath id="cp158">
<path transform="matrix(1,0,0,-1,-58.51471,712.9695)" d="M 68.2137 256.5663 L 186.6369 256.5663 L 186.6369 316.98634 L 68.2137 316.98634 Z "/>
</clipPath>
<g clip-path="url(#cp158)">
<path transform="matrix(1,0,0,-1,-58.51471,712.9695)" d="M 69.50073 315.6961 L 69.50073 286.6945 L 156.5087 286.6945 L 156.5087 315.6961 Z " fill="#7fcfeb"/>
</g>
</g>
<clipPath id="cp159">
<path transform="matrix(1,0,0,-1,-58.51471,712.9695)" d="M 66.6025 254.7946 L 66.6025 318.5975 L 188.4117 318.5975 L 188.4117 254.7946 Z M 188.4117 318.5975 "/>
</clipPath>
<g clip-path="url(#cp159)">
<clipPath id="cp160">
<path transform="matrix(1,0,0,-1,-58.51471,712.9695)" d="M 68.2137 256.5663 L 186.6369 256.5663 L 186.6369 316.98634 L 68.2137 316.98634 Z "/>
</clipPath>
<g clip-path="url(#cp160)">
<path transform="matrix(.8056,0,0,.8056,66.09099,452.37519)" stroke-width="1" stroke-linecap="butt" stroke-dasharray="2.9888,2.9888" stroke-linejoin="bevel" fill="none" stroke="#231f20" d="M -32.3984 3.6016 L -32.3984 -68.3984 "/>
</g>
</g>
<clipPath id="cp161">
<path transform="matrix(1,0,0,-1,-58.51471,712.9695)" d="M 66.6025 254.7946 L 66.6025 318.5975 L 188.4117 318.5975 L 188.4117 254.7946 Z M 188.4117 318.5975 "/>
</clipPath>
<g clip-path="url(#cp161)">
<clipPath id="cp162">
<path transform="matrix(1,0,0,-1,-58.51471,712.9695)" d="M 68.2137 256.5663 L 186.6369 256.5663 L 186.6369 316.98634 L 68.2137 316.98634 Z "/>
</clipPath>
<g clip-path="url(#cp162)">
<path transform="matrix(.8056,0,0,.8056,66.09099,452.37519)" stroke-width="1" stroke-linecap="butt" stroke-dasharray="2.9888,2.9888" stroke-linejoin="bevel" fill="none" stroke="#231f20" d="M 3.6016 3.6016 L 3.6016 -68.3984 "/>
</g>
</g>
<clipPath id="cp163">
<path transform="matrix(1,0,0,-1,-58.51471,712.9695)" d="M 66.6025 254.7946 L 66.6025 318.5975 L 188.4117 318.5975 L 188.4117 254.7946 Z M 188.4117 318.5975 "/>
</clipPath>
<g clip-path="url(#cp163)">
<clipPath id="cp164">
<path transform="matrix(1,0,0,-1,-58.51471,712.9695)" d="M 68.2137 256.5663 L 186.6369 256.5663 L 186.6369 316.98634 L 68.2137 316.98634 Z "/>
</clipPath>
<g clip-path="url(#cp164)">
<path transform="matrix(.8056,0,0,.8056,66.09099,452.37519)" stroke-width="1" stroke-linecap="butt" stroke-dasharray="2.9888,2.9888" stroke-linejoin="bevel" fill="none" stroke="#231f20" d="M 39.6016 3.6016 L 39.6016 -68.3984 "/>
</g>
</g>
<clipPath id="cp165">
<path transform="matrix(1,0,0,-1,-58.51471,712.9695)" d="M 66.6025 254.7946 L 66.6025 318.5975 L 188.4117 318.5975 L 188.4117 254.7946 Z M 188.4117 318.5975 "/>
</clipPath>
<g clip-path="url(#cp165)">
<clipPath id="cp166">
<path transform="matrix(1,0,0,-1,-58.51471,712.9695)" d="M 68.2137 256.5663 L 186.6369 256.5663 L 186.6369 316.98634 L 68.2137 316.98634 Z "/>
</clipPath>
<g clip-path="url(#cp166)">
<path transform="matrix(.8056,0,0,.8056,66.09099,452.37519)" stroke-width="1" stroke-linecap="butt" stroke-dasharray="2.9888,2.9888" stroke-linejoin="bevel" fill="none" stroke="#231f20" d="M -68.4024 -32.3984 L 75.6016 -32.3984 "/>
</g>
</g>
<clipPath id="cp167">
<path transform="matrix(1,0,0,-1,-58.51471,712.9695)" d="M 66.6025 254.7946 L 66.6025 318.5975 L 188.4117 318.5975 L 188.4117 254.7946 Z M 188.4117 318.5975 "/>
</clipPath>
<g clip-path="url(#cp167)">
<clipPath id="cp168">
<path transform="matrix(1,0,0,-1,-58.51471,712.9695)" d="M 68.2137 256.5663 L 186.6369 256.5663 L 186.6369 316.98634 L 68.2137 316.98634 Z "/>
</clipPath>
<g clip-path="url(#cp168)">
<path transform="matrix(.8056,0,0,.8056,66.09099,452.37519)" stroke-width="1" stroke-linecap="butt" stroke-linejoin="bevel" fill="none" stroke="#231f20" d="M -68.4024 3.6016 L -68.4024 -68.3984 L 75.6016 -68.3984 L 75.6016 3.6016 Z "/>
</g>
</g>
<clipPath id="cp169">
<path transform="matrix(1,0,0,-1,-58.51471,712.9695)" d="M 0 0 L 603 0 L 603 783 L 0 783 Z "/>
</clipPath>
<g clip-path="url(#cp169)">
<use xlink:href="#font_75_5" transform="matrix(11,0,0,-11,161.53298,430.6502)" fill="#262324"/>
</g>
<clipPath id="cp170">
<path transform="matrix(1,0,0,-1,-58.51471,712.9695)" d="M 274.8491 275.21 L 285.7886 275.21 L 285.7886 298.17799 L 274.8491 298.17799 Z "/>
</clipPath>
<g clip-path="url(#cp170)">
<path transform="matrix(1,0,0,-1,-58.51471,712.9695)" d="M 276.6891 285.9484 L 283.95948 285.9484 L 283.95948 286.87 L 276.6891 286.87 Z " fill="#262324"/>
<path transform="matrix(1,0,0,-1,-58.51471,712.9695)" d="M 281.8553 289.033 L 278.8745 289.033 L 278.8745 289.195 C 279.6737 289.2382 279.9005 289.465 279.9005 290.059 L 279.9005 294.9082 C 279.9005 295.2754 279.8033 295.4374 279.5765 295.4374 C 279.4685 295.4374 279.2849 295.3834 279.0905 295.3078 L 278.7989 295.1998 L 278.7989 295.351 L 280.7321 296.3338 L 280.8293 296.3014 L 280.8293 289.8538 C 280.8293 289.3894 281.0453 289.195 281.8553 289.195 L 281.8553 289.033 Z " fill="#262324"/>
<path transform="matrix(1,0,0,-1,-58.51471,712.9695)" d="M 282.4061 278.1048 C 282.4061 276.9924 281.5745 276.2796 280.2785 276.2796 C 279.0581 276.2796 278.2049 277.0248 278.2049 278.04 C 278.2049 278.7852 278.4533 279.2064 279.6089 280.0164 C 278.4965 280.9344 278.2697 281.3448 278.2697 282.0468 C 278.2697 283.0836 279.1661 283.7316 280.3649 283.7316 C 281.4341 283.7316 282.1793 283.0296 282.1793 282.1872 C 282.1793 281.3772 281.8013 281.01 280.7321 280.4376 C 282.0605 279.552 282.4061 278.9688 282.4061 278.1048 Z M 281.4341 282.1872 C 281.4341 282.9324 280.9913 283.4292 280.2569 283.4292 C 279.5333 283.4292 279.0689 283.0296 279.0689 282.36 C 279.0689 281.6904 279.4685 281.1936 280.4189 280.632 C 281.1533 281.064 281.4341 281.5176 281.4341 282.1872 Z M 280.5269 279.3684 L 279.8897 279.8004 C 279.2525 279.282 279.0257 278.8392 279.0257 278.1372 C 279.0257 277.1436 279.5765 276.582 280.3973 276.582 C 281.0993 276.582 281.5853 277.068 281.5853 277.77 C 281.5853 278.4396 281.2613 278.8716 280.5269 279.3684 Z " fill="#262324"/>
</g>
<clipPath id="cp171">
<path transform="matrix(1,0,0,-1,-58.51471,712.9695)" d="M 0 0 L 603 0 L 603 783 L 0 783 Z "/>
</clipPath>
<g clip-path="url(#cp171)">
<symbol id="font_75_10">
<path d="M .5048828 .7753906 L .5048828 .7241211 L .40576173 .71240237 C .4148763 .7010091 .4230143 .68603518 .43017579 .66748049 C .43733726 .6492513 .44091798 .62858077 .44091798 .60546877 C .44091798 .5530599 .4230143 .51123049 .38720704 .47998048 C .35139976 .44873048 .3022461 .43310548 .2397461 .43310548 C .22379558 .43310548 .20882161 .43440757 .19482422 .43701173 C .16031902 .41878257 .1430664 .39583335 .1430664 .36816407 C .1430664 .35351563 .14908855 .3426107 .16113281 .33544923 C .17317708 .32861329 .19384766 .3251953 .22314453 .3251953 L .3178711 .3251953 C .3758138 .3251953 .4202474 .31298829 .45117188 .28857423 C .48242188 .26416017 .49804688 .22867839 .49804688 .1821289 C .49804688 .12288412 .47428385 .07779948 .4267578 .046875 C .37923179 .015625 .30989585 0 .21875 0 C .14876302 0 .09472656 .013020833 .056640626 .0390625 C .018880209 .065104167 0 .10188802 0 .14941406 C 0 .18196614 .010416667 .2101237 .03125 .23388672 C .052083333 .25764976 .08138021 .27376304 .119140628 .28222657 C .10546875 .28841148 .09391276 .2980143 .084472659 .31103517 C .07535807 .324056 .07080078 .33919273 .07080078 .3564453 C .07080078 .37597657 .07600912 .3930664 .08642578 .40771485 C .096842449 .42236329 .11328125 .43652345 .13574219 .4501953 C .108072917 .46158854 .08544922 .48095704 .067871097 .5083008 C .05061849 .53564456 .041992189 .56689456 .041992189 .6020508 C .041992189 .66064456 .059570314 .7057292 .09472656 .7373047 C .12988281 .76920577 .1796875 .78515627 .24414063 .78515627 C .2721354 .78515627 .29736329 .78190109 .31982423 .7753906 L .5048828 .7753906 M .078125 .15039063 C .078125 .12141927 .09033203 .09944662 .114746097 .084472659 C .13916016 .069498699 .17415364 .06201172 .21972656 .06201172 C .2877604 .06201172 .33805339 .072265628 .37060548 .09277344 C .40348307 .11295573 .41992188 .14046224 .41992188 .17529297 C .41992188 .20426433 .41097007 .22444661 .3930664 .23583985 C .37516276 .24690755 .34147135 .2524414 .2919922 .2524414 L .19482422 .2524414 C .15804036 .2524414 .12939453 .24365235 .10888672 .22607422 C .088378909 .2084961 .078125 .18326824 .078125 .15039063 M .12207031 .6040039 C .12207031 .56656906 .13264974 .5382487 .1538086 .51904299 C .17496746 .49983726 .20442708 .49023438 .2421875 .49023438 C .32128907 .49023438 .36083985 .5286458 .36083985 .60546877 C .36083985 .6858724 .32080079 .7260742 .24072266 .7260742 C .20263672 .7260742 .17333985 .7158203 .15283203 .6953125 C .13232422 .6748047 .12207031 .64436849 .12207031 .6040039 Z "/>
</symbol>
<use xlink:href="#font_75_17" transform="matrix(11,0,0,-11,265.2407,430.6502)" fill="#262324"/>
<use xlink:href="#font_75_11" transform="matrix(11,0,0,-11,269.9025,430.5428)" fill="#262324"/>
<use xlink:href="#font_75_15" transform="matrix(11,0,0,-11,276.6455,430.5428)" fill="#262324"/>
<use xlink:href="#font_75_e" transform="matrix(11,0,0,-11,280.80589,430.6502)" fill="#262324"/>
<use xlink:href="#font_75_e" transform="matrix(11,0,0,-11,286.97688,430.6502)" fill="#262324"/>
<use xlink:href="#font_75_2" transform="matrix(11,0,0,-11,292.98136,428.00227)" fill="#262324"/>
<use xlink:href="#font_75_e" transform="matrix(11,0,0,-11,296.67887,430.6502)" fill="#262324"/>
<use xlink:href="#font_75_12" transform="matrix(11,0,0,-11,303.1023,430.5428)" fill="#262324"/>
<use xlink:href="#font_75_10" transform="matrix(11,0,0,-11,305.21366,433.18537)" fill="#262324"/>
<use xlink:href="#font_75_11" transform="matrix(11,0,0,-11,311.96653,430.5428)" fill="#262324"/>
<use xlink:href="#font_75_17" transform="matrix(11,0,0,-11,317.93074,430.6502)" fill="#262324"/>
<use xlink:href="#font_75_11" transform="matrix(11,0,0,-11,322.59254,430.5428)" fill="#262324"/>
<use xlink:href="#font_75_16" transform="matrix(11,0,0,-11,328.95957,430.6502)" fill="#262324"/>
</g>
<clipPath id="cp172">
<path transform="matrix(1,0,0,-1,-58.51471,712.9695)" d="M 454.3927 275.21 L 465.3322 275.21 L 465.3322 298.17799 L 454.3927 298.17799 Z "/>
</clipPath>
<g clip-path="url(#cp172)">
<path transform="matrix(1,0,0,-1,-58.51471,712.9695)" d="M 456.2327 285.9484 L 463.50309 285.9484 L 463.50309 286.87 L 456.2327 286.87 Z " fill="#262324"/>
<path transform="matrix(1,0,0,-1,-58.51471,712.9695)" d="M 457.8025 294.6928 L 457.6297 294.736 C 457.9429 295.762 458.6233 296.4856 459.7465 296.4856 C 460.7509 296.4856 461.4313 295.8916 461.4313 295.006 C 461.4313 294.4876 461.1505 293.9476 460.4269 293.5156 C 460.9021 293.3104 461.0965 293.1808 461.3233 292.9432 C 461.6257 292.6084 461.7985 292.1116 461.7985 291.55 C 461.7985 290.9776 461.6149 290.4484 461.3017 290.038 C 460.7833 289.3468 459.7573 289.0336 458.7961 289.0336 C 458.0077 289.0336 457.5865 289.2604 457.5865 289.6492 C 457.5865 289.876 457.7809 290.038 458.0293 290.038 C 458.2129 290.038 458.3857 289.9732 458.6881 289.7572 C 459.0877 289.4764 459.3145 289.4224 459.6169 289.4224 C 460.4161 289.4224 461.0209 290.1568 461.0209 291.0748 C 461.0209 291.8956 460.6429 292.4248 459.8977 292.6408 C 459.6601 292.7164 459.4117 292.7488 458.7961 292.7488 L 458.7961 292.9 C 459.2065 293.0404 459.4873 293.1592 459.7033 293.2888 C 460.2325 293.5912 460.5781 294.0772 460.5781 294.736 C 460.5781 295.4704 460.1245 295.8376 459.4117 295.8376 C 458.7421 295.8376 458.2453 295.492 457.8025 294.6928 Z " fill="#262324"/>
<path transform="matrix(1,0,0,-1,-58.51471,712.9695)" d="M 461.9497 278.1048 C 461.9497 276.9924 461.1181 276.2796 459.8221 276.2796 C 458.6017 276.2796 457.7485 277.0248 457.7485 278.04 C 457.7485 278.7852 457.9969 279.2064 459.1525 280.0164 C 458.0401 280.9344 457.8133 281.3448 457.8133 282.0468 C 457.8133 283.0836 458.7097 283.7316 459.9085 283.7316 C 460.9777 283.7316 461.7229 283.0296 461.7229 282.1872 C 461.7229 281.3772 461.3449 281.01 460.2757 280.4376 C 461.6041 279.552 461.9497 278.9688 461.9497 278.1048 Z M 460.9777 282.1872 C 460.9777 282.9324 460.5349 283.4292 459.8005 283.4292 C 459.0769 283.4292 458.6125 283.0296 458.6125 282.36 C 458.6125 281.6904 459.0121 281.1936 459.9625 280.632 C 460.6969 281.064 460.9777 281.5176 460.9777 282.1872 Z M 460.0705 279.3684 L 459.4333 279.8004 C 458.7961 279.282 458.5693 278.8392 458.5693 278.1372 C 458.5693 277.1436 459.1201 276.582 459.9409 276.582 C 460.6429 276.582 461.1289 277.068 461.1289 277.77 C 461.1289 278.4396 460.8049 278.8716 460.0705 279.3684 Z " fill="#262324"/>
</g>
<clipPath id="cp173">
<path transform="matrix(1,0,0,-1,-58.51471,712.9695)" d="M 0 0 L 603 0 L 603 783 L 0 783 Z "/>
</clipPath>
<g clip-path="url(#cp173)">
<use xlink:href="#font_75_6" transform="matrix(10,0,0,-10,-15.104748,673.64889)" fill="#231f20"/>
<symbol id="font_75_a">
<path d="M .35107423 .38378907 L .59375 .38378907 L .59375 .036621095 C .55598959 .024576823 .5175781 .015462239 .47851563 .009277344 C .43945313 .003092448 .39420573 0 .34277345 0 C .23470052 0 .15055339 .0320638 .09033203 .096191409 C .030110678 .16064453 0 .2508138 0 .36669923 C 0 .44091798 .014811198 .5058594 .044433595 .56152346 C .07438151 .617513 .11735026 .66015627 .17333985 .6894531 C .22932942 .7190755 .29492188 .7338867 .3701172 .7338867 C .44628907 .7338867 .5172526 .71988937 .5830078 .69189456 L .55078127 .61865237 C .48632813 .6459961 .4243164 .65966799 .3647461 .65966799 C .27783204 .65966799 .20996094 .63378909 .16113281 .58203127 C .11230469 .53027346 .087890628 .4584961 .087890628 .36669923 C .087890628 .27034507 .111328128 .19726563 .15820313 .14746094 C .20540364 .09765625 .2745768 .072753909 .36572267 .072753909 C .4152018 .072753909 .46354167 .07845052 .5107422 .08984375 L .5107422 .3095703 L .35107423 .3095703 L .35107423 .38378907 Z "/>
</symbol>
<symbol id="font_75_c">
<path d="M .36914063 .009765625 L .35302735 .0859375 L .3491211 .0859375 C .32242839 .052408857 .2957357 .029622397 .26904298 .017578125 C .24267578 .005859375 .20963542 0 .16992188 0 C .11686198 0 .07519531 .013671875 .044921876 .041015626 C .014973958 .068359378 0 .10725912 0 .15771485 C 0 .26578776 .08642578 .32242839 .25927735 .32763673 L .35009767 .3305664 L .35009767 .36376954 C .35009767 .40576173 .34098307 .4366862 .3227539 .45654298 C .30485026 .47672526 .27604167 .4868164 .23632813 .4868164 C .19173177 .4868164 .14127605 .47314454 .08496094 .44580079 L .060058595 .5078125 C .08642578 .52213546 .115234378 .5333659 .14648438 .5415039 C .17805989 .5496419 .20963542 .55371096 .24121094 .55371096 C .30501304 .55371096 .35221354 .5395508 .3828125 .51123049 C .41373698 .48291017 .42919923 .4375 .42919923 .375 L .42919923 .009765625 L .36914063 .009765625 M .18603516 .06689453 C .23649089 .06689453 .27604167 .080729167 .3046875 .10839844 C .33365885 .1360677 .34814454 .17480469 .34814454 .22460938 L .34814454 .27294923 L .26708985 .26953126 C .20263672 .2672526 .15608724 .25716148 .1274414 .23925781 C .099121097 .22167969 .08496094 .19417317 .08496094 .15673828 C .08496094 .1274414 .09375 .10514323 .111328128 .08984375 C .12923177 .07454427 .15413411 .06689453 .18603516 .06689453 Z "/>
</symbol>
<symbol id="font_75_1">
<path d="M 0 0 Z "/>
</symbol>
<use xlink:href="#font_75_a" transform="matrix(10,0,0,-10,394.36796,672.54299)" fill="#231f20"/>
<use xlink:href="#font_75_15" transform="matrix(10,0,0,-10,401.89698,672.4453)" fill="#231f20"/>
<use xlink:href="#font_75_c" transform="matrix(10,0,0,-10,405.57658,672.54299)" fill="#231f20"/>
<use xlink:href="#font_75_d" transform="matrix(10,0,0,-10,411.2391,672.54299)" fill="#231f20"/>
<use xlink:href="#font_75_e" transform="matrix(10,0,0,-10,417.3591,672.54299)" fill="#231f20"/>
<use xlink:href="#font_75_1" transform="matrix(10,0,0,-10,422.4076,672.4453)" fill="#231f20"/>
<use xlink:href="#font_75_5" transform="matrix(10,0,0,-10,425.45658,672.54299)" fill="#231f20"/>
</g>
<clipPath id="cp174">
<path transform="matrix(1,0,0,-1,-58.51471,712.9695)" d="M 499.2498 34.1964 L 521 34.1964 L 521 52.1964 L 499.2498 52.1964 Z "/>
</clipPath>
<g clip-path="url(#cp174)">
<path transform="matrix(1,0,0,-1,-58.51471,712.9695)" d="M 508.7329 44.98905 L 508.7329 34.08188 L 512.6388 34.08188 L 508.7329 44.98905 Z " fill="#7f4d9f"/>
<path transform="matrix(1,0,0,-1,-58.51471,712.9695)" d="M 520.6017 44.98905 L 517.1537 34.08188 L 520.6017 34.08188 L 520.6017 44.98905 Z " fill="#7f4d9f"/>
<path transform="matrix(1,0,0,-1,-58.51471,712.9695)" d="M 512.0115 52.03156 L 514.9146 40.7718 L 517.7948 52.03156 L 512.0115 52.03156 Z " fill="#7f4d9f"/>
<path transform="matrix(1,0,0,-1,-58.51471,712.9695)" d="M 499.3002 45.33706 L 504.1676 45.33706 L 504.1676 34.0773 L 499.3002 34.0773 Z " fill="#7f4d9f"/>
<path transform="matrix(1,0,0,-1,-58.51471,712.9695)" d="M 499.7306 49.9069 C 499.7356 51.13993 500.7366 52.13687 501.9697 52.13687 C 503.2057 52.13687 504.2088 51.13375 504.2089 49.89774 C 504.2089 48.66178 503.2057 47.65861 501.9697 47.65861 C 501.9667 47.65861 501.9636 47.65861 501.9606 47.65861 C 500.7246 47.66369 499.7256 48.67089 499.7306 49.9069 Z " fill="#7f4d9f"/>
</g>
</g>
</svg>
