<?xml version="1.0" encoding="UTF-8" standalone="no"?>
<!DOCTYPE svg PUBLIC "-//W3C//DTD SVG 1.1//EN" "http://www.w3.org/Graphics/SVG/1.1/DTD/svg11.dtd">
<svg xmlns="http://www.w3.org/2000/svg" xmlns:xlink="http://www.w3.org/1999/xlink" version="1.1" width="457.8462pt" height="372.7059pt" viewBox="0 0 457.8462 372.7059">
<g enable-background="new">
<clipPath id="cp175">
<path transform="matrix(1,0,0,-1,-86.65611,712.5373)" d="M 0 0 L 603 0 L 603 783 L 0 783 Z "/>
</clipPath>
<g clip-path="url(#cp175)">
<path transform="matrix(1,0,0,-1,-86.65611,712.5373)" d="M 72 50.4 L 559.8 50.4 L 559.8 747 L 72 747 Z " fill="#ffffff" fill-rule="evenodd"/>
<path transform="matrix(1,0,0,-1,-86.65611,712.5373)" d="M 91.906 653.294 L 539.894 653.294 L 539.394 652.294 L 92.406 652.294 Z " fill="#231f20"/>
<path transform="matrix(1,0,0,-1,-86.65611,712.5373)" d="M 91.906 571.494 L 539.894 571.494 L 539.394 570.994 L 92.406 570.994 Z " fill="#d6d9d8"/>
<path transform="matrix(1,0,0,-1,-86.65611,712.5373)" d="M 91.906 490.194 L 539.894 490.194 L 539.394 489.694 L 92.406 489.694 Z " fill="#d6d9d8"/>
<path transform="matrix(1,0,0,-1,-86.65611,712.5373)" d="M 220.956 708.144 L 220.956 652.294 L 219.956 653.294 L 219.956 707.144 Z " fill="#231f20"/>
<path transform="matrix(1,0,0,-1,-86.65611,712.5373)" d="M 220.706 653.294 L 220.706 344.594 L 220.206 345.094 L 220.206 652.294 Z " fill="#d6d9d8"/>
<path transform="matrix(1,0,0,-1,-86.65611,712.5373)" d="M 283.0203 708.144 L 283.0203 652.294 L 282.0203 653.294 L 282.0203 707.144 Z " fill="#231f20"/>
<path transform="matrix(1,0,0,-1,-86.65611,712.5373)" d="M 282.7703 653.294 L 282.7703 344.594 L 282.2703 345.094 L 282.2703 652.294 Z " fill="#d6d9d8"/>
<path transform="matrix(1,0,0,-1,-86.65611,712.5373)" d="M 336.2183 708.144 L 336.2183 652.294 L 335.2183 653.294 L 335.2183 707.144 Z " fill="#231f20"/>
<path transform="matrix(1,0,0,-1,-86.65611,712.5373)" d="M 335.9683 653.294 L 335.9683 344.594 L 335.4683 345.094 L 335.4683 652.294 Z " fill="#d6d9d8"/>
<path transform="matrix(1,0,0,-1,-86.65611,712.5373)" d="M 438.1812 708.144 L 438.1812 652.294 L 437.1812 653.294 L 437.1812 707.144 Z " fill="#231f20"/>
<path transform="matrix(1,0,0,-1,-86.65611,712.5373)" d="M 437.9312 653.294 L 437.9312 344.594 L 437.4312 345.094 L 437.4312 652.294 Z " fill="#d6d9d8"/>
<path transform="matrix(1,0,0,-1,-86.65611,712.5373)" d="M 91.656 708.144 L 540.144 708.144 L 539.144 707.144 L 92.656 707.144 Z " fill="#231f20"/>
<path transform="matrix(1,0,0,-1,-86.65611,712.5373)" d="M 539.894 344.594 L 91.906 344.594 L 92.406 345.094 L 539.394 345.094 Z " fill="#d6d9d8"/>
<path transform="matrix(1,0,0,-1,-86.65611,712.5373)" d="M 91.656 652.294 L 91.656 708.144 L 92.656 707.144 L 92.656 653.294 Z " fill="#231f20"/>
<path transform="matrix(1,0,0,-1,-86.65611,712.5373)" d="M 91.906 344.594 L 91.906 653.294 L 92.406 652.294 L 92.406 345.094 Z " fill="#d6d9d8"/>
<path transform="matrix(1,0,0,-1,-86.65611,712.5373)" d="M 540.144 708.144 L 540.144 652.294 L 539.144 653.294 L 539.144 707.144 Z " fill="#231f20"/>
<path transform="matrix(1,0,0,-1,-86.65611,712.5373)" d="M 539.894 653.294 L 539.894 344.594 L 539.394 345.094 L 539.394 652.294 Z " fill="#d6d9d8"/>
<symbol id="font_b0_b">
<path d="M .47509767 0 L .35986329 0 L .35986329 .33203126 C .35986329 .3736979 .35139976 .40478517 .33447267 .42529298 C .3178711 .44580079 .29134117 .4560547 .2548828 .4560547 C .2063802 .4560547 .17089844 .44173179 .1484375 .41308595 C .12597656 .3844401 .114746097 .33642579 .114746097 .26904298 L .114746097 0 L 0 0 L 0 .54003909 L .08984375 .54003909 L .10595703 .46923829 L .111816409 .46923829 C .12809246 .49495445 .15120442 .5148112 .18115235 .5288086 C .21110027 .54280599 .24430339 .5498047 .28076173 .5498047 C .410319 .5498047 .47509767 .48388673 .47509767 .35205079 L .47509767 0 Z "/>
</symbol>
<symbol id="font_b0_11">
<path d="M .3857422 .009765625 L .3696289 .080566409 L .36376954 .080566409 C .347819 .0555013 .32503257 .035807294 .29541017 .021484375 C .26611329 .0071614587 .23258464 0 .19482422 0 C .12939453 0 .080566409 .016276041 .048339845 .048828126 C .016113282 .08138021 0 .13069661 0 .19677735 L 0 .5498047 L .115722659 .5498047 L .115722659 .21679688 C .115722659 .17545574 .124186199 .14436849 .14111328 .123535159 C .15804036 .103027347 .18457031 .09277344 .22070313 .09277344 C .26888023 .09277344 .30419923 .10709635 .32666017 .13574219 C .34944663 .16471355 .36083985 .21305339 .36083985 .28076173 L .36083985 .5498047 L .47607423 .5498047 L .47607423 .009765625 L .3857422 .009765625 Z "/>
</symbol>
<symbol id="font_b0_a">
<path d="M .45507813 0 L .33984376 0 L .33984376 .3330078 C .33984376 .37434898 .33203126 .4051107 .31640626 .42529298 C .30078126 .44580079 .2763672 .4560547 .24316406 .4560547 C .19889324 .4560547 .16634114 .441569 .14550781 .41259767 C .125 .3839518 .114746097 .33610026 .114746097 .26904298 L .114746097 0 L 0 0 L 0 .54003909 L .08984375 .54003909 L .10595703 .46923829 L .111816409 .46923829 C .12679036 .49495445 .1484375 .5148112 .17675781 .5288086 C .20540364 .54280599 .2368164 .5498047 .2709961 .5498047 C .3540039 .5498047 .40901695 .5214844 .43603517 .46484376 L .44384767 .46484376 C .4597982 .49153648 .48225913 .5123698 .51123049 .52734377 C .54020187 .5423177 .57340499 .5498047 .61083987 .5498047 C .67529299 .5498047 .72216799 .5335286 .75146487 .50097659 C .7810872 .46842448 .79589846 .41878257 .79589846 .35205079 L .79589846 0 L .68115237 0 L .68115237 .3330078 C .68115237 .37434898 .67317709 .4051107 .65722659 .42529298 C .64160159 .44580079 .6171875 .4560547 .5839844 .4560547 C .539388 .4560547 .50667318 .44205729 .48583985 .4140625 C .46533204 .38639323 .45507813 .34375 .45507813 .2861328 L .45507813 0 Z "/>
</symbol>
<symbol id="font_b0_3">
<path d="M .2758789 .5595703 C .34326173 .5595703 .39567057 .53515627 .43310548 .48632813 C .47086589 .4375 .4897461 .36897788 .4897461 .28076173 C .4897461 .19222005 .47070313 .12320963 .4326172 .07373047 C .39453126 .024576823 .34163413 0 .27392579 0 C .2055664 0 .15250652 .024576823 .114746097 .07373047 L .106933597 .07373047 L .0859375 .009765625 L 0 .009765625 L 0 .76953127 L .114746097 .76953127 L .114746097 .5888672 C .114746097 .5755208 .114095058 .55566409 .11279297 .5292969 C .11149088 .5029297 .11051432 .48616538 .10986328 .4790039 L .114746097 .4790039 C .15120442 .53271487 .20491536 .5595703 .2758789 .5595703 M .24609375 .4658203 C .1998698 .4658203 .1665039 .45214845 .1459961 .4248047 C .1258138 .39778648 .11539713 .3523763 .114746097 .28857423 L .114746097 .28076173 C .114746097 .21500652 .12516277 .1673177 .1459961 .13769531 C .16682942 .10839844 .20084636 .09375 .24804688 .09375 C .28873698 .09375 .3194987 .10986328 .34033204 .14208985 C .36149089 .1743164 .3720703 .22086589 .3720703 .28173829 C .3720703 .40445964 .33007813 .4658203 .24609375 .4658203 Z "/>
</symbol>
<symbol id="font_b0_6">
<path d="M .2680664 0 C .18408203 0 .11832682 .024414063 .07080078 .07324219 C .02360026 .122395839 0 .1899414 0 .2758789 C 0 .36409507 .021972657 .433431 .06591797 .48388673 C .10986328 .53434249 .17024739 .5595703 .24707031 .5595703 C .31835938 .5595703 .37467448 .53792318 .41601563 .4946289 C .45735679 .45133464 .47802735 .3917643 .47802735 .31591798 L .47802735 .25390626 L .11816406 .25390626 C .119791667 .20149739 .13395183 .16113281 .16064453 .1328125 C .18733724 .10481771 .22493489 .09082031 .2734375 .09082031 C .30533854 .09082031 .33496095 .09375 .3623047 .099609378 C .38997398 .10579427 .41959635 .115885417 .45117188 .12988281 L .45117188 .036621095 C .4231771 .02327474 .39485679 .013834636 .36621095 .008300781 C .3375651 .002766927 .30485026 0 .2680664 0 M .24707031 .47265626 C .21061199 .47265626 .18131511 .46110026 .15917969 .43798829 C .1373698 .4148763 .12434896 .3811849 .12011719 .33691407 L .36523438 .33691407 C .36458335 .3815104 .35384117 .4152018 .3330078 .43798829 C .31217448 .46110026 .28352867 .47265626 .24707031 .47265626 Z "/>
</symbol>
<symbol id="font_b0_e">
<path d="M .27392579 .5498047 C .29703776 .5498047 .31608073 .54817709 .3310547 .5449219 L .31982423 .43798829 C .3035482 .44189454 .2866211 .44384767 .26904298 .44384767 C .22314453 .44384767 .18587239 .4288737 .15722656 .39892579 C .12890625 .36897788 .114746097 .33007813 .114746097 .28222657 L .114746097 0 L 0 0 L 0 .54003909 L .08984375 .54003909 L .10498047 .44482423 L .110839847 .44482423 C .12874349 .47705079 .15201824 .5026042 .18066406 .5214844 C .20963542 .54036459 .24072266 .5498047 .27392579 .5498047 Z "/>
</symbol>
<use xlink:href="#font_b0_b" transform="matrix(11,0,0,-11,144.52663,20.63562)" fill="#262324"/>
<use xlink:href="#font_b0_11" transform="matrix(11,0,0,-11,151.44692,20.743042)" fill="#262324"/>
<use xlink:href="#font_b0_a" transform="matrix(11,0,0,-11,158.47463,20.63562)" fill="#262324"/>
<use xlink:href="#font_b0_3" transform="matrix(11,0,0,-11,168.99063,20.743042)" fill="#262324"/>
<use xlink:href="#font_b0_6" transform="matrix(11,0,0,-11,175.48915,20.743042)" fill="#262324"/>
<use xlink:href="#font_b0_e" transform="matrix(11,0,0,-11,182.17964,20.63562)" fill="#262324"/>
<symbol id="font_b0_c">
<path d="M .51123049 .28076173 C .51123049 .19254558 .48860679 .123697917 .44335938 .07421875 C .39811198 .024739584 .3351237 0 .25439454 0 C .2039388 0 .15934246 .0113932299 .12060547 .034179689 C .08186849 .056966146 .052083333 .08968099 .03125 .13232422 C .010416667 .17496746 0 .22444661 0 .28076173 C 0 .3683268 .022460938 .4366862 .06738281 .48583985 C .11230469 .53499349 .17561849 .5595703 .25732423 .5595703 C .33544923 .5595703 .3972982 .53434249 .4428711 .48388673 C .488444 .4337565 .51123049 .3660482 .51123049 .28076173 M .11816406 .28076173 C .11816406 .15608724 .16422527 .09375 .25634767 .09375 C .3474935 .09375 .3930664 .15608724 .3930664 .28076173 C .3930664 .40413413 .34716798 .4658203 .2553711 .4658203 C .20719402 .4658203 .17220052 .44986979 .15039063 .41796876 C .12890625 .38606773 .11816406 .34033204 .11816406 .28076173 Z "/>
</symbol>
<symbol id="font_b0_7">
<path d="M .3359375 .453125 L .20410156 .453125 L .20410156 0 L .08886719 0 L .08886719 .453125 L 0 .453125 L 0 .50683596 L .08886719 .5419922 L .08886719 .57714846 C .08886719 .6409505 .10384115 .68815109 .13378906 .71875 C .16373699 .7496745 .20947266 .7651367 .2709961 .7651367 C .3113607 .7651367 .35107423 .75846359 .39013673 .7451172 L .35986329 .6582031 C .33154298 .6673177 .30452476 .671875 .2788086 .671875 C .25276695 .671875 .23372396 .663737 .22167969 .64746096 C .20996094 .63151046 .20410156 .6074219 .20410156 .5751953 L .20410156 .54003909 L .3359375 .54003909 L .3359375 .453125 Z "/>
</symbol>
<symbol id="font_b0_1">
<path d="M 0 0 Z "/>
</symbol>
<symbol id="font_b0_f">
<path d="M .39697267 .16357422 C .39697267 .110839847 .37776695 .0703125 .33935548 .041992189 C .300944 .0139973959 .24593099 0 .1743164 0 C .102376308 0 .044596357 .010904948 .0009765625 .032714845 L .0009765625 .13183594 C .064453128 .10253906 .123535159 .087890628 .17822266 .087890628 C .24886067 .087890628 .2841797 .10921224 .2841797 .15185547 C .2841797 .16552735 .28027345 .17692058 .27246095 .18603516 C .26464845 .19514974 .25179038 .20458985 .23388672 .21435547 C .21598308 .2241211 .19108074 .2351888 .15917969 .2475586 C .09700521 .27164714 .05485026 .2957357 .032714845 .31982423 C .010904948 .34391276 0 .37516276 0 .41357423 C 0 .4597982 .018554688 .49560548 .055664064 .5209961 C .09309896 .5467122 .1438802 .5595703 .20800781 .5595703 C .27148438 .5595703 .33154298 .5467122 .3881836 .5209961 L .35107423 .4345703 C .292806 .45865885 .24381511 .47070313 .20410156 .47070313 C .14355469 .47070313 .11328125 .45345054 .11328125 .4189453 C .11328125 .40201823 .12109375 .3876953 .13671875 .37597657 C .15266927 .3642578 .18717449 .34814454 .24023438 .32763673 C .28483073 .31038413 .31722007 .29459635 .33740235 .28027345 C .35758464 .26595054 .3725586 .24934896 .38232423 .23046875 C .39208985 .21191406 .39697267 .18961589 .39697267 .16357422 Z "/>
</symbol>
<symbol id="font_b0_8">
<path d="M .47509767 0 L .35986329 0 L .35986329 .33203126 C .35986329 .3736979 .35139976 .40478517 .33447267 .42529298 C .3178711 .44580079 .29134117 .4560547 .2548828 .4560547 C .20670574 .4560547 .17122396 .441569 .1484375 .41259767 C .12597656 .3839518 .114746097 .33577476 .114746097 .2680664 L .114746097 0 L 0 0 L 0 .7597656 L .114746097 .7597656 L .114746097 .56689456 C .114746097 .53597006 .11279297 .5029297 .10888672 .46777345 L .11621094 .46777345 C .13183594 .4938151 .15348308 .5139974 .18115235 .5283203 C .20914714 .54264327 .24169922 .5498047 .2788086 .5498047 C .40966798 .5498047 .47509767 .48388673 .47509767 .35205079 L .47509767 0 Z "/>
</symbol>
<symbol id="font_b0_2">
<path d="M .37597657 .009765625 L .35302735 .08496094 L .3491211 .08496094 C .32307945 .052083333 .296875 .029622397 .2705078 .017578125 C .24414063 .005859375 .21028646 0 .16894531 0 C .115885417 0 .07438151 .014322917 .044433595 .04296875 C .014811198 .071614589 0 .11214193 0 .16455078 C 0 .22021485 .020670573 .26220704 .06201172 .29052735 C .10335287 .31884767 .16634114 .3343099 .25097657 .33691407 L .34423829 .33984376 L .34423829 .36865235 C .34423829 .40315757 .33610026 .4288737 .31982423 .44580079 C .3038737 .46305339 .27897135 .4716797 .24511719 .4716797 C .21744792 .4716797 .19091797 .4676107 .16552735 .45947267 C .14013672 .45133464 .115722659 .44173179 .092285159 .43066407 L .05517578 .5126953 C .084472659 .5279948 .11653646 .5395508 .15136719 .5473633 C .18619792 .5555013 .21907552 .5595703 .25 .5595703 C .3186849 .5595703 .37044273 .5445964 .40527345 .51464846 C .4404297 .48470054 .4580078 .43766276 .4580078 .37353517 L .4580078 .009765625 L .37597657 .009765625 M .20507813 .087890628 C .2467448 .087890628 .2801107 .09944662 .30517579 .122558597 C .3305664 .1459961 .34326173 .17871094 .34326173 .22070313 L .34326173 .26757813 L .27392579 .26464845 C .21988933 .2626953 .1805013 .25358073 .15576172 .23730469 C .13134766 .22135417 .119140628 .19677735 .119140628 .16357422 C .119140628 .13948567 .12630208 .12076823 .140625 .107421878 C .15494792 .09440104 .1764323 .087890628 .20507813 .087890628 Z "/>
</symbol>
<symbol id="font_b0_5">
<path d="M .21435547 0 C .14697266 0 .09440104 .024414063 .056640626 .07324219 C .018880209 .12207031 0 .19059246 0 .2788086 C 0 .36735026 .019042969 .4361979 .057128908 .48535157 C .09554037 .53483077 .14860027 .5595703 .2163086 .5595703 C .28727214 .5595703 .3413086 .5333659 .37841798 .48095704 L .38427735 .48095704 C .3787435 .51969406 .37597657 .55029299 .37597657 .5727539 L .37597657 .76953127 L .49121095 .76953127 L .49121095 .009765625 L .4013672 .009765625 L .38134767 .080566409 L .37597657 .080566409 C .33919273 .026855469 .285319 0 .21435547 0 M .24511719 .09277344 C .29231773 .09277344 .32666017 .10595703 .34814454 .13232422 C .3696289 .15901692 .38069663 .20214844 .38134767 .26171876 L .38134767 .27783204 C .38134767 .34586589 .37027995 .39420573 .34814454 .42285157 C .32600913 .4514974 .29134117 .4658203 .24414063 .4658203 C .20377605 .4658203 .1726888 .4493815 .1508789 .4165039 C .12906902 .3839518 .11816406 .33740235 .11816406 .27685548 C .11816406 .21695964 .12874349 .17122396 .14990235 .13964844 C .1710612 .10839844 .20279949 .09277344 .24511719 .09277344 Z "/>
</symbol>
<use xlink:href="#font_b0_c" transform="matrix(11,0,0,-11,139.21465,36.692995)" fill="#262324"/>
<use xlink:href="#font_b0_7" transform="matrix(11,0,0,-11,145.56478,36.58557)" fill="#262324"/>
<use xlink:href="#font_b0_1" transform="matrix(11,0,0,-11,149.35878,36.58557)" fill="#262324"/>
<use xlink:href="#font_b0_f" transform="matrix(11,0,0,-11,152.73415,36.692995)" fill="#262324"/>
<use xlink:href="#font_b0_8" transform="matrix(11,0,0,-11,158.45612,36.58557)" fill="#262324"/>
<use xlink:href="#font_b0_2" transform="matrix(11,0,0,-11,165.01117,36.692995)" fill="#262324"/>
<use xlink:href="#font_b0_5" transform="matrix(11,0,0,-11,171.45561,36.692995)" fill="#262324"/>
<use xlink:href="#font_b0_6" transform="matrix(11,0,0,-11,178.30861,36.692995)" fill="#262324"/>
<use xlink:href="#font_b0_5" transform="matrix(11,0,0,-11,184.6446,36.692995)" fill="#262324"/>
<symbol id="font_b0_d">
<path d="M .27392579 .23046875 C .2055664 .23046875 .15250652 .25504557 .114746097 .30419923 L .107910159 .30419923 C .112467449 .2586263 .114746097 .23095703 .114746097 .2211914 L .114746097 0 L 0 0 L 0 .78027346 L .09277344 .78027346 C .0953776 .7701823 .100748699 .74609377 .10888672 .7080078 L .114746097 .7080078 C .15055339 .7626953 .20426433 .79003909 .2758789 .79003909 C .34326173 .79003909 .39567057 .765625 .43310548 .7167969 C .47086589 .66796877 .4897461 .5994466 .4897461 .51123049 C .4897461 .4230143 .47054038 .35416667 .4321289 .3046875 C .39404298 .25520835 .3413086 .23046875 .27392579 .23046875 M .24609375 .69628909 C .20052083 .69628909 .16715496 .6829427 .1459961 .65625 C .12516277 .6295573 .114746097 .58691409 .114746097 .5283203 L .114746097 .51123049 C .114746097 .44547526 .12516277 .39778648 .1459961 .36816407 C .16682942 .3388672 .20084636 .32421876 .24804688 .32421876 C .2877604 .32421876 .31835938 .34049479 .33984376 .37304688 C .36132813 .40559898 .3720703 .4519857 .3720703 .51220706 C .3720703 .5727539 .36132813 .61848959 .33984376 .64941409 C .3186849 .68066409 .2874349 .69628909 .24609375 .69628909 Z "/>
</symbol>
<symbol id="font_b0_10">
<path d="M .26416017 .09277344 C .29215495 .09277344 .32014976 .09716797 .34814454 .10595703 L .34814454 .01953125 C .33544923 .0139973959 .3190104 .0094401049 .29882813 .005859375 C .27897135 .001953125 .25830079 0 .2368164 0 C .12809246 0 .07373047 .057291669 .07373047 .171875 L .07373047 .46289063 L 0 .46289063 L 0 .5136719 L .07910156 .55566409 L .11816406 .6699219 L .18896485 .6699219 L .18896485 .5498047 L .34277345 .5498047 L .34277345 .46289063 L .18896485 .46289063 L .18896485 .17382813 C .18896485 .14615886 .19580078 .12565105 .20947266 .11230469 C .22347005 .09928385 .24169922 .09277344 .26416017 .09277344 Z "/>
</symbol>
<use xlink:href="#font_b0_d" transform="matrix(11,0,0,-11,151.90653,55.17816)" fill="#262324"/>
<use xlink:href="#font_b0_2" transform="matrix(11,0,0,-11,158.34058,52.643007)" fill="#262324"/>
<use xlink:href="#font_b0_e" transform="matrix(11,0,0,-11,165.13953,52.535585)" fill="#262324"/>
<use xlink:href="#font_b0_10" transform="matrix(11,0,0,-11,169.18766,52.643007)" fill="#262324"/>
<use xlink:href="#font_b0_f" transform="matrix(11,0,0,-11,173.82756,52.643007)" fill="#262324"/>
<symbol id="font_b0_9">
<path d="M .12158203 0 L .0068359377 0 L .0068359377 .54003909 L .12158203 .54003909 L .12158203 0 M 0 .68310549 C 0 .7036133 .005533854 .71940109 .016601563 .73046877 C .027994791 .74153646 .044108076 .7470703 .064941409 .7470703 C .085123699 .7470703 .100748699 .74153646 .111816409 .73046877 C .12320963 .71940109 .12890625 .7036133 .12890625 .68310549 C .12890625 .6635742 .12320963 .648112 .111816409 .63671877 C .100748699 .62565109 .085123699 .6201172 .064941409 .6201172 C .044108076 .6201172 .027994791 .62565109 .016601563 .63671877 C .005533854 .648112 0 .6635742 0 .68310549 Z "/>
</symbol>
<symbol id="font_b0_13">
<path d="M .40966798 0 L 0 0 L 0 .07080078 L .27294923 .45214845 L .016601563 .45214845 L .016601563 .54003909 L .40185548 .54003909 L .40185548 .45996095 L .13476563 .087890628 L .40966798 .087890628 L .40966798 0 Z "/>
</symbol>
<use xlink:href="#font_b0_f" transform="matrix(11,0,0,-11,206.19686,20.743042)" fill="#262324"/>
<use xlink:href="#font_b0_9" transform="matrix(11,0,0,-11,211.84365,20.63562)" fill="#262324"/>
<use xlink:href="#font_b0_13" transform="matrix(11,0,0,-11,214.43975,20.63562)" fill="#262324"/>
<use xlink:href="#font_b0_6" transform="matrix(11,0,0,-11,219.88036,20.743042)" fill="#262324"/>
<use xlink:href="#font_b0_1" transform="matrix(11,0,0,-11,225.6685,20.63562)" fill="#262324"/>
<use xlink:href="#font_b0_c" transform="matrix(11,0,0,-11,229.06536,20.743042)" fill="#262324"/>
<use xlink:href="#font_b0_7" transform="matrix(11,0,0,-11,235.41551,20.63562)" fill="#262324"/>
<symbol id="font_b0_4">
<path d="M .25 0 C .16829427 0 .10611979 .023763022 .06347656 .07128906 C .021158854 .119140628 0 .18766277 0 .27685548 C 0 .36767579 .022135416 .4375 .06640625 .48632813 C .1110026 .53515627 .17529297 .5595703 .25927735 .5595703 C .3162435 .5595703 .36751304 .5489909 .41308595 .52783206 L .37841798 .43554688 C .32991538 .4544271 .2898763 .4638672 .25830079 .4638672 C .1648763 .4638672 .11816406 .40185548 .11816406 .27783204 C .11816406 .21728516 .12972005 .17171224 .15283203 .14111328 C .17626953 .110839847 .21044922 .095703128 .2553711 .095703128 C .30647788 .095703128 .35481773 .10839844 .40039063 .13378906 L .40039063 .033691408 C .3798828 .021647135 .35791017 .013020833 .33447267 .0078125 C .3113607 .0026041668 .28320313 0 .25 0 Z "/>
</symbol>
<use xlink:href="#font_b0_6" transform="matrix(11,0,0,-11,210.43733,36.692995)" fill="#262324"/>
<use xlink:href="#font_b0_2" transform="matrix(11,0,0,-11,216.70888,36.692995)" fill="#262324"/>
<use xlink:href="#font_b0_4" transform="matrix(11,0,0,-11,223.15334,36.692995)" fill="#262324"/>
<use xlink:href="#font_b0_8" transform="matrix(11,0,0,-11,228.95284,36.58557)" fill="#262324"/>
<use xlink:href="#font_b0_d" transform="matrix(11,0,0,-11,212.21514,55.17816)" fill="#262324"/>
<use xlink:href="#font_b0_2" transform="matrix(11,0,0,-11,218.64919,52.643007)" fill="#262324"/>
<use xlink:href="#font_b0_e" transform="matrix(11,0,0,-11,225.44814,52.535585)" fill="#262324"/>
<use xlink:href="#font_b0_10" transform="matrix(11,0,0,-11,229.49626,52.643007)" fill="#262324"/>
<symbol id="font_b0_12">
<path d="M .5151367 0 L .4453125 .25195313 C .43684898 .27864585 .42154948 .34065757 .39941407 .43798829 L .39501954 .43798829 C .3761393 .35009767 .36116538 .2877604 .35009767 .25097657 L .2783203 0 L .15136719 0 L 0 .54003909 L .1171875 .54003909 L .18603516 .27392579 C .20166016 .20817058 .21272786 .15185547 .21923828 .10498047 L .22216797 .10498047 C .22542317 .12874349 .23030599 .15592449 .2368164 .18652344 C .24365235 .21744792 .24951172 .24055989 .25439454 .25585938 L .33642579 .54003909 L .46240235 .54003909 L .5419922 .25585938 C .546875 .23990886 .55289718 .2154948 .5600586 .18261719 C .5675456 .14973958 .5719401 .124186199 .5732422 .10595703 L .57714846 .10595703 C .58203127 .1459961 .5934245 .20198567 .6113281 .27392579 L .68115237 .54003909 L .7963867 .54003909 L .64404299 0 L .5151367 0 Z "/>
</symbol>
<use xlink:href="#font_b0_12" transform="matrix(11,0,0,-11,260.8078,28.610596)" fill="#262324"/>
<use xlink:href="#font_b0_c" transform="matrix(11,0,0,-11,270.22425,28.718018)" fill="#262324"/>
<use xlink:href="#font_b0_e" transform="matrix(11,0,0,-11,277.28877,28.610596)" fill="#262324"/>
<use xlink:href="#font_b0_5" transform="matrix(11,0,0,-11,281.6753,28.718018)" fill="#262324"/>
<use xlink:href="#font_b0_1" transform="matrix(11,0,0,-11,287.9804,28.610596)" fill="#262324"/>
<use xlink:href="#font_b0_b" transform="matrix(11,0,0,-11,291.73176,28.610596)" fill="#262324"/>
<use xlink:href="#font_b0_2" transform="matrix(11,0,0,-11,298.2868,28.718018)" fill="#262324"/>
<use xlink:href="#font_b0_a" transform="matrix(11,0,0,-11,305.08576,28.610596)" fill="#262324"/>
<use xlink:href="#font_b0_6" transform="matrix(11,0,0,-11,315.24726,28.718018)" fill="#262324"/>
<use xlink:href="#font_b0_1" transform="matrix(11,0,0,-11,321.0354,28.610596)" fill="#262324"/>
<use xlink:href="#font_b0_7" transform="matrix(11,0,0,-11,324.0724,28.610596)" fill="#262324"/>
<use xlink:href="#font_b0_c" transform="matrix(11,0,0,-11,328.4143,28.718018)" fill="#262324"/>
<use xlink:href="#font_b0_e" transform="matrix(11,0,0,-11,335.47883,28.610596)" fill="#262324"/>
<use xlink:href="#font_b0_10" transform="matrix(11,0,0,-11,255.36415,44.66803)" fill="#262324"/>
<use xlink:href="#font_b0_8" transform="matrix(11,0,0,-11,260.38,44.560609)" fill="#262324"/>
<use xlink:href="#font_b0_6" transform="matrix(11,0,0,-11,266.9995,44.66803)" fill="#262324"/>
<use xlink:href="#font_b0_1" transform="matrix(11,0,0,-11,272.78767,44.560609)" fill="#262324"/>
<use xlink:href="#font_b0_f" transform="matrix(11,0,0,-11,276.16304,44.66803)" fill="#262324"/>
<use xlink:href="#font_b0_8" transform="matrix(11,0,0,-11,281.885,44.560609)" fill="#262324"/>
<use xlink:href="#font_b0_2" transform="matrix(11,0,0,-11,288.44007,44.66803)" fill="#262324"/>
<use xlink:href="#font_b0_5" transform="matrix(11,0,0,-11,294.88453,44.66803)" fill="#262324"/>
<use xlink:href="#font_b0_6" transform="matrix(11,0,0,-11,301.73756,44.66803)" fill="#262324"/>
<use xlink:href="#font_b0_5" transform="matrix(11,0,0,-11,308.07356,44.66803)" fill="#262324"/>
<use xlink:href="#font_b0_1" transform="matrix(11,0,0,-11,314.37867,44.560609)" fill="#262324"/>
<use xlink:href="#font_b0_d" transform="matrix(11,0,0,-11,318.13,47.203187)" fill="#262324"/>
<use xlink:href="#font_b0_2" transform="matrix(11,0,0,-11,324.5641,44.66803)" fill="#262324"/>
<use xlink:href="#font_b0_e" transform="matrix(11,0,0,-11,331.36305,44.560609)" fill="#262324"/>
<use xlink:href="#font_b0_10" transform="matrix(11,0,0,-11,335.41114,44.66803)" fill="#262324"/>
<use xlink:href="#font_b0_f" transform="matrix(11,0,0,-11,340.05104,44.66803)" fill="#262324"/>
<use xlink:href="#font_b0_b" transform="matrix(11,0,0,-11,356.00843,28.610596)" fill="#262324"/>
<use xlink:href="#font_b0_11" transform="matrix(11,0,0,-11,362.9287,28.718018)" fill="#262324"/>
<use xlink:href="#font_b0_a" transform="matrix(11,0,0,-11,369.95643,28.610596)" fill="#262324"/>
<use xlink:href="#font_b0_3" transform="matrix(11,0,0,-11,380.4724,28.718018)" fill="#262324"/>
<use xlink:href="#font_b0_6" transform="matrix(11,0,0,-11,386.97096,28.718018)" fill="#262324"/>
<use xlink:href="#font_b0_e" transform="matrix(11,0,0,-11,393.66145,28.610596)" fill="#262324"/>
<use xlink:href="#font_b0_1" transform="matrix(11,0,0,-11,397.50007,28.610596)" fill="#262324"/>
<use xlink:href="#font_b0_b" transform="matrix(11,0,0,-11,401.2514,28.610596)" fill="#262324"/>
<use xlink:href="#font_b0_2" transform="matrix(11,0,0,-11,407.80647,28.718018)" fill="#262324"/>
<use xlink:href="#font_b0_a" transform="matrix(11,0,0,-11,414.6054,28.610596)" fill="#262324"/>
<use xlink:href="#font_b0_6" transform="matrix(11,0,0,-11,424.7669,28.718018)" fill="#262324"/>
<use xlink:href="#font_b0_1" transform="matrix(11,0,0,-11,430.55506,28.610596)" fill="#262324"/>
<use xlink:href="#font_b0_7" transform="matrix(11,0,0,-11,433.59205,28.610596)" fill="#262324"/>
<use xlink:href="#font_b0_c" transform="matrix(11,0,0,-11,437.9339,28.718018)" fill="#262324"/>
<use xlink:href="#font_b0_e" transform="matrix(11,0,0,-11,444.9984,28.610596)" fill="#262324"/>
<use xlink:href="#font_b0_10" transform="matrix(11,0,0,-11,357.3271,44.66803)" fill="#262324"/>
<use xlink:href="#font_b0_8" transform="matrix(11,0,0,-11,362.34297,44.560609)" fill="#262324"/>
<use xlink:href="#font_b0_6" transform="matrix(11,0,0,-11,368.96247,44.66803)" fill="#262324"/>
<use xlink:href="#font_b0_1" transform="matrix(11,0,0,-11,374.7506,44.560609)" fill="#262324"/>
<use xlink:href="#font_b0_f" transform="matrix(11,0,0,-11,378.12599,44.66803)" fill="#262324"/>
<use xlink:href="#font_b0_8" transform="matrix(11,0,0,-11,383.84797,44.560609)" fill="#262324"/>
<use xlink:href="#font_b0_2" transform="matrix(11,0,0,-11,390.403,44.66803)" fill="#262324"/>
<use xlink:href="#font_b0_5" transform="matrix(11,0,0,-11,396.84748,44.66803)" fill="#262324"/>
<use xlink:href="#font_b0_6" transform="matrix(11,0,0,-11,403.7005,44.66803)" fill="#262324"/>
<use xlink:href="#font_b0_5" transform="matrix(11,0,0,-11,410.0365,44.66803)" fill="#262324"/>
<use xlink:href="#font_b0_1" transform="matrix(11,0,0,-11,416.3416,44.560609)" fill="#262324"/>
<use xlink:href="#font_b0_d" transform="matrix(11,0,0,-11,420.09297,47.203187)" fill="#262324"/>
<use xlink:href="#font_b0_2" transform="matrix(11,0,0,-11,426.52705,44.66803)" fill="#262324"/>
<use xlink:href="#font_b0_e" transform="matrix(11,0,0,-11,433.326,44.560609)" fill="#262324"/>
<use xlink:href="#font_b0_10" transform="matrix(11,0,0,-11,437.37416,44.66803)" fill="#262324"/>
<use xlink:href="#font_b0_f" transform="matrix(11,0,0,-11,442.01405,44.66803)" fill="#262324"/>
</g>
<clipPath id="cp177">
<path transform="matrix(1,0,0,-1,-86.65611,712.5373)" d="M 95.4028 579.9946 L 95.4028 643.7975 L 217.212 643.7975 L 217.212 579.9946 Z M 217.212 643.7975 "/>
</clipPath>
<g clip-path="url(#cp177)">
<clipPath id="cp178">
<path transform="matrix(1,0,0,-1,-86.65611,712.5373)" d="M 97.014 581.7663 L 215.4372 581.7663 L 215.4372 642.1863 L 97.014 642.1863 Z "/>
</clipPath>
<g clip-path="url(#cp178)">
<path transform="matrix(1,0,0,-1,-86.65611,712.5373)" d="M 214.3106 640.8961 L 214.3106 611.8945 L 98.30103 611.8945 L 98.30103 640.8961 Z M 98.30103 611.8945 L 98.30103 582.8929 L 136.9919 582.8929 L 136.9919 611.8945 Z " fill="#7fcfeb"/>
</g>
</g>
<clipPath id="cp179">
<path transform="matrix(1,0,0,-1,-86.65611,712.5373)" d="M 95.4028 579.9946 L 95.4028 643.7975 L 217.212 643.7975 L 217.212 579.9946 Z M 217.212 643.7975 "/>
</clipPath>
<g clip-path="url(#cp179)">
<clipPath id="cp180">
<path transform="matrix(1,0,0,-1,-86.65611,712.5373)" d="M 97.014 581.7663 L 215.4372 581.7663 L 215.4372 642.1863 L 97.014 642.1863 Z "/>
</clipPath>
<g clip-path="url(#cp180)">
<path transform="matrix(.8056,0,0,.8056,66.74989,126.74298)" stroke-width="1" stroke-linecap="butt" stroke-dasharray="2.9888,2.9888" stroke-linejoin="bevel" fill="none" stroke="#231f20" d="M -20.375 3.6016 L -20.375 -68.3984 "/>
</g>
</g>
<clipPath id="cp181">
<path transform="matrix(1,0,0,-1,-86.65611,712.5373)" d="M 95.4028 579.9946 L 95.4028 643.7975 L 217.212 643.7975 L 217.212 579.9946 Z M 217.212 643.7975 "/>
</clipPath>
<g clip-path="url(#cp181)">
<clipPath id="cp182">
<path transform="matrix(1,0,0,-1,-86.65611,712.5373)" d="M 97.014 581.7663 L 215.4372 581.7663 L 215.4372 642.1863 L 97.014 642.1863 Z "/>
</clipPath>
<g clip-path="url(#cp182)">
<path transform="matrix(.8056,0,0,.8056,66.74989,126.74298)" stroke-width="1" stroke-linecap="butt" stroke-dasharray="2.9888,2.9888" stroke-linejoin="bevel" fill="none" stroke="#231f20" d="M 27.5742 3.6016 L 27.5742 -68.3984 "/>
</g>
</g>
<clipPath id="cp183">
<path transform="matrix(1,0,0,-1,-86.65611,712.5373)" d="M 95.4028 579.9946 L 95.4028 643.7975 L 217.212 643.7975 L 217.212 579.9946 Z M 217.212 643.7975 "/>
</clipPath>
<g clip-path="url(#cp183)">
<clipPath id="cp184">
<path transform="matrix(1,0,0,-1,-86.65611,712.5373)" d="M 97.014 581.7663 L 215.4372 581.7663 L 215.4372 642.1863 L 97.014 642.1863 Z "/>
</clipPath>
<g clip-path="url(#cp184)">
<path transform="matrix(.8056,0,0,.8056,66.74989,126.74298)" stroke-width="1" stroke-linecap="butt" stroke-dasharray="2.9888,2.9888" stroke-linejoin="bevel" fill="none" stroke="#231f20" d="M -68.4024 -32.3984 L 75.6016 -32.3984 "/>
</g>
</g>
<clipPath id="cp185">
<path transform="matrix(1,0,0,-1,-86.65611,712.5373)" d="M 95.4028 579.9946 L 95.4028 643.7975 L 217.212 643.7975 L 217.212 579.9946 Z M 217.212 643.7975 "/>
</clipPath>
<g clip-path="url(#cp185)">
<clipPath id="cp186">
<path transform="matrix(1,0,0,-1,-86.65611,712.5373)" d="M 97.014 581.7663 L 215.4372 581.7663 L 215.4372 642.1863 L 97.014 642.1863 Z "/>
</clipPath>
<g clip-path="url(#cp186)">
<path transform="matrix(.8056,0,0,.8056,66.74989,126.74298)" stroke-width="1" stroke-linecap="butt" stroke-linejoin="bevel" fill="none" stroke="#231f20" d="M -68.4024 3.6016 L -68.4024 -68.3984 L 75.6016 -68.3984 L 75.6016 3.6016 Z "/>
</g>
</g>
<clipPath id="cp187">
<path transform="matrix(1,0,0,-1,-86.65611,712.5373)" d="M 0 0 L 603 0 L 603 783 L 0 783 Z "/>
</clipPath>
<g clip-path="url(#cp187)">
<symbol id="font_bc_6">
<path d="M .5307617 .1640625 L .4248047 .1640625 L .4248047 0 L .34716798 0 L .34716798 .1640625 L 0 .1640625 L 0 .23486328 L .3388672 .71777346 L .4248047 .71777346 L .4248047 .23779297 L .5307617 .23779297 L .5307617 .1640625 M .34716798 .23779297 L .34716798 .47509767 C .34716798 .52164718 .34879557 .57421877 .35205079 .6328125 L .34814454 .6328125 C .33251954 .6015625 .3178711 .5756836 .30419923 .5551758 L .08105469 .23779297 L .34716798 .23779297 Z "/>
</symbol>
<use xlink:href="#font_bc_6" transform="matrix(11,0,0,-11,161.91825,104.91058)" fill="#262324"/>
</g>
<clipPath id="cp189">
<path transform="matrix(1,0,0,-1,-86.65611,712.5373)" d="M 303.6496 600.41 L 314.5891 600.41 L 314.5891 623.378 L 303.6496 623.378 Z "/>
</clipPath>
<g clip-path="url(#cp189)">
<path transform="matrix(1,0,0,-1,-86.65611,712.5373)" d="M 305.4895 611.1484 L 312.7599 611.1484 L 312.7599 612.06997 L 305.4895 612.06997 Z " fill="#262324"/>
<path transform="matrix(1,0,0,-1,-86.65611,712.5373)" d="M 310.6558 614.233 L 307.675 614.233 L 307.675 614.395 C 308.4742 614.4382 308.701 614.665 308.701 615.259 L 308.701 620.1082 C 308.701 620.4754 308.6038 620.6374 308.377 620.6374 C 308.269 620.6374 308.0854 620.5834 307.891 620.5078 L 307.5994 620.3998 L 307.5994 620.551 L 309.5326 621.5338 L 309.6298 621.5014 L 309.6298 615.0538 C 309.6298 614.5894 309.8458 614.395 310.6558 614.395 L 310.6558 614.233 Z " fill="#262324"/>
<path transform="matrix(1,0,0,-1,-86.65611,712.5373)" d="M 311.2174 608.9312 L 311.239 608.7584 C 309.5434 608.4776 308.3338 607.3112 308.0422 605.6804 C 308.5714 606.0908 308.9386 606.1664 309.4138 606.1664 C 310.6774 606.1664 311.455 605.3024 311.455 603.9092 C 311.455 603.218 311.2606 602.6132 310.9042 602.1812 C 310.5046 601.6844 309.8998 601.3928 309.187 601.3928 C 308.3338 601.3928 307.6534 601.7924 307.2754 602.4836 C 306.973 603.0344 306.7678 603.8012 306.7678 604.5572 C 306.7678 605.7236 307.1782 606.7496 307.945 607.538 C 308.8738 608.51 309.727 608.7692 311.2174 608.9312 Z M 310.483 603.5744 C 310.483 604.9568 310.0294 605.6696 309.025 605.6696 C 308.4094 605.6696 307.7722 605.4104 307.7722 604.4168 C 307.7722 602.7752 308.2906 601.6952 309.3058 601.6952 C 310.0834 601.6952 310.483 602.4728 310.483 603.5744 Z " fill="#262324"/>
</g>
<clipPath id="cp190">
<path transform="matrix(1,0,0,-1,-86.65611,712.5373)" d="M 0 0 L 603 0 L 603 783 L 0 783 Z "/>
</clipPath>
<g clip-path="url(#cp190)">
<symbol id="font_bc_f">
<path d="M .31298829 .47216798 L .17675781 .47216798 L .17675781 0 L .095703128 0 L .095703128 .47216798 L 0 .47216798 L 0 .50878909 L .095703128 .53808596 L .095703128 .5678711 C .095703128 .69938156 .15315755 .7651367 .2680664 .7651367 C .29638673 .7651367 .32958985 .7594401 .36767579 .7480469 L .3466797 .68310549 C .3154297 .6931966 .28873698 .6982422 .26660157 .6982422 C .23600261 .6982422 .2133789 .6879883 .19873047 .66748049 C .18408203 .64729818 .17675781 .6147461 .17675781 .5698242 L .17675781 .53515627 L .31298829 .53515627 L .31298829 .47216798 Z "/>
</symbol>
<symbol id="font_bc_14">
<path d="M .49169923 .27783204 C .49169923 .19059246 .46972657 .122395839 .42578126 .07324219 C .38183595 .024414063 .3211263 0 .24365235 0 C .19580078 0 .15332031 .011230469 .11621094 .033691408 C .07910156 .056152345 .05045573 .088378909 .030273438 .1303711 C .0100911459 .17236328 0 .22151692 0 .27783204 C 0 .36507163 .021809897 .43294273 .06542969 .4814453 C .10904948 .53027346 .16959636 .5546875 .24707031 .5546875 C .3219401 .5546875 .38134767 .52978518 .42529298 .47998048 C .4695638 .43017579 .49169923 .36279298 .49169923 .27783204 M .083984378 .27783204 C .083984378 .20947266 .09765625 .15738933 .125 .12158203 C .15234375 .08577474 .19254558 .067871097 .24560547 .067871097 C .29866538 .067871097 .3388672 .08561198 .36621095 .12109375 C .39388023 .15690105 .40771485 .20914714 .40771485 .27783204 C .40771485 .34586589 .39388023 .39746095 .36621095 .4326172 C .3388672 .46809898 .29833985 .48583985 .2446289 .48583985 C .19156902 .48583985 .15152996 .46842448 .12451172 .43359376 C .09749349 .39876304 .083984378 .34684245 .083984378 .27783204 Z "/>
</symbol>
<symbol id="font_bc_18">
<path d="M .08203125 .5449219 L .08203125 .1977539 C .08203125 .15413411 .09195963 .12158203 .111816409 .100097659 C .13167317 .07861328 .16276042 .067871097 .20507813 .067871097 C .26106773 .067871097 .30192057 .08317057 .32763673 .11376953 C .35367839 .14436849 .36669923 .19433594 .36669923 .26367188 L .36669923 .5449219 L .4477539 .5449219 L .4477539 .009765625 L .38085938 .009765625 L .36914063 .08154297 L .3647461 .08154297 C .34814454 .05517578 .32503257 .03499349 .29541017 .020996094 C .26611329 .0069986979 .23258464 0 .19482422 0 C .12972005 0 .08089193 .015462239 .048339845 .04638672 C .016113282 .077311199 0 .12679036 0 .19482422 L 0 .5449219 L .08203125 .5449219 Z "/>
</symbol>
<symbol id="font_bc_15">
<path d="M .24414063 .5449219 C .26790367 .5449219 .28922526 .54296877 .30810548 .5390625 L .296875 .4638672 C .2747396 .46875 .25520835 .4711914 .23828125 .4711914 C .19498699 .4711914 .15787761 .45361329 .12695313 .41845704 C .096354167 .38330079 .08105469 .33951823 .08105469 .28710938 L .08105469 0 L 0 0 L 0 .53515627 L .06689453 .53515627 L .076171878 .43603517 L .080078128 .43603517 C .0999349 .47086589 .12386068 .49772135 .15185547 .51660159 C .17985027 .53548178 .21061199 .5449219 .24414063 .5449219 Z "/>
</symbol>
<symbol id="font_bc_2">
<path d="M 0 0 L 0 .07421875 L .2397461 .07421875 L .2397461 0 L 0 0 Z "/>
</symbol>
<symbol id="font_bc_16">
<path d="M .37939454 .15576172 C .37939454 .10595703 .36083985 .06754557 .32373048 .040527345 C .2866211 .013509114 .23453777 0 .16748047 0 C .09651693 0 .041178388 .011230469 .0014648438 .033691408 L .0014648438 .10888672 C .02718099 .09586588 .0546875 .08561198 .083984378 .078125 C .11360677 .07063802 .14208985 .06689453 .1694336 .06689453 C .2117513 .06689453 .24430339 .07356771 .26708985 .08691406 C .2898763 .10058594 .30126954 .12125651 .30126954 .14892578 C .30126954 .16975911 .29215495 .1875 .27392579 .20214844 C .25602214 .21712239 .22086589 .23470052 .16845703 .2548828 C .118652347 .2734375 .08317057 .28955079 .06201172 .30322267 C .041178388 .31722007 .025553385 .3330078 .015136719 .35058595 C .0050455729 .36816407 0 .38916017 0 .41357423 C 0 .457194 .017740885 .49153648 .053222658 .51660159 C .08870443 .5419922 .1373698 .5546875 .19921875 .5546875 C .25683595 .5546875 .31315104 .54296877 .36816407 .51953127 L .33935548 .45361329 C .28564454 .4757487 .23697917 .4868164 .19335938 .4868164 C .15494792 .4868164 .12597656 .48079429 .10644531 .46875 C .08691406 .45670573 .07714844 .44010417 .07714844 .4189453 C .07714844 .4046224 .080729167 .39241538 .087890628 .38232423 C .0953776 .37223307 .10725912 .36263023 .123535159 .35351563 C .1398112 .34440104 .1710612 .33121745 .21728516 .31396485 C .28076173 .29085288 .32356773 .26757813 .34570313 .24414063 C .36816407 .22070313 .37939454 .19124349 .37939454 .15576172 Z "/>
</symbol>
<symbol id="font_bc_12">
<path d="M .087890628 0 L .0068359377 0 L .0068359377 .53515627 L .087890628 .53515627 L .087890628 0 M 0 .6801758 C 0 .69873049 .0045572917 .71223959 .013671875 .7207031 C .022786459 .7294922 .034179689 .7338867 .047851564 .7338867 C .060872396 .7338867 .07210287 .7294922 .08154297 .7207031 C .09098307 .71191409 .095703128 .69840499 .095703128 .6801758 C .095703128 .6619466 .09098307 .6482747 .08154297 .63916018 C .07210287 .6303711 .060872396 .62597659 .047851564 .62597659 C .034179689 .62597659 .022786459 .6303711 .013671875 .63916018 C .0045572917 .6482747 0 .6619466 0 .6801758 Z "/>
</symbol>
<symbol id="font_bc_1b">
<path d="M .19580078 .27392579 L .009765625 .53515627 L .10205078 .53515627 L .24316406 .33007813 L .38378907 .53515627 L .47509767 .53515627 L .2890625 .27392579 L .48486329 0 L .3930664 0 L .24316406 .21679688 L .091796878 0 L 0 0 L .19580078 .27392579 Z "/>
</symbol>
<symbol id="font_bc_17">
<path d="M .24365235 .06689453 C .25797526 .06689453 .2718099 .067871097 .28515626 .06982422 C .2985026 .07210287 .30908204 .07438151 .31689454 .076660159 L .31689454 .0146484379 C .30810548 .010416667 .29508464 .0069986979 .27783204 .0043945314 C .26090495 .0014648438 .24560547 0 .2319336 0 C .12841797 0 .076660159 .05452474 .076660159 .16357422 L .076660159 .4819336 L 0 .4819336 L 0 .5209961 L .076660159 .5546875 L .110839847 .6689453 L .15771485 .6689453 L .15771485 .5449219 L .31298829 .5449219 L .31298829 .4819336 L .15771485 .4819336 L .15771485 .16699219 C .15771485 .13476563 .16536458 .11002604 .18066406 .09277344 C .19596355 .075520839 .21695964 .06689453 .24365235 .06689453 Z "/>
</symbol>
<symbol id="font_bc_11">
<path d="M .36621095 0 L .36621095 .3461914 C .36621095 .3898112 .35628257 .42236329 .33642579 .44384767 C .316569 .46533204 .28548179 .47607423 .24316406 .47607423 C .18684896 .47607423 .14567058 .46077476 .119628909 .43017579 C .09391276 .3995768 .08105469 .34944663 .08105469 .27978517 L .08105469 0 L 0 0 L 0 .7597656 L .08105469 .7597656 L .08105469 .52978518 C .08105469 .5021159 .0797526 .47916667 .07714844 .4609375 L .08203125 .4609375 C .09798177 .48665367 .12060547 .50683596 .14990235 .5214844 C .17952474 .5364583 .21321614 .5439453 .25097657 .5439453 C .31640626 .5439453 .36539714 .5283203 .39794923 .4970703 C .4308268 .46614585 .44726563 .41682945 .44726563 .3491211 L .44726563 0 L .36621095 0 Z "/>
</symbol>
<use xlink:href="#font_bc_f" transform="matrix(11,0,0,-11,272.78535,104.91058)" fill="#262324"/>
<use xlink:href="#font_bc_14" transform="matrix(11,0,0,-11,276.96528,105.018009)" fill="#262324"/>
<use xlink:href="#font_bc_18" transform="matrix(11,0,0,-11,283.8725,105.018009)" fill="#262324"/>
<use xlink:href="#font_bc_15" transform="matrix(11,0,0,-11,290.67994,104.91058)" fill="#262324"/>
<use xlink:href="#font_bc_2" transform="matrix(11,0,0,-11,294.67384,102.370059)" fill="#262324"/>
<use xlink:href="#font_bc_16" transform="matrix(11,0,0,-11,298.323,105.018009)" fill="#262324"/>
<use xlink:href="#font_bc_12" transform="matrix(11,0,0,-11,303.8708,104.91058)" fill="#262324"/>
<use xlink:href="#font_bc_1b" transform="matrix(11,0,0,-11,305.98213,104.91058)" fill="#262324"/>
<use xlink:href="#font_bc_17" transform="matrix(11,0,0,-11,311.6922,105.018009)" fill="#262324"/>
<use xlink:href="#font_bc_11" transform="matrix(11,0,0,-11,316.354,104.91058)" fill="#262324"/>
<use xlink:href="#font_bc_16" transform="matrix(11,0,0,-11,322.721,105.018009)" fill="#262324"/>
</g>
<clipPath id="cp191">
<path transform="matrix(1,0,0,-1,-86.65611,712.5373)" d="M 483.1928 600.41 L 494.13233 600.41 L 494.13233 623.378 L 483.1928 623.378 Z "/>
</clipPath>
<g clip-path="url(#cp191)">
<path transform="matrix(1,0,0,-1,-86.65611,712.5373)" d="M 485.0328 611.1484 L 492.3032 611.1484 L 492.3032 612.06997 L 485.0328 612.06997 Z " fill="#262324"/>
<path transform="matrix(1,0,0,-1,-86.65611,712.5373)" d="M 491.0522 616.0366 L 489.9398 616.0366 L 489.9398 614.233 L 489.0974 614.233 L 489.0974 616.0366 L 486.0734 616.0366 L 486.0734 616.7278 L 489.4646 621.5338 L 489.9398 621.5338 L 489.9398 616.7278 L 491.0522 616.7278 L 491.0522 616.0366 Z M 489.0974 616.7278 L 489.0974 620.4322 L 486.5054 616.7278 L 489.0974 616.7278 Z " fill="#262324"/>
<path transform="matrix(1,0,0,-1,-86.65611,712.5373)" d="M 490.7606 608.9312 L 490.7822 608.7584 C 489.0866 608.4776 487.877 607.3112 487.5854 605.6804 C 488.1146 606.0908 488.4818 606.1664 488.957 606.1664 C 490.2206 606.1664 490.9982 605.3024 490.9982 603.9092 C 490.9982 603.218 490.8038 602.6132 490.4474 602.1812 C 490.0478 601.6844 489.443 601.3928 488.7302 601.3928 C 487.877 601.3928 487.1966 601.7924 486.8186 602.4836 C 486.5162 603.0344 486.311 603.8012 486.311 604.5572 C 486.311 605.7236 486.7214 606.7496 487.4882 607.538 C 488.417 608.51 489.2702 608.7692 490.7606 608.9312 Z M 490.0262 603.5744 C 490.0262 604.9568 489.5726 605.6696 488.5682 605.6696 C 487.9526 605.6696 487.3154 605.4104 487.3154 604.4168 C 487.3154 602.7752 487.8338 601.6952 488.849 601.6952 C 489.6266 601.6952 490.0262 602.4728 490.0262 603.5744 Z " fill="#262324"/>
</g>
<clipPath id="cp192">
<path transform="matrix(1,0,0,-1,-86.65611,712.5373)" d="M 95.4028 498.6946 L 95.4028 562.4975 L 217.212 562.4975 L 217.212 498.6946 Z M 217.212 562.4975 "/>
</clipPath>
<g clip-path="url(#cp192)">
<clipPath id="cp193">
<path transform="matrix(1,0,0,-1,-86.65611,712.5373)" d="M 95.4063 500.4663 L 217.0484 500.4663 L 217.0484 560.8863 L 95.4063 560.8863 Z "/>
</clipPath>
<g clip-path="url(#cp193)">
<path transform="matrix(1,0,0,-1,-86.65611,712.5373)" d="M 96.85352 501.5929 L 96.85352 559.5961 L 154.8567 559.5961 L 154.8567 501.5929 Z " fill="#7fcfeb"/>
</g>
</g>
<clipPath id="cp194">
<path transform="matrix(1,0,0,-1,-86.65611,712.5373)" d="M 95.4028 498.6946 L 95.4028 562.4975 L 217.212 562.4975 L 217.212 498.6946 Z M 217.212 562.4975 "/>
</clipPath>
<g clip-path="url(#cp194)">
<clipPath id="cp195">
<path transform="matrix(1,0,0,-1,-86.65611,712.5373)" d="M 95.4063 500.4663 L 217.0484 500.4663 L 217.0484 560.8863 L 95.4063 560.8863 Z "/>
</clipPath>
<g clip-path="url(#cp195)">
<path transform="matrix(.8056,0,0,.8056,66.74989,208.043)" stroke-width="1" stroke-linecap="butt" stroke-dasharray="2.9888,2.9888" stroke-linejoin="bevel" fill="none" stroke="#231f20" d="M -34.1992 3.6016 L -34.1992 -68.3984 "/>
</g>
</g>
<clipPath id="cp196">
<path transform="matrix(1,0,0,-1,-86.65611,712.5373)" d="M 95.4028 498.6946 L 95.4028 562.4975 L 217.212 562.4975 L 217.212 498.6946 Z M 217.212 562.4975 "/>
</clipPath>
<g clip-path="url(#cp196)">
<clipPath id="cp197">
<path transform="matrix(1,0,0,-1,-86.65611,712.5373)" d="M 95.4063 500.4663 L 217.0484 500.4663 L 217.0484 560.8863 L 95.4063 560.8863 Z "/>
</clipPath>
<g clip-path="url(#cp197)">
<path transform="matrix(.8056,0,0,.8056,66.74989,208.043)" stroke-width="1" stroke-linecap="butt" stroke-dasharray="2.9888,2.9888" stroke-linejoin="bevel" fill="none" stroke="#231f20" d="M -70.1992 -32.3984 L 1.8008 -32.3984 "/>
</g>
</g>
<clipPath id="cp198">
<path transform="matrix(1,0,0,-1,-86.65611,712.5373)" d="M 95.4028 498.6946 L 95.4028 562.4975 L 217.212 562.4975 L 217.212 498.6946 Z M 217.212 562.4975 "/>
</clipPath>
<g clip-path="url(#cp198)">
<clipPath id="cp199">
<path transform="matrix(1,0,0,-1,-86.65611,712.5373)" d="M 95.4063 500.4663 L 217.0484 500.4663 L 217.0484 560.8863 L 95.4063 560.8863 Z "/>
</clipPath>
<g clip-path="url(#cp199)">
<path transform="matrix(.8056,0,0,.8056,66.74989,208.043)" stroke-width="1" stroke-linecap="butt" stroke-linejoin="bevel" fill="none" stroke="#231f20" d="M -70.1992 3.6016 L -70.1992 -68.3984 L 1.8008 -68.3984 L 1.8008 3.6016 Z "/>
</g>
</g>
<clipPath id="cp200">
<path transform="matrix(1,0,0,-1,-86.65611,712.5373)" d="M 95.4028 498.6946 L 95.4028 562.4975 L 217.212 562.4975 L 217.212 498.6946 Z M 217.212 562.4975 "/>
</clipPath>
<g clip-path="url(#cp200)">
<clipPath id="cp201">
<path transform="matrix(1,0,0,-1,-86.65611,712.5373)" d="M 95.4063 500.4663 L 217.0484 500.4663 L 217.0484 560.8863 L 95.4063 560.8863 Z "/>
</clipPath>
<g clip-path="url(#cp201)">
<path transform="matrix(1,0,0,-1,-86.65611,712.5373)" d="M 157.755 501.5929 L 157.755 530.5945 L 215.7613 530.5945 L 215.7613 501.5929 Z " fill="#7fcfeb"/>
</g>
</g>
<clipPath id="cp202">
<path transform="matrix(1,0,0,-1,-86.65611,712.5373)" d="M 95.4028 498.6946 L 95.4028 562.4975 L 217.212 562.4975 L 217.212 498.6946 Z M 217.212 562.4975 "/>
</clipPath>
<g clip-path="url(#cp202)">
<clipPath id="cp203">
<path transform="matrix(1,0,0,-1,-86.65611,712.5373)" d="M 95.4063 500.4663 L 217.0484 500.4663 L 217.0484 560.8863 L 95.4063 560.8863 Z "/>
</clipPath>
<g clip-path="url(#cp203)">
<path transform="matrix(.8056,0,0,.8056,66.74989,208.043)" stroke-width="1" stroke-linecap="butt" stroke-dasharray="2.9888,2.9888" stroke-linejoin="bevel" fill="none" stroke="#231f20" d="M 41.3984 3.6016 L 41.3984 -68.3984 "/>
</g>
</g>
<clipPath id="cp204">
<path transform="matrix(1,0,0,-1,-86.65611,712.5373)" d="M 95.4028 498.6946 L 95.4028 562.4975 L 217.212 562.4975 L 217.212 498.6946 Z M 217.212 562.4975 "/>
</clipPath>
<g clip-path="url(#cp204)">
<clipPath id="cp205">
<path transform="matrix(1,0,0,-1,-86.65611,712.5373)" d="M 95.4063 500.4663 L 217.0484 500.4663 L 217.0484 560.8863 L 95.4063 560.8863 Z "/>
</clipPath>
<g clip-path="url(#cp205)">
<path transform="matrix(.8056,0,0,.8056,66.74989,208.043)" stroke-width="1" stroke-linecap="butt" stroke-dasharray="2.9888,2.9888" stroke-linejoin="bevel" fill="none" stroke="#231f20" d="M 5.3984 -32.3984 L 77.4023 -32.3984 "/>
</g>
</g>
<clipPath id="cp206">
<path transform="matrix(1,0,0,-1,-86.65611,712.5373)" d="M 95.4028 498.6946 L 95.4028 562.4975 L 217.212 562.4975 L 217.212 498.6946 Z M 217.212 562.4975 "/>
</clipPath>
<g clip-path="url(#cp206)">
<clipPath id="cp207">
<path transform="matrix(1,0,0,-1,-86.65611,712.5373)" d="M 95.4063 500.4663 L 217.0484 500.4663 L 217.0484 560.8863 L 95.4063 560.8863 Z "/>
</clipPath>
<g clip-path="url(#cp207)">
<path transform="matrix(.8056,0,0,.8056,66.74989,208.043)" stroke-width="1" stroke-linecap="butt" stroke-linejoin="bevel" fill="none" stroke="#231f20" d="M 5.3984 3.6016 L 5.3984 -68.3984 L 77.4023 -68.3984 L 77.4023 3.6016 Z "/>
</g>
</g>
<clipPath id="cp208">
<path transform="matrix(1,0,0,-1,-86.65611,712.5373)" d="M 0 0 L 603 0 L 603 783 L 0 783 Z "/>
</clipPath>
<g clip-path="url(#cp208)">
<symbol id="font_bc_8">
<path d="M 0 .3149414 C 0 .45524089 .02718099 .5600586 .08154297 .62939456 C .13623047 .69905599 .21695964 .7338867 .32373048 .7338867 C .3605143 .7338867 .3894857 .73079428 .41064454 .7246094 L .41064454 .65478518 C .38557945 .66292318 .3569336 .6669922 .32470704 .6669922 C .24820964 .6669922 .18977864 .6430664 .14941406 .59521487 C .10904948 .5476888 .08691406 .472819 .08300781 .37060548 L .08886719 .37060548 C .12467448 .42659507 .18131511 .45458985 .25878907 .45458985 C .32291667 .45458985 .3733724 .43522135 .41015626 .39648438 C .44726563 .3577474 .4658203 .30517579 .4658203 .23876953 C .4658203 .16455078 .44547526 .10611979 .40478517 .06347656 C .36442057 .021158854 .30973307 0 .24072266 0 C .16682942 0 .10823568 .027669272 .064941409 .08300781 C .021647135 .13867188 0 .21598308 0 .3149414 M .2397461 .068847659 C .28597007 .068847659 .32177735 .083333339 .34716798 .11230469 C .37288413 .14160156 .3857422 .18375652 .3857422 .23876953 C .3857422 .28597007 .3738607 .32307945 .35009767 .35009767 C .32633464 .37711589 .29085288 .390625 .24365235 .390625 C .21435547 .390625 .1875 .38460288 .16308594 .3725586 C .13867188 .3605143 .119140628 .34391276 .10449219 .3227539 C .09016927 .30159507 .08300781 .2796224 .08300781 .25683595 C .08300781 .2233073 .08951823 .1920573 .10253906 .16308594 C .1155599 .13411458 .13395183 .11116537 .15771485 .09423828 C .18180339 .077311199 .20914714 .068847659 .2397461 .068847659 Z "/>
</symbol>
<use xlink:href="#font_bc_8" transform="matrix(11,0,0,-11,162.3157,186.318)" fill="#262324"/>
</g>
<clipPath id="cp209">
<path transform="matrix(1,0,0,-1,-86.65611,712.5373)" d="M 303.6496 519.11 L 314.5891 519.11 L 314.5891 542.078 L 303.6496 542.078 Z "/>
</clipPath>
<g clip-path="url(#cp209)">
<path transform="matrix(1,0,0,-1,-86.65611,712.5373)" d="M 305.4895 529.8484 L 312.7599 529.8484 L 312.7599 530.76998 L 305.4895 530.76998 Z " fill="#262324"/>
<path transform="matrix(1,0,0,-1,-86.65611,712.5373)" d="M 310.6558 532.933 L 307.675 532.933 L 307.675 533.095 C 308.4742 533.1382 308.701 533.365 308.701 533.959 L 308.701 538.8082 C 308.701 539.1754 308.6038 539.3374 308.377 539.3374 C 308.269 539.3374 308.0854 539.2834 307.891 539.2078 L 307.5994 539.0998 L 307.5994 539.251 L 309.5326 540.2338 L 309.6298 540.2014 L 309.6298 533.7538 C 309.6298 533.2894 309.8458 533.095 310.6558 533.095 L 310.6558 532.933 Z " fill="#262324"/>
<path transform="matrix(1,0,0,-1,-86.65611,712.5373)" d="M 311.509 522.1344 L 310.3966 522.1344 L 310.3966 520.3308 L 309.5542 520.3308 L 309.5542 522.1344 L 306.5302 522.1344 L 306.5302 522.8256 L 309.9214 527.6316 L 310.3966 527.6316 L 310.3966 522.8256 L 311.509 522.8256 L 311.509 522.1344 Z M 309.5542 522.8256 L 309.5542 526.53 L 306.9622 522.8256 L 309.5542 522.8256 Z " fill="#262324"/>
</g>
<clipPath id="cp210">
<path transform="matrix(1,0,0,-1,-86.65611,712.5373)" d="M 0 0 L 603 0 L 603 783 L 0 783 Z "/>
</clipPath>
<g clip-path="url(#cp210)">
<use xlink:href="#font_bc_16" transform="matrix(11,0,0,-11,273.1989,186.318)" fill="#262324"/>
<use xlink:href="#font_bc_12" transform="matrix(11,0,0,-11,278.7467,186.21057)" fill="#262324"/>
<use xlink:href="#font_bc_1b" transform="matrix(11,0,0,-11,280.8581,186.21057)" fill="#262324"/>
<use xlink:href="#font_bc_2" transform="matrix(11,0,0,-11,286.85279,183.67005)" fill="#262324"/>
<use xlink:href="#font_bc_f" transform="matrix(11,0,0,-11,290.08839,186.21057)" fill="#262324"/>
<use xlink:href="#font_bc_14" transform="matrix(11,0,0,-11,294.2683,186.318)" fill="#262324"/>
<use xlink:href="#font_bc_18" transform="matrix(11,0,0,-11,301.17555,186.318)" fill="#262324"/>
<use xlink:href="#font_bc_15" transform="matrix(11,0,0,-11,307.98298,186.21057)" fill="#262324"/>
<use xlink:href="#font_bc_17" transform="matrix(11,0,0,-11,311.6922,186.318)" fill="#262324"/>
<use xlink:href="#font_bc_11" transform="matrix(11,0,0,-11,316.354,186.21057)" fill="#262324"/>
<use xlink:href="#font_bc_16" transform="matrix(11,0,0,-11,322.721,186.318)" fill="#262324"/>
</g>
<clipPath id="cp211">
<path transform="matrix(1,0,0,-1,-86.65611,712.5373)" d="M 483.1928 519.11 L 494.13233 519.11 L 494.13233 542.078 L 483.1928 542.078 Z "/>
</clipPath>
<g clip-path="url(#cp211)">
<path transform="matrix(1,0,0,-1,-86.65611,712.5373)" d="M 485.0328 529.8484 L 492.3032 529.8484 L 492.3032 530.76998 L 485.0328 530.76998 Z " fill="#262324"/>
<path transform="matrix(1,0,0,-1,-86.65611,712.5373)" d="M 490.7606 540.472 L 490.7822 540.2992 C 489.0866 540.0184 487.877 538.852 487.5854 537.2212 C 488.1146 537.6316 488.4818 537.7072 488.957 537.7072 C 490.2206 537.7072 490.9982 536.8432 490.9982 535.45 C 490.9982 534.7588 490.8038 534.154 490.4474 533.722 C 490.0478 533.2252 489.443 532.9336 488.7302 532.9336 C 487.877 532.9336 487.1966 533.3332 486.8186 534.0244 C 486.5162 534.5752 486.311 535.342 486.311 536.098 C 486.311 537.2644 486.7214 538.2904 487.4882 539.0788 C 488.417 540.0508 489.2702 540.31 490.7606 540.472 Z M 490.0262 535.1152 C 490.0262 536.4976 489.5726 537.2104 488.5682 537.2104 C 487.9526 537.2104 487.3154 536.9512 487.3154 535.9576 C 487.3154 534.316 487.8338 533.236 488.849 533.236 C 489.6266 533.236 490.0262 534.0136 490.0262 535.1152 Z " fill="#262324"/>
<path transform="matrix(1,0,0,-1,-86.65611,712.5373)" d="M 491.0522 522.1344 L 489.9398 522.1344 L 489.9398 520.3308 L 489.0974 520.3308 L 489.0974 522.1344 L 486.0734 522.1344 L 486.0734 522.8256 L 489.4646 527.6316 L 489.9398 527.6316 L 489.9398 522.8256 L 491.0522 522.8256 L 491.0522 522.1344 Z M 489.0974 522.8256 L 489.0974 526.53 L 486.5054 522.8256 L 489.0974 522.8256 Z " fill="#262324"/>
</g>
<clipPath id="cp212">
<path transform="matrix(1,0,0,-1,-86.65611,712.5373)" d="M 95.4028 353.5884 L 95.4028 481.1972 L 217.212 481.1972 L 217.212 353.5884 Z M 217.212 481.1972 "/>
</clipPath>
<g clip-path="url(#cp212)">
<clipPath id="cp213">
<path transform="matrix(1,0,0,-1,-86.65611,712.5373)" d="M 97.014 357.9404 L 215.4372 357.9404 L 215.4372 479.586 L 97.014 479.586 Z "/>
</clipPath>
<g clip-path="url(#cp213)">
<path transform="matrix(1,0,0,-1,-86.65611,712.5373)" d="M 214.3106 478.2958 L 214.3106 420.2926 L 98.30103 420.2926 L 98.30103 478.2958 Z " fill="#7fcfeb"/>
</g>
</g>
<clipPath id="cp214">
<path transform="matrix(1,0,0,-1,-86.65611,712.5373)" d="M 95.4028 353.5884 L 95.4028 481.1972 L 217.212 481.1972 L 217.212 353.5884 Z M 217.212 481.1972 "/>
</clipPath>
<g clip-path="url(#cp214)">
<clipPath id="cp215">
<path transform="matrix(1,0,0,-1,-86.65611,712.5373)" d="M 97.014 357.9404 L 215.4372 357.9404 L 215.4372 479.586 L 97.014 479.586 Z "/>
</clipPath>
<g clip-path="url(#cp215)">
<path transform="matrix(.8056,0,0,.8056,66.74989,289.3433)" stroke-width="1" stroke-linecap="butt" stroke-dasharray="2.9888,2.9888" stroke-linejoin="bevel" fill="none" stroke="#231f20" d="M -20.375 3.6016 L -20.375 -68.3984 "/>
</g>
</g>
<clipPath id="cp216">
<path transform="matrix(1,0,0,-1,-86.65611,712.5373)" d="M 95.4028 353.5884 L 95.4028 481.1972 L 217.212 481.1972 L 217.212 353.5884 Z M 217.212 481.1972 "/>
</clipPath>
<g clip-path="url(#cp216)">
<clipPath id="cp217">
<path transform="matrix(1,0,0,-1,-86.65611,712.5373)" d="M 97.014 357.9404 L 215.4372 357.9404 L 215.4372 479.586 L 97.014 479.586 Z "/>
</clipPath>
<g clip-path="url(#cp217)">
<path transform="matrix(.8056,0,0,.8056,66.74989,289.3433)" stroke-width="1" stroke-linecap="butt" stroke-dasharray="2.9888,2.9888" stroke-linejoin="bevel" fill="none" stroke="#231f20" d="M 27.5742 3.6016 L 27.5742 -68.3984 "/>
</g>
</g>
<clipPath id="cp218">
<path transform="matrix(1,0,0,-1,-86.65611,712.5373)" d="M 95.4028 353.5884 L 95.4028 481.1972 L 217.212 481.1972 L 217.212 353.5884 Z M 217.212 481.1972 "/>
</clipPath>
<g clip-path="url(#cp218)">
<clipPath id="cp219">
<path transform="matrix(1,0,0,-1,-86.65611,712.5373)" d="M 97.014 357.9404 L 215.4372 357.9404 L 215.4372 479.586 L 97.014 479.586 Z "/>
</clipPath>
<g clip-path="url(#cp219)">
<path transform="matrix(.8056,0,0,.8056,66.74989,289.3433)" stroke-width="1" stroke-linecap="butt" stroke-dasharray="2.9888,2.9888" stroke-linejoin="bevel" fill="none" stroke="#231f20" d="M -68.4024 -32.3984 L 75.6016 -32.3984 "/>
</g>
</g>
<clipPath id="cp220">
<path transform="matrix(1,0,0,-1,-86.65611,712.5373)" d="M 95.4028 353.5884 L 95.4028 481.1972 L 217.212 481.1972 L 217.212 353.5884 Z M 217.212 481.1972 "/>
</clipPath>
<g clip-path="url(#cp220)">
<clipPath id="cp221">
<path transform="matrix(1,0,0,-1,-86.65611,712.5373)" d="M 97.014 357.9404 L 215.4372 357.9404 L 215.4372 479.586 L 97.014 479.586 Z "/>
</clipPath>
<g clip-path="url(#cp221)">
<path transform="matrix(.8056,0,0,.8056,66.74989,289.3433)" stroke-width="1" stroke-linecap="butt" stroke-linejoin="bevel" fill="none" stroke="#231f20" d="M -68.4024 3.6016 L -68.4024 -68.3984 L 75.6016 -68.3984 L 75.6016 3.6016 Z "/>
</g>
</g>
<clipPath id="cp222">
<path transform="matrix(1,0,0,-1,-86.65611,712.5373)" d="M 95.4028 353.5884 L 95.4028 481.1972 L 217.212 481.1972 L 217.212 353.5884 Z M 217.212 481.1972 "/>
</clipPath>
<g clip-path="url(#cp222)">
<clipPath id="cp223">
<path transform="matrix(1,0,0,-1,-86.65611,712.5373)" d="M 97.014 357.9404 L 215.4372 357.9404 L 215.4372 479.586 L 97.014 479.586 Z "/>
</clipPath>
<g clip-path="url(#cp223)">
<path transform="matrix(1,0,0,-1,-86.65611,712.5373)" d="M 98.30103 417.3943 L 98.30103 388.3896 L 136.9919 388.3896 L 136.9919 417.3943 Z " fill="#7fcfeb"/>
</g>
</g>
<clipPath id="cp224">
<path transform="matrix(1,0,0,-1,-86.65611,712.5373)" d="M 95.4028 353.5884 L 95.4028 481.1972 L 217.212 481.1972 L 217.212 353.5884 Z M 217.212 481.1972 "/>
</clipPath>
<g clip-path="url(#cp224)">
<clipPath id="cp225">
<path transform="matrix(1,0,0,-1,-86.65611,712.5373)" d="M 97.014 357.9404 L 215.4372 357.9404 L 215.4372 479.586 L 97.014 479.586 Z "/>
</clipPath>
<g clip-path="url(#cp225)">
<path transform="matrix(.8056,0,0,.8056,66.74989,289.3433)" stroke-width="1" stroke-linecap="butt" stroke-dasharray="2.9888,2.9888" stroke-linejoin="bevel" fill="none" stroke="#231f20" d="M -20.375 79.2032 L -20.375 7.1992 "/>
</g>
</g>
<clipPath id="cp226">
<path transform="matrix(1,0,0,-1,-86.65611,712.5373)" d="M 95.4028 353.5884 L 95.4028 481.1972 L 217.212 481.1972 L 217.212 353.5884 Z M 217.212 481.1972 "/>
</clipPath>
<g clip-path="url(#cp226)">
<clipPath id="cp227">
<path transform="matrix(1,0,0,-1,-86.65611,712.5373)" d="M 97.014 357.9404 L 215.4372 357.9404 L 215.4372 479.586 L 97.014 479.586 Z "/>
</clipPath>
<g clip-path="url(#cp227)">
<path transform="matrix(.8056,0,0,.8056,66.74989,289.3433)" stroke-width="1" stroke-linecap="butt" stroke-dasharray="2.9888,2.9888" stroke-linejoin="bevel" fill="none" stroke="#231f20" d="M 27.5742 79.2032 L 27.5742 7.1992 "/>
</g>
</g>
<clipPath id="cp228">
<path transform="matrix(1,0,0,-1,-86.65611,712.5373)" d="M 95.4028 353.5884 L 95.4028 481.1972 L 217.212 481.1972 L 217.212 353.5884 Z M 217.212 481.1972 "/>
</clipPath>
<g clip-path="url(#cp228)">
<clipPath id="cp229">
<path transform="matrix(1,0,0,-1,-86.65611,712.5373)" d="M 97.014 357.9404 L 215.4372 357.9404 L 215.4372 479.586 L 97.014 479.586 Z "/>
</clipPath>
<g clip-path="url(#cp229)">
<path transform="matrix(.8056,0,0,.8056,66.74989,289.3433)" stroke-width="1" stroke-linecap="butt" stroke-dasharray="2.9888,2.9888" stroke-linejoin="bevel" fill="none" stroke="#231f20" d="M -68.4024 43.2031 L 75.6016 43.2031 "/>
</g>
</g>
<clipPath id="cp230">
<path transform="matrix(1,0,0,-1,-86.65611,712.5373)" d="M 95.4028 353.5884 L 95.4028 481.1972 L 217.212 481.1972 L 217.212 353.5884 Z M 217.212 481.1972 "/>
</clipPath>
<g clip-path="url(#cp230)">
<clipPath id="cp231">
<path transform="matrix(1,0,0,-1,-86.65611,712.5373)" d="M 97.014 357.9404 L 215.4372 357.9404 L 215.4372 479.586 L 97.014 479.586 Z "/>
</clipPath>
<g clip-path="url(#cp231)">
<path transform="matrix(.8056,0,0,.8056,66.74989,289.3433)" stroke-width="1" stroke-linecap="butt" stroke-linejoin="bevel" fill="none" stroke="#231f20" d="M -68.4024 79.2032 L -68.4024 7.1992 L 75.6016 7.1992 L 75.6016 79.2032 Z "/>
</g>
</g>
<clipPath id="cp232">
<path transform="matrix(1,0,0,-1,-86.65611,712.5373)" d="M 0 0 L 603 0 L 603 783 L 0 783 Z "/>
</clipPath>
<g clip-path="url(#cp232)">
<symbol id="font_bc_9">
<path d="M .09326172 0 L .38916017 .63916018 L 0 .63916018 L 0 .7138672 L .47509767 .7138672 L .47509767 .6489258 L .18310547 0 L .09326172 0 Z "/>
</symbol>
<use xlink:href="#font_bc_9" transform="matrix(11,0,0,-11,162.19217,299.41059)" fill="#262324"/>
</g>
<clipPath id="cp233">
<path transform="matrix(1,0,0,-1,-86.65611,712.5373)" d="M 303.6496 405.91 L 314.5891 405.91 L 314.5891 428.878 L 303.6496 428.878 Z "/>
</clipPath>
<g clip-path="url(#cp233)">
<path transform="matrix(1,0,0,-1,-86.65611,712.5373)" d="M 305.4895 416.6484 L 312.7599 416.6484 L 312.7599 417.57 L 305.4895 417.57 Z " fill="#262324"/>
<path transform="matrix(1,0,0,-1,-86.65611,712.5373)" d="M 310.6558 419.733 L 307.675 419.733 L 307.675 419.895 C 308.4742 419.9382 308.701 420.165 308.701 420.759 L 308.701 425.6082 C 308.701 425.9754 308.6038 426.1374 308.377 426.1374 C 308.269 426.1374 308.0854 426.0834 307.891 426.0078 L 307.5994 425.8998 L 307.5994 426.051 L 309.5326 427.0338 L 309.6298 427.0014 L 309.6298 420.5538 C 309.6298 420.0894 309.8458 419.895 310.6558 419.895 L 310.6558 419.733 Z " fill="#262324"/>
<path transform="matrix(1,0,0,-1,-86.65611,712.5373)" d="M 311.2174 414.4312 L 311.239 414.2584 C 309.5434 413.9776 308.3338 412.8112 308.0422 411.1804 C 308.5714 411.5908 308.9386 411.6664 309.4138 411.6664 C 310.6774 411.6664 311.455 410.8024 311.455 409.4092 C 311.455 408.718 311.2606 408.1132 310.9042 407.6812 C 310.5046 407.1844 309.8998 406.8928 309.187 406.8928 C 308.3338 406.8928 307.6534 407.2924 307.2754 407.9836 C 306.973 408.5344 306.7678 409.3012 306.7678 410.0572 C 306.7678 411.2236 307.1782 412.2496 307.945 413.038 C 308.8738 414.01 309.727 414.2692 311.2174 414.4312 Z M 310.483 409.0744 C 310.483 410.4568 310.0294 411.1696 309.025 411.1696 C 308.4094 411.1696 307.7722 410.9104 307.7722 409.9168 C 307.7722 408.2752 308.2906 407.1952 309.3058 407.1952 C 310.0834 407.1952 310.483 407.9728 310.483 409.0744 Z " fill="#262324"/>
</g>
<clipPath id="cp234">
<path transform="matrix(1,0,0,-1,-86.65611,712.5373)" d="M 0 0 L 603 0 L 603 783 L 0 783 Z "/>
</clipPath>
<g clip-path="url(#cp234)">
<symbol id="font_bc_e">
<path d="M .25585938 0 C .17675781 0 .11425781 .024088541 .068359378 .072265628 C .022786459 .12044271 0 .18733724 0 .27294923 C 0 .35921226 .021158854 .42773438 .06347656 .47851563 C .10611979 .5292969 .1632487 .5546875 .23486328 .5546875 C .30192057 .5546875 .35498048 .53255209 .39404298 .48828126 C .43310548 .44433595 .45263673 .38623048 .45263673 .31396485 L .45263673 .2626953 L .083984378 .2626953 C .08561198 .1998698 .10139974 .15218099 .13134766 .119628909 C .1616211 .08707682 .20410156 .07080078 .25878907 .07080078 C .31640626 .07080078 .3733724 .082845058 .4296875 .106933597 L .4296875 .03466797 C .40104167 .022298178 .3738607 .013509114 .34814454 .008300781 C .3227539 .002766927 .2919922 0 .25585938 0 M .23388672 .4868164 C .19091797 .4868164 .15657552 .472819 .13085938 .44482423 C .10546875 .41682945 .09049479 .37809245 .0859375 .32861329 L .36572267 .32861329 C .36572267 .37972007 .35432945 .41878257 .33154298 .44580079 C .3087565 .47314454 .27620445 .4868164 .23388672 .4868164 Z "/>
</symbol>
<symbol id="font_bc_19">
<path d="M .203125 0 L 0 .53515627 L .08691406 .53515627 L .20214844 .21777344 C .22819011 .14355469 .24348958 .0953776 .24804688 .07324219 L .25195313 .07324219 C .25553385 .09049479 .2667643 .12613933 .28564454 .18017578 C .30485026 .23453777 .34765626 .3528646 .4140625 .53515627 L .50097659 .53515627 L .29785157 0 L .203125 0 Z "/>
</symbol>
<symbol id="font_bc_13">
<path d="M .36621095 0 L .36621095 .3461914 C .36621095 .3898112 .35628257 .42236329 .33642579 .44384767 C .316569 .46533204 .28548179 .47607423 .24316406 .47607423 C .18717449 .47607423 .14615886 .4609375 .12011719 .43066407 C .09407552 .40039063 .08105469 .3504232 .08105469 .28076173 L .08105469 0 L 0 0 L 0 .53515627 L .06591797 .53515627 L .07910156 .46191407 L .08300781 .46191407 C .099609378 .48828126 .12288412 .5086263 .15283203 .5229492 C .18277996 .53759768 .21614583 .5449219 .2529297 .5449219 C .3173828 .5449219 .3658854 .5292969 .3984375 .49804688 C .4309896 .4671224 .44726563 .41748048 .44726563 .3491211 L .44726563 0 L .36621095 0 Z "/>
</symbol>
<use xlink:href="#font_bc_16" transform="matrix(11,0,0,-11,269.07936,299.518)" fill="#262324"/>
<use xlink:href="#font_bc_e" transform="matrix(11,0,0,-11,274.3747,299.518)" fill="#262324"/>
<use xlink:href="#font_bc_19" transform="matrix(11,0,0,-11,279.92799,299.41059)" fill="#262324"/>
<use xlink:href="#font_bc_e" transform="matrix(11,0,0,-11,286.04566,299.518)" fill="#262324"/>
<use xlink:href="#font_bc_13" transform="matrix(11,0,0,-11,292.5443,299.41059)" fill="#262324"/>
<use xlink:href="#font_bc_2" transform="matrix(11,0,0,-11,298.79316,296.87007)" fill="#262324"/>
<use xlink:href="#font_bc_16" transform="matrix(11,0,0,-11,302.44233,299.518)" fill="#262324"/>
<use xlink:href="#font_bc_12" transform="matrix(11,0,0,-11,307.9901,299.41059)" fill="#262324"/>
<use xlink:href="#font_bc_1b" transform="matrix(11,0,0,-11,310.1015,299.41059)" fill="#262324"/>
<use xlink:href="#font_bc_17" transform="matrix(11,0,0,-11,315.81153,299.518)" fill="#262324"/>
<use xlink:href="#font_bc_11" transform="matrix(11,0,0,-11,320.47334,299.41059)" fill="#262324"/>
<use xlink:href="#font_bc_16" transform="matrix(11,0,0,-11,326.8404,299.518)" fill="#262324"/>
</g>
<clipPath id="cp235">
<path transform="matrix(1,0,0,-1,-86.65611,712.5373)" d="M 483.1928 406.3692 L 494.13233 406.3692 L 494.13233 428.4187 L 483.1928 428.4187 Z "/>
</clipPath>
<g clip-path="url(#cp235)">
<path transform="matrix(1,0,0,-1,-86.65611,712.5373)" d="M 485.033 417.1072 L 492.30339 417.1072 L 492.30339 418.0288 L 485.033 418.0288 Z " fill="#262324"/>
<path transform="matrix(1,0,0,-1,-86.65611,712.5373)" d="M 490.7932 427.255 L 488.5036 420.1918 L 487.8016 420.1918 L 489.94 426.6286 L 487.618 426.6286 C 486.9916 426.6286 486.808 426.4774 486.3544 425.743 L 486.16 425.8402 L 486.808 427.4278 L 490.7932 427.4278 L 490.7932 427.255 Z " fill="#262324"/>
<path transform="matrix(1,0,0,-1,-86.65611,712.5373)" d="M 490.7608 414.8904 L 490.7824 414.7176 C 489.0868 414.4368 487.8772 413.2704 487.5856 411.6396 C 488.1148 412.05 488.482 412.1256 488.9572 412.1256 C 490.2208 412.1256 490.9984 411.2616 490.9984 409.8684 C 490.9984 409.1772 490.804 408.5724 490.4476 408.1404 C 490.048 407.6436 489.4432 407.352 488.7304 407.352 C 487.8772 407.352 487.1968 407.7516 486.8188 408.4428 C 486.5164 408.9936 486.3112 409.7604 486.3112 410.5164 C 486.3112 411.6828 486.7216 412.7088 487.4884 413.4972 C 488.4172 414.4692 489.2704 414.7284 490.7608 414.8904 Z M 490.0264 409.5336 C 490.0264 410.916 489.5728 411.6288 488.5684 411.6288 C 487.9528 411.6288 487.3156 411.3696 487.3156 410.376 C 487.3156 408.7344 487.834 407.6544 488.8492 407.6544 C 489.6268 407.6544 490.0264 408.432 490.0264 409.5336 Z " fill="#262324"/>
</g>
<clipPath id="cp236">
<path transform="matrix(1,0,0,-1,-86.65611,712.5373)" d="M 0 0 L 603 0 L 603 783 L 0 783 Z "/>
</clipPath>
<g clip-path="url(#cp236)">
<symbol id="font_ed_3">
<path d="M .5859375 .7236328 L .5859375 .26171876 C .5859375 .20898438 .57405599 .16276042 .55029299 .123046878 C .52685549 .083333339 .49283854 .052897138 .4482422 .03173828 C .40364585 .010579427 .35091148 0 .29003907 0 C .19824219 0 .12695313 .0234375 .076171878 .0703125 C .025390625 .11751302 0 .18196614 0 .26367188 L 0 .7236328 L .1508789 .7236328 L .1508789 .2866211 C .1508789 .23160808 .16194661 .19124349 .18408203 .16552735 C .20621746 .1398112 .24283855 .12695313 .2939453 .12695313 C .34342448 .12695313 .37923179 .1398112 .4013672 .16552735 C .42382813 .19156902 .4350586 .23225911 .4350586 .28759767 L .4350586 .7236328 L .5859375 .7236328 Z "/>
</symbol>
<symbol id="font_ed_5">
<path d="M .50390627 0 L .35498048 0 L .35498048 .31884767 C .35498048 .3582357 .34798179 .3876953 .33398438 .40722657 C .31998698 .42708335 .2976888 .43701173 .26708985 .43701173 C .22542317 .43701173 .1953125 .4230143 .17675781 .39501954 C .15820313 .36735026 .14892578 .32128907 .14892578 .25683595 L .14892578 0 L 0 0 L 0 .54589846 L .11376953 .54589846 L .13378906 .47607423 L .14208985 .47607423 C .1586914 .5024414 .18147786 .52229818 .21044922 .53564456 C .2397461 .5493164 .27294923 .55615237 .3100586 .55615237 C .37353517 .55615237 .42171226 .5388997 .45458985 .50439456 C .48746745 .47021485 .50390627 .4207357 .50390627 .35595704 L .50390627 0 Z "/>
</symbol>
<symbol id="font_ed_4">
<path d="M 0 .6870117 C 0 .73551437 .027018229 .7597656 .08105469 .7597656 C .13509114 .7597656 .16210938 .73551437 .16210938 .6870117 C .16210938 .6638997 .15527344 .6458333 .14160156 .6328125 C .1282552 .6201172 .108072917 .61376956 .08105469 .61376956 C .027018229 .61376956 0 .6381836 0 .6870117 M .15527344 0 L .0063476564 0 L .0063476564 .54589846 L .15527344 .54589846 L .15527344 0 Z "/>
</symbol>
<symbol id="font_ed_6">
<path d="M .28515626 .118652347 C .3111979 .118652347 .3424479 .12434896 .37890626 .13574219 L .37890626 .024902344 C .34179688 .008300781 .29622398 0 .2421875 0 C .18261719 0 .13916016 .014973958 .111816409 .044921876 C .08479818 .07519531 .07128906 .12044271 .07128906 .18066406 L .07128906 .44384767 L 0 .44384767 L 0 .50683596 L .08203125 .5566406 L .125 .671875 L .22021485 .671875 L .22021485 .55566409 L .37304688 .55566409 L .37304688 .44384767 L .22021485 .44384767 L .22021485 .18066406 C .22021485 .1595052 .22607422 .1438802 .23779297 .13378906 C .24983724 .123697917 .265625 .118652347 .28515626 .118652347 Z "/>
</symbol>
<symbol id="font_ed_1">
<path d="M 0 0 Z "/>
</symbol>
<symbol id="font_ed_2">
<path d="M .25097657 .4658203 C .31998698 .4658203 .37483726 .4464518 .41552735 .40771485 C .45654298 .36897788 .47705079 .31591798 .47705079 .24853516 C .47705079 .16878255 .45247398 .107421878 .4033203 .064453128 C .35416667 .021484375 .28385417 0 .19238281 0 C .11295573 0 .048828126 .012858073 0 .03857422 L 0 .16894531 C .025716147 .15527344 .055664064 .14404297 .08984375 .1352539 C .12402344 .12679036 .15641277 .122558597 .18701172 .122558597 C .27913413 .122558597 .3251953 .16031902 .3251953 .23583985 C .3251953 .30777995 .2775065 .34375 .1821289 .34375 C .1648763 .34375 .14583333 .34195964 .125 .3383789 C .104166667 .3351237 .087239589 .33154298 .07421875 .32763673 L .014160156 .35986329 L .041015626 .7236328 L .42822267 .7236328 L .42822267 .5957031 L .17333985 .5957031 L .16015625 .4555664 L .1772461 .45898438 C .19710286 .46354167 .22167969 .4658203 .25097657 .4658203 Z "/>
</symbol>
<use xlink:href="#font_ed_3" transform="matrix(10,0,0,-10,-13.806503,673.31436)" fill="#231f20"/>
<use xlink:href="#font_ed_5" transform="matrix(10,0,0,-10,-6.3248674,673.2167)" fill="#231f20"/>
<use xlink:href="#font_ed_4" transform="matrix(10,0,0,-10,.18165589,673.2167)" fill="#231f20"/>
<use xlink:href="#font_ed_6" transform="matrix(10,0,0,-10,2.7433778,673.31436)" fill="#231f20"/>
<use xlink:href="#font_ed_1" transform="matrix(10,0,0,-10,6.853882,673.2167)" fill="#231f20"/>
<use xlink:href="#font_ed_2" transform="matrix(10,0,0,-10,9.932159,673.31436)" fill="#231f20"/>
<symbol id="font_bc_b">
<path d="M 0 0 L 0 .7138672 L .08300781 .7138672 L .08300781 .07519531 L .39794923 .07519531 L .39794923 0 L 0 0 Z "/>
</symbol>
<symbol id="font_bc_1">
<path d="M 0 0 Z "/>
</symbol>
<symbol id="font_bc_5">
<path d="M .4453125 .55566409 C .4453125 .5100911 .43245445 .472819 .40673829 .44384767 C .38134767 .4148763 .34521485 .3955078 .29833985 .3857422 L .29833985 .38183595 C .3556315 .37467448 .39811198 .3564453 .42578126 .32714845 C .45345054 .29785157 .46728517 .2594401 .46728517 .21191406 C .46728517 .1438802 .4436849 .09147135 .39648438 .0546875 C .34928385 .018229166 .28222657 0 .1953125 0 C .15755208 0 .12288412 .0029296876 .091308597 .0087890629 C .060058595 .014322917 .029622397 .024251303 0 .03857422 L 0 .115722659 C .030924479 .10042318 .063802089 .08870443 .09863281 .080566409 C .13378906 .072753909 .16699219 .068847659 .19824219 .068847659 C .3216146 .068847659 .38330079 .1171875 .38330079 .21386719 C .38330079 .30045573 .31526695 .34375 .17919922 .34375 L .10888672 .34375 L .10888672 .41357423 L .18017578 .41357423 C .23583985 .41357423 .2799479 .42578126 .3125 .4501953 C .3450521 .4749349 .36132813 .50911459 .36132813 .5527344 C .36132813 .5875651 .34928385 .6149089 .3251953 .6347656 C .30143229 .6546224 .26904298 .6645508 .22802735 .6645508 C .19677735 .6645508 .1673177 .66031906 .13964844 .65185549 C .111979167 .6433919 .08040365 .6277669 .044921876 .60498049 L .00390625 .65966799 C .033203126 .68277999 .06689453 .7008464 .10498047 .7138672 C .14339192 .72721359 .18375652 .7338867 .22607422 .7338867 C .29541017 .7338867 .34928385 .7179362 .3876953 .68603518 C .42610679 .65445968 .4453125 .6110026 .4453125 .55566409 Z "/>
</symbol>
<use xlink:href="#font_bc_b" transform="matrix(10,0,0,-10,26.154435,673.2167)" fill="#231f20"/>
<use xlink:href="#font_bc_e" transform="matrix(10,0,0,-10,30.924515,673.31436)" fill="#231f20"/>
<use xlink:href="#font_bc_16" transform="matrix(10,0,0,-10,36.49057,673.31436)" fill="#231f20"/>
<use xlink:href="#font_bc_16" transform="matrix(10,0,0,-10,41.260576,673.31436)" fill="#231f20"/>
<use xlink:href="#font_bc_14" transform="matrix(10,0,0,-10,46.074525,673.31436)" fill="#231f20"/>
<use xlink:href="#font_bc_13" transform="matrix(10,0,0,-10,52.41237,673.2167)" fill="#231f20"/>
<use xlink:href="#font_bc_1" transform="matrix(10,0,0,-10,57.683,673.2167)" fill="#231f20"/>
<use xlink:href="#font_bc_5" transform="matrix(10,0,0,-10,60.731996,673.31436)" fill="#231f20"/>
<symbol id="font_bc_7">
<path d="M .20703125 .44580079 C .28222657 .44580079 .3413086 .42708335 .38427735 .38964845 C .42757163 .35253907 .44921876 .30159507 .44921876 .2368164 C .44921876 .16292317 .4256185 .10498047 .37841798 .06298828 C .33154298 .020996094 .2667643 0 .18408203 0 C .10367838 0 .042317708 .012858073 0 .03857422 L 0 .11669922 C .022786459 .10205078 .05110677 .09049479 .08496094 .08203125 C .1188151 .07389323 .15218099 .06982422 .1850586 .06982422 C .24235027 .06982422 .28678385 .083333339 .31835938 .11035156 C .3502604 .1373698 .36621095 .1764323 .36621095 .22753906 C .36621095 .32714845 .30517579 .37695313 .18310547 .37695313 C .15218099 .37695313 .110839847 .37223307 .05908203 .36279298 L .017089844 .38964845 L .043945314 .7236328 L .39892579 .7236328 L .39892579 .6489258 L .11328125 .6489258 L .095214847 .4345703 C .13264974 .44205729 .16992188 .44580079 .20703125 .44580079 Z "/>
</symbol>
<use xlink:href="#font_bc_7" transform="matrix(10,0,0,-10,468.0755,673.31436)" fill="#231f20"/>
</g>
</g>
</svg>
