<?xml version="1.0" encoding="UTF-8"?>
<svg xmlns="http://www.w3.org/2000/svg" xmlns:xlink="http://www.w3.org/1999/xlink" width="923.977478" height="1193.977478" viewBox="0 0 923.977478 1193.977478">
<path fill="none" stroke-width="1.99255" stroke-linecap="butt" stroke-linejoin="round" stroke="rgb(19.607843%, 19.607843%, 19.607843%)" stroke-opacity="1" stroke-miterlimit="10" d="M -56.324956 -15.830444 L 56.323481 -15.830444 L 56.323481 15.831014 L -56.324956 15.831014 Z M -56.324956 -15.830444 " transform="matrix(1.5, 0, 0, -1.5, 282.526497, 388.03949)"/>
<path fill-rule="nonzero" fill="rgb(0%, 0%, 0%)" fill-opacity="1" d="M 230.066406 383.960938 C 229.597656 383.84375 228.285156 383.351562 228.285156 382.132812 C 228.285156 380.328125 230.089844 380.28125 230.816406 380.28125 C 232.011719 380.28125 233.089844 380.5625 234.144531 381.59375 C 234.472656 381.898438 234.496094 381.921875 234.589844 381.921875 C 234.707031 381.921875 234.824219 381.851562 234.871094 381.546875 L 235.199219 379.671875 C 235.246094 379.507812 235.246094 379.460938 235.246094 379.414062 C 235.246094 379.226562 235.222656 379.203125 234.683594 378.921875 C 233.160156 378.195312 231.917969 378.078125 230.816406 378.078125 C 228.917969 378.078125 225.613281 378.523438 225.613281 382.53125 C 225.613281 384.03125 226.386719 385.015625 226.808594 385.460938 C 227.886719 386.5625 228.894531 386.773438 230.558594 387.171875 C 231.753906 387.429688 232.222656 387.546875 232.691406 387.96875 C 232.925781 388.179688 233.371094 388.648438 233.371094 389.445312 C 233.371094 391.460938 231.519531 391.53125 230.816406 391.53125 C 229.035156 391.53125 227.464844 390.804688 226.386719 389.84375 C 226.128906 389.585938 226.105469 389.585938 226.011719 389.585938 C 225.871094 389.585938 225.777344 389.632812 225.707031 389.960938 L 225.402344 391.8125 C 225.355469 392 225.355469 392.046875 225.355469 392.09375 C 225.355469 392.539062 227.582031 393.3125 227.675781 393.359375 C 229.105469 393.804688 230.253906 393.851562 230.816406 393.851562 C 234.027344 393.851562 236.042969 392.421875 236.042969 389.117188 C 236.042969 386.703125 234.261719 384.921875 232.128906 384.429688 Z M 230.066406 383.960938 "/>
<path fill-rule="nonzero" fill="rgb(0%, 0%, 0%)" fill-opacity="1" d="M 239.539062 378.523438 C 238.859375 378.523438 238.507812 378.664062 238.507812 379.507812 L 238.507812 380.492188 C 238.507812 381.171875 238.71875 381.453125 239.515625 381.453125 L 240.640625 381.453125 C 241.648438 381.453125 241.648438 381.007812 241.648438 380 C 241.648438 378.96875 241.648438 378.523438 240.640625 378.523438 Z M 241.507812 384.617188 C 241.507812 383.9375 241.367188 383.585938 240.476562 383.585938 L 239.679688 383.585938 C 238.929688 383.585938 238.671875 383.820312 238.671875 384.617188 L 238.671875 392.351562 C 238.671875 393.125 238.90625 393.382812 239.679688 393.382812 L 240.476562 393.382812 C 241.296875 393.382812 241.507812 393.101562 241.507812 392.351562 Z M 241.507812 384.617188 "/>
<path fill-rule="nonzero" fill="rgb(0%, 0%, 0%)" fill-opacity="1" d="M 259.125 390.359375 C 259.125 389.164062 258.492188 388.414062 258.09375 388.085938 C 257.25 387.3125 256.5 387.195312 255.609375 387.007812 C 254.4375 386.796875 253.570312 386.632812 253.570312 385.789062 C 253.570312 384.921875 254.273438 384.757812 255.117188 384.757812 C 256.546875 384.757812 257.320312 385.273438 257.859375 385.742188 C 258.070312 385.976562 258.117188 385.976562 258.210938 385.976562 C 258.421875 385.976562 258.46875 385.765625 258.492188 385.695312 C 258.539062 385.507812 258.75 384.3125 258.75 384.21875 C 258.75 383.867188 257.601562 383.5625 257.367188 383.492188 C 256.523438 383.257812 255.84375 383.234375 255.28125 383.234375 C 254.320312 383.234375 251.460938 383.234375 251.460938 386.28125 C 251.460938 387.335938 251.929688 387.96875 252.492188 388.484375 C 253.242188 389.164062 254.085938 389.328125 255.304688 389.5625 C 255.914062 389.65625 257.015625 389.867188 257.015625 390.804688 C 257.015625 391.8125 256.171875 391.953125 255.351562 391.953125 C 254.414062 391.953125 253.21875 391.671875 252.210938 390.476562 C 252.09375 390.359375 252.023438 390.3125 251.90625 390.3125 C 251.695312 390.3125 251.648438 390.5 251.625 390.617188 C 251.578125 390.921875 251.320312 392.140625 251.320312 392.351562 C 251.320312 392.75 252.914062 393.242188 252.9375 393.265625 C 254.109375 393.617188 254.976562 393.617188 255.351562 393.617188 C 256.429688 393.617188 259.125 393.523438 259.125 390.359375 Z M 259.125 390.359375 "/>
<path fill-rule="nonzero" fill="rgb(0%, 0%, 0%)" fill-opacity="1" d="M 268.789062 379.15625 C 268.882812 379.0625 269.023438 378.945312 269.023438 378.828125 C 269.023438 378.546875 268.789062 378.546875 268.4375 378.546875 L 266.679688 378.546875 C 266.257812 378.546875 266.234375 378.570312 266.046875 378.804688 L 264.21875 381.3125 C 264.007812 381.546875 264.007812 381.59375 264.007812 381.617188 C 264.007812 381.898438 264.242188 381.898438 264.59375 381.898438 L 265.390625 381.898438 Z M 268.789062 379.15625 "/>
<path fill-rule="nonzero" fill="rgb(0%, 0%, 0%)" fill-opacity="1" d="M 268.886719 388.8125 C 269.378906 388.8125 269.917969 388.789062 269.917969 387.828125 C 269.917969 385.0625 268.628906 383.234375 265.441406 383.234375 C 262.019531 383.234375 260.332031 385.15625 260.332031 388.414062 C 260.332031 391.90625 262.371094 393.617188 265.722656 393.617188 C 266.542969 393.617188 267.761719 393.5 269.167969 392.796875 C 269.636719 392.5625 269.777344 392.515625 269.777344 392.257812 C 269.777344 392.09375 269.730469 391.484375 269.707031 391.320312 C 269.613281 390.640625 269.589844 390.617188 269.402344 390.617188 C 269.308594 390.617188 269.261719 390.617188 269.027344 390.828125 C 267.785156 391.929688 266.496094 392.070312 265.816406 392.070312 C 263.402344 392.070312 263.144531 390.171875 263.074219 388.8125 Z M 263.097656 387.664062 C 263.167969 386.375 263.589844 384.757812 265.441406 384.757812 C 267.152344 384.757812 267.480469 386 267.550781 387.664062 Z M 263.097656 387.664062 "/>
<path fill-rule="nonzero" fill="rgb(0%, 0%, 0%)" fill-opacity="1" d="M 289.085938 384.382812 C 289.085938 383.703125 288.945312 383.351562 288.054688 383.351562 L 287.28125 383.351562 C 286.460938 383.351562 286.25 383.632812 286.25 384.382812 L 286.25 384.78125 C 285.3125 383.351562 284.046875 383.351562 283.671875 383.351562 C 279.546875 383.351562 279.21875 386.796875 279.21875 388.507812 C 279.21875 390.171875 279.546875 393.617188 283.53125 393.617188 C 284.65625 393.617188 285.453125 393.195312 286.179688 392.351562 L 286.179688 396.5 C 286.179688 397.179688 286.320312 397.53125 287.210938 397.53125 L 288.054688 397.53125 C 288.875 397.53125 289.085938 397.25 289.085938 396.5 Z M 286.25 390.921875 C 285.851562 391.460938 285.289062 392.070312 284.304688 392.070312 C 282.125 392.070312 282.125 389.375 282.125 388.53125 C 282.125 387.664062 282.125 385.015625 284.515625 385.015625 C 284.867188 385.015625 285.3125 385.109375 285.6875 385.507812 C 286.25 386.046875 286.25 386.445312 286.25 386.703125 Z M 286.25 390.921875 "/>
<path fill-rule="nonzero" fill="rgb(0%, 0%, 0%)" fill-opacity="1" d="M 301.097656 384.617188 C 301.097656 383.9375 300.957031 383.585938 300.066406 383.585938 L 299.222656 383.585938 C 298.402344 383.585938 298.191406 383.867188 298.191406 384.617188 L 298.191406 389.679688 C 298.191406 391.085938 297.441406 392.304688 295.917969 392.304688 C 294.722656 392.304688 294.605469 392.023438 294.605469 390.875 L 294.605469 384.617188 C 294.605469 383.9375 294.441406 383.585938 293.574219 383.585938 L 292.707031 383.585938 C 291.957031 383.585938 291.699219 383.820312 291.699219 384.617188 L 291.699219 390.6875 C 291.699219 392.984375 292.941406 393.617188 295.144531 393.617188 C 295.730469 393.617188 297.253906 393.617188 298.261719 391.8125 L 298.261719 392.351562 C 298.261719 393.03125 298.402344 393.382812 299.269531 393.382812 L 300.066406 393.382812 C 300.886719 393.382812 301.097656 393.101562 301.097656 392.351562 Z M 301.097656 384.617188 "/>
<path fill-rule="nonzero" fill="rgb(0%, 0%, 0%)" fill-opacity="1" d="M 311.613281 388.8125 C 312.105469 388.8125 312.644531 388.789062 312.644531 387.828125 C 312.644531 385.0625 311.355469 383.234375 308.167969 383.234375 C 304.746094 383.234375 303.058594 385.15625 303.058594 388.414062 C 303.058594 391.90625 305.097656 393.617188 308.449219 393.617188 C 309.269531 393.617188 310.488281 393.5 311.894531 392.796875 C 312.363281 392.5625 312.503906 392.515625 312.503906 392.257812 C 312.503906 392.09375 312.457031 391.484375 312.433594 391.320312 C 312.339844 390.640625 312.316406 390.617188 312.128906 390.617188 C 312.035156 390.617188 311.988281 390.617188 311.753906 390.828125 C 310.511719 391.929688 309.222656 392.070312 308.542969 392.070312 C 306.128906 392.070312 305.871094 390.171875 305.800781 388.8125 Z M 305.824219 387.664062 C 305.894531 386.375 306.316406 384.757812 308.167969 384.757812 C 309.878906 384.757812 310.207031 386 310.277344 387.664062 Z M 305.824219 387.664062 "/>
<path fill-rule="nonzero" fill="rgb(0%, 0%, 0%)" fill-opacity="1" d="M 325.832031 391.15625 C 325.832031 390.59375 325.808594 390.59375 325.246094 390.59375 L 323.605469 390.59375 C 323.042969 390.59375 323.019531 390.59375 323.019531 391.15625 L 323.019531 392.796875 C 323.019531 393.359375 323.042969 393.382812 323.605469 393.382812 L 325.246094 393.382812 C 325.808594 393.382812 325.832031 393.359375 325.832031 392.796875 Z M 325.832031 391.15625 "/>
<path fill-rule="nonzero" fill="rgb(0%, 0%, 0%)" fill-opacity="1" d="M 332.359375 391.15625 C 332.359375 390.59375 332.335938 390.59375 331.773438 390.59375 L 330.132812 390.59375 C 329.570312 390.59375 329.546875 390.59375 329.546875 391.15625 L 329.546875 392.796875 C 329.546875 393.359375 329.570312 393.382812 330.132812 393.382812 L 331.773438 393.382812 C 332.335938 393.382812 332.359375 393.359375 332.359375 392.796875 Z M 332.359375 391.15625 "/>
<path fill-rule="nonzero" fill="rgb(0%, 0%, 0%)" fill-opacity="1" d="M 338.890625 391.15625 C 338.890625 390.59375 338.867188 390.59375 338.304688 390.59375 L 336.664062 390.59375 C 336.101562 390.59375 336.078125 390.59375 336.078125 391.15625 L 336.078125 392.796875 C 336.078125 393.359375 336.101562 393.382812 336.664062 393.382812 L 338.304688 393.382812 C 338.867188 393.382812 338.890625 393.359375 338.890625 392.796875 Z M 338.890625 391.15625 "/>
<path fill="none" stroke-width="1.99255" stroke-linecap="butt" stroke-linejoin="round" stroke="rgb(19.607843%, 19.607843%, 19.607843%)" stroke-opacity="1" stroke-miterlimit="10" d="M -119.642507 -15.830444 L 119.643951 -15.830444 L 119.643951 15.831014 L -119.642507 15.831014 Z M -119.642507 -15.830444 " transform="matrix(1.5, 0, 0, -1.5, 546.475479, 388.03949)"/>
<path fill-rule="nonzero" fill="rgb(0%, 0%, 0%)" fill-opacity="1" d="M 458.363281 386.726562 L 463.988281 386.726562 C 464.644531 386.726562 465.019531 386.585938 465.019531 385.742188 C 465.019531 384.945312 464.738281 384.734375 463.988281 384.734375 L 458.363281 384.734375 L 458.363281 380.773438 L 459.417969 380.773438 C 461.082031 380.773438 462.769531 380.84375 464.433594 380.84375 C 465.183594 380.84375 465.675781 380.84375 465.675781 379.8125 L 465.675781 379.648438 C 465.675781 378.945312 465.535156 378.617188 464.644531 378.617188 L 456.253906 378.617188 C 455.480469 378.617188 455.222656 378.851562 455.222656 379.648438 L 455.222656 392.351562 C 455.222656 393.125 455.457031 393.382812 456.253906 393.382812 L 464.972656 393.382812 C 465.792969 393.382812 466.003906 393.101562 466.003906 392.351562 L 466.003906 392.046875 C 466.003906 391.039062 465.511719 391.039062 464.808594 391.039062 C 463.683594 391.039062 462.605469 391.085938 461.480469 391.085938 C 460.941406 391.085938 458.738281 391.085938 458.363281 391.109375 Z M 458.363281 386.726562 "/>
<path fill-rule="nonzero" fill="rgb(0%, 0%, 0%)" fill-opacity="1" d="M 477.675781 386.445312 C 477.675781 384.242188 476.738281 383.351562 474.558594 383.351562 C 472.308594 383.351562 471.347656 384.992188 471.066406 385.554688 L 471.042969 385.554688 L 471.042969 384.5 C 471.042969 383.796875 470.902344 383.46875 470.035156 383.46875 L 469.285156 383.46875 C 468.535156 383.46875 468.277344 383.703125 468.277344 384.5 L 468.277344 392.351562 C 468.277344 393.125 468.511719 393.382812 469.285156 393.382812 L 470.152344 393.382812 C 470.972656 393.382812 471.183594 393.101562 471.183594 392.351562 L 471.183594 387.640625 C 471.183594 385.765625 472.425781 384.898438 473.527344 384.898438 C 474.558594 384.898438 474.769531 385.390625 474.769531 386.46875 L 474.769531 392.351562 C 474.769531 393.03125 474.910156 393.382812 475.800781 393.382812 L 476.644531 393.382812 C 477.464844 393.382812 477.675781 393.101562 477.675781 392.351562 Z M 477.675781 386.445312 "/>
<path fill-rule="nonzero" fill="rgb(0%, 0%, 0%)" fill-opacity="1" d="M 483.644531 385.132812 L 485.542969 385.132812 C 485.800781 385.132812 486.574219 385.132812 486.574219 384.359375 C 486.574219 383.585938 485.800781 383.585938 485.542969 383.585938 L 483.644531 383.585938 L 483.644531 381.828125 C 483.644531 381.125 483.480469 380.796875 482.613281 380.796875 L 481.957031 380.796875 C 481.183594 380.796875 480.925781 381.03125 480.925781 381.828125 L 480.925781 383.585938 L 480.433594 383.585938 C 480.199219 383.585938 479.402344 383.585938 479.402344 384.359375 C 479.402344 385.132812 480.175781 385.132812 480.433594 385.132812 L 480.855469 385.132812 L 480.855469 390.546875 C 480.855469 392.703125 481.628906 393.617188 483.105469 393.617188 C 483.292969 393.617188 484.230469 393.617188 485.355469 393.265625 C 485.707031 393.171875 486.949219 392.773438 486.949219 392.375 C 486.949219 392.304688 486.902344 392.164062 486.785156 391.71875 C 486.667969 391.296875 486.621094 391.15625 486.433594 391.15625 C 486.339844 391.15625 486.316406 391.179688 486.175781 391.320312 C 485.941406 391.484375 485.378906 391.953125 484.464844 391.953125 C 483.949219 391.953125 483.644531 391.578125 483.644531 390.171875 Z M 483.644531 385.132812 "/>
<path fill-rule="nonzero" fill="rgb(0%, 0%, 0%)" fill-opacity="1" d="M 498.679688 388.578125 C 498.679688 385.0625 496.96875 383.234375 493.5 383.234375 C 489.914062 383.234375 488.273438 385.132812 488.273438 388.578125 C 488.273438 392.046875 490.125 393.617188 493.476562 393.617188 C 496.828125 393.617188 498.679688 392.070312 498.679688 388.578125 Z M 493.5 391.953125 C 491.179688 391.953125 491.179688 390.03125 491.179688 388.320312 C 491.179688 386.679688 491.179688 384.757812 493.476562 384.757812 C 495.773438 384.757812 495.773438 386.65625 495.773438 388.320312 C 495.773438 390.007812 495.773438 391.953125 493.5 391.953125 Z M 493.5 391.953125 "/>
<path fill-rule="nonzero" fill="rgb(0%, 0%, 0%)" fill-opacity="1" d="M 510.058594 386.445312 C 510.058594 384.242188 509.121094 383.351562 506.941406 383.351562 C 504.691406 383.351562 503.730469 384.992188 503.449219 385.554688 L 503.425781 385.554688 L 503.425781 384.5 C 503.425781 383.796875 503.285156 383.46875 502.417969 383.46875 L 501.667969 383.46875 C 500.917969 383.46875 500.660156 383.703125 500.660156 384.5 L 500.660156 392.351562 C 500.660156 393.125 500.894531 393.382812 501.667969 393.382812 L 502.535156 393.382812 C 503.355469 393.382812 503.566406 393.101562 503.566406 392.351562 L 503.566406 387.640625 C 503.566406 385.765625 504.808594 384.898438 505.910156 384.898438 C 506.941406 384.898438 507.152344 385.390625 507.152344 386.46875 L 507.152344 392.351562 C 507.152344 393.03125 507.292969 393.382812 508.183594 393.382812 L 509.027344 393.382812 C 509.847656 393.382812 510.058594 393.101562 510.058594 392.351562 Z M 510.058594 386.445312 "/>
<path fill-rule="nonzero" fill="rgb(0%, 0%, 0%)" fill-opacity="1" d="M 521.136719 392.304688 C 521.136719 392.070312 521.042969 391.085938 520.996094 390.828125 C 520.996094 390.757812 520.949219 390.546875 520.738281 390.546875 C 520.667969 390.546875 520.621094 390.546875 520.410156 390.757812 C 520.035156 391.085938 519.027344 391.953125 517.292969 391.953125 C 515.066406 391.953125 515.066406 389.796875 515.066406 388.414062 C 515.066406 386.703125 515.160156 384.898438 517.339844 384.898438 C 518.746094 384.898438 519.308594 385.25 520.082031 385.882812 C 520.339844 386.117188 520.386719 386.117188 520.480469 386.117188 C 520.691406 386.117188 520.714844 385.929688 520.738281 385.835938 C 520.785156 385.671875 520.996094 384.476562 520.996094 384.359375 C 520.996094 384.171875 520.855469 384.078125 520.480469 383.914062 C 519.472656 383.445312 518.816406 383.234375 517.316406 383.234375 C 514.152344 383.234375 512.160156 384.734375 512.160156 388.460938 C 512.160156 392.023438 513.988281 393.617188 517.222656 393.617188 C 517.808594 393.617188 519.074219 393.59375 520.503906 392.867188 C 521.113281 392.539062 521.136719 392.539062 521.136719 392.304688 Z M 521.136719 392.304688 "/>
<path fill-rule="nonzero" fill="rgb(0%, 0%, 0%)" fill-opacity="1" d="M 531.019531 388.8125 C 531.511719 388.8125 532.050781 388.789062 532.050781 387.828125 C 532.050781 385.0625 530.761719 383.234375 527.574219 383.234375 C 524.152344 383.234375 522.464844 385.15625 522.464844 388.414062 C 522.464844 391.90625 524.503906 393.617188 527.855469 393.617188 C 528.675781 393.617188 529.894531 393.5 531.300781 392.796875 C 531.769531 392.5625 531.910156 392.515625 531.910156 392.257812 C 531.910156 392.09375 531.863281 391.484375 531.839844 391.320312 C 531.746094 390.640625 531.722656 390.617188 531.535156 390.617188 C 531.441406 390.617188 531.394531 390.617188 531.160156 390.828125 C 529.917969 391.929688 528.628906 392.070312 527.949219 392.070312 C 525.535156 392.070312 525.277344 390.171875 525.207031 388.8125 Z M 525.230469 387.664062 C 525.300781 386.375 525.722656 384.757812 527.574219 384.757812 C 529.285156 384.757812 529.613281 386 529.683594 387.664062 Z M 525.230469 387.664062 "/>
<path fill-rule="nonzero" fill="rgb(0%, 0%, 0%)" fill-opacity="1" d="M 541.191406 390.359375 C 541.191406 389.164062 540.558594 388.414062 540.160156 388.085938 C 539.316406 387.3125 538.566406 387.195312 537.675781 387.007812 C 536.503906 386.796875 535.636719 386.632812 535.636719 385.789062 C 535.636719 384.921875 536.339844 384.757812 537.183594 384.757812 C 538.613281 384.757812 539.386719 385.273438 539.925781 385.742188 C 540.136719 385.976562 540.183594 385.976562 540.277344 385.976562 C 540.488281 385.976562 540.535156 385.765625 540.558594 385.695312 C 540.605469 385.507812 540.816406 384.3125 540.816406 384.21875 C 540.816406 383.867188 539.667969 383.5625 539.433594 383.492188 C 538.589844 383.257812 537.910156 383.234375 537.347656 383.234375 C 536.386719 383.234375 533.527344 383.234375 533.527344 386.28125 C 533.527344 387.335938 533.996094 387.96875 534.558594 388.484375 C 535.308594 389.164062 536.152344 389.328125 537.371094 389.5625 C 537.980469 389.65625 539.082031 389.867188 539.082031 390.804688 C 539.082031 391.8125 538.238281 391.953125 537.417969 391.953125 C 536.480469 391.953125 535.285156 391.671875 534.277344 390.476562 C 534.160156 390.359375 534.089844 390.3125 533.972656 390.3125 C 533.761719 390.3125 533.714844 390.5 533.691406 390.617188 C 533.644531 390.921875 533.386719 392.140625 533.386719 392.351562 C 533.386719 392.75 534.980469 393.242188 535.003906 393.265625 C 536.175781 393.617188 537.042969 393.617188 537.417969 393.617188 C 538.496094 393.617188 541.191406 393.523438 541.191406 390.359375 Z M 541.191406 390.359375 "/>
<path fill-rule="nonzero" fill="rgb(0%, 0%, 0%)" fill-opacity="1" d="M 558.046875 390.359375 C 558.046875 389.164062 557.414062 388.414062 557.015625 388.085938 C 556.171875 387.3125 555.421875 387.195312 554.53125 387.007812 C 553.359375 386.796875 552.492188 386.632812 552.492188 385.789062 C 552.492188 384.921875 553.195312 384.757812 554.039062 384.757812 C 555.46875 384.757812 556.242188 385.273438 556.78125 385.742188 C 556.992188 385.976562 557.039062 385.976562 557.132812 385.976562 C 557.34375 385.976562 557.390625 385.765625 557.414062 385.695312 C 557.460938 385.507812 557.671875 384.3125 557.671875 384.21875 C 557.671875 383.867188 556.523438 383.5625 556.289062 383.492188 C 555.445312 383.257812 554.765625 383.234375 554.203125 383.234375 C 553.242188 383.234375 550.382812 383.234375 550.382812 386.28125 C 550.382812 387.335938 550.851562 387.96875 551.414062 388.484375 C 552.164062 389.164062 553.007812 389.328125 554.226562 389.5625 C 554.835938 389.65625 555.9375 389.867188 555.9375 390.804688 C 555.9375 391.8125 555.09375 391.953125 554.273438 391.953125 C 553.335938 391.953125 552.140625 391.671875 551.132812 390.476562 C 551.015625 390.359375 550.945312 390.3125 550.828125 390.3125 C 550.617188 390.3125 550.570312 390.5 550.546875 390.617188 C 550.5 390.921875 550.242188 392.140625 550.242188 392.351562 C 550.242188 392.75 551.835938 393.242188 551.859375 393.265625 C 553.03125 393.617188 553.898438 393.617188 554.273438 393.617188 C 555.351562 393.617188 558.046875 393.523438 558.046875 390.359375 Z M 558.046875 390.359375 "/>
<path fill-rule="nonzero" fill="rgb(0%, 0%, 0%)" fill-opacity="1" d="M 567.710938 379.15625 C 567.804688 379.0625 567.945312 378.945312 567.945312 378.828125 C 567.945312 378.546875 567.710938 378.546875 567.359375 378.546875 L 565.601562 378.546875 C 565.179688 378.546875 565.15625 378.570312 564.96875 378.804688 L 563.140625 381.3125 C 562.929688 381.546875 562.929688 381.59375 562.929688 381.617188 C 562.929688 381.898438 563.164062 381.898438 563.515625 381.898438 L 564.3125 381.898438 Z M 567.710938 379.15625 "/>
<path fill-rule="nonzero" fill="rgb(0%, 0%, 0%)" fill-opacity="1" d="M 567.808594 388.8125 C 568.300781 388.8125 568.839844 388.789062 568.839844 387.828125 C 568.839844 385.0625 567.550781 383.234375 564.363281 383.234375 C 560.941406 383.234375 559.253906 385.15625 559.253906 388.414062 C 559.253906 391.90625 561.292969 393.617188 564.644531 393.617188 C 565.464844 393.617188 566.683594 393.5 568.089844 392.796875 C 568.558594 392.5625 568.699219 392.515625 568.699219 392.257812 C 568.699219 392.09375 568.652344 391.484375 568.628906 391.320312 C 568.535156 390.640625 568.511719 390.617188 568.324219 390.617188 C 568.230469 390.617188 568.183594 390.617188 567.949219 390.828125 C 566.707031 391.929688 565.417969 392.070312 564.738281 392.070312 C 562.324219 392.070312 562.066406 390.171875 561.996094 388.8125 Z M 562.019531 387.664062 C 562.089844 386.375 562.511719 384.757812 564.363281 384.757812 C 566.074219 384.757812 566.402344 386 566.472656 387.664062 Z M 562.019531 387.664062 "/>
<path fill-rule="nonzero" fill="rgb(0%, 0%, 0%)" fill-opacity="1" d="M 588.003906 384.382812 C 588.003906 383.703125 587.863281 383.351562 586.972656 383.351562 L 586.199219 383.351562 C 585.378906 383.351562 585.167969 383.632812 585.167969 384.382812 L 585.167969 384.78125 C 584.230469 383.351562 582.964844 383.351562 582.589844 383.351562 C 578.464844 383.351562 578.136719 386.796875 578.136719 388.507812 C 578.136719 390.171875 578.464844 393.617188 582.449219 393.617188 C 583.574219 393.617188 584.371094 393.195312 585.097656 392.351562 L 585.097656 396.5 C 585.097656 397.179688 585.238281 397.53125 586.128906 397.53125 L 586.972656 397.53125 C 587.792969 397.53125 588.003906 397.25 588.003906 396.5 Z M 585.167969 390.921875 C 584.769531 391.460938 584.207031 392.070312 583.222656 392.070312 C 581.042969 392.070312 581.042969 389.375 581.042969 388.53125 C 581.042969 387.664062 581.042969 385.015625 583.433594 385.015625 C 583.785156 385.015625 584.230469 385.109375 584.605469 385.507812 C 585.167969 386.046875 585.167969 386.445312 585.167969 386.703125 Z M 585.167969 390.921875 "/>
<path fill-rule="nonzero" fill="rgb(0%, 0%, 0%)" fill-opacity="1" d="M 600.019531 384.617188 C 600.019531 383.9375 599.878906 383.585938 598.988281 383.585938 L 598.144531 383.585938 C 597.324219 383.585938 597.113281 383.867188 597.113281 384.617188 L 597.113281 389.679688 C 597.113281 391.085938 596.363281 392.304688 594.839844 392.304688 C 593.644531 392.304688 593.527344 392.023438 593.527344 390.875 L 593.527344 384.617188 C 593.527344 383.9375 593.363281 383.585938 592.496094 383.585938 L 591.628906 383.585938 C 590.878906 383.585938 590.621094 383.820312 590.621094 384.617188 L 590.621094 390.6875 C 590.621094 392.984375 591.863281 393.617188 594.066406 393.617188 C 594.652344 393.617188 596.175781 393.617188 597.183594 391.8125 L 597.183594 392.351562 C 597.183594 393.03125 597.324219 393.382812 598.191406 393.382812 L 598.988281 393.382812 C 599.808594 393.382812 600.019531 393.101562 600.019531 392.351562 Z M 600.019531 384.617188 "/>
<path fill-rule="nonzero" fill="rgb(0%, 0%, 0%)" fill-opacity="1" d="M 610.535156 388.8125 C 611.027344 388.8125 611.566406 388.789062 611.566406 387.828125 C 611.566406 385.0625 610.277344 383.234375 607.089844 383.234375 C 603.667969 383.234375 601.980469 385.15625 601.980469 388.414062 C 601.980469 391.90625 604.019531 393.617188 607.371094 393.617188 C 608.191406 393.617188 609.410156 393.5 610.816406 392.796875 C 611.285156 392.5625 611.425781 392.515625 611.425781 392.257812 C 611.425781 392.09375 611.378906 391.484375 611.355469 391.320312 C 611.261719 390.640625 611.238281 390.617188 611.050781 390.617188 C 610.957031 390.617188 610.910156 390.617188 610.675781 390.828125 C 609.433594 391.929688 608.144531 392.070312 607.464844 392.070312 C 605.050781 392.070312 604.792969 390.171875 604.722656 388.8125 Z M 604.746094 387.664062 C 604.816406 386.375 605.238281 384.757812 607.089844 384.757812 C 608.800781 384.757812 609.128906 386 609.199219 387.664062 Z M 604.746094 387.664062 "/>
<path fill-rule="nonzero" fill="rgb(0%, 0%, 0%)" fill-opacity="1" d="M 624.75 391.15625 C 624.75 390.59375 624.726562 390.59375 624.164062 390.59375 L 622.523438 390.59375 C 621.960938 390.59375 621.9375 390.59375 621.9375 391.15625 L 621.9375 392.796875 C 621.9375 393.359375 621.960938 393.382812 622.523438 393.382812 L 624.164062 393.382812 C 624.726562 393.382812 624.75 393.359375 624.75 392.796875 Z M 624.75 391.15625 "/>
<path fill-rule="nonzero" fill="rgb(0%, 0%, 0%)" fill-opacity="1" d="M 631.28125 391.15625 C 631.28125 390.59375 631.257812 390.59375 630.695312 390.59375 L 629.054688 390.59375 C 628.492188 390.59375 628.46875 390.59375 628.46875 391.15625 L 628.46875 392.796875 C 628.46875 393.359375 628.492188 393.382812 629.054688 393.382812 L 630.695312 393.382812 C 631.257812 393.382812 631.28125 393.359375 631.28125 392.796875 Z M 631.28125 391.15625 "/>
<path fill-rule="nonzero" fill="rgb(0%, 0%, 0%)" fill-opacity="1" d="M 637.8125 391.15625 C 637.8125 390.59375 637.789062 390.59375 637.226562 390.59375 L 635.585938 390.59375 C 635.023438 390.59375 635 390.59375 635 391.15625 L 635 392.796875 C 635 393.359375 635.023438 393.382812 635.585938 393.382812 L 637.226562 393.382812 C 637.789062 393.382812 637.8125 393.359375 637.8125 392.796875 Z M 637.8125 391.15625 "/>
<path fill="none" stroke-width="0.99628" stroke-linecap="butt" stroke-linejoin="round" stroke="rgb(19.607843%, 19.607843%, 19.607843%)" stroke-opacity="1" stroke-miterlimit="10" d="M -56.324956 -31.659556 L 56.323481 -31.659556 L 56.323481 31.660756 L -56.324956 31.660756 Z M -56.324956 -31.659556 " transform="matrix(1.5, 0, 0, -1.5, 282.526497, 460.018478)"/>
<path fill-rule="nonzero" fill="rgb(0%, 0%, 0%)" fill-opacity="1" d="M 260.917969 464.792969 L 260.917969 466.128906 L 269.261719 466.128906 L 269.261719 464.675781 L 265.464844 464.675781 C 265.207031 464.675781 264.949219 464.699219 264.691406 464.699219 L 262.417969 464.699219 C 262.957031 464.113281 264.949219 462.144531 266.332031 460.902344 C 267.925781 459.519531 269.261719 458.207031 269.261719 456.238281 C 269.261719 453.871094 267.621094 451.667969 264.808594 451.667969 C 262.488281 451.667969 261.316406 453.191406 260.730469 455.183594 C 261.433594 456.050781 261.433594 456.074219 261.621094 456.332031 C 262.160156 454.058594 262.933594 453.003906 264.527344 453.003906 C 266.355469 453.003906 267.550781 454.433594 267.550781 456.285156 C 267.550781 457.386719 267.105469 458.628906 265.675781 460.035156 Z M 260.917969 464.792969 "/>
<path fill-rule="nonzero" fill="rgb(0%, 0%, 0%)" fill-opacity="1" d="M 286.023438 460.175781 L 281.734375 455.933594 C 281.476562 455.675781 281.453125 455.628906 281.265625 455.628906 C 281.054688 455.628906 280.84375 455.816406 280.84375 456.050781 C 280.84375 456.214844 280.890625 456.261719 281.125 456.496094 L 285.390625 460.785156 L 281.125 465.074219 C 280.890625 465.308594 280.84375 465.355469 280.84375 465.519531 C 280.84375 465.753906 281.054688 465.941406 281.265625 465.941406 C 281.453125 465.941406 281.476562 465.894531 281.734375 465.636719 L 286 461.394531 L 290.429688 465.800781 C 290.453125 465.824219 290.617188 465.941406 290.734375 465.941406 C 290.992188 465.941406 291.179688 465.753906 291.179688 465.519531 C 291.179688 465.472656 291.179688 465.378906 291.109375 465.285156 C 291.085938 465.238281 287.6875 461.886719 286.609375 460.785156 L 290.523438 456.871094 C 290.640625 456.753906 290.945312 456.472656 291.0625 456.332031 C 291.085938 456.285156 291.179688 456.214844 291.179688 456.050781 C 291.179688 455.816406 290.992188 455.628906 290.734375 455.628906 C 290.570312 455.628906 290.476562 455.722656 290.242188 455.957031 Z M 286.023438 460.175781 "/>
<path fill-rule="nonzero" fill="rgb(0%, 0%, 0%)" fill-opacity="1" d="M 309.507812 462.449219 L 311.570312 462.449219 L 311.570312 461.160156 L 309.507812 461.160156 L 309.507812 452.136719 L 307.585938 452.136719 L 302.289062 461.160156 L 302.289062 462.449219 L 307.820312 462.449219 L 307.820312 466.128906 L 309.507812 466.128906 Z M 303.929688 461.160156 C 304.539062 460.082031 305.382812 458.722656 306.273438 457.011719 C 306.53125 456.519531 307.914062 453.871094 307.914062 453.097656 L 307.914062 461.160156 Z M 303.929688 461.160156 "/>
<path fill="none" stroke-width="0.99628" stroke-linecap="butt" stroke-linejoin="round" stroke="rgb(19.607843%, 19.607843%, 19.607843%)" stroke-opacity="1" stroke-miterlimit="10" d="M -119.642507 -31.659556 L 119.643951 -31.659556 L 119.643951 31.660756 L -119.642507 31.660756 Z M -119.642507 -31.659556 " transform="matrix(1.5, 0, 0, -1.5, 546.475479, 460.018478)"/>
<path fill-rule="nonzero" fill="rgb(0%, 0%, 0%)" fill-opacity="1" d="M 458.1875 462.003906 L 460.25 462.003906 L 460.25 460.714844 L 458.1875 460.714844 L 458.1875 451.691406 L 456.265625 451.691406 L 450.96875 460.714844 L 450.96875 462.003906 L 456.5 462.003906 L 456.5 465.683594 L 458.1875 465.683594 Z M 452.609375 460.714844 C 453.21875 459.636719 454.0625 458.277344 454.953125 456.566406 C 455.210938 456.074219 456.59375 453.425781 456.59375 452.652344 L 456.59375 460.714844 Z M 452.609375 460.714844 "/>
<path fill-rule="nonzero" fill="rgb(0%, 0%, 0%)" fill-opacity="1" d="M 478.160156 459.730469 L 473.871094 455.488281 C 473.613281 455.230469 473.589844 455.183594 473.402344 455.183594 C 473.191406 455.183594 472.980469 455.371094 472.980469 455.605469 C 472.980469 455.769531 473.027344 455.816406 473.261719 456.050781 L 477.527344 460.339844 L 473.261719 464.628906 C 473.027344 464.863281 472.980469 464.910156 472.980469 465.074219 C 472.980469 465.308594 473.191406 465.496094 473.402344 465.496094 C 473.589844 465.496094 473.613281 465.449219 473.871094 465.191406 L 478.136719 460.949219 L 482.566406 465.355469 C 482.589844 465.378906 482.753906 465.496094 482.871094 465.496094 C 483.128906 465.496094 483.316406 465.308594 483.316406 465.074219 C 483.316406 465.027344 483.316406 464.933594 483.246094 464.839844 C 483.222656 464.792969 479.824219 461.441406 478.746094 460.339844 L 482.660156 456.425781 C 482.777344 456.308594 483.082031 456.027344 483.199219 455.886719 C 483.222656 455.839844 483.316406 455.769531 483.316406 455.605469 C 483.316406 455.371094 483.128906 455.183594 482.871094 455.183594 C 482.707031 455.183594 482.613281 455.277344 482.378906 455.511719 Z M 478.160156 459.730469 "/>
<path fill-rule="nonzero" fill="rgb(0%, 0%, 0%)" fill-opacity="1" d="M 496.511719 464.347656 L 496.511719 465.683594 L 504.855469 465.683594 L 504.855469 464.230469 L 501.058594 464.230469 C 500.800781 464.230469 500.542969 464.253906 500.285156 464.253906 L 498.011719 464.253906 C 498.550781 463.667969 500.542969 461.699219 501.925781 460.457031 C 503.519531 459.074219 504.855469 457.761719 504.855469 455.792969 C 504.855469 453.425781 503.214844 451.222656 500.402344 451.222656 C 498.082031 451.222656 496.910156 452.746094 496.324219 454.738281 C 497.027344 455.605469 497.027344 455.628906 497.214844 455.886719 C 497.753906 453.613281 498.527344 452.558594 500.121094 452.558594 C 501.949219 452.558594 503.144531 453.988281 503.144531 455.839844 C 503.144531 456.941406 502.699219 458.183594 501.269531 459.589844 Z M 496.511719 464.347656 "/>
<path fill-rule="nonzero" fill="rgb(0%, 0%, 0%)" fill-opacity="1" d="M 509.695312 465.660156 L 509.695312 463.949219 L 507.960938 463.949219 L 507.960938 465.683594 L 508.476562 465.683594 L 507.960938 468.355469 L 508.804688 468.355469 Z M 509.695312 465.660156 "/>
<path fill-rule="nonzero" fill="rgb(0%, 0%, 0%)" fill-opacity="1" d="M 526.503906 462.003906 L 528.566406 462.003906 L 528.566406 460.714844 L 526.503906 460.714844 L 526.503906 451.691406 L 524.582031 451.691406 L 519.285156 460.714844 L 519.285156 462.003906 L 524.816406 462.003906 L 524.816406 465.683594 L 526.503906 465.683594 Z M 520.925781 460.714844 C 521.535156 459.636719 522.378906 458.277344 523.269531 456.566406 C 523.527344 456.074219 524.910156 453.425781 524.910156 452.652344 L 524.910156 460.714844 Z M 520.925781 460.714844 "/>
<path fill-rule="nonzero" fill="rgb(0%, 0%, 0%)" fill-opacity="1" d="M 546.484375 459.730469 L 542.195312 455.488281 C 541.9375 455.230469 541.914062 455.183594 541.726562 455.183594 C 541.515625 455.183594 541.304688 455.371094 541.304688 455.605469 C 541.304688 455.769531 541.351562 455.816406 541.585938 456.050781 L 545.851562 460.339844 L 541.585938 464.628906 C 541.351562 464.863281 541.304688 464.910156 541.304688 465.074219 C 541.304688 465.308594 541.515625 465.496094 541.726562 465.496094 C 541.914062 465.496094 541.9375 465.449219 542.195312 465.191406 L 546.460938 460.949219 L 550.890625 465.355469 C 550.914062 465.378906 551.078125 465.496094 551.195312 465.496094 C 551.453125 465.496094 551.640625 465.308594 551.640625 465.074219 C 551.640625 465.027344 551.640625 464.933594 551.570312 464.839844 C 551.546875 464.792969 548.148438 461.441406 547.070312 460.339844 L 550.984375 456.425781 C 551.101562 456.308594 551.40625 456.027344 551.523438 455.886719 C 551.546875 455.839844 551.640625 455.769531 551.640625 455.605469 C 551.640625 455.371094 551.453125 455.183594 551.195312 455.183594 C 551.03125 455.183594 550.9375 455.277344 550.703125 455.511719 Z M 546.484375 459.730469 "/>
<path fill-rule="nonzero" fill="rgb(0%, 0%, 0%)" fill-opacity="1" d="M 571.585938 462.003906 L 573.648438 462.003906 L 573.648438 460.714844 L 571.585938 460.714844 L 571.585938 451.691406 L 569.664062 451.691406 L 564.367188 460.714844 L 564.367188 462.003906 L 569.898438 462.003906 L 569.898438 465.683594 L 571.585938 465.683594 Z M 566.007812 460.714844 C 566.617188 459.636719 567.460938 458.277344 568.351562 456.566406 C 568.609375 456.074219 569.992188 453.425781 569.992188 452.652344 L 569.992188 460.714844 Z M 566.007812 460.714844 "/>
<path fill-rule="nonzero" fill="rgb(0%, 0%, 0%)" fill-opacity="1" d="M 578.019531 465.660156 L 578.019531 463.949219 L 576.285156 463.949219 L 576.285156 465.683594 L 576.800781 465.683594 L 576.285156 468.355469 L 577.128906 468.355469 Z M 578.019531 465.660156 "/>
<path fill-rule="nonzero" fill="rgb(0%, 0%, 0%)" fill-opacity="1" d="M 588.078125 464.347656 L 588.078125 465.683594 L 596.421875 465.683594 L 596.421875 464.230469 L 592.625 464.230469 C 592.367188 464.230469 592.109375 464.253906 591.851562 464.253906 L 589.578125 464.253906 C 590.117188 463.667969 592.109375 461.699219 593.492188 460.457031 C 595.085938 459.074219 596.421875 457.761719 596.421875 455.792969 C 596.421875 453.425781 594.78125 451.222656 591.96875 451.222656 C 589.648438 451.222656 588.476562 452.746094 587.890625 454.738281 C 588.59375 455.605469 588.59375 455.628906 588.78125 455.886719 C 589.320312 453.613281 590.09375 452.558594 591.6875 452.558594 C 593.515625 452.558594 594.710938 453.988281 594.710938 455.839844 C 594.710938 456.941406 594.265625 458.183594 592.835938 459.589844 Z M 588.078125 464.347656 "/>
<path fill-rule="nonzero" fill="rgb(0%, 0%, 0%)" fill-opacity="1" d="M 614.808594 459.730469 L 610.519531 455.488281 C 610.261719 455.230469 610.238281 455.183594 610.050781 455.183594 C 609.839844 455.183594 609.628906 455.371094 609.628906 455.605469 C 609.628906 455.769531 609.675781 455.816406 609.910156 456.050781 L 614.175781 460.339844 L 609.910156 464.628906 C 609.675781 464.863281 609.628906 464.910156 609.628906 465.074219 C 609.628906 465.308594 609.839844 465.496094 610.050781 465.496094 C 610.238281 465.496094 610.261719 465.449219 610.519531 465.191406 L 614.785156 460.949219 L 619.214844 465.355469 C 619.238281 465.378906 619.402344 465.496094 619.519531 465.496094 C 619.777344 465.496094 619.964844 465.308594 619.964844 465.074219 C 619.964844 465.027344 619.964844 464.933594 619.894531 464.839844 C 619.871094 464.792969 616.472656 461.441406 615.394531 460.339844 L 619.308594 456.425781 C 619.425781 456.308594 619.730469 456.027344 619.847656 455.886719 C 619.871094 455.839844 619.964844 455.769531 619.964844 455.605469 C 619.964844 455.371094 619.777344 455.183594 619.519531 455.183594 C 619.355469 455.183594 619.261719 455.277344 619.027344 455.511719 Z M 614.808594 459.730469 "/>
<path fill-rule="nonzero" fill="rgb(0%, 0%, 0%)" fill-opacity="1" d="M 638.785156 458.113281 C 640.121094 457.714844 641.410156 456.542969 641.410156 454.949219 C 641.410156 452.933594 639.605469 451.222656 637.332031 451.222656 C 634.988281 451.222656 633.253906 453.003906 633.253906 454.949219 C 633.253906 456.566406 634.566406 457.738281 635.878906 458.113281 C 634.167969 458.699219 632.972656 460.128906 632.972656 461.839844 C 632.972656 464.113281 634.894531 466.128906 637.332031 466.128906 C 639.839844 466.128906 641.691406 464.089844 641.691406 461.839844 C 641.691406 460.128906 640.496094 458.699219 638.785156 458.113281 Z M 637.332031 457.480469 C 635.644531 457.480469 634.730469 456.332031 634.730469 454.972656 C 634.730469 453.355469 635.878906 452.441406 637.332031 452.441406 C 638.855469 452.441406 639.933594 453.425781 639.933594 454.972656 C 639.933594 456.402344 638.949219 457.480469 637.332031 457.480469 Z M 637.332031 464.839844 C 635.902344 464.839844 634.660156 463.832031 634.660156 461.816406 C 634.660156 459.519531 636.207031 458.769531 637.332031 458.769531 C 638.527344 458.769531 640.003906 459.589844 640.003906 461.816406 C 640.003906 463.878906 638.691406 464.839844 637.332031 464.839844 Z M 637.332031 464.839844 "/>
<path fill="none" stroke-width="0.99628" stroke-linecap="butt" stroke-linejoin="round" stroke="rgb(19.607843%, 19.607843%, 19.607843%)" stroke-opacity="1" stroke-miterlimit="10" d="M -56.324956 -31.659241 L 56.323481 -31.659241 L 56.323481 31.661072 L -56.324956 31.661072 Z M -56.324956 -31.659241 " transform="matrix(1.5, 0, 0, -1.5, 282.526497, 554.995514)"/>
<path fill-rule="nonzero" fill="rgb(0%, 0%, 0%)" fill-opacity="1" d="M 258.089844 550.160156 C 258.628906 548.800781 259.941406 547.863281 261.371094 547.863281 C 262.449219 547.863281 263.480469 548.496094 263.480469 549.878906 C 263.480469 551.308594 262.496094 552.480469 261.347656 552.738281 C 261.230469 552.761719 259.894531 552.878906 259.683594 552.902344 L 259.683594 554.191406 L 261.183594 554.191406 C 263.386719 554.191406 263.925781 556.066406 263.925781 557.238281 C 263.925781 558.972656 262.871094 560.261719 261.347656 560.261719 C 259.964844 560.261719 258.277344 559.582031 257.292969 558.058594 L 257.058594 559.300781 C 258.464844 561.222656 260.339844 561.550781 261.394531 561.550781 C 263.878906 561.550781 265.777344 559.535156 265.777344 557.261719 C 265.777344 555.621094 264.675781 554.167969 262.871094 553.535156 C 264.347656 552.714844 265.191406 551.285156 265.191406 549.878906 C 265.191406 548.050781 263.457031 546.644531 261.394531 546.644531 C 259.683594 546.644531 258.160156 547.605469 257.339844 549.011719 Z M 258.089844 550.160156 "/>
<path fill-rule="nonzero" fill="rgb(0%, 0%, 0%)" fill-opacity="1" d="M 282.535156 555.152344 L 278.246094 550.910156 C 277.988281 550.652344 277.964844 550.605469 277.777344 550.605469 C 277.566406 550.605469 277.355469 550.792969 277.355469 551.027344 C 277.355469 551.191406 277.402344 551.238281 277.636719 551.472656 L 281.902344 555.761719 L 277.636719 560.050781 C 277.402344 560.285156 277.355469 560.332031 277.355469 560.496094 C 277.355469 560.730469 277.566406 560.917969 277.777344 560.917969 C 277.964844 560.917969 277.988281 560.871094 278.246094 560.613281 L 282.511719 556.371094 L 286.941406 560.777344 C 286.964844 560.800781 287.128906 560.917969 287.246094 560.917969 C 287.503906 560.917969 287.691406 560.730469 287.691406 560.496094 C 287.691406 560.449219 287.691406 560.355469 287.621094 560.261719 C 287.597656 560.214844 284.199219 556.863281 283.121094 555.761719 L 287.035156 551.847656 C 287.152344 551.730469 287.457031 551.449219 287.574219 551.308594 C 287.597656 551.261719 287.691406 551.191406 287.691406 551.027344 C 287.691406 550.792969 287.503906 550.605469 287.246094 550.605469 C 287.082031 550.605469 286.988281 550.699219 286.753906 550.933594 Z M 282.535156 555.152344 "/>
<path fill-rule="nonzero" fill="rgb(0%, 0%, 0%)" fill-opacity="1" d="M 301.613281 548.425781 L 307.097656 548.425781 L 307.097656 547.113281 L 300.089844 547.113281 L 300.089844 554.964844 L 301.472656 554.964844 C 302.011719 553.746094 302.949219 553.277344 303.839844 553.277344 C 304.847656 553.277344 305.972656 554.191406 305.972656 556.722656 C 305.972656 559.417969 304.425781 560.261719 303.183594 560.261719 C 302.011719 560.261719 300.605469 559.628906 299.925781 558.292969 L 299.222656 559.441406 C 300.628906 561.457031 302.644531 561.550781 303.207031 561.550781 C 305.738281 561.550781 307.800781 559.441406 307.800781 556.769531 C 307.800781 554.097656 306.019531 551.988281 303.863281 551.988281 C 302.996094 551.988281 302.199219 552.316406 301.613281 552.855469 Z M 301.613281 548.425781 "/>
<path fill="none" stroke-width="0.99628" stroke-linecap="butt" stroke-linejoin="round" stroke="rgb(19.607843%, 19.607843%, 19.607843%)" stroke-opacity="1" stroke-miterlimit="10" d="M -119.642507 -31.659241 L 119.643951 -31.659241 L 119.643951 31.661072 L -119.642507 31.661072 Z M -119.642507 -31.659241 " transform="matrix(1.5, 0, 0, -1.5, 546.475479, 554.995514)"/>
<path fill="none" stroke-width="0.99628" stroke-linecap="butt" stroke-linejoin="round" stroke="rgb(19.607843%, 19.607843%, 19.607843%)" stroke-opacity="1" stroke-miterlimit="10" d="M -56.324956 -31.658956 L 56.323481 -31.658956 L 56.323481 31.658752 L -56.324956 31.658752 Z M -56.324956 -31.658956 " transform="matrix(1.5, 0, 0, -1.5, 282.526497, 649.972504)"/>
<path fill-rule="nonzero" fill="rgb(0%, 0%, 0%)" fill-opacity="1" d="M 259.042969 652.402344 L 261.105469 652.402344 L 261.105469 651.113281 L 259.042969 651.113281 L 259.042969 642.089844 L 257.121094 642.089844 L 251.824219 651.113281 L 251.824219 652.402344 L 257.355469 652.402344 L 257.355469 656.082031 L 259.042969 656.082031 Z M 253.464844 651.113281 C 254.074219 650.035156 254.917969 648.675781 255.808594 646.964844 C 256.066406 646.472656 257.449219 643.824219 257.449219 643.050781 L 257.449219 651.113281 Z M 253.464844 651.113281 "/>
<path fill-rule="nonzero" fill="rgb(0%, 0%, 0%)" fill-opacity="1" d="M 277.304688 650.128906 L 273.015625 645.886719 C 272.757812 645.628906 272.734375 645.582031 272.546875 645.582031 C 272.335938 645.582031 272.125 645.769531 272.125 646.003906 C 272.125 646.167969 272.171875 646.214844 272.40625 646.449219 L 276.671875 650.738281 L 272.40625 655.027344 C 272.171875 655.261719 272.125 655.308594 272.125 655.472656 C 272.125 655.707031 272.335938 655.894531 272.546875 655.894531 C 272.734375 655.894531 272.757812 655.847656 273.015625 655.589844 L 277.28125 651.347656 L 281.710938 655.753906 C 281.734375 655.777344 281.898438 655.894531 282.015625 655.894531 C 282.273438 655.894531 282.460938 655.707031 282.460938 655.472656 C 282.460938 655.425781 282.460938 655.332031 282.390625 655.238281 C 282.367188 655.191406 278.96875 651.839844 277.890625 650.738281 L 281.804688 646.824219 C 281.921875 646.707031 282.226562 646.425781 282.34375 646.285156 C 282.367188 646.238281 282.460938 646.167969 282.460938 646.003906 C 282.460938 645.769531 282.273438 645.582031 282.015625 645.582031 C 281.851562 645.582031 281.757812 645.675781 281.523438 645.910156 Z M 277.304688 650.128906 "/>
<path fill-rule="nonzero" fill="rgb(0%, 0%, 0%)" fill-opacity="1" d="M 299.171875 641.621094 L 298.773438 641.621094 C 298.421875 641.972656 297.390625 642.980469 295.09375 643.027344 C 294.789062 643.027344 294.765625 643.050781 294.765625 643.425781 L 294.765625 644.292969 C 296.078125 644.292969 297.0625 643.964844 297.507812 643.777344 L 297.507812 654.839844 L 294.90625 654.839844 L 294.90625 656.082031 L 301.773438 656.082031 L 301.773438 654.839844 L 299.171875 654.839844 Z M 299.171875 641.621094 "/>
<path fill-rule="nonzero" fill="rgb(0%, 0%, 0%)" fill-opacity="1" d="M 312.941406 649.121094 C 312.941406 647.691406 312.871094 646.027344 312.308594 644.527344 C 311.394531 642.113281 309.730469 641.621094 308.582031 641.621094 C 307.199219 641.621094 305.863281 642.347656 305.066406 644.035156 C 304.363281 645.535156 304.222656 647.269531 304.222656 649.121094 C 304.222656 651.441406 304.433594 652.777344 305.113281 654.253906 C 305.746094 655.683594 307.128906 656.527344 308.582031 656.527344 C 309.988281 656.527344 311.324219 655.753906 312.050781 654.277344 C 312.777344 652.777344 312.941406 651.207031 312.941406 649.121094 Z M 308.582031 655.238281 C 305.863281 655.238281 305.863281 650.855469 305.863281 648.863281 C 305.863281 647.457031 305.863281 646.167969 306.238281 644.949219 C 306.753906 643.425781 307.691406 642.910156 308.582031 642.910156 C 311.300781 642.910156 311.300781 646.894531 311.300781 648.863281 C 311.300781 650.222656 311.300781 651.628906 310.925781 652.964844 C 310.339844 655.003906 309.144531 655.238281 308.582031 655.238281 Z M 308.582031 655.238281 "/>
<path fill="none" stroke-width="0.99628" stroke-linecap="butt" stroke-linejoin="round" stroke="rgb(19.607843%, 19.607843%, 19.607843%)" stroke-opacity="1" stroke-miterlimit="10" d="M -119.642507 -31.658956 L 119.643951 -31.658956 L 119.643951 31.658752 L -119.642507 31.658752 Z M -119.642507 -31.658956 " transform="matrix(1.5, 0, 0, -1.5, 546.475479, 649.972504)"/>
<path fill="none" stroke-width="0.99628" stroke-linecap="butt" stroke-linejoin="round" stroke="rgb(19.607843%, 19.607843%, 19.607843%)" stroke-opacity="1" stroke-miterlimit="10" d="M -56.324956 -31.658671 L 56.323481 -31.658671 L 56.323481 31.661641 L -56.324956 31.661641 Z M -56.324956 -31.658671 " transform="matrix(1.5, 0, 0, -1.5, 282.526497, 744.949493)"/>
<path fill-rule="nonzero" fill="rgb(0%, 0%, 0%)" fill-opacity="1" d="M 261.042969 738.519531 C 261.300781 738.519531 261.558594 738.496094 261.816406 738.496094 L 264.371094 738.496094 C 263.105469 739.996094 259.402344 744.261719 259.402344 751.269531 L 261.136719 751.269531 C 261.136719 745.714844 263.410156 741.167969 265.777344 738.402344 L 265.777344 737.066406 L 257.058594 737.066406 L 257.058594 738.519531 Z M 261.042969 738.519531 "/>
<path fill-rule="nonzero" fill="rgb(0%, 0%, 0%)" fill-opacity="1" d="M 282.535156 745.105469 L 278.246094 740.863281 C 277.988281 740.605469 277.964844 740.558594 277.777344 740.558594 C 277.566406 740.558594 277.355469 740.746094 277.355469 740.980469 C 277.355469 741.144531 277.402344 741.191406 277.636719 741.425781 L 281.902344 745.714844 L 277.636719 750.003906 C 277.402344 750.238281 277.355469 750.285156 277.355469 750.449219 C 277.355469 750.683594 277.566406 750.871094 277.777344 750.871094 C 277.964844 750.871094 277.988281 750.824219 278.246094 750.566406 L 282.511719 746.324219 L 286.941406 750.730469 C 286.964844 750.753906 287.128906 750.871094 287.246094 750.871094 C 287.503906 750.871094 287.691406 750.683594 287.691406 750.449219 C 287.691406 750.402344 287.691406 750.308594 287.621094 750.214844 C 287.597656 750.167969 284.199219 746.816406 283.121094 745.714844 L 287.035156 741.800781 C 287.152344 741.683594 287.457031 741.402344 287.574219 741.261719 C 287.597656 741.214844 287.691406 741.144531 287.691406 740.980469 C 287.691406 740.746094 287.503906 740.558594 287.246094 740.558594 C 287.082031 740.558594 286.988281 740.652344 286.753906 740.886719 Z M 282.535156 745.105469 "/>
<path fill-rule="nonzero" fill="rgb(0%, 0%, 0%)" fill-opacity="1" d="M 299.457031 749.722656 L 299.457031 751.058594 L 307.800781 751.058594 L 307.800781 749.605469 L 304.003906 749.605469 C 303.746094 749.605469 303.488281 749.628906 303.230469 749.628906 L 300.957031 749.628906 C 301.496094 749.042969 303.488281 747.074219 304.871094 745.832031 C 306.464844 744.449219 307.800781 743.136719 307.800781 741.167969 C 307.800781 738.800781 306.160156 736.597656 303.347656 736.597656 C 301.027344 736.597656 299.855469 738.121094 299.269531 740.113281 C 299.972656 740.980469 299.972656 741.003906 300.160156 741.261719 C 300.699219 738.988281 301.472656 737.933594 303.066406 737.933594 C 304.894531 737.933594 306.089844 739.363281 306.089844 741.214844 C 306.089844 742.316406 305.644531 743.558594 304.214844 744.964844 Z M 299.457031 749.722656 "/>
<path fill="none" stroke-width="0.99628" stroke-linecap="butt" stroke-linejoin="round" stroke="rgb(19.607843%, 19.607843%, 19.607843%)" stroke-opacity="1" stroke-miterlimit="10" d="M -119.642507 -31.658671 L 119.643951 -31.658671 L 119.643951 31.661641 L -119.642507 31.661641 Z M -119.642507 -31.658671 " transform="matrix(1.5, 0, 0, -1.5, 546.475479, 744.949493)"/>
<path fill="none" stroke-width="0.99628" stroke-linecap="butt" stroke-linejoin="round" stroke="rgb(19.607843%, 19.607843%, 19.607843%)" stroke-opacity="1" stroke-miterlimit="10" d="M -56.324956 -31.658386 L 56.323481 -31.658386 L 56.323481 31.659322 L -56.324956 31.659322 Z M -56.324956 -31.658386 " transform="matrix(1.5, 0, 0, -1.5, 282.526497, 839.926483)"/>
<path fill-rule="nonzero" fill="rgb(0%, 0%, 0%)" fill-opacity="1" d="M 259.402344 833.355469 L 264.886719 833.355469 L 264.886719 832.042969 L 257.878906 832.042969 L 257.878906 839.894531 L 259.261719 839.894531 C 259.800781 838.675781 260.738281 838.207031 261.628906 838.207031 C 262.636719 838.207031 263.761719 839.121094 263.761719 841.652344 C 263.761719 844.347656 262.214844 845.191406 260.972656 845.191406 C 259.800781 845.191406 258.394531 844.558594 257.714844 843.222656 L 257.011719 844.371094 C 258.417969 846.386719 260.433594 846.480469 260.996094 846.480469 C 263.527344 846.480469 265.589844 844.371094 265.589844 841.699219 C 265.589844 839.027344 263.808594 836.917969 261.652344 836.917969 C 260.785156 836.917969 259.988281 837.246094 259.402344 837.785156 Z M 259.402344 833.355469 "/>
<path fill-rule="nonzero" fill="rgb(0%, 0%, 0%)" fill-opacity="1" d="M 282.535156 840.082031 L 278.246094 835.839844 C 277.988281 835.582031 277.964844 835.535156 277.777344 835.535156 C 277.566406 835.535156 277.355469 835.722656 277.355469 835.957031 C 277.355469 836.121094 277.402344 836.167969 277.636719 836.402344 L 281.902344 840.691406 L 277.636719 844.980469 C 277.402344 845.214844 277.355469 845.261719 277.355469 845.425781 C 277.355469 845.660156 277.566406 845.847656 277.777344 845.847656 C 277.964844 845.847656 277.988281 845.800781 278.246094 845.542969 L 282.511719 841.300781 L 286.941406 845.707031 C 286.964844 845.730469 287.128906 845.847656 287.246094 845.847656 C 287.503906 845.847656 287.691406 845.660156 287.691406 845.425781 C 287.691406 845.378906 287.691406 845.285156 287.621094 845.191406 C 287.597656 845.144531 284.199219 841.792969 283.121094 840.691406 L 287.035156 836.777344 C 287.152344 836.660156 287.457031 836.378906 287.574219 836.238281 C 287.597656 836.191406 287.691406 836.121094 287.691406 835.957031 C 287.691406 835.722656 287.503906 835.535156 287.246094 835.535156 C 287.082031 835.535156 286.988281 835.628906 286.753906 835.863281 Z M 282.535156 840.082031 "/>
<path fill-rule="nonzero" fill="rgb(0%, 0%, 0%)" fill-opacity="1" d="M 305.082031 838.464844 C 306.417969 838.066406 307.707031 836.894531 307.707031 835.300781 C 307.707031 833.285156 305.902344 831.574219 303.628906 831.574219 C 301.285156 831.574219 299.550781 833.355469 299.550781 835.300781 C 299.550781 836.917969 300.863281 838.089844 302.175781 838.464844 C 300.464844 839.050781 299.269531 840.480469 299.269531 842.191406 C 299.269531 844.464844 301.191406 846.480469 303.628906 846.480469 C 306.136719 846.480469 307.988281 844.441406 307.988281 842.191406 C 307.988281 840.480469 306.792969 839.050781 305.082031 838.464844 Z M 303.628906 837.832031 C 301.941406 837.832031 301.027344 836.683594 301.027344 835.324219 C 301.027344 833.707031 302.175781 832.792969 303.628906 832.792969 C 305.152344 832.792969 306.230469 833.777344 306.230469 835.324219 C 306.230469 836.753906 305.246094 837.832031 303.628906 837.832031 Z M 303.628906 845.191406 C 302.199219 845.191406 300.957031 844.183594 300.957031 842.167969 C 300.957031 839.871094 302.503906 839.121094 303.628906 839.121094 C 304.824219 839.121094 306.300781 839.941406 306.300781 842.167969 C 306.300781 844.230469 304.988281 845.191406 303.628906 845.191406 Z M 303.628906 845.191406 "/>
<path fill="none" stroke-width="0.99628" stroke-linecap="butt" stroke-linejoin="round" stroke="rgb(19.607843%, 19.607843%, 19.607843%)" stroke-opacity="1" stroke-miterlimit="10" d="M -119.642507 -31.658386 L 119.643951 -31.658386 L 119.643951 31.659322 L -119.642507 31.659322 Z M -119.642507 -31.658386 " transform="matrix(1.5, 0, 0, -1.5, 546.475479, 839.926483)"/>
<path fill-rule="nonzero" fill="rgb(0%, 0%, 0%)" fill-opacity="1" d="M 124.289062 123.941406 C 123.820312 123.824219 122.507812 123.332031 122.507812 122.113281 C 122.507812 120.308594 124.3125 120.261719 125.039062 120.261719 C 126.234375 120.261719 127.3125 120.542969 128.367188 121.574219 C 128.695312 121.878906 128.71875 121.902344 128.8125 121.902344 C 128.929688 121.902344 129.046875 121.832031 129.09375 121.527344 L 129.421875 119.652344 C 129.46875 119.488281 129.46875 119.441406 129.46875 119.394531 C 129.46875 119.207031 129.445312 119.183594 128.90625 118.902344 C 127.382812 118.175781 126.140625 118.058594 125.039062 118.058594 C 123.140625 118.058594 119.835938 118.503906 119.835938 122.511719 C 119.835938 124.011719 120.609375 124.996094 121.03125 125.441406 C 122.109375 126.542969 123.117188 126.753906 124.78125 127.152344 C 125.976562 127.410156 126.445312 127.527344 126.914062 127.949219 C 127.148438 128.160156 127.59375 128.628906 127.59375 129.425781 C 127.59375 131.441406 125.742188 131.511719 125.039062 131.511719 C 123.257812 131.511719 121.6875 130.785156 120.609375 129.824219 C 120.351562 129.566406 120.328125 129.566406 120.234375 129.566406 C 120.09375 129.566406 120 129.613281 119.929688 129.941406 L 119.625 131.792969 C 119.578125 131.980469 119.578125 132.027344 119.578125 132.074219 C 119.578125 132.519531 121.804688 133.292969 121.898438 133.339844 C 123.328125 133.785156 124.476562 133.832031 125.039062 133.832031 C 128.25 133.832031 130.265625 132.402344 130.265625 129.097656 C 130.265625 126.683594 128.484375 124.902344 126.351562 124.410156 Z M 124.289062 123.941406 "/>
<path fill-rule="nonzero" fill="rgb(0%, 0%, 0%)" fill-opacity="1" d="M 133.761719 118.503906 C 133.082031 118.503906 132.730469 118.644531 132.730469 119.488281 L 132.730469 120.472656 C 132.730469 121.152344 132.941406 121.433594 133.738281 121.433594 L 134.863281 121.433594 C 135.871094 121.433594 135.871094 120.988281 135.871094 119.980469 C 135.871094 118.949219 135.871094 118.503906 134.863281 118.503906 Z M 135.730469 124.597656 C 135.730469 123.917969 135.589844 123.566406 134.699219 123.566406 L 133.902344 123.566406 C 133.152344 123.566406 132.894531 123.800781 132.894531 124.597656 L 132.894531 132.332031 C 132.894531 133.105469 133.128906 133.363281 133.902344 133.363281 L 134.699219 133.363281 C 135.519531 133.363281 135.730469 133.082031 135.730469 132.332031 Z M 135.730469 124.597656 "/>
<path fill-rule="nonzero" fill="rgb(0%, 0%, 0%)" fill-opacity="1" d="M 153.347656 130.339844 C 153.347656 129.144531 152.714844 128.394531 152.316406 128.066406 C 151.472656 127.292969 150.722656 127.175781 149.832031 126.988281 C 148.660156 126.777344 147.792969 126.613281 147.792969 125.769531 C 147.792969 124.902344 148.496094 124.738281 149.339844 124.738281 C 150.769531 124.738281 151.542969 125.253906 152.082031 125.722656 C 152.292969 125.957031 152.339844 125.957031 152.433594 125.957031 C 152.644531 125.957031 152.691406 125.746094 152.714844 125.675781 C 152.761719 125.488281 152.972656 124.292969 152.972656 124.199219 C 152.972656 123.847656 151.824219 123.542969 151.589844 123.472656 C 150.746094 123.238281 150.066406 123.214844 149.503906 123.214844 C 148.542969 123.214844 145.683594 123.214844 145.683594 126.261719 C 145.683594 127.316406 146.152344 127.949219 146.714844 128.464844 C 147.464844 129.144531 148.308594 129.308594 149.527344 129.542969 C 150.136719 129.636719 151.238281 129.847656 151.238281 130.785156 C 151.238281 131.792969 150.394531 131.933594 149.574219 131.933594 C 148.636719 131.933594 147.441406 131.652344 146.433594 130.457031 C 146.316406 130.339844 146.246094 130.292969 146.128906 130.292969 C 145.917969 130.292969 145.871094 130.480469 145.847656 130.597656 C 145.800781 130.902344 145.542969 132.121094 145.542969 132.332031 C 145.542969 132.730469 147.136719 133.222656 147.160156 133.246094 C 148.332031 133.597656 149.199219 133.597656 149.574219 133.597656 C 150.652344 133.597656 153.347656 133.503906 153.347656 130.339844 Z M 153.347656 130.339844 "/>
<path fill-rule="nonzero" fill="rgb(0%, 0%, 0%)" fill-opacity="1" d="M 163.011719 119.136719 C 163.105469 119.042969 163.246094 118.925781 163.246094 118.808594 C 163.246094 118.527344 163.011719 118.527344 162.660156 118.527344 L 160.902344 118.527344 C 160.480469 118.527344 160.457031 118.550781 160.269531 118.785156 L 158.441406 121.292969 C 158.230469 121.527344 158.230469 121.574219 158.230469 121.597656 C 158.230469 121.878906 158.464844 121.878906 158.816406 121.878906 L 159.613281 121.878906 Z M 163.011719 119.136719 "/>
<path fill-rule="nonzero" fill="rgb(0%, 0%, 0%)" fill-opacity="1" d="M 163.109375 128.792969 C 163.601562 128.792969 164.140625 128.769531 164.140625 127.808594 C 164.140625 125.042969 162.851562 123.214844 159.664062 123.214844 C 156.242188 123.214844 154.554688 125.136719 154.554688 128.394531 C 154.554688 131.886719 156.59375 133.597656 159.945312 133.597656 C 160.765625 133.597656 161.984375 133.480469 163.390625 132.777344 C 163.859375 132.542969 164 132.496094 164 132.238281 C 164 132.074219 163.953125 131.464844 163.929688 131.300781 C 163.835938 130.621094 163.8125 130.597656 163.625 130.597656 C 163.53125 130.597656 163.484375 130.597656 163.25 130.808594 C 162.007812 131.910156 160.71875 132.050781 160.039062 132.050781 C 157.625 132.050781 157.367188 130.152344 157.296875 128.792969 Z M 157.320312 127.644531 C 157.390625 126.355469 157.8125 124.738281 159.664062 124.738281 C 161.375 124.738281 161.703125 125.980469 161.773438 127.644531 Z M 157.320312 127.644531 "/>
<path fill-rule="nonzero" fill="rgb(0%, 0%, 0%)" fill-opacity="1" d="M 183.304688 124.363281 C 183.304688 123.683594 183.164062 123.332031 182.273438 123.332031 L 181.5 123.332031 C 180.679688 123.332031 180.46875 123.613281 180.46875 124.363281 L 180.46875 124.761719 C 179.53125 123.332031 178.265625 123.332031 177.890625 123.332031 C 173.765625 123.332031 173.4375 126.777344 173.4375 128.488281 C 173.4375 130.152344 173.765625 133.597656 177.75 133.597656 C 178.875 133.597656 179.671875 133.175781 180.398438 132.332031 L 180.398438 136.480469 C 180.398438 137.160156 180.539062 137.511719 181.429688 137.511719 L 182.273438 137.511719 C 183.09375 137.511719 183.304688 137.230469 183.304688 136.480469 Z M 180.46875 130.902344 C 180.070312 131.441406 179.507812 132.050781 178.523438 132.050781 C 176.34375 132.050781 176.34375 129.355469 176.34375 128.511719 C 176.34375 127.644531 176.34375 124.996094 178.734375 124.996094 C 179.085938 124.996094 179.53125 125.089844 179.90625 125.488281 C 180.46875 126.027344 180.46875 126.425781 180.46875 126.683594 Z M 180.46875 130.902344 "/>
<path fill-rule="nonzero" fill="rgb(0%, 0%, 0%)" fill-opacity="1" d="M 195.320312 124.597656 C 195.320312 123.917969 195.179688 123.566406 194.289062 123.566406 L 193.445312 123.566406 C 192.625 123.566406 192.414062 123.847656 192.414062 124.597656 L 192.414062 129.660156 C 192.414062 131.066406 191.664062 132.285156 190.140625 132.285156 C 188.945312 132.285156 188.828125 132.003906 188.828125 130.855469 L 188.828125 124.597656 C 188.828125 123.917969 188.664062 123.566406 187.796875 123.566406 L 186.929688 123.566406 C 186.179688 123.566406 185.921875 123.800781 185.921875 124.597656 L 185.921875 130.667969 C 185.921875 132.964844 187.164062 133.597656 189.367188 133.597656 C 189.953125 133.597656 191.476562 133.597656 192.484375 131.792969 L 192.484375 132.332031 C 192.484375 133.011719 192.625 133.363281 193.492188 133.363281 L 194.289062 133.363281 C 195.109375 133.363281 195.320312 133.082031 195.320312 132.332031 Z M 195.320312 124.597656 "/>
<path fill-rule="nonzero" fill="rgb(0%, 0%, 0%)" fill-opacity="1" d="M 205.835938 128.792969 C 206.328125 128.792969 206.867188 128.769531 206.867188 127.808594 C 206.867188 125.042969 205.578125 123.214844 202.390625 123.214844 C 198.96875 123.214844 197.28125 125.136719 197.28125 128.394531 C 197.28125 131.886719 199.320312 133.597656 202.671875 133.597656 C 203.492188 133.597656 204.710938 133.480469 206.117188 132.777344 C 206.585938 132.542969 206.726562 132.496094 206.726562 132.238281 C 206.726562 132.074219 206.679688 131.464844 206.65625 131.300781 C 206.5625 130.621094 206.539062 130.597656 206.351562 130.597656 C 206.257812 130.597656 206.210938 130.597656 205.976562 130.808594 C 204.734375 131.910156 203.445312 132.050781 202.765625 132.050781 C 200.351562 132.050781 200.09375 130.152344 200.023438 128.792969 Z M 200.046875 127.644531 C 200.117188 126.355469 200.539062 124.738281 202.390625 124.738281 C 204.101562 124.738281 204.429688 125.980469 204.5 127.644531 Z M 200.046875 127.644531 "/>
<path fill-rule="nonzero" fill="rgb(0%, 0%, 0%)" fill-opacity="1" d="M 220.050781 131.136719 C 220.050781 130.574219 220.027344 130.574219 219.464844 130.574219 L 217.824219 130.574219 C 217.261719 130.574219 217.238281 130.574219 217.238281 131.136719 L 217.238281 132.777344 C 217.238281 133.339844 217.261719 133.363281 217.824219 133.363281 L 219.464844 133.363281 C 220.027344 133.363281 220.050781 133.339844 220.050781 132.777344 Z M 220.050781 131.136719 "/>
<path fill-rule="nonzero" fill="rgb(0%, 0%, 0%)" fill-opacity="1" d="M 226.582031 131.136719 C 226.582031 130.574219 226.558594 130.574219 225.996094 130.574219 L 224.355469 130.574219 C 223.792969 130.574219 223.769531 130.574219 223.769531 131.136719 L 223.769531 132.777344 C 223.769531 133.339844 223.792969 133.363281 224.355469 133.363281 L 225.996094 133.363281 C 226.558594 133.363281 226.582031 133.339844 226.582031 132.777344 Z M 226.582031 131.136719 "/>
<path fill-rule="nonzero" fill="rgb(0%, 0%, 0%)" fill-opacity="1" d="M 233.113281 131.136719 C 233.113281 130.574219 233.089844 130.574219 232.527344 130.574219 L 230.886719 130.574219 C 230.324219 130.574219 230.300781 130.574219 230.300781 131.136719 L 230.300781 132.777344 C 230.300781 133.339844 230.324219 133.363281 230.886719 133.363281 L 232.527344 133.363281 C 233.089844 133.363281 233.113281 133.339844 233.113281 132.777344 Z M 233.113281 131.136719 "/>
<path fill-rule="nonzero" fill="rgb(0%, 0%, 0%)" fill-opacity="1" d="M 239.644531 131.136719 C 239.644531 130.574219 239.621094 130.574219 239.058594 130.574219 L 237.417969 130.574219 C 236.855469 130.574219 236.832031 130.574219 236.832031 131.136719 L 236.832031 132.777344 C 236.832031 133.339844 236.855469 133.363281 237.558594 133.363281 C 237.441406 133.714844 237.324219 134.042969 237.207031 134.394531 C 237.066406 134.699219 236.855469 135.308594 236.855469 135.355469 C 236.855469 135.636719 237.066406 135.636719 237.417969 135.636719 L 237.675781 135.636719 C 238.097656 135.636719 238.121094 135.613281 238.332031 135.261719 C 238.730469 134.699219 239.082031 134.089844 239.457031 133.480469 C 239.644531 133.199219 239.644531 133.152344 239.644531 132.777344 Z M 239.644531 131.136719 "/>
<path fill-rule="nonzero" fill="rgb(0%, 0%, 0%)" fill-opacity="1" d="M 258.5625 128.792969 C 259.054688 128.792969 259.59375 128.769531 259.59375 127.808594 C 259.59375 125.042969 258.304688 123.214844 255.117188 123.214844 C 251.695312 123.214844 250.007812 125.136719 250.007812 128.394531 C 250.007812 131.886719 252.046875 133.597656 255.398438 133.597656 C 256.21875 133.597656 257.4375 133.480469 258.84375 132.777344 C 259.3125 132.542969 259.453125 132.496094 259.453125 132.238281 C 259.453125 132.074219 259.40625 131.464844 259.382812 131.300781 C 259.289062 130.621094 259.265625 130.597656 259.078125 130.597656 C 258.984375 130.597656 258.9375 130.597656 258.703125 130.808594 C 257.460938 131.910156 256.171875 132.050781 255.492188 132.050781 C 253.078125 132.050781 252.820312 130.152344 252.75 128.792969 Z M 252.773438 127.644531 C 252.84375 126.355469 253.265625 124.738281 255.117188 124.738281 C 256.828125 124.738281 257.15625 125.980469 257.226562 127.644531 Z M 252.773438 127.644531 "/>
<path fill-rule="nonzero" fill="rgb(0%, 0%, 0%)" fill-opacity="1" d="M 270.964844 126.425781 C 270.964844 124.222656 270.027344 123.332031 267.847656 123.332031 C 265.597656 123.332031 264.636719 124.972656 264.355469 125.535156 L 264.332031 125.535156 L 264.332031 124.480469 C 264.332031 123.777344 264.191406 123.449219 263.324219 123.449219 L 262.574219 123.449219 C 261.824219 123.449219 261.566406 123.683594 261.566406 124.480469 L 261.566406 132.332031 C 261.566406 133.105469 261.800781 133.363281 262.574219 133.363281 L 263.441406 133.363281 C 264.261719 133.363281 264.472656 133.082031 264.472656 132.332031 L 264.472656 127.621094 C 264.472656 125.746094 265.714844 124.878906 266.816406 124.878906 C 267.847656 124.878906 268.058594 125.371094 268.058594 126.449219 L 268.058594 132.332031 C 268.058594 133.011719 268.199219 133.363281 269.089844 133.363281 L 269.933594 133.363281 C 270.753906 133.363281 270.964844 133.082031 270.964844 132.332031 Z M 270.964844 126.425781 "/>
<path fill-rule="nonzero" fill="rgb(0%, 0%, 0%)" fill-opacity="1" d="M 276.929688 125.113281 L 278.828125 125.113281 C 279.085938 125.113281 279.859375 125.113281 279.859375 124.339844 C 279.859375 123.566406 279.085938 123.566406 278.828125 123.566406 L 276.929688 123.566406 L 276.929688 121.808594 C 276.929688 121.105469 276.765625 120.777344 275.898438 120.777344 L 275.242188 120.777344 C 274.46875 120.777344 274.210938 121.011719 274.210938 121.808594 L 274.210938 123.566406 L 273.71875 123.566406 C 273.484375 123.566406 272.6875 123.566406 272.6875 124.339844 C 272.6875 125.113281 273.460938 125.113281 273.71875 125.113281 L 274.140625 125.113281 L 274.140625 130.527344 C 274.140625 132.683594 274.914062 133.597656 276.390625 133.597656 C 276.578125 133.597656 277.515625 133.597656 278.640625 133.246094 C 278.992188 133.152344 280.234375 132.753906 280.234375 132.355469 C 280.234375 132.285156 280.1875 132.144531 280.070312 131.699219 C 279.953125 131.277344 279.90625 131.136719 279.71875 131.136719 C 279.625 131.136719 279.601562 131.160156 279.460938 131.300781 C 279.226562 131.464844 278.664062 131.933594 277.75 131.933594 C 277.234375 131.933594 276.929688 131.558594 276.929688 130.152344 Z M 276.929688 125.113281 "/>
<path fill-rule="nonzero" fill="rgb(0%, 0%, 0%)" fill-opacity="1" d="M 291.964844 128.558594 C 291.964844 125.042969 290.253906 123.214844 286.785156 123.214844 C 283.199219 123.214844 281.558594 125.113281 281.558594 128.558594 C 281.558594 132.027344 283.410156 133.597656 286.761719 133.597656 C 290.113281 133.597656 291.964844 132.050781 291.964844 128.558594 Z M 286.785156 131.933594 C 284.464844 131.933594 284.464844 130.011719 284.464844 128.300781 C 284.464844 126.660156 284.464844 124.738281 286.761719 124.738281 C 289.058594 124.738281 289.058594 126.636719 289.058594 128.300781 C 289.058594 129.988281 289.058594 131.933594 286.785156 131.933594 Z M 286.785156 131.933594 "/>
<path fill-rule="nonzero" fill="rgb(0%, 0%, 0%)" fill-opacity="1" d="M 303.34375 126.425781 C 303.34375 124.222656 302.40625 123.332031 300.226562 123.332031 C 297.976562 123.332031 297.015625 124.972656 296.734375 125.535156 L 296.710938 125.535156 L 296.710938 124.480469 C 296.710938 123.777344 296.570312 123.449219 295.703125 123.449219 L 294.953125 123.449219 C 294.203125 123.449219 293.945312 123.683594 293.945312 124.480469 L 293.945312 132.332031 C 293.945312 133.105469 294.179688 133.363281 294.953125 133.363281 L 295.820312 133.363281 C 296.640625 133.363281 296.851562 133.082031 296.851562 132.332031 L 296.851562 127.621094 C 296.851562 125.746094 298.09375 124.878906 299.195312 124.878906 C 300.226562 124.878906 300.4375 125.371094 300.4375 126.449219 L 300.4375 132.332031 C 300.4375 133.011719 300.578125 133.363281 301.46875 133.363281 L 302.3125 133.363281 C 303.132812 133.363281 303.34375 133.082031 303.34375 132.332031 Z M 303.34375 126.425781 "/>
<path fill-rule="nonzero" fill="rgb(0%, 0%, 0%)" fill-opacity="1" d="M 314.421875 132.285156 C 314.421875 132.050781 314.328125 131.066406 314.28125 130.808594 C 314.28125 130.738281 314.234375 130.527344 314.023438 130.527344 C 313.953125 130.527344 313.90625 130.527344 313.695312 130.738281 C 313.320312 131.066406 312.3125 131.933594 310.578125 131.933594 C 308.351562 131.933594 308.351562 129.777344 308.351562 128.394531 C 308.351562 126.683594 308.445312 124.878906 310.625 124.878906 C 312.03125 124.878906 312.59375 125.230469 313.367188 125.863281 C 313.625 126.097656 313.671875 126.097656 313.765625 126.097656 C 313.976562 126.097656 314 125.910156 314.023438 125.816406 C 314.070312 125.652344 314.28125 124.457031 314.28125 124.339844 C 314.28125 124.152344 314.140625 124.058594 313.765625 123.894531 C 312.757812 123.425781 312.101562 123.214844 310.601562 123.214844 C 307.4375 123.214844 305.445312 124.714844 305.445312 128.441406 C 305.445312 132.003906 307.273438 133.597656 310.507812 133.597656 C 311.09375 133.597656 312.359375 133.574219 313.789062 132.847656 C 314.398438 132.519531 314.421875 132.519531 314.421875 132.285156 Z M 314.421875 132.285156 "/>
<path fill-rule="nonzero" fill="rgb(0%, 0%, 0%)" fill-opacity="1" d="M 324.304688 128.792969 C 324.796875 128.792969 325.335938 128.769531 325.335938 127.808594 C 325.335938 125.042969 324.046875 123.214844 320.859375 123.214844 C 317.4375 123.214844 315.75 125.136719 315.75 128.394531 C 315.75 131.886719 317.789062 133.597656 321.140625 133.597656 C 321.960938 133.597656 323.179688 133.480469 324.585938 132.777344 C 325.054688 132.542969 325.195312 132.496094 325.195312 132.238281 C 325.195312 132.074219 325.148438 131.464844 325.125 131.300781 C 325.03125 130.621094 325.007812 130.597656 324.820312 130.597656 C 324.726562 130.597656 324.679688 130.597656 324.445312 130.808594 C 323.203125 131.910156 321.914062 132.050781 321.234375 132.050781 C 318.820312 132.050781 318.5625 130.152344 318.492188 128.792969 Z M 318.515625 127.644531 C 318.585938 126.355469 319.007812 124.738281 320.859375 124.738281 C 322.570312 124.738281 322.898438 125.980469 322.96875 127.644531 Z M 318.515625 127.644531 "/>
<path fill-rule="nonzero" fill="rgb(0%, 0%, 0%)" fill-opacity="1" d="M 334.480469 130.339844 C 334.480469 129.144531 333.847656 128.394531 333.449219 128.066406 C 332.605469 127.292969 331.855469 127.175781 330.964844 126.988281 C 329.792969 126.777344 328.925781 126.613281 328.925781 125.769531 C 328.925781 124.902344 329.628906 124.738281 330.472656 124.738281 C 331.902344 124.738281 332.675781 125.253906 333.214844 125.722656 C 333.425781 125.957031 333.472656 125.957031 333.566406 125.957031 C 333.777344 125.957031 333.824219 125.746094 333.847656 125.675781 C 333.894531 125.488281 334.105469 124.292969 334.105469 124.199219 C 334.105469 123.847656 332.957031 123.542969 332.722656 123.472656 C 331.878906 123.238281 331.199219 123.214844 330.636719 123.214844 C 329.675781 123.214844 326.816406 123.214844 326.816406 126.261719 C 326.816406 127.316406 327.285156 127.949219 327.847656 128.464844 C 328.597656 129.144531 329.441406 129.308594 330.660156 129.542969 C 331.269531 129.636719 332.371094 129.847656 332.371094 130.785156 C 332.371094 131.792969 331.527344 131.933594 330.707031 131.933594 C 329.769531 131.933594 328.574219 131.652344 327.566406 130.457031 C 327.449219 130.339844 327.378906 130.292969 327.261719 130.292969 C 327.050781 130.292969 327.003906 130.480469 326.980469 130.597656 C 326.933594 130.902344 326.675781 132.121094 326.675781 132.332031 C 326.675781 132.730469 328.269531 133.222656 328.292969 133.246094 C 329.464844 133.597656 330.332031 133.597656 330.707031 133.597656 C 331.785156 133.597656 334.480469 133.503906 334.480469 130.339844 Z M 334.480469 130.339844 "/>
<path fill-rule="nonzero" fill="rgb(0%, 0%, 0%)" fill-opacity="1" d="M 351.3125 130.339844 C 351.3125 129.144531 350.679688 128.394531 350.28125 128.066406 C 349.4375 127.292969 348.6875 127.175781 347.796875 126.988281 C 346.625 126.777344 345.757812 126.613281 345.757812 125.769531 C 345.757812 124.902344 346.460938 124.738281 347.304688 124.738281 C 348.734375 124.738281 349.507812 125.253906 350.046875 125.722656 C 350.257812 125.957031 350.304688 125.957031 350.398438 125.957031 C 350.609375 125.957031 350.65625 125.746094 350.679688 125.675781 C 350.726562 125.488281 350.9375 124.292969 350.9375 124.199219 C 350.9375 123.847656 349.789062 123.542969 349.554688 123.472656 C 348.710938 123.238281 348.03125 123.214844 347.46875 123.214844 C 346.507812 123.214844 343.648438 123.214844 343.648438 126.261719 C 343.648438 127.316406 344.117188 127.949219 344.679688 128.464844 C 345.429688 129.144531 346.273438 129.308594 347.492188 129.542969 C 348.101562 129.636719 349.203125 129.847656 349.203125 130.785156 C 349.203125 131.792969 348.359375 131.933594 347.539062 131.933594 C 346.601562 131.933594 345.40625 131.652344 344.398438 130.457031 C 344.28125 130.339844 344.210938 130.292969 344.09375 130.292969 C 343.882812 130.292969 343.835938 130.480469 343.8125 130.597656 C 343.765625 130.902344 343.507812 132.121094 343.507812 132.332031 C 343.507812 132.730469 345.101562 133.222656 345.125 133.246094 C 346.296875 133.597656 347.164062 133.597656 347.539062 133.597656 C 348.617188 133.597656 351.3125 133.503906 351.3125 130.339844 Z M 351.3125 130.339844 "/>
<path fill-rule="nonzero" fill="rgb(0%, 0%, 0%)" fill-opacity="1" d="M 360.996094 119.136719 C 361.089844 119.042969 361.230469 118.925781 361.230469 118.808594 C 361.230469 118.527344 360.996094 118.527344 360.644531 118.527344 L 358.886719 118.527344 C 358.464844 118.527344 358.441406 118.550781 358.253906 118.785156 L 356.425781 121.292969 C 356.214844 121.527344 356.214844 121.574219 356.214844 121.597656 C 356.214844 121.878906 356.449219 121.878906 356.800781 121.878906 L 357.597656 121.878906 Z M 360.996094 119.136719 "/>
<path fill-rule="nonzero" fill="rgb(0%, 0%, 0%)" fill-opacity="1" d="M 361.074219 128.792969 C 361.566406 128.792969 362.105469 128.769531 362.105469 127.808594 C 362.105469 125.042969 360.816406 123.214844 357.628906 123.214844 C 354.207031 123.214844 352.519531 125.136719 352.519531 128.394531 C 352.519531 131.886719 354.558594 133.597656 357.910156 133.597656 C 358.730469 133.597656 359.949219 133.480469 361.355469 132.777344 C 361.824219 132.542969 361.964844 132.496094 361.964844 132.238281 C 361.964844 132.074219 361.917969 131.464844 361.894531 131.300781 C 361.800781 130.621094 361.777344 130.597656 361.589844 130.597656 C 361.496094 130.597656 361.449219 130.597656 361.214844 130.808594 C 359.972656 131.910156 358.683594 132.050781 358.003906 132.050781 C 355.589844 132.050781 355.332031 130.152344 355.261719 128.792969 Z M 355.285156 127.644531 C 355.355469 126.355469 355.777344 124.738281 357.628906 124.738281 C 359.339844 124.738281 359.667969 125.980469 359.738281 127.644531 Z M 355.285156 127.644531 "/>
<path fill-rule="nonzero" fill="rgb(0%, 0%, 0%)" fill-opacity="1" d="M 381.292969 124.363281 C 381.292969 123.683594 381.152344 123.332031 380.261719 123.332031 L 379.488281 123.332031 C 378.667969 123.332031 378.457031 123.613281 378.457031 124.363281 L 378.457031 124.761719 C 377.519531 123.332031 376.253906 123.332031 375.878906 123.332031 C 371.753906 123.332031 371.425781 126.777344 371.425781 128.488281 C 371.425781 130.152344 371.753906 133.597656 375.738281 133.597656 C 376.863281 133.597656 377.660156 133.175781 378.386719 132.332031 L 378.386719 136.480469 C 378.386719 137.160156 378.527344 137.511719 379.417969 137.511719 L 380.261719 137.511719 C 381.082031 137.511719 381.292969 137.230469 381.292969 136.480469 Z M 378.457031 130.902344 C 378.058594 131.441406 377.496094 132.050781 376.511719 132.050781 C 374.332031 132.050781 374.332031 129.355469 374.332031 128.511719 C 374.332031 127.644531 374.332031 124.996094 376.722656 124.996094 C 377.074219 124.996094 377.519531 125.089844 377.894531 125.488281 C 378.457031 126.027344 378.457031 126.425781 378.457031 126.683594 Z M 378.457031 130.902344 "/>
<path fill-rule="nonzero" fill="rgb(0%, 0%, 0%)" fill-opacity="1" d="M 393.304688 124.597656 C 393.304688 123.917969 393.164062 123.566406 392.273438 123.566406 L 391.429688 123.566406 C 390.609375 123.566406 390.398438 123.847656 390.398438 124.597656 L 390.398438 129.660156 C 390.398438 131.066406 389.648438 132.285156 388.125 132.285156 C 386.929688 132.285156 386.8125 132.003906 386.8125 130.855469 L 386.8125 124.597656 C 386.8125 123.917969 386.648438 123.566406 385.78125 123.566406 L 384.914062 123.566406 C 384.164062 123.566406 383.90625 123.800781 383.90625 124.597656 L 383.90625 130.667969 C 383.90625 132.964844 385.148438 133.597656 387.351562 133.597656 C 387.9375 133.597656 389.460938 133.597656 390.46875 131.792969 L 390.46875 132.332031 C 390.46875 133.011719 390.609375 133.363281 391.476562 133.363281 L 392.273438 133.363281 C 393.09375 133.363281 393.304688 133.082031 393.304688 132.332031 Z M 393.304688 124.597656 "/>
<path fill-rule="nonzero" fill="rgb(0%, 0%, 0%)" fill-opacity="1" d="M 403.820312 128.792969 C 404.3125 128.792969 404.851562 128.769531 404.851562 127.808594 C 404.851562 125.042969 403.5625 123.214844 400.375 123.214844 C 396.953125 123.214844 395.265625 125.136719 395.265625 128.394531 C 395.265625 131.886719 397.304688 133.597656 400.65625 133.597656 C 401.476562 133.597656 402.695312 133.480469 404.101562 132.777344 C 404.570312 132.542969 404.710938 132.496094 404.710938 132.238281 C 404.710938 132.074219 404.664062 131.464844 404.640625 131.300781 C 404.546875 130.621094 404.523438 130.597656 404.335938 130.597656 C 404.242188 130.597656 404.195312 130.597656 403.960938 130.808594 C 402.71875 131.910156 401.429688 132.050781 400.75 132.050781 C 398.335938 132.050781 398.078125 130.152344 398.007812 128.792969 Z M 398.03125 127.644531 C 398.101562 126.355469 398.523438 124.738281 400.375 124.738281 C 402.085938 124.738281 402.414062 125.980469 402.484375 127.644531 Z M 398.03125 127.644531 "/>
<path fill-rule="nonzero" fill="rgb(0%, 0%, 0%)" fill-opacity="1" d="M 418.039062 131.136719 C 418.039062 130.574219 418.015625 130.574219 417.453125 130.574219 L 415.8125 130.574219 C 415.25 130.574219 415.226562 130.574219 415.226562 131.136719 L 415.226562 132.777344 C 415.226562 133.339844 415.25 133.363281 415.8125 133.363281 L 417.453125 133.363281 C 418.015625 133.363281 418.039062 133.339844 418.039062 132.777344 Z M 418.039062 131.136719 "/>
<path fill-rule="nonzero" fill="rgb(0%, 0%, 0%)" fill-opacity="1" d="M 424.546875 131.136719 C 424.546875 130.574219 424.523438 130.574219 423.960938 130.574219 L 422.320312 130.574219 C 421.757812 130.574219 421.734375 130.574219 421.734375 131.136719 L 421.734375 132.777344 C 421.734375 133.339844 421.757812 133.363281 422.320312 133.363281 L 423.960938 133.363281 C 424.523438 133.363281 424.546875 133.339844 424.546875 132.777344 Z M 424.546875 131.136719 "/>
<path fill-rule="nonzero" fill="rgb(0%, 0%, 0%)" fill-opacity="1" d="M 431.078125 131.136719 C 431.078125 130.574219 431.054688 130.574219 430.492188 130.574219 L 428.851562 130.574219 C 428.289062 130.574219 428.265625 130.574219 428.265625 131.136719 L 428.265625 132.777344 C 428.265625 133.339844 428.289062 133.363281 428.851562 133.363281 L 430.492188 133.363281 C 431.054688 133.363281 431.078125 133.339844 431.078125 132.777344 Z M 431.078125 131.136719 "/>
<path fill-rule="nonzero" fill="rgb(0%, 0%, 0%)" fill-opacity="1" d="M 130.382812 151.632812 C 129.9375 152.710938 129.140625 154.679688 128.976562 155.429688 L 128.953125 155.429688 C 128.765625 154.65625 127.875 152.546875 127.429688 151.421875 L 124.710938 144.648438 C 124.335938 143.78125 123.65625 143.78125 123.257812 143.78125 L 121.5 143.78125 C 120.726562 143.78125 120.46875 144.015625 120.46875 144.8125 L 120.46875 157.585938 C 120.46875 158.359375 120.703125 158.617188 121.5 158.617188 L 122.0625 158.617188 C 122.882812 158.617188 123.09375 158.335938 123.09375 157.585938 L 123.09375 146.546875 L 123.117188 146.546875 C 123.351562 147.507812 124.3125 149.875 124.828125 151.140625 L 127.3125 157.234375 C 127.6875 158.148438 128.203125 158.148438 128.929688 158.148438 C 129.65625 158.148438 130.171875 158.148438 130.546875 157.234375 L 133.289062 150.507812 C 133.5 149.992188 134.671875 147.085938 134.8125 146.546875 L 134.835938 146.546875 L 134.835938 157.585938 C 134.835938 158.265625 134.976562 158.617188 135.867188 158.617188 L 136.429688 158.617188 C 137.25 158.617188 137.460938 158.335938 137.460938 157.585938 L 137.460938 144.8125 C 137.460938 144.132812 137.320312 143.78125 136.429688 143.78125 L 134.648438 143.78125 C 134.109375 143.78125 133.570312 143.828125 133.21875 144.695312 Z M 130.382812 151.632812 "/>
<path fill-rule="nonzero" fill="rgb(0%, 0%, 0%)" fill-opacity="1" d="M 150.105469 149.851562 C 150.105469 149.171875 149.964844 148.820312 149.074219 148.820312 L 148.230469 148.820312 C 147.410156 148.820312 147.199219 149.101562 147.199219 149.851562 L 147.199219 154.914062 C 147.199219 156.320312 146.449219 157.539062 144.925781 157.539062 C 143.730469 157.539062 143.613281 157.257812 143.613281 156.109375 L 143.613281 149.851562 C 143.613281 149.171875 143.449219 148.820312 142.582031 148.820312 L 141.714844 148.820312 C 140.964844 148.820312 140.707031 149.054688 140.707031 149.851562 L 140.707031 155.921875 C 140.707031 158.21875 141.949219 158.851562 144.152344 158.851562 C 144.738281 158.851562 146.261719 158.851562 147.269531 157.046875 L 147.269531 157.585938 C 147.269531 158.265625 147.410156 158.617188 148.277344 158.617188 L 149.074219 158.617188 C 149.894531 158.617188 150.105469 158.335938 150.105469 157.585938 Z M 150.105469 149.851562 "/>
<path fill-rule="nonzero" fill="rgb(0%, 0%, 0%)" fill-opacity="1" d="M 155.558594 144.8125 C 155.558594 144.132812 155.417969 143.78125 154.527344 143.78125 L 153.730469 143.78125 C 152.980469 143.78125 152.722656 144.015625 152.722656 144.8125 L 152.722656 157.585938 C 152.722656 158.359375 152.957031 158.617188 153.730469 158.617188 L 154.527344 158.617188 C 155.347656 158.617188 155.558594 158.335938 155.558594 157.585938 Z M 155.558594 144.8125 "/>
<path fill-rule="nonzero" fill="rgb(0%, 0%, 0%)" fill-opacity="1" d="M 161.535156 150.367188 L 163.433594 150.367188 C 163.691406 150.367188 164.464844 150.367188 164.464844 149.59375 C 164.464844 148.820312 163.691406 148.820312 163.433594 148.820312 L 161.535156 148.820312 L 161.535156 147.0625 C 161.535156 146.359375 161.371094 146.03125 160.503906 146.03125 L 159.847656 146.03125 C 159.074219 146.03125 158.816406 146.265625 158.816406 147.0625 L 158.816406 148.820312 L 158.324219 148.820312 C 158.089844 148.820312 157.292969 148.820312 157.292969 149.59375 C 157.292969 150.367188 158.066406 150.367188 158.324219 150.367188 L 158.746094 150.367188 L 158.746094 155.78125 C 158.746094 157.9375 159.519531 158.851562 160.996094 158.851562 C 161.183594 158.851562 162.121094 158.851562 163.246094 158.5 C 163.597656 158.40625 164.839844 158.007812 164.839844 157.609375 C 164.839844 157.539062 164.792969 157.398438 164.675781 156.953125 C 164.558594 156.53125 164.511719 156.390625 164.324219 156.390625 C 164.230469 156.390625 164.207031 156.414062 164.066406 156.554688 C 163.832031 156.71875 163.269531 157.1875 162.355469 157.1875 C 161.839844 157.1875 161.535156 156.8125 161.535156 155.40625 Z M 161.535156 150.367188 "/>
<path fill-rule="nonzero" fill="rgb(0%, 0%, 0%)" fill-opacity="1" d="M 167.6875 143.757812 C 167.007812 143.757812 166.65625 143.898438 166.65625 144.742188 L 166.65625 145.726562 C 166.65625 146.40625 166.867188 146.6875 167.664062 146.6875 L 168.789062 146.6875 C 169.796875 146.6875 169.796875 146.242188 169.796875 145.234375 C 169.796875 144.203125 169.796875 143.757812 168.789062 143.757812 Z M 169.65625 149.851562 C 169.65625 149.171875 169.515625 148.820312 168.625 148.820312 L 167.828125 148.820312 C 167.078125 148.820312 166.820312 149.054688 166.820312 149.851562 L 166.820312 157.585938 C 166.820312 158.359375 167.054688 158.617188 167.828125 158.617188 L 168.625 158.617188 C 169.445312 158.617188 169.65625 158.335938 169.65625 157.585938 Z M 169.65625 149.851562 "/>
<path fill-rule="nonzero" fill="rgb(0%, 0%, 0%)" fill-opacity="1" d="M 175.1875 157.773438 C 176.148438 158.851562 177.320312 158.851562 177.625 158.851562 C 182.148438 158.851562 182.148438 154.75 182.148438 153.671875 C 182.148438 152.640625 182.148438 148.585938 178.28125 148.585938 C 177.015625 148.585938 175.890625 149.101562 175.117188 149.828125 C 175.117188 149.03125 174.8125 148.820312 174.085938 148.820312 L 173.289062 148.820312 C 172.539062 148.820312 172.28125 149.054688 172.28125 149.851562 L 172.28125 161.734375 C 172.28125 162.507812 172.515625 162.765625 173.289062 162.765625 L 174.15625 162.765625 C 174.976562 162.765625 175.1875 162.484375 175.1875 161.734375 Z M 175.1875 150.976562 C 175.421875 150.742188 176.125 150.25 177.039062 150.25 C 179.21875 150.25 179.242188 152.78125 179.242188 153.71875 C 179.242188 154.585938 179.242188 157.304688 176.828125 157.304688 C 176.335938 157.304688 175.9375 157.140625 175.703125 156.953125 C 175.1875 156.578125 175.1875 156.484375 175.1875 156.085938 Z M 175.1875 150.976562 "/>
<path fill-rule="nonzero" fill="rgb(0%, 0%, 0%)" fill-opacity="1" d="M 187.109375 144.8125 C 187.109375 144.132812 186.96875 143.78125 186.078125 143.78125 L 185.28125 143.78125 C 184.53125 143.78125 184.273438 144.015625 184.273438 144.8125 L 184.273438 157.585938 C 184.273438 158.359375 184.507812 158.617188 185.28125 158.617188 L 186.078125 158.617188 C 186.898438 158.617188 187.109375 158.335938 187.109375 157.585938 Z M 187.109375 144.8125 "/>
<path fill-rule="nonzero" fill="rgb(0%, 0%, 0%)" fill-opacity="1" d="M 190.601562 143.757812 C 189.921875 143.757812 189.570312 143.898438 189.570312 144.742188 L 189.570312 145.726562 C 189.570312 146.40625 189.78125 146.6875 190.578125 146.6875 L 191.703125 146.6875 C 192.710938 146.6875 192.710938 146.242188 192.710938 145.234375 C 192.710938 144.203125 192.710938 143.757812 191.703125 143.757812 Z M 192.570312 149.851562 C 192.570312 149.171875 192.429688 148.820312 191.539062 148.820312 L 190.742188 148.820312 C 189.992188 148.820312 189.734375 149.054688 189.734375 149.851562 L 189.734375 157.585938 C 189.734375 158.359375 189.96875 158.617188 190.742188 158.617188 L 191.539062 158.617188 C 192.359375 158.617188 192.570312 158.335938 192.570312 157.585938 Z M 192.570312 149.851562 "/>
<path fill-rule="nonzero" fill="rgb(0%, 0%, 0%)" fill-opacity="1" d="M 203.660156 157.539062 C 203.660156 157.304688 203.566406 156.320312 203.519531 156.0625 C 203.519531 155.992188 203.472656 155.78125 203.261719 155.78125 C 203.191406 155.78125 203.144531 155.78125 202.933594 155.992188 C 202.558594 156.320312 201.550781 157.1875 199.816406 157.1875 C 197.589844 157.1875 197.589844 155.03125 197.589844 153.648438 C 197.589844 151.9375 197.683594 150.132812 199.863281 150.132812 C 201.269531 150.132812 201.832031 150.484375 202.605469 151.117188 C 202.863281 151.351562 202.910156 151.351562 203.003906 151.351562 C 203.214844 151.351562 203.238281 151.164062 203.261719 151.070312 C 203.308594 150.90625 203.519531 149.710938 203.519531 149.59375 C 203.519531 149.40625 203.378906 149.3125 203.003906 149.148438 C 201.996094 148.679688 201.339844 148.46875 199.839844 148.46875 C 196.675781 148.46875 194.683594 149.96875 194.683594 153.695312 C 194.683594 157.257812 196.511719 158.851562 199.746094 158.851562 C 200.332031 158.851562 201.597656 158.828125 203.027344 158.101562 C 203.636719 157.773438 203.660156 157.773438 203.660156 157.539062 Z M 203.660156 157.539062 "/>
<path fill-rule="nonzero" fill="rgb(0%, 0%, 0%)" fill-opacity="1" d="M 214.246094 151.867188 C 214.246094 148.492188 211.011719 148.46875 209.933594 148.46875 C 208.925781 148.46875 207.847656 148.539062 206.417969 149.148438 C 205.972656 149.335938 205.878906 149.40625 205.878906 149.640625 C 205.878906 149.78125 205.996094 151.023438 206.019531 151.210938 C 206.042969 151.328125 206.160156 151.445312 206.300781 151.445312 C 206.394531 151.445312 206.464844 151.375 206.535156 151.304688 C 207.449219 150.34375 208.527344 149.875 209.839844 149.875 C 211.011719 149.875 211.339844 150.578125 211.339844 151.84375 L 211.339844 152.59375 C 210.589844 152.59375 204.988281 152.640625 204.988281 155.78125 C 204.988281 157.28125 206.183594 158.851562 208.082031 158.851562 C 208.808594 158.851562 210.402344 158.640625 211.410156 157.164062 L 211.410156 157.585938 C 211.410156 158.265625 211.550781 158.617188 212.441406 158.617188 L 213.214844 158.617188 C 214.035156 158.617188 214.246094 158.335938 214.246094 157.585938 Z M 211.339844 155.335938 C 211.339844 157.304688 209.300781 157.304688 209.253906 157.304688 C 208.339844 157.304688 207.777344 156.554688 207.777344 155.734375 C 207.777344 153.648438 210.753906 153.484375 211.339844 153.460938 Z M 211.339844 155.335938 "/>
<path fill-rule="nonzero" fill="rgb(0%, 0%, 0%)" fill-opacity="1" d="M 225.324219 157.539062 C 225.324219 157.304688 225.230469 156.320312 225.183594 156.0625 C 225.183594 155.992188 225.136719 155.78125 224.925781 155.78125 C 224.855469 155.78125 224.808594 155.78125 224.597656 155.992188 C 224.222656 156.320312 223.214844 157.1875 221.480469 157.1875 C 219.253906 157.1875 219.253906 155.03125 219.253906 153.648438 C 219.253906 151.9375 219.347656 150.132812 221.527344 150.132812 C 222.933594 150.132812 223.496094 150.484375 224.269531 151.117188 C 224.527344 151.351562 224.574219 151.351562 224.667969 151.351562 C 224.878906 151.351562 224.902344 151.164062 224.925781 151.070312 C 224.972656 150.90625 225.183594 149.710938 225.183594 149.59375 C 225.183594 149.40625 225.042969 149.3125 224.667969 149.148438 C 223.660156 148.679688 223.003906 148.46875 221.503906 148.46875 C 218.339844 148.46875 216.347656 149.96875 216.347656 153.695312 C 216.347656 157.257812 218.175781 158.851562 221.410156 158.851562 C 221.996094 158.851562 223.261719 158.828125 224.691406 158.101562 C 225.300781 157.773438 225.324219 157.773438 225.324219 157.539062 Z M 225.324219 157.539062 "/>
<path fill-rule="nonzero" fill="rgb(0%, 0%, 0%)" fill-opacity="1" d="M 228.179688 143.757812 C 227.5 143.757812 227.148438 143.898438 227.148438 144.742188 L 227.148438 145.726562 C 227.148438 146.40625 227.359375 146.6875 228.15625 146.6875 L 229.28125 146.6875 C 230.289062 146.6875 230.289062 146.242188 230.289062 145.234375 C 230.289062 144.203125 230.289062 143.757812 229.28125 143.757812 Z M 230.148438 149.851562 C 230.148438 149.171875 230.007812 148.820312 229.117188 148.820312 L 228.320312 148.820312 C 227.570312 148.820312 227.3125 149.054688 227.3125 149.851562 L 227.3125 157.585938 C 227.3125 158.359375 227.546875 158.617188 228.320312 158.617188 L 229.117188 158.617188 C 229.9375 158.617188 230.148438 158.335938 230.148438 157.585938 Z M 230.148438 149.851562 "/>
<path fill-rule="nonzero" fill="rgb(0%, 0%, 0%)" fill-opacity="1" d="M 241 144.390625 C 241.09375 144.296875 241.234375 144.179688 241.234375 144.0625 C 241.234375 143.78125 241 143.78125 240.648438 143.78125 L 238.890625 143.78125 C 238.46875 143.78125 238.445312 143.804688 238.257812 144.039062 L 236.429688 146.546875 C 236.21875 146.78125 236.21875 146.828125 236.21875 146.851562 C 236.21875 147.132812 236.453125 147.132812 236.804688 147.132812 L 237.601562 147.132812 Z M 241 144.390625 "/>
<path fill-rule="nonzero" fill="rgb(0%, 0%, 0%)" fill-opacity="1" d="M 242.523438 153.8125 C 242.523438 150.296875 240.8125 148.46875 237.34375 148.46875 C 233.757812 148.46875 232.117188 150.367188 232.117188 153.8125 C 232.117188 157.28125 233.96875 158.851562 237.320312 158.851562 C 240.671875 158.851562 242.523438 157.304688 242.523438 153.8125 Z M 237.34375 157.1875 C 235.023438 157.1875 235.023438 155.265625 235.023438 153.554688 C 235.023438 151.914062 235.023438 149.992188 237.320312 149.992188 C 239.617188 149.992188 239.617188 151.890625 239.617188 153.554688 C 239.617188 155.242188 239.617188 157.1875 237.34375 157.1875 Z M 237.34375 157.1875 "/>
<path fill-rule="nonzero" fill="rgb(0%, 0%, 0%)" fill-opacity="1" d="M 253.902344 151.679688 C 253.902344 149.476562 252.964844 148.585938 250.785156 148.585938 C 248.535156 148.585938 247.574219 150.226562 247.292969 150.789062 L 247.269531 150.789062 L 247.269531 149.734375 C 247.269531 149.03125 247.128906 148.703125 246.261719 148.703125 L 245.511719 148.703125 C 244.761719 148.703125 244.503906 148.9375 244.503906 149.734375 L 244.503906 157.585938 C 244.503906 158.359375 244.738281 158.617188 245.511719 158.617188 L 246.378906 158.617188 C 247.199219 158.617188 247.410156 158.335938 247.410156 157.585938 L 247.410156 152.875 C 247.410156 151 248.652344 150.132812 249.753906 150.132812 C 250.785156 150.132812 250.996094 150.625 250.996094 151.703125 L 250.996094 157.585938 C 250.996094 158.265625 251.136719 158.617188 252.027344 158.617188 L 252.871094 158.617188 C 253.691406 158.617188 253.902344 158.335938 253.902344 157.585938 Z M 253.902344 151.679688 "/>
<path fill-rule="nonzero" fill="rgb(0%, 0%, 0%)" fill-opacity="1" d="M 471.554688 166.015625 L 468.929688 166.015625 L 468.929688 180.851562 L 470.570312 180.851562 L 470.570312 167.609375 L 470.59375 167.609375 C 470.78125 168.03125 471.90625 170.328125 472.328125 171.195312 L 477.0625 180.851562 L 479.6875 180.851562 L 479.6875 166.015625 L 478.046875 166.015625 L 478.046875 179.28125 L 478.023438 179.28125 C 477.8125 178.835938 476.710938 176.539062 476.289062 175.671875 Z M 471.554688 166.015625 "/>
<path fill-rule="nonzero" fill="rgb(0%, 0%, 0%)" fill-opacity="1" d="M 491.472656 176.140625 C 491.472656 173.257812 489.339844 171.03125 486.878906 171.03125 C 484.371094 171.03125 482.285156 173.304688 482.285156 176.140625 C 482.285156 178.953125 484.441406 181.0625 486.878906 181.0625 C 489.386719 181.0625 491.472656 178.90625 491.472656 176.140625 Z M 486.878906 179.75 C 485.355469 179.75 483.925781 178.460938 483.925781 175.929688 C 483.925781 173.351562 485.519531 172.320312 486.878906 172.320312 C 488.332031 172.320312 489.832031 173.445312 489.832031 175.929688 C 489.832031 178.554688 488.332031 179.75 486.878906 179.75 Z M 486.878906 179.75 "/>
<path fill-rule="nonzero" fill="rgb(0%, 0%, 0%)" fill-opacity="1" d="M 507.019531 174.40625 C 507.019531 172.953125 506.621094 171.148438 504.136719 171.148438 C 502.308594 171.148438 501.300781 172.414062 500.972656 172.882812 C 500.597656 171.523438 499.425781 171.148438 498.300781 171.148438 C 496.566406 171.148438 495.628906 172.273438 495.277344 172.71875 L 495.277344 171.265625 L 493.753906 171.265625 L 493.753906 180.851562 L 495.394531 180.851562 L 495.394531 175.53125 C 495.394531 174.125 495.933594 172.4375 497.503906 172.4375 C 499.472656 172.4375 499.566406 173.773438 499.566406 174.570312 L 499.566406 180.851562 L 501.207031 180.851562 L 501.207031 175.53125 C 501.207031 174.125 501.746094 172.4375 503.316406 172.4375 C 505.285156 172.4375 505.378906 173.773438 505.378906 174.570312 L 505.378906 180.851562 L 507.019531 180.851562 Z M 507.019531 174.40625 "/>
<path fill-rule="nonzero" fill="rgb(0%, 0%, 0%)" fill-opacity="1" d="M 511.917969 166.015625 L 510.324219 166.015625 L 510.324219 180.851562 L 511.941406 180.851562 L 511.941406 179.890625 C 512.925781 180.828125 513.980469 181.0625 514.730469 181.0625 C 516.769531 181.0625 518.621094 179 518.621094 176.09375 C 518.621094 173.445312 517.214844 171.148438 515.222656 171.148438 C 514.613281 171.148438 513.230469 171.265625 511.917969 172.34375 Z M 511.941406 173.65625 C 512.339844 173.046875 513.113281 172.4375 514.144531 172.4375 C 515.457031 172.4375 517.003906 173.421875 517.003906 176.09375 C 517.003906 178.859375 515.246094 179.773438 513.933594 179.773438 C 513.347656 179.773438 512.925781 179.5625 512.550781 179.28125 C 512.035156 178.8125 511.941406 178.4375 511.941406 178.0625 Z M 511.941406 173.65625 "/>
<path fill-rule="nonzero" fill="rgb(0%, 0%, 0%)" fill-opacity="1" d="M 522.074219 176.164062 C 522.074219 174.007812 523.691406 172.601562 525.613281 172.578125 L 525.613281 171.148438 C 523.667969 171.171875 522.542969 172.296875 521.957031 173.140625 L 521.957031 171.265625 L 520.480469 171.265625 L 520.480469 180.851562 L 522.074219 180.851562 Z M 522.074219 176.164062 "/>
<path fill-rule="nonzero" fill="rgb(0%, 0%, 0%)" fill-opacity="1" d="M 534.625 176.046875 C 534.625 175.132812 534.554688 173.820312 533.851562 172.695312 C 532.984375 171.21875 531.484375 171.03125 530.875 171.03125 C 528.554688 171.03125 526.632812 173.257812 526.632812 176.046875 C 526.632812 178.859375 528.695312 181.0625 531.15625 181.0625 C 532.140625 181.0625 533.335938 180.78125 534.507812 179.9375 C 534.507812 179.84375 534.4375 179.1875 534.4375 179.140625 C 534.414062 179.117188 534.367188 178.648438 534.367188 178.554688 C 533.101562 179.632812 531.859375 179.773438 531.203125 179.773438 C 529.5625 179.773438 528.15625 178.296875 528.109375 176.046875 Z M 528.226562 174.898438 C 528.601562 173.445312 529.609375 172.320312 530.875 172.320312 C 531.53125 172.320312 533.007812 172.625 533.359375 174.898438 Z M 528.226562 174.898438 "/>
<path fill-rule="nonzero" fill="rgb(0%, 0%, 0%)" fill-opacity="1" d="M 539.003906 171.359375 L 537.269531 171.359375 L 537.269531 173.09375 L 539.003906 173.09375 Z M 537.269531 179.117188 L 537.269531 180.851562 L 539.003906 180.851562 L 539.003906 179.117188 Z M 537.269531 179.117188 "/>
<path fill="none" stroke-width="0.574" stroke-linecap="butt" stroke-linejoin="round" stroke="rgb(0%, 0%, 0%)" stroke-opacity="1" stroke-miterlimit="10" d="M -0.000366211 0.00307973 L 170.077759 0.00307973 " transform="matrix(1.5, 0, 0, -1.5, 550.336487, 183.863995)"/>
</svg>
