<?xml version="1.0" encoding="UTF-8"?>
<svg xmlns="http://www.w3.org/2000/svg" xmlns:xlink="http://www.w3.org/1999/xlink" width="552.736496" height="302.863495" viewBox="0 0 552.736496 302.863495">
<path fill="none" stroke-width="1.99255" stroke-linecap="butt" stroke-linejoin="round" stroke="rgb(19.607843%, 19.607843%, 19.607843%)" stroke-opacity="1" stroke-miterlimit="10" d="M -63.232437 -23.026645 L 63.231105 -23.026645 L 63.231105 23.025438 L -63.232437 23.025438 Z M -63.232437 -23.026645 " transform="matrix(1.5, 0, 0, -1.5, 103.813499, 43.503001)"/>
<path fill-rule="nonzero" fill="rgb(0%, 0%, 0%)" fill-opacity="1" d="M 56.128906 39.78125 C 55.707031 39.6875 54.488281 39.242188 54.488281 38.140625 C 54.488281 36.476562 56.152344 36.453125 56.808594 36.453125 C 57.886719 36.453125 58.871094 36.710938 59.808594 37.625 C 60.136719 37.929688 60.136719 37.953125 60.230469 37.953125 C 60.347656 37.953125 60.441406 37.882812 60.488281 37.601562 L 60.792969 35.914062 C 60.816406 35.75 60.816406 35.703125 60.816406 35.65625 C 60.816406 35.492188 60.816406 35.46875 60.324219 35.234375 C 58.941406 34.554688 57.792969 34.4375 56.808594 34.4375 C 55.074219 34.4375 52.074219 34.859375 52.074219 38.492188 C 52.074219 39.875 52.777344 40.765625 53.152344 41.140625 C 54.136719 42.171875 55.050781 42.359375 56.574219 42.710938 C 57.652344 42.96875 58.097656 43.0625 58.519531 43.4375 C 58.707031 43.648438 59.105469 44.046875 59.105469 44.773438 C 59.105469 46.601562 57.441406 46.671875 56.808594 46.671875 C 55.167969 46.671875 53.761719 46.015625 52.777344 45.125 C 52.542969 44.890625 52.519531 44.890625 52.425781 44.890625 C 52.308594 44.890625 52.214844 44.960938 52.167969 45.242188 L 51.863281 46.929688 C 51.839844 47.09375 51.839844 47.140625 51.839844 47.1875 C 51.839844 47.609375 53.855469 48.3125 53.949219 48.335938 C 55.261719 48.757812 56.292969 48.78125 56.808594 48.78125 C 59.714844 48.78125 61.542969 47.492188 61.542969 44.46875 C 61.542969 42.289062 59.925781 40.671875 57.980469 40.226562 Z M 56.128906 39.78125 "/>
<path fill-rule="nonzero" fill="rgb(0%, 0%, 0%)" fill-opacity="1" d="M 64.746094 34.859375 C 64.113281 34.859375 63.808594 34.976562 63.808594 35.75 L 63.808594 36.640625 C 63.808594 37.273438 63.996094 37.507812 64.722656 37.507812 L 65.730469 37.507812 C 66.667969 37.507812 66.667969 37.109375 66.667969 36.195312 C 66.667969 35.257812 66.667969 34.859375 65.730469 34.859375 Z M 66.527344 40.390625 C 66.527344 39.78125 66.386719 39.453125 65.589844 39.453125 L 64.863281 39.453125 C 64.183594 39.453125 63.949219 39.664062 63.949219 40.390625 L 63.949219 47.421875 C 63.949219 48.125 64.160156 48.359375 64.863281 48.359375 L 65.589844 48.359375 C 66.339844 48.359375 66.527344 48.101562 66.527344 47.421875 Z M 66.527344 40.390625 "/>
<path fill-rule="nonzero" fill="rgb(0%, 0%, 0%)" fill-opacity="1" d="M 82.535156 45.617188 C 82.535156 44.539062 81.949219 43.859375 81.597656 43.53125 C 80.824219 42.851562 80.144531 42.734375 79.324219 42.570312 C 78.269531 42.382812 77.496094 42.21875 77.496094 41.46875 C 77.496094 40.671875 78.128906 40.507812 78.878906 40.507812 C 80.191406 40.507812 80.894531 41 81.386719 41.421875 C 81.597656 41.609375 81.621094 41.609375 81.714844 41.609375 C 81.902344 41.609375 81.949219 41.445312 81.949219 41.375 C 81.996094 41.210938 82.183594 40.132812 82.183594 40.015625 C 82.183594 39.710938 81.152344 39.429688 80.941406 39.359375 C 80.167969 39.148438 79.558594 39.125 79.042969 39.125 C 78.175781 39.125 75.574219 39.125 75.574219 41.914062 C 75.574219 42.851562 75.996094 43.4375 76.511719 43.90625 C 77.191406 44.539062 77.964844 44.65625 79.066406 44.890625 C 79.628906 44.984375 80.613281 45.148438 80.613281 46.015625 C 80.613281 46.929688 79.863281 47.046875 79.113281 47.046875 C 78.246094 47.046875 77.167969 46.8125 76.253906 45.710938 C 76.160156 45.617188 76.089844 45.570312 75.972656 45.570312 C 75.785156 45.570312 75.738281 45.734375 75.714844 45.851562 C 75.691406 46.132812 75.457031 47.234375 75.457031 47.421875 C 75.457031 47.773438 76.886719 48.21875 76.910156 48.242188 C 77.964844 48.570312 78.761719 48.570312 79.113281 48.570312 C 80.097656 48.570312 82.535156 48.5 82.535156 45.617188 Z M 82.535156 45.617188 "/>
<path fill-rule="nonzero" fill="rgb(0%, 0%, 0%)" fill-opacity="1" d="M 91.324219 35.421875 C 91.417969 35.351562 91.535156 35.234375 91.535156 35.117188 C 91.535156 34.882812 91.324219 34.882812 90.996094 34.882812 L 89.402344 34.882812 C 89.027344 34.882812 89.003906 34.90625 88.839844 35.117188 L 87.152344 37.390625 C 86.988281 37.601562 86.988281 37.625 86.988281 37.671875 C 86.988281 37.929688 87.199219 37.929688 87.503906 37.929688 L 88.230469 37.929688 Z M 91.324219 35.421875 "/>
<path fill-rule="nonzero" fill="rgb(0%, 0%, 0%)" fill-opacity="1" d="M 91.40625 44.210938 C 91.851562 44.210938 92.34375 44.1875 92.34375 43.296875 C 92.34375 40.8125 91.171875 39.125 88.289062 39.125 C 85.171875 39.125 83.648438 40.882812 83.648438 43.835938 C 83.648438 47.023438 85.476562 48.570312 88.546875 48.570312 C 89.273438 48.570312 90.375 48.476562 91.664062 47.84375 C 92.085938 47.609375 92.226562 47.5625 92.226562 47.328125 C 92.226562 47.1875 92.179688 46.625 92.15625 46.484375 C 92.0625 45.875 92.0625 45.851562 91.875 45.851562 C 91.804688 45.851562 91.757812 45.851562 91.546875 46.039062 C 90.398438 47.046875 89.226562 47.164062 88.617188 47.164062 C 86.414062 47.164062 86.179688 45.453125 86.132812 44.210938 Z M 86.15625 43.179688 C 86.203125 41.984375 86.601562 40.53125 88.289062 40.53125 C 89.835938 40.53125 90.140625 41.65625 90.1875 43.179688 Z M 86.15625 43.179688 "/>
<path fill-rule="nonzero" fill="rgb(0%, 0%, 0%)" fill-opacity="1" d="M 109.78125 40.179688 C 109.78125 39.546875 109.640625 39.242188 108.84375 39.242188 L 108.117188 39.242188 C 107.390625 39.242188 107.179688 39.5 107.179688 40.179688 L 107.179688 40.554688 C 106.335938 39.242188 105.1875 39.242188 104.859375 39.242188 C 101.109375 39.242188 100.804688 42.382812 100.804688 43.929688 C 100.804688 45.453125 101.109375 48.570312 104.71875 48.570312 C 105.75 48.570312 106.476562 48.195312 107.132812 47.421875 L 107.132812 51.195312 C 107.132812 51.828125 107.273438 52.132812 108.070312 52.132812 L 108.84375 52.132812 C 109.570312 52.132812 109.78125 51.875 109.78125 51.195312 Z M 107.179688 46.132812 C 106.828125 46.601562 106.3125 47.164062 105.421875 47.164062 C 103.429688 47.164062 103.429688 44.703125 103.429688 43.953125 C 103.429688 43.179688 103.429688 40.765625 105.609375 40.765625 C 105.9375 40.765625 106.335938 40.835938 106.6875 41.210938 C 107.179688 41.703125 107.179688 42.054688 107.179688 42.289062 Z M 107.179688 46.132812 "/>
<path fill-rule="nonzero" fill="rgb(0%, 0%, 0%)" fill-opacity="1" d="M 120.683594 40.390625 C 120.683594 39.78125 120.566406 39.453125 119.769531 39.453125 L 118.996094 39.453125 C 118.246094 39.453125 118.058594 39.710938 118.058594 40.390625 L 118.058594 45.007812 C 118.058594 46.273438 117.378906 47.398438 115.996094 47.398438 C 114.894531 47.398438 114.777344 47.117188 114.777344 46.085938 L 114.777344 40.390625 C 114.777344 39.78125 114.660156 39.453125 113.863281 39.453125 L 113.089844 39.453125 C 112.386719 39.453125 112.152344 39.664062 112.152344 40.390625 L 112.152344 45.921875 C 112.152344 47.984375 113.277344 48.570312 115.292969 48.570312 C 115.808594 48.570312 117.191406 48.570312 118.105469 46.929688 L 118.105469 47.421875 C 118.105469 48.054688 118.246094 48.359375 119.042969 48.359375 L 119.769531 48.359375 C 120.496094 48.359375 120.683594 48.101562 120.683594 47.421875 Z M 120.683594 40.390625 "/>
<path fill-rule="nonzero" fill="rgb(0%, 0%, 0%)" fill-opacity="1" d="M 130.246094 44.210938 C 130.691406 44.210938 131.183594 44.1875 131.183594 43.296875 C 131.183594 40.8125 130.011719 39.125 127.128906 39.125 C 124.011719 39.125 122.488281 40.882812 122.488281 43.835938 C 122.488281 47.023438 124.316406 48.570312 127.386719 48.570312 C 128.113281 48.570312 129.214844 48.476562 130.503906 47.84375 C 130.925781 47.609375 131.066406 47.5625 131.066406 47.328125 C 131.066406 47.1875 131.019531 46.625 130.996094 46.484375 C 130.902344 45.875 130.902344 45.851562 130.714844 45.851562 C 130.644531 45.851562 130.597656 45.851562 130.386719 46.039062 C 129.238281 47.046875 128.066406 47.164062 127.457031 47.164062 C 125.253906 47.164062 125.019531 45.453125 124.972656 44.210938 Z M 124.996094 43.179688 C 125.042969 41.984375 125.441406 40.53125 127.128906 40.53125 C 128.675781 40.53125 128.980469 41.65625 129.027344 43.179688 Z M 124.996094 43.179688 "/>
<path fill-rule="nonzero" fill="rgb(0%, 0%, 0%)" fill-opacity="1" d="M 143.183594 46.34375 C 143.183594 45.828125 143.160156 45.804688 142.644531 45.804688 L 141.167969 45.804688 C 140.652344 45.804688 140.628906 45.828125 140.628906 46.34375 L 140.628906 47.84375 C 140.628906 48.335938 140.652344 48.359375 141.167969 48.359375 L 142.644531 48.359375 C 143.160156 48.359375 143.183594 48.335938 143.183594 47.84375 Z M 143.183594 46.34375 "/>
<path fill-rule="nonzero" fill="rgb(0%, 0%, 0%)" fill-opacity="1" d="M 149.117188 46.34375 C 149.117188 45.828125 149.09375 45.804688 148.578125 45.804688 L 147.101562 45.804688 C 146.585938 45.804688 146.5625 45.828125 146.5625 46.34375 L 146.5625 47.84375 C 146.5625 48.335938 146.585938 48.359375 147.101562 48.359375 L 148.578125 48.359375 C 149.09375 48.359375 149.117188 48.335938 149.117188 47.84375 Z M 149.117188 46.34375 "/>
<path fill-rule="nonzero" fill="rgb(0%, 0%, 0%)" fill-opacity="1" d="M 155.054688 46.34375 C 155.054688 45.828125 155.03125 45.804688 154.515625 45.804688 L 153.039062 45.804688 C 152.523438 45.804688 152.5 45.828125 152.5 46.34375 L 152.5 47.84375 C 152.5 48.335938 152.523438 48.359375 153.039062 48.359375 L 154.515625 48.359375 C 155.03125 48.359375 155.054688 48.335938 155.054688 47.84375 Z M 155.054688 46.34375 "/>
<path fill="none" stroke-width="1.99255" stroke-linecap="butt" stroke-linejoin="round" stroke="rgb(19.607843%, 19.607843%, 19.607843%)" stroke-opacity="1" stroke-miterlimit="10" d="M -115.038498 -23.026645 L 115.039627 -23.026645 L 115.039627 23.025438 L -115.038498 23.025438 Z M -115.038498 -23.026645 " transform="matrix(1.5, 0, 0, -1.5, 371.213997, 43.503001)"/>
<path fill-rule="nonzero" fill="rgb(0%, 0%, 0%)" fill-opacity="1" d="M 291.105469 42.3125 L 296.214844 42.3125 C 296.824219 42.3125 297.152344 42.171875 297.152344 41.398438 C 297.152344 40.695312 296.894531 40.484375 296.214844 40.484375 L 291.105469 40.484375 L 291.105469 36.898438 L 292.066406 36.898438 C 293.589844 36.898438 295.113281 36.945312 296.636719 36.945312 C 297.316406 36.945312 297.761719 36.945312 297.761719 36.03125 L 297.761719 35.867188 C 297.761719 35.234375 297.621094 34.929688 296.824219 34.929688 L 289.183594 34.929688 C 288.480469 34.929688 288.246094 35.140625 288.246094 35.867188 L 288.246094 47.421875 C 288.246094 48.125 288.480469 48.359375 289.183594 48.359375 L 297.105469 48.359375 C 297.855469 48.359375 298.042969 48.101562 298.042969 47.421875 L 298.042969 47.164062 C 298.042969 46.226562 297.597656 46.226562 296.964844 46.226562 C 295.957031 46.226562 294.949219 46.25 293.941406 46.25 C 293.472656 46.25 291.457031 46.273438 291.105469 46.296875 Z M 291.105469 42.3125 "/>
<path fill-rule="nonzero" fill="rgb(0%, 0%, 0%)" fill-opacity="1" d="M 308.65625 42.054688 C 308.65625 40.039062 307.8125 39.242188 305.820312 39.242188 C 303.78125 39.242188 302.914062 40.71875 302.65625 41.257812 L 302.65625 40.273438 C 302.65625 39.664062 302.515625 39.335938 301.71875 39.335938 L 301.0625 39.335938 C 300.359375 39.335938 300.125 39.546875 300.125 40.273438 L 300.125 47.421875 C 300.125 48.125 300.335938 48.359375 301.0625 48.359375 L 301.835938 48.359375 C 302.5625 48.359375 302.75 48.101562 302.75 47.421875 L 302.75 43.132812 C 302.75 41.445312 303.898438 40.648438 304.90625 40.648438 C 305.820312 40.648438 306.03125 41.09375 306.03125 42.078125 L 306.03125 47.421875 C 306.03125 48.054688 306.171875 48.359375 306.96875 48.359375 L 307.742188 48.359375 C 308.46875 48.359375 308.65625 48.101562 308.65625 47.421875 Z M 308.65625 42.054688 "/>
<path fill-rule="nonzero" fill="rgb(0%, 0%, 0%)" fill-opacity="1" d="M 314.097656 40.859375 L 315.832031 40.859375 C 316.042969 40.859375 316.746094 40.859375 316.746094 40.15625 C 316.746094 39.453125 316.042969 39.453125 315.832031 39.453125 L 314.097656 39.453125 L 314.097656 37.859375 C 314.097656 37.226562 313.957031 36.921875 313.160156 36.921875 L 312.550781 36.921875 C 311.847656 36.921875 311.613281 37.132812 311.613281 37.859375 L 311.613281 39.453125 L 311.167969 39.453125 C 310.957031 39.453125 310.253906 39.453125 310.253906 40.15625 C 310.253906 40.859375 310.933594 40.859375 311.167969 40.859375 L 311.566406 40.859375 L 311.566406 45.78125 C 311.566406 47.726562 312.269531 48.570312 313.605469 48.570312 C 313.769531 48.570312 314.636719 48.570312 315.644531 48.265625 C 315.972656 48.171875 317.097656 47.820312 317.097656 47.445312 C 317.097656 47.398438 317.074219 47.257812 316.957031 46.835938 C 316.839844 46.460938 316.816406 46.34375 316.628906 46.34375 C 316.535156 46.34375 316.511719 46.367188 316.394531 46.484375 C 316.183594 46.625 315.667969 47.046875 314.847656 47.046875 C 314.378906 47.046875 314.097656 46.71875 314.097656 45.453125 Z M 314.097656 40.859375 "/>
<path fill-rule="nonzero" fill="rgb(0%, 0%, 0%)" fill-opacity="1" d="M 327.761719 43.976562 C 327.761719 40.8125 326.214844 39.125 323.050781 39.125 C 319.816406 39.125 318.316406 40.859375 318.316406 43.976562 C 318.316406 47.164062 319.980469 48.570312 323.027344 48.570312 C 326.074219 48.570312 327.761719 47.164062 327.761719 43.976562 Z M 323.050781 47.046875 C 320.941406 47.046875 320.941406 45.3125 320.941406 43.765625 C 320.941406 42.265625 320.941406 40.53125 323.027344 40.53125 C 325.136719 40.53125 325.136719 42.242188 325.136719 43.765625 C 325.136719 45.289062 325.136719 47.046875 323.050781 47.046875 Z M 323.050781 47.046875 "/>
<path fill-rule="nonzero" fill="rgb(0%, 0%, 0%)" fill-opacity="1" d="M 338.097656 42.054688 C 338.097656 40.039062 337.253906 39.242188 335.261719 39.242188 C 333.222656 39.242188 332.355469 40.71875 332.097656 41.257812 L 332.097656 40.273438 C 332.097656 39.664062 331.957031 39.335938 331.160156 39.335938 L 330.503906 39.335938 C 329.800781 39.335938 329.566406 39.546875 329.566406 40.273438 L 329.566406 47.421875 C 329.566406 48.125 329.777344 48.359375 330.503906 48.359375 L 331.277344 48.359375 C 332.003906 48.359375 332.191406 48.101562 332.191406 47.421875 L 332.191406 43.132812 C 332.191406 41.445312 333.339844 40.648438 334.347656 40.648438 C 335.261719 40.648438 335.472656 41.09375 335.472656 42.078125 L 335.472656 47.421875 C 335.472656 48.054688 335.613281 48.359375 336.410156 48.359375 L 337.183594 48.359375 C 337.910156 48.359375 338.097656 48.101562 338.097656 47.421875 Z M 338.097656 42.054688 "/>
<path fill-rule="nonzero" fill="rgb(0%, 0%, 0%)" fill-opacity="1" d="M 348.175781 47.398438 C 348.175781 47.164062 348.105469 46.273438 348.058594 46.039062 C 348.058594 45.96875 348.011719 45.78125 347.824219 45.78125 C 347.753906 45.78125 347.707031 45.78125 347.519531 45.96875 C 347.191406 46.25 346.277344 47.046875 344.683594 47.046875 C 342.644531 47.046875 342.644531 45.101562 342.644531 43.859375 C 342.644531 42.289062 342.761719 40.648438 344.730469 40.648438 C 345.996094 40.648438 346.511719 40.953125 347.214844 41.539062 C 347.449219 41.75 347.496094 41.75 347.566406 41.75 C 347.753906 41.75 347.800781 41.585938 347.824219 41.492188 C 347.871094 41.351562 348.058594 40.25 348.058594 40.15625 C 348.058594 39.992188 347.917969 39.898438 347.589844 39.757812 C 346.652344 39.335938 346.066406 39.125 344.707031 39.125 C 341.824219 39.125 340.019531 40.484375 340.019531 43.882812 C 340.019531 47.117188 341.683594 48.570312 344.613281 48.570312 C 345.152344 48.570312 346.300781 48.546875 347.613281 47.890625 C 348.152344 47.609375 348.175781 47.585938 348.175781 47.398438 Z M 348.175781 47.398438 "/>
<path fill-rule="nonzero" fill="rgb(0%, 0%, 0%)" fill-opacity="1" d="M 357.160156 44.210938 C 357.605469 44.210938 358.097656 44.1875 358.097656 43.296875 C 358.097656 40.8125 356.925781 39.125 354.042969 39.125 C 350.925781 39.125 349.402344 40.882812 349.402344 43.835938 C 349.402344 47.023438 351.230469 48.570312 354.300781 48.570312 C 355.027344 48.570312 356.128906 48.476562 357.417969 47.84375 C 357.839844 47.609375 357.980469 47.5625 357.980469 47.328125 C 357.980469 47.1875 357.933594 46.625 357.910156 46.484375 C 357.816406 45.875 357.816406 45.851562 357.628906 45.851562 C 357.558594 45.851562 357.511719 45.851562 357.300781 46.039062 C 356.152344 47.046875 354.980469 47.164062 354.371094 47.164062 C 352.167969 47.164062 351.933594 45.453125 351.886719 44.210938 Z M 351.910156 43.179688 C 351.957031 41.984375 352.355469 40.53125 354.042969 40.53125 C 355.589844 40.53125 355.894531 41.65625 355.941406 43.179688 Z M 351.910156 43.179688 "/>
<path fill-rule="nonzero" fill="rgb(0%, 0%, 0%)" fill-opacity="1" d="M 366.40625 45.617188 C 366.40625 44.539062 365.820312 43.859375 365.46875 43.53125 C 364.695312 42.851562 364.015625 42.734375 363.195312 42.570312 C 362.140625 42.382812 361.367188 42.21875 361.367188 41.46875 C 361.367188 40.671875 362 40.507812 362.75 40.507812 C 364.0625 40.507812 364.765625 41 365.257812 41.421875 C 365.46875 41.609375 365.492188 41.609375 365.585938 41.609375 C 365.773438 41.609375 365.820312 41.445312 365.820312 41.375 C 365.867188 41.210938 366.054688 40.132812 366.054688 40.015625 C 366.054688 39.710938 365.023438 39.429688 364.8125 39.359375 C 364.039062 39.148438 363.429688 39.125 362.914062 39.125 C 362.046875 39.125 359.445312 39.125 359.445312 41.914062 C 359.445312 42.851562 359.867188 43.4375 360.382812 43.90625 C 361.0625 44.539062 361.835938 44.65625 362.9375 44.890625 C 363.5 44.984375 364.484375 45.148438 364.484375 46.015625 C 364.484375 46.929688 363.734375 47.046875 362.984375 47.046875 C 362.117188 47.046875 361.039062 46.8125 360.125 45.710938 C 360.03125 45.617188 359.960938 45.570312 359.84375 45.570312 C 359.65625 45.570312 359.609375 45.734375 359.585938 45.851562 C 359.5625 46.132812 359.328125 47.234375 359.328125 47.421875 C 359.328125 47.773438 360.757812 48.21875 360.78125 48.242188 C 361.835938 48.570312 362.632812 48.570312 362.984375 48.570312 C 363.96875 48.570312 366.40625 48.5 366.40625 45.617188 Z M 366.40625 45.617188 "/>
<path fill-rule="nonzero" fill="rgb(0%, 0%, 0%)" fill-opacity="1" d="M 381.730469 45.617188 C 381.730469 44.539062 381.144531 43.859375 380.792969 43.53125 C 380.019531 42.851562 379.339844 42.734375 378.519531 42.570312 C 377.464844 42.382812 376.691406 42.21875 376.691406 41.46875 C 376.691406 40.671875 377.324219 40.507812 378.074219 40.507812 C 379.386719 40.507812 380.089844 41 380.582031 41.421875 C 380.792969 41.609375 380.816406 41.609375 380.910156 41.609375 C 381.097656 41.609375 381.144531 41.445312 381.144531 41.375 C 381.191406 41.210938 381.378906 40.132812 381.378906 40.015625 C 381.378906 39.710938 380.347656 39.429688 380.136719 39.359375 C 379.363281 39.148438 378.753906 39.125 378.238281 39.125 C 377.371094 39.125 374.769531 39.125 374.769531 41.914062 C 374.769531 42.851562 375.191406 43.4375 375.707031 43.90625 C 376.386719 44.539062 377.160156 44.65625 378.261719 44.890625 C 378.824219 44.984375 379.808594 45.148438 379.808594 46.015625 C 379.808594 46.929688 379.058594 47.046875 378.308594 47.046875 C 377.441406 47.046875 376.363281 46.8125 375.449219 45.710938 C 375.355469 45.617188 375.285156 45.570312 375.167969 45.570312 C 374.980469 45.570312 374.933594 45.734375 374.910156 45.851562 C 374.886719 46.132812 374.652344 47.234375 374.652344 47.421875 C 374.652344 47.773438 376.082031 48.21875 376.105469 48.242188 C 377.160156 48.570312 377.957031 48.570312 378.308594 48.570312 C 379.292969 48.570312 381.730469 48.5 381.730469 45.617188 Z M 381.730469 45.617188 "/>
<path fill-rule="nonzero" fill="rgb(0%, 0%, 0%)" fill-opacity="1" d="M 390.519531 35.421875 C 390.613281 35.351562 390.730469 35.234375 390.730469 35.117188 C 390.730469 34.882812 390.519531 34.882812 390.191406 34.882812 L 388.597656 34.882812 C 388.222656 34.882812 388.199219 34.90625 388.035156 35.117188 L 386.347656 37.390625 C 386.183594 37.601562 386.183594 37.625 386.183594 37.671875 C 386.183594 37.929688 386.394531 37.929688 386.699219 37.929688 L 387.425781 37.929688 Z M 390.519531 35.421875 "/>
<path fill-rule="nonzero" fill="rgb(0%, 0%, 0%)" fill-opacity="1" d="M 390.601562 44.210938 C 391.046875 44.210938 391.539062 44.1875 391.539062 43.296875 C 391.539062 40.8125 390.367188 39.125 387.484375 39.125 C 384.367188 39.125 382.84375 40.882812 382.84375 43.835938 C 382.84375 47.023438 384.671875 48.570312 387.742188 48.570312 C 388.46875 48.570312 389.570312 48.476562 390.859375 47.84375 C 391.28125 47.609375 391.421875 47.5625 391.421875 47.328125 C 391.421875 47.1875 391.375 46.625 391.351562 46.484375 C 391.257812 45.875 391.257812 45.851562 391.070312 45.851562 C 391 45.851562 390.953125 45.851562 390.742188 46.039062 C 389.59375 47.046875 388.421875 47.164062 387.8125 47.164062 C 385.609375 47.164062 385.375 45.453125 385.328125 44.210938 Z M 385.351562 43.179688 C 385.398438 41.984375 385.796875 40.53125 387.484375 40.53125 C 389.03125 40.53125 389.335938 41.65625 389.382812 43.179688 Z M 385.351562 43.179688 "/>
<path fill-rule="nonzero" fill="rgb(0%, 0%, 0%)" fill-opacity="1" d="M 408.976562 40.179688 C 408.976562 39.546875 408.835938 39.242188 408.039062 39.242188 L 407.3125 39.242188 C 406.585938 39.242188 406.375 39.5 406.375 40.179688 L 406.375 40.554688 C 405.53125 39.242188 404.382812 39.242188 404.054688 39.242188 C 400.304688 39.242188 400 42.382812 400 43.929688 C 400 45.453125 400.304688 48.570312 403.914062 48.570312 C 404.945312 48.570312 405.671875 48.195312 406.328125 47.421875 L 406.328125 51.195312 C 406.328125 51.828125 406.46875 52.132812 407.265625 52.132812 L 408.039062 52.132812 C 408.765625 52.132812 408.976562 51.875 408.976562 51.195312 Z M 406.375 46.132812 C 406.023438 46.601562 405.507812 47.164062 404.617188 47.164062 C 402.625 47.164062 402.625 44.703125 402.625 43.953125 C 402.625 43.179688 402.625 40.765625 404.804688 40.765625 C 405.132812 40.765625 405.53125 40.835938 405.882812 41.210938 C 406.375 41.703125 406.375 42.054688 406.375 42.289062 Z M 406.375 46.132812 "/>
<path fill-rule="nonzero" fill="rgb(0%, 0%, 0%)" fill-opacity="1" d="M 419.878906 40.390625 C 419.878906 39.78125 419.761719 39.453125 418.964844 39.453125 L 418.191406 39.453125 C 417.441406 39.453125 417.253906 39.710938 417.253906 40.390625 L 417.253906 45.007812 C 417.253906 46.273438 416.574219 47.398438 415.191406 47.398438 C 414.089844 47.398438 413.972656 47.117188 413.972656 46.085938 L 413.972656 40.390625 C 413.972656 39.78125 413.855469 39.453125 413.058594 39.453125 L 412.285156 39.453125 C 411.582031 39.453125 411.347656 39.664062 411.347656 40.390625 L 411.347656 45.921875 C 411.347656 47.984375 412.472656 48.570312 414.488281 48.570312 C 415.003906 48.570312 416.386719 48.570312 417.300781 46.929688 L 417.300781 47.421875 C 417.300781 48.054688 417.441406 48.359375 418.238281 48.359375 L 418.964844 48.359375 C 419.691406 48.359375 419.878906 48.101562 419.878906 47.421875 Z M 419.878906 40.390625 "/>
<path fill-rule="nonzero" fill="rgb(0%, 0%, 0%)" fill-opacity="1" d="M 429.441406 44.210938 C 429.886719 44.210938 430.378906 44.1875 430.378906 43.296875 C 430.378906 40.8125 429.207031 39.125 426.324219 39.125 C 423.207031 39.125 421.683594 40.882812 421.683594 43.835938 C 421.683594 47.023438 423.511719 48.570312 426.582031 48.570312 C 427.308594 48.570312 428.410156 48.476562 429.699219 47.84375 C 430.121094 47.609375 430.261719 47.5625 430.261719 47.328125 C 430.261719 47.1875 430.214844 46.625 430.191406 46.484375 C 430.097656 45.875 430.097656 45.851562 429.910156 45.851562 C 429.839844 45.851562 429.792969 45.851562 429.582031 46.039062 C 428.433594 47.046875 427.261719 47.164062 426.652344 47.164062 C 424.449219 47.164062 424.214844 45.453125 424.167969 44.210938 Z M 424.191406 43.179688 C 424.238281 41.984375 424.636719 40.53125 426.324219 40.53125 C 427.871094 40.53125 428.175781 41.65625 428.222656 43.179688 Z M 424.191406 43.179688 "/>
<path fill-rule="nonzero" fill="rgb(0%, 0%, 0%)" fill-opacity="1" d="M 442.378906 46.34375 C 442.378906 45.828125 442.355469 45.804688 441.839844 45.804688 L 440.363281 45.804688 C 439.847656 45.804688 439.824219 45.828125 439.824219 46.34375 L 439.824219 47.84375 C 439.824219 48.335938 439.847656 48.359375 440.363281 48.359375 L 441.839844 48.359375 C 442.355469 48.359375 442.378906 48.335938 442.378906 47.84375 Z M 442.378906 46.34375 "/>
<path fill-rule="nonzero" fill="rgb(0%, 0%, 0%)" fill-opacity="1" d="M 448.3125 46.34375 C 448.3125 45.828125 448.289062 45.804688 447.773438 45.804688 L 446.296875 45.804688 C 445.78125 45.804688 445.757812 45.828125 445.757812 46.34375 L 445.757812 47.84375 C 445.757812 48.335938 445.78125 48.359375 446.296875 48.359375 L 447.773438 48.359375 C 448.289062 48.359375 448.3125 48.335938 448.3125 47.84375 Z M 448.3125 46.34375 "/>
<path fill-rule="nonzero" fill="rgb(0%, 0%, 0%)" fill-opacity="1" d="M 454.25 46.34375 C 454.25 45.828125 454.226562 45.804688 453.710938 45.804688 L 452.234375 45.804688 C 451.71875 45.804688 451.695312 45.828125 451.695312 46.34375 L 451.695312 47.84375 C 451.695312 48.335938 451.71875 48.359375 452.234375 48.359375 L 453.710938 48.359375 C 454.226562 48.359375 454.25 48.335938 454.25 47.84375 Z M 454.25 46.34375 "/>
<path fill="none" stroke-width="0.99628" stroke-linecap="butt" stroke-linejoin="round" stroke="rgb(19.607843%, 19.607843%, 19.607843%)" stroke-opacity="1" stroke-miterlimit="10" d="M -63.232437 -14.389687 L 63.231105 -14.389687 L 63.231105 14.391563 L -63.232437 14.391563 Z M -63.232437 -14.389687 " transform="matrix(1.5, 0, 0, -1.5, 103.813499, 100.372501)"/>
<path fill="none" stroke-width="0.99628" stroke-linecap="butt" stroke-linejoin="round" stroke="rgb(19.607843%, 19.607843%, 19.607843%)" stroke-opacity="1" stroke-miterlimit="10" d="M -115.038498 -14.389687 L 115.039627 -14.389687 L 115.039627 14.391563 L -115.038498 14.391563 Z M -115.038498 -14.389687 " transform="matrix(1.5, 0, 0, -1.5, 371.213997, 100.372501)"/>
<path fill="none" stroke-width="0.99628" stroke-linecap="butt" stroke-linejoin="round" stroke="rgb(19.607843%, 19.607843%, 19.607843%)" stroke-opacity="1" stroke-miterlimit="10" d="M -63.232437 -14.389938 L 63.231105 -14.389938 L 63.231105 14.391312 L -63.232437 14.391312 Z M -63.232437 -14.389938 " transform="matrix(1.5, 0, 0, -1.5, 103.813499, 143.543999)"/>
<path fill="none" stroke-width="0.99628" stroke-linecap="butt" stroke-linejoin="round" stroke="rgb(19.607843%, 19.607843%, 19.607843%)" stroke-opacity="1" stroke-miterlimit="10" d="M -115.038498 -14.389938 L 115.039627 -14.389938 L 115.039627 14.391312 L -115.038498 14.391312 Z M -115.038498 -14.389938 " transform="matrix(1.5, 0, 0, -1.5, 371.213997, 143.543999)"/>
<path fill="none" stroke-width="0.99628" stroke-linecap="butt" stroke-linejoin="round" stroke="rgb(19.607843%, 19.607843%, 19.607843%)" stroke-opacity="1" stroke-miterlimit="10" d="M -63.232437 -14.39019 L 63.231105 -14.39019 L 63.231105 14.39106 L -63.232437 14.39106 Z M -63.232437 -14.39019 " transform="matrix(1.5, 0, 0, -1.5, 103.813499, 186.715496)"/>
<path fill="none" stroke-width="0.99628" stroke-linecap="butt" stroke-linejoin="round" stroke="rgb(19.607843%, 19.607843%, 19.607843%)" stroke-opacity="1" stroke-miterlimit="10" d="M -115.038498 -14.39019 L 115.039627 -14.39019 L 115.039627 14.39106 L -115.038498 14.39106 Z M -115.038498 -14.39019 " transform="matrix(1.5, 0, 0, -1.5, 371.213997, 186.715496)"/>
<path fill="none" stroke-width="0.99628" stroke-linecap="butt" stroke-linejoin="round" stroke="rgb(19.607843%, 19.607843%, 19.607843%)" stroke-opacity="1" stroke-miterlimit="10" d="M -63.232437 -14.390442 L 63.231105 -14.390442 L 63.231105 14.390808 L -63.232437 14.390808 Z M -63.232437 -14.390442 " transform="matrix(1.5, 0, 0, -1.5, 103.813499, 229.886993)"/>
<path fill="none" stroke-width="0.99628" stroke-linecap="butt" stroke-linejoin="round" stroke="rgb(19.607843%, 19.607843%, 19.607843%)" stroke-opacity="1" stroke-miterlimit="10" d="M -115.038498 -14.390442 L 115.039627 -14.390442 L 115.039627 14.390808 L -115.038498 14.390808 Z M -115.038498 -14.390442 " transform="matrix(1.5, 0, 0, -1.5, 371.213997, 229.886993)"/>
<path fill="none" stroke-width="0.99628" stroke-linecap="butt" stroke-linejoin="round" stroke="rgb(19.607843%, 19.607843%, 19.607843%)" stroke-opacity="1" stroke-miterlimit="10" d="M -63.232437 -14.390686 L 63.231105 -14.390686 L 63.231105 14.390564 L -63.232437 14.390564 Z M -63.232437 -14.390686 " transform="matrix(1.5, 0, 0, -1.5, 103.813499, 273.058502)"/>
<path fill="none" stroke-width="0.99628" stroke-linecap="butt" stroke-linejoin="round" stroke="rgb(19.607843%, 19.607843%, 19.607843%)" stroke-opacity="1" stroke-miterlimit="10" d="M -115.038498 -14.390686 L 115.039627 -14.390686 L 115.039627 14.390564 L -115.038498 14.390564 Z M -115.038498 -14.390686 " transform="matrix(1.5, 0, 0, -1.5, 371.213997, 273.058502)"/>
</svg>
