<?xml version="1.0" encoding="UTF-8"?>
<svg xmlns="http://www.w3.org/2000/svg" xmlns:xlink="http://www.w3.org/1999/xlink" width="157.96pt" height="82.361pt" viewBox="0 0 157.96 82.361" version="1.1">
<defs>
<clipPath id="clip1">
  <path d="M 0 0 L 83 0 L 83 82.359375 L 0 82.359375 Z M 0 0 "/>
</clipPath>
<clipPath id="clip2">
  <path d="M 75 0 L 157.960938 0 L 157.960938 82.359375 L 75 82.359375 Z M 75 0 "/>
</clipPath>
</defs>
<g id="surface1">
<path style="fill-rule:nonzero;fill:rgb(30.000305%,77.487183%,95.610046%);fill-opacity:1;stroke-width:0.3985;stroke-linecap:butt;stroke-linejoin:miter;stroke:rgb(0%,0%,0%);stroke-opacity:1;stroke-miterlimit:10;" d="M -7.19875 21.601875 C -7.19875 26.570625 -11.23 30.601875 -16.19875 30.601875 C -21.171406 30.601875 -25.19875 26.570625 -25.19875 21.601875 C -25.19875 16.629219 -21.171406 12.601875 -16.19875 12.601875 C -11.23 12.601875 -7.19875 16.629219 -7.19875 21.601875 Z M -7.19875 21.601875 " transform="matrix(1,0,0,-1,78.98,41.18)"/>
<path style="fill-rule:nonzero;fill:rgb(30.000305%,77.487183%,95.610046%);fill-opacity:1;stroke-width:0.3985;stroke-linecap:butt;stroke-linejoin:miter;stroke:rgb(0%,0%,0%);stroke-opacity:1;stroke-miterlimit:10;" d="M -28.800313 0.0003125 C -28.800313 4.969063 -32.827656 9.000313 -37.800313 9.000313 C -42.769063 9.000313 -46.800313 4.969063 -46.800313 0.0003125 C -46.800313 -4.972344 -42.769063 -8.999687 -37.800313 -8.999687 C -32.827656 -8.999687 -28.800313 -4.972344 -28.800313 0.0003125 Z M -28.800313 0.0003125 " transform="matrix(1,0,0,-1,78.98,41.18)"/>
<path style="fill-rule:nonzero;fill:rgb(30.000305%,77.487183%,95.610046%);fill-opacity:1;stroke-width:0.3985;stroke-linecap:butt;stroke-linejoin:miter;stroke:rgb(0%,0%,0%);stroke-opacity:1;stroke-miterlimit:10;" d="M -50.401875 -21.60125 C -50.401875 -16.628594 -54.429219 -12.60125 -59.401875 -12.60125 C -64.370625 -12.60125 -68.401875 -16.628594 -68.401875 -21.60125 C -68.401875 -26.57 -64.370625 -30.60125 -59.401875 -30.60125 C -54.429219 -30.60125 -50.401875 -26.57 -50.401875 -21.60125 Z M -50.401875 -21.60125 " transform="matrix(1,0,0,-1,78.98,41.18)"/>
<g clip-path="url(#clip1)" clip-rule="nonzero">
<path style="fill:none;stroke-width:0.3985;stroke-linecap:butt;stroke-linejoin:miter;stroke:rgb(0%,0%,0%);stroke-opacity:1;stroke-miterlimit:10;" d="M -73.800313 -24.046562 L -73.800313 24.043281 C -73.800313 30.64875 -68.44875 36.000313 -61.843281 36.000313 L -13.753438 36.000313 C -7.151875 36.000313 -1.800313 30.64875 -1.800313 24.043281 L -1.800313 -24.046562 C -1.800313 -30.648125 -7.151875 -35.999687 -13.753438 -35.999687 L -61.843281 -35.999687 C -68.44875 -35.999687 -73.800313 -30.648125 -73.800313 -24.046562 Z M -73.800313 -24.046562 " transform="matrix(1,0,0,-1,78.98,41.18)"/>
</g>
<path style="fill-rule:nonzero;fill:rgb(30.000305%,77.487183%,95.610046%);fill-opacity:1;stroke-width:0.3985;stroke-linecap:butt;stroke-linejoin:miter;stroke:rgb(0%,0%,0%);stroke-opacity:1;stroke-miterlimit:10;" d="M 68.398906 21.601875 C 68.398906 26.570625 64.371562 30.601875 59.398906 30.601875 C 54.430156 30.601875 50.398906 26.570625 50.398906 21.601875 C 50.398906 16.629219 54.430156 12.601875 59.398906 12.601875 C 64.371562 12.601875 68.398906 16.629219 68.398906 21.601875 Z M 68.398906 21.601875 " transform="matrix(1,0,0,-1,78.98,41.18)"/>
<path style="fill-rule:nonzero;fill:rgb(30.000305%,77.487183%,95.610046%);fill-opacity:1;stroke-width:0.3985;stroke-linecap:butt;stroke-linejoin:miter;stroke:rgb(0%,0%,0%);stroke-opacity:1;stroke-miterlimit:10;" d="M 46.80125 0.0003125 C 46.80125 4.969063 42.77 9.000313 37.80125 9.000313 C 32.828594 9.000313 28.80125 4.969063 28.80125 0.0003125 C 28.80125 -4.972344 32.828594 -8.999687 37.80125 -8.999687 C 42.77 -8.999687 46.80125 -4.972344 46.80125 0.0003125 Z M 46.80125 0.0003125 " transform="matrix(1,0,0,-1,78.98,41.18)"/>
<path style="fill-rule:nonzero;fill:rgb(30.000305%,77.487183%,95.610046%);fill-opacity:1;stroke-width:0.3985;stroke-linecap:butt;stroke-linejoin:miter;stroke:rgb(0%,0%,0%);stroke-opacity:1;stroke-miterlimit:10;" d="M 25.199687 -21.60125 C 25.199687 -16.628594 21.168437 -12.60125 16.199687 -12.60125 C 11.227031 -12.60125 7.199687 -16.628594 7.199687 -21.60125 C 7.199687 -26.57 11.227031 -30.60125 16.199687 -30.60125 C 21.168437 -30.60125 25.199687 -26.57 25.199687 -21.60125 Z M 25.199687 -21.60125 " transform="matrix(1,0,0,-1,78.98,41.18)"/>
<g clip-path="url(#clip2)" clip-rule="nonzero">
<path style="fill:none;stroke-width:0.3985;stroke-linecap:butt;stroke-linejoin:miter;stroke:rgb(0%,0%,0%);stroke-opacity:1;stroke-miterlimit:10;" d="M 1.80125 -24.046562 L 1.80125 24.043281 C 1.80125 30.64875 7.152812 36.000313 13.754375 36.000313 L 61.844219 36.000313 C 68.449687 36.000313 73.80125 30.64875 73.80125 24.043281 L 73.80125 -24.046562 C 73.80125 -30.648125 68.449687 -35.999687 61.844219 -35.999687 L 13.754375 -35.999687 C 7.152812 -35.999687 1.80125 -30.648125 1.80125 -24.046562 Z M 1.80125 -24.046562 " transform="matrix(1,0,0,-1,78.98,41.18)"/>
</g>
</g>
</svg>
