<?xml version="1.0" encoding="UTF-8"?>
<svg xmlns="http://www.w3.org/2000/svg" xmlns:xlink="http://www.w3.org/1999/xlink" width="240.762pt" height="161.562pt" viewBox="0 0 240.762 161.562" version="1.1">
<defs>
<clipPath id="clip1">
  <path d="M 157 0 L 240.761719 0 L 240.761719 83 L 157 83 Z M 157 0 "/>
</clipPath>
<clipPath id="clip2">
  <path d="M 0 78 L 83 78 L 83 161.5625 L 0 161.5625 Z M 0 78 "/>
</clipPath>
<clipPath id="clip3">
  <path d="M 78 78 L 163 78 L 163 161.5625 L 78 161.5625 Z M 78 78 "/>
</clipPath>
<clipPath id="clip4">
  <path d="M 157 78 L 240.761719 78 L 240.761719 161.5625 L 157 161.5625 Z M 157 78 "/>
</clipPath>
</defs>
<g id="surface1">
<path style="fill-rule:nonzero;fill:rgb(30.000305%,77.487183%,95.610046%);fill-opacity:1;stroke-width:0.3985;stroke-linecap:butt;stroke-linejoin:miter;stroke:rgb(0%,0%,0%);stroke-opacity:1;stroke-miterlimit:10;" d="M -48.59975 21.598969 C -48.59975 26.571625 -52.631 30.598969 -57.59975 30.598969 C -62.572406 30.598969 -66.59975 26.571625 -66.59975 21.598969 C -66.59975 16.630219 -62.572406 12.598969 -57.59975 12.598969 C -52.631 12.598969 -48.59975 16.630219 -48.59975 21.598969 Z M -48.59975 21.598969 " transform="matrix(1,0,0,-1,120.381,41.181)"/>
<path style="fill-rule:nonzero;fill:rgb(30.000305%,77.487183%,95.610046%);fill-opacity:1;stroke-width:0.3985;stroke-linecap:butt;stroke-linejoin:miter;stroke:rgb(0%,0%,0%);stroke-opacity:1;stroke-miterlimit:10;" d="M -70.201313 0.0013125 C -70.201313 4.970063 -74.232563 9.001313 -79.201313 9.001313 C -84.173969 9.001313 -88.201313 4.970063 -88.201313 0.0013125 C -88.201313 -4.971344 -84.173969 -8.998687 -79.201313 -8.998687 C -74.232563 -8.998687 -70.201313 -4.971344 -70.201313 0.0013125 Z M -70.201313 0.0013125 " transform="matrix(1,0,0,-1,120.381,41.181)"/>
<path style="fill-rule:nonzero;fill:rgb(30.000305%,77.487183%,95.610046%);fill-opacity:1;stroke-width:0.3985;stroke-linecap:butt;stroke-linejoin:miter;stroke:rgb(0%,0%,0%);stroke-opacity:1;stroke-miterlimit:10;" d="M -91.802875 -21.60025 C -91.802875 -16.6315 -95.830219 -12.60025 -100.802875 -12.60025 C -105.771625 -12.60025 -109.802875 -16.6315 -109.802875 -21.60025 C -109.802875 -26.572906 -105.771625 -30.60025 -100.802875 -30.60025 C -95.830219 -30.60025 -91.802875 -26.572906 -91.802875 -21.60025 Z M -91.802875 -21.60025 " transform="matrix(1,0,0,-1,120.381,41.181)"/>
<path style="fill:none;stroke-width:0.3985;stroke-linecap:butt;stroke-linejoin:miter;stroke:rgb(0%,0%,0%);stroke-opacity:1;stroke-miterlimit:10;" d="M -115.201313 -24.045562 L -115.201313 24.044281 C -115.201313 30.64975 -109.84975 36.001313 -103.248188 36.001313 L -55.154438 36.001313 C -48.552875 36.001313 -43.201313 30.64975 -43.201313 24.044281 L -43.201313 -24.045562 C -43.201313 -30.647125 -48.552875 -35.998687 -55.154438 -35.998687 L -103.248188 -35.998687 C -109.84975 -35.998687 -115.201313 -30.647125 -115.201313 -24.045562 Z M -115.201313 -24.045562 " transform="matrix(1,0,0,-1,120.381,41.181)"/>
<path style="fill-rule:nonzero;fill:rgb(30.000305%,77.487183%,95.610046%);fill-opacity:1;stroke-width:0.3985;stroke-linecap:butt;stroke-linejoin:miter;stroke:rgb(0%,0%,0%);stroke-opacity:1;stroke-miterlimit:10;" d="M 30.599469 21.598969 C 30.599469 26.571625 26.572125 30.598969 21.599469 30.598969 C 16.630719 30.598969 12.599469 26.571625 12.599469 21.598969 C 12.599469 16.630219 16.630719 12.598969 21.599469 12.598969 C 26.572125 12.598969 30.599469 16.630219 30.599469 21.598969 Z M 30.599469 21.598969 " transform="matrix(1,0,0,-1,120.381,41.181)"/>
<path style="fill-rule:nonzero;fill:rgb(30.000305%,77.487183%,95.610046%);fill-opacity:1;stroke-width:0.3985;stroke-linecap:butt;stroke-linejoin:miter;stroke:rgb(0%,0%,0%);stroke-opacity:1;stroke-miterlimit:10;" d="M 9.001812 0.0013125 C 9.001812 4.970063 4.970562 9.001313 0.0018125 9.001313 C -4.970844 9.001313 -8.998188 4.970063 -8.998188 0.0013125 C -8.998188 -4.971344 -4.970844 -8.998687 0.0018125 -8.998687 C 4.970562 -8.998687 9.001812 -4.971344 9.001812 0.0013125 Z M 9.001812 0.0013125 " transform="matrix(1,0,0,-1,120.381,41.181)"/>
<path style="fill-rule:nonzero;fill:rgb(30.000305%,77.487183%,95.610046%);fill-opacity:1;stroke-width:0.3985;stroke-linecap:butt;stroke-linejoin:miter;stroke:rgb(0%,0%,0%);stroke-opacity:1;stroke-miterlimit:10;" d="M -12.59975 -21.60025 C -12.59975 -16.6315 -16.631 -12.60025 -21.59975 -12.60025 C -26.572406 -12.60025 -30.59975 -16.6315 -30.59975 -21.60025 C -30.59975 -26.572906 -26.572406 -30.60025 -21.59975 -30.60025 C -16.631 -30.60025 -12.59975 -26.572906 -12.59975 -21.60025 Z M -12.59975 -21.60025 " transform="matrix(1,0,0,-1,120.381,41.181)"/>
<path style="fill:none;stroke-width:0.3985;stroke-linecap:butt;stroke-linejoin:miter;stroke:rgb(0%,0%,0%);stroke-opacity:1;stroke-miterlimit:10;" d="M -36.002094 -24.045562 L -36.002094 24.044281 C -36.002094 30.64975 -30.646625 36.001313 -24.045063 36.001313 L 24.044781 36.001313 C 30.646344 36.001313 36.001812 30.64975 36.001812 24.044281 L 36.001812 -24.045562 C 36.001812 -30.647125 30.646344 -35.998687 24.044781 -35.998687 L -24.045063 -35.998687 C -30.646625 -35.998687 -36.002094 -30.647125 -36.002094 -24.045562 Z M -36.002094 -24.045562 " transform="matrix(1,0,0,-1,120.381,41.181)"/>
<path style="fill-rule:nonzero;fill:rgb(30.000305%,77.487183%,95.610046%);fill-opacity:1;stroke-width:0.3985;stroke-linecap:butt;stroke-linejoin:miter;stroke:rgb(0%,0%,0%);stroke-opacity:1;stroke-miterlimit:10;" d="M 109.802594 21.598969 C 109.802594 26.571625 105.771344 30.598969 100.802594 30.598969 C 95.829937 30.598969 91.802594 26.571625 91.802594 21.598969 C 91.802594 16.630219 95.829937 12.598969 100.802594 12.598969 C 105.771344 12.598969 109.802594 16.630219 109.802594 21.598969 Z M 109.802594 21.598969 " transform="matrix(1,0,0,-1,120.381,41.181)"/>
<path style="fill-rule:nonzero;fill:rgb(30.000305%,77.487183%,95.610046%);fill-opacity:1;stroke-width:0.3985;stroke-linecap:butt;stroke-linejoin:miter;stroke:rgb(0%,0%,0%);stroke-opacity:1;stroke-miterlimit:10;" d="M 88.201031 0.0013125 C 88.201031 4.970063 84.173687 9.001313 79.201031 9.001313 C 74.232281 9.001313 70.201031 4.970063 70.201031 0.0013125 C 70.201031 -4.971344 74.232281 -8.998687 79.201031 -8.998687 C 84.173687 -8.998687 88.201031 -4.971344 88.201031 0.0013125 Z M 88.201031 0.0013125 " transform="matrix(1,0,0,-1,120.381,41.181)"/>
<path style="fill-rule:nonzero;fill:rgb(30.000305%,77.487183%,95.610046%);fill-opacity:1;stroke-width:0.3985;stroke-linecap:butt;stroke-linejoin:miter;stroke:rgb(0%,0%,0%);stroke-opacity:1;stroke-miterlimit:10;" d="M 66.599469 -21.60025 C 66.599469 -16.6315 62.572125 -12.60025 57.599469 -12.60025 C 52.630719 -12.60025 48.599469 -16.6315 48.599469 -21.60025 C 48.599469 -26.572906 52.630719 -30.60025 57.599469 -30.60025 C 62.572125 -30.60025 66.599469 -26.572906 66.599469 -21.60025 Z M 66.599469 -21.60025 " transform="matrix(1,0,0,-1,120.381,41.181)"/>
<g clip-path="url(#clip1)" clip-rule="nonzero">
<path style="fill:none;stroke-width:0.3985;stroke-linecap:butt;stroke-linejoin:miter;stroke:rgb(0%,0%,0%);stroke-opacity:1;stroke-miterlimit:10;" d="M 43.201031 -24.045562 L 43.201031 24.044281 C 43.201031 30.64975 48.552594 36.001313 55.158062 36.001313 L 103.247906 36.001313 C 109.849469 36.001313 115.201031 30.64975 115.201031 24.044281 L 115.201031 -24.045562 C 115.201031 -30.647125 109.849469 -35.998687 103.247906 -35.998687 L 55.158062 -35.998687 C 48.552594 -35.998687 43.201031 -30.647125 43.201031 -24.045562 Z M 43.201031 -24.045562 " transform="matrix(1,0,0,-1,120.381,41.181)"/>
</g>
<path style="fill-rule:nonzero;fill:rgb(30.000305%,77.487183%,95.610046%);fill-opacity:1;stroke-width:0.3985;stroke-linecap:butt;stroke-linejoin:miter;stroke:rgb(0%,0%,0%);stroke-opacity:1;stroke-miterlimit:10;" d="M -48.59975 -57.60025 C -48.59975 -52.6315 -52.631 -48.60025 -57.59975 -48.60025 C -62.572406 -48.60025 -66.59975 -52.6315 -66.59975 -57.60025 C -66.59975 -62.572906 -62.572406 -66.60025 -57.59975 -66.60025 C -52.631 -66.60025 -48.59975 -62.572906 -48.59975 -57.60025 Z M -48.59975 -57.60025 " transform="matrix(1,0,0,-1,120.381,41.181)"/>
<path style="fill-rule:nonzero;fill:rgb(30.000305%,77.487183%,95.610046%);fill-opacity:1;stroke-width:0.3985;stroke-linecap:butt;stroke-linejoin:miter;stroke:rgb(0%,0%,0%);stroke-opacity:1;stroke-miterlimit:10;" d="M -70.201313 -79.201812 C -70.201313 -74.229156 -74.232563 -70.201812 -79.201313 -70.201812 C -84.173969 -70.201812 -88.201313 -74.229156 -88.201313 -79.201812 C -88.201313 -84.170562 -84.173969 -88.201812 -79.201313 -88.201812 C -74.232563 -88.201812 -70.201313 -84.170562 -70.201313 -79.201812 Z M -70.201313 -79.201812 " transform="matrix(1,0,0,-1,120.381,41.181)"/>
<path style="fill-rule:nonzero;fill:rgb(30.000305%,77.487183%,95.610046%);fill-opacity:1;stroke-width:0.3985;stroke-linecap:butt;stroke-linejoin:miter;stroke:rgb(0%,0%,0%);stroke-opacity:1;stroke-miterlimit:10;" d="M -91.802875 -100.803375 C -91.802875 -95.830719 -95.830219 -91.803375 -100.802875 -91.803375 C -105.771625 -91.803375 -109.802875 -95.830719 -109.802875 -100.803375 C -109.802875 -105.772125 -105.771625 -109.803375 -100.802875 -109.803375 C -95.830219 -109.803375 -91.802875 -105.772125 -91.802875 -100.803375 Z M -91.802875 -100.803375 " transform="matrix(1,0,0,-1,120.381,41.181)"/>
<g clip-path="url(#clip2)" clip-rule="nonzero">
<path style="fill:none;stroke-width:0.3985;stroke-linecap:butt;stroke-linejoin:miter;stroke:rgb(0%,0%,0%);stroke-opacity:1;stroke-miterlimit:10;" d="M -115.201313 -103.244781 L -115.201313 -55.154937 C -115.201313 -48.553375 -109.84975 -43.201812 -103.248188 -43.201812 L -55.154438 -43.201812 C -48.552875 -43.201812 -43.201313 -48.553375 -43.201313 -55.154937 L -43.201313 -103.244781 C -43.201313 -109.85025 -48.552875 -115.201812 -55.154438 -115.201812 L -103.248188 -115.201812 C -109.84975 -115.201812 -115.201313 -109.85025 -115.201313 -103.244781 Z M -115.201313 -103.244781 " transform="matrix(1,0,0,-1,120.381,41.181)"/>
</g>
<path style="fill-rule:nonzero;fill:rgb(30.000305%,77.487183%,95.610046%);fill-opacity:1;stroke-width:0.3985;stroke-linecap:butt;stroke-linejoin:miter;stroke:rgb(0%,0%,0%);stroke-opacity:1;stroke-miterlimit:10;" d="M 30.599469 -57.60025 C 30.599469 -52.6315 26.572125 -48.60025 21.599469 -48.60025 C 16.630719 -48.60025 12.599469 -52.6315 12.599469 -57.60025 C 12.599469 -62.572906 16.630719 -66.60025 21.599469 -66.60025 C 26.572125 -66.60025 30.599469 -62.572906 30.599469 -57.60025 Z M 30.599469 -57.60025 " transform="matrix(1,0,0,-1,120.381,41.181)"/>
<path style="fill-rule:nonzero;fill:rgb(30.000305%,77.487183%,95.610046%);fill-opacity:1;stroke-width:0.3985;stroke-linecap:butt;stroke-linejoin:miter;stroke:rgb(0%,0%,0%);stroke-opacity:1;stroke-miterlimit:10;" d="M 9.001812 -79.201812 C 9.001812 -74.229156 4.970562 -70.201812 0.0018125 -70.201812 C -4.970844 -70.201812 -8.998188 -74.229156 -8.998188 -79.201812 C -8.998188 -84.170562 -4.970844 -88.201812 0.0018125 -88.201812 C 4.970562 -88.201812 9.001812 -84.170562 9.001812 -79.201812 Z M 9.001812 -79.201812 " transform="matrix(1,0,0,-1,120.381,41.181)"/>
<path style="fill-rule:nonzero;fill:rgb(30.000305%,77.487183%,95.610046%);fill-opacity:1;stroke-width:0.3985;stroke-linecap:butt;stroke-linejoin:miter;stroke:rgb(0%,0%,0%);stroke-opacity:1;stroke-miterlimit:10;" d="M -12.59975 -100.803375 C -12.59975 -95.830719 -16.631 -91.803375 -21.59975 -91.803375 C -26.572406 -91.803375 -30.59975 -95.830719 -30.59975 -100.803375 C -30.59975 -105.772125 -26.572406 -109.803375 -21.59975 -109.803375 C -16.631 -109.803375 -12.59975 -105.772125 -12.59975 -100.803375 Z M -12.59975 -100.803375 " transform="matrix(1,0,0,-1,120.381,41.181)"/>
<g clip-path="url(#clip3)" clip-rule="nonzero">
<path style="fill:none;stroke-width:0.3985;stroke-linecap:butt;stroke-linejoin:miter;stroke:rgb(0%,0%,0%);stroke-opacity:1;stroke-miterlimit:10;" d="M -36.002094 -103.244781 L -36.002094 -55.154937 C -36.002094 -48.553375 -30.646625 -43.201812 -24.045063 -43.201812 L 24.044781 -43.201812 C 30.646344 -43.201812 36.001812 -48.553375 36.001812 -55.154937 L 36.001812 -103.244781 C 36.001812 -109.85025 30.646344 -115.201812 24.044781 -115.201812 L -24.045063 -115.201812 C -30.646625 -115.201812 -36.002094 -109.85025 -36.002094 -103.244781 Z M -36.002094 -103.244781 " transform="matrix(1,0,0,-1,120.381,41.181)"/>
</g>
<path style="fill-rule:nonzero;fill:rgb(30.000305%,77.487183%,95.610046%);fill-opacity:1;stroke-width:0.3985;stroke-linecap:butt;stroke-linejoin:miter;stroke:rgb(0%,0%,0%);stroke-opacity:1;stroke-miterlimit:10;" d="M 109.802594 -57.60025 C 109.802594 -52.6315 105.771344 -48.60025 100.802594 -48.60025 C 95.829937 -48.60025 91.802594 -52.6315 91.802594 -57.60025 C 91.802594 -62.572906 95.829937 -66.60025 100.802594 -66.60025 C 105.771344 -66.60025 109.802594 -62.572906 109.802594 -57.60025 Z M 109.802594 -57.60025 " transform="matrix(1,0,0,-1,120.381,41.181)"/>
<path style="fill-rule:nonzero;fill:rgb(30.000305%,77.487183%,95.610046%);fill-opacity:1;stroke-width:0.3985;stroke-linecap:butt;stroke-linejoin:miter;stroke:rgb(0%,0%,0%);stroke-opacity:1;stroke-miterlimit:10;" d="M 88.201031 -79.201812 C 88.201031 -74.229156 84.173687 -70.201812 79.201031 -70.201812 C 74.232281 -70.201812 70.201031 -74.229156 70.201031 -79.201812 C 70.201031 -84.170562 74.232281 -88.201812 79.201031 -88.201812 C 84.173687 -88.201812 88.201031 -84.170562 88.201031 -79.201812 Z M 88.201031 -79.201812 " transform="matrix(1,0,0,-1,120.381,41.181)"/>
<path style="fill-rule:nonzero;fill:rgb(30.000305%,77.487183%,95.610046%);fill-opacity:1;stroke-width:0.3985;stroke-linecap:butt;stroke-linejoin:miter;stroke:rgb(0%,0%,0%);stroke-opacity:1;stroke-miterlimit:10;" d="M 66.599469 -100.803375 C 66.599469 -95.830719 62.572125 -91.803375 57.599469 -91.803375 C 52.630719 -91.803375 48.599469 -95.830719 48.599469 -100.803375 C 48.599469 -105.772125 52.630719 -109.803375 57.599469 -109.803375 C 62.572125 -109.803375 66.599469 -105.772125 66.599469 -100.803375 Z M 66.599469 -100.803375 " transform="matrix(1,0,0,-1,120.381,41.181)"/>
<g clip-path="url(#clip4)" clip-rule="nonzero">
<path style="fill:none;stroke-width:0.3985;stroke-linecap:butt;stroke-linejoin:miter;stroke:rgb(0%,0%,0%);stroke-opacity:1;stroke-miterlimit:10;" d="M 43.201031 -103.244781 L 43.201031 -55.154937 C 43.201031 -48.553375 48.552594 -43.201812 55.158062 -43.201812 L 103.247906 -43.201812 C 109.849469 -43.201812 115.201031 -48.553375 115.201031 -55.154937 L 115.201031 -103.244781 C 115.201031 -109.85025 109.849469 -115.201812 103.247906 -115.201812 L 55.158062 -115.201812 C 48.552594 -115.201812 43.201031 -109.85025 43.201031 -103.244781 Z M 43.201031 -103.244781 " transform="matrix(1,0,0,-1,120.381,41.181)"/>
</g>
</g>
</svg>
