<?xml version="1.0" encoding="UTF-8"?>
<svg xmlns="http://www.w3.org/2000/svg" xmlns:xlink="http://www.w3.org/1999/xlink" width="579.462021" height="116.098503" viewBox="0 0 579.462021 116.098503">
<path fill="none" stroke-width="0.74721" stroke-linecap="butt" stroke-linejoin="round" stroke="rgb(0%, 0%, 0%)" stroke-opacity="1" stroke-miterlimit="10" d="M -0.00054423 -0.00239499 L 285.486435 -0.00239499 " transform="matrix(1.5, 0, 0, -1.5, 142.743004, 31.117501)"/>
<path fill-rule="nonzero" fill="rgb(0%, 0%, 0%)" fill-opacity="1" d="M 574.746094 31.121094 L 568.710938 28.101562 L 570.972656 31.121094 L 568.710938 34.136719 "/>
<path fill-rule="nonzero" fill="rgb(0%, 0%, 0%)" fill-opacity="1" d="M 9.21875 31.4375 L 9.21875 31.554688 C 9.21875 32.890625 9.546875 33.96875 10.179688 34.789062 C 10.8125 35.609375 11.632812 36.03125 12.640625 36.03125 C 13.695312 36.03125 14.539062 35.65625 15.125 34.929688 L 15.195312 35.867188 L 16.554688 35.867188 L 16.554688 23.539062 L 15.078125 23.539062 L 15.078125 28.0625 C 14.492188 27.382812 13.671875 27.03125 12.664062 27.03125 C 11.632812 27.03125 10.8125 27.429688 10.179688 28.25 C 9.546875 29.046875 9.21875 30.125 9.21875 31.4375 Z M 10.71875 31.625 C 10.71875 30.523438 10.90625 29.679688 11.328125 29.140625 C 11.726562 28.578125 12.289062 28.296875 13.015625 28.296875 C 13.929688 28.296875 14.609375 28.695312 15.078125 29.515625 L 15.078125 33.5 C 14.632812 34.367188 13.929688 34.765625 12.992188 34.765625 C 12.289062 34.765625 11.726562 34.507812 11.328125 33.945312 C 10.90625 33.382812 10.71875 32.609375 10.71875 31.625 Z M 10.71875 31.625 "/>
<path fill-rule="nonzero" fill="rgb(0%, 0%, 0%)" fill-opacity="1" d="M 20.464844 35.867188 L 20.464844 27.195312 L 18.964844 27.195312 L 18.964844 35.867188 Z M 18.847656 24.898438 C 18.847656 25.132812 18.917969 25.34375 19.058594 25.507812 C 19.222656 25.671875 19.433594 25.71875 19.738281 25.71875 C 19.996094 25.71875 20.230469 25.671875 20.394531 25.507812 C 20.535156 25.34375 20.605469 25.132812 20.605469 24.898438 C 20.605469 24.664062 20.535156 24.453125 20.394531 24.289062 C 20.230469 24.125 19.996094 24.03125 19.738281 24.03125 C 19.433594 24.03125 19.222656 24.125 19.058594 24.289062 C 18.917969 24.453125 18.847656 24.664062 18.847656 24.898438 Z M 18.847656 24.898438 "/>
<path fill-rule="nonzero" fill="rgb(0%, 0%, 0%)" fill-opacity="1" d="M 24.230469 27.195312 L 22.824219 27.195312 L 22.824219 35.867188 L 24.300781 35.867188 L 24.300781 29.679688 C 24.511719 29.257812 24.792969 28.929688 25.144531 28.671875 C 25.519531 28.414062 25.941406 28.296875 26.433594 28.296875 C 27.019531 28.296875 27.441406 28.4375 27.746094 28.742188 C 28.027344 29.023438 28.167969 29.492188 28.167969 30.125 L 28.167969 35.867188 L 29.644531 35.867188 L 29.644531 30.125 C 29.621094 28.0625 28.707031 27.03125 26.878906 27.03125 C 25.800781 27.03125 24.933594 27.453125 24.277344 28.273438 Z M 24.230469 27.195312 "/>
<path fill-rule="nonzero" fill="rgb(0%, 0%, 0%)" fill-opacity="1" d="M 35.492188 36.03125 C 36.945312 36.03125 38.046875 35.46875 38.75 34.367188 L 37.859375 33.640625 C 37.578125 34.015625 37.25 34.296875 36.875 34.507812 C 36.523438 34.71875 36.078125 34.8125 35.5625 34.8125 C 34.8125 34.8125 34.203125 34.554688 33.734375 34.015625 C 33.265625 33.5 33.007812 32.820312 32.984375 31.953125 L 38.867188 31.953125 L 38.867188 31.34375 C 38.867188 29.960938 38.539062 28.90625 37.929688 28.15625 C 37.296875 27.40625 36.40625 27.03125 35.28125 27.03125 C 34.601562 27.03125 33.96875 27.21875 33.359375 27.59375 C 32.773438 27.992188 32.328125 28.53125 32 29.1875 C 31.671875 29.867188 31.507812 30.640625 31.507812 31.507812 L 31.507812 31.765625 C 31.507812 33.078125 31.859375 34.109375 32.609375 34.882812 C 33.359375 35.65625 34.296875 36.03125 35.492188 36.03125 Z M 35.28125 28.25 C 35.914062 28.25 36.40625 28.460938 36.78125 28.859375 C 37.132812 29.304688 37.320312 29.867188 37.390625 30.617188 L 37.390625 30.734375 L 33.03125 30.734375 C 33.125 29.960938 33.359375 29.351562 33.78125 28.90625 C 34.179688 28.484375 34.695312 28.25 35.28125 28.25 Z M 35.28125 28.25 "/>
<path fill-rule="nonzero" fill="rgb(0%, 0%, 0%)" fill-opacity="1" d="M 44.773438 28.53125 L 44.773438 27.148438 C 44.609375 27.078125 44.398438 27.03125 44.117188 27.03125 C 43.226562 27.03125 42.523438 27.429688 42.054688 28.203125 L 42.007812 27.195312 L 40.578125 27.195312 L 40.578125 35.867188 L 42.054688 35.867188 L 42.054688 29.703125 C 42.382812 28.882812 43.0625 28.460938 44.046875 28.460938 C 44.304688 28.484375 44.539062 28.484375 44.773438 28.53125 Z M 44.773438 28.53125 "/>
<path fill-rule="nonzero" fill="rgb(0%, 0%, 0%)" fill-opacity="1" d="M 45.570312 31.4375 L 45.570312 31.554688 C 45.570312 32.890625 45.921875 33.96875 46.671875 34.789062 C 47.398438 35.609375 48.335938 36.03125 49.53125 36.03125 C 50.304688 36.03125 50.984375 35.84375 51.59375 35.46875 C 52.179688 35.09375 52.648438 34.578125 52.976562 33.898438 C 53.304688 33.242188 53.46875 32.492188 53.46875 31.625 L 53.46875 31.507812 C 53.46875 30.171875 53.09375 29.070312 52.367188 28.25 C 51.640625 27.429688 50.703125 27.03125 49.507812 27.03125 C 48.734375 27.03125 48.054688 27.21875 47.445312 27.59375 C 46.859375 27.945312 46.390625 28.484375 46.0625 29.140625 C 45.734375 29.84375 45.570312 30.59375 45.570312 31.4375 Z M 47.070312 31.625 C 47.070312 30.546875 47.28125 29.726562 47.726562 29.140625 C 48.171875 28.53125 48.78125 28.25 49.507812 28.25 C 50.257812 28.25 50.867188 28.53125 51.3125 29.140625 C 51.757812 29.726562 51.992188 30.5 51.992188 31.4375 C 51.992188 32.515625 51.757812 33.335938 51.3125 33.921875 C 50.867188 34.53125 50.28125 34.8125 49.53125 34.8125 C 48.78125 34.8125 48.171875 34.53125 47.726562 33.945312 C 47.28125 33.359375 47.070312 32.609375 47.070312 31.625 Z M 47.070312 31.625 "/>
<path fill-rule="nonzero" fill="rgb(0%, 0%, 0%)" fill-opacity="1" d="M 59.355469 31.109375 C 59.355469 33.640625 59.964844 35.84375 61.230469 37.648438 C 61.886719 38.585938 62.542969 39.242188 63.269531 39.640625 L 63.574219 38.726562 C 62.964844 38.210938 62.425781 37.507812 61.957031 36.59375 C 61.207031 35.070312 60.832031 33.289062 60.832031 31.226562 L 60.832031 30.546875 C 60.878906 29.023438 61.160156 27.640625 61.652344 26.421875 C 62.144531 25.179688 62.800781 24.265625 63.574219 23.65625 L 63.269531 22.695312 C 62.589844 23.070312 61.910156 23.703125 61.277344 24.617188 C 60.621094 25.53125 60.152344 26.539062 59.824219 27.640625 C 59.496094 28.765625 59.355469 29.914062 59.355469 31.109375 Z M 59.355469 31.109375 "/>
<path fill-rule="nonzero" fill="rgb(0%, 0%, 0%)" fill-opacity="1" d="M 64.632812 31.4375 L 64.632812 31.554688 C 64.632812 32.890625 64.960938 33.96875 65.59375 34.789062 C 66.226562 35.609375 67.046875 36.03125 68.054688 36.03125 C 69.109375 36.03125 69.953125 35.65625 70.539062 34.929688 L 70.609375 35.867188 L 71.96875 35.867188 L 71.96875 23.539062 L 70.492188 23.539062 L 70.492188 28.0625 C 69.90625 27.382812 69.085938 27.03125 68.078125 27.03125 C 67.046875 27.03125 66.226562 27.429688 65.59375 28.25 C 64.960938 29.046875 64.632812 30.125 64.632812 31.4375 Z M 66.132812 31.625 C 66.132812 30.523438 66.320312 29.679688 66.742188 29.140625 C 67.140625 28.578125 67.703125 28.296875 68.429688 28.296875 C 69.34375 28.296875 70.023438 28.695312 70.492188 29.515625 L 70.492188 33.5 C 70.046875 34.367188 69.34375 34.765625 68.40625 34.765625 C 67.703125 34.765625 67.140625 34.507812 66.742188 33.945312 C 66.320312 33.382812 66.132812 32.609375 66.132812 31.625 Z M 66.132812 31.625 "/>
<path fill-rule="nonzero" fill="rgb(0%, 0%, 0%)" fill-opacity="1" d="M 77.78125 23.480469 L 76.234375 25.847656 L 77.429688 25.847656 L 79.585938 23.480469 Z M 77.78125 23.480469 "/>
<path fill-rule="nonzero" fill="rgb(0%, 0%, 0%)" fill-opacity="1" d="M 73.863281 31.4375 L 73.863281 31.554688 C 73.863281 32.890625 74.214844 33.96875 74.964844 34.789062 C 75.691406 35.609375 76.628906 36.03125 77.824219 36.03125 C 78.597656 36.03125 79.277344 35.84375 79.886719 35.46875 C 80.472656 35.09375 80.941406 34.578125 81.269531 33.898438 C 81.597656 33.242188 81.761719 32.492188 81.761719 31.625 L 81.761719 31.507812 C 81.761719 30.171875 81.386719 29.070312 80.660156 28.25 C 79.933594 27.429688 78.996094 27.03125 77.800781 27.03125 C 77.027344 27.03125 76.347656 27.21875 75.738281 27.59375 C 75.152344 27.945312 74.683594 28.484375 74.355469 29.140625 C 74.027344 29.84375 73.863281 30.59375 73.863281 31.4375 Z M 75.363281 31.625 C 75.363281 30.546875 75.574219 29.726562 76.019531 29.140625 C 76.464844 28.53125 77.074219 28.25 77.800781 28.25 C 78.550781 28.25 79.160156 28.53125 79.605469 29.140625 C 80.050781 29.726562 80.285156 30.5 80.285156 31.4375 C 80.285156 32.515625 80.050781 33.335938 79.605469 33.921875 C 79.160156 34.53125 78.574219 34.8125 77.824219 34.8125 C 77.074219 34.8125 76.464844 34.53125 76.019531 33.945312 C 75.574219 33.359375 75.363281 32.609375 75.363281 31.625 Z M 75.363281 31.625 "/>
<path fill-rule="nonzero" fill="rgb(0%, 0%, 0%)" fill-opacity="1" d="M 85.246094 35.867188 L 85.246094 23.539062 L 83.746094 23.539062 L 83.746094 35.867188 Z M 85.246094 35.867188 "/>
<path fill-rule="nonzero" fill="rgb(0%, 0%, 0%)" fill-opacity="1" d="M 92.976562 35.867188 L 94.523438 35.867188 L 94.523438 35.726562 C 94.3125 35.28125 94.21875 34.625 94.21875 33.828125 L 94.21875 29.84375 C 94.195312 28.976562 93.890625 28.273438 93.328125 27.78125 C 92.765625 27.289062 91.96875 27.03125 90.984375 27.03125 C 90.351562 27.03125 89.765625 27.148438 89.25 27.382812 C 88.710938 27.617188 88.289062 27.945312 87.984375 28.34375 C 87.679688 28.742188 87.539062 29.164062 87.539062 29.585938 L 89.039062 29.585938 C 89.039062 29.210938 89.203125 28.882812 89.578125 28.625 C 89.929688 28.367188 90.375 28.226562 90.914062 28.226562 C 91.5 28.226562 91.945312 28.390625 92.273438 28.695312 C 92.554688 29 92.71875 29.421875 92.71875 29.914062 L 92.71875 30.617188 L 91.289062 30.617188 C 90.023438 30.617188 89.085938 30.875 88.382812 31.367188 C 87.703125 31.859375 87.351562 32.5625 87.351562 33.476562 C 87.351562 34.203125 87.609375 34.8125 88.171875 35.304688 C 88.710938 35.796875 89.414062 36.03125 90.28125 36.03125 C 91.242188 36.03125 92.0625 35.679688 92.765625 34.953125 C 92.8125 35.398438 92.882812 35.703125 92.976562 35.867188 Z M 90.515625 34.742188 C 90.023438 34.742188 89.625 34.601562 89.320312 34.34375 C 88.992188 34.085938 88.851562 33.710938 88.851562 33.265625 C 88.851562 32.210938 89.742188 31.671875 91.570312 31.671875 L 92.71875 31.671875 L 92.71875 33.429688 C 92.53125 33.828125 92.226562 34.132812 91.828125 34.367188 C 91.40625 34.625 90.960938 34.742188 90.515625 34.742188 Z M 90.515625 34.742188 "/>
<path fill-rule="nonzero" fill="rgb(0%, 0%, 0%)" fill-opacity="1" d="M 100.730469 28.53125 L 100.730469 27.148438 C 100.566406 27.078125 100.355469 27.03125 100.074219 27.03125 C 99.183594 27.03125 98.480469 27.429688 98.011719 28.203125 L 97.964844 27.195312 L 96.535156 27.195312 L 96.535156 35.867188 L 98.011719 35.867188 L 98.011719 29.703125 C 98.339844 28.882812 99.019531 28.460938 100.003906 28.460938 C 100.261719 28.484375 100.496094 28.484375 100.730469 28.53125 Z M 100.730469 28.53125 "/>
<path fill-rule="nonzero" fill="rgb(0%, 0%, 0%)" fill-opacity="1" d="M 105.550781 36.03125 C 107.003906 36.03125 108.105469 35.46875 108.808594 34.367188 L 107.917969 33.640625 C 107.636719 34.015625 107.308594 34.296875 106.933594 34.507812 C 106.582031 34.71875 106.136719 34.8125 105.621094 34.8125 C 104.871094 34.8125 104.261719 34.554688 103.792969 34.015625 C 103.324219 33.5 103.066406 32.820312 103.042969 31.953125 L 108.925781 31.953125 L 108.925781 31.34375 C 108.925781 29.960938 108.597656 28.90625 107.988281 28.15625 C 107.355469 27.40625 106.464844 27.03125 105.339844 27.03125 C 104.660156 27.03125 104.027344 27.21875 103.417969 27.59375 C 102.832031 27.992188 102.386719 28.53125 102.058594 29.1875 C 101.730469 29.867188 101.566406 30.640625 101.566406 31.507812 L 101.566406 31.765625 C 101.566406 33.078125 101.917969 34.109375 102.667969 34.882812 C 103.417969 35.65625 104.355469 36.03125 105.550781 36.03125 Z M 105.339844 28.25 C 105.972656 28.25 106.464844 28.460938 106.839844 28.859375 C 107.191406 29.304688 107.378906 29.867188 107.449219 30.617188 L 107.449219 30.734375 L 103.089844 30.734375 C 103.183594 29.960938 103.417969 29.351562 103.839844 28.90625 C 104.238281 28.484375 104.753906 28.25 105.339844 28.25 Z M 105.339844 28.25 "/>
<path fill-rule="nonzero" fill="rgb(0%, 0%, 0%)" fill-opacity="1" d="M 115.699219 33.570312 C 115.699219 33.96875 115.511719 34.25 115.183594 34.484375 C 114.832031 34.71875 114.386719 34.8125 113.824219 34.8125 C 113.214844 34.8125 112.722656 34.671875 112.347656 34.367188 C 111.972656 34.085938 111.785156 33.6875 111.761719 33.195312 L 110.261719 33.195312 C 110.261719 33.710938 110.425781 34.179688 110.730469 34.625 C 111.011719 35.070312 111.457031 35.421875 111.996094 35.679688 C 112.511719 35.914062 113.144531 36.03125 113.824219 36.03125 C 114.808594 36.03125 115.605469 35.796875 116.238281 35.351562 C 116.847656 34.882812 117.175781 34.25 117.175781 33.476562 C 117.175781 33.007812 117.058594 32.609375 116.847656 32.28125 C 116.613281 31.953125 116.285156 31.671875 115.816406 31.4375 C 115.371094 31.226562 114.761719 31.015625 114.011719 30.851562 C 113.285156 30.6875 112.769531 30.523438 112.488281 30.335938 C 112.183594 30.171875 112.066406 29.890625 112.066406 29.515625 C 112.066406 29.140625 112.207031 28.835938 112.511719 28.601562 C 112.816406 28.367188 113.238281 28.25 113.777344 28.25 C 114.316406 28.25 114.738281 28.390625 115.089844 28.695312 C 115.417969 28.976562 115.605469 29.351562 115.605469 29.75 L 117.082031 29.75 C 117.082031 28.953125 116.777344 28.320312 116.167969 27.804688 C 115.558594 27.289062 114.761719 27.03125 113.777344 27.03125 C 112.839844 27.03125 112.066406 27.265625 111.457031 27.757812 C 110.847656 28.25 110.566406 28.859375 110.566406 29.585938 C 110.566406 30.007812 110.660156 30.382812 110.871094 30.664062 C 111.082031 30.992188 111.410156 31.25 111.855469 31.484375 C 112.300781 31.71875 112.886719 31.882812 113.660156 32.046875 C 114.410156 32.210938 114.925781 32.421875 115.230469 32.632812 C 115.535156 32.867188 115.699219 33.171875 115.699219 33.570312 Z M 115.699219 33.570312 "/>
<path fill-rule="nonzero" fill="rgb(0%, 0%, 0%)" fill-opacity="1" d="M 122.527344 31.203125 C 122.527344 29.960938 122.363281 28.765625 122.058594 27.664062 C 121.730469 26.5625 121.238281 25.554688 120.605469 24.640625 C 119.972656 23.75 119.292969 23.09375 118.613281 22.695312 L 118.285156 23.585938 C 118.800781 24.03125 119.269531 24.640625 119.691406 25.390625 C 120.113281 26.164062 120.441406 27.03125 120.675781 27.992188 C 120.910156 28.929688 121.027344 29.984375 121.027344 31.109375 L 121.027344 31.367188 C 121.027344 32.984375 120.746094 34.460938 120.253906 35.773438 C 119.761719 37.109375 119.105469 38.09375 118.285156 38.726562 L 118.613281 39.640625 C 119.292969 39.242188 119.972656 38.585938 120.628906 37.671875 C 121.261719 36.757812 121.753906 35.726562 122.058594 34.625 C 122.363281 33.546875 122.527344 32.398438 122.527344 31.203125 Z M 122.527344 31.203125 "/>
<path fill="none" stroke-width="0.3487" stroke-linecap="round" stroke-linejoin="round" stroke="rgb(0%, 0%, 0%)" stroke-opacity="1" stroke-miterlimit="10" d="M 8.507268 -3.48677 L 8.507268 3.487188 Z M 8.507268 -3.48677 " transform="matrix(1.5, 0, 0, -1.5, 142.743004, 31.117501)"/>
<path fill="none" stroke-width="0.3487" stroke-linecap="round" stroke-linejoin="round" stroke="rgb(0%, 0%, 0%)" stroke-opacity="1" stroke-miterlimit="10" d="M 61.853622 -3.48677 L 61.853622 3.487188 Z M 61.853622 -3.48677 " transform="matrix(1.5, 0, 0, -1.5, 142.743004, 31.117501)"/>
<path fill="none" stroke-width="0.3487" stroke-linecap="round" stroke-linejoin="round" stroke="rgb(0%, 0%, 0%)" stroke-opacity="1" stroke-miterlimit="10" d="M 115.202581 -3.48677 L 115.202581 3.487188 Z M 115.202581 -3.48677 " transform="matrix(1.5, 0, 0, -1.5, 142.743004, 31.117501)"/>
<path fill="none" stroke-width="0.3487" stroke-linecap="round" stroke-linejoin="round" stroke="rgb(0%, 0%, 0%)" stroke-opacity="1" stroke-miterlimit="10" d="M 168.548935 -3.48677 L 168.548935 3.487188 Z M 168.548935 -3.48677 " transform="matrix(1.5, 0, 0, -1.5, 142.743004, 31.117501)"/>
<path fill="none" stroke-width="0.3487" stroke-linecap="round" stroke-linejoin="round" stroke="rgb(0%, 0%, 0%)" stroke-opacity="1" stroke-miterlimit="10" d="M 221.900497 -3.48677 L 221.900497 3.487188 Z M 221.900497 -3.48677 " transform="matrix(1.5, 0, 0, -1.5, 142.743004, 31.117501)"/>
<path fill="none" stroke-width="0.3487" stroke-linecap="round" stroke-linejoin="round" stroke="rgb(0%, 0%, 0%)" stroke-opacity="1" stroke-miterlimit="10" d="M 275.249456 -3.48677 L 275.249456 3.487188 Z M 275.249456 -3.48677 " transform="matrix(1.5, 0, 0, -1.5, 142.743004, 31.117501)"/>
<path fill-rule="nonzero" fill="rgb(0%, 0%, 0%)" fill-opacity="1" d="M 158.527344 14.019531 L 158.527344 12.449219 C 158.480469 11.066406 158.246094 10.058594 157.753906 9.402344 C 157.285156 8.722656 156.511719 8.394531 155.480469 8.394531 C 154.449219 8.394531 153.699219 8.746094 153.207031 9.425781 C 152.714844 10.105469 152.480469 11.160156 152.480469 12.566406 L 152.480469 14.183594 C 152.480469 15.519531 152.738281 16.550781 153.230469 17.230469 C 153.722656 17.886719 154.472656 18.238281 155.503906 18.238281 C 156.535156 18.238281 157.285156 17.886719 157.777344 17.207031 C 158.269531 16.503906 158.527344 15.449219 158.527344 14.019531 Z M 157.308594 12.355469 L 157.308594 14.347656 C 157.285156 15.355469 157.121094 16.082031 156.839844 16.550781 C 156.535156 17.019531 156.089844 17.230469 155.503906 17.230469 C 154.894531 17.230469 154.425781 16.996094 154.121094 16.503906 C 153.839844 16.011719 153.699219 15.238281 153.699219 14.207031 L 153.699219 12.261719 C 153.699219 11.300781 153.839844 10.574219 154.121094 10.105469 C 154.425781 9.660156 154.871094 9.402344 155.480469 9.402344 C 156.113281 9.402344 156.558594 9.660156 156.863281 10.105469 C 157.167969 10.574219 157.308594 11.324219 157.308594 12.355469 Z M 157.308594 12.355469 "/>
<path fill-rule="nonzero" fill="rgb(0%, 0%, 0%)" fill-opacity="1" d="M 233.109375 13.316406 L 234.070312 13.550781 L 234.398438 13.292969 C 234.703125 13.058594 235.125 12.941406 235.640625 12.941406 C 236.226562 12.941406 236.695312 13.152344 237.046875 13.527344 C 237.398438 13.902344 237.5625 14.417969 237.5625 15.050781 C 237.5625 15.753906 237.398438 16.292969 237.070312 16.667969 C 236.765625 17.042969 236.320312 17.230469 235.734375 17.230469 C 235.21875 17.230469 234.796875 17.113281 234.492188 16.808594 C 234.164062 16.550781 233.976562 16.128906 233.90625 15.589844 L 232.757812 15.589844 C 232.828125 16.410156 233.132812 17.066406 233.671875 17.535156 C 234.210938 18.003906 234.890625 18.238281 235.734375 18.238281 C 236.695312 18.238281 237.421875 17.957031 237.960938 17.394531 C 238.5 16.808594 238.78125 16.035156 238.78125 15.050781 C 238.78125 14.066406 238.523438 13.292969 238.007812 12.707031 C 237.492188 12.144531 236.789062 11.863281 235.945312 11.863281 C 235.335938 11.863281 234.796875 11.980469 234.328125 12.261719 L 234.609375 9.660156 L 238.5 9.660156 L 238.5 8.535156 L 233.601562 8.535156 Z M 233.109375 13.316406 "/>
<path fill-rule="nonzero" fill="rgb(0%, 0%, 0%)" fill-opacity="1" d="M 312.957031 18.097656 L 312.957031 8.488281 L 312.769531 8.488281 L 309.277344 9.800781 L 309.277344 10.902344 L 311.738281 9.988281 L 311.738281 18.097656 Z M 312.957031 18.097656 "/>
<path fill-rule="nonzero" fill="rgb(0%, 0%, 0%)" fill-opacity="1" d="M 321.492188 14.019531 L 321.492188 12.449219 C 321.445312 11.066406 321.210938 10.058594 320.71875 9.402344 C 320.25 8.722656 319.476562 8.394531 318.445312 8.394531 C 317.414062 8.394531 316.664062 8.746094 316.171875 9.425781 C 315.679688 10.105469 315.445312 11.160156 315.445312 12.566406 L 315.445312 14.183594 C 315.445312 15.519531 315.703125 16.550781 316.195312 17.230469 C 316.6875 17.886719 317.4375 18.238281 318.46875 18.238281 C 319.5 18.238281 320.25 17.886719 320.742188 17.207031 C 321.234375 16.503906 321.492188 15.449219 321.492188 14.019531 Z M 320.273438 12.355469 L 320.273438 14.347656 C 320.25 15.355469 320.085938 16.082031 319.804688 16.550781 C 319.5 17.019531 319.054688 17.230469 318.46875 17.230469 C 317.859375 17.230469 317.390625 16.996094 317.085938 16.503906 C 316.804688 16.011719 316.664062 15.238281 316.664062 14.207031 L 316.664062 12.261719 C 316.664062 11.300781 316.804688 10.574219 317.085938 10.105469 C 317.390625 9.660156 317.835938 9.402344 318.445312 9.402344 C 319.078125 9.402344 319.523438 9.660156 319.828125 10.105469 C 320.132812 10.574219 320.273438 11.324219 320.273438 12.355469 Z M 320.273438 12.355469 "/>
<path fill-rule="nonzero" fill="rgb(0%, 0%, 0%)" fill-opacity="1" d="M 393.117188 18.097656 L 393.117188 8.488281 L 392.929688 8.488281 L 389.4375 9.800781 L 389.4375 10.902344 L 391.898438 9.988281 L 391.898438 18.097656 Z M 393.117188 18.097656 "/>
<path fill-rule="nonzero" fill="rgb(0%, 0%, 0%)" fill-opacity="1" d="M 396.070312 13.316406 L 397.03125 13.550781 L 397.359375 13.292969 C 397.664062 13.058594 398.085938 12.941406 398.601562 12.941406 C 399.1875 12.941406 399.65625 13.152344 400.007812 13.527344 C 400.359375 13.902344 400.523438 14.417969 400.523438 15.050781 C 400.523438 15.753906 400.359375 16.292969 400.03125 16.667969 C 399.726562 17.042969 399.28125 17.230469 398.695312 17.230469 C 398.179688 17.230469 397.757812 17.113281 397.453125 16.808594 C 397.125 16.550781 396.9375 16.128906 396.867188 15.589844 L 395.71875 15.589844 C 395.789062 16.410156 396.09375 17.066406 396.632812 17.535156 C 397.171875 18.003906 397.851562 18.238281 398.695312 18.238281 C 399.65625 18.238281 400.382812 17.957031 400.921875 17.394531 C 401.460938 16.808594 401.742188 16.035156 401.742188 15.050781 C 401.742188 14.066406 401.484375 13.292969 400.96875 12.707031 C 400.453125 12.144531 399.75 11.863281 398.90625 11.863281 C 398.296875 11.863281 397.757812 11.980469 397.289062 12.261719 L 397.570312 9.660156 L 401.460938 9.660156 L 401.460938 8.535156 L 396.5625 8.535156 Z M 396.070312 13.316406 "/>
<path fill-rule="nonzero" fill="rgb(0%, 0%, 0%)" fill-opacity="1" d="M 474.960938 18.097656 L 474.960938 17.113281 L 470.15625 17.113281 L 472.710938 14.324219 C 473.929688 13.035156 474.515625 11.910156 474.515625 10.972656 C 474.515625 10.175781 474.257812 9.566406 473.742188 9.097656 C 473.226562 8.628906 472.523438 8.394531 471.65625 8.394531 C 470.695312 8.394531 469.921875 8.675781 469.359375 9.214844 C 468.796875 9.777344 468.515625 10.480469 468.515625 11.347656 L 469.734375 11.347656 C 469.734375 10.738281 469.898438 10.269531 470.226562 9.917969 C 470.578125 9.589844 471.046875 9.402344 471.65625 9.402344 C 472.148438 9.402344 472.546875 9.566406 472.851562 9.871094 C 473.132812 10.199219 473.296875 10.597656 473.296875 11.113281 C 473.296875 11.488281 473.203125 11.839844 473.015625 12.191406 C 472.828125 12.542969 472.5 12.988281 472.007812 13.550781 L 468.703125 17.230469 L 468.703125 18.097656 Z M 474.960938 18.097656 "/>
<path fill-rule="nonzero" fill="rgb(0%, 0%, 0%)" fill-opacity="1" d="M 482.390625 14.019531 L 482.390625 12.449219 C 482.34375 11.066406 482.109375 10.058594 481.617188 9.402344 C 481.148438 8.722656 480.375 8.394531 479.34375 8.394531 C 478.3125 8.394531 477.5625 8.746094 477.070312 9.425781 C 476.578125 10.105469 476.34375 11.160156 476.34375 12.566406 L 476.34375 14.183594 C 476.34375 15.519531 476.601562 16.550781 477.09375 17.230469 C 477.585938 17.886719 478.335938 18.238281 479.367188 18.238281 C 480.398438 18.238281 481.148438 17.886719 481.640625 17.207031 C 482.132812 16.503906 482.390625 15.449219 482.390625 14.019531 Z M 481.171875 12.355469 L 481.171875 14.347656 C 481.148438 15.355469 480.984375 16.082031 480.703125 16.550781 C 480.398438 17.019531 479.953125 17.230469 479.367188 17.230469 C 478.757812 17.230469 478.289062 16.996094 477.984375 16.503906 C 477.703125 16.011719 477.5625 15.238281 477.5625 14.207031 L 477.5625 12.261719 C 477.5625 11.300781 477.703125 10.574219 477.984375 10.105469 C 478.289062 9.660156 478.734375 9.402344 479.34375 9.402344 C 479.976562 9.402344 480.421875 9.660156 480.726562 10.105469 C 481.03125 10.574219 481.171875 11.324219 481.171875 12.355469 Z M 481.171875 12.355469 "/>
<path fill-rule="nonzero" fill="rgb(0%, 0%, 0%)" fill-opacity="1" d="M 555.117188 18.097656 L 555.117188 17.113281 L 550.3125 17.113281 L 552.867188 14.324219 C 554.085938 13.035156 554.671875 11.910156 554.671875 10.972656 C 554.671875 10.175781 554.414062 9.566406 553.898438 9.097656 C 553.382812 8.628906 552.679688 8.394531 551.8125 8.394531 C 550.851562 8.394531 550.078125 8.675781 549.515625 9.214844 C 548.953125 9.777344 548.671875 10.480469 548.671875 11.347656 L 549.890625 11.347656 C 549.890625 10.738281 550.054688 10.269531 550.382812 9.917969 C 550.734375 9.589844 551.203125 9.402344 551.8125 9.402344 C 552.304688 9.402344 552.703125 9.566406 553.007812 9.871094 C 553.289062 10.199219 553.453125 10.597656 553.453125 11.113281 C 553.453125 11.488281 553.359375 11.839844 553.171875 12.191406 C 552.984375 12.542969 552.65625 12.988281 552.164062 13.550781 L 548.859375 17.230469 L 548.859375 18.097656 Z M 555.117188 18.097656 "/>
<path fill-rule="nonzero" fill="rgb(0%, 0%, 0%)" fill-opacity="1" d="M 556.96875 13.316406 L 557.929688 13.550781 L 558.257812 13.292969 C 558.5625 13.058594 558.984375 12.941406 559.5 12.941406 C 560.085938 12.941406 560.554688 13.152344 560.90625 13.527344 C 561.257812 13.902344 561.421875 14.417969 561.421875 15.050781 C 561.421875 15.753906 561.257812 16.292969 560.929688 16.667969 C 560.625 17.042969 560.179688 17.230469 559.59375 17.230469 C 559.078125 17.230469 558.65625 17.113281 558.351562 16.808594 C 558.023438 16.550781 557.835938 16.128906 557.765625 15.589844 L 556.617188 15.589844 C 556.6875 16.410156 556.992188 17.066406 557.53125 17.535156 C 558.070312 18.003906 558.75 18.238281 559.59375 18.238281 C 560.554688 18.238281 561.28125 17.957031 561.820312 17.394531 C 562.359375 16.808594 562.640625 16.035156 562.640625 15.050781 C 562.640625 14.066406 562.382812 13.292969 561.867188 12.707031 C 561.351562 12.144531 560.648438 11.863281 559.804688 11.863281 C 559.195312 11.863281 558.65625 11.980469 558.1875 12.261719 L 558.46875 9.660156 L 562.359375 9.660156 L 562.359375 8.535156 L 557.460938 8.535156 Z M 556.96875 13.316406 "/>
<path fill="none" stroke-width="0.74721" stroke-linecap="butt" stroke-linejoin="round" stroke="rgb(0%, 0%, 0%)" stroke-opacity="1" stroke-miterlimit="10" d="M -0.00054423 -34.721145 L 285.486435 -34.721145 " transform="matrix(1.5, 0, 0, -1.5, 142.743004, 31.117501)"/>
<path fill-rule="nonzero" fill="rgb(0%, 0%, 0%)" fill-opacity="1" d="M 574.746094 83.199219 L 568.710938 80.175781 L 570.972656 83.199219 L 568.710938 86.214844 "/>
<path fill="none" stroke-width="0.3487" stroke-linecap="round" stroke-linejoin="round" stroke="rgb(0%, 0%, 0%)" stroke-opacity="1" stroke-miterlimit="10" d="M 8.507268 -38.20552 L 8.507268 -31.231562 Z M 8.507268 -38.20552 " transform="matrix(1.5, 0, 0, -1.5, 142.743004, 31.117501)"/>
<path fill="none" stroke-width="0.3487" stroke-linecap="round" stroke-linejoin="round" stroke="rgb(0%, 0%, 0%)" stroke-opacity="1" stroke-miterlimit="10" d="M 61.853622 -38.20552 L 61.853622 -31.231562 Z M 61.853622 -38.20552 " transform="matrix(1.5, 0, 0, -1.5, 142.743004, 31.117501)"/>
<path fill="none" stroke-width="0.3487" stroke-linecap="round" stroke-linejoin="round" stroke="rgb(0%, 0%, 0%)" stroke-opacity="1" stroke-miterlimit="10" d="M 115.202581 -38.20552 L 115.202581 -31.231562 Z M 115.202581 -38.20552 " transform="matrix(1.5, 0, 0, -1.5, 142.743004, 31.117501)"/>
<path fill="none" stroke-width="0.3487" stroke-linecap="round" stroke-linejoin="round" stroke="rgb(0%, 0%, 0%)" stroke-opacity="1" stroke-miterlimit="10" d="M 168.548935 -38.20552 L 168.548935 -31.231562 Z M 168.548935 -38.20552 " transform="matrix(1.5, 0, 0, -1.5, 142.743004, 31.117501)"/>
<path fill="none" stroke-width="0.3487" stroke-linecap="round" stroke-linejoin="round" stroke="rgb(0%, 0%, 0%)" stroke-opacity="1" stroke-miterlimit="10" d="M 221.900497 -38.20552 L 221.900497 -31.231562 Z M 221.900497 -38.20552 " transform="matrix(1.5, 0, 0, -1.5, 142.743004, 31.117501)"/>
<path fill="none" stroke-width="0.3487" stroke-linecap="round" stroke-linejoin="round" stroke="rgb(0%, 0%, 0%)" stroke-opacity="1" stroke-miterlimit="10" d="M 275.249456 -38.20552 L 275.249456 -31.231562 Z M 275.249456 -38.20552 " transform="matrix(1.5, 0, 0, -1.5, 142.743004, 31.117501)"/>
<path fill-rule="nonzero" fill="rgb(0%, 0%, 0%)" fill-opacity="1" d="M 153.605469 103.417969 L 153.605469 101.847656 C 153.558594 100.464844 153.324219 99.457031 152.832031 98.800781 C 152.363281 98.121094 151.589844 97.792969 150.558594 97.792969 C 149.527344 97.792969 148.777344 98.144531 148.285156 98.824219 C 147.792969 99.503906 147.558594 100.558594 147.558594 101.964844 L 147.558594 103.582031 C 147.558594 104.917969 147.816406 105.949219 148.308594 106.628906 C 148.800781 107.285156 149.550781 107.636719 150.582031 107.636719 C 151.613281 107.636719 152.363281 107.285156 152.855469 106.605469 C 153.347656 105.902344 153.605469 104.847656 153.605469 103.417969 Z M 152.386719 101.753906 L 152.386719 103.746094 C 152.363281 104.753906 152.199219 105.480469 151.917969 105.949219 C 151.613281 106.417969 151.167969 106.628906 150.582031 106.628906 C 149.972656 106.628906 149.503906 106.394531 149.199219 105.902344 C 148.917969 105.410156 148.777344 104.636719 148.777344 103.605469 L 148.777344 101.660156 C 148.777344 100.699219 148.917969 99.972656 149.199219 99.503906 C 149.503906 99.058594 149.949219 98.800781 150.558594 98.800781 C 151.191406 98.800781 151.636719 99.058594 151.941406 99.503906 C 152.246094 99.972656 152.386719 100.722656 152.386719 101.753906 Z M 152.386719 101.753906 "/>
<path fill-rule="nonzero" fill="rgb(0%, 0%, 0%)" fill-opacity="1" d="M 155.164062 99.785156 L 155.164062 100.230469 C 155.164062 100.839844 155.351562 101.332031 155.726562 101.707031 C 156.101562 102.058594 156.59375 102.246094 157.15625 102.246094 C 157.71875 102.246094 158.164062 102.058594 158.539062 101.683594 C 158.890625 101.332031 159.078125 100.839844 159.078125 100.277344 L 159.078125 99.808594 C 159.078125 99.222656 158.890625 98.730469 158.539062 98.355469 C 158.1875 97.980469 157.71875 97.792969 157.132812 97.792969 C 156.546875 97.792969 156.078125 97.980469 155.726562 98.355469 C 155.351562 98.730469 155.164062 99.199219 155.164062 99.785156 Z M 156.078125 100.277344 L 156.078125 99.808594 C 156.078125 99.457031 156.171875 99.152344 156.359375 98.917969 C 156.546875 98.707031 156.804688 98.589844 157.132812 98.589844 C 157.460938 98.589844 157.71875 98.707031 157.90625 98.917969 C 158.09375 99.152344 158.1875 99.433594 158.1875 99.785156 L 158.1875 100.253906 C 158.1875 100.628906 158.09375 100.910156 157.90625 101.121094 C 157.71875 101.355469 157.460938 101.449219 157.15625 101.449219 C 156.828125 101.449219 156.546875 101.355469 156.359375 101.121094 C 156.171875 100.910156 156.078125 100.628906 156.078125 100.277344 Z M 159.828125 105.152344 L 159.828125 105.621094 C 159.828125 106.253906 159.992188 106.722656 160.367188 107.097656 C 160.742188 107.449219 161.234375 107.636719 161.796875 107.636719 C 162.359375 107.636719 162.828125 107.449219 163.203125 107.074219 C 163.554688 106.722656 163.742188 106.253906 163.742188 105.667969 L 163.742188 105.199219 C 163.742188 104.589844 163.554688 104.097656 163.203125 103.722656 C 162.828125 103.371094 162.359375 103.183594 161.796875 103.183594 C 161.210938 103.183594 160.742188 103.371094 160.367188 103.746094 C 159.992188 104.121094 159.828125 104.589844 159.828125 105.152344 Z M 160.742188 105.667969 L 160.742188 105.175781 C 160.742188 104.824219 160.835938 104.519531 161.023438 104.308594 C 161.210938 104.097656 161.46875 103.980469 161.796875 103.980469 C 162.101562 103.980469 162.359375 104.097656 162.546875 104.308594 C 162.734375 104.519531 162.828125 104.800781 162.828125 105.152344 L 162.828125 105.644531 C 162.828125 106.019531 162.734375 106.300781 162.546875 106.535156 C 162.359375 106.746094 162.101562 106.839844 161.796875 106.839844 C 161.46875 106.839844 161.210938 106.746094 161.023438 106.535156 C 160.835938 106.300781 160.742188 106.019531 160.742188 105.667969 Z M 157.414062 106.769531 L 162.078125 99.292969 L 161.398438 98.847656 L 156.734375 106.347656 Z M 157.414062 106.769531 "/>
<path fill-rule="nonzero" fill="rgb(0%, 0%, 0%)" fill-opacity="1" d="M 230.109375 107.496094 L 230.109375 106.511719 L 225.304688 106.511719 L 227.859375 103.722656 C 229.078125 102.433594 229.664062 101.308594 229.664062 100.371094 C 229.664062 99.574219 229.40625 98.964844 228.890625 98.496094 C 228.375 98.027344 227.671875 97.792969 226.804688 97.792969 C 225.84375 97.792969 225.070312 98.074219 224.507812 98.613281 C 223.945312 99.175781 223.664062 99.878906 223.664062 100.746094 L 224.882812 100.746094 C 224.882812 100.136719 225.046875 99.667969 225.375 99.316406 C 225.726562 98.988281 226.195312 98.800781 226.804688 98.800781 C 227.296875 98.800781 227.695312 98.964844 228 99.269531 C 228.28125 99.597656 228.445312 99.996094 228.445312 100.511719 C 228.445312 100.886719 228.351562 101.238281 228.164062 101.589844 C 227.976562 101.941406 227.648438 102.386719 227.15625 102.949219 L 223.851562 106.628906 L 223.851562 107.496094 Z M 230.109375 107.496094 "/>
<path fill-rule="nonzero" fill="rgb(0%, 0%, 0%)" fill-opacity="1" d="M 231.957031 102.714844 L 232.917969 102.949219 L 233.246094 102.691406 C 233.550781 102.457031 233.972656 102.339844 234.488281 102.339844 C 235.074219 102.339844 235.542969 102.550781 235.894531 102.925781 C 236.246094 103.300781 236.410156 103.816406 236.410156 104.449219 C 236.410156 105.152344 236.246094 105.691406 235.917969 106.066406 C 235.613281 106.441406 235.167969 106.628906 234.582031 106.628906 C 234.066406 106.628906 233.644531 106.511719 233.339844 106.207031 C 233.011719 105.949219 232.824219 105.527344 232.753906 104.988281 L 231.605469 104.988281 C 231.675781 105.808594 231.980469 106.464844 232.519531 106.933594 C 233.058594 107.402344 233.738281 107.636719 234.582031 107.636719 C 235.542969 107.636719 236.269531 107.355469 236.808594 106.792969 C 237.347656 106.207031 237.628906 105.433594 237.628906 104.449219 C 237.628906 103.464844 237.371094 102.691406 236.855469 102.105469 C 236.339844 101.542969 235.636719 101.261719 234.792969 101.261719 C 234.183594 101.261719 233.644531 101.378906 233.175781 101.660156 L 233.457031 99.058594 L 237.347656 99.058594 L 237.347656 97.933594 L 232.449219 97.933594 Z M 231.957031 102.714844 "/>
<path fill-rule="nonzero" fill="rgb(0%, 0%, 0%)" fill-opacity="1" d="M 238.824219 99.785156 L 238.824219 100.230469 C 238.824219 100.839844 239.011719 101.332031 239.386719 101.707031 C 239.761719 102.058594 240.253906 102.246094 240.816406 102.246094 C 241.378906 102.246094 241.824219 102.058594 242.199219 101.683594 C 242.550781 101.332031 242.738281 100.839844 242.738281 100.277344 L 242.738281 99.808594 C 242.738281 99.222656 242.550781 98.730469 242.199219 98.355469 C 241.847656 97.980469 241.378906 97.792969 240.792969 97.792969 C 240.207031 97.792969 239.738281 97.980469 239.386719 98.355469 C 239.011719 98.730469 238.824219 99.199219 238.824219 99.785156 Z M 239.738281 100.277344 L 239.738281 99.808594 C 239.738281 99.457031 239.832031 99.152344 240.019531 98.917969 C 240.207031 98.707031 240.464844 98.589844 240.792969 98.589844 C 241.121094 98.589844 241.378906 98.707031 241.566406 98.917969 C 241.753906 99.152344 241.847656 99.433594 241.847656 99.785156 L 241.847656 100.253906 C 241.847656 100.628906 241.753906 100.910156 241.566406 101.121094 C 241.378906 101.355469 241.121094 101.449219 240.816406 101.449219 C 240.488281 101.449219 240.207031 101.355469 240.019531 101.121094 C 239.832031 100.910156 239.738281 100.628906 239.738281 100.277344 Z M 243.488281 105.152344 L 243.488281 105.621094 C 243.488281 106.253906 243.652344 106.722656 244.027344 107.097656 C 244.402344 107.449219 244.894531 107.636719 245.457031 107.636719 C 246.019531 107.636719 246.488281 107.449219 246.863281 107.074219 C 247.214844 106.722656 247.402344 106.253906 247.402344 105.667969 L 247.402344 105.199219 C 247.402344 104.589844 247.214844 104.097656 246.863281 103.722656 C 246.488281 103.371094 246.019531 103.183594 245.457031 103.183594 C 244.871094 103.183594 244.402344 103.371094 244.027344 103.746094 C 243.652344 104.121094 243.488281 104.589844 243.488281 105.152344 Z M 244.402344 105.667969 L 244.402344 105.175781 C 244.402344 104.824219 244.496094 104.519531 244.683594 104.308594 C 244.871094 104.097656 245.128906 103.980469 245.457031 103.980469 C 245.761719 103.980469 246.019531 104.097656 246.207031 104.308594 C 246.394531 104.519531 246.488281 104.800781 246.488281 105.152344 L 246.488281 105.644531 C 246.488281 106.019531 246.394531 106.300781 246.207031 106.535156 C 246.019531 106.746094 245.761719 106.839844 245.457031 106.839844 C 245.128906 106.839844 244.871094 106.746094 244.683594 106.535156 C 244.496094 106.300781 244.402344 106.019531 244.402344 105.667969 Z M 241.074219 106.769531 L 245.738281 99.292969 L 245.058594 98.847656 L 240.394531 106.347656 Z M 241.074219 106.769531 "/>
<path fill-rule="nonzero" fill="rgb(0%, 0%, 0%)" fill-opacity="1" d="M 304.300781 102.714844 L 305.261719 102.949219 L 305.589844 102.691406 C 305.894531 102.457031 306.316406 102.339844 306.832031 102.339844 C 307.417969 102.339844 307.886719 102.550781 308.238281 102.925781 C 308.589844 103.300781 308.753906 103.816406 308.753906 104.449219 C 308.753906 105.152344 308.589844 105.691406 308.261719 106.066406 C 307.957031 106.441406 307.511719 106.628906 306.925781 106.628906 C 306.410156 106.628906 305.988281 106.511719 305.683594 106.207031 C 305.355469 105.949219 305.167969 105.527344 305.097656 104.988281 L 303.949219 104.988281 C 304.019531 105.808594 304.324219 106.464844 304.863281 106.933594 C 305.402344 107.402344 306.082031 107.636719 306.925781 107.636719 C 307.886719 107.636719 308.613281 107.355469 309.152344 106.792969 C 309.691406 106.207031 309.972656 105.433594 309.972656 104.449219 C 309.972656 103.464844 309.714844 102.691406 309.199219 102.105469 C 308.683594 101.542969 307.980469 101.261719 307.136719 101.261719 C 306.527344 101.261719 305.988281 101.378906 305.519531 101.660156 L 305.800781 99.058594 L 309.691406 99.058594 L 309.691406 97.933594 L 304.792969 97.933594 Z M 304.300781 102.714844 "/>
<path fill-rule="nonzero" fill="rgb(0%, 0%, 0%)" fill-opacity="1" d="M 317.421875 103.417969 L 317.421875 101.847656 C 317.375 100.464844 317.140625 99.457031 316.648438 98.800781 C 316.179688 98.121094 315.40625 97.792969 314.375 97.792969 C 313.34375 97.792969 312.59375 98.144531 312.101562 98.824219 C 311.609375 99.503906 311.375 100.558594 311.375 101.964844 L 311.375 103.582031 C 311.375 104.917969 311.632812 105.949219 312.125 106.628906 C 312.617188 107.285156 313.367188 107.636719 314.398438 107.636719 C 315.429688 107.636719 316.179688 107.285156 316.671875 106.605469 C 317.164062 105.902344 317.421875 104.847656 317.421875 103.417969 Z M 316.203125 101.753906 L 316.203125 103.746094 C 316.179688 104.753906 316.015625 105.480469 315.734375 105.949219 C 315.429688 106.417969 314.984375 106.628906 314.398438 106.628906 C 313.789062 106.628906 313.320312 106.394531 313.015625 105.902344 C 312.734375 105.410156 312.59375 104.636719 312.59375 103.605469 L 312.59375 101.660156 C 312.59375 100.699219 312.734375 99.972656 313.015625 99.503906 C 313.320312 99.058594 313.765625 98.800781 314.375 98.800781 C 315.007812 98.800781 315.453125 99.058594 315.757812 99.503906 C 316.0625 99.972656 316.203125 100.722656 316.203125 101.753906 Z M 316.203125 101.753906 "/>
<path fill-rule="nonzero" fill="rgb(0%, 0%, 0%)" fill-opacity="1" d="M 318.980469 99.785156 L 318.980469 100.230469 C 318.980469 100.839844 319.167969 101.332031 319.542969 101.707031 C 319.917969 102.058594 320.410156 102.246094 320.972656 102.246094 C 321.535156 102.246094 321.980469 102.058594 322.355469 101.683594 C 322.707031 101.332031 322.894531 100.839844 322.894531 100.277344 L 322.894531 99.808594 C 322.894531 99.222656 322.707031 98.730469 322.355469 98.355469 C 322.003906 97.980469 321.535156 97.792969 320.949219 97.792969 C 320.363281 97.792969 319.894531 97.980469 319.542969 98.355469 C 319.167969 98.730469 318.980469 99.199219 318.980469 99.785156 Z M 319.894531 100.277344 L 319.894531 99.808594 C 319.894531 99.457031 319.988281 99.152344 320.175781 98.917969 C 320.363281 98.707031 320.621094 98.589844 320.949219 98.589844 C 321.277344 98.589844 321.535156 98.707031 321.722656 98.917969 C 321.910156 99.152344 322.003906 99.433594 322.003906 99.785156 L 322.003906 100.253906 C 322.003906 100.628906 321.910156 100.910156 321.722656 101.121094 C 321.535156 101.355469 321.277344 101.449219 320.972656 101.449219 C 320.644531 101.449219 320.363281 101.355469 320.175781 101.121094 C 319.988281 100.910156 319.894531 100.628906 319.894531 100.277344 Z M 323.644531 105.152344 L 323.644531 105.621094 C 323.644531 106.253906 323.808594 106.722656 324.183594 107.097656 C 324.558594 107.449219 325.050781 107.636719 325.613281 107.636719 C 326.175781 107.636719 326.644531 107.449219 327.019531 107.074219 C 327.371094 106.722656 327.558594 106.253906 327.558594 105.667969 L 327.558594 105.199219 C 327.558594 104.589844 327.371094 104.097656 327.019531 103.722656 C 326.644531 103.371094 326.175781 103.183594 325.613281 103.183594 C 325.027344 103.183594 324.558594 103.371094 324.183594 103.746094 C 323.808594 104.121094 323.644531 104.589844 323.644531 105.152344 Z M 324.558594 105.667969 L 324.558594 105.175781 C 324.558594 104.824219 324.652344 104.519531 324.839844 104.308594 C 325.027344 104.097656 325.285156 103.980469 325.613281 103.980469 C 325.917969 103.980469 326.175781 104.097656 326.363281 104.308594 C 326.550781 104.519531 326.644531 104.800781 326.644531 105.152344 L 326.644531 105.644531 C 326.644531 106.019531 326.550781 106.300781 326.363281 106.535156 C 326.175781 106.746094 325.917969 106.839844 325.613281 106.839844 C 325.285156 106.839844 325.027344 106.746094 324.839844 106.535156 C 324.652344 106.300781 324.558594 106.019531 324.558594 105.667969 Z M 321.230469 106.769531 L 325.894531 99.292969 L 325.214844 98.847656 L 320.550781 106.347656 Z M 321.230469 106.769531 "/>
<path fill-rule="nonzero" fill="rgb(0%, 0%, 0%)" fill-opacity="1" d="M 389.828125 98.613281 L 389.828125 97.933594 L 383.804688 97.933594 L 383.804688 98.917969 L 388.609375 98.917969 L 384.8125 107.496094 L 386.03125 107.496094 Z M 389.828125 98.613281 "/>
<path fill-rule="nonzero" fill="rgb(0%, 0%, 0%)" fill-opacity="1" d="M 391.691406 102.714844 L 392.652344 102.949219 L 392.980469 102.691406 C 393.285156 102.457031 393.707031 102.339844 394.222656 102.339844 C 394.808594 102.339844 395.277344 102.550781 395.628906 102.925781 C 395.980469 103.300781 396.144531 103.816406 396.144531 104.449219 C 396.144531 105.152344 395.980469 105.691406 395.652344 106.066406 C 395.347656 106.441406 394.902344 106.628906 394.316406 106.628906 C 393.800781 106.628906 393.378906 106.511719 393.074219 106.207031 C 392.746094 105.949219 392.558594 105.527344 392.488281 104.988281 L 391.339844 104.988281 C 391.410156 105.808594 391.714844 106.464844 392.253906 106.933594 C 392.792969 107.402344 393.472656 107.636719 394.316406 107.636719 C 395.277344 107.636719 396.003906 107.355469 396.542969 106.792969 C 397.082031 106.207031 397.363281 105.433594 397.363281 104.449219 C 397.363281 103.464844 397.105469 102.691406 396.589844 102.105469 C 396.074219 101.542969 395.371094 101.261719 394.527344 101.261719 C 393.917969 101.261719 393.378906 101.378906 392.910156 101.660156 L 393.191406 99.058594 L 397.082031 99.058594 L 397.082031 97.933594 L 392.183594 97.933594 Z M 391.691406 102.714844 "/>
<path fill-rule="nonzero" fill="rgb(0%, 0%, 0%)" fill-opacity="1" d="M 398.558594 99.785156 L 398.558594 100.230469 C 398.558594 100.839844 398.746094 101.332031 399.121094 101.707031 C 399.496094 102.058594 399.988281 102.246094 400.550781 102.246094 C 401.113281 102.246094 401.558594 102.058594 401.933594 101.683594 C 402.285156 101.332031 402.472656 100.839844 402.472656 100.277344 L 402.472656 99.808594 C 402.472656 99.222656 402.285156 98.730469 401.933594 98.355469 C 401.582031 97.980469 401.113281 97.792969 400.527344 97.792969 C 399.941406 97.792969 399.472656 97.980469 399.121094 98.355469 C 398.746094 98.730469 398.558594 99.199219 398.558594 99.785156 Z M 399.472656 100.277344 L 399.472656 99.808594 C 399.472656 99.457031 399.566406 99.152344 399.753906 98.917969 C 399.941406 98.707031 400.199219 98.589844 400.527344 98.589844 C 400.855469 98.589844 401.113281 98.707031 401.300781 98.917969 C 401.488281 99.152344 401.582031 99.433594 401.582031 99.785156 L 401.582031 100.253906 C 401.582031 100.628906 401.488281 100.910156 401.300781 101.121094 C 401.113281 101.355469 400.855469 101.449219 400.550781 101.449219 C 400.222656 101.449219 399.941406 101.355469 399.753906 101.121094 C 399.566406 100.910156 399.472656 100.628906 399.472656 100.277344 Z M 403.222656 105.152344 L 403.222656 105.621094 C 403.222656 106.253906 403.386719 106.722656 403.761719 107.097656 C 404.136719 107.449219 404.628906 107.636719 405.191406 107.636719 C 405.753906 107.636719 406.222656 107.449219 406.597656 107.074219 C 406.949219 106.722656 407.136719 106.253906 407.136719 105.667969 L 407.136719 105.199219 C 407.136719 104.589844 406.949219 104.097656 406.597656 103.722656 C 406.222656 103.371094 405.753906 103.183594 405.191406 103.183594 C 404.605469 103.183594 404.136719 103.371094 403.761719 103.746094 C 403.386719 104.121094 403.222656 104.589844 403.222656 105.152344 Z M 404.136719 105.667969 L 404.136719 105.175781 C 404.136719 104.824219 404.230469 104.519531 404.417969 104.308594 C 404.605469 104.097656 404.863281 103.980469 405.191406 103.980469 C 405.496094 103.980469 405.753906 104.097656 405.941406 104.308594 C 406.128906 104.519531 406.222656 104.800781 406.222656 105.152344 L 406.222656 105.644531 C 406.222656 106.019531 406.128906 106.300781 405.941406 106.535156 C 405.753906 106.746094 405.496094 106.839844 405.191406 106.839844 C 404.863281 106.839844 404.605469 106.746094 404.417969 106.535156 C 404.230469 106.300781 404.136719 106.019531 404.136719 105.667969 Z M 400.808594 106.769531 L 405.472656 99.292969 L 404.792969 98.847656 L 400.128906 106.347656 Z M 400.808594 106.769531 "/>
<path fill-rule="nonzero" fill="rgb(0%, 0%, 0%)" fill-opacity="1" d="M 464.171875 107.496094 L 464.171875 97.886719 L 463.984375 97.886719 L 460.492188 99.199219 L 460.492188 100.300781 L 462.953125 99.386719 L 462.953125 107.496094 Z M 464.171875 107.496094 "/>
<path fill-rule="nonzero" fill="rgb(0%, 0%, 0%)" fill-opacity="1" d="M 472.707031 103.417969 L 472.707031 101.847656 C 472.660156 100.464844 472.425781 99.457031 471.933594 98.800781 C 471.464844 98.121094 470.691406 97.792969 469.660156 97.792969 C 468.628906 97.792969 467.878906 98.144531 467.386719 98.824219 C 466.894531 99.503906 466.660156 100.558594 466.660156 101.964844 L 466.660156 103.582031 C 466.660156 104.917969 466.917969 105.949219 467.410156 106.628906 C 467.902344 107.285156 468.652344 107.636719 469.683594 107.636719 C 470.714844 107.636719 471.464844 107.285156 471.957031 106.605469 C 472.449219 105.902344 472.707031 104.847656 472.707031 103.417969 Z M 471.488281 101.753906 L 471.488281 103.746094 C 471.464844 104.753906 471.300781 105.480469 471.019531 105.949219 C 470.714844 106.417969 470.269531 106.628906 469.683594 106.628906 C 469.074219 106.628906 468.605469 106.394531 468.300781 105.902344 C 468.019531 105.410156 467.878906 104.636719 467.878906 103.605469 L 467.878906 101.660156 C 467.878906 100.699219 468.019531 99.972656 468.300781 99.503906 C 468.605469 99.058594 469.050781 98.800781 469.660156 98.800781 C 470.292969 98.800781 470.738281 99.058594 471.042969 99.503906 C 471.347656 99.972656 471.488281 100.722656 471.488281 101.753906 Z M 471.488281 101.753906 "/>
<path fill-rule="nonzero" fill="rgb(0%, 0%, 0%)" fill-opacity="1" d="M 480.519531 103.417969 L 480.519531 101.847656 C 480.472656 100.464844 480.238281 99.457031 479.746094 98.800781 C 479.277344 98.121094 478.503906 97.792969 477.472656 97.792969 C 476.441406 97.792969 475.691406 98.144531 475.199219 98.824219 C 474.707031 99.503906 474.472656 100.558594 474.472656 101.964844 L 474.472656 103.582031 C 474.472656 104.917969 474.730469 105.949219 475.222656 106.628906 C 475.714844 107.285156 476.464844 107.636719 477.496094 107.636719 C 478.527344 107.636719 479.277344 107.285156 479.769531 106.605469 C 480.261719 105.902344 480.519531 104.847656 480.519531 103.417969 Z M 479.300781 101.753906 L 479.300781 103.746094 C 479.277344 104.753906 479.113281 105.480469 478.832031 105.949219 C 478.527344 106.417969 478.082031 106.628906 477.496094 106.628906 C 476.886719 106.628906 476.417969 106.394531 476.113281 105.902344 C 475.832031 105.410156 475.691406 104.636719 475.691406 103.605469 L 475.691406 101.660156 C 475.691406 100.699219 475.832031 99.972656 476.113281 99.503906 C 476.417969 99.058594 476.863281 98.800781 477.472656 98.800781 C 478.105469 98.800781 478.550781 99.058594 478.855469 99.503906 C 479.160156 99.972656 479.300781 100.722656 479.300781 101.753906 Z M 479.300781 101.753906 "/>
<path fill-rule="nonzero" fill="rgb(0%, 0%, 0%)" fill-opacity="1" d="M 482.078125 99.785156 L 482.078125 100.230469 C 482.078125 100.839844 482.265625 101.332031 482.640625 101.707031 C 483.015625 102.058594 483.507812 102.246094 484.070312 102.246094 C 484.632812 102.246094 485.078125 102.058594 485.453125 101.683594 C 485.804688 101.332031 485.992188 100.839844 485.992188 100.277344 L 485.992188 99.808594 C 485.992188 99.222656 485.804688 98.730469 485.453125 98.355469 C 485.101562 97.980469 484.632812 97.792969 484.046875 97.792969 C 483.460938 97.792969 482.992188 97.980469 482.640625 98.355469 C 482.265625 98.730469 482.078125 99.199219 482.078125 99.785156 Z M 482.992188 100.277344 L 482.992188 99.808594 C 482.992188 99.457031 483.085938 99.152344 483.273438 98.917969 C 483.460938 98.707031 483.71875 98.589844 484.046875 98.589844 C 484.375 98.589844 484.632812 98.707031 484.820312 98.917969 C 485.007812 99.152344 485.101562 99.433594 485.101562 99.785156 L 485.101562 100.253906 C 485.101562 100.628906 485.007812 100.910156 484.820312 101.121094 C 484.632812 101.355469 484.375 101.449219 484.070312 101.449219 C 483.742188 101.449219 483.460938 101.355469 483.273438 101.121094 C 483.085938 100.910156 482.992188 100.628906 482.992188 100.277344 Z M 486.742188 105.152344 L 486.742188 105.621094 C 486.742188 106.253906 486.90625 106.722656 487.28125 107.097656 C 487.65625 107.449219 488.148438 107.636719 488.710938 107.636719 C 489.273438 107.636719 489.742188 107.449219 490.117188 107.074219 C 490.46875 106.722656 490.65625 106.253906 490.65625 105.667969 L 490.65625 105.199219 C 490.65625 104.589844 490.46875 104.097656 490.117188 103.722656 C 489.742188 103.371094 489.273438 103.183594 488.710938 103.183594 C 488.125 103.183594 487.65625 103.371094 487.28125 103.746094 C 486.90625 104.121094 486.742188 104.589844 486.742188 105.152344 Z M 487.65625 105.667969 L 487.65625 105.175781 C 487.65625 104.824219 487.75 104.519531 487.9375 104.308594 C 488.125 104.097656 488.382812 103.980469 488.710938 103.980469 C 489.015625 103.980469 489.273438 104.097656 489.460938 104.308594 C 489.648438 104.519531 489.742188 104.800781 489.742188 105.152344 L 489.742188 105.644531 C 489.742188 106.019531 489.648438 106.300781 489.460938 106.535156 C 489.273438 106.746094 489.015625 106.839844 488.710938 106.839844 C 488.382812 106.839844 488.125 106.746094 487.9375 106.535156 C 487.75 106.300781 487.65625 106.019531 487.65625 105.667969 Z M 484.328125 106.769531 L 488.992188 99.292969 L 488.3125 98.847656 L 483.648438 106.347656 Z M 484.328125 106.769531 "/>
<path fill-rule="nonzero" fill="rgb(0%, 0%, 0%)" fill-opacity="1" d="M 544.464844 107.496094 L 544.464844 97.886719 L 544.277344 97.886719 L 540.785156 99.199219 L 540.785156 100.300781 L 543.246094 99.386719 L 543.246094 107.496094 Z M 544.464844 107.496094 "/>
<path fill-rule="nonzero" fill="rgb(0%, 0%, 0%)" fill-opacity="1" d="M 553.113281 107.496094 L 553.113281 106.511719 L 548.308594 106.511719 L 550.863281 103.722656 C 552.082031 102.433594 552.667969 101.308594 552.667969 100.371094 C 552.667969 99.574219 552.410156 98.964844 551.894531 98.496094 C 551.378906 98.027344 550.675781 97.792969 549.808594 97.792969 C 548.847656 97.792969 548.074219 98.074219 547.511719 98.613281 C 546.949219 99.175781 546.667969 99.878906 546.667969 100.746094 L 547.886719 100.746094 C 547.886719 100.136719 548.050781 99.667969 548.378906 99.316406 C 548.730469 98.988281 549.199219 98.800781 549.808594 98.800781 C 550.300781 98.800781 550.699219 98.964844 551.003906 99.269531 C 551.285156 99.597656 551.449219 99.996094 551.449219 100.511719 C 551.449219 100.886719 551.355469 101.238281 551.167969 101.589844 C 550.980469 101.941406 550.652344 102.386719 550.160156 102.949219 L 546.855469 106.628906 L 546.855469 107.496094 Z M 553.113281 107.496094 "/>
<path fill-rule="nonzero" fill="rgb(0%, 0%, 0%)" fill-opacity="1" d="M 554.964844 102.714844 L 555.925781 102.949219 L 556.253906 102.691406 C 556.558594 102.457031 556.980469 102.339844 557.496094 102.339844 C 558.082031 102.339844 558.550781 102.550781 558.902344 102.925781 C 559.253906 103.300781 559.417969 103.816406 559.417969 104.449219 C 559.417969 105.152344 559.253906 105.691406 558.925781 106.066406 C 558.621094 106.441406 558.175781 106.628906 557.589844 106.628906 C 557.074219 106.628906 556.652344 106.511719 556.347656 106.207031 C 556.019531 105.949219 555.832031 105.527344 555.761719 104.988281 L 554.613281 104.988281 C 554.683594 105.808594 554.988281 106.464844 555.527344 106.933594 C 556.066406 107.402344 556.746094 107.636719 557.589844 107.636719 C 558.550781 107.636719 559.277344 107.355469 559.816406 106.792969 C 560.355469 106.207031 560.636719 105.433594 560.636719 104.449219 C 560.636719 103.464844 560.378906 102.691406 559.863281 102.105469 C 559.347656 101.542969 558.644531 101.261719 557.800781 101.261719 C 557.191406 101.261719 556.652344 101.378906 556.183594 101.660156 L 556.464844 99.058594 L 560.355469 99.058594 L 560.355469 97.933594 L 555.457031 97.933594 Z M 554.964844 102.714844 "/>
<path fill-rule="nonzero" fill="rgb(0%, 0%, 0%)" fill-opacity="1" d="M 561.828125 99.785156 L 561.828125 100.230469 C 561.828125 100.839844 562.015625 101.332031 562.390625 101.707031 C 562.765625 102.058594 563.257812 102.246094 563.820312 102.246094 C 564.382812 102.246094 564.828125 102.058594 565.203125 101.683594 C 565.554688 101.332031 565.742188 100.839844 565.742188 100.277344 L 565.742188 99.808594 C 565.742188 99.222656 565.554688 98.730469 565.203125 98.355469 C 564.851562 97.980469 564.382812 97.792969 563.796875 97.792969 C 563.210938 97.792969 562.742188 97.980469 562.390625 98.355469 C 562.015625 98.730469 561.828125 99.199219 561.828125 99.785156 Z M 562.742188 100.277344 L 562.742188 99.808594 C 562.742188 99.457031 562.835938 99.152344 563.023438 98.917969 C 563.210938 98.707031 563.46875 98.589844 563.796875 98.589844 C 564.125 98.589844 564.382812 98.707031 564.570312 98.917969 C 564.757812 99.152344 564.851562 99.433594 564.851562 99.785156 L 564.851562 100.253906 C 564.851562 100.628906 564.757812 100.910156 564.570312 101.121094 C 564.382812 101.355469 564.125 101.449219 563.820312 101.449219 C 563.492188 101.449219 563.210938 101.355469 563.023438 101.121094 C 562.835938 100.910156 562.742188 100.628906 562.742188 100.277344 Z M 566.492188 105.152344 L 566.492188 105.621094 C 566.492188 106.253906 566.65625 106.722656 567.03125 107.097656 C 567.40625 107.449219 567.898438 107.636719 568.460938 107.636719 C 569.023438 107.636719 569.492188 107.449219 569.867188 107.074219 C 570.21875 106.722656 570.40625 106.253906 570.40625 105.667969 L 570.40625 105.199219 C 570.40625 104.589844 570.21875 104.097656 569.867188 103.722656 C 569.492188 103.371094 569.023438 103.183594 568.460938 103.183594 C 567.875 103.183594 567.40625 103.371094 567.03125 103.746094 C 566.65625 104.121094 566.492188 104.589844 566.492188 105.152344 Z M 567.40625 105.667969 L 567.40625 105.175781 C 567.40625 104.824219 567.5 104.519531 567.6875 104.308594 C 567.875 104.097656 568.132812 103.980469 568.460938 103.980469 C 568.765625 103.980469 569.023438 104.097656 569.210938 104.308594 C 569.398438 104.519531 569.492188 104.800781 569.492188 105.152344 L 569.492188 105.644531 C 569.492188 106.019531 569.398438 106.300781 569.210938 106.535156 C 569.023438 106.746094 568.765625 106.839844 568.460938 106.839844 C 568.132812 106.839844 567.875 106.746094 567.6875 106.535156 C 567.5 106.300781 567.40625 106.019531 567.40625 105.667969 Z M 564.078125 106.769531 L 568.742188 99.292969 L 568.0625 98.847656 L 563.398438 106.347656 Z M 564.078125 106.769531 "/>
</svg>
