<?xml version="1.0" encoding="UTF-8"?>
<svg xmlns="http://www.w3.org/2000/svg" xmlns:xlink="http://www.w3.org/1999/xlink" width="663.311256" height="135.448254" viewBox="0 0 663.311256 135.448254">
<path fill="none" stroke-width="0.74721" stroke-linecap="butt" stroke-linejoin="round" stroke="rgb(0%, 0%, 0%)" stroke-opacity="1" stroke-miterlimit="10" d="M -0.00196184 -0.000534875 L 299.888663 -0.000534875 " transform="matrix(1.75, 0, 0, -1.75, 128.292496, 36.303751)"/>
<path fill-rule="nonzero" fill="rgb(0%, 0%, 0%)" fill-opacity="1" d="M 657.5 36.304688 L 650.453125 32.785156 L 653.097656 36.304688 L 650.453125 39.824219 "/>
<path fill-rule="nonzero" fill="rgb(0%, 0%, 0%)" fill-opacity="1" d="M 15.238281 40.617188 C 14.335938 40.617188 13.652344 40.316406 13.1875 39.6875 C 12.695312 39.058594 12.476562 38.15625 12.476562 36.980469 L 12.476562 36.652344 C 12.476562 35.476562 12.695312 34.546875 13.1875 33.917969 C 13.679688 33.289062 14.363281 32.960938 15.238281 32.960938 C 15.894531 32.960938 16.441406 33.152344 16.90625 33.589844 C 17.34375 34 17.589844 34.546875 17.644531 35.203125 L 19.257812 35.203125 C 19.203125 34.109375 18.820312 33.234375 18.054688 32.550781 C 17.316406 31.867188 16.386719 31.539062 15.238281 31.539062 C 14.335938 31.539062 13.515625 31.757812 12.859375 32.167969 C 12.148438 32.578125 11.628906 33.207031 11.273438 33.972656 C 10.917969 34.738281 10.753906 35.613281 10.753906 36.597656 L 10.753906 36.871094 C 10.753906 38.484375 11.136719 39.742188 11.957031 40.671875 C 12.75 41.574219 13.871094 42.039062 15.238281 42.039062 C 15.949219 42.039062 16.578125 41.875 17.207031 41.574219 C 17.808594 41.273438 18.300781 40.863281 18.683594 40.316406 C 19.039062 39.769531 19.230469 39.222656 19.257812 38.648438 L 17.644531 38.648438 C 17.589844 39.222656 17.316406 39.6875 16.851562 40.070312 C 16.386719 40.453125 15.867188 40.617188 15.238281 40.617188 Z M 15.238281 40.617188 "/>
<path fill-rule="nonzero" fill="rgb(0%, 0%, 0%)" fill-opacity="1" d="M 27.484375 41.847656 L 29.289062 41.847656 L 29.289062 41.683594 C 29.042969 41.164062 28.933594 40.398438 28.933594 39.46875 L 28.933594 34.820312 C 28.90625 33.808594 28.550781 32.988281 27.894531 32.414062 C 27.238281 31.839844 26.308594 31.539062 25.160156 31.539062 C 24.421875 31.539062 23.738281 31.675781 23.136719 31.949219 C 22.507812 32.222656 22.015625 32.605469 21.660156 33.070312 C 21.304688 33.535156 21.140625 34.027344 21.140625 34.519531 L 22.890625 34.519531 C 22.890625 34.082031 23.082031 33.699219 23.519531 33.398438 C 23.929688 33.097656 24.449219 32.933594 25.078125 32.933594 C 25.761719 32.933594 26.28125 33.125 26.664062 33.480469 C 26.992188 33.835938 27.183594 34.328125 27.183594 34.902344 L 27.183594 35.722656 L 25.515625 35.722656 C 24.039062 35.722656 22.945312 36.023438 22.125 36.597656 C 21.332031 37.171875 20.921875 37.992188 20.921875 39.058594 C 20.921875 39.90625 21.222656 40.617188 21.878906 41.191406 C 22.507812 41.765625 23.328125 42.039062 24.339844 42.039062 C 25.460938 42.039062 26.417969 41.628906 27.238281 40.78125 C 27.292969 41.300781 27.375 41.65625 27.484375 41.847656 Z M 24.613281 40.535156 C 24.039062 40.535156 23.574219 40.371094 23.21875 40.070312 C 22.835938 39.769531 22.671875 39.332031 22.671875 38.8125 C 22.671875 37.582031 23.710938 36.953125 25.84375 36.953125 L 27.183594 36.953125 L 27.183594 39.003906 C 26.964844 39.46875 26.609375 39.824219 26.144531 40.097656 C 25.652344 40.398438 25.132812 40.535156 24.613281 40.535156 Z M 24.613281 40.535156 "/>
<path fill-rule="nonzero" fill="rgb(0%, 0%, 0%)" fill-opacity="1" d="M 33.523438 41.847656 L 33.523438 27.464844 L 31.773438 27.464844 L 31.773438 41.847656 Z M 33.523438 41.847656 "/>
<path fill-rule="nonzero" fill="rgb(0%, 0%, 0%)" fill-opacity="1" d="M 40.324219 40.617188 C 39.421875 40.617188 38.738281 40.316406 38.273438 39.6875 C 37.78125 39.058594 37.5625 38.15625 37.5625 36.980469 L 37.5625 36.652344 C 37.5625 35.476562 37.78125 34.546875 38.273438 33.917969 C 38.765625 33.289062 39.449219 32.960938 40.324219 32.960938 C 40.980469 32.960938 41.527344 33.152344 41.992188 33.589844 C 42.429688 34 42.675781 34.546875 42.730469 35.203125 L 44.34375 35.203125 C 44.289062 34.109375 43.90625 33.234375 43.140625 32.550781 C 42.402344 31.867188 41.472656 31.539062 40.324219 31.539062 C 39.421875 31.539062 38.601562 31.757812 37.945312 32.167969 C 37.234375 32.578125 36.714844 33.207031 36.359375 33.972656 C 36.003906 34.738281 35.839844 35.613281 35.839844 36.597656 L 35.839844 36.871094 C 35.839844 38.484375 36.222656 39.742188 37.042969 40.671875 C 37.835938 41.574219 38.957031 42.039062 40.324219 42.039062 C 41.035156 42.039062 41.664062 41.875 42.292969 41.574219 C 42.894531 41.273438 43.386719 40.863281 43.769531 40.316406 C 44.125 39.769531 44.316406 39.222656 44.34375 38.648438 L 42.730469 38.648438 C 42.675781 39.222656 42.402344 39.6875 41.9375 40.070312 C 41.472656 40.453125 40.953125 40.617188 40.324219 40.617188 Z M 40.324219 40.617188 "/>
<path fill-rule="nonzero" fill="rgb(0%, 0%, 0%)" fill-opacity="1" d="M 48.191406 41.847656 L 48.191406 31.730469 L 46.441406 31.730469 L 46.441406 41.847656 Z M 46.304688 29.050781 C 46.304688 29.324219 46.386719 29.570312 46.550781 29.761719 C 46.742188 29.953125 46.988281 30.007812 47.34375 30.007812 C 47.644531 30.007812 47.917969 29.953125 48.109375 29.761719 C 48.273438 29.570312 48.355469 29.324219 48.355469 29.050781 C 48.355469 28.777344 48.273438 28.53125 48.109375 28.339844 C 47.917969 28.148438 47.644531 28.039062 47.34375 28.039062 C 46.988281 28.039062 46.742188 28.148438 46.550781 28.339844 C 46.386719 28.53125 46.304688 28.777344 46.304688 29.050781 Z M 46.304688 29.050781 "/>
<path fill-rule="nonzero" fill="rgb(0%, 0%, 0%)" fill-opacity="1" d="M 50.484375 36.679688 L 50.484375 36.816406 C 50.484375 38.375 50.894531 39.632812 51.769531 40.589844 C 52.617188 41.546875 53.710938 42.039062 55.105469 42.039062 C 56.007812 42.039062 56.800781 41.820312 57.511719 41.382812 C 58.195312 40.945312 58.742188 40.34375 59.125 39.550781 C 59.507812 38.785156 59.699219 37.910156 59.699219 36.898438 L 59.699219 36.761719 C 59.699219 35.203125 59.261719 33.917969 58.414062 32.960938 C 57.566406 32.003906 56.472656 31.539062 55.078125 31.539062 C 54.175781 31.539062 53.382812 31.757812 52.671875 32.195312 C 51.988281 32.605469 51.441406 33.234375 51.058594 34 C 50.675781 34.820312 50.484375 35.695312 50.484375 36.679688 Z M 52.234375 36.898438 C 52.234375 35.640625 52.480469 34.683594 53 34 C 53.519531 33.289062 54.230469 32.960938 55.078125 32.960938 C 55.953125 32.960938 56.664062 33.289062 57.183594 34 C 57.703125 34.683594 57.976562 35.585938 57.976562 36.679688 C 57.976562 37.9375 57.703125 38.894531 57.183594 39.578125 C 56.664062 40.289062 55.980469 40.617188 55.105469 40.617188 C 54.230469 40.617188 53.519531 40.289062 53 39.605469 C 52.480469 38.921875 52.234375 38.046875 52.234375 36.898438 Z M 52.234375 36.898438 "/>
<path fill-rule="nonzero" fill="rgb(0%, 0%, 0%)" fill-opacity="1" d="M 66.5625 36.296875 C 66.5625 39.25 67.273438 41.820312 68.75 43.925781 C 69.515625 45.019531 70.28125 45.785156 71.128906 46.25 L 71.484375 45.183594 C 70.773438 44.582031 70.144531 43.761719 69.597656 42.695312 C 68.722656 40.917969 68.285156 38.839844 68.285156 36.433594 L 68.285156 35.640625 C 68.339844 33.863281 68.667969 32.25 69.242188 30.828125 C 69.816406 29.378906 70.582031 28.3125 71.484375 27.601562 L 71.128906 26.480469 C 70.335938 26.917969 69.542969 27.65625 68.804688 28.722656 C 68.039062 29.789062 67.492188 30.964844 67.109375 32.25 C 66.726562 33.5625 66.5625 34.902344 66.5625 36.296875 Z M 66.5625 36.296875 "/>
<path fill-rule="nonzero" fill="rgb(0%, 0%, 0%)" fill-opacity="1" d="M 74.769531 31.730469 L 73.15625 31.730469 L 73.15625 41.847656 L 74.878906 41.847656 L 74.878906 34.4375 C 75.289062 33.480469 76.054688 33.015625 77.203125 33.015625 C 78.652344 33.015625 79.363281 33.753906 79.363281 35.203125 L 79.363281 41.847656 L 81.113281 41.847656 L 81.113281 35.121094 C 81.167969 34.492188 81.441406 33.972656 81.851562 33.589844 C 82.261719 33.207031 82.78125 33.015625 83.4375 33.015625 C 84.230469 33.015625 84.777344 33.207031 85.105469 33.535156 C 85.433594 33.890625 85.597656 34.4375 85.597656 35.148438 L 85.597656 41.847656 L 87.347656 41.847656 L 87.347656 35.066406 C 87.320312 32.714844 86.171875 31.539062 83.957031 31.539062 C 83.21875 31.539062 82.5625 31.675781 82.015625 32.003906 C 81.496094 32.304688 81.03125 32.6875 80.730469 33.152344 C 80.210938 32.085938 79.253906 31.539062 77.832031 31.539062 C 76.546875 31.539062 75.5625 31.976562 74.824219 32.851562 Z M 74.769531 31.730469 "/>
<path fill-rule="nonzero" fill="rgb(0%, 0%, 0%)" fill-opacity="1" d="M 89.546875 36.679688 C 89.546875 38.347656 89.902344 39.632812 90.640625 40.589844 C 91.378906 41.546875 92.335938 42.039062 93.511719 42.039062 C 94.714844 42.039062 95.671875 41.628906 96.355469 40.835938 L 96.355469 41.710938 C 96.355469 42.585938 96.109375 43.242188 95.644531 43.707031 C 95.179688 44.199219 94.523438 44.417969 93.675781 44.417969 C 92.609375 44.417969 91.679688 43.953125 90.96875 43.023438 L 90.066406 44.089844 C 90.421875 44.636719 90.96875 45.074219 91.652344 45.375 C 92.335938 45.675781 93.074219 45.839844 93.8125 45.839844 C 95.097656 45.839844 96.164062 45.457031 96.929688 44.691406 C 97.695312 43.953125 98.105469 42.914062 98.105469 41.601562 L 98.105469 31.730469 L 96.519531 31.730469 L 96.4375 32.851562 C 95.726562 31.976562 94.769531 31.539062 93.539062 31.539062 C 92.335938 31.539062 91.378906 32.003906 90.640625 32.933594 C 89.902344 33.863281 89.546875 35.121094 89.546875 36.679688 Z M 91.296875 36.898438 C 91.296875 35.613281 91.515625 34.628906 92.007812 34 C 92.445312 33.34375 93.128906 33.015625 93.976562 33.015625 C 95.015625 33.015625 95.808594 33.480469 96.355469 34.4375 L 96.355469 39.058594 C 95.835938 40.070312 95.015625 40.5625 93.949219 40.5625 C 93.101562 40.5625 92.445312 40.234375 91.980469 39.578125 C 91.515625 38.921875 91.296875 38.046875 91.296875 36.898438 Z M 91.296875 36.898438 "/>
<path fill-rule="nonzero" fill="rgb(0%, 0%, 0%)" fill-opacity="1" d="M 104.707031 36.40625 C 104.707031 34.957031 104.515625 33.5625 104.160156 32.277344 C 103.777344 30.992188 103.203125 29.816406 102.464844 28.75 C 101.726562 27.710938 100.933594 26.945312 100.140625 26.480469 L 99.757812 27.519531 C 100.359375 28.039062 100.90625 28.75 101.398438 29.625 C 101.890625 30.527344 102.273438 31.539062 102.546875 32.660156 C 102.820312 33.753906 102.957031 34.984375 102.957031 36.296875 L 102.957031 36.597656 C 102.957031 38.484375 102.628906 40.207031 102.054688 41.738281 C 101.480469 43.296875 100.714844 44.445312 99.757812 45.183594 L 100.140625 46.25 C 100.933594 45.785156 101.726562 45.019531 102.492188 43.953125 C 103.230469 42.886719 103.804688 41.683594 104.160156 40.398438 C 104.515625 39.140625 104.707031 37.800781 104.707031 36.40625 Z M 104.707031 36.40625 "/>
<path fill="none" stroke-width="0.3487" stroke-linecap="round" stroke-linejoin="round" stroke="rgb(0%, 0%, 0%)" stroke-opacity="1" stroke-miterlimit="10" d="M 8.502502 -3.48491 L 8.502502 3.486072 Z M 8.502502 -3.48491 " transform="matrix(1.75, 0, 0, -1.75, 128.292496, 36.303751)"/>
<path fill="none" stroke-width="0.3487" stroke-linecap="round" stroke-linejoin="round" stroke="rgb(0%, 0%, 0%)" stroke-opacity="1" stroke-miterlimit="10" d="M 78.790449 -3.48491 L 78.790449 3.486072 Z M 78.790449 -3.48491 " transform="matrix(1.75, 0, 0, -1.75, 128.292496, 36.303751)"/>
<path fill="none" stroke-width="0.3487" stroke-linecap="round" stroke-linejoin="round" stroke="rgb(0%, 0%, 0%)" stroke-opacity="1" stroke-miterlimit="10" d="M 149.076163 -3.48491 L 149.076163 3.486072 Z M 149.076163 -3.48491 " transform="matrix(1.75, 0, 0, -1.75, 128.292496, 36.303751)"/>
<path fill="none" stroke-width="0.3487" stroke-linecap="round" stroke-linejoin="round" stroke="rgb(0%, 0%, 0%)" stroke-opacity="1" stroke-miterlimit="10" d="M 219.361877 -3.48491 L 219.361877 3.486072 Z M 219.361877 -3.48491 " transform="matrix(1.75, 0, 0, -1.75, 128.292496, 36.303751)"/>
<path fill="none" stroke-width="0.3487" stroke-linecap="round" stroke-linejoin="round" stroke="rgb(0%, 0%, 0%)" stroke-opacity="1" stroke-miterlimit="10" d="M 289.647592 -3.48491 L 289.647592 3.486072 Z M 289.647592 -3.48491 " transform="matrix(1.75, 0, 0, -1.75, 128.292496, 36.303751)"/>
<path fill-rule="nonzero" fill="rgb(0%, 0%, 0%)" fill-opacity="1" d="M 146.710938 16.355469 L 146.710938 14.523438 C 146.65625 12.910156 146.382812 11.734375 145.808594 10.96875 C 145.261719 10.175781 144.359375 9.792969 143.15625 9.792969 C 141.953125 9.792969 141.078125 10.203125 140.503906 10.996094 C 139.929688 11.789062 139.65625 13.019531 139.65625 14.660156 L 139.65625 16.546875 C 139.65625 18.105469 139.957031 19.308594 140.53125 20.101562 C 141.105469 20.867188 141.980469 21.277344 143.183594 21.277344 C 144.386719 21.277344 145.261719 20.867188 145.835938 20.074219 C 146.410156 19.253906 146.710938 18.023438 146.710938 16.355469 Z M 145.289062 14.414062 L 145.289062 16.738281 C 145.261719 17.914062 145.070312 18.761719 144.742188 19.308594 C 144.386719 19.855469 143.867188 20.101562 143.183594 20.101562 C 142.472656 20.101562 141.925781 19.828125 141.570312 19.253906 C 141.242188 18.679688 141.078125 17.777344 141.078125 16.574219 L 141.078125 14.304688 C 141.078125 13.183594 141.242188 12.335938 141.570312 11.789062 C 141.925781 11.269531 142.445312 10.96875 143.15625 10.96875 C 143.894531 10.96875 144.414062 11.269531 144.769531 11.789062 C 145.125 12.335938 145.289062 13.210938 145.289062 14.414062 Z M 145.289062 14.414062 "/>
<path fill-rule="nonzero" fill="rgb(0%, 0%, 0%)" fill-opacity="1" d="M 255.636719 14.851562 L 255.636719 16 L 256.703125 16 C 257.46875 16 258.015625 16.191406 258.425781 16.546875 C 258.835938 16.902344 259.027344 17.394531 259.027344 18.023438 C 259.027344 18.707031 258.835938 19.226562 258.480469 19.582031 C 258.097656 19.9375 257.578125 20.101562 256.921875 20.101562 C 256.265625 20.101562 255.746094 19.9375 255.363281 19.582031 C 255.007812 19.226562 254.816406 18.761719 254.816406 18.160156 L 253.367188 18.160156 C 253.367188 19.089844 253.695312 19.855469 254.351562 20.429688 C 255.007812 20.976562 255.855469 21.277344 256.921875 21.277344 C 257.960938 21.277344 258.808594 20.976562 259.464844 20.402344 C 260.121094 19.800781 260.449219 19.007812 260.449219 17.996094 C 260.449219 17.367188 260.285156 16.820312 259.957031 16.355469 C 259.601562 15.917969 259.136719 15.589844 258.535156 15.371094 C 259.054688 15.152344 259.492188 14.824219 259.820312 14.359375 C 260.121094 13.921875 260.285156 13.429688 260.285156 12.964844 C 260.285156 11.980469 259.984375 11.214844 259.382812 10.640625 C 258.78125 10.066406 257.960938 9.792969 256.921875 9.792969 C 255.910156 9.792969 255.089844 10.09375 254.433594 10.695312 C 253.777344 11.296875 253.476562 12.007812 253.476562 12.882812 L 254.898438 12.882812 C 254.898438 12.308594 255.0625 11.84375 255.445312 11.488281 C 255.800781 11.160156 256.292969 10.96875 256.921875 10.96875 C 258.207031 10.96875 258.863281 11.625 258.863281 12.9375 C 258.863281 13.511719 258.671875 13.976562 258.289062 14.304688 C 257.90625 14.660156 257.359375 14.851562 256.703125 14.851562 Z M 255.636719 14.851562 "/>
<path fill-rule="nonzero" fill="rgb(0%, 0%, 0%)" fill-opacity="1" d="M 269.550781 16.355469 L 269.550781 14.523438 C 269.496094 12.910156 269.222656 11.734375 268.648438 10.96875 C 268.101562 10.175781 267.199219 9.792969 265.996094 9.792969 C 264.792969 9.792969 263.917969 10.203125 263.34375 10.996094 C 262.769531 11.789062 262.496094 13.019531 262.496094 14.660156 L 262.496094 16.546875 C 262.496094 18.105469 262.796875 19.308594 263.371094 20.101562 C 263.945312 20.867188 264.820312 21.277344 266.023438 21.277344 C 267.226562 21.277344 268.101562 20.867188 268.675781 20.074219 C 269.25 19.253906 269.550781 18.023438 269.550781 16.355469 Z M 268.128906 14.414062 L 268.128906 16.738281 C 268.101562 17.914062 267.910156 18.761719 267.582031 19.308594 C 267.226562 19.855469 266.707031 20.101562 266.023438 20.101562 C 265.3125 20.101562 264.765625 19.828125 264.410156 19.253906 C 264.082031 18.679688 263.917969 17.777344 263.917969 16.574219 L 263.917969 14.304688 C 263.917969 13.183594 264.082031 12.335938 264.410156 11.789062 C 264.765625 11.269531 265.285156 10.96875 265.996094 10.96875 C 266.734375 10.96875 267.253906 11.269531 267.609375 11.789062 C 267.964844 12.335938 268.128906 13.210938 268.128906 14.414062 Z M 268.128906 14.414062 "/>
<path fill-rule="nonzero" fill="rgb(0%, 0%, 0%)" fill-opacity="1" d="M 278.667969 16.355469 L 278.667969 14.523438 C 278.613281 12.910156 278.339844 11.734375 277.765625 10.96875 C 277.21875 10.175781 276.316406 9.792969 275.113281 9.792969 C 273.910156 9.792969 273.035156 10.203125 272.460938 10.996094 C 271.886719 11.789062 271.613281 13.019531 271.613281 14.660156 L 271.613281 16.546875 C 271.613281 18.105469 271.914062 19.308594 272.488281 20.101562 C 273.0625 20.867188 273.9375 21.277344 275.140625 21.277344 C 276.34375 21.277344 277.21875 20.867188 277.792969 20.074219 C 278.367188 19.253906 278.667969 18.023438 278.667969 16.355469 Z M 277.246094 14.414062 L 277.246094 16.738281 C 277.21875 17.914062 277.027344 18.761719 276.699219 19.308594 C 276.34375 19.855469 275.824219 20.101562 275.140625 20.101562 C 274.429688 20.101562 273.882812 19.828125 273.527344 19.253906 C 273.199219 18.679688 273.035156 17.777344 273.035156 16.574219 L 273.035156 14.304688 C 273.035156 13.183594 273.199219 12.335938 273.527344 11.789062 C 273.882812 11.269531 274.402344 10.96875 275.113281 10.96875 C 275.851562 10.96875 276.371094 11.269531 276.726562 11.789062 C 277.082031 12.335938 277.246094 13.210938 277.246094 14.414062 Z M 277.246094 14.414062 "/>
<path fill-rule="nonzero" fill="rgb(0%, 0%, 0%)" fill-opacity="1" d="M 382.160156 9.957031 L 381.886719 9.957031 C 380.164062 9.984375 378.851562 10.53125 377.976562 11.625 C 377.101562 12.71875 376.664062 14.277344 376.664062 16.328125 L 376.664062 16.847656 C 376.664062 18.160156 376.992188 19.226562 377.648438 20.046875 C 378.304688 20.867188 379.179688 21.277344 380.246094 21.277344 C 381.3125 21.277344 382.160156 20.921875 382.789062 20.238281 C 383.417969 19.554688 383.71875 18.625 383.71875 17.476562 C 383.71875 16.410156 383.417969 15.535156 382.84375 14.824219 C 382.269531 14.140625 381.503906 13.8125 380.519531 13.8125 C 379.507812 13.8125 378.6875 14.140625 378.113281 14.796875 C 378.222656 13.648438 378.578125 12.773438 379.234375 12.144531 C 379.917969 11.515625 380.792969 11.1875 381.886719 11.160156 L 382.160156 11.160156 Z M 380.273438 14.988281 C 380.902344 14.988281 381.394531 15.207031 381.75 15.671875 C 382.105469 16.164062 382.296875 16.792969 382.296875 17.53125 C 382.296875 18.296875 382.105469 18.925781 381.75 19.390625 C 381.394531 19.855469 380.875 20.101562 380.246094 20.101562 C 379.617188 20.101562 379.097656 19.828125 378.6875 19.253906 C 378.277344 18.707031 378.085938 17.96875 378.085938 17.039062 L 378.085938 16.519531 C 378.25 16.082031 378.523438 15.726562 378.933594 15.425781 C 379.34375 15.125 379.808594 14.988281 380.273438 14.988281 Z M 380.273438 14.988281 "/>
<path fill-rule="nonzero" fill="rgb(0%, 0%, 0%)" fill-opacity="1" d="M 392.550781 16.355469 L 392.550781 14.523438 C 392.496094 12.910156 392.222656 11.734375 391.648438 10.96875 C 391.101562 10.175781 390.199219 9.792969 388.996094 9.792969 C 387.792969 9.792969 386.917969 10.203125 386.34375 10.996094 C 385.769531 11.789062 385.496094 13.019531 385.496094 14.660156 L 385.496094 16.546875 C 385.496094 18.105469 385.796875 19.308594 386.371094 20.101562 C 386.945312 20.867188 387.820312 21.277344 389.023438 21.277344 C 390.226562 21.277344 391.101562 20.867188 391.675781 20.074219 C 392.25 19.253906 392.550781 18.023438 392.550781 16.355469 Z M 391.128906 14.414062 L 391.128906 16.738281 C 391.101562 17.914062 390.910156 18.761719 390.582031 19.308594 C 390.226562 19.855469 389.707031 20.101562 389.023438 20.101562 C 388.3125 20.101562 387.765625 19.828125 387.410156 19.253906 C 387.082031 18.679688 386.917969 17.777344 386.917969 16.574219 L 386.917969 14.304688 C 386.917969 13.183594 387.082031 12.335938 387.410156 11.789062 C 387.765625 11.269531 388.285156 10.96875 388.996094 10.96875 C 389.734375 10.96875 390.253906 11.269531 390.609375 11.789062 C 390.964844 12.335938 391.128906 13.210938 391.128906 14.414062 Z M 391.128906 14.414062 "/>
<path fill-rule="nonzero" fill="rgb(0%, 0%, 0%)" fill-opacity="1" d="M 401.667969 16.355469 L 401.667969 14.523438 C 401.613281 12.910156 401.339844 11.734375 400.765625 10.96875 C 400.21875 10.175781 399.316406 9.792969 398.113281 9.792969 C 396.910156 9.792969 396.035156 10.203125 395.460938 10.996094 C 394.886719 11.789062 394.613281 13.019531 394.613281 14.660156 L 394.613281 16.546875 C 394.613281 18.105469 394.914062 19.308594 395.488281 20.101562 C 396.0625 20.867188 396.9375 21.277344 398.140625 21.277344 C 399.34375 21.277344 400.21875 20.867188 400.792969 20.074219 C 401.367188 19.253906 401.667969 18.023438 401.667969 16.355469 Z M 400.246094 14.414062 L 400.246094 16.738281 C 400.21875 17.914062 400.027344 18.761719 399.699219 19.308594 C 399.34375 19.855469 398.824219 20.101562 398.140625 20.101562 C 397.429688 20.101562 396.882812 19.828125 396.527344 19.253906 C 396.199219 18.679688 396.035156 17.777344 396.035156 16.574219 L 396.035156 14.304688 C 396.035156 13.183594 396.199219 12.335938 396.527344 11.789062 C 396.882812 11.269531 397.402344 10.96875 398.113281 10.96875 C 398.851562 10.96875 399.371094 11.269531 399.726562 11.789062 C 400.082031 12.335938 400.246094 13.210938 400.246094 14.414062 Z M 400.246094 14.414062 "/>
<path fill-rule="nonzero" fill="rgb(0%, 0%, 0%)" fill-opacity="1" d="M 504.917969 16.21875 C 504.863281 17.503906 504.535156 18.433594 503.90625 19.007812 C 503.277344 19.609375 502.375 19.910156 501.199219 19.910156 L 500.925781 19.910156 L 500.925781 21.113281 L 501.199219 21.113281 C 502.921875 21.085938 504.207031 20.59375 505.082031 19.582031 C 505.929688 18.597656 506.367188 17.011719 506.367188 14.824219 L 506.367188 14.414062 C 506.367188 12.992188 506.039062 11.871094 505.410156 11.023438 C 504.753906 10.230469 503.90625 9.792969 502.785156 9.792969 C 502.101562 9.792969 501.5 9.957031 500.980469 10.285156 C 500.433594 10.585938 500.050781 11.050781 499.777344 11.652344 C 499.476562 12.253906 499.339844 12.910156 499.339844 13.648438 C 499.339844 14.359375 499.476562 15.015625 499.722656 15.5625 C 499.996094 16.164062 500.351562 16.601562 500.84375 16.902344 C 501.308594 17.230469 501.855469 17.367188 502.511719 17.367188 C 503.003906 17.367188 503.46875 17.285156 503.851562 17.066406 C 504.261719 16.847656 504.644531 16.574219 504.917969 16.21875 Z M 502.757812 16.21875 C 502.128906 16.21875 501.636719 15.972656 501.28125 15.480469 C 500.925781 14.988281 500.734375 14.359375 500.734375 13.59375 C 500.734375 12.800781 500.925781 12.171875 501.308594 11.707031 C 501.691406 11.214844 502.183594 10.96875 502.8125 10.96875 C 503.414062 10.96875 503.933594 11.269531 504.34375 11.84375 C 504.753906 12.445312 504.945312 13.210938 504.945312 14.140625 L 504.945312 14.6875 C 504.753906 15.125 504.453125 15.507812 504.042969 15.78125 C 503.632812 16.082031 503.222656 16.21875 502.757812 16.21875 Z M 502.757812 16.21875 "/>
<path fill-rule="nonzero" fill="rgb(0%, 0%, 0%)" fill-opacity="1" d="M 515.625 16.355469 L 515.625 14.523438 C 515.570312 12.910156 515.296875 11.734375 514.722656 10.96875 C 514.175781 10.175781 513.273438 9.792969 512.070312 9.792969 C 510.867188 9.792969 509.992188 10.203125 509.417969 10.996094 C 508.84375 11.789062 508.570312 13.019531 508.570312 14.660156 L 508.570312 16.546875 C 508.570312 18.105469 508.871094 19.308594 509.445312 20.101562 C 510.019531 20.867188 510.894531 21.277344 512.097656 21.277344 C 513.300781 21.277344 514.175781 20.867188 514.75 20.074219 C 515.324219 19.253906 515.625 18.023438 515.625 16.355469 Z M 514.203125 14.414062 L 514.203125 16.738281 C 514.175781 17.914062 513.984375 18.761719 513.65625 19.308594 C 513.300781 19.855469 512.78125 20.101562 512.097656 20.101562 C 511.386719 20.101562 510.839844 19.828125 510.484375 19.253906 C 510.15625 18.679688 509.992188 17.777344 509.992188 16.574219 L 509.992188 14.304688 C 509.992188 13.183594 510.15625 12.335938 510.484375 11.789062 C 510.839844 11.269531 511.359375 10.96875 512.070312 10.96875 C 512.808594 10.96875 513.328125 11.269531 513.683594 11.789062 C 514.039062 12.335938 514.203125 13.210938 514.203125 14.414062 Z M 514.203125 14.414062 "/>
<path fill-rule="nonzero" fill="rgb(0%, 0%, 0%)" fill-opacity="1" d="M 524.742188 16.355469 L 524.742188 14.523438 C 524.6875 12.910156 524.414062 11.734375 523.839844 10.96875 C 523.292969 10.175781 522.390625 9.792969 521.1875 9.792969 C 519.984375 9.792969 519.109375 10.203125 518.535156 10.996094 C 517.960938 11.789062 517.6875 13.019531 517.6875 14.660156 L 517.6875 16.546875 C 517.6875 18.105469 517.988281 19.308594 518.5625 20.101562 C 519.136719 20.867188 520.011719 21.277344 521.214844 21.277344 C 522.417969 21.277344 523.292969 20.867188 523.867188 20.074219 C 524.441406 19.253906 524.742188 18.023438 524.742188 16.355469 Z M 523.320312 14.414062 L 523.320312 16.738281 C 523.292969 17.914062 523.101562 18.761719 522.773438 19.308594 C 522.417969 19.855469 521.898438 20.101562 521.214844 20.101562 C 520.503906 20.101562 519.957031 19.828125 519.601562 19.253906 C 519.273438 18.679688 519.109375 17.777344 519.109375 16.574219 L 519.109375 14.304688 C 519.109375 13.183594 519.273438 12.335938 519.601562 11.789062 C 519.957031 11.269531 520.476562 10.96875 521.1875 10.96875 C 521.925781 10.96875 522.445312 11.269531 522.800781 11.789062 C 523.15625 12.335938 523.320312 13.210938 523.320312 14.414062 Z M 523.320312 14.414062 "/>
<path fill-rule="nonzero" fill="rgb(0%, 0%, 0%)" fill-opacity="1" d="M 623.195312 21.113281 L 623.195312 9.902344 L 622.976562 9.902344 L 618.902344 11.433594 L 618.902344 12.71875 L 621.773438 11.652344 L 621.773438 21.113281 Z M 623.195312 21.113281 "/>
<path fill-rule="nonzero" fill="rgb(0%, 0%, 0%)" fill-opacity="1" d="M 633.285156 21.113281 L 633.285156 19.964844 L 627.679688 19.964844 L 630.660156 16.710938 C 632.082031 15.207031 632.765625 13.894531 632.765625 12.800781 C 632.765625 11.871094 632.464844 11.160156 631.863281 10.613281 C 631.261719 10.066406 630.441406 9.792969 629.429688 9.792969 C 628.308594 9.792969 627.40625 10.121094 626.75 10.75 C 626.09375 11.40625 625.765625 12.226562 625.765625 13.238281 L 627.1875 13.238281 C 627.1875 12.527344 627.378906 11.980469 627.761719 11.570312 C 628.171875 11.1875 628.71875 10.96875 629.429688 10.96875 C 630.003906 10.96875 630.46875 11.160156 630.824219 11.515625 C 631.152344 11.898438 631.34375 12.363281 631.34375 12.964844 C 631.34375 13.402344 631.234375 13.8125 631.015625 14.222656 C 630.796875 14.632812 630.414062 15.152344 629.839844 15.808594 L 625.984375 20.101562 L 625.984375 21.113281 Z M 633.285156 21.113281 "/>
<path fill-rule="nonzero" fill="rgb(0%, 0%, 0%)" fill-opacity="1" d="M 641.953125 16.355469 L 641.953125 14.523438 C 641.898438 12.910156 641.625 11.734375 641.050781 10.96875 C 640.503906 10.175781 639.601562 9.792969 638.398438 9.792969 C 637.195312 9.792969 636.320312 10.203125 635.746094 10.996094 C 635.171875 11.789062 634.898438 13.019531 634.898438 14.660156 L 634.898438 16.546875 C 634.898438 18.105469 635.199219 19.308594 635.773438 20.101562 C 636.347656 20.867188 637.222656 21.277344 638.425781 21.277344 C 639.628906 21.277344 640.503906 20.867188 641.078125 20.074219 C 641.652344 19.253906 641.953125 18.023438 641.953125 16.355469 Z M 640.53125 14.414062 L 640.53125 16.738281 C 640.503906 17.914062 640.3125 18.761719 639.984375 19.308594 C 639.628906 19.855469 639.109375 20.101562 638.425781 20.101562 C 637.714844 20.101562 637.167969 19.828125 636.8125 19.253906 C 636.484375 18.679688 636.320312 17.777344 636.320312 16.574219 L 636.320312 14.304688 C 636.320312 13.183594 636.484375 12.335938 636.8125 11.789062 C 637.167969 11.269531 637.6875 10.96875 638.398438 10.96875 C 639.136719 10.96875 639.65625 11.269531 640.011719 11.789062 C 640.367188 12.335938 640.53125 13.210938 640.53125 14.414062 Z M 640.53125 14.414062 "/>
<path fill-rule="nonzero" fill="rgb(0%, 0%, 0%)" fill-opacity="1" d="M 651.066406 16.355469 L 651.066406 14.523438 C 651.011719 12.910156 650.738281 11.734375 650.164062 10.96875 C 649.617188 10.175781 648.714844 9.792969 647.511719 9.792969 C 646.308594 9.792969 645.433594 10.203125 644.859375 10.996094 C 644.285156 11.789062 644.011719 13.019531 644.011719 14.660156 L 644.011719 16.546875 C 644.011719 18.105469 644.3125 19.308594 644.886719 20.101562 C 645.460938 20.867188 646.335938 21.277344 647.539062 21.277344 C 648.742188 21.277344 649.617188 20.867188 650.191406 20.074219 C 650.765625 19.253906 651.066406 18.023438 651.066406 16.355469 Z M 649.644531 14.414062 L 649.644531 16.738281 C 649.617188 17.914062 649.425781 18.761719 649.097656 19.308594 C 648.742188 19.855469 648.222656 20.101562 647.539062 20.101562 C 646.828125 20.101562 646.28125 19.828125 645.925781 19.253906 C 645.597656 18.679688 645.433594 17.777344 645.433594 16.574219 L 645.433594 14.304688 C 645.433594 13.183594 645.597656 12.335938 645.925781 11.789062 C 646.28125 11.269531 646.800781 10.96875 647.511719 10.96875 C 648.25 10.96875 648.769531 11.269531 649.125 11.789062 C 649.480469 12.335938 649.644531 13.210938 649.644531 14.414062 Z M 649.644531 14.414062 "/>
<path fill="none" stroke-width="0.74721" stroke-linecap="butt" stroke-linejoin="round" stroke="rgb(0%, 0%, 0%)" stroke-opacity="1" stroke-miterlimit="10" d="M -0.00196184 -34.719285 L 299.888663 -34.719285 " transform="matrix(1.75, 0, 0, -1.75, 128.292496, 36.303751)"/>
<path fill-rule="nonzero" fill="rgb(0%, 0%, 0%)" fill-opacity="1" d="M 657.5 97.0625 L 650.453125 93.535156 L 653.097656 97.0625 L 650.453125 100.582031 "/>
<path fill="none" stroke-width="0.3487" stroke-linecap="round" stroke-linejoin="round" stroke="rgb(0%, 0%, 0%)" stroke-opacity="1" stroke-miterlimit="10" d="M 8.502502 -38.20366 L 8.502502 -31.232678 Z M 8.502502 -38.20366 " transform="matrix(1.75, 0, 0, -1.75, 128.292496, 36.303751)"/>
<path fill="none" stroke-width="0.3487" stroke-linecap="round" stroke-linejoin="round" stroke="rgb(0%, 0%, 0%)" stroke-opacity="1" stroke-miterlimit="10" d="M 78.790449 -38.20366 L 78.790449 -31.232678 Z M 78.790449 -38.20366 " transform="matrix(1.75, 0, 0, -1.75, 128.292496, 36.303751)"/>
<path fill="none" stroke-width="0.3487" stroke-linecap="round" stroke-linejoin="round" stroke="rgb(0%, 0%, 0%)" stroke-opacity="1" stroke-miterlimit="10" d="M 149.076163 -38.20366 L 149.076163 -31.232678 Z M 149.076163 -38.20366 " transform="matrix(1.75, 0, 0, -1.75, 128.292496, 36.303751)"/>
<path fill="none" stroke-width="0.3487" stroke-linecap="round" stroke-linejoin="round" stroke="rgb(0%, 0%, 0%)" stroke-opacity="1" stroke-miterlimit="10" d="M 219.361877 -38.20366 L 219.361877 -31.232678 Z M 219.361877 -38.20366 " transform="matrix(1.75, 0, 0, -1.75, 128.292496, 36.303751)"/>
<path fill="none" stroke-width="0.3487" stroke-linecap="round" stroke-linejoin="round" stroke="rgb(0%, 0%, 0%)" stroke-opacity="1" stroke-miterlimit="10" d="M 289.647592 -38.20366 L 289.647592 -31.232678 Z M 289.647592 -38.20366 " transform="matrix(1.75, 0, 0, -1.75, 128.292496, 36.303751)"/>
<path fill-rule="nonzero" fill="rgb(0%, 0%, 0%)" fill-opacity="1" d="M 140.964844 120.652344 L 140.964844 118.820312 C 140.910156 117.207031 140.636719 116.03125 140.0625 115.265625 C 139.515625 114.472656 138.613281 114.089844 137.410156 114.089844 C 136.207031 114.089844 135.332031 114.5 134.757812 115.292969 C 134.183594 116.085938 133.910156 117.316406 133.910156 118.957031 L 133.910156 120.84375 C 133.910156 122.402344 134.210938 123.605469 134.785156 124.398438 C 135.359375 125.164062 136.234375 125.574219 137.4375 125.574219 C 138.640625 125.574219 139.515625 125.164062 140.089844 124.371094 C 140.664062 123.550781 140.964844 122.320312 140.964844 120.652344 Z M 139.542969 118.710938 L 139.542969 121.035156 C 139.515625 122.210938 139.324219 123.058594 138.996094 123.605469 C 138.640625 124.152344 138.121094 124.398438 137.4375 124.398438 C 136.726562 124.398438 136.179688 124.125 135.824219 123.550781 C 135.496094 122.976562 135.332031 122.074219 135.332031 120.871094 L 135.332031 118.601562 C 135.332031 117.480469 135.496094 116.632812 135.824219 116.085938 C 136.179688 115.566406 136.699219 115.265625 137.410156 115.265625 C 138.148438 115.265625 138.667969 115.566406 139.023438 116.085938 C 139.378906 116.632812 139.542969 117.507812 139.542969 118.710938 Z M 139.542969 118.710938 "/>
<path fill-rule="nonzero" fill="rgb(0%, 0%, 0%)" fill-opacity="1" d="M 142.78125 116.414062 L 142.78125 116.933594 C 142.78125 117.644531 143 118.21875 143.4375 118.65625 C 143.875 119.066406 144.449219 119.285156 145.105469 119.285156 C 145.761719 119.285156 146.28125 119.066406 146.71875 118.628906 C 147.128906 118.21875 147.347656 117.644531 147.347656 116.988281 L 147.347656 116.441406 C 147.347656 115.757812 147.128906 115.183594 146.71875 114.746094 C 146.308594 114.308594 145.761719 114.089844 145.078125 114.089844 C 144.394531 114.089844 143.847656 114.308594 143.4375 114.746094 C 143 115.183594 142.78125 115.730469 142.78125 116.414062 Z M 143.847656 116.988281 L 143.847656 116.441406 C 143.847656 116.03125 143.957031 115.675781 144.175781 115.402344 C 144.394531 115.15625 144.695312 115.019531 145.078125 115.019531 C 145.460938 115.019531 145.761719 115.15625 145.980469 115.402344 C 146.199219 115.675781 146.308594 116.003906 146.308594 116.414062 L 146.308594 116.960938 C 146.308594 117.398438 146.199219 117.726562 145.980469 117.972656 C 145.761719 118.246094 145.460938 118.355469 145.105469 118.355469 C 144.722656 118.355469 144.394531 118.246094 144.175781 117.972656 C 143.957031 117.726562 143.847656 117.398438 143.847656 116.988281 Z M 148.222656 122.675781 L 148.222656 123.222656 C 148.222656 123.960938 148.414062 124.507812 148.851562 124.945312 C 149.289062 125.355469 149.863281 125.574219 150.519531 125.574219 C 151.175781 125.574219 151.722656 125.355469 152.160156 124.917969 C 152.570312 124.507812 152.789062 123.960938 152.789062 123.277344 L 152.789062 122.730469 C 152.789062 122.019531 152.570312 121.445312 152.160156 121.007812 C 151.722656 120.597656 151.175781 120.378906 150.519531 120.378906 C 149.835938 120.378906 149.289062 120.597656 148.851562 121.035156 C 148.414062 121.472656 148.222656 122.019531 148.222656 122.675781 Z M 149.289062 123.277344 L 149.289062 122.703125 C 149.289062 122.292969 149.398438 121.9375 149.617188 121.691406 C 149.835938 121.445312 150.136719 121.308594 150.519531 121.308594 C 150.875 121.308594 151.175781 121.445312 151.394531 121.691406 C 151.613281 121.9375 151.722656 122.265625 151.722656 122.675781 L 151.722656 123.25 C 151.722656 123.6875 151.613281 124.015625 151.394531 124.289062 C 151.175781 124.535156 150.875 124.644531 150.519531 124.644531 C 150.136719 124.644531 149.835938 124.535156 149.617188 124.289062 C 149.398438 124.015625 149.289062 123.6875 149.289062 123.277344 Z M 145.40625 124.5625 L 150.847656 115.839844 L 150.054688 115.320312 L 144.613281 124.070312 Z M 145.40625 124.5625 "/>
<path fill-rule="nonzero" fill="rgb(0%, 0%, 0%)" fill-opacity="1" d="M 259.859375 125.410156 L 259.859375 124.261719 L 254.253906 124.261719 L 257.234375 121.007812 C 258.65625 119.503906 259.339844 118.191406 259.339844 117.097656 C 259.339844 116.167969 259.039062 115.457031 258.4375 114.910156 C 257.835938 114.363281 257.015625 114.089844 256.003906 114.089844 C 254.882812 114.089844 253.980469 114.417969 253.324219 115.046875 C 252.667969 115.703125 252.339844 116.523438 252.339844 117.535156 L 253.761719 117.535156 C 253.761719 116.824219 253.953125 116.277344 254.335938 115.867188 C 254.746094 115.484375 255.292969 115.265625 256.003906 115.265625 C 256.578125 115.265625 257.042969 115.457031 257.398438 115.8125 C 257.726562 116.195312 257.917969 116.660156 257.917969 117.261719 C 257.917969 117.699219 257.808594 118.109375 257.589844 118.519531 C 257.371094 118.929688 256.988281 119.449219 256.414062 120.105469 L 252.558594 124.398438 L 252.558594 125.410156 Z M 259.859375 125.410156 "/>
<path fill-rule="nonzero" fill="rgb(0%, 0%, 0%)" fill-opacity="1" d="M 262.015625 119.832031 L 263.136719 120.105469 L 263.519531 119.804688 C 263.875 119.53125 264.367188 119.394531 264.96875 119.394531 C 265.652344 119.394531 266.199219 119.640625 266.609375 120.078125 C 267.019531 120.515625 267.210938 121.117188 267.210938 121.855469 C 267.210938 122.675781 267.019531 123.304688 266.636719 123.742188 C 266.28125 124.179688 265.761719 124.398438 265.078125 124.398438 C 264.476562 124.398438 263.984375 124.261719 263.628906 123.90625 C 263.246094 123.605469 263.027344 123.113281 262.945312 122.484375 L 261.605469 122.484375 C 261.6875 123.441406 262.042969 124.207031 262.671875 124.753906 C 263.300781 125.300781 264.09375 125.574219 265.078125 125.574219 C 266.199219 125.574219 267.046875 125.246094 267.675781 124.589844 C 268.304688 123.90625 268.632812 123.003906 268.632812 121.855469 C 268.632812 120.707031 268.332031 119.804688 267.730469 119.121094 C 267.128906 118.464844 266.308594 118.136719 265.324219 118.136719 C 264.613281 118.136719 263.984375 118.273438 263.4375 118.601562 L 263.765625 115.566406 L 268.304688 115.566406 L 268.304688 114.253906 L 262.589844 114.253906 Z M 262.015625 119.832031 "/>
<path fill-rule="nonzero" fill="rgb(0%, 0%, 0%)" fill-opacity="1" d="M 270.027344 116.414062 L 270.027344 116.933594 C 270.027344 117.644531 270.246094 118.21875 270.683594 118.65625 C 271.121094 119.066406 271.695312 119.285156 272.351562 119.285156 C 273.007812 119.285156 273.527344 119.066406 273.964844 118.628906 C 274.375 118.21875 274.59375 117.644531 274.59375 116.988281 L 274.59375 116.441406 C 274.59375 115.757812 274.375 115.183594 273.964844 114.746094 C 273.554688 114.308594 273.007812 114.089844 272.324219 114.089844 C 271.640625 114.089844 271.09375 114.308594 270.683594 114.746094 C 270.246094 115.183594 270.027344 115.730469 270.027344 116.414062 Z M 271.09375 116.988281 L 271.09375 116.441406 C 271.09375 116.03125 271.203125 115.675781 271.421875 115.402344 C 271.640625 115.15625 271.941406 115.019531 272.324219 115.019531 C 272.707031 115.019531 273.007812 115.15625 273.226562 115.402344 C 273.445312 115.675781 273.554688 116.003906 273.554688 116.414062 L 273.554688 116.960938 C 273.554688 117.398438 273.445312 117.726562 273.226562 117.972656 C 273.007812 118.246094 272.707031 118.355469 272.351562 118.355469 C 271.96875 118.355469 271.640625 118.246094 271.421875 117.972656 C 271.203125 117.726562 271.09375 117.398438 271.09375 116.988281 Z M 275.46875 122.675781 L 275.46875 123.222656 C 275.46875 123.960938 275.660156 124.507812 276.097656 124.945312 C 276.535156 125.355469 277.109375 125.574219 277.765625 125.574219 C 278.421875 125.574219 278.96875 125.355469 279.40625 124.917969 C 279.816406 124.507812 280.035156 123.960938 280.035156 123.277344 L 280.035156 122.730469 C 280.035156 122.019531 279.816406 121.445312 279.40625 121.007812 C 278.96875 120.597656 278.421875 120.378906 277.765625 120.378906 C 277.082031 120.378906 276.535156 120.597656 276.097656 121.035156 C 275.660156 121.472656 275.46875 122.019531 275.46875 122.675781 Z M 276.535156 123.277344 L 276.535156 122.703125 C 276.535156 122.292969 276.644531 121.9375 276.863281 121.691406 C 277.082031 121.445312 277.382812 121.308594 277.765625 121.308594 C 278.121094 121.308594 278.421875 121.445312 278.640625 121.691406 C 278.859375 121.9375 278.96875 122.265625 278.96875 122.675781 L 278.96875 123.25 C 278.96875 123.6875 278.859375 124.015625 278.640625 124.289062 C 278.421875 124.535156 278.121094 124.644531 277.765625 124.644531 C 277.382812 124.644531 277.082031 124.535156 276.863281 124.289062 C 276.644531 124.015625 276.535156 123.6875 276.535156 123.277344 Z M 272.652344 124.5625 L 278.09375 115.839844 L 277.300781 115.320312 L 271.859375 124.070312 Z M 272.652344 124.5625 "/>
<path fill-rule="nonzero" fill="rgb(0%, 0%, 0%)" fill-opacity="1" d="M 376.054688 119.832031 L 377.175781 120.105469 L 377.558594 119.804688 C 377.914062 119.53125 378.40625 119.394531 379.007812 119.394531 C 379.691406 119.394531 380.238281 119.640625 380.648438 120.078125 C 381.058594 120.515625 381.25 121.117188 381.25 121.855469 C 381.25 122.675781 381.058594 123.304688 380.675781 123.742188 C 380.320312 124.179688 379.800781 124.398438 379.117188 124.398438 C 378.515625 124.398438 378.023438 124.261719 377.667969 123.90625 C 377.285156 123.605469 377.066406 123.113281 376.984375 122.484375 L 375.644531 122.484375 C 375.726562 123.441406 376.082031 124.207031 376.710938 124.753906 C 377.339844 125.300781 378.132812 125.574219 379.117188 125.574219 C 380.238281 125.574219 381.085938 125.246094 381.714844 124.589844 C 382.34375 123.90625 382.671875 123.003906 382.671875 121.855469 C 382.671875 120.707031 382.371094 119.804688 381.769531 119.121094 C 381.167969 118.464844 380.347656 118.136719 379.363281 118.136719 C 378.652344 118.136719 378.023438 118.273438 377.476562 118.601562 L 377.804688 115.566406 L 382.34375 115.566406 L 382.34375 114.253906 L 376.628906 114.253906 Z M 376.054688 119.832031 "/>
<path fill-rule="nonzero" fill="rgb(0%, 0%, 0%)" fill-opacity="1" d="M 391.363281 120.652344 L 391.363281 118.820312 C 391.308594 117.207031 391.035156 116.03125 390.460938 115.265625 C 389.914062 114.472656 389.011719 114.089844 387.808594 114.089844 C 386.605469 114.089844 385.730469 114.5 385.15625 115.292969 C 384.582031 116.085938 384.308594 117.316406 384.308594 118.957031 L 384.308594 120.84375 C 384.308594 122.402344 384.609375 123.605469 385.183594 124.398438 C 385.757812 125.164062 386.632812 125.574219 387.835938 125.574219 C 389.039062 125.574219 389.914062 125.164062 390.488281 124.371094 C 391.0625 123.550781 391.363281 122.320312 391.363281 120.652344 Z M 389.941406 118.710938 L 389.941406 121.035156 C 389.914062 122.210938 389.722656 123.058594 389.394531 123.605469 C 389.039062 124.152344 388.519531 124.398438 387.835938 124.398438 C 387.125 124.398438 386.578125 124.125 386.222656 123.550781 C 385.894531 122.976562 385.730469 122.074219 385.730469 120.871094 L 385.730469 118.601562 C 385.730469 117.480469 385.894531 116.632812 386.222656 116.085938 C 386.578125 115.566406 387.097656 115.265625 387.808594 115.265625 C 388.546875 115.265625 389.066406 115.566406 389.421875 116.085938 C 389.777344 116.632812 389.941406 117.507812 389.941406 118.710938 Z M 389.941406 118.710938 "/>
<path fill-rule="nonzero" fill="rgb(0%, 0%, 0%)" fill-opacity="1" d="M 393.179688 116.414062 L 393.179688 116.933594 C 393.179688 117.644531 393.398438 118.21875 393.835938 118.65625 C 394.273438 119.066406 394.847656 119.285156 395.503906 119.285156 C 396.160156 119.285156 396.679688 119.066406 397.117188 118.628906 C 397.527344 118.21875 397.746094 117.644531 397.746094 116.988281 L 397.746094 116.441406 C 397.746094 115.757812 397.527344 115.183594 397.117188 114.746094 C 396.707031 114.308594 396.160156 114.089844 395.476562 114.089844 C 394.792969 114.089844 394.246094 114.308594 393.835938 114.746094 C 393.398438 115.183594 393.179688 115.730469 393.179688 116.414062 Z M 394.246094 116.988281 L 394.246094 116.441406 C 394.246094 116.03125 394.355469 115.675781 394.574219 115.402344 C 394.792969 115.15625 395.09375 115.019531 395.476562 115.019531 C 395.859375 115.019531 396.160156 115.15625 396.378906 115.402344 C 396.597656 115.675781 396.707031 116.003906 396.707031 116.414062 L 396.707031 116.960938 C 396.707031 117.398438 396.597656 117.726562 396.378906 117.972656 C 396.160156 118.246094 395.859375 118.355469 395.503906 118.355469 C 395.121094 118.355469 394.792969 118.246094 394.574219 117.972656 C 394.355469 117.726562 394.246094 117.398438 394.246094 116.988281 Z M 398.621094 122.675781 L 398.621094 123.222656 C 398.621094 123.960938 398.8125 124.507812 399.25 124.945312 C 399.6875 125.355469 400.261719 125.574219 400.917969 125.574219 C 401.574219 125.574219 402.121094 125.355469 402.558594 124.917969 C 402.96875 124.507812 403.1875 123.960938 403.1875 123.277344 L 403.1875 122.730469 C 403.1875 122.019531 402.96875 121.445312 402.558594 121.007812 C 402.121094 120.597656 401.574219 120.378906 400.917969 120.378906 C 400.234375 120.378906 399.6875 120.597656 399.25 121.035156 C 398.8125 121.472656 398.621094 122.019531 398.621094 122.675781 Z M 399.6875 123.277344 L 399.6875 122.703125 C 399.6875 122.292969 399.796875 121.9375 400.015625 121.691406 C 400.234375 121.445312 400.535156 121.308594 400.917969 121.308594 C 401.273438 121.308594 401.574219 121.445312 401.792969 121.691406 C 402.011719 121.9375 402.121094 122.265625 402.121094 122.675781 L 402.121094 123.25 C 402.121094 123.6875 402.011719 124.015625 401.792969 124.289062 C 401.574219 124.535156 401.273438 124.644531 400.917969 124.644531 C 400.535156 124.644531 400.234375 124.535156 400.015625 124.289062 C 399.796875 124.015625 399.6875 123.6875 399.6875 123.277344 Z M 395.804688 124.5625 L 401.246094 115.839844 L 400.453125 115.320312 L 395.011719 124.070312 Z M 395.804688 124.5625 "/>
<path fill-rule="nonzero" fill="rgb(0%, 0%, 0%)" fill-opacity="1" d="M 505.476562 115.046875 L 505.476562 114.253906 L 498.449219 114.253906 L 498.449219 115.402344 L 504.054688 115.402344 L 499.625 125.410156 L 501.046875 125.410156 Z M 505.476562 115.046875 "/>
<path fill-rule="nonzero" fill="rgb(0%, 0%, 0%)" fill-opacity="1" d="M 507.652344 119.832031 L 508.773438 120.105469 L 509.15625 119.804688 C 509.511719 119.53125 510.003906 119.394531 510.605469 119.394531 C 511.289062 119.394531 511.835938 119.640625 512.246094 120.078125 C 512.65625 120.515625 512.847656 121.117188 512.847656 121.855469 C 512.847656 122.675781 512.65625 123.304688 512.273438 123.742188 C 511.917969 124.179688 511.398438 124.398438 510.714844 124.398438 C 510.113281 124.398438 509.621094 124.261719 509.265625 123.90625 C 508.882812 123.605469 508.664062 123.113281 508.582031 122.484375 L 507.242188 122.484375 C 507.324219 123.441406 507.679688 124.207031 508.308594 124.753906 C 508.9375 125.300781 509.730469 125.574219 510.714844 125.574219 C 511.835938 125.574219 512.683594 125.246094 513.3125 124.589844 C 513.941406 123.90625 514.269531 123.003906 514.269531 121.855469 C 514.269531 120.707031 513.96875 119.804688 513.367188 119.121094 C 512.765625 118.464844 511.945312 118.136719 510.960938 118.136719 C 510.25 118.136719 509.621094 118.273438 509.074219 118.601562 L 509.402344 115.566406 L 513.941406 115.566406 L 513.941406 114.253906 L 508.226562 114.253906 Z M 507.652344 119.832031 "/>
<path fill-rule="nonzero" fill="rgb(0%, 0%, 0%)" fill-opacity="1" d="M 515.660156 116.414062 L 515.660156 116.933594 C 515.660156 117.644531 515.878906 118.21875 516.316406 118.65625 C 516.753906 119.066406 517.328125 119.285156 517.984375 119.285156 C 518.640625 119.285156 519.160156 119.066406 519.597656 118.628906 C 520.007812 118.21875 520.226562 117.644531 520.226562 116.988281 L 520.226562 116.441406 C 520.226562 115.757812 520.007812 115.183594 519.597656 114.746094 C 519.1875 114.308594 518.640625 114.089844 517.957031 114.089844 C 517.273438 114.089844 516.726562 114.308594 516.316406 114.746094 C 515.878906 115.183594 515.660156 115.730469 515.660156 116.414062 Z M 516.726562 116.988281 L 516.726562 116.441406 C 516.726562 116.03125 516.835938 115.675781 517.054688 115.402344 C 517.273438 115.15625 517.574219 115.019531 517.957031 115.019531 C 518.339844 115.019531 518.640625 115.15625 518.859375 115.402344 C 519.078125 115.675781 519.1875 116.003906 519.1875 116.414062 L 519.1875 116.960938 C 519.1875 117.398438 519.078125 117.726562 518.859375 117.972656 C 518.640625 118.246094 518.339844 118.355469 517.984375 118.355469 C 517.601562 118.355469 517.273438 118.246094 517.054688 117.972656 C 516.835938 117.726562 516.726562 117.398438 516.726562 116.988281 Z M 521.101562 122.675781 L 521.101562 123.222656 C 521.101562 123.960938 521.292969 124.507812 521.730469 124.945312 C 522.167969 125.355469 522.742188 125.574219 523.398438 125.574219 C 524.054688 125.574219 524.601562 125.355469 525.039062 124.917969 C 525.449219 124.507812 525.667969 123.960938 525.667969 123.277344 L 525.667969 122.730469 C 525.667969 122.019531 525.449219 121.445312 525.039062 121.007812 C 524.601562 120.597656 524.054688 120.378906 523.398438 120.378906 C 522.714844 120.378906 522.167969 120.597656 521.730469 121.035156 C 521.292969 121.472656 521.101562 122.019531 521.101562 122.675781 Z M 522.167969 123.277344 L 522.167969 122.703125 C 522.167969 122.292969 522.277344 121.9375 522.496094 121.691406 C 522.714844 121.445312 523.015625 121.308594 523.398438 121.308594 C 523.753906 121.308594 524.054688 121.445312 524.273438 121.691406 C 524.492188 121.9375 524.601562 122.265625 524.601562 122.675781 L 524.601562 123.25 C 524.601562 123.6875 524.492188 124.015625 524.273438 124.289062 C 524.054688 124.535156 523.753906 124.644531 523.398438 124.644531 C 523.015625 124.644531 522.714844 124.535156 522.496094 124.289062 C 522.277344 124.015625 522.167969 123.6875 522.167969 123.277344 Z M 518.285156 124.5625 L 523.726562 115.839844 L 522.933594 115.320312 L 517.492188 124.070312 Z M 518.285156 124.5625 "/>
<path fill-rule="nonzero" fill="rgb(0%, 0%, 0%)" fill-opacity="1" d="M 621.855469 125.410156 L 621.855469 114.199219 L 621.636719 114.199219 L 617.5625 115.730469 L 617.5625 117.015625 L 620.433594 115.949219 L 620.433594 125.410156 Z M 621.855469 125.410156 "/>
<path fill-rule="nonzero" fill="rgb(0%, 0%, 0%)" fill-opacity="1" d="M 631.808594 120.652344 L 631.808594 118.820312 C 631.753906 117.207031 631.480469 116.03125 630.90625 115.265625 C 630.359375 114.472656 629.457031 114.089844 628.253906 114.089844 C 627.050781 114.089844 626.175781 114.5 625.601562 115.292969 C 625.027344 116.085938 624.753906 117.316406 624.753906 118.957031 L 624.753906 120.84375 C 624.753906 122.402344 625.054688 123.605469 625.628906 124.398438 C 626.203125 125.164062 627.078125 125.574219 628.28125 125.574219 C 629.484375 125.574219 630.359375 125.164062 630.933594 124.371094 C 631.507812 123.550781 631.808594 122.320312 631.808594 120.652344 Z M 630.386719 118.710938 L 630.386719 121.035156 C 630.359375 122.210938 630.167969 123.058594 629.839844 123.605469 C 629.484375 124.152344 628.964844 124.398438 628.28125 124.398438 C 627.570312 124.398438 627.023438 124.125 626.667969 123.550781 C 626.339844 122.976562 626.175781 122.074219 626.175781 120.871094 L 626.175781 118.601562 C 626.175781 117.480469 626.339844 116.632812 626.667969 116.085938 C 627.023438 115.566406 627.542969 115.265625 628.253906 115.265625 C 628.992188 115.265625 629.511719 115.566406 629.867188 116.085938 C 630.222656 116.632812 630.386719 117.507812 630.386719 118.710938 Z M 630.386719 118.710938 "/>
<path fill-rule="nonzero" fill="rgb(0%, 0%, 0%)" fill-opacity="1" d="M 640.925781 120.652344 L 640.925781 118.820312 C 640.871094 117.207031 640.597656 116.03125 640.023438 115.265625 C 639.476562 114.472656 638.574219 114.089844 637.371094 114.089844 C 636.167969 114.089844 635.292969 114.5 634.71875 115.292969 C 634.144531 116.085938 633.871094 117.316406 633.871094 118.957031 L 633.871094 120.84375 C 633.871094 122.402344 634.171875 123.605469 634.746094 124.398438 C 635.320312 125.164062 636.195312 125.574219 637.398438 125.574219 C 638.601562 125.574219 639.476562 125.164062 640.050781 124.371094 C 640.625 123.550781 640.925781 122.320312 640.925781 120.652344 Z M 639.503906 118.710938 L 639.503906 121.035156 C 639.476562 122.210938 639.285156 123.058594 638.957031 123.605469 C 638.601562 124.152344 638.082031 124.398438 637.398438 124.398438 C 636.6875 124.398438 636.140625 124.125 635.785156 123.550781 C 635.457031 122.976562 635.292969 122.074219 635.292969 120.871094 L 635.292969 118.601562 C 635.292969 117.480469 635.457031 116.632812 635.785156 116.085938 C 636.140625 115.566406 636.660156 115.265625 637.371094 115.265625 C 638.109375 115.265625 638.628906 115.566406 638.984375 116.085938 C 639.339844 116.632812 639.503906 117.507812 639.503906 118.710938 Z M 639.503906 118.710938 "/>
<path fill-rule="nonzero" fill="rgb(0%, 0%, 0%)" fill-opacity="1" d="M 642.742188 116.414062 L 642.742188 116.933594 C 642.742188 117.644531 642.960938 118.21875 643.398438 118.65625 C 643.835938 119.066406 644.410156 119.285156 645.066406 119.285156 C 645.722656 119.285156 646.242188 119.066406 646.679688 118.628906 C 647.089844 118.21875 647.308594 117.644531 647.308594 116.988281 L 647.308594 116.441406 C 647.308594 115.757812 647.089844 115.183594 646.679688 114.746094 C 646.269531 114.308594 645.722656 114.089844 645.039062 114.089844 C 644.355469 114.089844 643.808594 114.308594 643.398438 114.746094 C 642.960938 115.183594 642.742188 115.730469 642.742188 116.414062 Z M 643.808594 116.988281 L 643.808594 116.441406 C 643.808594 116.03125 643.917969 115.675781 644.136719 115.402344 C 644.355469 115.15625 644.65625 115.019531 645.039062 115.019531 C 645.421875 115.019531 645.722656 115.15625 645.941406 115.402344 C 646.160156 115.675781 646.269531 116.003906 646.269531 116.414062 L 646.269531 116.960938 C 646.269531 117.398438 646.160156 117.726562 645.941406 117.972656 C 645.722656 118.246094 645.421875 118.355469 645.066406 118.355469 C 644.683594 118.355469 644.355469 118.246094 644.136719 117.972656 C 643.917969 117.726562 643.808594 117.398438 643.808594 116.988281 Z M 648.183594 122.675781 L 648.183594 123.222656 C 648.183594 123.960938 648.375 124.507812 648.8125 124.945312 C 649.25 125.355469 649.824219 125.574219 650.480469 125.574219 C 651.136719 125.574219 651.683594 125.355469 652.121094 124.917969 C 652.53125 124.507812 652.75 123.960938 652.75 123.277344 L 652.75 122.730469 C 652.75 122.019531 652.53125 121.445312 652.121094 121.007812 C 651.683594 120.597656 651.136719 120.378906 650.480469 120.378906 C 649.796875 120.378906 649.25 120.597656 648.8125 121.035156 C 648.375 121.472656 648.183594 122.019531 648.183594 122.675781 Z M 649.25 123.277344 L 649.25 122.703125 C 649.25 122.292969 649.359375 121.9375 649.578125 121.691406 C 649.796875 121.445312 650.097656 121.308594 650.480469 121.308594 C 650.835938 121.308594 651.136719 121.445312 651.355469 121.691406 C 651.574219 121.9375 651.683594 122.265625 651.683594 122.675781 L 651.683594 123.25 C 651.683594 123.6875 651.574219 124.015625 651.355469 124.289062 C 651.136719 124.535156 650.835938 124.644531 650.480469 124.644531 C 650.097656 124.644531 649.796875 124.535156 649.578125 124.289062 C 649.359375 124.015625 649.25 123.6875 649.25 123.277344 Z M 645.367188 124.5625 L 650.808594 115.839844 L 650.015625 115.320312 L 644.574219 124.070312 Z M 645.367188 124.5625 "/>
</svg>
