<?xml version="1.0" encoding="UTF-8"?>
<svg xmlns="http://www.w3.org/2000/svg" xmlns:xlink="http://www.w3.org/1999/xlink" width="676.039024" height="135.448254" viewBox="0 0 676.039024 135.448254">
<path fill="none" stroke-width="0.74721" stroke-linecap="butt" stroke-linejoin="round" stroke="rgb(0%, 0%, 0%)" stroke-opacity="1" stroke-miterlimit="10" d="M -0.00128828 -0.000534875 L 285.487551 -0.000534875 " transform="matrix(1.75, 0, 0, -1.75, 166.533504, 36.303751)"/>
<path fill-rule="nonzero" fill="rgb(0%, 0%, 0%)" fill-opacity="1" d="M 670.535156 36.304688 L 663.496094 32.785156 L 666.136719 36.304688 L 663.496094 39.824219 "/>
<path fill-rule="nonzero" fill="rgb(0%, 0%, 0%)" fill-opacity="1" d="M 10.753906 36.679688 L 10.753906 36.816406 C 10.753906 38.375 11.136719 39.632812 11.875 40.589844 C 12.613281 41.546875 13.570312 42.039062 14.746094 42.039062 C 15.976562 42.039062 16.960938 41.601562 17.644531 40.753906 L 17.726562 41.847656 L 19.3125 41.847656 L 19.3125 27.464844 L 17.589844 27.464844 L 17.589844 32.742188 C 16.90625 31.949219 15.949219 31.539062 14.773438 31.539062 C 13.570312 31.539062 12.613281 32.003906 11.875 32.960938 C 11.136719 33.890625 10.753906 35.148438 10.753906 36.679688 Z M 12.503906 36.898438 C 12.503906 35.613281 12.722656 34.628906 13.214844 34 C 13.679688 33.34375 14.335938 33.015625 15.183594 33.015625 C 16.25 33.015625 17.042969 33.480469 17.589844 34.4375 L 17.589844 39.085938 C 17.070312 40.097656 16.25 40.5625 15.15625 40.5625 C 14.335938 40.5625 13.679688 40.261719 13.214844 39.605469 C 12.722656 38.949219 12.503906 38.046875 12.503906 36.898438 Z M 12.503906 36.898438 "/>
<path fill-rule="nonzero" fill="rgb(0%, 0%, 0%)" fill-opacity="1" d="M 23.875 41.847656 L 23.875 31.730469 L 22.125 31.730469 L 22.125 41.847656 Z M 21.988281 29.050781 C 21.988281 29.324219 22.070312 29.570312 22.234375 29.761719 C 22.425781 29.953125 22.671875 30.007812 23.027344 30.007812 C 23.328125 30.007812 23.601562 29.953125 23.792969 29.761719 C 23.957031 29.570312 24.039062 29.324219 24.039062 29.050781 C 24.039062 28.777344 23.957031 28.53125 23.792969 28.339844 C 23.601562 28.148438 23.328125 28.039062 23.027344 28.039062 C 22.671875 28.039062 22.425781 28.148438 22.234375 28.339844 C 22.070312 28.53125 21.988281 28.777344 21.988281 29.050781 Z M 21.988281 29.050781 "/>
<path fill-rule="nonzero" fill="rgb(0%, 0%, 0%)" fill-opacity="1" d="M 28.269531 31.730469 L 26.628906 31.730469 L 26.628906 41.847656 L 28.351562 41.847656 L 28.351562 34.628906 C 28.597656 34.136719 28.925781 33.753906 29.335938 33.453125 C 29.773438 33.152344 30.265625 33.015625 30.839844 33.015625 C 31.523438 33.015625 32.015625 33.179688 32.371094 33.535156 C 32.699219 33.863281 32.863281 34.410156 32.863281 35.148438 L 32.863281 41.847656 L 34.585938 41.847656 L 34.585938 35.148438 C 34.558594 32.742188 33.492188 31.539062 31.359375 31.539062 C 30.101562 31.539062 29.089844 32.03125 28.324219 32.988281 Z M 28.269531 31.730469 "/>
<path fill-rule="nonzero" fill="rgb(0%, 0%, 0%)" fill-opacity="1" d="M 41.40625 42.039062 C 43.101562 42.039062 44.386719 41.382812 45.207031 40.097656 L 44.167969 39.25 C 43.839844 39.6875 43.457031 40.015625 43.019531 40.261719 C 42.609375 40.507812 42.089844 40.617188 41.488281 40.617188 C 40.613281 40.617188 39.902344 40.316406 39.355469 39.6875 C 38.808594 39.085938 38.507812 38.292969 38.480469 37.28125 L 45.34375 37.28125 L 45.34375 36.570312 C 45.34375 34.957031 44.960938 33.726562 44.25 32.851562 C 43.511719 31.976562 42.472656 31.539062 41.160156 31.539062 C 40.367188 31.539062 39.628906 31.757812 38.917969 32.195312 C 38.234375 32.660156 37.714844 33.289062 37.332031 34.054688 C 36.949219 34.847656 36.757812 35.75 36.757812 36.761719 L 36.757812 37.0625 C 36.757812 38.59375 37.167969 39.796875 38.042969 40.699219 C 38.917969 41.601562 40.011719 42.039062 41.40625 42.039062 Z M 41.160156 32.960938 C 41.898438 32.960938 42.472656 33.207031 42.910156 33.671875 C 43.320312 34.191406 43.539062 34.847656 43.621094 35.722656 L 43.621094 35.859375 L 38.535156 35.859375 C 38.644531 34.957031 38.917969 34.246094 39.410156 33.726562 C 39.875 33.234375 40.476562 32.960938 41.160156 32.960938 Z M 41.160156 32.960938 "/>
<path fill-rule="nonzero" fill="rgb(0%, 0%, 0%)" fill-opacity="1" d="M 52.238281 33.289062 L 52.238281 31.675781 C 52.046875 31.59375 51.800781 31.539062 51.472656 31.539062 C 50.433594 31.539062 49.613281 32.003906 49.066406 32.90625 L 49.011719 31.730469 L 47.34375 31.730469 L 47.34375 41.847656 L 49.066406 41.847656 L 49.066406 34.65625 C 49.449219 33.699219 50.242188 33.207031 51.390625 33.207031 C 51.691406 33.234375 51.964844 33.234375 52.238281 33.289062 Z M 52.238281 33.289062 "/>
<path fill-rule="nonzero" fill="rgb(0%, 0%, 0%)" fill-opacity="1" d="M 53.167969 36.679688 L 53.167969 36.816406 C 53.167969 38.375 53.578125 39.632812 54.453125 40.589844 C 55.300781 41.546875 56.394531 42.039062 57.789062 42.039062 C 58.691406 42.039062 59.484375 41.820312 60.195312 41.382812 C 60.878906 40.945312 61.425781 40.34375 61.808594 39.550781 C 62.191406 38.785156 62.382812 37.910156 62.382812 36.898438 L 62.382812 36.761719 C 62.382812 35.203125 61.945312 33.917969 61.097656 32.960938 C 60.25 32.003906 59.15625 31.539062 57.761719 31.539062 C 56.859375 31.539062 56.066406 31.757812 55.355469 32.195312 C 54.671875 32.605469 54.125 33.234375 53.742188 34 C 53.359375 34.820312 53.167969 35.695312 53.167969 36.679688 Z M 54.917969 36.898438 C 54.917969 35.640625 55.164062 34.683594 55.683594 34 C 56.203125 33.289062 56.914062 32.960938 57.761719 32.960938 C 58.636719 32.960938 59.347656 33.289062 59.867188 34 C 60.386719 34.683594 60.660156 35.585938 60.660156 36.679688 C 60.660156 37.9375 60.386719 38.894531 59.867188 39.578125 C 59.347656 40.289062 58.664062 40.617188 57.789062 40.617188 C 56.914062 40.617188 56.203125 40.289062 55.683594 39.605469 C 55.164062 38.921875 54.917969 38.046875 54.917969 36.898438 Z M 54.917969 36.898438 "/>
<path fill-rule="nonzero" fill="rgb(0%, 0%, 0%)" fill-opacity="1" d="M 69.246094 36.296875 C 69.246094 39.25 69.957031 41.820312 71.433594 43.925781 C 72.199219 45.019531 72.964844 45.785156 73.8125 46.25 L 74.167969 45.183594 C 73.457031 44.582031 72.828125 43.761719 72.28125 42.695312 C 71.40625 40.917969 70.96875 38.839844 70.96875 36.433594 L 70.96875 35.640625 C 71.023438 33.863281 71.351562 32.25 71.925781 30.828125 C 72.5 29.378906 73.265625 28.3125 74.167969 27.601562 L 73.8125 26.480469 C 73.019531 26.917969 72.226562 27.65625 71.488281 28.722656 C 70.722656 29.789062 70.175781 30.964844 69.792969 32.25 C 69.410156 33.5625 69.246094 34.902344 69.246094 36.296875 Z M 69.246094 36.296875 "/>
<path fill-rule="nonzero" fill="rgb(0%, 0%, 0%)" fill-opacity="1" d="M 75.402344 36.679688 L 75.402344 36.816406 C 75.402344 38.375 75.785156 39.632812 76.523438 40.589844 C 77.261719 41.546875 78.21875 42.039062 79.394531 42.039062 C 80.625 42.039062 81.609375 41.601562 82.292969 40.753906 L 82.375 41.847656 L 83.960938 41.847656 L 83.960938 27.464844 L 82.238281 27.464844 L 82.238281 32.742188 C 81.554688 31.949219 80.597656 31.539062 79.421875 31.539062 C 78.21875 31.539062 77.261719 32.003906 76.523438 32.960938 C 75.785156 33.890625 75.402344 35.148438 75.402344 36.679688 Z M 77.152344 36.898438 C 77.152344 35.613281 77.371094 34.628906 77.863281 34 C 78.328125 33.34375 78.984375 33.015625 79.832031 33.015625 C 80.898438 33.015625 81.691406 33.480469 82.238281 34.4375 L 82.238281 39.085938 C 81.71875 40.097656 80.898438 40.5625 79.804688 40.5625 C 78.984375 40.5625 78.328125 40.261719 77.863281 39.605469 C 77.371094 38.949219 77.152344 38.046875 77.152344 36.898438 Z M 77.152344 36.898438 "/>
<path fill-rule="nonzero" fill="rgb(0%, 0%, 0%)" fill-opacity="1" d="M 90.742188 27.394531 L 88.9375 30.15625 L 90.332031 30.15625 L 92.847656 27.394531 Z M 90.742188 27.394531 "/>
<path fill-rule="nonzero" fill="rgb(0%, 0%, 0%)" fill-opacity="1" d="M 86.171875 36.679688 L 86.171875 36.816406 C 86.171875 38.375 86.582031 39.632812 87.457031 40.589844 C 88.304688 41.546875 89.398438 42.039062 90.792969 42.039062 C 91.695312 42.039062 92.488281 41.820312 93.199219 41.382812 C 93.882812 40.945312 94.429688 40.34375 94.8125 39.550781 C 95.195312 38.785156 95.386719 37.910156 95.386719 36.898438 L 95.386719 36.761719 C 95.386719 35.203125 94.949219 33.917969 94.101562 32.960938 C 93.253906 32.003906 92.160156 31.539062 90.765625 31.539062 C 89.863281 31.539062 89.070312 31.757812 88.359375 32.195312 C 87.675781 32.605469 87.128906 33.234375 86.746094 34 C 86.363281 34.820312 86.171875 35.695312 86.171875 36.679688 Z M 87.921875 36.898438 C 87.921875 35.640625 88.167969 34.683594 88.6875 34 C 89.207031 33.289062 89.917969 32.960938 90.765625 32.960938 C 91.640625 32.960938 92.351562 33.289062 92.871094 34 C 93.390625 34.683594 93.664062 35.585938 93.664062 36.679688 C 93.664062 37.9375 93.390625 38.894531 92.871094 39.578125 C 92.351562 40.289062 91.667969 40.617188 90.792969 40.617188 C 89.917969 40.617188 89.207031 40.289062 88.6875 39.605469 C 88.167969 38.921875 87.921875 38.046875 87.921875 36.898438 Z M 87.921875 36.898438 "/>
<path fill-rule="nonzero" fill="rgb(0%, 0%, 0%)" fill-opacity="1" d="M 99.457031 41.847656 L 99.457031 27.464844 L 97.707031 27.464844 L 97.707031 41.847656 Z M 99.457031 41.847656 "/>
<path fill-rule="nonzero" fill="rgb(0%, 0%, 0%)" fill-opacity="1" d="M 108.472656 41.847656 L 110.277344 41.847656 L 110.277344 41.683594 C 110.03125 41.164062 109.921875 40.398438 109.921875 39.46875 L 109.921875 34.820312 C 109.894531 33.808594 109.539062 32.988281 108.882812 32.414062 C 108.226562 31.839844 107.296875 31.539062 106.148438 31.539062 C 105.410156 31.539062 104.726562 31.675781 104.125 31.949219 C 103.496094 32.222656 103.003906 32.605469 102.648438 33.070312 C 102.292969 33.535156 102.128906 34.027344 102.128906 34.519531 L 103.878906 34.519531 C 103.878906 34.082031 104.070312 33.699219 104.507812 33.398438 C 104.917969 33.097656 105.4375 32.933594 106.066406 32.933594 C 106.75 32.933594 107.269531 33.125 107.652344 33.480469 C 107.980469 33.835938 108.171875 34.328125 108.171875 34.902344 L 108.171875 35.722656 L 106.503906 35.722656 C 105.027344 35.722656 103.933594 36.023438 103.113281 36.597656 C 102.320312 37.171875 101.910156 37.992188 101.910156 39.058594 C 101.910156 39.90625 102.210938 40.617188 102.867188 41.191406 C 103.496094 41.765625 104.316406 42.039062 105.328125 42.039062 C 106.449219 42.039062 107.40625 41.628906 108.226562 40.78125 C 108.28125 41.300781 108.363281 41.65625 108.472656 41.847656 Z M 105.601562 40.535156 C 105.027344 40.535156 104.5625 40.371094 104.207031 40.070312 C 103.824219 39.769531 103.660156 39.332031 103.660156 38.8125 C 103.660156 37.582031 104.699219 36.953125 106.832031 36.953125 L 108.171875 36.953125 L 108.171875 39.003906 C 107.953125 39.46875 107.597656 39.824219 107.132812 40.097656 C 106.640625 40.398438 106.121094 40.535156 105.601562 40.535156 Z M 105.601562 40.535156 "/>
<path fill-rule="nonzero" fill="rgb(0%, 0%, 0%)" fill-opacity="1" d="M 117.519531 33.289062 L 117.519531 31.675781 C 117.328125 31.59375 117.082031 31.539062 116.753906 31.539062 C 115.714844 31.539062 114.894531 32.003906 114.347656 32.90625 L 114.292969 31.730469 L 112.625 31.730469 L 112.625 41.847656 L 114.347656 41.847656 L 114.347656 34.65625 C 114.730469 33.699219 115.523438 33.207031 116.671875 33.207031 C 116.972656 33.234375 117.246094 33.234375 117.519531 33.289062 Z M 117.519531 33.289062 "/>
<path fill-rule="nonzero" fill="rgb(0%, 0%, 0%)" fill-opacity="1" d="M 123.144531 42.039062 C 124.839844 42.039062 126.125 41.382812 126.945312 40.097656 L 125.90625 39.25 C 125.578125 39.6875 125.195312 40.015625 124.757812 40.261719 C 124.347656 40.507812 123.828125 40.617188 123.226562 40.617188 C 122.351562 40.617188 121.640625 40.316406 121.09375 39.6875 C 120.546875 39.085938 120.246094 38.292969 120.21875 37.28125 L 127.082031 37.28125 L 127.082031 36.570312 C 127.082031 34.957031 126.699219 33.726562 125.988281 32.851562 C 125.25 31.976562 124.210938 31.539062 122.898438 31.539062 C 122.105469 31.539062 121.367188 31.757812 120.65625 32.195312 C 119.972656 32.660156 119.453125 33.289062 119.070312 34.054688 C 118.6875 34.847656 118.496094 35.75 118.496094 36.761719 L 118.496094 37.0625 C 118.496094 38.59375 118.90625 39.796875 119.78125 40.699219 C 120.65625 41.601562 121.75 42.039062 123.144531 42.039062 Z M 122.898438 32.960938 C 123.636719 32.960938 124.210938 33.207031 124.648438 33.671875 C 125.058594 34.191406 125.277344 34.847656 125.359375 35.722656 L 125.359375 35.859375 L 120.273438 35.859375 C 120.382812 34.957031 120.65625 34.246094 121.148438 33.726562 C 121.613281 33.234375 122.214844 32.960938 122.898438 32.960938 Z M 122.898438 32.960938 "/>
<path fill-rule="nonzero" fill="rgb(0%, 0%, 0%)" fill-opacity="1" d="M 134.984375 39.167969 C 134.984375 39.632812 134.765625 39.960938 134.382812 40.234375 C 133.972656 40.507812 133.453125 40.617188 132.796875 40.617188 C 132.085938 40.617188 131.511719 40.453125 131.074219 40.097656 C 130.636719 39.769531 130.417969 39.304688 130.390625 38.730469 L 128.640625 38.730469 C 128.640625 39.332031 128.832031 39.878906 129.1875 40.398438 C 129.515625 40.917969 130.035156 41.328125 130.664062 41.628906 C 131.265625 41.902344 132.003906 42.039062 132.796875 42.039062 C 133.945312 42.039062 134.875 41.765625 135.613281 41.246094 C 136.324219 40.699219 136.707031 39.960938 136.707031 39.058594 C 136.707031 38.511719 136.570312 38.046875 136.324219 37.664062 C 136.050781 37.28125 135.667969 36.953125 135.121094 36.679688 C 134.601562 36.433594 133.890625 36.1875 133.015625 35.996094 C 132.167969 35.804688 131.566406 35.613281 131.238281 35.394531 C 130.882812 35.203125 130.746094 34.875 130.746094 34.4375 C 130.746094 34 130.910156 33.644531 131.265625 33.371094 C 131.621094 33.097656 132.113281 32.960938 132.742188 32.960938 C 133.371094 32.960938 133.863281 33.125 134.273438 33.480469 C 134.65625 33.808594 134.875 34.246094 134.875 34.710938 L 136.597656 34.710938 C 136.597656 33.78125 136.242188 33.042969 135.53125 32.441406 C 134.820312 31.839844 133.890625 31.539062 132.742188 31.539062 C 131.648438 31.539062 130.746094 31.8125 130.035156 32.386719 C 129.324219 32.960938 128.996094 33.671875 128.996094 34.519531 C 128.996094 35.011719 129.105469 35.449219 129.351562 35.777344 C 129.597656 36.160156 129.980469 36.460938 130.5 36.734375 C 131.019531 37.007812 131.703125 37.199219 132.605469 37.390625 C 133.480469 37.582031 134.082031 37.828125 134.4375 38.074219 C 134.792969 38.347656 134.984375 38.703125 134.984375 39.167969 Z M 134.984375 39.167969 "/>
<path fill-rule="nonzero" fill="rgb(0%, 0%, 0%)" fill-opacity="1" d="M 142.945312 36.40625 C 142.945312 34.957031 142.753906 33.5625 142.398438 32.277344 C 142.015625 30.992188 141.441406 29.816406 140.703125 28.75 C 139.964844 27.710938 139.171875 26.945312 138.378906 26.480469 L 137.996094 27.519531 C 138.597656 28.039062 139.144531 28.75 139.636719 29.625 C 140.128906 30.527344 140.511719 31.539062 140.785156 32.660156 C 141.058594 33.753906 141.195312 34.984375 141.195312 36.296875 L 141.195312 36.597656 C 141.195312 38.484375 140.867188 40.207031 140.292969 41.738281 C 139.71875 43.296875 138.953125 44.445312 137.996094 45.183594 L 138.378906 46.25 C 139.171875 45.785156 139.964844 45.019531 140.730469 43.953125 C 141.46875 42.886719 142.042969 41.683594 142.398438 40.398438 C 142.753906 39.140625 142.945312 37.800781 142.945312 36.40625 Z M 142.945312 36.40625 "/>
<path fill="none" stroke-width="0.3487" stroke-linecap="round" stroke-linejoin="round" stroke="rgb(0%, 0%, 0%)" stroke-opacity="1" stroke-miterlimit="10" d="M 8.505408 -3.48491 L 8.505408 3.486072 Z M 8.505408 -3.48491 " transform="matrix(1.75, 0, 0, -1.75, 166.533504, 36.303751)"/>
<path fill="none" stroke-width="0.3487" stroke-linecap="round" stroke-linejoin="round" stroke="rgb(0%, 0%, 0%)" stroke-opacity="1" stroke-miterlimit="10" d="M 61.853622 -3.48491 L 61.853622 3.486072 Z M 61.853622 -3.48491 " transform="matrix(1.75, 0, 0, -1.75, 166.533504, 36.303751)"/>
<path fill="none" stroke-width="0.3487" stroke-linecap="round" stroke-linejoin="round" stroke="rgb(0%, 0%, 0%)" stroke-opacity="1" stroke-miterlimit="10" d="M 115.201837 -3.48491 L 115.201837 3.486072 Z M 115.201837 -3.48491 " transform="matrix(1.75, 0, 0, -1.75, 166.533504, 36.303751)"/>
<path fill="none" stroke-width="0.3487" stroke-linecap="round" stroke-linejoin="round" stroke="rgb(0%, 0%, 0%)" stroke-opacity="1" stroke-miterlimit="10" d="M 168.550051 -3.48491 L 168.550051 3.486072 Z M 168.550051 -3.48491 " transform="matrix(1.75, 0, 0, -1.75, 166.533504, 36.303751)"/>
<path fill="none" stroke-width="0.3487" stroke-linecap="round" stroke-linejoin="round" stroke="rgb(0%, 0%, 0%)" stroke-opacity="1" stroke-miterlimit="10" d="M 221.900497 -3.48491 L 221.900497 3.486072 Z M 221.900497 -3.48491 " transform="matrix(1.75, 0, 0, -1.75, 166.533504, 36.303751)"/>
<path fill="none" stroke-width="0.3487" stroke-linecap="round" stroke-linejoin="round" stroke="rgb(0%, 0%, 0%)" stroke-opacity="1" stroke-miterlimit="10" d="M 275.248712 -3.48491 L 275.248712 3.486072 Z M 275.248712 -3.48491 " transform="matrix(1.75, 0, 0, -1.75, 166.533504, 36.303751)"/>
<path fill-rule="nonzero" fill="rgb(0%, 0%, 0%)" fill-opacity="1" d="M 184.949219 16.355469 L 184.949219 14.523438 C 184.894531 12.910156 184.621094 11.734375 184.046875 10.96875 C 183.5 10.175781 182.597656 9.792969 181.394531 9.792969 C 180.191406 9.792969 179.316406 10.203125 178.742188 10.996094 C 178.167969 11.789062 177.894531 13.019531 177.894531 14.660156 L 177.894531 16.546875 C 177.894531 18.105469 178.195312 19.308594 178.769531 20.101562 C 179.34375 20.867188 180.21875 21.277344 181.421875 21.277344 C 182.625 21.277344 183.5 20.867188 184.074219 20.074219 C 184.648438 19.253906 184.949219 18.023438 184.949219 16.355469 Z M 183.527344 14.414062 L 183.527344 16.738281 C 183.5 17.914062 183.308594 18.761719 182.980469 19.308594 C 182.625 19.855469 182.105469 20.101562 181.421875 20.101562 C 180.710938 20.101562 180.164062 19.828125 179.808594 19.253906 C 179.480469 18.679688 179.316406 17.777344 179.316406 16.574219 L 179.316406 14.304688 C 179.316406 13.183594 179.480469 12.335938 179.808594 11.789062 C 180.164062 11.269531 180.683594 10.96875 181.394531 10.96875 C 182.132812 10.96875 182.652344 11.269531 183.007812 11.789062 C 183.363281 12.335938 183.527344 13.210938 183.527344 14.414062 Z M 183.527344 14.414062 "/>
<path fill-rule="nonzero" fill="rgb(0%, 0%, 0%)" fill-opacity="1" d="M 271.960938 15.535156 L 273.082031 15.808594 L 273.464844 15.507812 C 273.820312 15.234375 274.3125 15.097656 274.914062 15.097656 C 275.597656 15.097656 276.144531 15.34375 276.554688 15.78125 C 276.964844 16.21875 277.15625 16.820312 277.15625 17.558594 C 277.15625 18.378906 276.964844 19.007812 276.582031 19.445312 C 276.226562 19.882812 275.707031 20.101562 275.023438 20.101562 C 274.421875 20.101562 273.929688 19.964844 273.574219 19.609375 C 273.191406 19.308594 272.972656 18.816406 272.890625 18.1875 L 271.550781 18.1875 C 271.632812 19.144531 271.988281 19.910156 272.617188 20.457031 C 273.246094 21.003906 274.039062 21.277344 275.023438 21.277344 C 276.144531 21.277344 276.992188 20.949219 277.621094 20.292969 C 278.25 19.609375 278.578125 18.707031 278.578125 17.558594 C 278.578125 16.410156 278.277344 15.507812 277.675781 14.824219 C 277.074219 14.167969 276.253906 13.839844 275.269531 13.839844 C 274.558594 13.839844 273.929688 13.976562 273.382812 14.304688 L 273.710938 11.269531 L 278.25 11.269531 L 278.25 9.957031 L 272.535156 9.957031 Z M 271.960938 15.535156 "/>
<path fill-rule="nonzero" fill="rgb(0%, 0%, 0%)" fill-opacity="1" d="M 365.117188 21.113281 L 365.117188 9.902344 L 364.898438 9.902344 L 360.824219 11.433594 L 360.824219 12.71875 L 363.695312 11.652344 L 363.695312 21.113281 Z M 365.117188 21.113281 "/>
<path fill-rule="nonzero" fill="rgb(0%, 0%, 0%)" fill-opacity="1" d="M 375.074219 16.355469 L 375.074219 14.523438 C 375.019531 12.910156 374.746094 11.734375 374.171875 10.96875 C 373.625 10.175781 372.722656 9.792969 371.519531 9.792969 C 370.316406 9.792969 369.441406 10.203125 368.867188 10.996094 C 368.292969 11.789062 368.019531 13.019531 368.019531 14.660156 L 368.019531 16.546875 C 368.019531 18.105469 368.320312 19.308594 368.894531 20.101562 C 369.46875 20.867188 370.34375 21.277344 371.546875 21.277344 C 372.75 21.277344 373.625 20.867188 374.199219 20.074219 C 374.773438 19.253906 375.074219 18.023438 375.074219 16.355469 Z M 373.652344 14.414062 L 373.652344 16.738281 C 373.625 17.914062 373.433594 18.761719 373.105469 19.308594 C 372.75 19.855469 372.230469 20.101562 371.546875 20.101562 C 370.835938 20.101562 370.289062 19.828125 369.933594 19.253906 C 369.605469 18.679688 369.441406 17.777344 369.441406 16.574219 L 369.441406 14.304688 C 369.441406 13.183594 369.605469 12.335938 369.933594 11.789062 C 370.289062 11.269531 370.808594 10.96875 371.519531 10.96875 C 372.257812 10.96875 372.777344 11.269531 373.132812 11.789062 C 373.488281 12.335938 373.652344 13.210938 373.652344 14.414062 Z M 373.652344 14.414062 "/>
<path fill-rule="nonzero" fill="rgb(0%, 0%, 0%)" fill-opacity="1" d="M 458.636719 21.113281 L 458.636719 9.902344 L 458.417969 9.902344 L 454.34375 11.433594 L 454.34375 12.71875 L 457.214844 11.652344 L 457.214844 21.113281 Z M 458.636719 21.113281 "/>
<path fill-rule="nonzero" fill="rgb(0%, 0%, 0%)" fill-opacity="1" d="M 462.082031 15.535156 L 463.203125 15.808594 L 463.585938 15.507812 C 463.941406 15.234375 464.433594 15.097656 465.035156 15.097656 C 465.71875 15.097656 466.265625 15.34375 466.675781 15.78125 C 467.085938 16.21875 467.277344 16.820312 467.277344 17.558594 C 467.277344 18.378906 467.085938 19.007812 466.703125 19.445312 C 466.347656 19.882812 465.828125 20.101562 465.144531 20.101562 C 464.542969 20.101562 464.050781 19.964844 463.695312 19.609375 C 463.3125 19.308594 463.09375 18.816406 463.011719 18.1875 L 461.671875 18.1875 C 461.753906 19.144531 462.109375 19.910156 462.738281 20.457031 C 463.367188 21.003906 464.160156 21.277344 465.144531 21.277344 C 466.265625 21.277344 467.113281 20.949219 467.742188 20.292969 C 468.371094 19.609375 468.699219 18.707031 468.699219 17.558594 C 468.699219 16.410156 468.398438 15.507812 467.796875 14.824219 C 467.195312 14.167969 466.375 13.839844 465.390625 13.839844 C 464.679688 13.839844 464.050781 13.976562 463.503906 14.304688 L 463.832031 11.269531 L 468.371094 11.269531 L 468.371094 9.957031 L 462.65625 9.957031 Z M 462.082031 15.535156 "/>
<path fill-rule="nonzero" fill="rgb(0%, 0%, 0%)" fill-opacity="1" d="M 554.121094 21.113281 L 554.121094 19.964844 L 548.515625 19.964844 L 551.496094 16.710938 C 552.917969 15.207031 553.601562 13.894531 553.601562 12.800781 C 553.601562 11.871094 553.300781 11.160156 552.699219 10.613281 C 552.097656 10.066406 551.277344 9.792969 550.265625 9.792969 C 549.144531 9.792969 548.242188 10.121094 547.585938 10.75 C 546.929688 11.40625 546.601562 12.226562 546.601562 13.238281 L 548.023438 13.238281 C 548.023438 12.527344 548.214844 11.980469 548.597656 11.570312 C 549.007812 11.1875 549.554688 10.96875 550.265625 10.96875 C 550.839844 10.96875 551.304688 11.160156 551.660156 11.515625 C 551.988281 11.898438 552.179688 12.363281 552.179688 12.964844 C 552.179688 13.402344 552.070312 13.8125 551.851562 14.222656 C 551.632812 14.632812 551.25 15.152344 550.675781 15.808594 L 546.820312 20.101562 L 546.820312 21.113281 Z M 554.121094 21.113281 "/>
<path fill-rule="nonzero" fill="rgb(0%, 0%, 0%)" fill-opacity="1" d="M 562.789062 16.355469 L 562.789062 14.523438 C 562.734375 12.910156 562.460938 11.734375 561.886719 10.96875 C 561.339844 10.175781 560.4375 9.792969 559.234375 9.792969 C 558.03125 9.792969 557.15625 10.203125 556.582031 10.996094 C 556.007812 11.789062 555.734375 13.019531 555.734375 14.660156 L 555.734375 16.546875 C 555.734375 18.105469 556.035156 19.308594 556.609375 20.101562 C 557.183594 20.867188 558.058594 21.277344 559.261719 21.277344 C 560.464844 21.277344 561.339844 20.867188 561.914062 20.074219 C 562.488281 19.253906 562.789062 18.023438 562.789062 16.355469 Z M 561.367188 14.414062 L 561.367188 16.738281 C 561.339844 17.914062 561.148438 18.761719 560.820312 19.308594 C 560.464844 19.855469 559.945312 20.101562 559.261719 20.101562 C 558.550781 20.101562 558.003906 19.828125 557.648438 19.253906 C 557.320312 18.679688 557.15625 17.777344 557.15625 16.574219 L 557.15625 14.304688 C 557.15625 13.183594 557.320312 12.335938 557.648438 11.789062 C 558.003906 11.269531 558.523438 10.96875 559.234375 10.96875 C 559.972656 10.96875 560.492188 11.269531 560.847656 11.789062 C 561.203125 12.335938 561.367188 13.210938 561.367188 14.414062 Z M 561.367188 14.414062 "/>
<path fill-rule="nonzero" fill="rgb(0%, 0%, 0%)" fill-opacity="1" d="M 647.636719 21.113281 L 647.636719 19.964844 L 642.03125 19.964844 L 645.011719 16.710938 C 646.433594 15.207031 647.117188 13.894531 647.117188 12.800781 C 647.117188 11.871094 646.816406 11.160156 646.214844 10.613281 C 645.613281 10.066406 644.792969 9.792969 643.78125 9.792969 C 642.660156 9.792969 641.757812 10.121094 641.101562 10.75 C 640.445312 11.40625 640.117188 12.226562 640.117188 13.238281 L 641.539062 13.238281 C 641.539062 12.527344 641.730469 11.980469 642.113281 11.570312 C 642.523438 11.1875 643.070312 10.96875 643.78125 10.96875 C 644.355469 10.96875 644.820312 11.160156 645.175781 11.515625 C 645.503906 11.898438 645.695312 12.363281 645.695312 12.964844 C 645.695312 13.402344 645.585938 13.8125 645.367188 14.222656 C 645.148438 14.632812 644.765625 15.152344 644.191406 15.808594 L 640.335938 20.101562 L 640.335938 21.113281 Z M 647.636719 21.113281 "/>
<path fill-rule="nonzero" fill="rgb(0%, 0%, 0%)" fill-opacity="1" d="M 649.796875 15.535156 L 650.917969 15.808594 L 651.300781 15.507812 C 651.65625 15.234375 652.148438 15.097656 652.75 15.097656 C 653.433594 15.097656 653.980469 15.34375 654.390625 15.78125 C 654.800781 16.21875 654.992188 16.820312 654.992188 17.558594 C 654.992188 18.378906 654.800781 19.007812 654.417969 19.445312 C 654.0625 19.882812 653.542969 20.101562 652.859375 20.101562 C 652.257812 20.101562 651.765625 19.964844 651.410156 19.609375 C 651.027344 19.308594 650.808594 18.816406 650.726562 18.1875 L 649.386719 18.1875 C 649.46875 19.144531 649.824219 19.910156 650.453125 20.457031 C 651.082031 21.003906 651.875 21.277344 652.859375 21.277344 C 653.980469 21.277344 654.828125 20.949219 655.457031 20.292969 C 656.085938 19.609375 656.414062 18.707031 656.414062 17.558594 C 656.414062 16.410156 656.113281 15.507812 655.511719 14.824219 C 654.910156 14.167969 654.089844 13.839844 653.105469 13.839844 C 652.394531 13.839844 651.765625 13.976562 651.21875 14.304688 L 651.546875 11.269531 L 656.085938 11.269531 L 656.085938 9.957031 L 650.371094 9.957031 Z M 649.796875 15.535156 "/>
<path fill="none" stroke-width="0.74721" stroke-linecap="butt" stroke-linejoin="round" stroke="rgb(0%, 0%, 0%)" stroke-opacity="1" stroke-miterlimit="10" d="M -0.00128828 -34.719285 L 285.487551 -34.719285 " transform="matrix(1.75, 0, 0, -1.75, 166.533504, 36.303751)"/>
<path fill-rule="nonzero" fill="rgb(0%, 0%, 0%)" fill-opacity="1" d="M 670.535156 97.0625 L 663.496094 93.535156 L 666.136719 97.0625 L 663.496094 100.582031 "/>
<path fill="none" stroke-width="0.3487" stroke-linecap="round" stroke-linejoin="round" stroke="rgb(0%, 0%, 0%)" stroke-opacity="1" stroke-miterlimit="10" d="M 8.505408 -38.20366 L 8.505408 -31.232678 Z M 8.505408 -38.20366 " transform="matrix(1.75, 0, 0, -1.75, 166.533504, 36.303751)"/>
<path fill="none" stroke-width="0.3487" stroke-linecap="round" stroke-linejoin="round" stroke="rgb(0%, 0%, 0%)" stroke-opacity="1" stroke-miterlimit="10" d="M 61.853622 -38.20366 L 61.853622 -31.232678 Z M 61.853622 -38.20366 " transform="matrix(1.75, 0, 0, -1.75, 166.533504, 36.303751)"/>
<path fill="none" stroke-width="0.3487" stroke-linecap="round" stroke-linejoin="round" stroke="rgb(0%, 0%, 0%)" stroke-opacity="1" stroke-miterlimit="10" d="M 115.201837 -38.20366 L 115.201837 -31.232678 Z M 115.201837 -38.20366 " transform="matrix(1.75, 0, 0, -1.75, 166.533504, 36.303751)"/>
<path fill="none" stroke-width="0.3487" stroke-linecap="round" stroke-linejoin="round" stroke="rgb(0%, 0%, 0%)" stroke-opacity="1" stroke-miterlimit="10" d="M 168.550051 -38.20366 L 168.550051 -31.232678 Z M 168.550051 -38.20366 " transform="matrix(1.75, 0, 0, -1.75, 166.533504, 36.303751)"/>
<path fill="none" stroke-width="0.3487" stroke-linecap="round" stroke-linejoin="round" stroke="rgb(0%, 0%, 0%)" stroke-opacity="1" stroke-miterlimit="10" d="M 221.900497 -38.20366 L 221.900497 -31.232678 Z M 221.900497 -38.20366 " transform="matrix(1.75, 0, 0, -1.75, 166.533504, 36.303751)"/>
<path fill="none" stroke-width="0.3487" stroke-linecap="round" stroke-linejoin="round" stroke="rgb(0%, 0%, 0%)" stroke-opacity="1" stroke-miterlimit="10" d="M 275.248712 -38.20366 L 275.248712 -31.232678 Z M 275.248712 -38.20366 " transform="matrix(1.75, 0, 0, -1.75, 166.533504, 36.303751)"/>
<path fill-rule="nonzero" fill="rgb(0%, 0%, 0%)" fill-opacity="1" d="M 179.207031 120.652344 L 179.207031 118.820312 C 179.152344 117.207031 178.878906 116.03125 178.304688 115.265625 C 177.757812 114.472656 176.855469 114.089844 175.652344 114.089844 C 174.449219 114.089844 173.574219 114.5 173 115.292969 C 172.425781 116.085938 172.152344 117.316406 172.152344 118.957031 L 172.152344 120.84375 C 172.152344 122.402344 172.453125 123.605469 173.027344 124.398438 C 173.601562 125.164062 174.476562 125.574219 175.679688 125.574219 C 176.882812 125.574219 177.757812 125.164062 178.332031 124.371094 C 178.90625 123.550781 179.207031 122.320312 179.207031 120.652344 Z M 177.785156 118.710938 L 177.785156 121.035156 C 177.757812 122.210938 177.566406 123.058594 177.238281 123.605469 C 176.882812 124.152344 176.363281 124.398438 175.679688 124.398438 C 174.96875 124.398438 174.421875 124.125 174.066406 123.550781 C 173.738281 122.976562 173.574219 122.074219 173.574219 120.871094 L 173.574219 118.601562 C 173.574219 117.480469 173.738281 116.632812 174.066406 116.085938 C 174.421875 115.566406 174.941406 115.265625 175.652344 115.265625 C 176.390625 115.265625 176.910156 115.566406 177.265625 116.085938 C 177.621094 116.632812 177.785156 117.507812 177.785156 118.710938 Z M 177.785156 118.710938 "/>
<path fill-rule="nonzero" fill="rgb(0%, 0%, 0%)" fill-opacity="1" d="M 181.023438 116.414062 L 181.023438 116.933594 C 181.023438 117.644531 181.242188 118.21875 181.679688 118.65625 C 182.117188 119.066406 182.691406 119.285156 183.347656 119.285156 C 184.003906 119.285156 184.523438 119.066406 184.960938 118.628906 C 185.371094 118.21875 185.589844 117.644531 185.589844 116.988281 L 185.589844 116.441406 C 185.589844 115.757812 185.371094 115.183594 184.960938 114.746094 C 184.550781 114.308594 184.003906 114.089844 183.320312 114.089844 C 182.636719 114.089844 182.089844 114.308594 181.679688 114.746094 C 181.242188 115.183594 181.023438 115.730469 181.023438 116.414062 Z M 182.089844 116.988281 L 182.089844 116.441406 C 182.089844 116.03125 182.199219 115.675781 182.417969 115.402344 C 182.636719 115.15625 182.9375 115.019531 183.320312 115.019531 C 183.703125 115.019531 184.003906 115.15625 184.222656 115.402344 C 184.441406 115.675781 184.550781 116.003906 184.550781 116.414062 L 184.550781 116.960938 C 184.550781 117.398438 184.441406 117.726562 184.222656 117.972656 C 184.003906 118.246094 183.703125 118.355469 183.347656 118.355469 C 182.964844 118.355469 182.636719 118.246094 182.417969 117.972656 C 182.199219 117.726562 182.089844 117.398438 182.089844 116.988281 Z M 186.464844 122.675781 L 186.464844 123.222656 C 186.464844 123.960938 186.65625 124.507812 187.09375 124.945312 C 187.53125 125.355469 188.105469 125.574219 188.761719 125.574219 C 189.417969 125.574219 189.964844 125.355469 190.402344 124.917969 C 190.8125 124.507812 191.03125 123.960938 191.03125 123.277344 L 191.03125 122.730469 C 191.03125 122.019531 190.8125 121.445312 190.402344 121.007812 C 189.964844 120.597656 189.417969 120.378906 188.761719 120.378906 C 188.078125 120.378906 187.53125 120.597656 187.09375 121.035156 C 186.65625 121.472656 186.464844 122.019531 186.464844 122.675781 Z M 187.53125 123.277344 L 187.53125 122.703125 C 187.53125 122.292969 187.640625 121.9375 187.859375 121.691406 C 188.078125 121.445312 188.378906 121.308594 188.761719 121.308594 C 189.117188 121.308594 189.417969 121.445312 189.636719 121.691406 C 189.855469 121.9375 189.964844 122.265625 189.964844 122.675781 L 189.964844 123.25 C 189.964844 123.6875 189.855469 124.015625 189.636719 124.289062 C 189.417969 124.535156 189.117188 124.644531 188.761719 124.644531 C 188.378906 124.644531 188.078125 124.535156 187.859375 124.289062 C 187.640625 124.015625 187.53125 123.6875 187.53125 123.277344 Z M 183.648438 124.5625 L 189.089844 115.839844 L 188.296875 115.320312 L 182.855469 124.070312 Z M 183.648438 124.5625 "/>
<path fill-rule="nonzero" fill="rgb(0%, 0%, 0%)" fill-opacity="1" d="M 268.457031 125.410156 L 268.457031 124.261719 L 262.851562 124.261719 L 265.832031 121.007812 C 267.253906 119.503906 267.9375 118.191406 267.9375 117.097656 C 267.9375 116.167969 267.636719 115.457031 267.035156 114.910156 C 266.433594 114.363281 265.613281 114.089844 264.601562 114.089844 C 263.480469 114.089844 262.578125 114.417969 261.921875 115.046875 C 261.265625 115.703125 260.9375 116.523438 260.9375 117.535156 L 262.359375 117.535156 C 262.359375 116.824219 262.550781 116.277344 262.933594 115.867188 C 263.34375 115.484375 263.890625 115.265625 264.601562 115.265625 C 265.175781 115.265625 265.640625 115.457031 265.996094 115.8125 C 266.324219 116.195312 266.515625 116.660156 266.515625 117.261719 C 266.515625 117.699219 266.40625 118.109375 266.1875 118.519531 C 265.96875 118.929688 265.585938 119.449219 265.011719 120.105469 L 261.15625 124.398438 L 261.15625 125.410156 Z M 268.457031 125.410156 "/>
<path fill-rule="nonzero" fill="rgb(0%, 0%, 0%)" fill-opacity="1" d="M 270.617188 119.832031 L 271.738281 120.105469 L 272.121094 119.804688 C 272.476562 119.53125 272.96875 119.394531 273.570312 119.394531 C 274.253906 119.394531 274.800781 119.640625 275.210938 120.078125 C 275.621094 120.515625 275.8125 121.117188 275.8125 121.855469 C 275.8125 122.675781 275.621094 123.304688 275.238281 123.742188 C 274.882812 124.179688 274.363281 124.398438 273.679688 124.398438 C 273.078125 124.398438 272.585938 124.261719 272.230469 123.90625 C 271.847656 123.605469 271.628906 123.113281 271.546875 122.484375 L 270.207031 122.484375 C 270.289062 123.441406 270.644531 124.207031 271.273438 124.753906 C 271.902344 125.300781 272.695312 125.574219 273.679688 125.574219 C 274.800781 125.574219 275.648438 125.246094 276.277344 124.589844 C 276.90625 123.90625 277.234375 123.003906 277.234375 121.855469 C 277.234375 120.707031 276.933594 119.804688 276.332031 119.121094 C 275.730469 118.464844 274.910156 118.136719 273.925781 118.136719 C 273.214844 118.136719 272.585938 118.273438 272.039062 118.601562 L 272.367188 115.566406 L 276.90625 115.566406 L 276.90625 114.253906 L 271.191406 114.253906 Z M 270.617188 119.832031 "/>
<path fill-rule="nonzero" fill="rgb(0%, 0%, 0%)" fill-opacity="1" d="M 278.628906 116.414062 L 278.628906 116.933594 C 278.628906 117.644531 278.847656 118.21875 279.285156 118.65625 C 279.722656 119.066406 280.296875 119.285156 280.953125 119.285156 C 281.609375 119.285156 282.128906 119.066406 282.566406 118.628906 C 282.976562 118.21875 283.195312 117.644531 283.195312 116.988281 L 283.195312 116.441406 C 283.195312 115.757812 282.976562 115.183594 282.566406 114.746094 C 282.15625 114.308594 281.609375 114.089844 280.925781 114.089844 C 280.242188 114.089844 279.695312 114.308594 279.285156 114.746094 C 278.847656 115.183594 278.628906 115.730469 278.628906 116.414062 Z M 279.695312 116.988281 L 279.695312 116.441406 C 279.695312 116.03125 279.804688 115.675781 280.023438 115.402344 C 280.242188 115.15625 280.542969 115.019531 280.925781 115.019531 C 281.308594 115.019531 281.609375 115.15625 281.828125 115.402344 C 282.046875 115.675781 282.15625 116.003906 282.15625 116.414062 L 282.15625 116.960938 C 282.15625 117.398438 282.046875 117.726562 281.828125 117.972656 C 281.609375 118.246094 281.308594 118.355469 280.953125 118.355469 C 280.570312 118.355469 280.242188 118.246094 280.023438 117.972656 C 279.804688 117.726562 279.695312 117.398438 279.695312 116.988281 Z M 284.070312 122.675781 L 284.070312 123.222656 C 284.070312 123.960938 284.261719 124.507812 284.699219 124.945312 C 285.136719 125.355469 285.710938 125.574219 286.367188 125.574219 C 287.023438 125.574219 287.570312 125.355469 288.007812 124.917969 C 288.417969 124.507812 288.636719 123.960938 288.636719 123.277344 L 288.636719 122.730469 C 288.636719 122.019531 288.417969 121.445312 288.007812 121.007812 C 287.570312 120.597656 287.023438 120.378906 286.367188 120.378906 C 285.683594 120.378906 285.136719 120.597656 284.699219 121.035156 C 284.261719 121.472656 284.070312 122.019531 284.070312 122.675781 Z M 285.136719 123.277344 L 285.136719 122.703125 C 285.136719 122.292969 285.246094 121.9375 285.464844 121.691406 C 285.683594 121.445312 285.984375 121.308594 286.367188 121.308594 C 286.722656 121.308594 287.023438 121.445312 287.242188 121.691406 C 287.460938 121.9375 287.570312 122.265625 287.570312 122.675781 L 287.570312 123.25 C 287.570312 123.6875 287.460938 124.015625 287.242188 124.289062 C 287.023438 124.535156 286.722656 124.644531 286.367188 124.644531 C 285.984375 124.644531 285.683594 124.535156 285.464844 124.289062 C 285.246094 124.015625 285.136719 123.6875 285.136719 123.277344 Z M 281.253906 124.5625 L 286.695312 115.839844 L 285.902344 115.320312 L 280.460938 124.070312 Z M 281.253906 124.5625 "/>
<path fill-rule="nonzero" fill="rgb(0%, 0%, 0%)" fill-opacity="1" d="M 355.015625 119.832031 L 356.136719 120.105469 L 356.519531 119.804688 C 356.875 119.53125 357.367188 119.394531 357.96875 119.394531 C 358.652344 119.394531 359.199219 119.640625 359.609375 120.078125 C 360.019531 120.515625 360.210938 121.117188 360.210938 121.855469 C 360.210938 122.675781 360.019531 123.304688 359.636719 123.742188 C 359.28125 124.179688 358.761719 124.398438 358.078125 124.398438 C 357.476562 124.398438 356.984375 124.261719 356.628906 123.90625 C 356.246094 123.605469 356.027344 123.113281 355.945312 122.484375 L 354.605469 122.484375 C 354.6875 123.441406 355.042969 124.207031 355.671875 124.753906 C 356.300781 125.300781 357.09375 125.574219 358.078125 125.574219 C 359.199219 125.574219 360.046875 125.246094 360.675781 124.589844 C 361.304688 123.90625 361.632812 123.003906 361.632812 121.855469 C 361.632812 120.707031 361.332031 119.804688 360.730469 119.121094 C 360.128906 118.464844 359.308594 118.136719 358.324219 118.136719 C 357.613281 118.136719 356.984375 118.273438 356.4375 118.601562 L 356.765625 115.566406 L 361.304688 115.566406 L 361.304688 114.253906 L 355.589844 114.253906 Z M 355.015625 119.832031 "/>
<path fill-rule="nonzero" fill="rgb(0%, 0%, 0%)" fill-opacity="1" d="M 370.328125 120.652344 L 370.328125 118.820312 C 370.273438 117.207031 370 116.03125 369.425781 115.265625 C 368.878906 114.472656 367.976562 114.089844 366.773438 114.089844 C 365.570312 114.089844 364.695312 114.5 364.121094 115.292969 C 363.546875 116.085938 363.273438 117.316406 363.273438 118.957031 L 363.273438 120.84375 C 363.273438 122.402344 363.574219 123.605469 364.148438 124.398438 C 364.722656 125.164062 365.597656 125.574219 366.800781 125.574219 C 368.003906 125.574219 368.878906 125.164062 369.453125 124.371094 C 370.027344 123.550781 370.328125 122.320312 370.328125 120.652344 Z M 368.90625 118.710938 L 368.90625 121.035156 C 368.878906 122.210938 368.6875 123.058594 368.359375 123.605469 C 368.003906 124.152344 367.484375 124.398438 366.800781 124.398438 C 366.089844 124.398438 365.542969 124.125 365.1875 123.550781 C 364.859375 122.976562 364.695312 122.074219 364.695312 120.871094 L 364.695312 118.601562 C 364.695312 117.480469 364.859375 116.632812 365.1875 116.085938 C 365.542969 115.566406 366.0625 115.265625 366.773438 115.265625 C 367.511719 115.265625 368.03125 115.566406 368.386719 116.085938 C 368.742188 116.632812 368.90625 117.507812 368.90625 118.710938 Z M 368.90625 118.710938 "/>
<path fill-rule="nonzero" fill="rgb(0%, 0%, 0%)" fill-opacity="1" d="M 372.140625 116.414062 L 372.140625 116.933594 C 372.140625 117.644531 372.359375 118.21875 372.796875 118.65625 C 373.234375 119.066406 373.808594 119.285156 374.464844 119.285156 C 375.121094 119.285156 375.640625 119.066406 376.078125 118.628906 C 376.488281 118.21875 376.707031 117.644531 376.707031 116.988281 L 376.707031 116.441406 C 376.707031 115.757812 376.488281 115.183594 376.078125 114.746094 C 375.667969 114.308594 375.121094 114.089844 374.4375 114.089844 C 373.753906 114.089844 373.207031 114.308594 372.796875 114.746094 C 372.359375 115.183594 372.140625 115.730469 372.140625 116.414062 Z M 373.207031 116.988281 L 373.207031 116.441406 C 373.207031 116.03125 373.316406 115.675781 373.535156 115.402344 C 373.753906 115.15625 374.054688 115.019531 374.4375 115.019531 C 374.820312 115.019531 375.121094 115.15625 375.339844 115.402344 C 375.558594 115.675781 375.667969 116.003906 375.667969 116.414062 L 375.667969 116.960938 C 375.667969 117.398438 375.558594 117.726562 375.339844 117.972656 C 375.121094 118.246094 374.820312 118.355469 374.464844 118.355469 C 374.082031 118.355469 373.753906 118.246094 373.535156 117.972656 C 373.316406 117.726562 373.207031 117.398438 373.207031 116.988281 Z M 377.582031 122.675781 L 377.582031 123.222656 C 377.582031 123.960938 377.773438 124.507812 378.210938 124.945312 C 378.648438 125.355469 379.222656 125.574219 379.878906 125.574219 C 380.535156 125.574219 381.082031 125.355469 381.519531 124.917969 C 381.929688 124.507812 382.148438 123.960938 382.148438 123.277344 L 382.148438 122.730469 C 382.148438 122.019531 381.929688 121.445312 381.519531 121.007812 C 381.082031 120.597656 380.535156 120.378906 379.878906 120.378906 C 379.195312 120.378906 378.648438 120.597656 378.210938 121.035156 C 377.773438 121.472656 377.582031 122.019531 377.582031 122.675781 Z M 378.648438 123.277344 L 378.648438 122.703125 C 378.648438 122.292969 378.757812 121.9375 378.976562 121.691406 C 379.195312 121.445312 379.496094 121.308594 379.878906 121.308594 C 380.234375 121.308594 380.535156 121.445312 380.753906 121.691406 C 380.972656 121.9375 381.082031 122.265625 381.082031 122.675781 L 381.082031 123.25 C 381.082031 123.6875 380.972656 124.015625 380.753906 124.289062 C 380.535156 124.535156 380.234375 124.644531 379.878906 124.644531 C 379.496094 124.644531 379.195312 124.535156 378.976562 124.289062 C 378.757812 124.015625 378.648438 123.6875 378.648438 123.277344 Z M 374.765625 124.5625 L 380.207031 115.839844 L 379.414062 115.320312 L 373.972656 124.070312 Z M 374.765625 124.5625 "/>
<path fill-rule="nonzero" fill="rgb(0%, 0%, 0%)" fill-opacity="1" d="M 454.800781 115.046875 L 454.800781 114.253906 L 447.773438 114.253906 L 447.773438 115.402344 L 453.378906 115.402344 L 448.949219 125.410156 L 450.371094 125.410156 Z M 454.800781 115.046875 "/>
<path fill-rule="nonzero" fill="rgb(0%, 0%, 0%)" fill-opacity="1" d="M 456.972656 119.832031 L 458.09375 120.105469 L 458.476562 119.804688 C 458.832031 119.53125 459.324219 119.394531 459.925781 119.394531 C 460.609375 119.394531 461.15625 119.640625 461.566406 120.078125 C 461.976562 120.515625 462.167969 121.117188 462.167969 121.855469 C 462.167969 122.675781 461.976562 123.304688 461.59375 123.742188 C 461.238281 124.179688 460.71875 124.398438 460.035156 124.398438 C 459.433594 124.398438 458.941406 124.261719 458.585938 123.90625 C 458.203125 123.605469 457.984375 123.113281 457.902344 122.484375 L 456.5625 122.484375 C 456.644531 123.441406 457 124.207031 457.628906 124.753906 C 458.257812 125.300781 459.050781 125.574219 460.035156 125.574219 C 461.15625 125.574219 462.003906 125.246094 462.632812 124.589844 C 463.261719 123.90625 463.589844 123.003906 463.589844 121.855469 C 463.589844 120.707031 463.289062 119.804688 462.6875 119.121094 C 462.085938 118.464844 461.265625 118.136719 460.28125 118.136719 C 459.570312 118.136719 458.941406 118.273438 458.394531 118.601562 L 458.722656 115.566406 L 463.261719 115.566406 L 463.261719 114.253906 L 457.546875 114.253906 Z M 456.972656 119.832031 "/>
<path fill-rule="nonzero" fill="rgb(0%, 0%, 0%)" fill-opacity="1" d="M 464.984375 116.414062 L 464.984375 116.933594 C 464.984375 117.644531 465.203125 118.21875 465.640625 118.65625 C 466.078125 119.066406 466.652344 119.285156 467.308594 119.285156 C 467.964844 119.285156 468.484375 119.066406 468.921875 118.628906 C 469.332031 118.21875 469.550781 117.644531 469.550781 116.988281 L 469.550781 116.441406 C 469.550781 115.757812 469.332031 115.183594 468.921875 114.746094 C 468.511719 114.308594 467.964844 114.089844 467.28125 114.089844 C 466.597656 114.089844 466.050781 114.308594 465.640625 114.746094 C 465.203125 115.183594 464.984375 115.730469 464.984375 116.414062 Z M 466.050781 116.988281 L 466.050781 116.441406 C 466.050781 116.03125 466.160156 115.675781 466.378906 115.402344 C 466.597656 115.15625 466.898438 115.019531 467.28125 115.019531 C 467.664062 115.019531 467.964844 115.15625 468.183594 115.402344 C 468.402344 115.675781 468.511719 116.003906 468.511719 116.414062 L 468.511719 116.960938 C 468.511719 117.398438 468.402344 117.726562 468.183594 117.972656 C 467.964844 118.246094 467.664062 118.355469 467.308594 118.355469 C 466.925781 118.355469 466.597656 118.246094 466.378906 117.972656 C 466.160156 117.726562 466.050781 117.398438 466.050781 116.988281 Z M 470.425781 122.675781 L 470.425781 123.222656 C 470.425781 123.960938 470.617188 124.507812 471.054688 124.945312 C 471.492188 125.355469 472.066406 125.574219 472.722656 125.574219 C 473.378906 125.574219 473.925781 125.355469 474.363281 124.917969 C 474.773438 124.507812 474.992188 123.960938 474.992188 123.277344 L 474.992188 122.730469 C 474.992188 122.019531 474.773438 121.445312 474.363281 121.007812 C 473.925781 120.597656 473.378906 120.378906 472.722656 120.378906 C 472.039062 120.378906 471.492188 120.597656 471.054688 121.035156 C 470.617188 121.472656 470.425781 122.019531 470.425781 122.675781 Z M 471.492188 123.277344 L 471.492188 122.703125 C 471.492188 122.292969 471.601562 121.9375 471.820312 121.691406 C 472.039062 121.445312 472.339844 121.308594 472.722656 121.308594 C 473.078125 121.308594 473.378906 121.445312 473.597656 121.691406 C 473.816406 121.9375 473.925781 122.265625 473.925781 122.675781 L 473.925781 123.25 C 473.925781 123.6875 473.816406 124.015625 473.597656 124.289062 C 473.378906 124.535156 473.078125 124.644531 472.722656 124.644531 C 472.339844 124.644531 472.039062 124.535156 471.820312 124.289062 C 471.601562 124.015625 471.492188 123.6875 471.492188 123.277344 Z M 467.609375 124.5625 L 473.050781 115.839844 L 472.257812 115.320312 L 466.816406 124.070312 Z M 467.609375 124.5625 "/>
<path fill-rule="nonzero" fill="rgb(0%, 0%, 0%)" fill-opacity="1" d="M 541.535156 125.410156 L 541.535156 114.199219 L 541.316406 114.199219 L 537.242188 115.730469 L 537.242188 117.015625 L 540.113281 115.949219 L 540.113281 125.410156 Z M 541.535156 125.410156 "/>
<path fill-rule="nonzero" fill="rgb(0%, 0%, 0%)" fill-opacity="1" d="M 551.492188 120.652344 L 551.492188 118.820312 C 551.4375 117.207031 551.164062 116.03125 550.589844 115.265625 C 550.042969 114.472656 549.140625 114.089844 547.9375 114.089844 C 546.734375 114.089844 545.859375 114.5 545.285156 115.292969 C 544.710938 116.085938 544.4375 117.316406 544.4375 118.957031 L 544.4375 120.84375 C 544.4375 122.402344 544.738281 123.605469 545.3125 124.398438 C 545.886719 125.164062 546.761719 125.574219 547.964844 125.574219 C 549.167969 125.574219 550.042969 125.164062 550.617188 124.371094 C 551.191406 123.550781 551.492188 122.320312 551.492188 120.652344 Z M 550.070312 118.710938 L 550.070312 121.035156 C 550.042969 122.210938 549.851562 123.058594 549.523438 123.605469 C 549.167969 124.152344 548.648438 124.398438 547.964844 124.398438 C 547.253906 124.398438 546.707031 124.125 546.351562 123.550781 C 546.023438 122.976562 545.859375 122.074219 545.859375 120.871094 L 545.859375 118.601562 C 545.859375 117.480469 546.023438 116.632812 546.351562 116.085938 C 546.707031 115.566406 547.226562 115.265625 547.9375 115.265625 C 548.675781 115.265625 549.195312 115.566406 549.550781 116.085938 C 549.90625 116.632812 550.070312 117.507812 550.070312 118.710938 Z M 550.070312 118.710938 "/>
<path fill-rule="nonzero" fill="rgb(0%, 0%, 0%)" fill-opacity="1" d="M 560.605469 120.652344 L 560.605469 118.820312 C 560.550781 117.207031 560.277344 116.03125 559.703125 115.265625 C 559.15625 114.472656 558.253906 114.089844 557.050781 114.089844 C 555.847656 114.089844 554.972656 114.5 554.398438 115.292969 C 553.824219 116.085938 553.550781 117.316406 553.550781 118.957031 L 553.550781 120.84375 C 553.550781 122.402344 553.851562 123.605469 554.425781 124.398438 C 555 125.164062 555.875 125.574219 557.078125 125.574219 C 558.28125 125.574219 559.15625 125.164062 559.730469 124.371094 C 560.304688 123.550781 560.605469 122.320312 560.605469 120.652344 Z M 559.183594 118.710938 L 559.183594 121.035156 C 559.15625 122.210938 558.964844 123.058594 558.636719 123.605469 C 558.28125 124.152344 557.761719 124.398438 557.078125 124.398438 C 556.367188 124.398438 555.820312 124.125 555.464844 123.550781 C 555.136719 122.976562 554.972656 122.074219 554.972656 120.871094 L 554.972656 118.601562 C 554.972656 117.480469 555.136719 116.632812 555.464844 116.085938 C 555.820312 115.566406 556.339844 115.265625 557.050781 115.265625 C 557.789062 115.265625 558.308594 115.566406 558.664062 116.085938 C 559.019531 116.632812 559.183594 117.507812 559.183594 118.710938 Z M 559.183594 118.710938 "/>
<path fill-rule="nonzero" fill="rgb(0%, 0%, 0%)" fill-opacity="1" d="M 562.421875 116.414062 L 562.421875 116.933594 C 562.421875 117.644531 562.640625 118.21875 563.078125 118.65625 C 563.515625 119.066406 564.089844 119.285156 564.746094 119.285156 C 565.402344 119.285156 565.921875 119.066406 566.359375 118.628906 C 566.769531 118.21875 566.988281 117.644531 566.988281 116.988281 L 566.988281 116.441406 C 566.988281 115.757812 566.769531 115.183594 566.359375 114.746094 C 565.949219 114.308594 565.402344 114.089844 564.71875 114.089844 C 564.035156 114.089844 563.488281 114.308594 563.078125 114.746094 C 562.640625 115.183594 562.421875 115.730469 562.421875 116.414062 Z M 563.488281 116.988281 L 563.488281 116.441406 C 563.488281 116.03125 563.597656 115.675781 563.816406 115.402344 C 564.035156 115.15625 564.335938 115.019531 564.71875 115.019531 C 565.101562 115.019531 565.402344 115.15625 565.621094 115.402344 C 565.839844 115.675781 565.949219 116.003906 565.949219 116.414062 L 565.949219 116.960938 C 565.949219 117.398438 565.839844 117.726562 565.621094 117.972656 C 565.402344 118.246094 565.101562 118.355469 564.746094 118.355469 C 564.363281 118.355469 564.035156 118.246094 563.816406 117.972656 C 563.597656 117.726562 563.488281 117.398438 563.488281 116.988281 Z M 567.863281 122.675781 L 567.863281 123.222656 C 567.863281 123.960938 568.054688 124.507812 568.492188 124.945312 C 568.929688 125.355469 569.503906 125.574219 570.160156 125.574219 C 570.816406 125.574219 571.363281 125.355469 571.800781 124.917969 C 572.210938 124.507812 572.429688 123.960938 572.429688 123.277344 L 572.429688 122.730469 C 572.429688 122.019531 572.210938 121.445312 571.800781 121.007812 C 571.363281 120.597656 570.816406 120.378906 570.160156 120.378906 C 569.476562 120.378906 568.929688 120.597656 568.492188 121.035156 C 568.054688 121.472656 567.863281 122.019531 567.863281 122.675781 Z M 568.929688 123.277344 L 568.929688 122.703125 C 568.929688 122.292969 569.039062 121.9375 569.257812 121.691406 C 569.476562 121.445312 569.777344 121.308594 570.160156 121.308594 C 570.515625 121.308594 570.816406 121.445312 571.035156 121.691406 C 571.253906 121.9375 571.363281 122.265625 571.363281 122.675781 L 571.363281 123.25 C 571.363281 123.6875 571.253906 124.015625 571.035156 124.289062 C 570.816406 124.535156 570.515625 124.644531 570.160156 124.644531 C 569.777344 124.644531 569.476562 124.535156 569.257812 124.289062 C 569.039062 124.015625 568.929688 123.6875 568.929688 123.277344 Z M 565.046875 124.5625 L 570.488281 115.839844 L 569.695312 115.320312 L 564.253906 124.070312 Z M 565.046875 124.5625 "/>
<path fill-rule="nonzero" fill="rgb(0%, 0%, 0%)" fill-opacity="1" d="M 635.207031 125.410156 L 635.207031 114.199219 L 634.988281 114.199219 L 630.914062 115.730469 L 630.914062 117.015625 L 633.785156 115.949219 L 633.785156 125.410156 Z M 635.207031 125.410156 "/>
<path fill-rule="nonzero" fill="rgb(0%, 0%, 0%)" fill-opacity="1" d="M 645.300781 125.410156 L 645.300781 124.261719 L 639.695312 124.261719 L 642.675781 121.007812 C 644.097656 119.503906 644.78125 118.191406 644.78125 117.097656 C 644.78125 116.167969 644.480469 115.457031 643.878906 114.910156 C 643.277344 114.363281 642.457031 114.089844 641.445312 114.089844 C 640.324219 114.089844 639.421875 114.417969 638.765625 115.046875 C 638.109375 115.703125 637.78125 116.523438 637.78125 117.535156 L 639.203125 117.535156 C 639.203125 116.824219 639.394531 116.277344 639.777344 115.867188 C 640.1875 115.484375 640.734375 115.265625 641.445312 115.265625 C 642.019531 115.265625 642.484375 115.457031 642.839844 115.8125 C 643.167969 116.195312 643.359375 116.660156 643.359375 117.261719 C 643.359375 117.699219 643.25 118.109375 643.03125 118.519531 C 642.8125 118.929688 642.429688 119.449219 641.855469 120.105469 L 638 124.398438 L 638 125.410156 Z M 645.300781 125.410156 "/>
<path fill-rule="nonzero" fill="rgb(0%, 0%, 0%)" fill-opacity="1" d="M 647.457031 119.832031 L 648.578125 120.105469 L 648.960938 119.804688 C 649.316406 119.53125 649.808594 119.394531 650.410156 119.394531 C 651.09375 119.394531 651.640625 119.640625 652.050781 120.078125 C 652.460938 120.515625 652.652344 121.117188 652.652344 121.855469 C 652.652344 122.675781 652.460938 123.304688 652.078125 123.742188 C 651.722656 124.179688 651.203125 124.398438 650.519531 124.398438 C 649.917969 124.398438 649.425781 124.261719 649.070312 123.90625 C 648.6875 123.605469 648.46875 123.113281 648.386719 122.484375 L 647.046875 122.484375 C 647.128906 123.441406 647.484375 124.207031 648.113281 124.753906 C 648.742188 125.300781 649.535156 125.574219 650.519531 125.574219 C 651.640625 125.574219 652.488281 125.246094 653.117188 124.589844 C 653.746094 123.90625 654.074219 123.003906 654.074219 121.855469 C 654.074219 120.707031 653.773438 119.804688 653.171875 119.121094 C 652.570312 118.464844 651.75 118.136719 650.765625 118.136719 C 650.054688 118.136719 649.425781 118.273438 648.878906 118.601562 L 649.207031 115.566406 L 653.746094 115.566406 L 653.746094 114.253906 L 648.03125 114.253906 Z M 647.457031 119.832031 "/>
<path fill-rule="nonzero" fill="rgb(0%, 0%, 0%)" fill-opacity="1" d="M 655.46875 116.414062 L 655.46875 116.933594 C 655.46875 117.644531 655.6875 118.21875 656.125 118.65625 C 656.5625 119.066406 657.136719 119.285156 657.792969 119.285156 C 658.449219 119.285156 658.96875 119.066406 659.40625 118.628906 C 659.816406 118.21875 660.035156 117.644531 660.035156 116.988281 L 660.035156 116.441406 C 660.035156 115.757812 659.816406 115.183594 659.40625 114.746094 C 658.996094 114.308594 658.449219 114.089844 657.765625 114.089844 C 657.082031 114.089844 656.535156 114.308594 656.125 114.746094 C 655.6875 115.183594 655.46875 115.730469 655.46875 116.414062 Z M 656.535156 116.988281 L 656.535156 116.441406 C 656.535156 116.03125 656.644531 115.675781 656.863281 115.402344 C 657.082031 115.15625 657.382812 115.019531 657.765625 115.019531 C 658.148438 115.019531 658.449219 115.15625 658.667969 115.402344 C 658.886719 115.675781 658.996094 116.003906 658.996094 116.414062 L 658.996094 116.960938 C 658.996094 117.398438 658.886719 117.726562 658.667969 117.972656 C 658.449219 118.246094 658.148438 118.355469 657.792969 118.355469 C 657.410156 118.355469 657.082031 118.246094 656.863281 117.972656 C 656.644531 117.726562 656.535156 117.398438 656.535156 116.988281 Z M 660.910156 122.675781 L 660.910156 123.222656 C 660.910156 123.960938 661.101562 124.507812 661.539062 124.945312 C 661.976562 125.355469 662.550781 125.574219 663.207031 125.574219 C 663.863281 125.574219 664.410156 125.355469 664.847656 124.917969 C 665.257812 124.507812 665.476562 123.960938 665.476562 123.277344 L 665.476562 122.730469 C 665.476562 122.019531 665.257812 121.445312 664.847656 121.007812 C 664.410156 120.597656 663.863281 120.378906 663.207031 120.378906 C 662.523438 120.378906 661.976562 120.597656 661.539062 121.035156 C 661.101562 121.472656 660.910156 122.019531 660.910156 122.675781 Z M 661.976562 123.277344 L 661.976562 122.703125 C 661.976562 122.292969 662.085938 121.9375 662.304688 121.691406 C 662.523438 121.445312 662.824219 121.308594 663.207031 121.308594 C 663.5625 121.308594 663.863281 121.445312 664.082031 121.691406 C 664.300781 121.9375 664.410156 122.265625 664.410156 122.675781 L 664.410156 123.25 C 664.410156 123.6875 664.300781 124.015625 664.082031 124.289062 C 663.863281 124.535156 663.5625 124.644531 663.207031 124.644531 C 662.824219 124.644531 662.523438 124.535156 662.304688 124.289062 C 662.085938 124.015625 661.976562 123.6875 661.976562 123.277344 Z M 658.09375 124.5625 L 663.535156 115.839844 L 662.742188 115.320312 L 657.300781 124.070312 Z M 658.09375 124.5625 "/>
</svg>
