<?xml version="1.0" encoding="UTF-8"?>
<svg xmlns="http://www.w3.org/2000/svg" xmlns:xlink="http://www.w3.org/1999/xlink" width="712.428809" height="842.791992" viewBox="0 0 712.428809 842.791992">
<path fill="none" stroke-width="1.99255" stroke-linecap="butt" stroke-linejoin="round" stroke="rgb(19.607843%, 19.607843%, 19.607843%)" stroke-opacity="1" stroke-miterlimit="10" d="M -109.822716 -34.719757 L 109.825722 -34.719757 L 109.825722 34.718719 L -109.822716 34.718719 Z M -109.822716 -34.719757 " transform="matrix(1.6, 0, 0, -1.6, 180.497595, 60.331201)"/>
<path fill-rule="nonzero" fill="rgb(0%, 0%, 0%)" fill-opacity="1" d="M 115.449219 51.203125 L 110.800781 51.203125 L 110.800781 69.730469 L 115.75 69.730469 L 115.75 56.605469 C 116.375 55.480469 117.402344 54.90625 118.800781 54.90625 C 119.800781 54.90625 120.550781 55.128906 120.976562 55.628906 C 121.375 56.128906 121.601562 56.90625 121.601562 57.953125 L 121.601562 69.730469 L 126.550781 69.730469 L 126.5 57.003906 C 127.074219 55.605469 128.125 54.90625 129.601562 54.90625 C 130.652344 54.90625 131.351562 55.128906 131.777344 55.628906 C 132.199219 56.128906 132.402344 56.855469 132.402344 57.90625 L 132.402344 69.730469 L 137.375 69.730469 L 137.375 57.90625 C 137.375 55.554688 136.902344 53.804688 135.902344 52.605469 C 134.925781 51.453125 133.425781 50.855469 131.425781 50.855469 C 129 50.855469 127.152344 51.78125 125.851562 53.65625 C 124.925781 51.804688 123.324219 50.855469 120.925781 50.855469 C 118.675781 50.855469 116.902344 51.65625 115.601562 53.28125 Z M 115.449219 51.203125 "/>
<path fill-rule="nonzero" fill="rgb(0%, 0%, 0%)" fill-opacity="1" d="M 146.359375 69.730469 L 146.359375 51.203125 L 141.410156 51.203125 L 141.410156 69.730469 Z M 141.085938 46.40625 C 141.085938 47.179688 141.335938 47.78125 141.859375 48.253906 C 142.359375 48.753906 143.035156 48.953125 143.859375 48.953125 C 144.710938 48.953125 145.386719 48.753906 145.859375 48.253906 C 146.359375 47.78125 146.636719 47.179688 146.636719 46.40625 C 146.636719 45.679688 146.359375 45.078125 145.859375 44.578125 C 145.386719 44.078125 144.710938 43.855469 143.859375 43.855469 C 143.035156 43.855469 142.308594 44.078125 141.835938 44.578125 C 141.335938 45.078125 141.085938 45.679688 141.085938 46.40625 Z M 141.085938 46.40625 "/>
<path fill-rule="nonzero" fill="rgb(0%, 0%, 0%)" fill-opacity="1" d="M 161.40625 60.328125 L 161.40625 60.53125 C 161.40625 63.40625 162.054688 65.730469 163.457031 67.480469 C 164.832031 69.230469 166.632812 70.078125 168.882812 70.078125 C 170.679688 70.078125 172.207031 69.453125 173.355469 68.15625 L 173.355469 69.128906 C 173.355469 70.429688 172.980469 71.40625 172.230469 72.105469 C 171.507812 72.804688 170.480469 73.15625 169.179688 73.15625 C 167.429688 73.15625 165.929688 72.503906 164.707031 71.105469 L 162.53125 74.105469 C 163.15625 74.980469 164.132812 75.703125 165.429688 76.230469 C 166.730469 76.78125 168.054688 77.03125 169.429688 77.03125 C 171.179688 77.03125 172.757812 76.703125 174.105469 76.078125 C 175.429688 75.453125 176.480469 74.53125 177.207031 73.355469 C 177.957031 72.15625 178.332031 70.703125 178.332031 69.105469 L 178.332031 51.203125 L 173.855469 51.203125 L 173.632812 52.929688 C 172.507812 51.554688 170.929688 50.855469 168.90625 50.855469 C 166.582031 50.855469 164.730469 51.730469 163.40625 53.453125 C 162.054688 55.203125 161.40625 57.480469 161.40625 60.328125 Z M 166.355469 60.679688 C 166.355469 58.753906 166.65625 57.304688 167.355469 56.328125 C 168.03125 55.378906 168.980469 54.90625 170.15625 54.90625 C 171.632812 54.90625 172.679688 55.453125 173.355469 56.578125 L 173.355469 64.355469 C 172.679688 65.53125 171.605469 66.078125 170.132812 66.078125 C 168.929688 66.078125 167.980469 65.628906 167.332031 64.65625 C 166.65625 63.703125 166.355469 62.355469 166.355469 60.679688 Z M 166.355469 60.679688 "/>
<path fill-rule="nonzero" fill="rgb(0%, 0%, 0%)" fill-opacity="1" d="M 192.496094 55.828125 L 192.570312 51.078125 C 192.09375 50.929688 191.570312 50.855469 191.046875 50.855469 C 189.246094 50.855469 187.871094 51.730469 186.894531 53.429688 L 186.796875 51.203125 L 182.09375 51.203125 L 182.09375 69.730469 L 187.046875 69.730469 L 187.046875 57.605469 C 187.59375 56.328125 188.820312 55.703125 190.71875 55.703125 C 191.21875 55.703125 191.796875 55.78125 192.496094 55.828125 Z M 192.496094 55.828125 "/>
<path fill-rule="nonzero" fill="rgb(0%, 0%, 0%)" fill-opacity="1" d="M 205.984375 67.828125 L 206.109375 69.730469 L 210.734375 69.730469 L 210.734375 51.203125 L 205.785156 51.203125 L 205.785156 64.328125 C 205.160156 65.53125 204.011719 66.078125 202.335938 66.078125 C 200.558594 66.078125 199.683594 65.128906 199.683594 63.179688 L 199.683594 51.203125 L 194.761719 51.203125 L 194.761719 63.355469 C 194.761719 65.554688 195.285156 67.230469 196.335938 68.355469 C 197.386719 69.53125 198.886719 70.078125 200.886719 70.078125 C 203.058594 70.078125 204.734375 69.304688 205.984375 67.828125 Z M 205.984375 67.828125 "/>
<path fill-rule="nonzero" fill="rgb(0%, 0%, 0%)" fill-opacity="1" d="M 231.164062 60.65625 L 231.164062 60.355469 C 231.164062 57.429688 230.511719 55.078125 229.261719 53.378906 C 227.988281 51.703125 226.214844 50.855469 223.9375 50.855469 C 221.964844 50.855469 220.414062 51.554688 219.238281 53.003906 L 219.0625 51.203125 L 214.464844 51.203125 L 214.464844 76.855469 L 219.414062 76.855469 L 219.414062 68.105469 C 220.5625 69.453125 222.0625 70.078125 223.964844 70.078125 C 226.136719 70.078125 227.886719 69.230469 229.1875 67.53125 C 230.488281 65.804688 231.164062 63.53125 231.164062 60.65625 Z M 226.214844 60.253906 C 226.214844 64.15625 225.011719 66.078125 222.664062 66.078125 C 221.089844 66.078125 219.988281 65.480469 219.414062 64.253906 L 219.414062 56.65625 C 219.988281 55.480469 221.089844 54.90625 222.636719 54.90625 C 223.761719 54.90625 224.636719 55.378906 225.261719 56.304688 C 225.886719 57.203125 226.214844 58.53125 226.214844 60.253906 Z M 226.214844 60.253906 "/>
<path fill-rule="nonzero" fill="rgb(0%, 0%, 0%)" fill-opacity="1" d="M 233.398438 60.304688 L 233.398438 60.503906 C 233.398438 63.453125 234.171875 65.804688 235.773438 67.53125 C 237.347656 69.230469 239.496094 70.078125 242.171875 70.078125 C 244.820312 70.078125 246.972656 69.230469 248.570312 67.53125 C 250.171875 65.804688 250.972656 63.53125 250.972656 60.65625 L 250.921875 59.378906 C 250.722656 56.78125 249.847656 54.730469 248.273438 53.179688 C 246.695312 51.628906 244.648438 50.855469 242.171875 50.855469 C 240.398438 50.855469 238.871094 51.28125 237.523438 52.054688 C 236.195312 52.828125 235.148438 53.953125 234.445312 55.378906 C 233.746094 56.828125 233.398438 58.480469 233.398438 60.304688 Z M 238.347656 60.65625 C 238.347656 58.679688 238.648438 57.253906 239.320312 56.304688 C 239.996094 55.355469 240.945312 54.855469 242.171875 54.855469 C 243.347656 54.855469 244.296875 55.355469 244.996094 56.304688 C 245.671875 57.253906 246.023438 58.578125 246.023438 60.304688 C 246.023438 62.328125 245.671875 63.804688 244.996094 64.703125 C 244.296875 65.628906 243.398438 66.078125 242.195312 66.078125 C 240.945312 66.078125 239.996094 65.628906 239.320312 64.679688 C 238.648438 63.753906 238.347656 62.40625 238.347656 60.65625 Z M 238.347656 60.65625 "/>
<path fill="none" stroke-width="1.99255" stroke-linecap="butt" stroke-linejoin="round" stroke="rgb(19.607843%, 19.607843%, 19.607843%)" stroke-opacity="1" stroke-miterlimit="10" d="M -109.825165 -34.719757 L 109.823273 -34.719757 L 109.823273 34.718719 L -109.825165 34.718719 Z M -109.825165 -34.719757 " transform="matrix(1.6, 0, 0, -1.6, 531.931201, 60.331201)"/>
<path fill-rule="nonzero" fill="rgb(0%, 0%, 0%)" fill-opacity="1" d="M 436.347656 39.695312 L 436.347656 39.894531 C 436.347656 42.769531 437 45.09375 438.398438 46.84375 C 439.773438 48.59375 441.574219 49.445312 443.824219 49.445312 C 445.625 49.445312 447.148438 48.820312 448.296875 47.519531 L 448.296875 48.496094 C 448.296875 49.792969 447.921875 50.769531 447.171875 51.46875 C 446.449219 52.167969 445.421875 52.519531 444.125 52.519531 C 442.375 52.519531 440.875 51.871094 439.648438 50.46875 L 437.472656 53.46875 C 438.097656 54.34375 439.074219 55.070312 440.375 55.59375 C 441.671875 56.144531 443 56.394531 444.375 56.394531 C 446.125 56.394531 447.699219 56.070312 449.046875 55.445312 C 450.375 54.820312 451.421875 53.894531 452.148438 52.71875 C 452.898438 51.519531 453.273438 50.070312 453.273438 48.46875 L 453.273438 30.570312 L 448.796875 30.570312 L 448.574219 32.292969 C 447.449219 30.917969 445.875 30.21875 443.847656 30.21875 C 441.523438 30.21875 439.671875 31.09375 438.347656 32.820312 C 437 34.570312 436.347656 36.84375 436.347656 39.695312 Z M 441.296875 40.042969 C 441.296875 38.121094 441.597656 36.667969 442.296875 35.695312 C 442.972656 34.746094 443.921875 34.269531 445.097656 34.269531 C 446.574219 34.269531 447.625 34.820312 448.296875 35.945312 L 448.296875 43.71875 C 447.625 44.894531 446.546875 45.445312 445.074219 45.445312 C 443.875 45.445312 442.921875 44.996094 442.273438 44.019531 C 441.597656 43.070312 441.296875 41.71875 441.296875 40.042969 Z M 441.296875 40.042969 "/>
<path fill-rule="nonzero" fill="rgb(0%, 0%, 0%)" fill-opacity="1" d="M 467.4375 35.195312 L 467.511719 30.445312 C 467.039062 30.292969 466.511719 30.21875 465.988281 30.21875 C 464.1875 30.21875 462.8125 31.09375 461.835938 32.792969 L 461.738281 30.570312 L 457.039062 30.570312 L 457.039062 49.09375 L 461.988281 49.09375 L 461.988281 36.96875 C 462.539062 35.695312 463.761719 35.070312 465.664062 35.070312 C 466.164062 35.070312 466.738281 35.144531 467.4375 35.195312 Z M 467.4375 35.195312 "/>
<path fill-rule="nonzero" fill="rgb(0%, 0%, 0%)" fill-opacity="1" d="M 480.929688 47.195312 L 481.054688 49.09375 L 485.679688 49.09375 L 485.679688 30.570312 L 480.726562 30.570312 L 480.726562 43.695312 C 480.101562 44.894531 478.953125 45.445312 477.277344 45.445312 C 475.503906 45.445312 474.628906 44.496094 474.628906 42.542969 L 474.628906 30.570312 L 469.703125 30.570312 L 469.703125 42.71875 C 469.703125 44.917969 470.226562 46.59375 471.277344 47.71875 C 472.328125 48.894531 473.828125 49.445312 475.828125 49.445312 C 478.003906 49.445312 479.679688 48.667969 480.929688 47.195312 Z M 480.929688 47.195312 "/>
<path fill-rule="nonzero" fill="rgb(0%, 0%, 0%)" fill-opacity="1" d="M 506.105469 40.019531 L 506.105469 39.71875 C 506.105469 36.792969 505.457031 34.445312 504.207031 32.746094 C 502.929688 31.070312 501.15625 30.21875 498.882812 30.21875 C 496.90625 30.21875 495.355469 30.917969 494.179688 32.371094 L 494.007812 30.570312 L 489.40625 30.570312 L 489.40625 56.21875 L 494.355469 56.21875 L 494.355469 47.46875 C 495.507812 48.820312 497.007812 49.445312 498.90625 49.445312 C 501.082031 49.445312 502.832031 48.59375 504.132812 46.894531 C 505.429688 45.167969 506.105469 42.894531 506.105469 40.019531 Z M 501.15625 39.621094 C 501.15625 43.519531 499.957031 45.445312 497.605469 45.445312 C 496.03125 45.445312 494.929688 44.84375 494.355469 43.621094 L 494.355469 36.019531 C 494.929688 34.84375 496.03125 34.269531 497.582031 34.269531 C 498.707031 34.269531 499.582031 34.746094 500.207031 35.667969 C 500.832031 36.570312 501.15625 37.894531 501.15625 39.621094 Z M 501.15625 39.621094 "/>
<path fill-rule="nonzero" fill="rgb(0%, 0%, 0%)" fill-opacity="1" d="M 508.339844 39.667969 L 508.339844 39.871094 C 508.339844 42.820312 509.113281 45.167969 510.714844 46.894531 C 512.289062 48.59375 514.441406 49.445312 517.113281 49.445312 C 519.765625 49.445312 521.914062 48.59375 523.515625 46.894531 C 525.113281 45.167969 525.914062 42.894531 525.914062 40.019531 L 525.863281 38.746094 C 525.664062 36.144531 524.789062 34.09375 523.214844 32.542969 C 521.640625 30.996094 519.589844 30.21875 517.113281 30.21875 C 515.339844 30.21875 513.816406 30.644531 512.464844 31.417969 C 511.140625 32.195312 510.089844 33.320312 509.390625 34.746094 C 508.691406 36.195312 508.339844 37.84375 508.339844 39.667969 Z M 513.289062 40.019531 C 513.289062 38.042969 513.589844 36.621094 514.265625 35.667969 C 514.941406 34.71875 515.890625 34.21875 517.113281 34.21875 C 518.289062 34.21875 519.238281 34.71875 519.941406 35.667969 C 520.613281 36.621094 520.964844 37.945312 520.964844 39.667969 C 520.964844 41.695312 520.613281 43.167969 519.941406 44.070312 C 519.238281 44.996094 518.339844 45.445312 517.140625 45.445312 C 515.890625 45.445312 514.941406 44.996094 514.265625 44.042969 C 513.589844 43.121094 513.289062 41.769531 513.289062 40.019531 Z M 513.289062 40.019531 "/>
<path fill-rule="nonzero" fill="rgb(0%, 0%, 0%)" fill-opacity="1" d="M 539.832031 39.695312 C 539.832031 42.769531 540.457031 45.167969 541.78125 46.894531 C 543.132812 48.59375 544.882812 49.445312 547.054688 49.445312 C 548.980469 49.445312 550.554688 48.667969 551.832031 47.121094 L 552.082031 49.09375 L 556.53125 49.09375 L 556.53125 22.792969 L 551.582031 22.792969 L 551.582031 32.269531 C 550.382812 30.917969 548.882812 30.21875 547.082031 30.21875 C 544.855469 30.21875 543.054688 31.09375 541.757812 32.792969 C 540.457031 34.496094 539.832031 36.820312 539.832031 39.695312 Z M 544.78125 40.042969 C 544.78125 36.195312 545.957031 34.269531 548.355469 34.269531 C 549.90625 34.269531 550.957031 34.917969 551.582031 36.195312 L 551.582031 43.496094 C 550.90625 44.820312 549.832031 45.445312 548.304688 45.445312 C 547.15625 45.445312 546.28125 44.996094 545.679688 44.042969 C 545.054688 43.121094 544.78125 41.792969 544.78125 40.042969 Z M 544.78125 40.042969 "/>
<path fill-rule="nonzero" fill="rgb(0%, 0%, 0%)" fill-opacity="1" d="M 568.875 49.445312 C 570.398438 49.445312 571.824219 49.167969 573.074219 48.570312 C 574.347656 48.019531 575.324219 47.167969 576.097656 46.121094 L 573.675781 43.371094 C 572.625 44.769531 571.097656 45.445312 569.222656 45.445312 C 567.949219 45.445312 566.949219 45.09375 566.125 44.371094 C 565.324219 43.667969 564.824219 42.667969 564.699219 41.445312 L 576.523438 41.445312 L 576.523438 39.417969 C 576.523438 36.496094 575.773438 34.269531 574.300781 32.644531 C 572.824219 31.019531 570.875 30.21875 568.347656 30.21875 C 566.625 30.21875 565.125 30.644531 563.824219 31.417969 C 562.472656 32.21875 561.472656 33.34375 560.773438 34.820312 C 560.023438 36.292969 559.675781 37.945312 559.675781 39.792969 L 559.675781 40.292969 C 559.675781 43.070312 560.523438 45.269531 562.25 46.945312 C 563.925781 48.644531 566.125 49.445312 568.875 49.445312 Z M 568.300781 34.21875 C 569.347656 34.21875 570.175781 34.542969 570.722656 35.144531 C 571.273438 35.71875 571.597656 36.570312 571.648438 37.667969 L 571.648438 38.070312 L 564.773438 38.070312 C 564.898438 36.84375 565.300781 35.894531 565.925781 35.246094 C 566.523438 34.570312 567.324219 34.21875 568.300781 34.21875 Z M 568.300781 34.21875 "/>
<path fill-rule="nonzero" fill="rgb(0%, 0%, 0%)" fill-opacity="1" d="M 595.648438 30.570312 L 591 30.570312 L 591 49.09375 L 595.949219 49.09375 L 595.949219 35.96875 C 596.574219 34.84375 597.597656 34.269531 599 34.269531 C 600 34.269531 600.75 34.496094 601.175781 34.996094 C 601.574219 35.496094 601.800781 36.269531 601.800781 37.320312 L 601.800781 49.09375 L 606.75 49.09375 L 606.699219 36.371094 C 607.273438 34.96875 608.324219 34.269531 609.800781 34.269531 C 610.847656 34.269531 611.550781 34.496094 611.972656 34.996094 C 612.398438 35.496094 612.597656 36.21875 612.597656 37.269531 L 612.597656 49.09375 L 617.574219 49.09375 L 617.574219 37.269531 C 617.574219 34.917969 617.097656 33.167969 616.097656 31.96875 C 615.125 30.820312 613.625 30.21875 611.625 30.21875 C 609.199219 30.21875 607.347656 31.144531 606.050781 33.019531 C 605.125 31.167969 603.523438 30.21875 601.125 30.21875 C 598.875 30.21875 597.097656 31.019531 595.800781 32.644531 Z M 595.648438 30.570312 "/>
<path fill-rule="nonzero" fill="rgb(0%, 0%, 0%)" fill-opacity="1" d="M 626.558594 49.09375 L 626.558594 30.570312 L 621.609375 30.570312 L 621.609375 49.09375 Z M 621.285156 25.769531 C 621.285156 26.542969 621.535156 27.144531 622.058594 27.621094 C 622.558594 28.121094 623.234375 28.320312 624.058594 28.320312 C 624.910156 28.320312 625.582031 28.121094 626.058594 27.621094 C 626.558594 27.144531 626.832031 26.542969 626.832031 25.769531 C 626.832031 25.042969 626.558594 24.445312 626.058594 23.945312 C 625.582031 23.445312 624.910156 23.21875 624.058594 23.21875 C 623.234375 23.21875 622.507812 23.445312 622.035156 23.945312 C 621.535156 24.445312 621.285156 25.042969 621.285156 25.769531 Z M 621.285156 25.769531 "/>
<path fill-rule="nonzero" fill="rgb(0%, 0%, 0%)" fill-opacity="1" d="M 452.808594 86.890625 C 451.632812 86.890625 450.707031 86.515625 450.15625 85.664062 C 449.558594 84.8125 449.28125 83.464844 449.28125 81.515625 L 449.28125 81.039062 C 449.28125 79.140625 449.558594 77.765625 450.15625 76.9375 C 450.757812 76.089844 451.632812 75.664062 452.78125 75.664062 C 453.683594 75.664062 454.457031 75.988281 455.03125 76.589844 C 455.582031 77.164062 455.90625 77.9375 455.933594 78.890625 L 460.558594 78.890625 C 460.53125 76.714844 459.832031 74.988281 458.433594 73.664062 C 457.03125 72.339844 455.15625 71.664062 452.859375 71.664062 C 450.183594 71.664062 448.109375 72.539062 446.609375 74.238281 C 445.058594 75.914062 444.332031 78.1875 444.332031 81.039062 L 444.332031 81.390625 C 444.332031 84.363281 445.058594 86.6875 446.609375 88.363281 C 448.15625 90.039062 450.234375 90.890625 452.882812 90.890625 C 454.28125 90.890625 455.582031 90.613281 456.78125 90.015625 C 457.933594 89.464844 458.859375 88.640625 459.558594 87.589844 C 460.207031 86.539062 460.558594 85.390625 460.558594 84.113281 L 455.933594 84.113281 C 455.90625 84.964844 455.582031 85.664062 455.03125 86.164062 C 454.457031 86.640625 453.734375 86.890625 452.808594 86.890625 Z M 452.808594 86.890625 "/>
<path fill-rule="nonzero" fill="rgb(0%, 0%, 0%)" fill-opacity="1" d="M 462.605469 81.113281 L 462.605469 81.3125 C 462.605469 84.265625 463.378906 86.613281 464.980469 88.339844 C 466.554688 90.039062 468.703125 90.890625 471.378906 90.890625 C 474.027344 90.890625 476.179688 90.039062 477.777344 88.339844 C 479.378906 86.613281 480.179688 84.339844 480.179688 81.464844 L 480.128906 80.1875 C 479.929688 77.589844 479.054688 75.539062 477.480469 73.988281 C 475.902344 72.4375 473.855469 71.664062 471.378906 71.664062 C 469.605469 71.664062 468.078125 72.089844 466.730469 72.863281 C 465.402344 73.640625 464.355469 74.765625 463.652344 76.1875 C 462.953125 77.640625 462.605469 79.289062 462.605469 81.113281 Z M 467.554688 81.464844 C 467.554688 79.488281 467.855469 78.0625 468.527344 77.113281 C 469.203125 76.164062 470.152344 75.664062 471.378906 75.664062 C 472.554688 75.664062 473.503906 76.164062 474.203125 77.113281 C 474.878906 78.0625 475.230469 79.390625 475.230469 81.113281 C 475.230469 83.140625 474.878906 84.613281 474.203125 85.515625 C 473.503906 86.4375 472.605469 86.890625 471.402344 86.890625 C 470.152344 86.890625 469.203125 86.4375 468.527344 85.488281 C 467.855469 84.5625 467.554688 83.214844 467.554688 81.464844 Z M 467.554688 81.464844 "/>
<path fill-rule="nonzero" fill="rgb(0%, 0%, 0%)" fill-opacity="1" d="M 487.84375 72.015625 L 483.191406 72.015625 L 483.191406 90.539062 L 488.140625 90.539062 L 488.140625 77.414062 C 488.765625 76.289062 489.792969 75.714844 491.191406 75.714844 C 492.191406 75.714844 492.941406 75.9375 493.367188 76.4375 C 493.765625 76.9375 493.992188 77.714844 493.992188 78.765625 L 493.992188 90.539062 L 498.941406 90.539062 L 498.890625 77.8125 C 499.46875 76.414062 500.515625 75.714844 501.992188 75.714844 C 503.042969 75.714844 503.742188 75.9375 504.167969 76.4375 C 504.59375 76.9375 504.792969 77.664062 504.792969 78.714844 L 504.792969 90.539062 L 509.765625 90.539062 L 509.765625 78.714844 C 509.765625 76.363281 509.292969 74.613281 508.292969 73.414062 C 507.316406 72.265625 505.816406 71.664062 503.816406 71.664062 C 501.390625 71.664062 499.542969 72.589844 498.242188 74.464844 C 497.316406 72.613281 495.71875 71.664062 493.316406 71.664062 C 491.066406 71.664062 489.292969 72.464844 487.992188 74.089844 Z M 487.84375 72.015625 "/>
<path fill-rule="nonzero" fill="rgb(0%, 0%, 0%)" fill-opacity="1" d="M 530.226562 81.464844 L 530.226562 81.164062 C 530.226562 78.238281 529.578125 75.890625 528.328125 74.1875 C 527.050781 72.515625 525.277344 71.664062 523 71.664062 C 521.027344 71.664062 519.476562 72.363281 518.300781 73.8125 L 518.125 72.015625 L 513.527344 72.015625 L 513.527344 97.664062 L 518.476562 97.664062 L 518.476562 88.914062 C 519.625 90.265625 521.125 90.890625 523.027344 90.890625 C 525.203125 90.890625 526.953125 90.039062 528.25 88.339844 C 529.550781 86.613281 530.226562 84.339844 530.226562 81.464844 Z M 525.277344 81.0625 C 525.277344 84.964844 524.078125 86.890625 521.726562 86.890625 C 520.152344 86.890625 519.050781 86.289062 518.476562 85.0625 L 518.476562 77.464844 C 519.050781 76.289062 520.152344 75.714844 521.703125 75.714844 C 522.828125 75.714844 523.703125 76.1875 524.328125 77.113281 C 524.953125 78.015625 525.277344 79.339844 525.277344 81.0625 Z M 525.277344 81.0625 "/>
<path fill-rule="nonzero" fill="rgb(0%, 0%, 0%)" fill-opacity="1" d="M 543.960938 90.539062 L 548.984375 90.539062 L 548.984375 90.265625 C 548.484375 89.339844 548.234375 88.015625 548.234375 86.265625 L 548.234375 78.238281 C 548.234375 76.164062 547.585938 74.539062 546.234375 73.390625 C 544.910156 72.265625 543.085938 71.664062 540.808594 71.664062 C 539.261719 71.664062 537.886719 71.9375 536.710938 72.4375 C 535.511719 72.964844 534.558594 73.664062 533.886719 74.589844 C 533.234375 75.488281 532.910156 76.515625 532.910156 77.5625 L 537.859375 77.5625 C 537.859375 76.890625 538.058594 76.363281 538.558594 75.9375 C 539.011719 75.539062 539.683594 75.3125 540.535156 75.3125 C 541.460938 75.3125 542.183594 75.589844 542.585938 76.089844 C 543.011719 76.613281 543.261719 77.3125 543.261719 78.164062 L 543.261719 79.214844 L 540.984375 79.214844 C 538.234375 79.238281 536.136719 79.765625 534.660156 80.8125 C 533.183594 81.863281 532.484375 83.390625 532.484375 85.339844 C 532.484375 86.964844 533.085938 88.265625 534.285156 89.3125 C 535.484375 90.363281 536.984375 90.890625 538.808594 90.890625 C 540.710938 90.890625 542.285156 90.214844 543.460938 88.890625 C 543.535156 89.5625 543.710938 90.113281 543.960938 90.539062 Z M 539.886719 87.113281 C 539.109375 87.113281 538.535156 86.914062 538.109375 86.515625 C 537.660156 86.089844 537.433594 85.589844 537.433594 84.964844 L 537.484375 84.6875 C 537.609375 82.988281 538.933594 82.113281 541.433594 82.113281 L 543.261719 82.113281 L 543.261719 85.3125 C 542.984375 85.863281 542.535156 86.289062 541.886719 86.613281 C 541.261719 86.964844 540.585938 87.113281 539.886719 87.113281 Z M 539.886719 87.113281 "/>
<path fill-rule="nonzero" fill="rgb(0%, 0%, 0%)" fill-opacity="1" d="M 566.433594 64.140625 L 563.558594 63.941406 C 563.558594 64.492188 563.382812 64.890625 563.109375 65.167969 C 562.835938 65.441406 562.484375 65.589844 562.085938 65.589844 C 561.808594 65.589844 561.535156 65.542969 561.285156 65.464844 C 561.007812 65.417969 560.558594 65.242188 559.859375 64.890625 C 559.132812 64.566406 558.660156 64.367188 558.382812 64.242188 C 558.058594 64.191406 557.734375 64.117188 557.382812 64.117188 C 556.308594 64.117188 555.382812 64.566406 554.660156 65.464844 C 553.882812 66.390625 553.535156 67.441406 553.535156 68.714844 L 556.410156 68.890625 C 556.410156 68.367188 556.558594 67.941406 556.835938 67.640625 C 557.109375 67.367188 557.433594 67.242188 557.859375 67.242188 C 558.132812 67.242188 558.410156 67.265625 558.683594 67.339844 C 558.960938 67.417969 559.382812 67.617188 559.984375 67.941406 C 560.585938 68.242188 561.035156 68.464844 561.382812 68.566406 C 561.710938 68.667969 562.085938 68.714844 562.558594 68.714844 C 563.609375 68.714844 564.507812 68.292969 565.285156 67.417969 C 566.058594 66.542969 566.433594 65.441406 566.433594 64.140625 Z M 566.433594 64.140625 "/>
<path fill-rule="nonzero" fill="rgb(0%, 0%, 0%)" fill-opacity="1" d="M 556.582031 72.015625 L 551.929688 72.015625 L 551.929688 90.539062 L 556.855469 90.539062 L 556.855469 77.464844 C 557.554688 76.289062 558.632812 75.714844 560.03125 75.714844 C 561.082031 75.714844 561.804688 75.9375 562.257812 76.414062 C 562.730469 76.890625 562.957031 77.640625 562.957031 78.6875 L 562.957031 90.539062 L 567.90625 90.539062 L 567.90625 78.589844 C 567.882812 76.289062 567.382812 74.589844 566.429688 73.414062 C 565.457031 72.265625 564.03125 71.664062 562.054688 71.664062 C 559.804688 71.664062 558.054688 72.515625 556.730469 74.164062 Z M 556.582031 72.015625 "/>
<path fill-rule="nonzero" fill="rgb(0%, 0%, 0%)" fill-opacity="1" d="M 580.195312 90.890625 C 581.71875 90.890625 583.144531 90.613281 584.394531 90.015625 C 585.667969 89.464844 586.644531 88.613281 587.417969 87.5625 L 584.996094 84.8125 C 583.945312 86.214844 582.417969 86.890625 580.542969 86.890625 C 579.269531 86.890625 578.269531 86.539062 577.445312 85.8125 C 576.644531 85.113281 576.144531 84.113281 576.019531 82.890625 L 587.84375 82.890625 L 587.84375 80.863281 C 587.84375 77.9375 587.09375 75.714844 585.621094 74.089844 C 584.144531 72.464844 582.195312 71.664062 579.667969 71.664062 C 577.945312 71.664062 576.445312 72.089844 575.144531 72.863281 C 573.792969 73.664062 572.792969 74.789062 572.09375 76.265625 C 571.34375 77.738281 570.996094 79.390625 570.996094 81.238281 L 570.996094 81.738281 C 570.996094 84.515625 571.84375 86.714844 573.570312 88.390625 C 575.246094 90.089844 577.445312 90.890625 580.195312 90.890625 Z M 579.621094 75.664062 C 580.667969 75.664062 581.496094 75.988281 582.042969 76.589844 C 582.59375 77.164062 582.917969 78.015625 582.96875 79.113281 L 582.96875 79.515625 L 576.09375 79.515625 C 576.21875 78.289062 576.621094 77.339844 577.246094 76.6875 C 577.84375 76.015625 578.644531 75.664062 579.621094 75.664062 Z M 579.621094 75.664062 "/>
<path fill-rule="nonzero" fill="rgb(0%, 0%, 0%)" fill-opacity="1" d="M 601.007812 76.640625 L 601.082031 71.890625 C 600.605469 71.738281 600.082031 71.664062 599.554688 71.664062 C 597.757812 71.664062 596.382812 72.539062 595.40625 74.238281 L 595.304688 72.015625 L 590.605469 72.015625 L 590.605469 90.539062 L 595.554688 90.539062 L 595.554688 78.414062 C 596.105469 77.140625 597.332031 76.515625 599.230469 76.515625 C 599.730469 76.515625 600.304688 76.589844 601.007812 76.640625 Z M 601.007812 76.640625 "/>
<path fill-rule="nonzero" fill="rgb(0%, 0%, 0%)" fill-opacity="1" d="M 601.964844 81.113281 L 601.964844 81.3125 C 601.964844 84.265625 602.738281 86.613281 604.339844 88.339844 C 605.914062 90.039062 608.066406 90.890625 610.738281 90.890625 C 613.390625 90.890625 615.539062 90.039062 617.140625 88.339844 C 618.738281 86.613281 619.539062 84.339844 619.539062 81.464844 L 619.488281 80.1875 C 619.289062 77.589844 618.414062 75.539062 616.839844 73.988281 C 615.265625 72.4375 613.214844 71.664062 610.738281 71.664062 C 608.964844 71.664062 607.441406 72.089844 606.089844 72.863281 C 604.765625 73.640625 603.714844 74.765625 603.015625 76.1875 C 602.316406 77.640625 601.964844 79.289062 601.964844 81.113281 Z M 606.914062 81.464844 C 606.914062 79.488281 607.214844 78.0625 607.890625 77.113281 C 608.566406 76.164062 609.515625 75.664062 610.738281 75.664062 C 611.914062 75.664062 612.863281 76.164062 613.566406 77.113281 C 614.238281 78.0625 614.589844 79.390625 614.589844 81.113281 C 614.589844 83.140625 614.238281 84.613281 613.566406 85.515625 C 612.863281 86.4375 611.964844 86.890625 610.765625 86.890625 C 609.515625 86.890625 608.566406 86.4375 607.890625 85.488281 C 607.214844 84.5625 606.914062 83.214844 606.914062 81.464844 Z M 606.914062 81.464844 "/>
<path fill="none" stroke-width="0.99628" stroke-linecap="butt" stroke-linejoin="round" stroke="rgb(19.607843%, 19.607843%, 19.607843%)" stroke-opacity="1" stroke-miterlimit="10" d="M -109.822716 -75.221695 L 109.825722 -75.221695 L 109.825722 75.222641 L -109.822716 75.222641 Z M -109.822716 -75.221695 " transform="matrix(1.6, 0, 0, -1.6, 180.497595, 237.032007)"/>
<path fill="none" stroke-width="0.99628" stroke-linecap="butt" stroke-linejoin="round" stroke="rgb(19.607843%, 19.607843%, 19.607843%)" stroke-opacity="1" stroke-miterlimit="10" d="M -109.825165 -75.221695 L 109.823273 -75.221695 L 109.823273 75.222641 L -109.825165 75.222641 Z M -109.825165 -75.221695 " transform="matrix(1.6, 0, 0, -1.6, 531.931201, 237.032007)"/>
<path fill="none" stroke-width="0.99628" stroke-linecap="butt" stroke-linejoin="round" stroke="rgb(19.607843%, 19.607843%, 19.607843%)" stroke-opacity="1" stroke-miterlimit="10" d="M -109.822716 -75.224487 L 109.825722 -75.224487 L 109.825722 75.22229 L -109.822716 75.22229 Z M -109.822716 -75.224487 " transform="matrix(1.6, 0, 0, -1.6, 180.497595, 477.742383)"/>
<path fill="none" stroke-width="0.99628" stroke-linecap="butt" stroke-linejoin="round" stroke="rgb(19.607843%, 19.607843%, 19.607843%)" stroke-opacity="1" stroke-miterlimit="10" d="M -109.825165 -75.224487 L 109.823273 -75.224487 L 109.823273 75.22229 L -109.825165 75.22229 Z M -109.825165 -75.224487 " transform="matrix(1.6, 0, 0, -1.6, 531.931201, 477.742383)"/>
<path fill="none" stroke-width="0.99628" stroke-linecap="butt" stroke-linejoin="round" stroke="rgb(19.607843%, 19.607843%, 19.607843%)" stroke-opacity="1" stroke-miterlimit="10" d="M -109.822716 -75.220917 L 109.825722 -75.220917 L 109.825722 75.223419 L -109.822716 75.223419 Z M -109.822716 -75.220917 " transform="matrix(1.6, 0, 0, -1.6, 180.497595, 718.451221)"/>
<path fill="none" stroke-width="0.99628" stroke-linecap="butt" stroke-linejoin="round" stroke="rgb(19.607843%, 19.607843%, 19.607843%)" stroke-opacity="1" stroke-miterlimit="10" d="M -109.825165 -75.220917 L 109.823273 -75.220917 L 109.823273 75.223419 L -109.825165 75.223419 Z M -109.825165 -75.220917 " transform="matrix(1.6, 0, 0, -1.6, 531.931201, 718.451221)"/>
</svg>
