<?xml version="1.0" encoding="UTF-8"?>
<svg xmlns="http://www.w3.org/2000/svg" xmlns:xlink="http://www.w3.org/1999/xlink" width="712.428809" height="1027.953613" viewBox="0 0 712.428809 1027.953613">
<path fill="none" stroke-width="1.99255" stroke-linecap="butt" stroke-linejoin="round" stroke="rgb(19.607843%, 19.607843%, 19.607843%)" stroke-opacity="1" stroke-miterlimit="10" d="M -109.822716 -28.931051 L 109.825722 -28.931051 L 109.825722 28.932718 L -109.822716 28.932718 Z M -109.822716 -28.931051 " transform="matrix(1.6, 0, 0, -1.6, 180.497595, 51.073599)"/>
<path fill-rule="nonzero" fill="rgb(0%, 0%, 0%)" fill-opacity="1" d="M 37.355469 42.007812 L 32.703125 42.007812 L 32.703125 60.53125 L 37.628906 60.53125 L 37.628906 47.457031 C 38.328125 46.28125 39.402344 45.707031 40.804688 45.707031 C 41.855469 45.707031 42.578125 45.933594 43.027344 46.40625 C 43.503906 46.882812 43.730469 47.632812 43.730469 48.683594 L 43.730469 60.53125 L 48.679688 60.53125 L 48.679688 48.582031 C 48.652344 46.28125 48.152344 44.582031 47.203125 43.40625 C 46.230469 42.257812 44.804688 41.65625 42.828125 41.65625 C 40.578125 41.65625 38.828125 42.507812 37.503906 44.15625 Z M 37.355469 42.007812 "/>
<path fill-rule="nonzero" fill="rgb(0%, 0%, 0%)" fill-opacity="1" d="M 59.664062 33.933594 L 56.265625 39.234375 L 60.289062 39.234375 L 65.015625 33.933594 Z M 59.664062 33.933594 "/>
<path fill-rule="nonzero" fill="rgb(0%, 0%, 0%)" fill-opacity="1" d="M 63.566406 58.632812 L 63.691406 60.53125 L 68.316406 60.53125 L 68.316406 42.007812 L 63.367188 42.007812 L 63.367188 55.132812 C 62.742188 56.332031 61.59375 56.882812 59.917969 56.882812 C 58.140625 56.882812 57.265625 55.933594 57.265625 53.984375 L 57.265625 42.007812 L 52.34375 42.007812 L 52.34375 54.15625 C 52.34375 56.359375 52.867188 58.03125 53.917969 59.15625 C 54.96875 60.332031 56.46875 60.882812 58.46875 60.882812 C 60.640625 60.882812 62.316406 60.109375 63.566406 58.632812 Z M 63.566406 58.632812 "/>
<path fill-rule="nonzero" fill="rgb(0%, 0%, 0%)" fill-opacity="1" d="M 76.695312 42.007812 L 72.046875 42.007812 L 72.046875 60.53125 L 76.996094 60.53125 L 76.996094 47.40625 C 77.621094 46.28125 78.644531 45.707031 80.046875 45.707031 C 81.046875 45.707031 81.796875 45.933594 82.21875 46.433594 C 82.621094 46.933594 82.84375 47.707031 82.84375 48.757812 L 82.84375 60.53125 L 87.796875 60.53125 L 87.746094 47.808594 C 88.320312 46.40625 89.371094 45.707031 90.84375 45.707031 C 91.894531 45.707031 92.59375 45.933594 93.019531 46.433594 C 93.445312 46.933594 93.644531 47.65625 93.644531 48.707031 L 93.644531 60.53125 L 98.621094 60.53125 L 98.621094 48.707031 C 98.621094 46.359375 98.144531 44.609375 97.144531 43.40625 C 96.171875 42.257812 94.671875 41.65625 92.671875 41.65625 C 90.246094 41.65625 88.394531 42.582031 87.09375 44.457031 C 86.171875 42.609375 84.570312 41.65625 82.171875 41.65625 C 79.921875 41.65625 78.144531 42.457031 76.84375 44.082031 Z M 76.695312 42.007812 "/>
<path fill-rule="nonzero" fill="rgb(0%, 0%, 0%)" fill-opacity="1" d="M 110.90625 60.882812 C 112.429688 60.882812 113.855469 60.609375 115.105469 60.007812 C 116.378906 59.457031 117.355469 58.609375 118.128906 57.558594 L 115.703125 54.808594 C 114.65625 56.207031 113.128906 56.882812 111.253906 56.882812 C 109.980469 56.882812 108.980469 56.53125 108.15625 55.808594 C 107.355469 55.109375 106.855469 54.109375 106.730469 52.882812 L 118.554688 52.882812 L 118.554688 50.859375 C 118.554688 47.933594 117.804688 45.707031 116.328125 44.082031 C 114.855469 42.457031 112.90625 41.65625 110.378906 41.65625 C 108.65625 41.65625 107.15625 42.082031 105.855469 42.859375 C 104.503906 43.65625 103.503906 44.78125 102.804688 46.257812 C 102.054688 47.734375 101.703125 49.382812 101.703125 51.234375 L 101.703125 51.734375 C 101.703125 54.507812 102.554688 56.707031 104.28125 58.382812 C 105.953125 60.082031 108.15625 60.882812 110.90625 60.882812 Z M 110.328125 45.65625 C 111.378906 45.65625 112.203125 45.984375 112.753906 46.582031 C 113.304688 47.15625 113.628906 48.007812 113.679688 49.109375 L 113.679688 49.507812 L 106.804688 49.507812 C 106.929688 48.28125 107.328125 47.332031 107.953125 46.683594 C 108.554688 46.007812 109.355469 45.65625 110.328125 45.65625 Z M 110.328125 45.65625 "/>
<path fill-rule="nonzero" fill="rgb(0%, 0%, 0%)" fill-opacity="1" d="M 131.71875 46.632812 L 131.792969 41.882812 C 131.316406 41.734375 130.792969 41.65625 130.265625 41.65625 C 128.46875 41.65625 127.09375 42.53125 126.117188 44.234375 L 126.015625 42.007812 L 121.316406 42.007812 L 121.316406 60.53125 L 126.265625 60.53125 L 126.265625 48.40625 C 126.816406 47.132812 128.042969 46.507812 129.941406 46.507812 C 130.441406 46.507812 131.015625 46.582031 131.71875 46.632812 Z M 131.71875 46.632812 "/>
<path fill-rule="nonzero" fill="rgb(0%, 0%, 0%)" fill-opacity="1" d="M 132.675781 51.109375 L 132.675781 51.308594 C 132.675781 54.257812 133.449219 56.609375 135.050781 58.332031 C 136.625 60.03125 138.777344 60.882812 141.449219 60.882812 C 144.101562 60.882812 146.25 60.03125 147.851562 58.332031 C 149.449219 56.609375 150.25 54.332031 150.25 51.457031 L 150.199219 50.183594 C 150 47.582031 149.125 45.53125 147.550781 43.984375 C 145.976562 42.433594 143.925781 41.65625 141.449219 41.65625 C 139.675781 41.65625 138.152344 42.082031 136.800781 42.859375 C 135.476562 43.632812 134.425781 44.757812 133.726562 46.183594 C 133.027344 47.632812 132.675781 49.28125 132.675781 51.109375 Z M 137.625 51.457031 C 137.625 49.484375 137.925781 48.058594 138.601562 47.109375 C 139.277344 46.15625 140.226562 45.65625 141.449219 45.65625 C 142.625 45.65625 143.574219 46.15625 144.277344 47.109375 C 144.949219 48.058594 145.300781 49.382812 145.300781 51.109375 C 145.300781 53.132812 144.949219 54.609375 144.277344 55.507812 C 143.574219 56.433594 142.675781 56.882812 141.476562 56.882812 C 140.226562 56.882812 139.277344 56.433594 138.601562 55.484375 C 137.925781 54.558594 137.625 53.207031 137.625 51.457031 Z M 137.625 51.457031 "/>
<path fill-rule="nonzero" fill="rgb(0%, 0%, 0%)" fill-opacity="1" d="M 164.167969 51.132812 C 164.167969 54.207031 164.792969 56.609375 166.117188 58.332031 C 167.46875 60.03125 169.21875 60.882812 171.390625 60.882812 C 173.316406 60.882812 174.890625 60.109375 176.167969 58.558594 L 176.417969 60.53125 L 180.867188 60.53125 L 180.867188 34.234375 L 175.917969 34.234375 L 175.917969 43.707031 C 174.71875 42.359375 173.21875 41.65625 171.417969 41.65625 C 169.191406 41.65625 167.390625 42.53125 166.09375 44.234375 C 164.792969 45.933594 164.167969 48.257812 164.167969 51.132812 Z M 169.117188 51.484375 C 169.117188 47.632812 170.292969 45.707031 172.691406 45.707031 C 174.242188 45.707031 175.292969 46.359375 175.917969 47.632812 L 175.917969 54.933594 C 175.242188 56.257812 174.167969 56.882812 172.640625 56.882812 C 171.492188 56.882812 170.617188 56.433594 170.015625 55.484375 C 169.390625 54.558594 169.117188 53.234375 169.117188 51.484375 Z M 169.117188 51.484375 "/>
<path fill-rule="nonzero" fill="rgb(0%, 0%, 0%)" fill-opacity="1" d="M 193.210938 60.882812 C 194.734375 60.882812 196.160156 60.609375 197.410156 60.007812 C 198.6875 59.457031 199.660156 58.609375 200.4375 57.558594 L 198.011719 54.808594 C 196.960938 56.207031 195.4375 56.882812 193.5625 56.882812 C 192.285156 56.882812 191.285156 56.53125 190.460938 55.808594 C 189.660156 55.109375 189.160156 54.109375 189.035156 52.882812 L 200.859375 52.882812 L 200.859375 50.859375 C 200.859375 47.933594 200.109375 45.707031 198.636719 44.082031 C 197.160156 42.457031 195.210938 41.65625 192.6875 41.65625 C 190.960938 41.65625 189.460938 42.082031 188.160156 42.859375 C 186.8125 43.65625 185.8125 44.78125 185.109375 46.257812 C 184.359375 47.734375 184.011719 49.382812 184.011719 51.234375 L 184.011719 51.734375 C 184.011719 54.507812 184.859375 56.707031 186.585938 58.382812 C 188.261719 60.082031 190.460938 60.882812 193.210938 60.882812 Z M 192.636719 45.65625 C 193.6875 45.65625 194.511719 45.984375 195.0625 46.582031 C 195.609375 47.15625 195.9375 48.007812 195.984375 49.109375 L 195.984375 49.507812 L 189.109375 49.507812 C 189.234375 48.28125 189.636719 47.332031 190.261719 46.683594 C 190.859375 46.007812 191.660156 45.65625 192.636719 45.65625 Z M 192.636719 45.65625 "/>
<path fill-rule="nonzero" fill="rgb(0%, 0%, 0%)" fill-opacity="1" d="M 214.558594 51.109375 L 214.558594 51.308594 C 214.558594 54.257812 215.335938 56.609375 216.933594 58.332031 C 218.511719 60.03125 220.660156 60.882812 223.335938 60.882812 C 225.984375 60.882812 228.136719 60.03125 229.734375 58.332031 C 231.335938 56.609375 232.136719 54.332031 232.136719 51.457031 L 232.085938 50.183594 C 231.886719 47.582031 231.011719 45.53125 229.433594 43.984375 C 227.859375 42.433594 225.808594 41.65625 223.335938 41.65625 C 221.558594 41.65625 220.035156 42.082031 218.683594 42.859375 C 217.359375 43.632812 216.308594 44.757812 215.609375 46.183594 C 214.910156 47.632812 214.558594 49.28125 214.558594 51.109375 Z M 219.511719 51.457031 C 219.511719 49.484375 219.808594 48.058594 220.484375 47.109375 C 221.160156 46.15625 222.109375 45.65625 223.335938 45.65625 C 224.511719 45.65625 225.460938 46.15625 226.160156 47.109375 C 226.835938 48.058594 227.183594 49.382812 227.183594 51.109375 C 227.183594 53.132812 226.835938 54.609375 226.160156 55.507812 C 225.460938 56.433594 224.558594 56.882812 223.359375 56.882812 C 222.109375 56.882812 221.160156 56.433594 220.484375 55.484375 C 219.808594 54.558594 219.511719 53.207031 219.511719 51.457031 Z M 219.511719 51.457031 "/>
<path fill-rule="nonzero" fill="rgb(0%, 0%, 0%)" fill-opacity="1" d="M 251.847656 51.457031 L 251.847656 51.15625 C 251.847656 48.15625 251.175781 45.832031 249.898438 44.15625 C 248.648438 42.507812 246.847656 41.65625 244.625 41.65625 C 242.722656 41.65625 241.199219 42.332031 240.097656 43.65625 L 240.097656 34.234375 L 235.148438 34.234375 L 235.148438 60.53125 L 239.597656 60.53125 L 239.847656 58.558594 C 241.023438 60.109375 242.648438 60.882812 244.648438 60.882812 C 246.898438 60.882812 248.675781 60.082031 249.949219 58.382812 C 251.199219 56.734375 251.847656 54.433594 251.847656 51.457031 Z M 246.898438 51.058594 C 246.898438 52.609375 246.75 53.757812 246.550781 54.53125 C 246.023438 56.109375 244.972656 56.882812 243.375 56.882812 C 241.773438 56.882812 240.675781 56.257812 240.097656 54.933594 L 240.097656 47.632812 C 240.675781 46.359375 241.773438 45.707031 243.347656 45.707031 C 244.5 45.707031 245.375 46.15625 245.972656 46.984375 C 246.574219 47.832031 246.898438 49.207031 246.898438 51.058594 Z M 246.898438 51.058594 "/>
<path fill-rule="nonzero" fill="rgb(0%, 0%, 0%)" fill-opacity="1" d="M 260.109375 42.007812 L 255.132812 42.007812 L 255.132812 61.582031 C 255.132812 63.207031 254.359375 63.957031 252.882812 63.957031 C 252.433594 63.957031 251.90625 63.90625 251.332031 63.78125 L 251.332031 67.734375 C 252.082031 67.933594 252.882812 68.007812 253.757812 68.007812 C 255.808594 68.007812 257.382812 67.433594 258.457031 66.308594 C 259.558594 65.207031 260.109375 63.582031 260.109375 61.558594 Z M 254.757812 37.207031 C 254.757812 37.984375 254.984375 38.582031 255.484375 39.058594 C 255.984375 39.558594 256.683594 39.757812 257.507812 39.757812 C 258.359375 39.757812 259.03125 39.558594 259.507812 39.058594 C 260.007812 38.582031 260.28125 37.984375 260.28125 37.207031 C 260.28125 36.484375 260.03125 35.882812 259.558594 35.382812 C 259.058594 34.882812 258.359375 34.65625 257.507812 34.65625 C 256.632812 34.65625 255.984375 34.882812 255.484375 35.382812 C 254.984375 35.882812 254.757812 36.484375 254.757812 37.207031 Z M 254.757812 37.207031 "/>
<path fill-rule="nonzero" fill="rgb(0%, 0%, 0%)" fill-opacity="1" d="M 272.464844 60.882812 C 273.992188 60.882812 275.414062 60.609375 276.664062 60.007812 C 277.941406 59.457031 278.914062 58.609375 279.691406 57.558594 L 277.265625 54.808594 C 276.214844 56.207031 274.691406 56.882812 272.816406 56.882812 C 271.539062 56.882812 270.539062 56.53125 269.714844 55.808594 C 268.914062 55.109375 268.414062 54.109375 268.289062 52.882812 L 280.117188 52.882812 L 280.117188 50.859375 C 280.117188 47.933594 279.367188 45.707031 277.890625 44.082031 C 276.414062 42.457031 274.464844 41.65625 271.941406 41.65625 C 270.214844 41.65625 268.714844 42.082031 267.414062 42.859375 C 266.066406 43.65625 265.066406 44.78125 264.367188 46.257812 C 263.617188 47.734375 263.265625 49.382812 263.265625 51.234375 L 263.265625 51.734375 C 263.265625 54.507812 264.117188 56.707031 265.839844 58.382812 C 267.515625 60.082031 269.714844 60.882812 272.464844 60.882812 Z M 271.890625 45.65625 C 272.941406 45.65625 273.765625 45.984375 274.316406 46.582031 C 274.867188 47.15625 275.191406 48.007812 275.242188 49.109375 L 275.242188 49.507812 L 268.367188 49.507812 C 268.492188 48.28125 268.890625 47.332031 269.515625 46.683594 C 270.117188 46.007812 270.914062 45.65625 271.890625 45.65625 Z M 271.890625 45.65625 "/>
<path fill-rule="nonzero" fill="rgb(0%, 0%, 0%)" fill-opacity="1" d="M 288.800781 37.457031 L 283.851562 37.457031 L 283.851562 42.007812 L 281.152344 42.007812 L 281.152344 45.632812 L 283.851562 45.632812 L 283.851562 55.632812 C 283.925781 59.132812 285.675781 60.882812 289.152344 60.882812 C 290.175781 60.882812 291.175781 60.734375 292.175781 60.433594 L 292.175781 56.683594 C 291.703125 56.78125 291.226562 56.808594 290.703125 56.808594 C 289.953125 56.808594 289.476562 56.683594 289.175781 56.359375 C 288.902344 56.082031 288.800781 55.582031 288.800781 54.882812 L 288.800781 45.632812 L 291.953125 45.632812 L 291.953125 42.007812 L 288.800781 42.007812 Z M 288.800781 37.457031 "/>
<path fill-rule="nonzero" fill="rgb(0%, 0%, 0%)" fill-opacity="1" d="M 293.394531 51.109375 L 293.394531 51.308594 C 293.394531 54.257812 294.167969 56.609375 295.769531 58.332031 C 297.34375 60.03125 299.496094 60.882812 302.167969 60.882812 C 304.820312 60.882812 306.96875 60.03125 308.570312 58.332031 C 310.167969 56.609375 310.96875 54.332031 310.96875 51.457031 L 310.917969 50.183594 C 310.71875 47.582031 309.84375 45.53125 308.269531 43.984375 C 306.695312 42.433594 304.644531 41.65625 302.167969 41.65625 C 300.394531 41.65625 298.871094 42.082031 297.519531 42.859375 C 296.195312 43.632812 295.144531 44.757812 294.445312 46.183594 C 293.746094 47.632812 293.394531 49.28125 293.394531 51.109375 Z M 298.34375 51.457031 C 298.34375 49.484375 298.644531 48.058594 299.320312 47.109375 C 299.996094 46.15625 300.945312 45.65625 302.167969 45.65625 C 303.34375 45.65625 304.292969 46.15625 304.996094 47.109375 C 305.667969 48.058594 306.019531 49.382812 306.019531 51.109375 C 306.019531 53.132812 305.667969 54.609375 304.996094 55.507812 C 304.292969 56.433594 303.394531 56.882812 302.195312 56.882812 C 300.945312 56.882812 299.996094 56.433594 299.320312 55.484375 C 298.644531 54.558594 298.34375 53.207031 298.34375 51.457031 Z M 298.34375 51.457031 "/>
<path fill-rule="nonzero" fill="rgb(0%, 0%, 0%)" fill-opacity="1" d="M 324.007812 55.40625 C 324.007812 56.007812 323.757812 56.507812 323.28125 56.859375 C 322.78125 57.207031 322.082031 57.382812 321.132812 57.382812 C 320.109375 57.382812 319.308594 57.15625 318.707031 56.683594 C 318.082031 56.207031 317.757812 55.558594 317.734375 54.632812 L 313.03125 54.632812 C 313.03125 55.757812 313.359375 56.808594 314.058594 57.757812 C 314.757812 58.734375 315.707031 59.484375 316.882812 60.03125 C 318.082031 60.609375 319.484375 60.882812 321.03125 60.882812 C 323.332031 60.882812 325.207031 60.359375 326.683594 59.308594 C 328.109375 58.257812 328.859375 56.882812 328.859375 55.207031 C 328.859375 52.859375 327.507812 51.207031 324.90625 50.234375 C 324.082031 49.933594 323.03125 49.65625 321.808594 49.40625 C 320.53125 49.15625 319.65625 48.882812 319.15625 48.53125 C 318.632812 48.183594 318.40625 47.757812 318.40625 47.207031 C 318.40625 46.632812 318.609375 46.15625 319.058594 45.757812 C 319.484375 45.382812 320.15625 45.15625 320.984375 45.15625 C 321.984375 45.15625 322.683594 45.40625 323.132812 45.882812 C 323.582031 46.359375 323.832031 46.933594 323.832031 47.632812 L 328.78125 47.632812 C 328.78125 45.882812 328.082031 44.457031 326.683594 43.359375 C 325.28125 42.234375 323.382812 41.65625 321.03125 41.65625 C 318.808594 41.65625 317.03125 42.234375 315.65625 43.308594 C 314.28125 44.433594 313.632812 45.808594 313.632812 47.40625 C 313.632812 50.257812 315.808594 52.15625 320.207031 53.058594 C 321.558594 53.332031 322.507812 53.632812 323.109375 53.984375 C 323.683594 54.332031 324.007812 54.808594 324.007812 55.40625 Z M 324.007812 55.40625 "/>
<path fill="none" stroke-width="1.99255" stroke-linecap="butt" stroke-linejoin="round" stroke="rgb(19.607843%, 19.607843%, 19.607843%)" stroke-opacity="1" stroke-miterlimit="10" d="M -109.825165 -28.931051 L 109.823273 -28.931051 L 109.823273 28.932718 L -109.825165 28.932718 Z M -109.825165 -28.931051 " transform="matrix(1.6, 0, 0, -1.6, 531.931201, 51.073599)"/>
<path fill-rule="nonzero" fill="rgb(0%, 0%, 0%)" fill-opacity="1" d="M 384.203125 45.433594 L 379.554688 45.433594 L 379.554688 63.960938 L 384.480469 63.960938 L 384.480469 50.886719 C 385.179688 49.710938 386.253906 49.136719 387.652344 49.136719 C 388.703125 49.136719 389.429688 49.359375 389.878906 49.835938 C 390.355469 50.308594 390.578125 51.058594 390.578125 52.109375 L 390.578125 63.960938 L 395.527344 63.960938 L 395.527344 52.011719 C 395.503906 49.710938 395.003906 48.011719 394.054688 46.835938 C 393.078125 45.683594 391.652344 45.085938 389.679688 45.085938 C 387.429688 45.085938 385.679688 45.933594 384.355469 47.585938 Z M 384.203125 45.433594 "/>
<path fill-rule="nonzero" fill="rgb(0%, 0%, 0%)" fill-opacity="1" d="M 398.515625 54.535156 L 398.515625 54.734375 C 398.515625 57.683594 399.292969 60.035156 400.890625 61.761719 C 402.46875 63.460938 404.617188 64.308594 407.292969 64.308594 C 409.941406 64.308594 412.09375 63.460938 413.691406 61.761719 C 415.292969 60.035156 416.09375 57.761719 416.09375 54.886719 L 416.042969 53.609375 C 415.84375 51.011719 414.96875 48.960938 413.390625 47.410156 C 411.816406 45.859375 409.765625 45.085938 407.292969 45.085938 C 405.515625 45.085938 403.992188 45.511719 402.640625 46.285156 C 401.316406 47.058594 400.265625 48.183594 399.566406 49.609375 C 398.867188 51.058594 398.515625 52.710938 398.515625 54.535156 Z M 403.46875 54.886719 C 403.46875 52.910156 403.765625 51.484375 404.441406 50.535156 C 405.117188 49.585938 406.066406 49.085938 407.292969 49.085938 C 408.46875 49.085938 409.417969 49.585938 410.117188 50.535156 C 410.792969 51.484375 411.140625 52.808594 411.140625 54.535156 C 411.140625 56.558594 410.792969 58.035156 410.117188 58.933594 C 409.417969 59.859375 408.515625 60.308594 407.316406 60.308594 C 406.066406 60.308594 405.117188 59.859375 404.441406 58.910156 C 403.765625 57.984375 403.46875 56.636719 403.46875 54.886719 Z M 403.46875 54.886719 "/>
<path fill-rule="nonzero" fill="rgb(0%, 0%, 0%)" fill-opacity="1" d="M 423.753906 45.433594 L 419.105469 45.433594 L 419.105469 63.960938 L 424.054688 63.960938 L 424.054688 50.835938 C 424.679688 49.710938 425.707031 49.136719 427.105469 49.136719 C 428.105469 49.136719 428.855469 49.359375 429.28125 49.859375 C 429.679688 50.359375 429.90625 51.136719 429.90625 52.183594 L 429.90625 63.960938 L 434.855469 63.960938 L 434.804688 51.234375 C 435.378906 49.835938 436.429688 49.136719 437.90625 49.136719 C 438.957031 49.136719 439.65625 49.359375 440.082031 49.859375 C 440.503906 50.359375 440.707031 51.085938 440.707031 52.136719 L 440.707031 63.960938 L 445.679688 63.960938 L 445.679688 52.136719 C 445.679688 49.785156 445.207031 48.035156 444.207031 46.835938 C 443.230469 45.683594 441.730469 45.085938 439.730469 45.085938 C 437.304688 45.085938 435.457031 46.011719 434.15625 47.886719 C 433.230469 46.035156 431.628906 45.085938 429.230469 45.085938 C 426.980469 45.085938 425.207031 45.886719 423.90625 47.511719 Z M 423.753906 45.433594 "/>
<path fill-rule="nonzero" fill="rgb(0%, 0%, 0%)" fill-opacity="1" d="M 466.140625 54.886719 L 466.140625 54.585938 C 466.140625 51.585938 465.464844 49.261719 464.191406 47.585938 C 462.941406 45.933594 461.140625 45.085938 458.914062 45.085938 C 457.015625 45.085938 455.488281 45.761719 454.390625 47.085938 L 454.390625 37.660156 L 449.441406 37.660156 L 449.441406 63.960938 L 453.890625 63.960938 L 454.140625 61.984375 C 455.316406 63.535156 456.941406 64.308594 458.941406 64.308594 C 461.191406 64.308594 462.964844 63.511719 464.238281 61.808594 C 465.488281 60.160156 466.140625 57.859375 466.140625 54.886719 Z M 461.191406 54.484375 C 461.191406 56.035156 461.039062 57.183594 460.839844 57.960938 C 460.316406 59.535156 459.265625 60.308594 457.664062 60.308594 C 456.066406 60.308594 454.964844 59.683594 454.390625 58.359375 L 454.390625 51.058594 C 454.964844 49.785156 456.066406 49.136719 457.640625 49.136719 C 458.789062 49.136719 459.664062 49.585938 460.265625 50.410156 C 460.863281 51.261719 461.191406 52.636719 461.191406 54.484375 Z M 461.191406 54.484375 "/>
<path fill-rule="nonzero" fill="rgb(0%, 0%, 0%)" fill-opacity="1" d="M 479.546875 50.058594 L 479.625 45.308594 C 479.148438 45.160156 478.625 45.085938 478.097656 45.085938 C 476.296875 45.085938 474.921875 45.960938 473.949219 47.660156 L 473.847656 45.433594 L 469.148438 45.433594 L 469.148438 63.960938 L 474.097656 63.960938 L 474.097656 51.835938 C 474.648438 50.558594 475.875 49.933594 477.773438 49.933594 C 478.273438 49.933594 478.847656 50.011719 479.546875 50.058594 Z M 479.546875 50.058594 "/>
<path fill-rule="nonzero" fill="rgb(0%, 0%, 0%)" fill-opacity="1" d="M 490.121094 64.308594 C 491.648438 64.308594 493.074219 64.035156 494.324219 63.433594 C 495.597656 62.886719 496.574219 62.035156 497.347656 60.984375 L 494.921875 58.234375 C 493.871094 59.636719 492.347656 60.308594 490.472656 60.308594 C 489.199219 60.308594 488.199219 59.960938 487.371094 59.234375 C 486.574219 58.535156 486.074219 57.535156 485.949219 56.308594 L 497.773438 56.308594 L 497.773438 54.285156 C 497.773438 51.359375 497.023438 49.136719 495.546875 47.511719 C 494.074219 45.886719 492.121094 45.085938 489.597656 45.085938 C 487.871094 45.085938 486.371094 45.511719 485.074219 46.285156 C 483.722656 47.085938 482.722656 48.210938 482.023438 49.683594 C 481.273438 51.160156 480.921875 52.808594 480.921875 54.660156 L 480.921875 55.160156 C 480.921875 57.933594 481.773438 60.136719 483.496094 61.808594 C 485.171875 63.511719 487.371094 64.308594 490.121094 64.308594 Z M 489.546875 49.085938 C 490.597656 49.085938 491.421875 49.410156 491.972656 50.011719 C 492.523438 50.585938 492.847656 51.433594 492.898438 52.535156 L 492.898438 52.933594 L 486.023438 52.933594 C 486.148438 51.710938 486.546875 50.761719 487.171875 50.109375 C 487.773438 49.433594 488.574219 49.085938 489.546875 49.085938 Z M 489.546875 49.085938 "/>
<path fill-rule="nonzero" fill="rgb(0%, 0%, 0%)" fill-opacity="1" d="M 511.4375 54.558594 C 511.4375 57.636719 512.0625 60.035156 513.386719 61.761719 C 514.738281 63.460938 516.488281 64.308594 518.664062 64.308594 C 520.585938 64.308594 522.164062 63.535156 523.4375 61.984375 L 523.6875 63.960938 L 528.136719 63.960938 L 528.136719 37.660156 L 523.1875 37.660156 L 523.1875 47.136719 C 521.988281 45.785156 520.488281 45.085938 518.6875 45.085938 C 516.460938 45.085938 514.664062 45.960938 513.363281 47.660156 C 512.0625 49.359375 511.4375 51.683594 511.4375 54.558594 Z M 516.386719 54.910156 C 516.386719 51.058594 517.5625 49.136719 519.960938 49.136719 C 521.511719 49.136719 522.5625 49.785156 523.1875 51.058594 L 523.1875 58.359375 C 522.511719 59.683594 521.4375 60.308594 519.914062 60.308594 C 518.761719 60.308594 517.886719 59.859375 517.289062 58.910156 C 516.664062 57.984375 516.386719 56.660156 516.386719 54.910156 Z M 516.386719 54.910156 "/>
<path fill-rule="nonzero" fill="rgb(0%, 0%, 0%)" fill-opacity="1" d="M 540.480469 64.308594 C 542.007812 64.308594 543.429688 64.035156 544.679688 63.433594 C 545.957031 62.886719 546.929688 62.035156 547.707031 60.984375 L 545.28125 58.234375 C 544.230469 59.636719 542.707031 60.308594 540.832031 60.308594 C 539.554688 60.308594 538.554688 59.960938 537.730469 59.234375 C 536.929688 58.535156 536.429688 57.535156 536.304688 56.308594 L 548.132812 56.308594 L 548.132812 54.285156 C 548.132812 51.359375 547.382812 49.136719 545.90625 47.511719 C 544.429688 45.886719 542.480469 45.085938 539.957031 45.085938 C 538.230469 45.085938 536.730469 45.511719 535.429688 46.285156 C 534.082031 47.085938 533.082031 48.210938 532.382812 49.683594 C 531.632812 51.160156 531.28125 52.808594 531.28125 54.660156 L 531.28125 55.160156 C 531.28125 57.933594 532.132812 60.136719 533.855469 61.808594 C 535.53125 63.511719 537.730469 64.308594 540.480469 64.308594 Z M 539.90625 49.085938 C 540.957031 49.085938 541.78125 49.410156 542.332031 50.011719 C 542.882812 50.585938 543.207031 51.433594 543.257812 52.535156 L 543.257812 52.933594 L 536.382812 52.933594 C 536.507812 51.710938 536.90625 50.761719 537.53125 50.109375 C 538.132812 49.433594 538.929688 49.085938 539.90625 49.085938 Z M 539.90625 49.085938 "/>
<path fill-rule="nonzero" fill="rgb(0%, 0%, 0%)" fill-opacity="1" d="M 567.832031 63.960938 L 567.832031 37.660156 L 562.878906 37.660156 L 562.878906 63.960938 Z M 567.832031 63.960938 "/>
<path fill-rule="nonzero" fill="rgb(0%, 0%, 0%)" fill-opacity="1" d="M 582.625 63.960938 L 587.648438 63.960938 L 587.648438 63.683594 C 587.148438 62.761719 586.898438 61.433594 586.898438 59.683594 L 586.898438 51.660156 C 586.898438 49.585938 586.25 47.960938 584.898438 46.808594 C 583.574219 45.683594 581.75 45.085938 579.472656 45.085938 C 577.925781 45.085938 576.550781 45.359375 575.375 45.859375 C 574.175781 46.386719 573.222656 47.085938 572.550781 48.011719 C 571.898438 48.910156 571.574219 49.933594 571.574219 50.984375 L 576.523438 50.984375 C 576.523438 50.308594 576.722656 49.785156 577.222656 49.359375 C 577.675781 48.960938 578.347656 48.734375 579.199219 48.734375 C 580.125 48.734375 580.847656 49.011719 581.25 49.511719 C 581.675781 50.035156 581.925781 50.734375 581.925781 51.585938 L 581.925781 52.636719 L 579.648438 52.636719 C 576.898438 52.660156 574.800781 53.183594 573.324219 54.234375 C 571.847656 55.285156 571.148438 56.808594 571.148438 58.761719 C 571.148438 60.386719 571.75 61.683594 572.949219 62.734375 C 574.148438 63.785156 575.648438 64.308594 577.472656 64.308594 C 579.375 64.308594 580.949219 63.636719 582.125 62.308594 C 582.199219 62.984375 582.375 63.535156 582.625 63.960938 Z M 578.550781 60.535156 C 577.773438 60.535156 577.199219 60.335938 576.773438 59.933594 C 576.324219 59.511719 576.097656 59.011719 576.097656 58.386719 L 576.148438 58.109375 C 576.273438 56.410156 577.597656 55.535156 580.097656 55.535156 L 581.925781 55.535156 L 581.925781 58.734375 C 581.648438 59.285156 581.199219 59.710938 580.550781 60.035156 C 579.925781 60.386719 579.25 60.535156 578.550781 60.535156 Z M 578.550781 60.535156 "/>
<path fill-rule="nonzero" fill="rgb(0%, 0%, 0%)" fill-opacity="1" d="M 619.074219 54.886719 L 619.074219 54.585938 C 619.074219 51.585938 618.398438 49.261719 617.125 47.585938 C 615.875 45.933594 614.074219 45.085938 611.847656 45.085938 C 609.949219 45.085938 608.421875 45.761719 607.324219 47.085938 L 607.324219 37.660156 L 602.375 37.660156 L 602.375 63.960938 L 606.824219 63.960938 L 607.074219 61.984375 C 608.25 63.535156 609.875 64.308594 611.875 64.308594 C 614.125 64.308594 615.898438 63.511719 617.171875 61.808594 C 618.421875 60.160156 619.074219 57.859375 619.074219 54.886719 Z M 614.125 54.484375 C 614.125 56.035156 613.972656 57.183594 613.773438 57.960938 C 613.25 59.535156 612.199219 60.308594 610.597656 60.308594 C 609 60.308594 607.898438 59.683594 607.324219 58.359375 L 607.324219 51.058594 C 607.898438 49.785156 609 49.136719 610.574219 49.136719 C 611.722656 49.136719 612.597656 49.585938 613.199219 50.410156 C 613.796875 51.261719 614.125 52.636719 614.125 54.484375 Z M 614.125 54.484375 "/>
<path fill-rule="nonzero" fill="rgb(0%, 0%, 0%)" fill-opacity="1" d="M 621.308594 54.535156 L 621.308594 54.734375 C 621.308594 57.683594 622.082031 60.035156 623.683594 61.761719 C 625.257812 63.460938 627.40625 64.308594 630.082031 64.308594 C 632.730469 64.308594 634.882812 63.460938 636.480469 61.761719 C 638.082031 60.035156 638.882812 57.761719 638.882812 54.886719 L 638.832031 53.609375 C 638.632812 51.011719 637.757812 48.960938 636.183594 47.410156 C 634.605469 45.859375 632.558594 45.085938 630.082031 45.085938 C 628.308594 45.085938 626.78125 45.511719 625.433594 46.285156 C 624.105469 47.058594 623.058594 48.183594 622.355469 49.609375 C 621.65625 51.058594 621.308594 52.710938 621.308594 54.535156 Z M 626.257812 54.886719 C 626.257812 52.910156 626.558594 51.484375 627.230469 50.535156 C 627.90625 49.585938 628.855469 49.085938 630.082031 49.085938 C 631.257812 49.085938 632.207031 49.585938 632.90625 50.535156 C 633.582031 51.484375 633.933594 52.808594 633.933594 54.535156 C 633.933594 56.558594 633.582031 58.035156 632.90625 58.933594 C 632.207031 59.859375 631.308594 60.308594 630.105469 60.308594 C 628.855469 60.308594 627.90625 59.859375 627.230469 58.910156 C 626.558594 57.984375 626.257812 56.636719 626.257812 54.886719 Z M 626.257812 54.886719 "/>
<path fill-rule="nonzero" fill="rgb(0%, 0%, 0%)" fill-opacity="1" d="M 647.121094 63.960938 L 647.121094 37.660156 L 642.171875 37.660156 L 642.171875 63.960938 Z M 647.121094 63.960938 "/>
<path fill-rule="nonzero" fill="rgb(0%, 0%, 0%)" fill-opacity="1" d="M 661.214844 58.835938 C 661.214844 59.433594 660.964844 59.933594 660.488281 60.285156 C 659.988281 60.636719 659.289062 60.808594 658.339844 60.808594 C 657.3125 60.808594 656.515625 60.585938 655.914062 60.109375 C 655.289062 59.636719 654.964844 58.984375 654.9375 58.058594 L 650.238281 58.058594 C 650.238281 59.183594 650.5625 60.234375 651.265625 61.183594 C 651.964844 62.160156 652.914062 62.910156 654.089844 63.460938 C 655.289062 64.035156 656.6875 64.308594 658.238281 64.308594 C 660.539062 64.308594 662.414062 63.785156 663.890625 62.734375 C 665.3125 61.683594 666.0625 60.308594 666.0625 58.636719 C 666.0625 56.285156 664.714844 54.636719 662.113281 53.660156 C 661.289062 53.359375 660.238281 53.085938 659.015625 52.835938 C 657.738281 52.585938 656.863281 52.308594 656.363281 51.960938 C 655.839844 51.609375 655.613281 51.183594 655.613281 50.636719 C 655.613281 50.058594 655.8125 49.585938 656.265625 49.183594 C 656.6875 48.808594 657.363281 48.585938 658.1875 48.585938 C 659.1875 48.585938 659.890625 48.835938 660.339844 49.308594 C 660.789062 49.785156 661.039062 50.359375 661.039062 51.058594 L 665.988281 51.058594 C 665.988281 49.308594 665.289062 47.886719 663.890625 46.785156 C 662.488281 45.660156 660.589844 45.085938 658.238281 45.085938 C 656.015625 45.085938 654.238281 45.660156 652.863281 46.734375 C 651.488281 47.859375 650.839844 49.234375 650.839844 50.835938 C 650.839844 53.683594 653.015625 55.585938 657.414062 56.484375 C 658.765625 56.761719 659.714844 57.058594 660.3125 57.410156 C 660.890625 57.761719 661.214844 58.234375 661.214844 58.835938 Z M 661.214844 58.835938 "/>
<path fill-rule="nonzero" fill="rgb(0%, 0%, 0%)" fill-opacity="1" d="M 679.9375 63.960938 L 684.964844 63.960938 L 684.964844 63.683594 C 684.464844 62.761719 684.214844 61.433594 684.214844 59.683594 L 684.214844 51.660156 C 684.214844 49.585938 683.5625 47.960938 682.214844 46.808594 C 680.890625 45.683594 679.0625 45.085938 676.789062 45.085938 C 675.238281 45.085938 673.863281 45.359375 672.6875 45.859375 C 671.488281 46.386719 670.539062 47.085938 669.863281 48.011719 C 669.214844 48.910156 668.890625 49.933594 668.890625 50.984375 L 673.839844 50.984375 C 673.839844 50.308594 674.039062 49.785156 674.539062 49.359375 C 674.988281 48.960938 675.664062 48.734375 676.515625 48.734375 C 677.4375 48.734375 678.164062 49.011719 678.5625 49.511719 C 678.988281 50.035156 679.238281 50.734375 679.238281 51.585938 L 679.238281 52.636719 L 676.964844 52.636719 C 674.214844 52.660156 672.113281 53.183594 670.640625 54.234375 C 669.164062 55.285156 668.464844 56.808594 668.464844 58.761719 C 668.464844 60.386719 669.0625 61.683594 670.265625 62.734375 C 671.464844 63.785156 672.964844 64.308594 674.789062 64.308594 C 676.6875 64.308594 678.265625 63.636719 679.4375 62.308594 C 679.515625 62.984375 679.6875 63.535156 679.9375 63.960938 Z M 675.863281 60.535156 C 675.089844 60.535156 674.515625 60.335938 674.089844 59.933594 C 673.640625 59.511719 673.414062 59.011719 673.414062 58.386719 L 673.464844 58.109375 C 673.589844 56.410156 674.914062 55.535156 677.414062 55.535156 L 679.238281 55.535156 L 679.238281 58.734375 C 678.964844 59.285156 678.515625 59.710938 677.863281 60.035156 C 677.238281 60.386719 676.5625 60.535156 675.863281 60.535156 Z M 675.863281 60.535156 "/>
<path fill="none" stroke-width="0.99628" stroke-linecap="butt" stroke-linejoin="round" stroke="rgb(19.607843%, 19.607843%, 19.607843%)" stroke-opacity="1" stroke-miterlimit="10" d="M -109.822716 -28.93187 L 109.825722 -28.93187 L 109.825722 28.929459 L -109.822716 28.929459 Z M -109.822716 -28.93187 " transform="matrix(1.6, 0, 0, -1.6, 180.497595, 144.451196)"/>
<path fill-rule="nonzero" fill="rgb(0%, 0%, 0%)" fill-opacity="1" d="M 183.9375 157.003906 L 183.9375 131.953125 L 183.4375 131.953125 L 174.363281 135.355469 L 174.363281 138.230469 L 180.738281 135.878906 L 180.738281 157.003906 Z M 183.9375 157.003906 "/>
<path fill="none" stroke-width="0.99628" stroke-linecap="butt" stroke-linejoin="round" stroke="rgb(19.607843%, 19.607843%, 19.607843%)" stroke-opacity="1" stroke-miterlimit="10" d="M -109.825165 -28.93187 L 109.823273 -28.93187 L 109.823273 28.929459 L -109.825165 28.929459 Z M -109.825165 -28.93187 " transform="matrix(1.6, 0, 0, -1.6, 531.931201, 144.451196)"/>
<path fill="none" stroke-width="0.99628" stroke-linecap="butt" stroke-linejoin="round" stroke="rgb(19.607843%, 19.607843%, 19.607843%)" stroke-opacity="1" stroke-miterlimit="10" d="M -109.822716 -28.932632 L 109.825722 -28.932632 L 109.825722 28.931137 L -109.822716 28.931137 Z M -109.822716 -28.932632 " transform="matrix(1.6, 0, 0, -1.6, 180.497595, 237.032007)"/>
<path fill-rule="nonzero" fill="rgb(0%, 0%, 0%)" fill-opacity="1" d="M 189.085938 249.585938 L 189.085938 246.984375 L 176.5625 246.984375 L 183.210938 239.761719 C 186.335938 236.386719 187.910156 233.460938 187.910156 230.984375 C 187.910156 228.960938 187.210938 227.335938 185.886719 226.109375 C 184.5625 224.9375 182.734375 224.285156 180.410156 224.285156 C 177.910156 224.285156 175.910156 225.035156 174.460938 226.4375 C 172.984375 227.886719 172.234375 229.734375 172.234375 232.011719 L 175.4375 232.011719 C 175.4375 230.410156 175.859375 229.160156 176.734375 228.261719 C 177.609375 227.386719 178.835938 226.9375 180.410156 226.9375 C 181.710938 226.9375 182.761719 227.335938 183.535156 228.160156 C 184.3125 228.984375 184.734375 230.0625 184.734375 231.335938 C 184.734375 232.335938 184.484375 233.285156 183.984375 234.1875 C 183.484375 235.109375 182.609375 236.285156 181.359375 237.734375 L 172.734375 247.3125 L 172.734375 249.585938 Z M 189.085938 249.585938 "/>
<path fill="none" stroke-width="0.99628" stroke-linecap="butt" stroke-linejoin="round" stroke="rgb(19.607843%, 19.607843%, 19.607843%)" stroke-opacity="1" stroke-miterlimit="10" d="M -109.825165 -28.932632 L 109.823273 -28.932632 L 109.823273 28.931137 L -109.825165 28.931137 Z M -109.825165 -28.932632 " transform="matrix(1.6, 0, 0, -1.6, 531.931201, 237.032007)"/>
<path fill="none" stroke-width="0.99628" stroke-linecap="butt" stroke-linejoin="round" stroke="rgb(19.607843%, 19.607843%, 19.607843%)" stroke-opacity="1" stroke-miterlimit="10" d="M -109.822716 -28.933411 L 109.825722 -28.933411 L 109.825722 28.9328 L -109.822716 28.9328 Z M -109.822716 -28.933411 " transform="matrix(1.6, 0, 0, -1.6, 180.497595, 329.612793)"/>
<path fill-rule="nonzero" fill="rgb(0%, 0%, 0%)" fill-opacity="1" d="M 177.335938 327.992188 L 177.335938 330.566406 L 179.710938 330.566406 C 181.386719 330.59375 182.660156 331.015625 183.5625 331.792969 C 184.4375 332.566406 184.910156 333.667969 184.910156 335.117188 C 184.910156 336.617188 184.484375 337.792969 183.6875 338.566406 C 182.835938 339.367188 181.6875 339.742188 180.160156 339.742188 C 178.734375 339.742188 177.5625 339.367188 176.734375 338.566406 C 175.886719 337.792969 175.460938 336.742188 175.460938 335.390625 L 172.285156 335.390625 C 172.285156 337.46875 172.984375 339.140625 174.460938 340.441406 C 175.910156 341.71875 177.8125 342.34375 180.160156 342.34375 C 182.511719 342.34375 184.410156 341.71875 185.886719 340.367188 C 187.359375 339.09375 188.085938 337.292969 188.085938 335.042969 C 188.085938 333.617188 187.710938 332.390625 186.960938 331.367188 C 186.210938 330.390625 185.136719 329.640625 183.785156 329.191406 C 184.960938 328.691406 185.960938 327.96875 186.660156 326.917969 C 187.359375 325.890625 187.710938 324.84375 187.710938 323.742188 C 187.710938 321.566406 187.035156 319.867188 185.710938 318.59375 C 184.386719 317.34375 182.511719 316.691406 180.160156 316.691406 C 177.910156 316.691406 176.085938 317.367188 174.660156 318.691406 C 173.1875 320.042969 172.484375 321.640625 172.484375 323.617188 L 175.6875 323.617188 C 175.6875 322.316406 176.0625 321.265625 176.859375 320.492188 C 177.6875 319.71875 178.761719 319.34375 180.160156 319.34375 C 183.085938 319.34375 184.5625 320.816406 184.5625 323.71875 C 184.5625 325.015625 184.085938 326.042969 183.261719 326.816406 C 182.386719 327.566406 181.1875 327.992188 179.710938 327.992188 Z M 177.335938 327.992188 "/>
<path fill="none" stroke-width="0.99628" stroke-linecap="butt" stroke-linejoin="round" stroke="rgb(19.607843%, 19.607843%, 19.607843%)" stroke-opacity="1" stroke-miterlimit="10" d="M -109.825165 -28.933411 L 109.823273 -28.933411 L 109.823273 28.9328 L -109.825165 28.9328 Z M -109.825165 -28.933411 " transform="matrix(1.6, 0, 0, -1.6, 531.931201, 329.612793)"/>
<path fill="none" stroke-width="0.99628" stroke-linecap="butt" stroke-linejoin="round" stroke="rgb(19.607843%, 19.607843%, 19.607843%)" stroke-opacity="1" stroke-miterlimit="10" d="M -109.822716 -28.934174 L 109.825722 -28.934174 L 109.825722 28.934479 L -109.822716 28.934479 Z M -109.822716 -28.934174 " transform="matrix(1.6, 0, 0, -1.6, 180.497595, 422.193604)"/>
<path fill-rule="nonzero" fill="rgb(0%, 0%, 0%)" fill-opacity="1" d="M 186.085938 426.371094 L 186.085938 409.796875 L 182.734375 409.796875 L 171.5625 427.097656 L 171.5625 428.972656 L 182.9375 428.972656 L 182.9375 434.746094 L 186.085938 434.746094 L 186.085938 428.972656 L 189.5625 428.972656 L 189.5625 426.371094 Z M 175.160156 426.371094 L 182.5625 414.820312 L 182.9375 414.148438 L 182.9375 426.371094 Z M 175.160156 426.371094 "/>
<path fill="none" stroke-width="0.99628" stroke-linecap="butt" stroke-linejoin="round" stroke="rgb(19.607843%, 19.607843%, 19.607843%)" stroke-opacity="1" stroke-miterlimit="10" d="M -109.825165 -28.934174 L 109.823273 -28.934174 L 109.823273 28.934479 L -109.825165 28.934479 Z M -109.825165 -28.934174 " transform="matrix(1.6, 0, 0, -1.6, 531.931201, 422.193604)"/>
<path fill="none" stroke-width="0.99628" stroke-linecap="butt" stroke-linejoin="round" stroke="rgb(19.607843%, 19.607843%, 19.607843%)" stroke-opacity="1" stroke-miterlimit="10" d="M -109.822716 -28.930054 L 109.825722 -28.930054 L 109.825722 28.933716 L -109.822716 28.933716 Z M -109.822716 -28.930054 " transform="matrix(1.6, 0, 0, -1.6, 180.497595, 514.774414)"/>
<path fill-rule="nonzero" fill="rgb(0%, 0%, 0%)" fill-opacity="1" d="M 174.210938 514.679688 L 176.734375 515.304688 L 177.5625 514.628906 C 178.335938 514.027344 179.4375 513.730469 180.835938 513.730469 C 182.3125 513.730469 183.535156 514.253906 184.4375 515.230469 C 185.359375 516.253906 185.8125 517.578125 185.8125 519.230469 C 185.8125 521.003906 185.386719 522.429688 184.5625 523.402344 C 183.710938 524.429688 182.5625 524.902344 181.085938 524.902344 C 179.710938 524.902344 178.609375 524.554688 177.8125 523.828125 C 176.984375 523.128906 176.484375 522.027344 176.3125 520.605469 L 173.285156 520.605469 C 173.460938 522.777344 174.285156 524.453125 175.6875 525.679688 C 177.085938 526.902344 178.859375 527.503906 181.085938 527.503906 C 183.535156 527.503906 185.460938 526.777344 186.859375 525.304688 C 188.261719 523.828125 188.960938 521.777344 188.960938 519.203125 C 188.960938 516.679688 188.3125 514.628906 186.960938 513.128906 C 185.636719 511.652344 183.8125 510.878906 181.5625 510.878906 C 179.984375 510.878906 178.585938 511.230469 177.386719 511.929688 L 178.136719 505.152344 L 188.234375 505.152344 L 188.234375 502.203125 L 175.460938 502.203125 Z M 174.210938 514.679688 "/>
<path fill="none" stroke-width="0.99628" stroke-linecap="butt" stroke-linejoin="round" stroke="rgb(19.607843%, 19.607843%, 19.607843%)" stroke-opacity="1" stroke-miterlimit="10" d="M -109.825165 -28.930054 L 109.823273 -28.930054 L 109.823273 28.933716 L -109.825165 28.933716 Z M -109.825165 -28.930054 " transform="matrix(1.6, 0, 0, -1.6, 531.931201, 514.774414)"/>
<path fill="none" stroke-width="0.99628" stroke-linecap="butt" stroke-linejoin="round" stroke="rgb(19.607843%, 19.607843%, 19.607843%)" stroke-opacity="1" stroke-miterlimit="10" d="M -109.822716 -28.930847 L 109.825722 -28.930847 L 109.825722 28.932922 L -109.822716 28.932922 Z M -109.822716 -28.930847 " transform="matrix(1.6, 0, 0, -1.6, 180.497595, 607.355176)"/>
<path fill-rule="nonzero" fill="rgb(0%, 0%, 0%)" fill-opacity="1" d="M 185.1875 594.785156 L 184.585938 594.785156 C 180.734375 594.859375 177.8125 596.085938 175.859375 598.507812 C 173.886719 600.960938 172.910156 604.484375 172.910156 609.035156 L 172.910156 610.234375 C 172.910156 613.132812 173.636719 615.535156 175.109375 617.359375 C 176.585938 619.183594 178.5625 620.085938 180.9375 620.085938 C 183.285156 620.085938 185.1875 619.308594 186.585938 617.757812 C 187.984375 616.234375 188.6875 614.183594 188.6875 611.609375 C 188.6875 609.210938 188.011719 607.257812 186.734375 605.710938 C 185.4375 604.160156 183.710938 603.382812 181.535156 603.382812 C 179.261719 603.382812 177.460938 604.160156 176.160156 605.632812 C 176.386719 603.085938 177.210938 601.085938 178.6875 599.660156 C 180.160156 598.257812 182.136719 597.535156 184.585938 597.460938 L 185.1875 597.460938 Z M 181.011719 606.007812 C 182.386719 606.007812 183.460938 606.535156 184.3125 607.609375 C 185.109375 608.660156 185.535156 610.058594 185.535156 611.734375 C 185.535156 613.460938 185.109375 614.835938 184.3125 615.882812 C 183.460938 616.933594 182.335938 617.460938 180.9375 617.460938 C 179.535156 617.460938 178.386719 616.859375 177.460938 615.585938 C 176.5625 614.335938 176.085938 612.683594 176.085938 610.609375 L 176.085938 609.460938 C 176.4375 608.484375 177.085938 607.660156 177.984375 607.007812 C 178.910156 606.359375 179.910156 606.007812 181.011719 606.007812 Z M 181.011719 606.007812 "/>
<path fill="none" stroke-width="0.99628" stroke-linecap="butt" stroke-linejoin="round" stroke="rgb(19.607843%, 19.607843%, 19.607843%)" stroke-opacity="1" stroke-miterlimit="10" d="M -109.825165 -28.930847 L 109.823273 -28.930847 L 109.823273 28.932922 L -109.825165 28.932922 Z M -109.825165 -28.930847 " transform="matrix(1.6, 0, 0, -1.6, 531.931201, 607.355176)"/>
<path fill="none" stroke-width="0.99628" stroke-linecap="butt" stroke-linejoin="round" stroke="rgb(19.607843%, 19.607843%, 19.607843%)" stroke-opacity="1" stroke-miterlimit="10" d="M -109.822716 -28.93161 L 109.825722 -28.93161 L 109.825722 28.932159 L -109.822716 28.932159 Z M -109.822716 -28.93161 " transform="matrix(1.6, 0, 0, -1.6, 180.497595, 699.935986)"/>
<path fill-rule="nonzero" fill="rgb(0%, 0%, 0%)" fill-opacity="1" d="M 188.242188 689.339844 L 188.242188 687.539062 L 172.492188 687.539062 L 172.492188 690.140625 L 185.019531 690.140625 L 175.117188 712.488281 L 178.320312 712.488281 Z M 188.242188 689.339844 "/>
<path fill="none" stroke-width="0.99628" stroke-linecap="butt" stroke-linejoin="round" stroke="rgb(19.607843%, 19.607843%, 19.607843%)" stroke-opacity="1" stroke-miterlimit="10" d="M -109.825165 -28.93161 L 109.823273 -28.93161 L 109.823273 28.932159 L -109.825165 28.932159 Z M -109.825165 -28.93161 " transform="matrix(1.6, 0, 0, -1.6, 531.931201, 699.935986)"/>
<path fill="none" stroke-width="0.99628" stroke-linecap="butt" stroke-linejoin="round" stroke="rgb(19.607843%, 19.607843%, 19.607843%)" stroke-opacity="1" stroke-miterlimit="10" d="M -109.822716 -28.929932 L 109.825722 -28.929932 L 109.825722 28.931396 L -109.822716 28.931396 Z M -109.822716 -28.929932 " transform="matrix(1.6, 0, 0, -1.6, 180.497595, 792.516797)"/>
<path fill-rule="nonzero" fill="rgb(0%, 0%, 0%)" fill-opacity="1" d="M 187.835938 786.472656 C 187.835938 784.371094 187.136719 782.722656 185.8125 781.472656 C 184.484375 780.246094 182.6875 779.597656 180.511719 779.597656 C 178.3125 779.597656 176.511719 780.246094 175.1875 781.472656 C 173.8125 782.722656 173.160156 784.371094 173.160156 786.472656 C 173.160156 787.722656 173.460938 788.796875 174.085938 789.769531 C 174.734375 790.769531 175.609375 791.519531 176.734375 792.070312 C 175.4375 792.621094 174.410156 793.472656 173.6875 794.519531 C 172.9375 795.597656 172.585938 796.820312 172.585938 798.171875 C 172.585938 800.347656 173.285156 802.046875 174.734375 803.320312 C 176.160156 804.621094 178.085938 805.246094 180.511719 805.246094 C 182.859375 805.246094 184.761719 804.621094 186.234375 803.320312 C 187.710938 802.046875 188.4375 800.347656 188.4375 798.171875 C 188.4375 796.820312 188.0625 795.597656 187.285156 794.519531 C 186.511719 793.472656 185.484375 792.621094 184.210938 792.070312 C 185.3125 791.519531 186.210938 790.796875 186.859375 789.820312 C 187.484375 788.820312 187.835938 787.746094 187.835938 786.472656 Z M 185.285156 798.097656 C 185.285156 799.496094 184.835938 800.621094 183.984375 801.421875 C 183.136719 802.269531 181.984375 802.644531 180.511719 802.644531 C 179.011719 802.644531 177.859375 802.269531 177.011719 801.472656 C 176.160156 800.644531 175.734375 799.519531 175.734375 798.121094 C 175.734375 796.722656 176.160156 795.570312 177.035156 794.695312 C 177.886719 793.820312 179.035156 793.347656 180.484375 793.347656 C 181.886719 793.347656 183.035156 793.820312 183.960938 794.695312 C 184.835938 795.570312 185.285156 796.695312 185.285156 798.097656 Z M 180.511719 782.246094 C 181.710938 782.246094 182.734375 782.644531 183.484375 783.421875 C 184.261719 784.246094 184.6875 785.246094 184.6875 786.519531 C 184.6875 787.769531 184.3125 788.820312 183.535156 789.597656 C 182.761719 790.371094 181.785156 790.769531 180.511719 790.769531 C 179.261719 790.769531 178.234375 790.371094 177.460938 789.597656 C 176.6875 788.820312 176.335938 787.769531 176.335938 786.519531 C 176.335938 785.195312 176.734375 784.171875 177.511719 783.394531 C 178.261719 782.621094 179.261719 782.246094 180.511719 782.246094 Z M 180.511719 782.246094 "/>
<path fill="none" stroke-width="0.99628" stroke-linecap="butt" stroke-linejoin="round" stroke="rgb(19.607843%, 19.607843%, 19.607843%)" stroke-opacity="1" stroke-miterlimit="10" d="M -109.825165 -28.929932 L 109.823273 -28.929932 L 109.823273 28.931396 L -109.825165 28.931396 Z M -109.825165 -28.929932 " transform="matrix(1.6, 0, 0, -1.6, 531.931201, 792.516797)"/>
<path fill="none" stroke-width="0.99628" stroke-linecap="butt" stroke-linejoin="round" stroke="rgb(19.607843%, 19.607843%, 19.607843%)" stroke-opacity="1" stroke-miterlimit="10" d="M -109.822716 -28.930725 L 109.825722 -28.930725 L 109.825722 28.933044 L -109.822716 28.933044 Z M -109.822716 -28.930725 " transform="matrix(1.6, 0, 0, -1.6, 180.497595, 885.097559)"/>
<path fill-rule="nonzero" fill="rgb(0%, 0%, 0%)" fill-opacity="1" d="M 184.6875 886.703125 C 184.5625 889.578125 183.8125 891.652344 182.410156 892.953125 C 181.011719 894.277344 178.988281 894.953125 176.386719 894.976562 L 175.710938 894.976562 L 175.710938 897.652344 L 176.335938 897.652344 C 180.210938 897.628906 183.085938 896.503906 185.011719 894.253906 C 186.910156 892.054688 187.886719 888.503906 187.886719 883.628906 L 187.886719 882.679688 C 187.886719 879.527344 187.136719 877.003906 185.738281 875.128906 C 184.3125 873.304688 182.386719 872.351562 179.910156 872.351562 C 178.386719 872.351562 177.011719 872.753906 175.863281 873.453125 C 174.660156 874.152344 173.785156 875.179688 173.160156 876.503906 C 172.511719 877.828125 172.210938 879.351562 172.210938 881.003906 C 172.210938 882.578125 172.488281 884.003906 173.085938 885.277344 C 173.636719 886.578125 174.488281 887.554688 175.535156 888.253906 C 176.585938 888.953125 177.8125 889.304688 179.285156 889.304688 C 180.386719 889.304688 181.386719 889.101562 182.3125 888.601562 C 183.210938 888.152344 184.035156 887.527344 184.6875 886.703125 Z M 179.8125 886.703125 C 178.410156 886.703125 177.335938 886.179688 176.511719 885.054688 C 175.710938 883.976562 175.335938 882.578125 175.335938 880.851562 C 175.335938 879.101562 175.738281 877.703125 176.585938 876.601562 C 177.4375 875.554688 178.5625 875.003906 179.960938 875.003906 C 181.335938 875.003906 182.4375 875.652344 183.363281 876.953125 C 184.261719 878.304688 184.738281 879.976562 184.738281 882.054688 L 184.738281 883.304688 C 184.3125 884.277344 183.636719 885.101562 182.738281 885.726562 C 181.8125 886.402344 180.863281 886.703125 179.8125 886.703125 Z M 179.8125 886.703125 "/>
<path fill="none" stroke-width="0.99628" stroke-linecap="butt" stroke-linejoin="round" stroke="rgb(19.607843%, 19.607843%, 19.607843%)" stroke-opacity="1" stroke-miterlimit="10" d="M -109.825165 -28.930725 L 109.823273 -28.930725 L 109.823273 28.933044 L -109.825165 28.933044 Z M -109.825165 -28.930725 " transform="matrix(1.6, 0, 0, -1.6, 531.931201, 885.097559)"/>
<path fill="none" stroke-width="0.99628" stroke-linecap="butt" stroke-linejoin="round" stroke="rgb(19.607843%, 19.607843%, 19.607843%)" stroke-opacity="1" stroke-miterlimit="10" d="M -109.822716 -28.931458 L 109.825722 -28.931458 L 109.825722 28.932312 L -109.822716 28.932312 Z M -109.822716 -28.931458 " transform="matrix(1.6, 0, 0, -1.6, 180.497595, 977.678418)"/>
<path fill-rule="nonzero" fill="rgb(0%, 0%, 0%)" fill-opacity="1" d="M 173.75 990.058594 L 173.75 965.007812 L 173.25 965.007812 L 164.175781 968.40625 L 164.175781 971.28125 L 170.550781 968.933594 L 170.550781 990.058594 Z M 173.75 990.058594 "/>
<path fill-rule="nonzero" fill="rgb(0%, 0%, 0%)" fill-opacity="1" d="M 195.996094 979.433594 L 195.996094 975.332031 C 195.921875 971.757812 195.269531 969.082031 194.019531 967.359375 C 192.746094 965.65625 190.746094 964.757812 188.09375 964.757812 C 185.394531 964.757812 183.394531 965.683594 182.121094 967.433594 C 180.871094 969.234375 180.246094 971.957031 180.246094 975.609375 L 180.246094 979.859375 C 180.269531 983.359375 180.945312 986.03125 182.195312 987.78125 C 183.46875 989.53125 185.46875 990.40625 188.121094 990.40625 C 190.796875 990.40625 192.796875 989.53125 194.046875 987.707031 C 195.320312 985.90625 195.996094 983.15625 195.996094 979.433594 Z M 192.820312 975.082031 L 192.820312 980.28125 C 192.746094 982.90625 192.371094 984.832031 191.59375 986.03125 C 190.820312 987.207031 189.671875 987.808594 188.121094 987.808594 C 186.519531 987.808594 185.320312 987.183594 184.546875 985.882812 C 183.769531 984.632812 183.394531 982.632812 183.394531 979.933594 L 183.394531 974.832031 C 183.394531 972.308594 183.769531 970.457031 184.546875 969.234375 C 185.296875 968.03125 186.46875 967.40625 188.09375 967.40625 C 189.695312 967.40625 190.894531 968.03125 191.671875 969.234375 C 192.445312 970.457031 192.820312 972.40625 192.820312 975.082031 Z M 192.820312 975.082031 "/>
<path fill="none" stroke-width="0.99628" stroke-linecap="butt" stroke-linejoin="round" stroke="rgb(19.607843%, 19.607843%, 19.607843%)" stroke-opacity="1" stroke-miterlimit="10" d="M -109.825165 -28.931458 L 109.823273 -28.931458 L 109.823273 28.932312 L -109.825165 28.932312 Z M -109.825165 -28.931458 " transform="matrix(1.6, 0, 0, -1.6, 531.931201, 977.678418)"/>
</svg>
