<?xml version="1.0" encoding="UTF-8"?>
<svg xmlns="http://www.w3.org/2000/svg" xmlns:xlink="http://www.w3.org/1999/xlink" width="712.428809" height="824.275195" viewBox="0 0 712.428809 824.275195">
<path fill="none" stroke-width="1.99255" stroke-linecap="butt" stroke-linejoin="round" stroke="rgb(19.607843%, 19.607843%, 19.607843%)" stroke-opacity="1" stroke-miterlimit="10" d="M -109.822716 -23.148226 L 109.825722 -23.148226 L 109.825722 23.14572 L -109.822716 23.14572 Z M -109.822716 -23.148226 " transform="matrix(1.6, 0, 0, -1.6, 180.497595, 41.814401)"/>
<path fill-rule="nonzero" fill="rgb(0%, 0%, 0%)" fill-opacity="1" d="M 37.355469 32.75 L 32.703125 32.75 L 32.703125 51.273438 L 37.628906 51.273438 L 37.628906 38.199219 C 38.328125 37.023438 39.402344 36.449219 40.804688 36.449219 C 41.855469 36.449219 42.578125 36.671875 43.027344 37.148438 C 43.503906 37.625 43.730469 38.375 43.730469 39.421875 L 43.730469 51.273438 L 48.679688 51.273438 L 48.679688 39.324219 C 48.652344 37.023438 48.152344 35.324219 47.203125 34.148438 C 46.230469 33 44.804688 32.398438 42.828125 32.398438 C 40.578125 32.398438 38.828125 33.25 37.503906 34.898438 Z M 37.355469 32.75 "/>
<path fill-rule="nonzero" fill="rgb(0%, 0%, 0%)" fill-opacity="1" d="M 59.664062 24.675781 L 56.265625 29.976562 L 60.289062 29.976562 L 65.015625 24.675781 Z M 59.664062 24.675781 "/>
<path fill-rule="nonzero" fill="rgb(0%, 0%, 0%)" fill-opacity="1" d="M 63.566406 49.375 L 63.691406 51.273438 L 68.316406 51.273438 L 68.316406 32.75 L 63.367188 32.75 L 63.367188 45.875 C 62.742188 47.074219 61.59375 47.625 59.917969 47.625 C 58.140625 47.625 57.265625 46.671875 57.265625 44.722656 L 57.265625 32.75 L 52.34375 32.75 L 52.34375 44.898438 C 52.34375 47.097656 52.867188 48.773438 53.917969 49.898438 C 54.96875 51.074219 56.46875 51.625 58.46875 51.625 C 60.640625 51.625 62.316406 50.847656 63.566406 49.375 Z M 63.566406 49.375 "/>
<path fill-rule="nonzero" fill="rgb(0%, 0%, 0%)" fill-opacity="1" d="M 76.695312 32.75 L 72.046875 32.75 L 72.046875 51.273438 L 76.996094 51.273438 L 76.996094 38.148438 C 77.621094 37.023438 78.644531 36.449219 80.046875 36.449219 C 81.046875 36.449219 81.796875 36.671875 82.21875 37.171875 C 82.621094 37.671875 82.84375 38.449219 82.84375 39.5 L 82.84375 51.273438 L 87.796875 51.273438 L 87.746094 38.546875 C 88.320312 37.148438 89.371094 36.449219 90.84375 36.449219 C 91.894531 36.449219 92.59375 36.671875 93.019531 37.171875 C 93.445312 37.671875 93.644531 38.398438 93.644531 39.449219 L 93.644531 51.273438 L 98.621094 51.273438 L 98.621094 39.449219 C 98.621094 37.097656 98.144531 35.347656 97.144531 34.148438 C 96.171875 33 94.671875 32.398438 92.671875 32.398438 C 90.246094 32.398438 88.394531 33.324219 87.09375 35.199219 C 86.171875 33.347656 84.570312 32.398438 82.171875 32.398438 C 79.921875 32.398438 78.144531 33.199219 76.84375 34.824219 Z M 76.695312 32.75 "/>
<path fill-rule="nonzero" fill="rgb(0%, 0%, 0%)" fill-opacity="1" d="M 110.90625 51.625 C 112.429688 51.625 113.855469 51.347656 115.105469 50.75 C 116.378906 50.199219 117.355469 49.347656 118.128906 48.296875 L 115.703125 45.546875 C 114.65625 46.949219 113.128906 47.625 111.253906 47.625 C 109.980469 47.625 108.980469 47.273438 108.15625 46.546875 C 107.355469 45.847656 106.855469 44.847656 106.730469 43.625 L 118.554688 43.625 L 118.554688 41.597656 C 118.554688 38.671875 117.804688 36.449219 116.328125 34.824219 C 114.855469 33.199219 112.90625 32.398438 110.378906 32.398438 C 108.65625 32.398438 107.15625 32.824219 105.855469 33.597656 C 104.503906 34.398438 103.503906 35.523438 102.804688 37 C 102.054688 38.472656 101.703125 40.125 101.703125 41.972656 L 101.703125 42.472656 C 101.703125 45.25 102.554688 47.449219 104.28125 49.125 C 105.953125 50.824219 108.15625 51.625 110.90625 51.625 Z M 110.328125 36.398438 C 111.378906 36.398438 112.203125 36.722656 112.753906 37.324219 C 113.304688 37.898438 113.628906 38.75 113.679688 39.847656 L 113.679688 40.25 L 106.804688 40.25 C 106.929688 39.023438 107.328125 38.074219 107.953125 37.421875 C 108.554688 36.75 109.355469 36.398438 110.328125 36.398438 Z M 110.328125 36.398438 "/>
<path fill-rule="nonzero" fill="rgb(0%, 0%, 0%)" fill-opacity="1" d="M 131.71875 37.375 L 131.792969 32.625 C 131.316406 32.472656 130.792969 32.398438 130.265625 32.398438 C 128.46875 32.398438 127.09375 33.273438 126.117188 34.972656 L 126.015625 32.75 L 121.316406 32.75 L 121.316406 51.273438 L 126.265625 51.273438 L 126.265625 39.148438 C 126.816406 37.875 128.042969 37.25 129.941406 37.25 C 130.441406 37.25 131.015625 37.324219 131.71875 37.375 Z M 131.71875 37.375 "/>
<path fill-rule="nonzero" fill="rgb(0%, 0%, 0%)" fill-opacity="1" d="M 132.675781 41.847656 L 132.675781 42.046875 C 132.675781 45 133.449219 47.347656 135.050781 49.074219 C 136.625 50.773438 138.777344 51.625 141.449219 51.625 C 144.101562 51.625 146.25 50.773438 147.851562 49.074219 C 149.449219 47.347656 150.25 45.074219 150.25 42.199219 L 150.199219 40.921875 C 150 38.324219 149.125 36.273438 147.550781 34.722656 C 145.976562 33.171875 143.925781 32.398438 141.449219 32.398438 C 139.675781 32.398438 138.152344 32.824219 136.800781 33.597656 C 135.476562 34.375 134.425781 35.5 133.726562 36.921875 C 133.027344 38.375 132.675781 40.023438 132.675781 41.847656 Z M 137.625 42.199219 C 137.625 40.222656 137.925781 38.796875 138.601562 37.847656 C 139.277344 36.898438 140.226562 36.398438 141.449219 36.398438 C 142.625 36.398438 143.574219 36.898438 144.277344 37.847656 C 144.949219 38.796875 145.300781 40.125 145.300781 41.847656 C 145.300781 43.875 144.949219 45.347656 144.277344 46.25 C 143.574219 47.171875 142.675781 47.625 141.476562 47.625 C 140.226562 47.625 139.277344 47.171875 138.601562 46.222656 C 137.925781 45.296875 137.625 43.949219 137.625 42.199219 Z M 137.625 42.199219 "/>
<path fill-rule="nonzero" fill="rgb(0%, 0%, 0%)" fill-opacity="1" d="M 164.167969 41.875 C 164.167969 44.949219 164.792969 47.347656 166.117188 49.074219 C 167.46875 50.773438 169.21875 51.625 171.390625 51.625 C 173.316406 51.625 174.890625 50.847656 176.167969 49.296875 L 176.417969 51.273438 L 180.867188 51.273438 L 180.867188 24.972656 L 175.917969 24.972656 L 175.917969 34.449219 C 174.71875 33.097656 173.21875 32.398438 171.417969 32.398438 C 169.191406 32.398438 167.390625 33.273438 166.09375 34.972656 C 164.792969 36.671875 164.167969 39 164.167969 41.875 Z M 169.117188 42.222656 C 169.117188 38.375 170.292969 36.449219 172.691406 36.449219 C 174.242188 36.449219 175.292969 37.097656 175.917969 38.375 L 175.917969 45.671875 C 175.242188 47 174.167969 47.625 172.640625 47.625 C 171.492188 47.625 170.617188 47.171875 170.015625 46.222656 C 169.390625 45.296875 169.117188 43.972656 169.117188 42.222656 Z M 169.117188 42.222656 "/>
<path fill-rule="nonzero" fill="rgb(0%, 0%, 0%)" fill-opacity="1" d="M 193.210938 51.625 C 194.734375 51.625 196.160156 51.347656 197.410156 50.75 C 198.6875 50.199219 199.660156 49.347656 200.4375 48.296875 L 198.011719 45.546875 C 196.960938 46.949219 195.4375 47.625 193.5625 47.625 C 192.285156 47.625 191.285156 47.273438 190.460938 46.546875 C 189.660156 45.847656 189.160156 44.847656 189.035156 43.625 L 200.859375 43.625 L 200.859375 41.597656 C 200.859375 38.671875 200.109375 36.449219 198.636719 34.824219 C 197.160156 33.199219 195.210938 32.398438 192.6875 32.398438 C 190.960938 32.398438 189.460938 32.824219 188.160156 33.597656 C 186.8125 34.398438 185.8125 35.523438 185.109375 37 C 184.359375 38.472656 184.011719 40.125 184.011719 41.972656 L 184.011719 42.472656 C 184.011719 45.25 184.859375 47.449219 186.585938 49.125 C 188.261719 50.824219 190.460938 51.625 193.210938 51.625 Z M 192.636719 36.398438 C 193.6875 36.398438 194.511719 36.722656 195.0625 37.324219 C 195.609375 37.898438 195.9375 38.75 195.984375 39.847656 L 195.984375 40.25 L 189.109375 40.25 C 189.234375 39.023438 189.636719 38.074219 190.261719 37.421875 C 190.859375 36.75 191.660156 36.398438 192.636719 36.398438 Z M 192.636719 36.398438 "/>
<path fill-rule="nonzero" fill="rgb(0%, 0%, 0%)" fill-opacity="1" d="M 214.558594 41.847656 L 214.558594 42.046875 C 214.558594 45 215.335938 47.347656 216.933594 49.074219 C 218.511719 50.773438 220.660156 51.625 223.335938 51.625 C 225.984375 51.625 228.136719 50.773438 229.734375 49.074219 C 231.335938 47.347656 232.136719 45.074219 232.136719 42.199219 L 232.085938 40.921875 C 231.886719 38.324219 231.011719 36.273438 229.433594 34.722656 C 227.859375 33.171875 225.808594 32.398438 223.335938 32.398438 C 221.558594 32.398438 220.035156 32.824219 218.683594 33.597656 C 217.359375 34.375 216.308594 35.5 215.609375 36.921875 C 214.910156 38.375 214.558594 40.023438 214.558594 41.847656 Z M 219.511719 42.199219 C 219.511719 40.222656 219.808594 38.796875 220.484375 37.847656 C 221.160156 36.898438 222.109375 36.398438 223.335938 36.398438 C 224.511719 36.398438 225.460938 36.898438 226.160156 37.847656 C 226.835938 38.796875 227.183594 40.125 227.183594 41.847656 C 227.183594 43.875 226.835938 45.347656 226.160156 46.25 C 225.460938 47.171875 224.558594 47.625 223.359375 47.625 C 222.109375 47.625 221.160156 47.171875 220.484375 46.222656 C 219.808594 45.296875 219.511719 43.949219 219.511719 42.199219 Z M 219.511719 42.199219 "/>
<path fill-rule="nonzero" fill="rgb(0%, 0%, 0%)" fill-opacity="1" d="M 251.847656 42.199219 L 251.847656 41.898438 C 251.847656 38.898438 251.175781 36.574219 249.898438 34.898438 C 248.648438 33.25 246.847656 32.398438 244.625 32.398438 C 242.722656 32.398438 241.199219 33.074219 240.097656 34.398438 L 240.097656 24.972656 L 235.148438 24.972656 L 235.148438 51.273438 L 239.597656 51.273438 L 239.847656 49.296875 C 241.023438 50.847656 242.648438 51.625 244.648438 51.625 C 246.898438 51.625 248.675781 50.824219 249.949219 49.125 C 251.199219 47.472656 251.847656 45.171875 251.847656 42.199219 Z M 246.898438 41.796875 C 246.898438 43.347656 246.75 44.5 246.550781 45.273438 C 246.023438 46.847656 244.972656 47.625 243.375 47.625 C 241.773438 47.625 240.675781 47 240.097656 45.671875 L 240.097656 38.375 C 240.675781 37.097656 241.773438 36.449219 243.347656 36.449219 C 244.5 36.449219 245.375 36.898438 245.972656 37.722656 C 246.574219 38.574219 246.898438 39.949219 246.898438 41.796875 Z M 246.898438 41.796875 "/>
<path fill-rule="nonzero" fill="rgb(0%, 0%, 0%)" fill-opacity="1" d="M 260.109375 32.75 L 255.132812 32.75 L 255.132812 52.324219 C 255.132812 53.949219 254.359375 54.699219 252.882812 54.699219 C 252.433594 54.699219 251.90625 54.648438 251.332031 54.523438 L 251.332031 58.472656 C 252.082031 58.671875 252.882812 58.75 253.757812 58.75 C 255.808594 58.75 257.382812 58.171875 258.457031 57.046875 C 259.558594 55.949219 260.109375 54.324219 260.109375 52.296875 Z M 254.757812 27.949219 C 254.757812 28.722656 254.984375 29.324219 255.484375 29.796875 C 255.984375 30.296875 256.683594 30.5 257.507812 30.5 C 258.359375 30.5 259.03125 30.296875 259.507812 29.796875 C 260.007812 29.324219 260.28125 28.722656 260.28125 27.949219 C 260.28125 27.222656 260.03125 26.625 259.558594 26.125 C 259.058594 25.625 258.359375 25.398438 257.507812 25.398438 C 256.632812 25.398438 255.984375 25.625 255.484375 26.125 C 254.984375 26.625 254.757812 27.222656 254.757812 27.949219 Z M 254.757812 27.949219 "/>
<path fill-rule="nonzero" fill="rgb(0%, 0%, 0%)" fill-opacity="1" d="M 272.464844 51.625 C 273.992188 51.625 275.414062 51.347656 276.664062 50.75 C 277.941406 50.199219 278.914062 49.347656 279.691406 48.296875 L 277.265625 45.546875 C 276.214844 46.949219 274.691406 47.625 272.816406 47.625 C 271.539062 47.625 270.539062 47.273438 269.714844 46.546875 C 268.914062 45.847656 268.414062 44.847656 268.289062 43.625 L 280.117188 43.625 L 280.117188 41.597656 C 280.117188 38.671875 279.367188 36.449219 277.890625 34.824219 C 276.414062 33.199219 274.464844 32.398438 271.941406 32.398438 C 270.214844 32.398438 268.714844 32.824219 267.414062 33.597656 C 266.066406 34.398438 265.066406 35.523438 264.367188 37 C 263.617188 38.472656 263.265625 40.125 263.265625 41.972656 L 263.265625 42.472656 C 263.265625 45.25 264.117188 47.449219 265.839844 49.125 C 267.515625 50.824219 269.714844 51.625 272.464844 51.625 Z M 271.890625 36.398438 C 272.941406 36.398438 273.765625 36.722656 274.316406 37.324219 C 274.867188 37.898438 275.191406 38.75 275.242188 39.847656 L 275.242188 40.25 L 268.367188 40.25 C 268.492188 39.023438 268.890625 38.074219 269.515625 37.421875 C 270.117188 36.75 270.914062 36.398438 271.890625 36.398438 Z M 271.890625 36.398438 "/>
<path fill-rule="nonzero" fill="rgb(0%, 0%, 0%)" fill-opacity="1" d="M 288.800781 28.199219 L 283.851562 28.199219 L 283.851562 32.75 L 281.152344 32.75 L 281.152344 36.375 L 283.851562 36.375 L 283.851562 46.375 C 283.925781 49.875 285.675781 51.625 289.152344 51.625 C 290.175781 51.625 291.175781 51.472656 292.175781 51.171875 L 292.175781 47.421875 C 291.703125 47.523438 291.226562 47.546875 290.703125 47.546875 C 289.953125 47.546875 289.476562 47.421875 289.175781 47.097656 C 288.902344 46.824219 288.800781 46.324219 288.800781 45.625 L 288.800781 36.375 L 291.953125 36.375 L 291.953125 32.75 L 288.800781 32.75 Z M 288.800781 28.199219 "/>
<path fill-rule="nonzero" fill="rgb(0%, 0%, 0%)" fill-opacity="1" d="M 293.394531 41.847656 L 293.394531 42.046875 C 293.394531 45 294.167969 47.347656 295.769531 49.074219 C 297.34375 50.773438 299.496094 51.625 302.167969 51.625 C 304.820312 51.625 306.96875 50.773438 308.570312 49.074219 C 310.167969 47.347656 310.96875 45.074219 310.96875 42.199219 L 310.917969 40.921875 C 310.71875 38.324219 309.84375 36.273438 308.269531 34.722656 C 306.695312 33.171875 304.644531 32.398438 302.167969 32.398438 C 300.394531 32.398438 298.871094 32.824219 297.519531 33.597656 C 296.195312 34.375 295.144531 35.5 294.445312 36.921875 C 293.746094 38.375 293.394531 40.023438 293.394531 41.847656 Z M 298.34375 42.199219 C 298.34375 40.222656 298.644531 38.796875 299.320312 37.847656 C 299.996094 36.898438 300.945312 36.398438 302.167969 36.398438 C 303.34375 36.398438 304.292969 36.898438 304.996094 37.847656 C 305.667969 38.796875 306.019531 40.125 306.019531 41.847656 C 306.019531 43.875 305.667969 45.347656 304.996094 46.25 C 304.292969 47.171875 303.394531 47.625 302.195312 47.625 C 300.945312 47.625 299.996094 47.171875 299.320312 46.222656 C 298.644531 45.296875 298.34375 43.949219 298.34375 42.199219 Z M 298.34375 42.199219 "/>
<path fill-rule="nonzero" fill="rgb(0%, 0%, 0%)" fill-opacity="1" d="M 324.007812 46.148438 C 324.007812 46.75 323.757812 47.25 323.28125 47.597656 C 322.78125 47.949219 322.082031 48.125 321.132812 48.125 C 320.109375 48.125 319.308594 47.898438 318.707031 47.421875 C 318.082031 46.949219 317.757812 46.296875 317.734375 45.375 L 313.03125 45.375 C 313.03125 46.5 313.359375 47.546875 314.058594 48.5 C 314.757812 49.472656 315.707031 50.222656 316.882812 50.773438 C 318.082031 51.347656 319.484375 51.625 321.03125 51.625 C 323.332031 51.625 325.207031 51.097656 326.683594 50.046875 C 328.109375 49 328.859375 47.625 328.859375 45.949219 C 328.859375 43.597656 327.507812 41.949219 324.90625 40.972656 C 324.082031 40.671875 323.03125 40.398438 321.808594 40.148438 C 320.53125 39.898438 319.65625 39.625 319.15625 39.273438 C 318.632812 38.921875 318.40625 38.5 318.40625 37.949219 C 318.40625 37.375 318.609375 36.898438 319.058594 36.5 C 319.484375 36.125 320.15625 35.898438 320.984375 35.898438 C 321.984375 35.898438 322.683594 36.148438 323.132812 36.625 C 323.582031 37.097656 323.832031 37.671875 323.832031 38.375 L 328.78125 38.375 C 328.78125 36.625 328.082031 35.199219 326.683594 34.097656 C 325.28125 32.972656 323.382812 32.398438 321.03125 32.398438 C 318.808594 32.398438 317.03125 32.972656 315.65625 34.046875 C 314.28125 35.171875 313.632812 36.546875 313.632812 38.148438 C 313.632812 41 315.808594 42.898438 320.207031 43.796875 C 321.558594 44.074219 322.507812 44.375 323.109375 44.722656 C 323.683594 45.074219 324.007812 45.546875 324.007812 46.148438 Z M 324.007812 46.148438 "/>
<path fill="none" stroke-width="1.99255" stroke-linecap="butt" stroke-linejoin="round" stroke="rgb(19.607843%, 19.607843%, 19.607843%)" stroke-opacity="1" stroke-miterlimit="10" d="M -109.825165 -23.148226 L 109.823273 -23.148226 L 109.823273 23.14572 L -109.825165 23.14572 Z M -109.825165 -23.148226 " transform="matrix(1.6, 0, 0, -1.6, 531.931201, 41.814401)"/>
<path fill-rule="nonzero" fill="rgb(0%, 0%, 0%)" fill-opacity="1" d="M 384.203125 36.175781 L 379.554688 36.175781 L 379.554688 54.703125 L 384.480469 54.703125 L 384.480469 41.628906 C 385.179688 40.453125 386.253906 39.878906 387.652344 39.878906 C 388.703125 39.878906 389.429688 40.101562 389.878906 40.578125 C 390.355469 41.050781 390.578125 41.800781 390.578125 42.851562 L 390.578125 54.703125 L 395.527344 54.703125 L 395.527344 42.753906 C 395.503906 40.453125 395.003906 38.753906 394.054688 37.578125 C 393.078125 36.425781 391.652344 35.828125 389.679688 35.828125 C 387.429688 35.828125 385.679688 36.675781 384.355469 38.328125 Z M 384.203125 36.175781 "/>
<path fill-rule="nonzero" fill="rgb(0%, 0%, 0%)" fill-opacity="1" d="M 398.515625 45.277344 L 398.515625 45.476562 C 398.515625 48.425781 399.292969 50.777344 400.890625 52.503906 C 402.46875 54.203125 404.617188 55.050781 407.292969 55.050781 C 409.941406 55.050781 412.09375 54.203125 413.691406 52.503906 C 415.292969 50.777344 416.09375 48.503906 416.09375 45.628906 L 416.042969 44.351562 C 415.84375 41.753906 414.96875 39.703125 413.390625 38.152344 C 411.816406 36.601562 409.765625 35.828125 407.292969 35.828125 C 405.515625 35.828125 403.992188 36.253906 402.640625 37.027344 C 401.316406 37.800781 400.265625 38.925781 399.566406 40.351562 C 398.867188 41.800781 398.515625 43.453125 398.515625 45.277344 Z M 403.46875 45.628906 C 403.46875 43.652344 403.765625 42.226562 404.441406 41.277344 C 405.117188 40.328125 406.066406 39.828125 407.292969 39.828125 C 408.46875 39.828125 409.417969 40.328125 410.117188 41.277344 C 410.792969 42.226562 411.140625 43.550781 411.140625 45.277344 C 411.140625 47.300781 410.792969 48.777344 410.117188 49.675781 C 409.417969 50.601562 408.515625 51.050781 407.316406 51.050781 C 406.066406 51.050781 405.117188 50.601562 404.441406 49.652344 C 403.765625 48.726562 403.46875 47.378906 403.46875 45.628906 Z M 403.46875 45.628906 "/>
<path fill-rule="nonzero" fill="rgb(0%, 0%, 0%)" fill-opacity="1" d="M 423.753906 36.175781 L 419.105469 36.175781 L 419.105469 54.703125 L 424.054688 54.703125 L 424.054688 41.578125 C 424.679688 40.453125 425.707031 39.878906 427.105469 39.878906 C 428.105469 39.878906 428.855469 40.101562 429.28125 40.601562 C 429.679688 41.101562 429.90625 41.878906 429.90625 42.925781 L 429.90625 54.703125 L 434.855469 54.703125 L 434.804688 41.976562 C 435.378906 40.578125 436.429688 39.878906 437.90625 39.878906 C 438.957031 39.878906 439.65625 40.101562 440.082031 40.601562 C 440.503906 41.101562 440.707031 41.828125 440.707031 42.878906 L 440.707031 54.703125 L 445.679688 54.703125 L 445.679688 42.878906 C 445.679688 40.527344 445.207031 38.777344 444.207031 37.578125 C 443.230469 36.425781 441.730469 35.828125 439.730469 35.828125 C 437.304688 35.828125 435.457031 36.753906 434.15625 38.628906 C 433.230469 36.777344 431.628906 35.828125 429.230469 35.828125 C 426.980469 35.828125 425.207031 36.628906 423.90625 38.253906 Z M 423.753906 36.175781 "/>
<path fill-rule="nonzero" fill="rgb(0%, 0%, 0%)" fill-opacity="1" d="M 466.140625 45.628906 L 466.140625 45.328125 C 466.140625 42.328125 465.464844 40.003906 464.191406 38.328125 C 462.941406 36.675781 461.140625 35.828125 458.914062 35.828125 C 457.015625 35.828125 455.488281 36.503906 454.390625 37.828125 L 454.390625 28.402344 L 449.441406 28.402344 L 449.441406 54.703125 L 453.890625 54.703125 L 454.140625 52.726562 C 455.316406 54.277344 456.941406 55.050781 458.941406 55.050781 C 461.191406 55.050781 462.964844 54.253906 464.238281 52.550781 C 465.488281 50.902344 466.140625 48.601562 466.140625 45.628906 Z M 461.191406 45.226562 C 461.191406 46.777344 461.039062 47.925781 460.839844 48.703125 C 460.316406 50.277344 459.265625 51.050781 457.664062 51.050781 C 456.066406 51.050781 454.964844 50.425781 454.390625 49.101562 L 454.390625 41.800781 C 454.964844 40.527344 456.066406 39.878906 457.640625 39.878906 C 458.789062 39.878906 459.664062 40.328125 460.265625 41.152344 C 460.863281 42.003906 461.191406 43.378906 461.191406 45.226562 Z M 461.191406 45.226562 "/>
<path fill-rule="nonzero" fill="rgb(0%, 0%, 0%)" fill-opacity="1" d="M 479.546875 40.800781 L 479.625 36.050781 C 479.148438 35.902344 478.625 35.828125 478.097656 35.828125 C 476.296875 35.828125 474.921875 36.703125 473.949219 38.402344 L 473.847656 36.175781 L 469.148438 36.175781 L 469.148438 54.703125 L 474.097656 54.703125 L 474.097656 42.578125 C 474.648438 41.300781 475.875 40.675781 477.773438 40.675781 C 478.273438 40.675781 478.847656 40.753906 479.546875 40.800781 Z M 479.546875 40.800781 "/>
<path fill-rule="nonzero" fill="rgb(0%, 0%, 0%)" fill-opacity="1" d="M 490.121094 55.050781 C 491.648438 55.050781 493.074219 54.777344 494.324219 54.175781 C 495.597656 53.628906 496.574219 52.777344 497.347656 51.726562 L 494.921875 48.976562 C 493.871094 50.378906 492.347656 51.050781 490.472656 51.050781 C 489.199219 51.050781 488.199219 50.703125 487.371094 49.976562 C 486.574219 49.277344 486.074219 48.277344 485.949219 47.050781 L 497.773438 47.050781 L 497.773438 45.027344 C 497.773438 42.101562 497.023438 39.878906 495.546875 38.253906 C 494.074219 36.628906 492.121094 35.828125 489.597656 35.828125 C 487.871094 35.828125 486.371094 36.253906 485.074219 37.027344 C 483.722656 37.828125 482.722656 38.953125 482.023438 40.425781 C 481.273438 41.902344 480.921875 43.550781 480.921875 45.402344 L 480.921875 45.902344 C 480.921875 48.675781 481.773438 50.878906 483.496094 52.550781 C 485.171875 54.253906 487.371094 55.050781 490.121094 55.050781 Z M 489.546875 39.828125 C 490.597656 39.828125 491.421875 40.152344 491.972656 40.753906 C 492.523438 41.328125 492.847656 42.175781 492.898438 43.277344 L 492.898438 43.675781 L 486.023438 43.675781 C 486.148438 42.453125 486.546875 41.503906 487.171875 40.851562 C 487.773438 40.175781 488.574219 39.828125 489.546875 39.828125 Z M 489.546875 39.828125 "/>
<path fill-rule="nonzero" fill="rgb(0%, 0%, 0%)" fill-opacity="1" d="M 511.4375 45.300781 C 511.4375 48.378906 512.0625 50.777344 513.386719 52.503906 C 514.738281 54.203125 516.488281 55.050781 518.664062 55.050781 C 520.585938 55.050781 522.164062 54.277344 523.4375 52.726562 L 523.6875 54.703125 L 528.136719 54.703125 L 528.136719 28.402344 L 523.1875 28.402344 L 523.1875 37.878906 C 521.988281 36.527344 520.488281 35.828125 518.6875 35.828125 C 516.460938 35.828125 514.664062 36.703125 513.363281 38.402344 C 512.0625 40.101562 511.4375 42.425781 511.4375 45.300781 Z M 516.386719 45.652344 C 516.386719 41.800781 517.5625 39.878906 519.960938 39.878906 C 521.511719 39.878906 522.5625 40.527344 523.1875 41.800781 L 523.1875 49.101562 C 522.511719 50.425781 521.4375 51.050781 519.914062 51.050781 C 518.761719 51.050781 517.886719 50.601562 517.289062 49.652344 C 516.664062 48.726562 516.386719 47.402344 516.386719 45.652344 Z M 516.386719 45.652344 "/>
<path fill-rule="nonzero" fill="rgb(0%, 0%, 0%)" fill-opacity="1" d="M 540.480469 55.050781 C 542.007812 55.050781 543.429688 54.777344 544.679688 54.175781 C 545.957031 53.628906 546.929688 52.777344 547.707031 51.726562 L 545.28125 48.976562 C 544.230469 50.378906 542.707031 51.050781 540.832031 51.050781 C 539.554688 51.050781 538.554688 50.703125 537.730469 49.976562 C 536.929688 49.277344 536.429688 48.277344 536.304688 47.050781 L 548.132812 47.050781 L 548.132812 45.027344 C 548.132812 42.101562 547.382812 39.878906 545.90625 38.253906 C 544.429688 36.628906 542.480469 35.828125 539.957031 35.828125 C 538.230469 35.828125 536.730469 36.253906 535.429688 37.027344 C 534.082031 37.828125 533.082031 38.953125 532.382812 40.425781 C 531.632812 41.902344 531.28125 43.550781 531.28125 45.402344 L 531.28125 45.902344 C 531.28125 48.675781 532.132812 50.878906 533.855469 52.550781 C 535.53125 54.253906 537.730469 55.050781 540.480469 55.050781 Z M 539.90625 39.828125 C 540.957031 39.828125 541.78125 40.152344 542.332031 40.753906 C 542.882812 41.328125 543.207031 42.175781 543.257812 43.277344 L 543.257812 43.675781 L 536.382812 43.675781 C 536.507812 42.453125 536.90625 41.503906 537.53125 40.851562 C 538.132812 40.175781 538.929688 39.828125 539.90625 39.828125 Z M 539.90625 39.828125 "/>
<path fill-rule="nonzero" fill="rgb(0%, 0%, 0%)" fill-opacity="1" d="M 567.832031 54.703125 L 567.832031 28.402344 L 562.878906 28.402344 L 562.878906 54.703125 Z M 567.832031 54.703125 "/>
<path fill-rule="nonzero" fill="rgb(0%, 0%, 0%)" fill-opacity="1" d="M 582.625 54.703125 L 587.648438 54.703125 L 587.648438 54.425781 C 587.148438 53.503906 586.898438 52.175781 586.898438 50.425781 L 586.898438 42.402344 C 586.898438 40.328125 586.25 38.703125 584.898438 37.550781 C 583.574219 36.425781 581.75 35.828125 579.472656 35.828125 C 577.925781 35.828125 576.550781 36.101562 575.375 36.601562 C 574.175781 37.128906 573.222656 37.828125 572.550781 38.753906 C 571.898438 39.652344 571.574219 40.675781 571.574219 41.726562 L 576.523438 41.726562 C 576.523438 41.050781 576.722656 40.527344 577.222656 40.101562 C 577.675781 39.703125 578.347656 39.476562 579.199219 39.476562 C 580.125 39.476562 580.847656 39.753906 581.25 40.253906 C 581.675781 40.777344 581.925781 41.476562 581.925781 42.328125 L 581.925781 43.378906 L 579.648438 43.378906 C 576.898438 43.402344 574.800781 43.925781 573.324219 44.976562 C 571.847656 46.027344 571.148438 47.550781 571.148438 49.503906 C 571.148438 51.128906 571.75 52.425781 572.949219 53.476562 C 574.148438 54.527344 575.648438 55.050781 577.472656 55.050781 C 579.375 55.050781 580.949219 54.378906 582.125 53.050781 C 582.199219 53.726562 582.375 54.277344 582.625 54.703125 Z M 578.550781 51.277344 C 577.773438 51.277344 577.199219 51.078125 576.773438 50.675781 C 576.324219 50.253906 576.097656 49.753906 576.097656 49.128906 L 576.148438 48.851562 C 576.273438 47.152344 577.597656 46.277344 580.097656 46.277344 L 581.925781 46.277344 L 581.925781 49.476562 C 581.648438 50.027344 581.199219 50.453125 580.550781 50.777344 C 579.925781 51.128906 579.25 51.277344 578.550781 51.277344 Z M 578.550781 51.277344 "/>
<path fill-rule="nonzero" fill="rgb(0%, 0%, 0%)" fill-opacity="1" d="M 619.074219 45.628906 L 619.074219 45.328125 C 619.074219 42.328125 618.398438 40.003906 617.125 38.328125 C 615.875 36.675781 614.074219 35.828125 611.847656 35.828125 C 609.949219 35.828125 608.421875 36.503906 607.324219 37.828125 L 607.324219 28.402344 L 602.375 28.402344 L 602.375 54.703125 L 606.824219 54.703125 L 607.074219 52.726562 C 608.25 54.277344 609.875 55.050781 611.875 55.050781 C 614.125 55.050781 615.898438 54.253906 617.171875 52.550781 C 618.421875 50.902344 619.074219 48.601562 619.074219 45.628906 Z M 614.125 45.226562 C 614.125 46.777344 613.972656 47.925781 613.773438 48.703125 C 613.25 50.277344 612.199219 51.050781 610.597656 51.050781 C 609 51.050781 607.898438 50.425781 607.324219 49.101562 L 607.324219 41.800781 C 607.898438 40.527344 609 39.878906 610.574219 39.878906 C 611.722656 39.878906 612.597656 40.328125 613.199219 41.152344 C 613.796875 42.003906 614.125 43.378906 614.125 45.226562 Z M 614.125 45.226562 "/>
<path fill-rule="nonzero" fill="rgb(0%, 0%, 0%)" fill-opacity="1" d="M 621.308594 45.277344 L 621.308594 45.476562 C 621.308594 48.425781 622.082031 50.777344 623.683594 52.503906 C 625.257812 54.203125 627.40625 55.050781 630.082031 55.050781 C 632.730469 55.050781 634.882812 54.203125 636.480469 52.503906 C 638.082031 50.777344 638.882812 48.503906 638.882812 45.628906 L 638.832031 44.351562 C 638.632812 41.753906 637.757812 39.703125 636.183594 38.152344 C 634.605469 36.601562 632.558594 35.828125 630.082031 35.828125 C 628.308594 35.828125 626.78125 36.253906 625.433594 37.027344 C 624.105469 37.800781 623.058594 38.925781 622.355469 40.351562 C 621.65625 41.800781 621.308594 43.453125 621.308594 45.277344 Z M 626.257812 45.628906 C 626.257812 43.652344 626.558594 42.226562 627.230469 41.277344 C 627.90625 40.328125 628.855469 39.828125 630.082031 39.828125 C 631.257812 39.828125 632.207031 40.328125 632.90625 41.277344 C 633.582031 42.226562 633.933594 43.550781 633.933594 45.277344 C 633.933594 47.300781 633.582031 48.777344 632.90625 49.675781 C 632.207031 50.601562 631.308594 51.050781 630.105469 51.050781 C 628.855469 51.050781 627.90625 50.601562 627.230469 49.652344 C 626.558594 48.726562 626.257812 47.378906 626.257812 45.628906 Z M 626.257812 45.628906 "/>
<path fill-rule="nonzero" fill="rgb(0%, 0%, 0%)" fill-opacity="1" d="M 647.121094 54.703125 L 647.121094 28.402344 L 642.171875 28.402344 L 642.171875 54.703125 Z M 647.121094 54.703125 "/>
<path fill-rule="nonzero" fill="rgb(0%, 0%, 0%)" fill-opacity="1" d="M 661.214844 49.578125 C 661.214844 50.175781 660.964844 50.675781 660.488281 51.027344 C 659.988281 51.378906 659.289062 51.550781 658.339844 51.550781 C 657.3125 51.550781 656.515625 51.328125 655.914062 50.851562 C 655.289062 50.378906 654.964844 49.726562 654.9375 48.800781 L 650.238281 48.800781 C 650.238281 49.925781 650.5625 50.976562 651.265625 51.925781 C 651.964844 52.902344 652.914062 53.652344 654.089844 54.203125 C 655.289062 54.777344 656.6875 55.050781 658.238281 55.050781 C 660.539062 55.050781 662.414062 54.527344 663.890625 53.476562 C 665.3125 52.425781 666.0625 51.050781 666.0625 49.378906 C 666.0625 47.027344 664.714844 45.378906 662.113281 44.402344 C 661.289062 44.101562 660.238281 43.828125 659.015625 43.578125 C 657.738281 43.328125 656.863281 43.050781 656.363281 42.703125 C 655.839844 42.351562 655.613281 41.925781 655.613281 41.378906 C 655.613281 40.800781 655.8125 40.328125 656.265625 39.925781 C 656.6875 39.550781 657.363281 39.328125 658.1875 39.328125 C 659.1875 39.328125 659.890625 39.578125 660.339844 40.050781 C 660.789062 40.527344 661.039062 41.101562 661.039062 41.800781 L 665.988281 41.800781 C 665.988281 40.050781 665.289062 38.628906 663.890625 37.527344 C 662.488281 36.402344 660.589844 35.828125 658.238281 35.828125 C 656.015625 35.828125 654.238281 36.402344 652.863281 37.476562 C 651.488281 38.601562 650.839844 39.976562 650.839844 41.578125 C 650.839844 44.425781 653.015625 46.328125 657.414062 47.226562 C 658.765625 47.503906 659.714844 47.800781 660.3125 48.152344 C 660.890625 48.503906 661.214844 48.976562 661.214844 49.578125 Z M 661.214844 49.578125 "/>
<path fill-rule="nonzero" fill="rgb(0%, 0%, 0%)" fill-opacity="1" d="M 679.9375 54.703125 L 684.964844 54.703125 L 684.964844 54.425781 C 684.464844 53.503906 684.214844 52.175781 684.214844 50.425781 L 684.214844 42.402344 C 684.214844 40.328125 683.5625 38.703125 682.214844 37.550781 C 680.890625 36.425781 679.0625 35.828125 676.789062 35.828125 C 675.238281 35.828125 673.863281 36.101562 672.6875 36.601562 C 671.488281 37.128906 670.539062 37.828125 669.863281 38.753906 C 669.214844 39.652344 668.890625 40.675781 668.890625 41.726562 L 673.839844 41.726562 C 673.839844 41.050781 674.039062 40.527344 674.539062 40.101562 C 674.988281 39.703125 675.664062 39.476562 676.515625 39.476562 C 677.4375 39.476562 678.164062 39.753906 678.5625 40.253906 C 678.988281 40.777344 679.238281 41.476562 679.238281 42.328125 L 679.238281 43.378906 L 676.964844 43.378906 C 674.214844 43.402344 672.113281 43.925781 670.640625 44.976562 C 669.164062 46.027344 668.464844 47.550781 668.464844 49.503906 C 668.464844 51.128906 669.0625 52.425781 670.265625 53.476562 C 671.464844 54.527344 672.964844 55.050781 674.789062 55.050781 C 676.6875 55.050781 678.265625 54.378906 679.4375 53.050781 C 679.515625 53.726562 679.6875 54.277344 679.9375 54.703125 Z M 675.863281 51.277344 C 675.089844 51.277344 674.515625 51.078125 674.089844 50.675781 C 673.640625 50.253906 673.414062 49.753906 673.414062 49.128906 L 673.464844 48.851562 C 673.589844 47.152344 674.914062 46.277344 677.414062 46.277344 L 679.238281 46.277344 L 679.238281 49.476562 C 678.964844 50.027344 678.515625 50.453125 677.863281 50.777344 C 677.238281 51.128906 676.5625 51.277344 675.863281 51.277344 Z M 675.863281 51.277344 "/>
<path fill="none" stroke-width="0.99628" stroke-linecap="butt" stroke-linejoin="round" stroke="rgb(19.607843%, 19.607843%, 19.607843%)" stroke-opacity="1" stroke-miterlimit="10" d="M -109.822716 -23.146339 L 109.825722 -23.146339 L 109.825722 23.145164 L -109.822716 23.145164 Z M -109.822716 -23.146339 " transform="matrix(1.6, 0, 0, -1.6, 180.497595, 116.676794)"/>
<path fill-rule="nonzero" fill="rgb(0%, 0%, 0%)" fill-opacity="1" d="M 183.9375 129.230469 L 183.9375 104.179688 L 183.4375 104.179688 L 174.363281 107.582031 L 174.363281 110.457031 L 180.738281 108.105469 L 180.738281 129.230469 Z M 183.9375 129.230469 "/>
<path fill="none" stroke-width="0.99628" stroke-linecap="butt" stroke-linejoin="round" stroke="rgb(19.607843%, 19.607843%, 19.607843%)" stroke-opacity="1" stroke-miterlimit="10" d="M -109.825165 -23.146339 L 109.823273 -23.146339 L 109.823273 23.145164 L -109.825165 23.145164 Z M -109.825165 -23.146339 " transform="matrix(1.6, 0, 0, -1.6, 531.931201, 116.676794)"/>
<path fill="none" stroke-width="0.99628" stroke-linecap="butt" stroke-linejoin="round" stroke="rgb(19.607843%, 19.607843%, 19.607843%)" stroke-opacity="1" stroke-miterlimit="10" d="M -109.822716 -23.145401 L 109.825722 -23.145401 L 109.825722 23.146103 L -109.822716 23.146103 Z M -109.822716 -23.145401 " transform="matrix(1.6, 0, 0, -1.6, 180.497595, 190.740796)"/>
<path fill-rule="nonzero" fill="rgb(0%, 0%, 0%)" fill-opacity="1" d="M 189.085938 203.296875 L 189.085938 200.695312 L 176.5625 200.695312 L 183.210938 193.472656 C 186.335938 190.097656 187.910156 187.171875 187.910156 184.695312 C 187.910156 182.671875 187.210938 181.046875 185.886719 179.820312 C 184.5625 178.644531 182.734375 177.996094 180.410156 177.996094 C 177.910156 177.996094 175.910156 178.746094 174.460938 180.144531 C 172.984375 181.597656 172.234375 183.445312 172.234375 185.722656 L 175.4375 185.722656 C 175.4375 184.121094 175.859375 182.871094 176.734375 181.972656 C 177.609375 181.097656 178.835938 180.644531 180.410156 180.644531 C 181.710938 180.644531 182.761719 181.046875 183.535156 181.871094 C 184.3125 182.695312 184.734375 183.769531 184.734375 185.046875 C 184.734375 186.046875 184.484375 186.996094 183.984375 187.894531 C 183.484375 188.820312 182.609375 189.996094 181.359375 191.445312 L 172.734375 201.019531 L 172.734375 203.296875 Z M 189.085938 203.296875 "/>
<path fill="none" stroke-width="0.99628" stroke-linecap="butt" stroke-linejoin="round" stroke="rgb(19.607843%, 19.607843%, 19.607843%)" stroke-opacity="1" stroke-miterlimit="10" d="M -109.825165 -23.145401 L 109.823273 -23.145401 L 109.823273 23.146103 L -109.825165 23.146103 Z M -109.825165 -23.145401 " transform="matrix(1.6, 0, 0, -1.6, 531.931201, 190.740796)"/>
<path fill="none" stroke-width="0.99628" stroke-linecap="butt" stroke-linejoin="round" stroke="rgb(19.607843%, 19.607843%, 19.607843%)" stroke-opacity="1" stroke-miterlimit="10" d="M -109.822716 -23.144455 L 109.825722 -23.144455 L 109.825722 23.144608 L -109.822716 23.144608 Z M -109.822716 -23.144455 " transform="matrix(1.6, 0, 0, -1.6, 180.497595, 264.80481)"/>
<path fill-rule="nonzero" fill="rgb(0%, 0%, 0%)" fill-opacity="1" d="M 177.335938 263.183594 L 177.335938 265.757812 L 179.710938 265.757812 C 181.386719 265.785156 182.660156 266.210938 183.5625 266.984375 C 184.4375 267.757812 184.910156 268.859375 184.910156 270.308594 C 184.910156 271.808594 184.484375 272.984375 183.6875 273.757812 C 182.835938 274.558594 181.6875 274.933594 180.160156 274.933594 C 178.734375 274.933594 177.5625 274.558594 176.734375 273.757812 C 175.886719 272.984375 175.460938 271.933594 175.460938 270.585938 L 172.285156 270.585938 C 172.285156 272.660156 172.984375 274.335938 174.460938 275.632812 C 175.910156 276.910156 177.8125 277.535156 180.160156 277.535156 C 182.511719 277.535156 184.410156 276.910156 185.886719 275.558594 C 187.359375 274.285156 188.085938 272.484375 188.085938 270.234375 C 188.085938 268.808594 187.710938 267.585938 186.960938 266.558594 C 186.210938 265.585938 185.136719 264.835938 183.785156 264.382812 C 184.960938 263.882812 185.960938 263.160156 186.660156 262.109375 C 187.359375 261.085938 187.710938 260.035156 187.710938 258.933594 C 187.710938 256.757812 187.035156 255.058594 185.710938 253.785156 C 184.386719 252.535156 182.511719 251.882812 180.160156 251.882812 C 177.910156 251.882812 176.085938 252.558594 174.660156 253.882812 C 173.1875 255.234375 172.484375 256.835938 172.484375 258.808594 L 175.6875 258.808594 C 175.6875 257.507812 176.0625 256.460938 176.859375 255.683594 C 177.6875 254.910156 178.761719 254.535156 180.160156 254.535156 C 183.085938 254.535156 184.5625 256.007812 184.5625 258.910156 C 184.5625 260.210938 184.085938 261.234375 183.261719 262.007812 C 182.386719 262.757812 181.1875 263.183594 179.710938 263.183594 Z M 177.335938 263.183594 "/>
<path fill="none" stroke-width="0.99628" stroke-linecap="butt" stroke-linejoin="round" stroke="rgb(19.607843%, 19.607843%, 19.607843%)" stroke-opacity="1" stroke-miterlimit="10" d="M -109.825165 -23.144455 L 109.823273 -23.144455 L 109.823273 23.144608 L -109.825165 23.144608 Z M -109.825165 -23.144455 " transform="matrix(1.6, 0, 0, -1.6, 531.931201, 264.80481)"/>
<path fill="none" stroke-width="0.99628" stroke-linecap="butt" stroke-linejoin="round" stroke="rgb(19.607843%, 19.607843%, 19.607843%)" stroke-opacity="1" stroke-miterlimit="10" d="M -109.822716 -23.1474 L 109.825722 -23.1474 L 109.825722 23.146545 L -109.822716 23.146545 Z M -109.822716 -23.1474 " transform="matrix(1.6, 0, 0, -1.6, 180.497595, 338.87041)"/>
<path fill-rule="nonzero" fill="rgb(0%, 0%, 0%)" fill-opacity="1" d="M 186.085938 343.050781 L 186.085938 326.472656 L 182.734375 326.472656 L 171.5625 343.773438 L 171.5625 345.648438 L 182.9375 345.648438 L 182.9375 351.425781 L 186.085938 351.425781 L 186.085938 345.648438 L 189.5625 345.648438 L 189.5625 343.050781 Z M 175.160156 343.050781 L 182.5625 331.5 L 182.9375 330.824219 L 182.9375 343.050781 Z M 175.160156 343.050781 "/>
<path fill="none" stroke-width="0.99628" stroke-linecap="butt" stroke-linejoin="round" stroke="rgb(19.607843%, 19.607843%, 19.607843%)" stroke-opacity="1" stroke-miterlimit="10" d="M -109.825165 -23.1474 L 109.823273 -23.1474 L 109.823273 23.146545 L -109.825165 23.146545 Z M -109.825165 -23.1474 " transform="matrix(1.6, 0, 0, -1.6, 531.931201, 338.87041)"/>
<path fill="none" stroke-width="0.99628" stroke-linecap="butt" stroke-linejoin="round" stroke="rgb(19.607843%, 19.607843%, 19.607843%)" stroke-opacity="1" stroke-miterlimit="10" d="M -109.822716 -23.146454 L 109.825722 -23.146454 L 109.825722 23.147491 L -109.822716 23.147491 Z M -109.822716 -23.146454 " transform="matrix(1.6, 0, 0, -1.6, 180.497595, 412.934424)"/>
<path fill-rule="nonzero" fill="rgb(0%, 0%, 0%)" fill-opacity="1" d="M 174.210938 412.839844 L 176.734375 413.464844 L 177.5625 412.789062 C 178.335938 412.1875 179.4375 411.886719 180.835938 411.886719 C 182.3125 411.886719 183.535156 412.414062 184.4375 413.386719 C 185.359375 414.414062 185.8125 415.738281 185.8125 417.386719 C 185.8125 419.164062 185.386719 420.589844 184.5625 421.5625 C 183.710938 422.589844 182.5625 423.0625 181.085938 423.0625 C 179.710938 423.0625 178.609375 422.714844 177.8125 421.988281 C 176.984375 421.289062 176.484375 420.1875 176.3125 418.761719 L 173.285156 418.761719 C 173.460938 420.9375 174.285156 422.613281 175.6875 423.839844 C 177.085938 425.0625 178.859375 425.664062 181.085938 425.664062 C 183.535156 425.664062 185.460938 424.9375 186.859375 423.464844 C 188.261719 421.988281 188.960938 419.9375 188.960938 417.363281 C 188.960938 414.839844 188.3125 412.789062 186.960938 411.289062 C 185.636719 409.8125 183.8125 409.039062 181.5625 409.039062 C 179.984375 409.039062 178.585938 409.386719 177.386719 410.089844 L 178.136719 403.3125 L 188.234375 403.3125 L 188.234375 400.363281 L 175.460938 400.363281 Z M 174.210938 412.839844 "/>
<path fill="none" stroke-width="0.99628" stroke-linecap="butt" stroke-linejoin="round" stroke="rgb(19.607843%, 19.607843%, 19.607843%)" stroke-opacity="1" stroke-miterlimit="10" d="M -109.825165 -23.146454 L 109.823273 -23.146454 L 109.823273 23.147491 L -109.825165 23.147491 Z M -109.825165 -23.146454 " transform="matrix(1.6, 0, 0, -1.6, 531.931201, 412.934424)"/>
<path fill="none" stroke-width="0.99628" stroke-linecap="butt" stroke-linejoin="round" stroke="rgb(19.607843%, 19.607843%, 19.607843%)" stroke-opacity="1" stroke-miterlimit="10" d="M -109.822716 -23.144531 L 109.825722 -23.144531 L 109.825722 23.144531 L -109.822716 23.144531 Z M -109.822716 -23.144531 " transform="matrix(1.6, 0, 0, -1.6, 180.497595, 487)"/>
<path fill-rule="nonzero" fill="rgb(0%, 0%, 0%)" fill-opacity="1" d="M 185.1875 474.429688 L 184.585938 474.429688 C 180.734375 474.503906 177.8125 475.730469 175.859375 478.152344 C 173.886719 480.605469 172.910156 484.128906 172.910156 488.679688 L 172.910156 489.878906 C 172.910156 492.777344 173.636719 495.179688 175.109375 497.003906 C 176.585938 498.828125 178.5625 499.730469 180.9375 499.730469 C 183.285156 499.730469 185.1875 498.953125 186.585938 497.402344 C 187.984375 495.878906 188.6875 493.828125 188.6875 491.253906 C 188.6875 488.855469 188.011719 486.902344 186.734375 485.355469 C 185.4375 483.804688 183.710938 483.027344 181.535156 483.027344 C 179.261719 483.027344 177.460938 483.804688 176.160156 485.277344 C 176.386719 482.730469 177.210938 480.730469 178.6875 479.304688 C 180.160156 477.902344 182.136719 477.179688 184.585938 477.105469 L 185.1875 477.105469 Z M 181.011719 485.652344 C 182.386719 485.652344 183.460938 486.179688 184.3125 487.253906 C 185.109375 488.304688 185.535156 489.703125 185.535156 491.378906 C 185.535156 493.105469 185.109375 494.480469 184.3125 495.527344 C 183.460938 496.578125 182.335938 497.105469 180.9375 497.105469 C 179.535156 497.105469 178.386719 496.503906 177.460938 495.230469 C 176.5625 493.980469 176.085938 492.328125 176.085938 490.253906 L 176.085938 489.105469 C 176.4375 488.128906 177.085938 487.304688 177.984375 486.652344 C 178.910156 486.003906 179.910156 485.652344 181.011719 485.652344 Z M 181.011719 485.652344 "/>
<path fill="none" stroke-width="0.99628" stroke-linecap="butt" stroke-linejoin="round" stroke="rgb(19.607843%, 19.607843%, 19.607843%)" stroke-opacity="1" stroke-miterlimit="10" d="M -109.825165 -23.144531 L 109.823273 -23.144531 L 109.823273 23.144531 L -109.825165 23.144531 Z M -109.825165 -23.144531 " transform="matrix(1.6, 0, 0, -1.6, 531.931201, 487)"/>
<path fill="none" stroke-width="0.99628" stroke-linecap="butt" stroke-linejoin="round" stroke="rgb(19.607843%, 19.607843%, 19.607843%)" stroke-opacity="1" stroke-miterlimit="10" d="M -109.822716 -23.143585 L 109.825722 -23.143585 L 109.825722 23.145477 L -109.822716 23.145477 Z M -109.822716 -23.143585 " transform="matrix(1.6, 0, 0, -1.6, 180.497595, 561.064014)"/>
<path fill-rule="nonzero" fill="rgb(0%, 0%, 0%)" fill-opacity="1" d="M 188.242188 550.46875 L 188.242188 548.667969 L 172.492188 548.667969 L 172.492188 551.269531 L 185.019531 551.269531 L 175.117188 573.621094 L 178.320312 573.621094 Z M 188.242188 550.46875 "/>
<path fill="none" stroke-width="0.99628" stroke-linecap="butt" stroke-linejoin="round" stroke="rgb(19.607843%, 19.607843%, 19.607843%)" stroke-opacity="1" stroke-miterlimit="10" d="M -109.825165 -23.143585 L 109.823273 -23.143585 L 109.823273 23.145477 L -109.825165 23.145477 Z M -109.825165 -23.143585 " transform="matrix(1.6, 0, 0, -1.6, 531.931201, 561.064014)"/>
<path fill="none" stroke-width="0.99628" stroke-linecap="butt" stroke-linejoin="round" stroke="rgb(19.607843%, 19.607843%, 19.607843%)" stroke-opacity="1" stroke-miterlimit="10" d="M -109.822716 -23.147552 L 109.825722 -23.147552 L 109.825722 23.146393 L -109.822716 23.146393 Z M -109.822716 -23.147552 " transform="matrix(1.6, 0, 0, -1.6, 180.497595, 635.127979)"/>
<path fill-rule="nonzero" fill="rgb(0%, 0%, 0%)" fill-opacity="1" d="M 187.835938 629.082031 C 187.835938 626.980469 187.136719 625.332031 185.8125 624.082031 C 184.484375 622.855469 182.6875 622.207031 180.511719 622.207031 C 178.3125 622.207031 176.511719 622.855469 175.1875 624.082031 C 173.8125 625.332031 173.160156 626.980469 173.160156 629.082031 C 173.160156 630.332031 173.460938 631.40625 174.085938 632.382812 C 174.734375 633.382812 175.609375 634.132812 176.734375 634.683594 C 175.4375 635.230469 174.410156 636.082031 173.6875 637.132812 C 172.9375 638.207031 172.585938 639.433594 172.585938 640.78125 C 172.585938 642.957031 173.285156 644.65625 174.734375 645.933594 C 176.160156 647.230469 178.085938 647.855469 180.511719 647.855469 C 182.859375 647.855469 184.761719 647.230469 186.234375 645.933594 C 187.710938 644.65625 188.4375 642.957031 188.4375 640.78125 C 188.4375 639.433594 188.0625 638.207031 187.285156 637.132812 C 186.511719 636.082031 185.484375 635.230469 184.210938 634.683594 C 185.3125 634.132812 186.210938 633.40625 186.859375 632.433594 C 187.484375 631.433594 187.835938 630.355469 187.835938 629.082031 Z M 185.285156 640.707031 C 185.285156 642.105469 184.835938 643.230469 183.984375 644.03125 C 183.136719 644.882812 181.984375 645.257812 180.511719 645.257812 C 179.011719 645.257812 177.859375 644.882812 177.011719 644.082031 C 176.160156 643.257812 175.734375 642.132812 175.734375 640.730469 C 175.734375 639.332031 176.160156 638.183594 177.035156 637.308594 C 177.886719 636.433594 179.035156 635.957031 180.484375 635.957031 C 181.886719 635.957031 183.035156 636.433594 183.960938 637.308594 C 184.835938 638.183594 185.285156 639.308594 185.285156 640.707031 Z M 180.511719 624.855469 C 181.710938 624.855469 182.734375 625.257812 183.484375 626.03125 C 184.261719 626.855469 184.6875 627.855469 184.6875 629.132812 C 184.6875 630.382812 184.3125 631.433594 183.535156 632.207031 C 182.761719 632.980469 181.785156 633.382812 180.511719 633.382812 C 179.261719 633.382812 178.234375 632.980469 177.460938 632.207031 C 176.6875 631.433594 176.335938 630.382812 176.335938 629.132812 C 176.335938 627.808594 176.734375 626.78125 177.511719 626.007812 C 178.261719 625.230469 179.261719 624.855469 180.511719 624.855469 Z M 180.511719 624.855469 "/>
<path fill="none" stroke-width="0.99628" stroke-linecap="butt" stroke-linejoin="round" stroke="rgb(19.607843%, 19.607843%, 19.607843%)" stroke-opacity="1" stroke-miterlimit="10" d="M -109.825165 -23.147552 L 109.823273 -23.147552 L 109.823273 23.146393 L -109.825165 23.146393 Z M -109.825165 -23.147552 " transform="matrix(1.6, 0, 0, -1.6, 531.931201, 635.127979)"/>
<path fill="none" stroke-width="0.99628" stroke-linecap="butt" stroke-linejoin="round" stroke="rgb(19.607843%, 19.607843%, 19.607843%)" stroke-opacity="1" stroke-miterlimit="10" d="M -109.822716 -23.145599 L 109.825722 -23.145599 L 109.825722 23.143463 L -109.822716 23.143463 Z M -109.822716 -23.145599 " transform="matrix(1.6, 0, 0, -1.6, 180.497595, 709.193604)"/>
<path fill-rule="nonzero" fill="rgb(0%, 0%, 0%)" fill-opacity="1" d="M 184.6875 710.796875 C 184.5625 713.671875 183.8125 715.746094 182.410156 717.046875 C 181.011719 718.371094 178.988281 719.046875 176.386719 719.070312 L 175.710938 719.070312 L 175.710938 721.746094 L 176.335938 721.746094 C 180.210938 721.722656 183.085938 720.597656 185.011719 718.347656 C 186.910156 716.148438 187.886719 712.597656 187.886719 707.722656 L 187.886719 706.773438 C 187.886719 703.621094 187.136719 701.097656 185.738281 699.222656 C 184.3125 697.398438 182.386719 696.445312 179.910156 696.445312 C 178.386719 696.445312 177.011719 696.847656 175.863281 697.546875 C 174.660156 698.246094 173.785156 699.273438 173.160156 700.597656 C 172.511719 701.921875 172.210938 703.445312 172.210938 705.097656 C 172.210938 706.671875 172.488281 708.097656 173.085938 709.371094 C 173.636719 710.671875 174.488281 711.648438 175.535156 712.347656 C 176.585938 713.046875 177.8125 713.398438 179.285156 713.398438 C 180.386719 713.398438 181.386719 713.195312 182.3125 712.695312 C 183.210938 712.246094 184.035156 711.621094 184.6875 710.796875 Z M 179.8125 710.796875 C 178.410156 710.796875 177.335938 710.273438 176.511719 709.148438 C 175.710938 708.070312 175.335938 706.671875 175.335938 704.945312 C 175.335938 703.195312 175.738281 701.796875 176.585938 700.695312 C 177.4375 699.648438 178.5625 699.097656 179.960938 699.097656 C 181.335938 699.097656 182.4375 699.746094 183.363281 701.046875 C 184.261719 702.398438 184.738281 704.070312 184.738281 706.148438 L 184.738281 707.398438 C 184.3125 708.371094 183.636719 709.195312 182.738281 709.820312 C 181.8125 710.496094 180.863281 710.796875 179.8125 710.796875 Z M 179.8125 710.796875 "/>
<path fill="none" stroke-width="0.99628" stroke-linecap="butt" stroke-linejoin="round" stroke="rgb(19.607843%, 19.607843%, 19.607843%)" stroke-opacity="1" stroke-miterlimit="10" d="M -109.825165 -23.145599 L 109.823273 -23.145599 L 109.823273 23.143463 L -109.825165 23.143463 Z M -109.825165 -23.145599 " transform="matrix(1.6, 0, 0, -1.6, 531.931201, 709.193604)"/>
<path fill="none" stroke-width="0.99628" stroke-linecap="butt" stroke-linejoin="round" stroke="rgb(19.607843%, 19.607843%, 19.607843%)" stroke-opacity="1" stroke-miterlimit="10" d="M -109.822716 -23.144653 L 109.825722 -23.144653 L 109.825722 23.144409 L -109.822716 23.144409 Z M -109.822716 -23.144653 " transform="matrix(1.6, 0, 0, -1.6, 180.497595, 783.257617)"/>
<path fill-rule="nonzero" fill="rgb(0%, 0%, 0%)" fill-opacity="1" d="M 173.75 795.636719 L 173.75 770.585938 L 173.25 770.585938 L 164.175781 773.988281 L 164.175781 776.863281 L 170.550781 774.511719 L 170.550781 795.636719 Z M 173.75 795.636719 "/>
<path fill-rule="nonzero" fill="rgb(0%, 0%, 0%)" fill-opacity="1" d="M 195.996094 785.011719 L 195.996094 780.910156 C 195.921875 777.335938 195.269531 774.660156 194.019531 772.9375 C 192.746094 771.238281 190.746094 770.335938 188.09375 770.335938 C 185.394531 770.335938 183.394531 771.261719 182.121094 773.011719 C 180.871094 774.8125 180.246094 777.535156 180.246094 781.1875 L 180.246094 785.4375 C 180.269531 788.9375 180.945312 791.613281 182.195312 793.363281 C 183.46875 795.113281 185.46875 795.988281 188.121094 795.988281 C 190.796875 795.988281 192.796875 795.113281 194.046875 793.285156 C 195.320312 791.488281 195.996094 788.738281 195.996094 785.011719 Z M 192.820312 780.660156 L 192.820312 785.863281 C 192.746094 788.488281 192.371094 790.410156 191.59375 791.613281 C 190.820312 792.785156 189.671875 793.386719 188.121094 793.386719 C 186.519531 793.386719 185.320312 792.761719 184.546875 791.460938 C 183.769531 790.210938 183.394531 788.210938 183.394531 785.511719 L 183.394531 780.410156 C 183.394531 777.886719 183.769531 776.035156 184.546875 774.8125 C 185.296875 773.613281 186.46875 772.988281 188.09375 772.988281 C 189.695312 772.988281 190.894531 773.613281 191.671875 774.8125 C 192.445312 776.035156 192.820312 777.988281 192.820312 780.660156 Z M 192.820312 780.660156 "/>
<path fill="none" stroke-width="0.99628" stroke-linecap="butt" stroke-linejoin="round" stroke="rgb(19.607843%, 19.607843%, 19.607843%)" stroke-opacity="1" stroke-miterlimit="10" d="M -109.825165 -23.144653 L 109.823273 -23.144653 L 109.823273 23.144409 L -109.825165 23.144409 Z M -109.825165 -23.144653 " transform="matrix(1.6, 0, 0, -1.6, 531.931201, 783.257617)"/>
</svg>
