<?xml version="1.0" encoding="UTF-8"?>
<svg xmlns="http://www.w3.org/2000/svg" xmlns:xlink="http://www.w3.org/1999/xlink" width="938.801514" height="523.85199" viewBox="0 0 938.801514 523.85199">
<path fill="none" stroke-width="1.99255" stroke-linecap="butt" stroke-linejoin="round" stroke="rgb(19.607843%, 19.607843%, 19.607843%)" stroke-opacity="1" stroke-miterlimit="10" d="M -88.413161 -33.848499 L 88.414964 -33.848499 L 88.414964 33.850161 L -88.413161 33.850161 Z M -88.413161 -33.848499 " transform="matrix(1.75, 0, 0, -1.75, 159.953501, 64.468251)"/>
<path fill-rule="nonzero" fill="rgb(0%, 0%, 0%)" fill-opacity="1" d="M 31.890625 69.996094 C 31.890625 70.40625 31.726562 70.761719 31.371094 71.007812 C 31.015625 71.253906 30.523438 71.390625 29.839844 71.390625 C 29.128906 71.390625 28.554688 71.226562 28.117188 70.898438 C 27.679688 70.570312 27.460938 70.078125 27.433594 69.449219 L 24.097656 69.449219 C 24.097656 70.242188 24.316406 70.980469 24.808594 71.664062 C 25.300781 72.347656 25.984375 72.894531 26.832031 73.277344 C 27.679688 73.6875 28.664062 73.878906 29.785156 73.878906 C 31.425781 73.878906 32.738281 73.496094 33.777344 72.757812 C 34.816406 72.019531 35.335938 71.035156 35.335938 69.832031 C 35.335938 68.164062 34.378906 66.988281 32.546875 66.304688 C 31.945312 66.113281 31.207031 65.894531 30.332031 65.730469 C 29.429688 65.566406 28.800781 65.347656 28.445312 65.101562 C 28.089844 64.855469 27.898438 64.554688 27.898438 64.144531 C 27.898438 63.761719 28.0625 63.40625 28.363281 63.132812 C 28.664062 62.859375 29.15625 62.722656 29.757812 62.722656 C 30.441406 62.722656 30.933594 62.886719 31.261719 63.214844 C 31.589844 63.570312 31.78125 63.953125 31.78125 64.445312 L 35.28125 64.445312 C 35.28125 63.214844 34.789062 62.203125 33.777344 61.410156 C 32.792969 60.617188 31.453125 60.207031 29.785156 60.207031 C 28.199219 60.207031 26.941406 60.617188 25.957031 61.382812 C 24.972656 62.175781 24.507812 63.160156 24.507812 64.308594 C 24.507812 66.332031 26.066406 67.671875 29.210938 68.328125 C 30.140625 68.519531 30.824219 68.710938 31.234375 68.957031 C 31.671875 69.230469 31.890625 69.558594 31.890625 69.996094 Z M 31.890625 69.996094 "/>
<path fill-rule="nonzero" fill="rgb(0%, 0%, 0%)" fill-opacity="1" d="M 43.636719 73.878906 C 44.730469 73.878906 45.714844 73.6875 46.617188 73.25 C 47.519531 72.867188 48.230469 72.265625 48.777344 71.5 L 47.054688 69.558594 C 46.289062 70.570312 45.222656 71.035156 43.882812 71.035156 C 42.980469 71.035156 42.269531 70.789062 41.695312 70.269531 C 41.121094 69.777344 40.765625 69.066406 40.65625 68.191406 L 49.078125 68.191406 L 49.078125 66.742188 C 49.078125 64.691406 48.558594 63.078125 47.492188 61.929688 C 46.453125 60.78125 45.058594 60.207031 43.253906 60.207031 C 42.023438 60.207031 40.957031 60.507812 40.054688 61.054688 C 39.097656 61.628906 38.359375 62.449219 37.867188 63.488281 C 37.347656 64.527344 37.101562 65.703125 37.101562 67.015625 L 37.101562 67.371094 C 37.101562 69.339844 37.703125 70.925781 38.90625 72.101562 C 40.109375 73.304688 41.695312 73.878906 43.636719 73.878906 Z M 43.226562 63.050781 C 43.992188 63.050781 44.566406 63.296875 44.949219 63.707031 C 45.359375 64.144531 45.578125 64.71875 45.605469 65.511719 L 45.605469 65.8125 L 40.710938 65.8125 C 40.820312 64.9375 41.09375 64.253906 41.53125 63.789062 C 41.96875 63.296875 42.542969 63.050781 43.226562 63.050781 Z M 43.226562 63.050781 "/>
<path fill-rule="nonzero" fill="rgb(0%, 0%, 0%)" fill-opacity="1" d="M 63.050781 73.632812 L 63.050781 54.929688 L 59.550781 54.929688 L 59.550781 73.632812 Z M 63.050781 73.632812 "/>
<path fill-rule="nonzero" fill="rgb(0%, 0%, 0%)" fill-opacity="1" d="M 65.394531 66.933594 L 65.394531 67.070312 C 65.394531 69.175781 65.941406 70.84375 67.089844 72.074219 C 68.210938 73.277344 69.742188 73.878906 71.628906 73.878906 C 73.515625 73.878906 75.046875 73.277344 76.195312 72.074219 C 77.316406 70.84375 77.890625 69.230469 77.890625 67.179688 L 77.863281 66.277344 C 77.726562 64.417969 77.097656 62.96875 75.976562 61.875 C 74.855469 60.753906 73.40625 60.207031 71.628906 60.207031 C 70.398438 60.207031 69.277344 60.507812 68.347656 61.054688 C 67.390625 61.601562 66.652344 62.421875 66.160156 63.433594 C 65.640625 64.445312 65.394531 65.621094 65.394531 66.933594 Z M 68.921875 67.179688 C 68.921875 65.785156 69.140625 64.746094 69.605469 64.089844 C 70.097656 63.40625 70.753906 63.050781 71.628906 63.050781 C 72.476562 63.050781 73.160156 63.40625 73.652344 64.089844 C 74.117188 64.746094 74.390625 65.703125 74.390625 66.933594 C 74.390625 68.382812 74.117188 69.421875 73.652344 70.078125 C 73.160156 70.707031 72.503906 71.035156 71.65625 71.035156 C 70.753906 71.035156 70.097656 70.707031 69.605469 70.050781 C 69.140625 69.394531 68.921875 68.410156 68.921875 67.179688 Z M 68.921875 67.179688 "/>
<path fill-rule="nonzero" fill="rgb(0%, 0%, 0%)" fill-opacity="1" d="M 95.488281 69.996094 C 95.488281 70.40625 95.324219 70.761719 94.96875 71.007812 C 94.613281 71.253906 94.121094 71.390625 93.4375 71.390625 C 92.726562 71.390625 92.152344 71.226562 91.714844 70.898438 C 91.277344 70.570312 91.058594 70.078125 91.03125 69.449219 L 87.695312 69.449219 C 87.695312 70.242188 87.914062 70.980469 88.40625 71.664062 C 88.898438 72.347656 89.582031 72.894531 90.429688 73.277344 C 91.277344 73.6875 92.261719 73.878906 93.382812 73.878906 C 95.023438 73.878906 96.335938 73.496094 97.375 72.757812 C 98.414062 72.019531 98.933594 71.035156 98.933594 69.832031 C 98.933594 68.164062 97.976562 66.988281 96.144531 66.304688 C 95.542969 66.113281 94.804688 65.894531 93.929688 65.730469 C 93.027344 65.566406 92.398438 65.347656 92.042969 65.101562 C 91.6875 64.855469 91.496094 64.554688 91.496094 64.144531 C 91.496094 63.761719 91.660156 63.40625 91.960938 63.132812 C 92.261719 62.859375 92.753906 62.722656 93.355469 62.722656 C 94.039062 62.722656 94.53125 62.886719 94.859375 63.214844 C 95.1875 63.570312 95.378906 63.953125 95.378906 64.445312 L 98.878906 64.445312 C 98.878906 63.214844 98.386719 62.203125 97.375 61.410156 C 96.390625 60.617188 95.050781 60.207031 93.382812 60.207031 C 91.796875 60.207031 90.539062 60.617188 89.554688 61.382812 C 88.570312 62.175781 88.105469 63.160156 88.105469 64.308594 C 88.105469 66.332031 89.664062 67.671875 92.808594 68.328125 C 93.738281 68.519531 94.421875 68.710938 94.832031 68.957031 C 95.269531 69.230469 95.488281 69.558594 95.488281 69.996094 Z M 95.488281 69.996094 "/>
<path fill-rule="nonzero" fill="rgb(0%, 0%, 0%)" fill-opacity="1" d="M 108.796875 73.632812 L 112.378906 73.632812 L 112.378906 73.441406 C 112.023438 72.785156 111.859375 71.828125 111.859375 70.597656 L 111.859375 64.882812 C 111.859375 63.40625 111.367188 62.257812 110.4375 61.4375 C 109.480469 60.644531 108.195312 60.207031 106.554688 60.207031 C 105.460938 60.207031 104.503906 60.425781 103.65625 60.753906 C 102.808594 61.136719 102.125 61.628906 101.660156 62.285156 C 101.167969 62.941406 100.949219 63.652344 100.949219 64.417969 L 104.476562 64.417969 C 104.476562 63.925781 104.613281 63.570312 104.96875 63.269531 C 105.296875 62.96875 105.761719 62.804688 106.363281 62.804688 C 107.046875 62.804688 107.539062 62.996094 107.839844 63.351562 C 108.140625 63.734375 108.304688 64.226562 108.304688 64.828125 L 108.304688 65.566406 L 106.691406 65.566406 C 104.75 65.59375 103.246094 65.976562 102.207031 66.714844 C 101.140625 67.480469 100.648438 68.546875 100.648438 69.941406 C 100.648438 71.089844 101.085938 72.019531 101.933594 72.757812 C 102.78125 73.496094 103.847656 73.878906 105.132812 73.878906 C 106.5 73.878906 107.621094 73.414062 108.46875 72.457031 C 108.496094 72.921875 108.632812 73.332031 108.796875 73.632812 Z M 105.925781 71.199219 C 105.351562 71.199219 104.941406 71.0625 104.640625 70.761719 C 104.3125 70.460938 104.175781 70.105469 104.175781 69.667969 L 104.203125 69.476562 C 104.285156 68.273438 105.242188 67.644531 107.019531 67.644531 L 108.304688 67.644531 L 108.304688 69.914062 C 108.113281 70.324219 107.785156 70.625 107.347656 70.84375 C 106.882812 71.089844 106.417969 71.199219 105.925781 71.199219 Z M 105.925781 71.199219 "/>
<path fill-rule="nonzero" fill="rgb(0%, 0%, 0%)" fill-opacity="1" d="M 126.398438 67.179688 L 126.398438 66.960938 C 126.398438 64.828125 125.933594 63.1875 125.03125 61.984375 C 124.128906 60.808594 122.871094 60.207031 121.257812 60.207031 C 119.917969 60.207031 118.851562 60.699219 118.058594 61.628906 L 118.058594 54.929688 L 114.53125 54.929688 L 114.53125 73.632812 L 117.703125 73.632812 L 117.867188 72.238281 C 118.714844 73.332031 119.863281 73.878906 121.285156 73.878906 C 122.898438 73.878906 124.15625 73.304688 125.058594 72.101562 C 125.960938 70.953125 126.398438 69.285156 126.398438 67.179688 Z M 122.898438 66.90625 C 122.898438 68 122.789062 68.820312 122.652344 69.367188 C 122.269531 70.488281 121.53125 71.035156 120.410156 71.035156 C 119.261719 71.035156 118.46875 70.597656 118.058594 69.640625 L 118.058594 64.445312 C 118.46875 63.570312 119.261719 63.078125 120.382812 63.078125 C 121.203125 63.078125 121.832031 63.40625 122.242188 64.007812 C 122.679688 64.609375 122.898438 65.566406 122.898438 66.90625 Z M 122.898438 66.90625 "/>
<path fill-rule="nonzero" fill="rgb(0%, 0%, 0%)" fill-opacity="1" d="M 134.613281 73.878906 C 135.707031 73.878906 136.691406 73.6875 137.59375 73.25 C 138.496094 72.867188 139.207031 72.265625 139.753906 71.5 L 138.03125 69.558594 C 137.265625 70.570312 136.199219 71.035156 134.859375 71.035156 C 133.957031 71.035156 133.246094 70.789062 132.671875 70.269531 C 132.097656 69.777344 131.742188 69.066406 131.632812 68.191406 L 140.054688 68.191406 L 140.054688 66.742188 C 140.054688 64.691406 139.535156 63.078125 138.46875 61.929688 C 137.429688 60.78125 136.035156 60.207031 134.230469 60.207031 C 133 60.207031 131.933594 60.507812 131.03125 61.054688 C 130.074219 61.628906 129.335938 62.449219 128.84375 63.488281 C 128.324219 64.527344 128.078125 65.703125 128.078125 67.015625 L 128.078125 67.371094 C 128.078125 69.339844 128.679688 70.925781 129.882812 72.101562 C 131.085938 73.304688 132.671875 73.878906 134.613281 73.878906 Z M 134.203125 63.050781 C 134.96875 63.050781 135.542969 63.296875 135.925781 63.707031 C 136.335938 64.144531 136.554688 64.71875 136.582031 65.511719 L 136.582031 65.8125 L 131.6875 65.8125 C 131.796875 64.9375 132.070312 64.253906 132.507812 63.789062 C 132.945312 63.296875 133.519531 63.050781 134.203125 63.050781 Z M 134.203125 63.050781 "/>
<path fill-rule="nonzero" fill="rgb(0%, 0%, 0%)" fill-opacity="1" d="M 149.761719 66.960938 C 149.761719 69.148438 150.226562 70.84375 151.15625 72.074219 C 152.113281 73.277344 153.371094 73.878906 154.902344 73.878906 C 156.269531 73.878906 157.390625 73.332031 158.292969 72.238281 L 158.457031 73.632812 L 161.628906 73.632812 L 161.628906 54.929688 L 158.128906 54.929688 L 158.128906 61.65625 C 157.28125 60.726562 156.1875 60.207031 154.929688 60.207031 C 153.34375 60.207031 152.058594 60.835938 151.128906 62.039062 C 150.226562 63.269531 149.761719 64.910156 149.761719 66.960938 Z M 153.289062 67.207031 C 153.289062 64.445312 154.136719 63.078125 155.832031 63.078125 C 156.925781 63.078125 157.664062 63.570312 158.128906 64.445312 L 158.128906 69.640625 C 157.636719 70.597656 156.871094 71.035156 155.804688 71.035156 C 154.984375 71.035156 154.355469 70.707031 153.917969 70.050781 C 153.480469 69.394531 153.289062 68.4375 153.289062 67.207031 Z M 153.289062 67.207031 "/>
<path fill-rule="nonzero" fill="rgb(0%, 0%, 0%)" fill-opacity="1" d="M 170.414062 73.878906 C 171.507812 73.878906 172.492188 73.6875 173.394531 73.25 C 174.296875 72.867188 175.007812 72.265625 175.554688 71.5 L 173.832031 69.558594 C 173.066406 70.570312 172 71.035156 170.660156 71.035156 C 169.757812 71.035156 169.046875 70.789062 168.472656 70.269531 C 167.898438 69.777344 167.542969 69.066406 167.433594 68.191406 L 175.855469 68.191406 L 175.855469 66.742188 C 175.855469 64.691406 175.335938 63.078125 174.269531 61.929688 C 173.230469 60.78125 171.835938 60.207031 170.03125 60.207031 C 168.800781 60.207031 167.734375 60.507812 166.832031 61.054688 C 165.875 61.628906 165.136719 62.449219 164.644531 63.488281 C 164.125 64.527344 163.878906 65.703125 163.878906 67.015625 L 163.878906 67.371094 C 163.878906 69.339844 164.480469 70.925781 165.683594 72.101562 C 166.886719 73.304688 168.472656 73.878906 170.414062 73.878906 Z M 170.003906 63.050781 C 170.769531 63.050781 171.34375 63.296875 171.726562 63.707031 C 172.136719 64.144531 172.355469 64.71875 172.382812 65.511719 L 172.382812 65.8125 L 167.488281 65.8125 C 167.597656 64.9375 167.871094 64.253906 168.308594 63.789062 C 168.746094 63.296875 169.320312 63.050781 170.003906 63.050781 Z M 170.003906 63.050781 "/>
<path fill-rule="nonzero" fill="rgb(0%, 0%, 0%)" fill-opacity="1" d="M 189.828125 73.632812 L 189.828125 60.453125 L 186.328125 60.453125 L 186.328125 73.632812 Z M 186.082031 57.0625 C 186.082031 57.609375 186.273438 58.019531 186.628906 58.375 C 186.984375 58.730469 187.449219 58.867188 188.050781 58.867188 C 188.652344 58.867188 189.144531 58.730469 189.472656 58.375 C 189.828125 58.019531 190.019531 57.609375 190.019531 57.0625 C 190.019531 56.515625 189.828125 56.105469 189.472656 55.75 C 189.144531 55.394531 188.652344 55.230469 188.050781 55.230469 C 187.449219 55.230469 186.957031 55.394531 186.601562 55.75 C 186.273438 56.105469 186.082031 56.515625 186.082031 57.0625 Z M 186.082031 57.0625 "/>
<path fill-rule="nonzero" fill="rgb(0%, 0%, 0%)" fill-opacity="1" d="M 195.972656 60.453125 L 192.664062 60.453125 L 192.664062 73.632812 L 196.164062 73.632812 L 196.164062 64.335938 C 196.65625 63.515625 197.421875 63.078125 198.40625 63.078125 C 199.171875 63.078125 199.691406 63.269531 200.019531 63.570312 C 200.320312 63.925781 200.511719 64.445312 200.511719 65.210938 L 200.511719 73.632812 L 204.011719 73.632812 L 204.011719 65.128906 C 203.984375 63.515625 203.65625 62.285156 202.972656 61.464844 C 202.289062 60.644531 201.25 60.207031 199.855469 60.207031 C 198.269531 60.207031 197.011719 60.808594 196.054688 61.984375 Z M 195.972656 60.453125 "/>
<path fill-rule="nonzero" fill="rgb(0%, 0%, 0%)" fill-opacity="1" d="M 210.015625 60.453125 L 206.679688 60.453125 L 206.679688 73.632812 L 210.207031 73.632812 L 210.207031 64.308594 C 210.644531 63.515625 211.382812 63.078125 212.367188 63.078125 C 213.105469 63.078125 213.625 63.269531 213.925781 63.597656 C 214.226562 63.953125 214.363281 64.5 214.363281 65.265625 L 214.363281 73.632812 L 217.890625 73.632812 L 217.863281 64.582031 C 218.246094 63.570312 219.011719 63.078125 220.050781 63.078125 C 220.789062 63.078125 221.308594 63.269531 221.609375 63.597656 C 221.910156 63.953125 222.046875 64.472656 222.046875 65.238281 L 222.046875 73.632812 L 225.601562 73.632812 L 225.601562 65.238281 C 225.601562 63.570312 225.246094 62.3125 224.535156 61.464844 C 223.851562 60.644531 222.757812 60.207031 221.363281 60.207031 C 219.640625 60.207031 218.300781 60.863281 217.371094 62.203125 C 216.742188 60.890625 215.59375 60.207031 213.898438 60.207031 C 212.285156 60.207031 211.027344 60.78125 210.097656 61.929688 Z M 210.015625 60.453125 "/>
<path fill-rule="nonzero" fill="rgb(0%, 0%, 0%)" fill-opacity="1" d="M 234.316406 73.878906 C 235.410156 73.878906 236.394531 73.6875 237.296875 73.25 C 238.199219 72.867188 238.910156 72.265625 239.457031 71.5 L 237.734375 69.558594 C 236.96875 70.570312 235.902344 71.035156 234.5625 71.035156 C 233.660156 71.035156 232.949219 70.789062 232.375 70.269531 C 231.800781 69.777344 231.445312 69.066406 231.335938 68.191406 L 239.757812 68.191406 L 239.757812 66.742188 C 239.757812 64.691406 239.238281 63.078125 238.171875 61.929688 C 237.132812 60.78125 235.738281 60.207031 233.933594 60.207031 C 232.703125 60.207031 231.636719 60.507812 230.734375 61.054688 C 229.777344 61.628906 229.039062 62.449219 228.546875 63.488281 C 228.027344 64.527344 227.78125 65.703125 227.78125 67.015625 L 227.78125 67.371094 C 227.78125 69.339844 228.382812 70.925781 229.585938 72.101562 C 230.789062 73.304688 232.375 73.878906 234.316406 73.878906 Z M 233.90625 63.050781 C 234.671875 63.050781 235.246094 63.296875 235.628906 63.707031 C 236.039062 64.144531 236.257812 64.71875 236.285156 65.511719 L 236.285156 65.8125 L 231.390625 65.8125 C 231.5 64.9375 231.773438 64.253906 232.210938 63.789062 C 232.648438 63.296875 233.222656 63.050781 233.90625 63.050781 Z M 233.90625 63.050781 "/>
<path fill-rule="nonzero" fill="rgb(0%, 0%, 0%)" fill-opacity="1" d="M 241.160156 66.960938 C 241.160156 69.148438 241.625 70.84375 242.554688 72.074219 C 243.511719 73.277344 244.769531 73.878906 246.300781 73.878906 C 247.667969 73.878906 248.789062 73.332031 249.691406 72.238281 L 249.855469 73.632812 L 253.027344 73.632812 L 253.027344 54.929688 L 249.527344 54.929688 L 249.527344 61.65625 C 248.679688 60.726562 247.585938 60.207031 246.328125 60.207031 C 244.742188 60.207031 243.457031 60.835938 242.527344 62.039062 C 241.625 63.269531 241.160156 64.910156 241.160156 66.960938 Z M 244.6875 67.207031 C 244.6875 64.445312 245.535156 63.078125 247.230469 63.078125 C 248.324219 63.078125 249.0625 63.570312 249.527344 64.445312 L 249.527344 69.640625 C 249.035156 70.597656 248.269531 71.035156 247.203125 71.035156 C 246.382812 71.035156 245.753906 70.707031 245.316406 70.050781 C 244.878906 69.394531 244.6875 68.4375 244.6875 67.207031 Z M 244.6875 67.207031 "/>
<path fill-rule="nonzero" fill="rgb(0%, 0%, 0%)" fill-opacity="1" d="M 259.460938 73.632812 L 259.460938 60.453125 L 255.960938 60.453125 L 255.960938 73.632812 Z M 255.714844 57.0625 C 255.714844 57.609375 255.90625 58.019531 256.261719 58.375 C 256.617188 58.730469 257.082031 58.867188 257.683594 58.867188 C 258.285156 58.867188 258.777344 58.730469 259.105469 58.375 C 259.460938 58.019531 259.652344 57.609375 259.652344 57.0625 C 259.652344 56.515625 259.460938 56.105469 259.105469 55.75 C 258.777344 55.394531 258.285156 55.230469 257.683594 55.230469 C 257.082031 55.230469 256.589844 55.394531 256.234375 55.75 C 255.90625 56.105469 255.714844 56.515625 255.714844 57.0625 Z M 255.714844 57.0625 "/>
<path fill-rule="nonzero" fill="rgb(0%, 0%, 0%)" fill-opacity="1" d="M 269.980469 73.632812 L 273.5625 73.632812 L 273.5625 73.441406 C 273.207031 72.785156 273.042969 71.828125 273.042969 70.597656 L 273.042969 64.882812 C 273.042969 63.40625 272.550781 62.257812 271.621094 61.4375 C 270.664062 60.644531 269.378906 60.207031 267.738281 60.207031 C 266.644531 60.207031 265.6875 60.425781 264.839844 60.753906 C 263.992188 61.136719 263.308594 61.628906 262.84375 62.285156 C 262.351562 62.941406 262.132812 63.652344 262.132812 64.417969 L 265.660156 64.417969 C 265.660156 63.925781 265.796875 63.570312 266.152344 63.269531 C 266.480469 62.96875 266.945312 62.804688 267.546875 62.804688 C 268.230469 62.804688 268.722656 62.996094 269.023438 63.351562 C 269.324219 63.734375 269.488281 64.226562 269.488281 64.828125 L 269.488281 65.566406 L 267.875 65.566406 C 265.933594 65.59375 264.429688 65.976562 263.390625 66.714844 C 262.324219 67.480469 261.832031 68.546875 261.832031 69.941406 C 261.832031 71.089844 262.269531 72.019531 263.117188 72.757812 C 263.964844 73.496094 265.03125 73.878906 266.316406 73.878906 C 267.683594 73.878906 268.804688 73.414062 269.652344 72.457031 C 269.679688 72.921875 269.816406 73.332031 269.980469 73.632812 Z M 267.109375 71.199219 C 266.535156 71.199219 266.125 71.0625 265.824219 70.761719 C 265.496094 70.460938 265.359375 70.105469 265.359375 69.667969 L 265.386719 69.476562 C 265.46875 68.273438 266.425781 67.644531 268.203125 67.644531 L 269.488281 67.644531 L 269.488281 69.914062 C 269.296875 70.324219 268.96875 70.625 268.53125 70.84375 C 268.066406 71.089844 267.601562 71.199219 267.109375 71.199219 Z M 267.109375 71.199219 "/>
<path fill-rule="nonzero" fill="rgb(0%, 0%, 0%)" fill-opacity="1" d="M 279.925781 57.226562 L 276.425781 57.226562 L 276.425781 60.453125 L 274.511719 60.453125 L 274.511719 63.023438 L 276.425781 63.023438 L 276.425781 70.132812 C 276.480469 72.648438 277.710938 73.878906 280.171875 73.878906 C 280.910156 73.878906 281.621094 73.769531 282.332031 73.550781 L 282.332031 70.898438 C 282.003906 70.953125 281.648438 70.980469 281.292969 70.980469 C 280.746094 70.980469 280.417969 70.898438 280.199219 70.652344 C 280.007812 70.460938 279.925781 70.105469 279.925781 69.613281 L 279.925781 63.023438 L 282.167969 63.023438 L 282.167969 60.453125 L 279.925781 60.453125 Z M 279.925781 57.226562 "/>
<path fill-rule="nonzero" fill="rgb(0%, 0%, 0%)" fill-opacity="1" d="M 283.195312 66.933594 L 283.195312 67.070312 C 283.195312 69.175781 283.742188 70.84375 284.890625 72.074219 C 286.011719 73.277344 287.542969 73.878906 289.429688 73.878906 C 291.316406 73.878906 292.847656 73.277344 293.996094 72.074219 C 295.117188 70.84375 295.691406 69.230469 295.691406 67.179688 L 295.664062 66.277344 C 295.527344 64.417969 294.898438 62.96875 293.777344 61.875 C 292.65625 60.753906 291.207031 60.207031 289.429688 60.207031 C 288.199219 60.207031 287.078125 60.507812 286.148438 61.054688 C 285.191406 61.601562 284.453125 62.421875 283.960938 63.433594 C 283.441406 64.445312 283.195312 65.621094 283.195312 66.933594 Z M 286.722656 67.179688 C 286.722656 65.785156 286.941406 64.746094 287.40625 64.089844 C 287.898438 63.40625 288.554688 63.050781 289.429688 63.050781 C 290.277344 63.050781 290.960938 63.40625 291.453125 64.089844 C 291.917969 64.746094 292.191406 65.703125 292.191406 66.933594 C 292.191406 68.382812 291.917969 69.421875 291.453125 70.078125 C 290.960938 70.707031 290.304688 71.035156 289.457031 71.035156 C 288.554688 71.035156 287.898438 70.707031 287.40625 70.050781 C 286.941406 69.394531 286.722656 68.410156 286.722656 67.179688 Z M 286.722656 67.179688 "/>
<path fill="none" stroke-width="1.99255" stroke-linecap="butt" stroke-linejoin="round" stroke="rgb(19.607843%, 19.607843%, 19.607843%)" stroke-opacity="1" stroke-miterlimit="10" d="M -88.416504 -33.848499 L 88.416085 -33.848499 L 88.416085 33.850161 L -88.416504 33.850161 Z M -88.416504 -33.848499 " transform="matrix(1.75, 0, 0, -1.75, 469.400757, 64.468251)"/>
<path fill-rule="nonzero" fill="rgb(0%, 0%, 0%)" fill-opacity="1" d="M 367.347656 56.480469 L 367.347656 37.777344 L 363.847656 37.777344 L 363.847656 56.480469 Z M 367.347656 56.480469 "/>
<path fill-rule="nonzero" fill="rgb(0%, 0%, 0%)" fill-opacity="1" d="M 369.6875 49.78125 L 369.6875 49.917969 C 369.6875 52.023438 370.234375 53.691406 371.382812 54.921875 C 372.503906 56.125 374.035156 56.726562 375.921875 56.726562 C 377.808594 56.726562 379.339844 56.125 380.488281 54.921875 C 381.609375 53.691406 382.183594 52.078125 382.183594 50.027344 L 382.15625 49.125 C 382.019531 47.265625 381.390625 45.816406 380.269531 44.722656 C 379.148438 43.601562 377.699219 43.054688 375.921875 43.054688 C 374.691406 43.054688 373.570312 43.355469 372.640625 43.902344 C 371.683594 44.449219 370.945312 45.269531 370.453125 46.28125 C 369.933594 47.292969 369.6875 48.46875 369.6875 49.78125 Z M 373.214844 50.027344 C 373.214844 48.632812 373.433594 47.59375 373.898438 46.9375 C 374.390625 46.253906 375.046875 45.898438 375.921875 45.898438 C 376.769531 45.898438 377.453125 46.253906 377.945312 46.9375 C 378.410156 47.59375 378.683594 48.550781 378.683594 49.78125 C 378.683594 51.230469 378.410156 52.269531 377.945312 52.925781 C 377.453125 53.554688 376.796875 53.882812 375.949219 53.882812 C 375.046875 53.882812 374.390625 53.554688 373.898438 52.898438 C 373.433594 52.242188 373.214844 51.257812 373.214844 50.027344 Z M 373.214844 50.027344 "/>
<path fill-rule="nonzero" fill="rgb(0%, 0%, 0%)" fill-opacity="1" d="M 404.492188 50.027344 L 404.492188 49.808594 C 404.492188 47.730469 404.054688 46.0625 403.152344 44.859375 C 402.25 43.65625 400.992188 43.054688 399.351562 43.054688 C 397.957031 43.054688 396.863281 43.574219 396.015625 44.585938 L 395.90625 43.300781 L 392.625 43.300781 L 392.625 61.539062 L 396.152344 61.539062 L 396.152344 55.332031 C 396.972656 56.289062 398.039062 56.726562 399.378906 56.726562 C 400.9375 56.726562 402.195312 56.125 403.097656 54.921875 C 404.027344 53.691406 404.492188 52.078125 404.492188 50.027344 Z M 400.992188 49.753906 C 400.992188 52.515625 400.144531 53.882812 398.476562 53.882812 C 397.355469 53.882812 396.5625 53.472656 396.152344 52.597656 L 396.152344 47.183594 C 396.5625 46.363281 397.355469 45.925781 398.449219 45.925781 C 399.242188 45.925781 399.871094 46.28125 400.308594 46.9375 C 400.773438 47.566406 400.992188 48.523438 400.992188 49.753906 Z M 400.992188 49.753906 "/>
<path fill-rule="nonzero" fill="rgb(0%, 0%, 0%)" fill-opacity="1" d="M 414.539062 55.140625 L 414.648438 56.480469 L 417.929688 56.480469 L 417.929688 43.300781 L 414.429688 43.300781 L 414.429688 52.652344 C 413.964844 53.5 413.144531 53.882812 411.96875 53.882812 C 410.710938 53.882812 410.082031 53.226562 410.082031 51.804688 L 410.082031 43.300781 L 406.582031 43.300781 L 406.582031 51.941406 C 406.582031 53.5 406.9375 54.703125 407.703125 55.496094 C 408.441406 56.34375 409.507812 56.726562 410.929688 56.726562 C 412.488281 56.726562 413.664062 56.179688 414.539062 55.140625 Z M 414.539062 55.140625 "/>
<path fill-rule="nonzero" fill="rgb(0%, 0%, 0%)" fill-opacity="1" d="M 426.640625 56.726562 C 427.734375 56.726562 428.71875 56.535156 429.621094 56.097656 C 430.523438 55.714844 431.234375 55.113281 431.78125 54.347656 L 430.058594 52.40625 C 429.292969 53.417969 428.226562 53.882812 426.886719 53.882812 C 425.984375 53.882812 425.273438 53.636719 424.699219 53.117188 C 424.125 52.625 423.769531 51.914062 423.660156 51.039062 L 432.082031 51.039062 L 432.082031 49.589844 C 432.082031 47.539062 431.5625 45.925781 430.496094 44.777344 C 429.457031 43.628906 428.0625 43.054688 426.257812 43.054688 C 425.027344 43.054688 423.960938 43.355469 423.058594 43.902344 C 422.101562 44.476562 421.363281 45.296875 420.871094 46.335938 C 420.351562 47.375 420.105469 48.550781 420.105469 49.863281 L 420.105469 50.21875 C 420.105469 52.1875 420.707031 53.773438 421.910156 54.949219 C 423.113281 56.152344 424.699219 56.726562 426.640625 56.726562 Z M 426.230469 45.898438 C 426.996094 45.898438 427.570312 46.144531 427.953125 46.554688 C 428.363281 46.992188 428.582031 47.566406 428.609375 48.359375 L 428.609375 48.660156 L 423.714844 48.660156 C 423.824219 47.785156 424.097656 47.101562 424.535156 46.636719 C 424.972656 46.144531 425.546875 45.898438 426.230469 45.898438 Z M 426.230469 45.898438 "/>
<path fill-rule="nonzero" fill="rgb(0%, 0%, 0%)" fill-opacity="1" d="M 433.488281 49.808594 C 433.488281 51.996094 433.953125 53.691406 434.882812 54.921875 C 435.839844 56.125 437.097656 56.726562 438.628906 56.726562 C 439.996094 56.726562 441.117188 56.179688 442.019531 55.085938 L 442.183594 56.480469 L 445.355469 56.480469 L 445.355469 37.777344 L 441.855469 37.777344 L 441.855469 44.503906 C 441.007812 43.574219 439.914062 43.054688 438.65625 43.054688 C 437.070312 43.054688 435.785156 43.683594 434.855469 44.886719 C 433.953125 46.117188 433.488281 47.757812 433.488281 49.808594 Z M 437.015625 50.054688 C 437.015625 47.292969 437.863281 45.925781 439.558594 45.925781 C 440.652344 45.925781 441.390625 46.417969 441.855469 47.292969 L 441.855469 52.488281 C 441.363281 53.445312 440.597656 53.882812 439.53125 53.882812 C 438.710938 53.882812 438.082031 53.554688 437.644531 52.898438 C 437.207031 52.242188 437.015625 51.285156 437.015625 50.054688 Z M 437.015625 50.054688 "/>
<path fill-rule="nonzero" fill="rgb(0%, 0%, 0%)" fill-opacity="1" d="M 454.140625 56.726562 C 455.234375 56.726562 456.21875 56.535156 457.121094 56.097656 C 458.023438 55.714844 458.734375 55.113281 459.28125 54.347656 L 457.558594 52.40625 C 456.792969 53.417969 455.726562 53.882812 454.386719 53.882812 C 453.484375 53.882812 452.773438 53.636719 452.199219 53.117188 C 451.625 52.625 451.269531 51.914062 451.160156 51.039062 L 459.582031 51.039062 L 459.582031 49.589844 C 459.582031 47.539062 459.0625 45.925781 457.996094 44.777344 C 456.957031 43.628906 455.5625 43.054688 453.757812 43.054688 C 452.527344 43.054688 451.460938 43.355469 450.558594 43.902344 C 449.601562 44.476562 448.863281 45.296875 448.371094 46.335938 C 447.851562 47.375 447.605469 48.550781 447.605469 49.863281 L 447.605469 50.21875 C 447.605469 52.1875 448.207031 53.773438 449.410156 54.949219 C 450.613281 56.152344 452.199219 56.726562 454.140625 56.726562 Z M 453.730469 45.898438 C 454.496094 45.898438 455.070312 46.144531 455.453125 46.554688 C 455.863281 46.992188 456.082031 47.566406 456.109375 48.359375 L 456.109375 48.660156 L 451.214844 48.660156 C 451.324219 47.785156 451.597656 47.101562 452.035156 46.636719 C 452.472656 46.144531 453.046875 45.898438 453.730469 45.898438 Z M 453.730469 45.898438 "/>
<path fill-rule="nonzero" fill="rgb(0%, 0%, 0%)" fill-opacity="1" d="M 475.933594 56.726562 C 477.027344 56.726562 478.011719 56.535156 478.914062 56.097656 C 479.816406 55.714844 480.527344 55.113281 481.074219 54.347656 L 479.351562 52.40625 C 478.585938 53.417969 477.519531 53.882812 476.179688 53.882812 C 475.277344 53.882812 474.566406 53.636719 473.992188 53.117188 C 473.417969 52.625 473.0625 51.914062 472.953125 51.039062 L 481.375 51.039062 L 481.375 49.589844 C 481.375 47.539062 480.855469 45.925781 479.789062 44.777344 C 478.75 43.628906 477.355469 43.054688 475.550781 43.054688 C 474.320312 43.054688 473.253906 43.355469 472.351562 43.902344 C 471.394531 44.476562 470.65625 45.296875 470.164062 46.335938 C 469.644531 47.375 469.398438 48.550781 469.398438 49.863281 L 469.398438 50.21875 C 469.398438 52.1875 470 53.773438 471.203125 54.949219 C 472.40625 56.152344 473.992188 56.726562 475.933594 56.726562 Z M 475.523438 45.898438 C 476.289062 45.898438 476.863281 46.144531 477.246094 46.554688 C 477.65625 46.992188 477.875 47.566406 477.902344 48.359375 L 477.902344 48.660156 L 473.007812 48.660156 C 473.117188 47.785156 473.390625 47.101562 473.828125 46.636719 C 474.265625 46.144531 474.839844 45.898438 475.523438 45.898438 Z M 475.523438 45.898438 "/>
<path fill-rule="nonzero" fill="rgb(0%, 0%, 0%)" fill-opacity="1" d="M 486.578125 43.300781 L 483.269531 43.300781 L 483.269531 56.480469 L 486.769531 56.480469 L 486.769531 47.183594 C 487.261719 46.363281 488.027344 45.925781 489.011719 45.925781 C 489.777344 45.925781 490.296875 46.117188 490.625 46.417969 C 490.925781 46.773438 491.117188 47.292969 491.117188 48.058594 L 491.117188 56.480469 L 494.617188 56.480469 L 494.617188 47.976562 C 494.589844 46.363281 494.261719 45.132812 493.578125 44.3125 C 492.894531 43.492188 491.855469 43.054688 490.460938 43.054688 C 488.875 43.054688 487.617188 43.65625 486.660156 44.832031 Z M 486.578125 43.300781 "/>
<path fill-rule="nonzero" fill="rgb(0%, 0%, 0%)" fill-opacity="1" d="M 502.78125 53.882812 C 501.933594 53.882812 501.277344 53.609375 500.894531 53.007812 C 500.457031 52.40625 500.265625 51.449219 500.265625 50.082031 L 500.265625 49.726562 C 500.265625 48.386719 500.457031 47.402344 500.894531 46.800781 C 501.304688 46.199219 501.933594 45.898438 502.753906 45.898438 C 503.410156 45.898438 503.957031 46.144531 504.339844 46.554688 C 504.75 46.992188 504.96875 47.539062 504.996094 48.195312 L 508.277344 48.195312 C 508.277344 46.664062 507.757812 45.433594 506.773438 44.476562 C 505.761719 43.546875 504.449219 43.054688 502.808594 43.054688 C 500.894531 43.054688 499.445312 43.683594 498.351562 44.886719 C 497.257812 46.089844 496.738281 47.703125 496.738281 49.726562 L 496.738281 49.972656 C 496.738281 52.078125 497.257812 53.746094 498.351562 54.921875 C 499.472656 56.125 500.921875 56.726562 502.835938 56.726562 C 503.820312 56.726562 504.75 56.535156 505.597656 56.097656 C 506.417969 55.714844 507.074219 55.140625 507.566406 54.375 C 508.03125 53.636719 508.277344 52.816406 508.277344 51.914062 L 504.996094 51.914062 C 504.96875 52.515625 504.75 53.007812 504.339844 53.363281 C 503.957031 53.71875 503.4375 53.882812 502.78125 53.882812 Z M 502.78125 53.882812 "/>
<path fill-rule="nonzero" fill="rgb(0%, 0%, 0%)" fill-opacity="1" d="M 509.730469 49.78125 L 509.730469 49.917969 C 509.730469 52.023438 510.277344 53.691406 511.425781 54.921875 C 512.546875 56.125 514.078125 56.726562 515.964844 56.726562 C 517.851562 56.726562 519.382812 56.125 520.53125 54.921875 C 521.652344 53.691406 522.226562 52.078125 522.226562 50.027344 L 522.199219 49.125 C 522.0625 47.265625 521.433594 45.816406 520.3125 44.722656 C 519.191406 43.601562 517.742188 43.054688 515.964844 43.054688 C 514.734375 43.054688 513.613281 43.355469 512.683594 43.902344 C 511.726562 44.449219 510.988281 45.269531 510.496094 46.28125 C 509.976562 47.292969 509.730469 48.46875 509.730469 49.78125 Z M 513.257812 50.027344 C 513.257812 48.632812 513.476562 47.59375 513.941406 46.9375 C 514.433594 46.253906 515.089844 45.898438 515.964844 45.898438 C 516.8125 45.898438 517.496094 46.253906 517.988281 46.9375 C 518.453125 47.59375 518.726562 48.550781 518.726562 49.78125 C 518.726562 51.230469 518.453125 52.269531 517.988281 52.925781 C 517.496094 53.554688 516.839844 53.882812 515.992188 53.882812 C 515.089844 53.882812 514.433594 53.554688 513.941406 52.898438 C 513.476562 52.242188 513.257812 51.257812 513.257812 50.027344 Z M 513.257812 50.027344 "/>
<path fill-rule="nonzero" fill="rgb(0%, 0%, 0%)" fill-opacity="1" d="M 527.617188 43.300781 L 524.308594 43.300781 L 524.308594 56.480469 L 527.808594 56.480469 L 527.808594 47.183594 C 528.300781 46.363281 529.066406 45.925781 530.050781 45.925781 C 530.816406 45.925781 531.335938 46.117188 531.664062 46.417969 C 531.964844 46.773438 532.15625 47.292969 532.15625 48.058594 L 532.15625 56.480469 L 535.65625 56.480469 L 535.65625 47.976562 C 535.628906 46.363281 535.300781 45.132812 534.617188 44.3125 C 533.933594 43.492188 532.894531 43.054688 531.5 43.054688 C 529.914062 43.054688 528.65625 43.65625 527.699219 44.832031 Z M 527.617188 43.300781 "/>
<path fill-rule="nonzero" fill="rgb(0%, 0%, 0%)" fill-opacity="1" d="M 542.535156 40.074219 L 539.035156 40.074219 L 539.035156 43.300781 L 537.121094 43.300781 L 537.121094 45.871094 L 539.035156 45.871094 L 539.035156 52.980469 C 539.089844 55.496094 540.320312 56.726562 542.78125 56.726562 C 543.519531 56.726562 544.230469 56.617188 544.941406 56.398438 L 544.941406 53.746094 C 544.613281 53.800781 544.257812 53.828125 543.902344 53.828125 C 543.355469 53.828125 543.027344 53.746094 542.808594 53.5 C 542.617188 53.308594 542.535156 52.953125 542.535156 52.460938 L 542.535156 45.871094 L 544.777344 45.871094 L 544.777344 43.300781 L 542.535156 43.300781 Z M 542.535156 40.074219 "/>
<path fill-rule="nonzero" fill="rgb(0%, 0%, 0%)" fill-opacity="1" d="M 554.136719 46.609375 L 554.191406 43.21875 C 553.835938 43.109375 553.453125 43.054688 553.097656 43.054688 C 551.8125 43.054688 550.855469 43.683594 550.144531 44.886719 L 550.0625 43.300781 L 546.726562 43.300781 L 546.726562 56.480469 L 550.253906 56.480469 L 550.253906 47.839844 C 550.636719 46.964844 551.511719 46.5 552.878906 46.5 C 553.207031 46.5 553.644531 46.554688 554.136719 46.609375 Z M 554.136719 46.609375 "/>
<path fill-rule="nonzero" fill="rgb(0%, 0%, 0%)" fill-opacity="1" d="M 563.054688 56.480469 L 566.636719 56.480469 L 566.636719 56.289062 C 566.28125 55.632812 566.117188 54.675781 566.117188 53.445312 L 566.117188 47.730469 C 566.117188 46.253906 565.625 45.105469 564.695312 44.285156 C 563.738281 43.492188 562.453125 43.054688 560.8125 43.054688 C 559.71875 43.054688 558.761719 43.273438 557.914062 43.601562 C 557.066406 43.984375 556.382812 44.476562 555.917969 45.132812 C 555.425781 45.789062 555.207031 46.5 555.207031 47.265625 L 558.734375 47.265625 C 558.734375 46.773438 558.871094 46.417969 559.226562 46.117188 C 559.554688 45.816406 560.019531 45.652344 560.621094 45.652344 C 561.304688 45.652344 561.796875 45.84375 562.097656 46.199219 C 562.398438 46.582031 562.5625 47.074219 562.5625 47.675781 L 562.5625 48.414062 L 560.949219 48.414062 C 559.007812 48.441406 557.503906 48.824219 556.464844 49.5625 C 555.398438 50.328125 554.90625 51.394531 554.90625 52.789062 C 554.90625 53.9375 555.34375 54.867188 556.191406 55.605469 C 557.039062 56.34375 558.105469 56.726562 559.390625 56.726562 C 560.757812 56.726562 561.878906 56.261719 562.726562 55.304688 C 562.753906 55.769531 562.890625 56.179688 563.054688 56.480469 Z M 560.183594 54.046875 C 559.609375 54.046875 559.199219 53.910156 558.898438 53.609375 C 558.570312 53.308594 558.433594 52.953125 558.433594 52.515625 L 558.460938 52.324219 C 558.542969 51.121094 559.5 50.492188 561.277344 50.492188 L 562.5625 50.492188 L 562.5625 52.761719 C 562.371094 53.171875 562.042969 53.472656 561.605469 53.691406 C 561.140625 53.9375 560.675781 54.046875 560.183594 54.046875 Z M 560.183594 54.046875 "/>
<path fill-rule="nonzero" fill="rgb(0%, 0%, 0%)" fill-opacity="1" d="M 576.199219 46.609375 L 576.253906 43.21875 C 575.898438 43.109375 575.515625 43.054688 575.160156 43.054688 C 573.875 43.054688 572.917969 43.683594 572.207031 44.886719 L 572.125 43.300781 L 568.789062 43.300781 L 568.789062 56.480469 L 572.316406 56.480469 L 572.316406 47.839844 C 572.699219 46.964844 573.574219 46.5 574.941406 46.5 C 575.269531 46.5 575.707031 46.554688 576.199219 46.609375 Z M 576.199219 46.609375 "/>
<path fill-rule="nonzero" fill="rgb(0%, 0%, 0%)" fill-opacity="1" d="M 407.496094 76.074219 L 407.550781 72.683594 C 407.195312 72.574219 406.8125 72.519531 406.457031 72.519531 C 405.171875 72.519531 404.214844 73.148438 403.503906 74.351562 L 403.421875 72.765625 L 400.085938 72.765625 L 400.085938 85.945312 L 403.613281 85.945312 L 403.613281 77.304688 C 403.996094 76.429688 404.871094 75.964844 406.238281 75.964844 C 406.566406 75.964844 407.003906 76.019531 407.496094 76.074219 Z M 407.496094 76.074219 "/>
<path fill-rule="nonzero" fill="rgb(0%, 0%, 0%)" fill-opacity="1" d="M 414.011719 67.03125 L 411.605469 70.804688 L 414.476562 70.804688 L 417.839844 67.03125 Z M 414.011719 67.03125 "/>
<path fill-rule="nonzero" fill="rgb(0%, 0%, 0%)" fill-opacity="1" d="M 416.789062 85.945312 L 420.371094 85.945312 L 420.371094 85.753906 C 420.015625 85.097656 419.851562 84.140625 419.851562 82.910156 L 419.851562 77.195312 C 419.851562 75.71875 419.359375 74.570312 418.429688 73.75 C 417.472656 72.957031 416.1875 72.519531 414.546875 72.519531 C 413.453125 72.519531 412.496094 72.738281 411.648438 73.066406 C 410.800781 73.449219 410.117188 73.941406 409.652344 74.597656 C 409.160156 75.253906 408.941406 75.964844 408.941406 76.730469 L 412.46875 76.730469 C 412.46875 76.238281 412.605469 75.882812 412.960938 75.582031 C 413.289062 75.28125 413.753906 75.117188 414.355469 75.117188 C 415.039062 75.117188 415.53125 75.308594 415.832031 75.664062 C 416.132812 76.046875 416.296875 76.539062 416.296875 77.140625 L 416.296875 77.878906 L 414.683594 77.878906 C 412.742188 77.90625 411.238281 78.289062 410.199219 79.027344 C 409.132812 79.792969 408.640625 80.859375 408.640625 82.253906 C 408.640625 83.402344 409.078125 84.332031 409.925781 85.070312 C 410.773438 85.808594 411.839844 86.191406 413.125 86.191406 C 414.492188 86.191406 415.613281 85.726562 416.460938 84.769531 C 416.488281 85.234375 416.625 85.644531 416.789062 85.945312 Z M 413.917969 83.511719 C 413.34375 83.511719 412.933594 83.375 412.632812 83.074219 C 412.304688 82.773438 412.167969 82.417969 412.167969 81.980469 L 412.195312 81.789062 C 412.277344 80.585938 413.234375 79.957031 415.011719 79.957031 L 416.296875 79.957031 L 416.296875 82.226562 C 416.105469 82.636719 415.777344 82.9375 415.339844 83.15625 C 414.875 83.402344 414.410156 83.511719 413.917969 83.511719 Z M 413.917969 83.511719 "/>
<path fill-rule="nonzero" fill="rgb(0%, 0%, 0%)" fill-opacity="1" d="M 434.390625 79.492188 L 434.390625 79.273438 C 434.390625 77.195312 433.953125 75.527344 433.050781 74.324219 C 432.148438 73.121094 430.890625 72.519531 429.25 72.519531 C 427.855469 72.519531 426.761719 73.039062 425.914062 74.050781 L 425.804688 72.765625 L 422.523438 72.765625 L 422.523438 91.003906 L 426.050781 91.003906 L 426.050781 84.796875 C 426.871094 85.753906 427.9375 86.191406 429.277344 86.191406 C 430.835938 86.191406 432.09375 85.589844 432.996094 84.386719 C 433.925781 83.15625 434.390625 81.542969 434.390625 79.492188 Z M 430.890625 79.21875 C 430.890625 81.980469 430.042969 83.347656 428.375 83.347656 C 427.253906 83.347656 426.460938 82.9375 426.050781 82.0625 L 426.050781 76.648438 C 426.460938 75.828125 427.253906 75.390625 428.347656 75.390625 C 429.140625 75.390625 429.769531 75.746094 430.207031 76.402344 C 430.671875 77.03125 430.890625 77.988281 430.890625 79.21875 Z M 430.890625 79.21875 "/>
<path fill-rule="nonzero" fill="rgb(0%, 0%, 0%)" fill-opacity="1" d="M 440.253906 85.945312 L 440.253906 72.765625 L 436.753906 72.765625 L 436.753906 85.945312 Z M 436.507812 69.375 C 436.507812 69.921875 436.699219 70.332031 437.054688 70.6875 C 437.410156 71.042969 437.875 71.179688 438.476562 71.179688 C 439.078125 71.179688 439.570312 71.042969 439.898438 70.6875 C 440.253906 70.332031 440.445312 69.921875 440.445312 69.375 C 440.445312 68.828125 440.253906 68.417969 439.898438 68.0625 C 439.570312 67.707031 439.078125 67.542969 438.476562 67.542969 C 437.875 67.542969 437.382812 67.707031 437.027344 68.0625 C 436.699219 68.417969 436.507812 68.828125 436.507812 69.375 Z M 436.507812 69.375 "/>
<path fill-rule="nonzero" fill="rgb(0%, 0%, 0%)" fill-opacity="1" d="M 442.59375 79.273438 C 442.59375 81.460938 443.058594 83.15625 443.988281 84.386719 C 444.945312 85.589844 446.203125 86.191406 447.734375 86.191406 C 449.101562 86.191406 450.222656 85.644531 451.125 84.550781 L 451.289062 85.945312 L 454.460938 85.945312 L 454.460938 67.242188 L 450.960938 67.242188 L 450.960938 73.96875 C 450.113281 73.039062 449.019531 72.519531 447.761719 72.519531 C 446.175781 72.519531 444.890625 73.148438 443.960938 74.351562 C 443.058594 75.582031 442.59375 77.222656 442.59375 79.273438 Z M 446.121094 79.519531 C 446.121094 76.757812 446.96875 75.390625 448.664062 75.390625 C 449.757812 75.390625 450.496094 75.882812 450.960938 76.757812 L 450.960938 81.953125 C 450.46875 82.910156 449.703125 83.347656 448.636719 83.347656 C 447.816406 83.347656 447.1875 83.019531 446.75 82.363281 C 446.3125 81.707031 446.121094 80.75 446.121094 79.519531 Z M 446.121094 79.519531 "/>
<path fill-rule="nonzero" fill="rgb(0%, 0%, 0%)" fill-opacity="1" d="M 464.808594 85.945312 L 468.390625 85.945312 L 468.390625 85.753906 C 468.035156 85.097656 467.871094 84.140625 467.871094 82.910156 L 467.871094 77.195312 C 467.871094 75.71875 467.378906 74.570312 466.449219 73.75 C 465.492188 72.957031 464.207031 72.519531 462.566406 72.519531 C 461.472656 72.519531 460.515625 72.738281 459.667969 73.066406 C 458.820312 73.449219 458.136719 73.941406 457.671875 74.597656 C 457.179688 75.253906 456.960938 75.964844 456.960938 76.730469 L 460.488281 76.730469 C 460.488281 76.238281 460.625 75.882812 460.980469 75.582031 C 461.308594 75.28125 461.773438 75.117188 462.375 75.117188 C 463.058594 75.117188 463.550781 75.308594 463.851562 75.664062 C 464.152344 76.046875 464.316406 76.539062 464.316406 77.140625 L 464.316406 77.878906 L 462.703125 77.878906 C 460.761719 77.90625 459.257812 78.289062 458.21875 79.027344 C 457.152344 79.792969 456.660156 80.859375 456.660156 82.253906 C 456.660156 83.402344 457.097656 84.332031 457.945312 85.070312 C 458.792969 85.808594 459.859375 86.191406 461.144531 86.191406 C 462.511719 86.191406 463.632812 85.726562 464.480469 84.769531 C 464.507812 85.234375 464.644531 85.644531 464.808594 85.945312 Z M 461.9375 83.511719 C 461.363281 83.511719 460.953125 83.375 460.652344 83.074219 C 460.324219 82.773438 460.1875 82.417969 460.1875 81.980469 L 460.214844 81.789062 C 460.296875 80.585938 461.253906 79.957031 463.03125 79.957031 L 464.316406 79.957031 L 464.316406 82.226562 C 464.125 82.636719 463.796875 82.9375 463.359375 83.15625 C 462.894531 83.402344 462.429688 83.511719 461.9375 83.511719 Z M 461.9375 83.511719 "/>
<path fill-rule="nonzero" fill="rgb(0%, 0%, 0%)" fill-opacity="1" d="M 473.878906 72.765625 L 470.542969 72.765625 L 470.542969 85.945312 L 474.070312 85.945312 L 474.070312 76.621094 C 474.507812 75.828125 475.246094 75.390625 476.230469 75.390625 C 476.96875 75.390625 477.488281 75.582031 477.789062 75.910156 C 478.089844 76.265625 478.226562 76.8125 478.226562 77.578125 L 478.226562 85.945312 L 481.753906 85.945312 L 481.726562 76.894531 C 482.109375 75.882812 482.875 75.390625 483.914062 75.390625 C 484.652344 75.390625 485.171875 75.582031 485.472656 75.910156 C 485.773438 76.265625 485.910156 76.785156 485.910156 77.550781 L 485.910156 85.945312 L 489.464844 85.945312 L 489.464844 77.550781 C 489.464844 75.882812 489.109375 74.625 488.398438 73.777344 C 487.714844 72.957031 486.621094 72.519531 485.226562 72.519531 C 483.503906 72.519531 482.164062 73.175781 481.234375 74.515625 C 480.605469 73.203125 479.457031 72.519531 477.761719 72.519531 C 476.148438 72.519531 474.890625 73.09375 473.960938 74.242188 Z M 473.878906 72.765625 "/>
<path fill-rule="nonzero" fill="rgb(0%, 0%, 0%)" fill-opacity="1" d="M 498.175781 86.191406 C 499.269531 86.191406 500.253906 86 501.15625 85.5625 C 502.058594 85.179688 502.769531 84.578125 503.316406 83.8125 L 501.59375 81.871094 C 500.828125 82.882812 499.761719 83.347656 498.421875 83.347656 C 497.519531 83.347656 496.808594 83.101562 496.234375 82.582031 C 495.660156 82.089844 495.304688 81.378906 495.195312 80.503906 L 503.617188 80.503906 L 503.617188 79.054688 C 503.617188 77.003906 503.097656 75.390625 502.03125 74.242188 C 500.992188 73.09375 499.597656 72.519531 497.792969 72.519531 C 496.5625 72.519531 495.496094 72.820312 494.59375 73.367188 C 493.636719 73.941406 492.898438 74.761719 492.40625 75.800781 C 491.886719 76.839844 491.640625 78.015625 491.640625 79.328125 L 491.640625 79.683594 C 491.640625 81.652344 492.242188 83.238281 493.445312 84.414062 C 494.648438 85.617188 496.234375 86.191406 498.175781 86.191406 Z M 497.765625 75.363281 C 498.53125 75.363281 499.105469 75.609375 499.488281 76.019531 C 499.898438 76.457031 500.117188 77.03125 500.144531 77.824219 L 500.144531 78.125 L 495.25 78.125 C 495.359375 77.25 495.632812 76.566406 496.070312 76.101562 C 496.507812 75.609375 497.082031 75.363281 497.765625 75.363281 Z M 497.765625 75.363281 "/>
<path fill-rule="nonzero" fill="rgb(0%, 0%, 0%)" fill-opacity="1" d="M 508.824219 72.765625 L 505.515625 72.765625 L 505.515625 85.945312 L 509.015625 85.945312 L 509.015625 76.648438 C 509.507812 75.828125 510.273438 75.390625 511.257812 75.390625 C 512.023438 75.390625 512.542969 75.582031 512.871094 75.882812 C 513.171875 76.238281 513.363281 76.757812 513.363281 77.523438 L 513.363281 85.945312 L 516.863281 85.945312 L 516.863281 77.441406 C 516.835938 75.828125 516.507812 74.597656 515.824219 73.777344 C 515.140625 72.957031 514.101562 72.519531 512.707031 72.519531 C 511.121094 72.519531 509.863281 73.121094 508.90625 74.296875 Z M 508.824219 72.765625 "/>
<path fill-rule="nonzero" fill="rgb(0%, 0%, 0%)" fill-opacity="1" d="M 523.742188 69.539062 L 520.242188 69.539062 L 520.242188 72.765625 L 518.328125 72.765625 L 518.328125 75.335938 L 520.242188 75.335938 L 520.242188 82.445312 C 520.296875 84.960938 521.527344 86.191406 523.988281 86.191406 C 524.726562 86.191406 525.4375 86.082031 526.148438 85.863281 L 526.148438 83.210938 C 525.820312 83.265625 525.464844 83.292969 525.109375 83.292969 C 524.5625 83.292969 524.234375 83.210938 524.015625 82.964844 C 523.824219 82.773438 523.742188 82.417969 523.742188 81.925781 L 523.742188 75.335938 L 525.984375 75.335938 L 525.984375 72.765625 L 523.742188 72.765625 Z M 523.742188 69.539062 "/>
<path fill-rule="nonzero" fill="rgb(0%, 0%, 0%)" fill-opacity="1" d="M 534.003906 86.191406 C 535.097656 86.191406 536.082031 86 536.984375 85.5625 C 537.886719 85.179688 538.597656 84.578125 539.144531 83.8125 L 537.421875 81.871094 C 536.65625 82.882812 535.589844 83.347656 534.25 83.347656 C 533.347656 83.347656 532.636719 83.101562 532.0625 82.582031 C 531.488281 82.089844 531.132812 81.378906 531.023438 80.503906 L 539.445312 80.503906 L 539.445312 79.054688 C 539.445312 77.003906 538.925781 75.390625 537.859375 74.242188 C 536.820312 73.09375 535.425781 72.519531 533.621094 72.519531 C 532.390625 72.519531 531.324219 72.820312 530.421875 73.367188 C 529.464844 73.941406 528.726562 74.761719 528.234375 75.800781 C 527.714844 76.839844 527.46875 78.015625 527.46875 79.328125 L 527.46875 79.683594 C 527.46875 81.652344 528.070312 83.238281 529.273438 84.414062 C 530.476562 85.617188 532.0625 86.191406 534.003906 86.191406 Z M 533.59375 75.363281 C 534.359375 75.363281 534.933594 75.609375 535.316406 76.019531 C 535.726562 76.457031 535.945312 77.03125 535.972656 77.824219 L 535.972656 78.125 L 531.078125 78.125 C 531.1875 77.25 531.460938 76.566406 531.898438 76.101562 C 532.335938 75.609375 532.910156 75.363281 533.59375 75.363281 Z M 533.59375 75.363281 "/>
<path fill="none" stroke-width="1.99255" stroke-linecap="butt" stroke-linejoin="round" stroke="rgb(19.607843%, 19.607843%, 19.607843%)" stroke-opacity="1" stroke-miterlimit="10" d="M -88.415375 -33.848499 L 88.41275 -33.848499 L 88.41275 33.850161 L -88.415375 33.850161 Z M -88.415375 -33.848499 " transform="matrix(1.75, 0, 0, -1.75, 778.848, 64.468251)"/>
<path fill-rule="nonzero" fill="rgb(0%, 0%, 0%)" fill-opacity="1" d="M 725.171875 42.597656 L 721.671875 42.597656 L 721.671875 45.824219 L 719.757812 45.824219 L 719.757812 48.394531 L 721.671875 48.394531 L 721.671875 55.503906 C 721.726562 58.019531 722.957031 59.25 725.417969 59.25 C 726.15625 59.25 726.867188 59.140625 727.578125 58.921875 L 727.578125 56.269531 C 727.25 56.324219 726.894531 56.351562 726.539062 56.351562 C 725.992188 56.351562 725.664062 56.269531 725.445312 56.023438 C 725.253906 55.832031 725.171875 55.476562 725.171875 54.984375 L 725.171875 48.394531 L 727.414062 48.394531 L 727.414062 45.824219 L 725.171875 45.824219 Z M 725.171875 42.597656 "/>
<path fill-rule="nonzero" fill="rgb(0%, 0%, 0%)" fill-opacity="1" d="M 728.441406 52.304688 L 728.441406 52.441406 C 728.441406 54.546875 728.988281 56.214844 730.136719 57.445312 C 731.257812 58.648438 732.789062 59.25 734.675781 59.25 C 736.5625 59.25 738.09375 58.648438 739.242188 57.445312 C 740.363281 56.214844 740.9375 54.601562 740.9375 52.550781 L 740.910156 51.648438 C 740.773438 49.789062 740.144531 48.339844 739.023438 47.246094 C 737.902344 46.125 736.453125 45.578125 734.675781 45.578125 C 733.445312 45.578125 732.324219 45.878906 731.394531 46.425781 C 730.4375 46.972656 729.699219 47.792969 729.207031 48.804688 C 728.6875 49.816406 728.441406 50.992188 728.441406 52.304688 Z M 731.96875 52.550781 C 731.96875 51.15625 732.1875 50.117188 732.652344 49.460938 C 733.144531 48.777344 733.800781 48.421875 734.675781 48.421875 C 735.523438 48.421875 736.207031 48.777344 736.699219 49.460938 C 737.164062 50.117188 737.4375 51.074219 737.4375 52.304688 C 737.4375 53.753906 737.164062 54.792969 736.699219 55.449219 C 736.207031 56.078125 735.550781 56.40625 734.703125 56.40625 C 733.800781 56.40625 733.144531 56.078125 732.652344 55.421875 C 732.1875 54.765625 731.96875 53.78125 731.96875 52.550781 Z M 731.96875 52.550781 "/>
<path fill-rule="nonzero" fill="rgb(0%, 0%, 0%)" fill-opacity="1" d="M 742.527344 52.332031 C 742.527344 54.519531 742.992188 56.214844 743.921875 57.445312 C 744.878906 58.648438 746.136719 59.25 747.667969 59.25 C 749.035156 59.25 750.15625 58.703125 751.058594 57.609375 L 751.222656 59.003906 L 754.394531 59.003906 L 754.394531 40.300781 L 750.894531 40.300781 L 750.894531 47.027344 C 750.046875 46.097656 748.953125 45.578125 747.695312 45.578125 C 746.109375 45.578125 744.824219 46.207031 743.894531 47.410156 C 742.992188 48.640625 742.527344 50.28125 742.527344 52.332031 Z M 746.054688 52.578125 C 746.054688 49.816406 746.902344 48.449219 748.597656 48.449219 C 749.691406 48.449219 750.429688 48.941406 750.894531 49.816406 L 750.894531 55.011719 C 750.402344 55.96875 749.636719 56.40625 748.570312 56.40625 C 747.75 56.40625 747.121094 56.078125 746.683594 55.421875 C 746.246094 54.765625 746.054688 53.808594 746.054688 52.578125 Z M 746.054688 52.578125 "/>
<path fill-rule="nonzero" fill="rgb(0%, 0%, 0%)" fill-opacity="1" d="M 764.738281 59.003906 L 768.320312 59.003906 L 768.320312 58.8125 C 767.964844 58.15625 767.800781 57.199219 767.800781 55.96875 L 767.800781 50.253906 C 767.800781 48.777344 767.308594 47.628906 766.378906 46.808594 C 765.421875 46.015625 764.136719 45.578125 762.496094 45.578125 C 761.402344 45.578125 760.445312 45.796875 759.597656 46.125 C 758.75 46.507812 758.066406 47 757.601562 47.65625 C 757.109375 48.3125 756.890625 49.023438 756.890625 49.789062 L 760.417969 49.789062 C 760.417969 49.296875 760.554688 48.941406 760.910156 48.640625 C 761.238281 48.339844 761.703125 48.175781 762.304688 48.175781 C 762.988281 48.175781 763.480469 48.367188 763.78125 48.722656 C 764.082031 49.105469 764.246094 49.597656 764.246094 50.199219 L 764.246094 50.9375 L 762.632812 50.9375 C 760.691406 50.964844 759.1875 51.347656 758.148438 52.085938 C 757.082031 52.851562 756.589844 53.917969 756.589844 55.3125 C 756.589844 56.460938 757.027344 57.390625 757.875 58.128906 C 758.722656 58.867188 759.789062 59.25 761.074219 59.25 C 762.441406 59.25 763.5625 58.785156 764.410156 57.828125 C 764.4375 58.292969 764.574219 58.703125 764.738281 59.003906 Z M 761.867188 56.570312 C 761.292969 56.570312 760.882812 56.433594 760.582031 56.132812 C 760.253906 55.832031 760.117188 55.476562 760.117188 55.039062 L 760.144531 54.847656 C 760.226562 53.644531 761.183594 53.015625 762.960938 53.015625 L 764.246094 53.015625 L 764.246094 55.285156 C 764.054688 55.695312 763.726562 55.996094 763.289062 56.214844 C 762.824219 56.460938 762.359375 56.570312 761.867188 56.570312 Z M 761.867188 56.570312 "/>
<path fill-rule="nonzero" fill="rgb(0%, 0%, 0%)" fill-opacity="1" d="M 775.246094 54.710938 L 772.785156 45.824219 L 769.09375 45.824219 L 773.578125 59.003906 L 776.914062 59.003906 L 781.371094 45.824219 L 777.679688 45.824219 Z M 775.246094 54.710938 "/>
<path fill-rule="nonzero" fill="rgb(0%, 0%, 0%)" fill-opacity="1" d="M 784.464844 40.089844 L 782.058594 43.863281 L 784.929688 43.863281 L 788.292969 40.089844 Z M 784.464844 40.089844 "/>
<path fill-rule="nonzero" fill="rgb(0%, 0%, 0%)" fill-opacity="1" d="M 786.71875 59.003906 L 786.71875 45.824219 L 783.164062 45.824219 L 783.164062 59.003906 Z M 786.71875 59.003906 "/>
<path fill-rule="nonzero" fill="rgb(0%, 0%, 0%)" fill-opacity="1" d="M 797.324219 59.003906 L 800.90625 59.003906 L 800.90625 58.8125 C 800.550781 58.15625 800.386719 57.199219 800.386719 55.96875 L 800.386719 50.253906 C 800.386719 48.777344 799.894531 47.628906 798.964844 46.808594 C 798.007812 46.015625 796.722656 45.578125 795.082031 45.578125 C 793.988281 45.578125 793.03125 45.796875 792.183594 46.125 C 791.335938 46.507812 790.652344 47 790.1875 47.65625 C 789.695312 48.3125 789.476562 49.023438 789.476562 49.789062 L 793.003906 49.789062 C 793.003906 49.296875 793.140625 48.941406 793.496094 48.640625 C 793.824219 48.339844 794.289062 48.175781 794.890625 48.175781 C 795.574219 48.175781 796.066406 48.367188 796.367188 48.722656 C 796.667969 49.105469 796.832031 49.597656 796.832031 50.199219 L 796.832031 50.9375 L 795.21875 50.9375 C 793.277344 50.964844 791.773438 51.347656 790.734375 52.085938 C 789.667969 52.851562 789.175781 53.917969 789.175781 55.3125 C 789.175781 56.460938 789.613281 57.390625 790.460938 58.128906 C 791.308594 58.867188 792.375 59.25 793.660156 59.25 C 795.027344 59.25 796.148438 58.785156 796.996094 57.828125 C 797.023438 58.292969 797.160156 58.703125 797.324219 59.003906 Z M 794.453125 56.570312 C 793.878906 56.570312 793.46875 56.433594 793.167969 56.132812 C 792.839844 55.832031 792.703125 55.476562 792.703125 55.039062 L 792.730469 54.847656 C 792.8125 53.644531 793.769531 53.015625 795.546875 53.015625 L 796.832031 53.015625 L 796.832031 55.285156 C 796.640625 55.695312 796.3125 55.996094 795.875 56.214844 C 795.410156 56.460938 794.945312 56.570312 794.453125 56.570312 Z M 794.453125 56.570312 "/>
<path fill-rule="nonzero" fill="rgb(0%, 0%, 0%)" fill-opacity="1" d="M 814.617188 45.824219 L 811.308594 45.824219 L 811.308594 59.003906 L 814.808594 59.003906 L 814.808594 49.707031 C 815.300781 48.886719 816.066406 48.449219 817.050781 48.449219 C 817.816406 48.449219 818.335938 48.640625 818.664062 48.941406 C 818.964844 49.296875 819.15625 49.816406 819.15625 50.582031 L 819.15625 59.003906 L 822.65625 59.003906 L 822.65625 50.5 C 822.628906 48.886719 822.300781 47.65625 821.617188 46.835938 C 820.933594 46.015625 819.894531 45.578125 818.5 45.578125 C 816.914062 45.578125 815.65625 46.179688 814.699219 47.355469 Z M 814.617188 45.824219 "/>
<path fill-rule="nonzero" fill="rgb(0%, 0%, 0%)" fill-opacity="1" d="M 824.777344 52.304688 L 824.777344 52.441406 C 824.777344 54.546875 825.324219 56.214844 826.472656 57.445312 C 827.59375 58.648438 829.125 59.25 831.011719 59.25 C 832.898438 59.25 834.429688 58.648438 835.578125 57.445312 C 836.699219 56.214844 837.273438 54.601562 837.273438 52.550781 L 837.246094 51.648438 C 837.109375 49.789062 836.480469 48.339844 835.359375 47.246094 C 834.238281 46.125 832.789062 45.578125 831.011719 45.578125 C 829.78125 45.578125 828.660156 45.878906 827.730469 46.425781 C 826.773438 46.972656 826.035156 47.792969 825.542969 48.804688 C 825.023438 49.816406 824.777344 50.992188 824.777344 52.304688 Z M 828.304688 52.550781 C 828.304688 51.15625 828.523438 50.117188 828.988281 49.460938 C 829.480469 48.777344 830.136719 48.421875 831.011719 48.421875 C 831.859375 48.421875 832.542969 48.777344 833.035156 49.460938 C 833.5 50.117188 833.773438 51.074219 833.773438 52.304688 C 833.773438 53.753906 833.5 54.792969 833.035156 55.449219 C 832.542969 56.078125 831.886719 56.40625 831.039062 56.40625 C 830.136719 56.40625 829.480469 56.078125 828.988281 55.421875 C 828.523438 54.765625 828.304688 53.78125 828.304688 52.550781 Z M 828.304688 52.550781 "/>
<path fill-rule="nonzero" fill="rgb(0%, 0%, 0%)" fill-opacity="1" d="M 728.703125 84.832031 C 728.703125 85.242188 728.539062 85.597656 728.183594 85.84375 C 727.828125 86.089844 727.335938 86.226562 726.652344 86.226562 C 725.941406 86.226562 725.367188 86.0625 724.929688 85.734375 C 724.492188 85.40625 724.273438 84.914062 724.246094 84.285156 L 720.910156 84.285156 C 720.910156 85.078125 721.128906 85.816406 721.621094 86.5 C 722.113281 87.183594 722.796875 87.730469 723.644531 88.113281 C 724.492188 88.523438 725.476562 88.714844 726.597656 88.714844 C 728.238281 88.714844 729.550781 88.332031 730.589844 87.59375 C 731.628906 86.855469 732.148438 85.871094 732.148438 84.667969 C 732.148438 83 731.191406 81.824219 729.359375 81.140625 C 728.757812 80.949219 728.019531 80.730469 727.144531 80.566406 C 726.242188 80.402344 725.613281 80.183594 725.257812 79.9375 C 724.902344 79.691406 724.710938 79.390625 724.710938 78.980469 C 724.710938 78.597656 724.875 78.242188 725.175781 77.96875 C 725.476562 77.695312 725.96875 77.558594 726.570312 77.558594 C 727.253906 77.558594 727.746094 77.722656 728.074219 78.050781 C 728.402344 78.40625 728.59375 78.789062 728.59375 79.28125 L 732.09375 79.28125 C 732.09375 78.050781 731.601562 77.039062 730.589844 76.246094 C 729.605469 75.453125 728.265625 75.042969 726.597656 75.042969 C 725.011719 75.042969 723.753906 75.453125 722.769531 76.21875 C 721.785156 77.011719 721.320312 77.996094 721.320312 79.144531 C 721.320312 81.167969 722.878906 82.507812 726.023438 83.164062 C 726.953125 83.355469 727.636719 83.546875 728.046875 83.792969 C 728.484375 84.066406 728.703125 84.394531 728.703125 84.832031 Z M 728.703125 84.832031 "/>
<path fill-rule="nonzero" fill="rgb(0%, 0%, 0%)" fill-opacity="1" d="M 740.453125 88.714844 C 741.546875 88.714844 742.53125 88.523438 743.433594 88.085938 C 744.335938 87.703125 745.046875 87.101562 745.59375 86.335938 L 743.871094 84.394531 C 743.105469 85.40625 742.039062 85.871094 740.699219 85.871094 C 739.796875 85.871094 739.085938 85.625 738.511719 85.105469 C 737.9375 84.613281 737.582031 83.902344 737.472656 83.027344 L 745.894531 83.027344 L 745.894531 81.578125 C 745.894531 79.527344 745.375 77.914062 744.308594 76.765625 C 743.269531 75.617188 741.875 75.042969 740.070312 75.042969 C 738.839844 75.042969 737.773438 75.34375 736.871094 75.890625 C 735.914062 76.464844 735.175781 77.285156 734.683594 78.324219 C 734.164062 79.363281 733.917969 80.539062 733.917969 81.851562 L 733.917969 82.207031 C 733.917969 84.175781 734.519531 85.761719 735.722656 86.9375 C 736.925781 88.140625 738.511719 88.714844 740.453125 88.714844 Z M 740.042969 77.886719 C 740.808594 77.886719 741.382812 78.132812 741.765625 78.542969 C 742.175781 78.980469 742.394531 79.554688 742.421875 80.347656 L 742.421875 80.648438 L 737.527344 80.648438 C 737.636719 79.773438 737.910156 79.089844 738.347656 78.625 C 738.785156 78.132812 739.359375 77.886719 740.042969 77.886719 Z M 740.042969 77.886719 "/>
<path fill-rule="nonzero" fill="rgb(0%, 0%, 0%)" fill-opacity="1" d="M 759.863281 88.46875 L 759.863281 69.765625 L 756.363281 69.765625 L 756.363281 88.46875 Z M 759.863281 88.46875 "/>
<path fill-rule="nonzero" fill="rgb(0%, 0%, 0%)" fill-opacity="1" d="M 762.207031 81.769531 L 762.207031 81.90625 C 762.207031 84.011719 762.753906 85.679688 763.902344 86.910156 C 765.023438 88.113281 766.554688 88.714844 768.441406 88.714844 C 770.328125 88.714844 771.859375 88.113281 773.007812 86.910156 C 774.128906 85.679688 774.703125 84.066406 774.703125 82.015625 L 774.675781 81.113281 C 774.539062 79.253906 773.910156 77.804688 772.789062 76.710938 C 771.667969 75.589844 770.21875 75.042969 768.441406 75.042969 C 767.210938 75.042969 766.089844 75.34375 765.160156 75.890625 C 764.203125 76.4375 763.464844 77.257812 762.972656 78.269531 C 762.453125 79.28125 762.207031 80.457031 762.207031 81.769531 Z M 765.734375 82.015625 C 765.734375 80.621094 765.953125 79.582031 766.417969 78.925781 C 766.910156 78.242188 767.566406 77.886719 768.441406 77.886719 C 769.289062 77.886719 769.972656 78.242188 770.464844 78.925781 C 770.929688 79.582031 771.203125 80.539062 771.203125 81.769531 C 771.203125 83.21875 770.929688 84.257812 770.464844 84.914062 C 769.972656 85.542969 769.316406 85.871094 768.46875 85.871094 C 767.566406 85.871094 766.910156 85.542969 766.417969 84.886719 C 765.953125 84.230469 765.734375 83.246094 765.734375 82.015625 Z M 765.734375 82.015625 "/>
<path fill-rule="nonzero" fill="rgb(0%, 0%, 0%)" fill-opacity="1" d="M 792.304688 84.832031 C 792.304688 85.242188 792.140625 85.597656 791.785156 85.84375 C 791.429688 86.089844 790.9375 86.226562 790.253906 86.226562 C 789.542969 86.226562 788.96875 86.0625 788.53125 85.734375 C 788.09375 85.40625 787.875 84.914062 787.847656 84.285156 L 784.511719 84.285156 C 784.511719 85.078125 784.730469 85.816406 785.222656 86.5 C 785.714844 87.183594 786.398438 87.730469 787.246094 88.113281 C 788.09375 88.523438 789.078125 88.714844 790.199219 88.714844 C 791.839844 88.714844 793.152344 88.332031 794.191406 87.59375 C 795.230469 86.855469 795.75 85.871094 795.75 84.667969 C 795.75 83 794.792969 81.824219 792.960938 81.140625 C 792.359375 80.949219 791.621094 80.730469 790.746094 80.566406 C 789.84375 80.402344 789.214844 80.183594 788.859375 79.9375 C 788.503906 79.691406 788.3125 79.390625 788.3125 78.980469 C 788.3125 78.597656 788.476562 78.242188 788.777344 77.96875 C 789.078125 77.695312 789.570312 77.558594 790.171875 77.558594 C 790.855469 77.558594 791.347656 77.722656 791.675781 78.050781 C 792.003906 78.40625 792.195312 78.789062 792.195312 79.28125 L 795.695312 79.28125 C 795.695312 78.050781 795.203125 77.039062 794.191406 76.246094 C 793.207031 75.453125 791.867188 75.042969 790.199219 75.042969 C 788.613281 75.042969 787.355469 75.453125 786.371094 76.21875 C 785.386719 77.011719 784.921875 77.996094 784.921875 79.144531 C 784.921875 81.167969 786.480469 82.507812 789.625 83.164062 C 790.554688 83.355469 791.238281 83.546875 791.648438 83.792969 C 792.085938 84.066406 792.304688 84.394531 792.304688 84.832031 Z M 792.304688 84.832031 "/>
<path fill-rule="nonzero" fill="rgb(0%, 0%, 0%)" fill-opacity="1" d="M 805.609375 88.46875 L 809.191406 88.46875 L 809.191406 88.277344 C 808.835938 87.621094 808.671875 86.664062 808.671875 85.433594 L 808.671875 79.71875 C 808.671875 78.242188 808.179688 77.09375 807.25 76.273438 C 806.292969 75.480469 805.007812 75.042969 803.367188 75.042969 C 802.273438 75.042969 801.316406 75.261719 800.46875 75.589844 C 799.621094 75.972656 798.9375 76.464844 798.472656 77.121094 C 797.980469 77.777344 797.761719 78.488281 797.761719 79.253906 L 801.289062 79.253906 C 801.289062 78.761719 801.425781 78.40625 801.78125 78.105469 C 802.109375 77.804688 802.574219 77.640625 803.175781 77.640625 C 803.859375 77.640625 804.351562 77.832031 804.652344 78.1875 C 804.953125 78.570312 805.117188 79.0625 805.117188 79.664062 L 805.117188 80.402344 L 803.503906 80.402344 C 801.5625 80.429688 800.058594 80.8125 799.019531 81.550781 C 797.953125 82.316406 797.460938 83.382812 797.460938 84.777344 C 797.460938 85.925781 797.898438 86.855469 798.746094 87.59375 C 799.59375 88.332031 800.660156 88.714844 801.945312 88.714844 C 803.3125 88.714844 804.433594 88.25 805.28125 87.292969 C 805.308594 87.757812 805.445312 88.167969 805.609375 88.46875 Z M 802.738281 86.035156 C 802.164062 86.035156 801.753906 85.898438 801.453125 85.597656 C 801.125 85.296875 800.988281 84.941406 800.988281 84.503906 L 801.015625 84.3125 C 801.097656 83.109375 802.054688 82.480469 803.832031 82.480469 L 805.117188 82.480469 L 805.117188 84.75 C 804.925781 85.160156 804.597656 85.460938 804.160156 85.679688 C 803.695312 85.925781 803.230469 86.035156 802.738281 86.035156 Z M 802.738281 86.035156 "/>
<path fill-rule="nonzero" fill="rgb(0%, 0%, 0%)" fill-opacity="1" d="M 823.210938 82.015625 L 823.210938 81.796875 C 823.210938 79.664062 822.746094 78.023438 821.84375 76.820312 C 820.941406 75.644531 819.683594 75.042969 818.070312 75.042969 C 816.730469 75.042969 815.664062 75.535156 814.871094 76.464844 L 814.871094 69.765625 L 811.34375 69.765625 L 811.34375 88.46875 L 814.515625 88.46875 L 814.679688 87.074219 C 815.527344 88.167969 816.675781 88.714844 818.097656 88.714844 C 819.710938 88.714844 820.96875 88.140625 821.871094 86.9375 C 822.773438 85.789062 823.210938 84.121094 823.210938 82.015625 Z M 819.710938 81.742188 C 819.710938 82.835938 819.601562 83.65625 819.464844 84.203125 C 819.082031 85.324219 818.34375 85.871094 817.222656 85.871094 C 816.074219 85.871094 815.28125 85.433594 814.871094 84.476562 L 814.871094 79.28125 C 815.28125 78.40625 816.074219 77.914062 817.195312 77.914062 C 818.015625 77.914062 818.644531 78.242188 819.054688 78.84375 C 819.492188 79.445312 819.710938 80.402344 819.710938 81.742188 Z M 819.710938 81.742188 "/>
<path fill-rule="nonzero" fill="rgb(0%, 0%, 0%)" fill-opacity="1" d="M 831.425781 88.714844 C 832.519531 88.714844 833.503906 88.523438 834.40625 88.085938 C 835.308594 87.703125 836.019531 87.101562 836.566406 86.335938 L 834.84375 84.394531 C 834.078125 85.40625 833.011719 85.871094 831.671875 85.871094 C 830.769531 85.871094 830.058594 85.625 829.484375 85.105469 C 828.910156 84.613281 828.554688 83.902344 828.445312 83.027344 L 836.867188 83.027344 L 836.867188 81.578125 C 836.867188 79.527344 836.347656 77.914062 835.28125 76.765625 C 834.242188 75.617188 832.847656 75.042969 831.042969 75.042969 C 829.8125 75.042969 828.746094 75.34375 827.84375 75.890625 C 826.886719 76.464844 826.148438 77.285156 825.65625 78.324219 C 825.136719 79.363281 824.890625 80.539062 824.890625 81.851562 L 824.890625 82.207031 C 824.890625 84.175781 825.492188 85.761719 826.695312 86.9375 C 827.898438 88.140625 829.484375 88.714844 831.425781 88.714844 Z M 831.015625 77.886719 C 831.78125 77.886719 832.355469 78.132812 832.738281 78.542969 C 833.148438 78.980469 833.367188 79.554688 833.394531 80.347656 L 833.394531 80.648438 L 828.5 80.648438 C 828.609375 79.773438 828.882812 79.089844 829.320312 78.625 C 829.757812 78.132812 830.332031 77.886719 831.015625 77.886719 Z M 831.015625 77.886719 "/>
<path fill="none" stroke-width="0.99628" stroke-linecap="butt" stroke-linejoin="round" stroke="rgb(19.607843%, 19.607843%, 19.607843%)" stroke-opacity="1" stroke-miterlimit="10" d="M -88.413161 -112.834906 L 88.414964 -112.834906 L 88.414964 112.836969 L -88.413161 112.836969 Z M -88.413161 -112.834906 " transform="matrix(1.75, 0, 0, -1.75, 159.953501, 322.035007)"/>
<path fill="none" stroke-width="0.99628" stroke-linecap="butt" stroke-linejoin="round" stroke="rgb(19.607843%, 19.607843%, 19.607843%)" stroke-opacity="1" stroke-miterlimit="10" d="M -88.416504 -112.834906 L 88.416085 -112.834906 L 88.416085 112.836969 L -88.416504 112.836969 Z M -88.416504 -112.834906 " transform="matrix(1.75, 0, 0, -1.75, 469.400757, 322.035007)"/>
<path fill="none" stroke-width="0.99628" stroke-linecap="butt" stroke-linejoin="round" stroke="rgb(19.607843%, 19.607843%, 19.607843%)" stroke-opacity="1" stroke-miterlimit="10" d="M -88.415375 -112.834906 L 88.41275 -112.834906 L 88.41275 112.836969 L -88.415375 112.836969 Z M -88.415375 -112.834906 " transform="matrix(1.75, 0, 0, -1.75, 778.848, 322.035007)"/>
</svg>
