<?xml version="1.0" standalone="no"?>
<!DOCTYPE svg PUBLIC "-//W3C//DTD SVG 20010904//EN"
 "http://www.w3.org/TR/2001/REC-SVG-20010904/DTD/svg10.dtd">
<svg version="1.0" xmlns="http://www.w3.org/2000/svg"
 width="487.000000pt" height="458.000000pt" viewBox="0 0 487.000000 458.000000"
 preserveAspectRatio="xMidYMid meet">
<metadata>
Created by potrace 1.16, written by Peter Selinger 2001-2019
</metadata>
<g transform="translate(0.000000,458.000000) scale(0.100000,-0.100000)"
fill="#000000" stroke="none">
<path d="M1413 4160 c-33 -13 -955 -659 -980 -687 l-23 -24 0 -1503 c0 -1446
1 -1504 18 -1520 17 -15 132 -16 1528 -14 l1510 3 484 339 c267 187 490 346
497 355 10 12 12 354 13 1523 l0 1507 -22 15 c-20 14 -179 16 -1513 15 -830 0
-1500 -4 -1512 -9z m2906 -64 c-11 -10 -852 -597 -869 -606 -12 -7 -498 -9
-1455 -8 l-1436 3 438 307 438 308 1444 0 c794 0 1442 -2 1440 -4z m74 -2941
c-7 -11 -275 -202 -815 -579 l-98 -67 0 1460 0 1460 458 320 457 321 3 -1451
c1 -798 -1 -1457 -5 -1464z m-983 790 l0 -1465 -1465 0 -1465 0 0 1465 0 1465
1465 0 1465 0 0 -1465z"/>
<path d="M1925 3819 c-186 -129 -190 -133 -159 -163 14 -14 73 -16 504 -16
269 0 499 4 513 9 27 10 323 217 332 232 4 5 3 18 0 29 -6 20 -16 20 -519 20
l-512 0 -159 -111z m954 -29 l-114 -80 -317 0 -318 0 0 80 0 80 432 0 431 0
-114 -80z m-812 -77 c-3 -2 -44 -3 -91 -1 l-88 3 89 61 88 61 3 -59 c2 -33 1
-62 -1 -65z"/>
<path d="M3930 2824 c-74 -52 -147 -106 -162 -120 l-28 -26 0 -503 c0 -500 0
-504 21 -515 11 -7 26 -9 33 -7 30 12 317 220 326 237 11 20 15 986 4 1014
-13 34 -59 15 -194 -80z m140 -434 l0 -450 -130 0 -130 0 0 359 0 360 128 90
c70 50 128 90 130 91 1 0 2 -202 2 -450z m-163 -580 c-47 -33 -88 -60 -91 -60
-3 0 -6 27 -6 60 l0 60 92 0 91 0 -86 -60z"/>
<path d="M1450 2473 c-40 -14 -40 -20 -40 -530 0 -480 1 -494 20 -513 19 -19
33 -20 513 -20 270 0 497 4 503 8 32 21 34 52 34 532 l0 481 -25 24 -24 25
-483 -1 c-266 0 -490 -3 -498 -6z m290 -421 l0 -359 -130 -91 -130 -91 0 449
0 450 130 0 130 0 0 -358z m670 8 l0 -350 -300 0 -300 0 0 350 0 350 300 0
300 0 0 -350z m0 -500 l0 -80 -427 0 c-234 0 -424 2 -422 4 2 2 53 38 113 80
l109 76 314 0 313 0 0 -80z"/>
</g>
</svg>
