<?xml version="1.0" encoding="UTF-8"?>
<svg xmlns="http://www.w3.org/2000/svg" xmlns:xlink="http://www.w3.org/1999/xlink" width="525.658012" height="111.721749" viewBox="0 0 525.658012 111.721749">
<path fill="none" stroke-width="1.99255" stroke-linecap="butt" stroke-linejoin="round" stroke="rgb(19.607843%, 19.607843%, 19.607843%)" stroke-opacity="1" stroke-miterlimit="10" d="M -49.066161 -14.466875 L 49.065535 -14.466875 L 49.065535 14.466161 L -49.066161 14.466161 Z M -49.066161 -14.466875 " transform="matrix(1.75, 0, 0, -1.75, 91.096251, 30.54625)"/>
<path fill-rule="nonzero" fill="rgb(0%, 0%, 0%)" fill-opacity="1" d="M 54.871094 25.523438 L 52.328125 25.523438 L 52.328125 35.640625 L 55.035156 35.640625 L 55.035156 28.476562 C 55.363281 27.847656 55.9375 27.519531 56.703125 27.519531 C 57.25 27.519531 57.660156 27.65625 57.878906 27.929688 C 58.125 28.203125 58.234375 28.613281 58.234375 29.1875 L 58.234375 35.640625 L 60.941406 35.640625 L 60.914062 28.695312 C 61.214844 27.902344 61.789062 27.519531 62.609375 27.519531 C 63.183594 27.519531 63.566406 27.65625 63.785156 27.929688 C 64.003906 28.203125 64.140625 28.613281 64.140625 29.1875 L 64.140625 35.640625 L 66.847656 35.640625 L 66.847656 29.1875 C 66.847656 27.902344 66.574219 26.945312 66.054688 26.289062 C 65.507812 25.660156 64.6875 25.332031 63.59375 25.332031 C 62.28125 25.332031 61.269531 25.824219 60.558594 26.863281 C 60.039062 25.851562 59.164062 25.332031 57.851562 25.332031 C 56.648438 25.332031 55.664062 25.769531 54.953125 26.644531 Z M 54.871094 25.523438 "/>
<path fill-rule="nonzero" fill="rgb(0%, 0%, 0%)" fill-opacity="1" d="M 74.988281 34.601562 L 75.070312 35.640625 L 77.585938 35.640625 L 77.585938 25.523438 L 74.90625 25.523438 L 74.90625 32.6875 C 74.550781 33.34375 73.921875 33.644531 72.992188 33.644531 C 72.035156 33.644531 71.570312 33.125 71.570312 32.058594 L 71.570312 25.523438 L 68.863281 25.523438 L 68.863281 32.140625 C 68.863281 33.371094 69.136719 34.273438 69.710938 34.902344 C 70.285156 35.53125 71.105469 35.832031 72.199219 35.832031 C 73.402344 35.832031 74.332031 35.421875 74.988281 34.601562 Z M 74.988281 34.601562 "/>
<path fill-rule="nonzero" fill="rgb(0%, 0%, 0%)" fill-opacity="1" d="M 83.410156 31.8125 L 81.523438 25.523438 L 78.625 25.523438 L 82.179688 35.667969 L 81.851562 36.515625 C 81.714844 36.871094 81.523438 37.144531 81.25 37.28125 C 81.003906 37.445312 80.621094 37.527344 80.101562 37.527344 L 79.71875 37.5 L 79.71875 39.550781 C 80.101562 39.660156 80.484375 39.714844 80.894531 39.714844 C 82.289062 39.742188 83.273438 39.085938 83.875 37.746094 L 84.121094 37.199219 L 88.195312 25.523438 L 85.296875 25.523438 Z M 83.410156 31.8125 "/>
<path fill-rule="nonzero" fill="rgb(0%, 0%, 0%)" fill-opacity="1" d="M 104.765625 30.664062 L 104.765625 30.527344 C 104.765625 28.886719 104.382812 27.601562 103.699219 26.699219 C 103.015625 25.796875 102.03125 25.332031 100.800781 25.332031 C 99.761719 25.332031 98.941406 25.6875 98.339844 26.425781 L 98.339844 21.257812 L 95.632812 21.257812 L 95.632812 35.640625 L 98.066406 35.640625 L 98.203125 34.574219 C 98.859375 35.421875 99.734375 35.832031 100.828125 35.832031 C 102.058594 35.832031 103.015625 35.394531 103.726562 34.464844 C 104.410156 33.5625 104.765625 32.304688 104.765625 30.664062 Z M 102.058594 30.472656 C 102.058594 31.320312 101.976562 31.949219 101.867188 32.359375 C 101.566406 33.234375 100.992188 33.644531 100.144531 33.644531 C 99.242188 33.644531 98.667969 33.289062 98.339844 32.578125 L 98.339844 28.585938 C 98.667969 27.902344 99.242188 27.519531 100.117188 27.519531 C 100.746094 27.519531 101.238281 27.792969 101.539062 28.230469 C 101.867188 28.695312 102.058594 29.460938 102.058594 30.472656 Z M 102.058594 30.472656 "/>
<path fill-rule="nonzero" fill="rgb(0%, 0%, 0%)" fill-opacity="1" d="M 112.261719 35.640625 L 115.023438 35.640625 L 115.023438 35.476562 C 114.75 34.984375 114.613281 34.273438 114.613281 33.289062 L 114.613281 28.914062 C 114.613281 27.792969 114.257812 26.890625 113.519531 26.261719 C 112.78125 25.660156 111.796875 25.332031 110.539062 25.332031 C 109.691406 25.332031 108.953125 25.46875 108.296875 25.742188 C 107.640625 26.042969 107.121094 26.425781 106.765625 26.917969 C 106.410156 27.410156 106.246094 27.984375 106.246094 28.558594 L 108.925781 28.558594 C 108.925781 28.175781 109.0625 27.902344 109.308594 27.65625 C 109.582031 27.4375 109.9375 27.328125 110.402344 27.328125 C 110.921875 27.328125 111.304688 27.464844 111.523438 27.738281 C 111.742188 28.039062 111.878906 28.421875 111.878906 28.886719 L 111.878906 29.460938 L 110.648438 29.460938 C 109.144531 29.460938 107.996094 29.761719 107.203125 30.335938 C 106.382812 30.910156 106 31.730469 106 32.796875 C 106 33.671875 106.328125 34.382812 106.984375 34.957031 C 107.640625 35.53125 108.460938 35.832031 109.445312 35.832031 C 110.484375 35.832031 111.359375 35.476562 112.015625 34.738281 C 112.042969 35.09375 112.125 35.421875 112.261719 35.640625 Z M 110.046875 33.753906 C 109.636719 33.753906 109.308594 33.671875 109.0625 33.425781 C 108.816406 33.207031 108.707031 32.933594 108.707031 32.605469 L 108.734375 32.441406 C 108.789062 31.511719 109.527344 31.046875 110.894531 31.046875 L 111.878906 31.046875 L 111.878906 32.796875 C 111.742188 33.097656 111.496094 33.316406 111.140625 33.480469 C 110.785156 33.671875 110.429688 33.753906 110.046875 33.753906 Z M 110.046875 33.753906 "/>
<path fill-rule="nonzero" fill="rgb(0%, 0%, 0%)" fill-opacity="1" d="M 119.5625 25.523438 L 116.828125 25.523438 L 116.828125 36.214844 C 116.828125 37.089844 116.417969 37.527344 115.625 37.527344 C 115.351562 37.527344 115.078125 37.472656 114.777344 37.417969 L 114.777344 39.578125 C 115.160156 39.6875 115.625 39.714844 116.089844 39.714844 C 117.210938 39.714844 118.058594 39.414062 118.660156 38.8125 C 119.261719 38.183594 119.5625 37.308594 119.5625 36.1875 Z M 116.636719 22.898438 C 116.636719 23.308594 116.773438 23.636719 117.019531 23.910156 C 117.292969 24.183594 117.675781 24.292969 118.140625 24.292969 C 118.605469 24.292969 118.960938 24.183594 119.234375 23.910156 C 119.507812 23.636719 119.671875 23.308594 119.671875 22.898438 C 119.671875 22.488281 119.535156 22.160156 119.261719 21.886719 C 118.988281 21.640625 118.605469 21.503906 118.140625 21.503906 C 117.675781 21.503906 117.292969 21.640625 117.019531 21.886719 C 116.773438 22.160156 116.636719 22.488281 116.636719 22.898438 Z M 116.636719 22.898438 "/>
<path fill-rule="nonzero" fill="rgb(0%, 0%, 0%)" fill-opacity="1" d="M 127.507812 35.640625 L 130.269531 35.640625 L 130.269531 35.476562 C 129.996094 34.984375 129.859375 34.273438 129.859375 33.289062 L 129.859375 28.914062 C 129.859375 27.792969 129.503906 26.890625 128.765625 26.261719 C 128.027344 25.660156 127.042969 25.332031 125.785156 25.332031 C 124.9375 25.332031 124.199219 25.46875 123.542969 25.742188 C 122.886719 26.042969 122.367188 26.425781 122.011719 26.917969 C 121.65625 27.410156 121.492188 27.984375 121.492188 28.558594 L 124.171875 28.558594 C 124.171875 28.175781 124.308594 27.902344 124.554688 27.65625 C 124.828125 27.4375 125.183594 27.328125 125.648438 27.328125 C 126.167969 27.328125 126.550781 27.464844 126.769531 27.738281 C 126.988281 28.039062 127.125 28.421875 127.125 28.886719 L 127.125 29.460938 L 125.894531 29.460938 C 124.390625 29.460938 123.242188 29.761719 122.449219 30.335938 C 121.628906 30.910156 121.246094 31.730469 121.246094 32.796875 C 121.246094 33.671875 121.574219 34.382812 122.230469 34.957031 C 122.886719 35.53125 123.707031 35.832031 124.691406 35.832031 C 125.730469 35.832031 126.605469 35.476562 127.261719 34.738281 C 127.289062 35.09375 127.371094 35.421875 127.507812 35.640625 Z M 125.292969 33.753906 C 124.882812 33.753906 124.554688 33.671875 124.308594 33.425781 C 124.0625 33.207031 123.953125 32.933594 123.953125 32.605469 L 123.980469 32.441406 C 124.035156 31.511719 124.773438 31.046875 126.140625 31.046875 L 127.125 31.046875 L 127.125 32.796875 C 126.988281 33.097656 126.742188 33.316406 126.386719 33.480469 C 126.03125 33.671875 125.675781 33.753906 125.292969 33.753906 Z M 125.292969 33.753906 "/>
<path fill="none" stroke-width="1.99255" stroke-linecap="butt" stroke-linejoin="round" stroke="rgb(19.607843%, 19.607843%, 19.607843%)" stroke-opacity="1" stroke-miterlimit="10" d="M -49.067468 -14.466875 L 49.066461 -14.466875 L 49.066461 14.466161 L -49.067468 14.466161 Z M -49.067468 -14.466875 " transform="matrix(1.75, 0, 0, -1.75, 262.829006, 30.54625)"/>
<path fill-rule="nonzero" fill="rgb(0%, 0%, 0%)" fill-opacity="1" d="M 227.238281 29.992188 L 227.265625 27.394531 C 227.019531 27.3125 226.71875 27.285156 226.445312 27.285156 C 225.460938 27.285156 224.722656 27.75 224.175781 28.679688 L 224.121094 27.476562 L 221.550781 27.476562 L 221.550781 37.59375 L 224.257812 37.59375 L 224.257812 30.949219 C 224.558594 30.265625 225.214844 29.9375 226.253906 29.9375 C 226.527344 29.9375 226.855469 29.964844 227.238281 29.992188 Z M 227.238281 29.992188 "/>
<path fill-rule="nonzero" fill="rgb(0%, 0%, 0%)" fill-opacity="1" d="M 234.097656 37.59375 L 236.859375 37.59375 L 236.859375 37.429688 C 236.585938 36.9375 236.449219 36.226562 236.449219 35.242188 L 236.449219 30.867188 C 236.449219 29.746094 236.09375 28.84375 235.355469 28.214844 C 234.617188 27.613281 233.632812 27.285156 232.375 27.285156 C 231.527344 27.285156 230.789062 27.421875 230.132812 27.695312 C 229.476562 27.996094 228.957031 28.378906 228.601562 28.871094 C 228.246094 29.363281 228.082031 29.9375 228.082031 30.511719 L 230.761719 30.511719 C 230.761719 30.128906 230.898438 29.855469 231.144531 29.609375 C 231.417969 29.390625 231.773438 29.28125 232.238281 29.28125 C 232.757812 29.28125 233.140625 29.417969 233.359375 29.691406 C 233.578125 29.992188 233.714844 30.375 233.714844 30.839844 L 233.714844 31.414062 L 232.484375 31.414062 C 230.980469 31.414062 229.832031 31.714844 229.039062 32.289062 C 228.21875 32.863281 227.835938 33.683594 227.835938 34.75 C 227.835938 35.625 228.164062 36.335938 228.820312 36.910156 C 229.476562 37.484375 230.296875 37.785156 231.28125 37.785156 C 232.320312 37.785156 233.195312 37.429688 233.851562 36.691406 C 233.878906 37.046875 233.960938 37.375 234.097656 37.59375 Z M 231.882812 35.707031 C 231.472656 35.707031 231.144531 35.625 230.898438 35.378906 C 230.652344 35.160156 230.542969 34.886719 230.542969 34.558594 L 230.570312 34.394531 C 230.625 33.464844 231.363281 33 232.730469 33 L 233.714844 33 L 233.714844 34.75 C 233.578125 35.050781 233.332031 35.269531 232.976562 35.433594 C 232.621094 35.625 232.265625 35.707031 231.882812 35.707031 Z M 231.882812 35.707031 "/>
<path fill-rule="nonzero" fill="rgb(0%, 0%, 0%)" fill-opacity="1" d="M 241.613281 35.40625 L 246.425781 29.0625 L 246.425781 27.476562 L 238.304688 27.476562 L 238.304688 29.664062 L 242.953125 29.664062 L 238.167969 35.953125 L 238.167969 37.59375 L 246.589844 37.59375 L 246.589844 35.40625 Z M 241.613281 35.40625 "/>
<path fill-rule="nonzero" fill="rgb(0%, 0%, 0%)" fill-opacity="1" d="M 247.675781 32.425781 L 247.675781 32.5625 C 247.675781 34.175781 248.113281 35.433594 248.988281 36.390625 C 249.863281 37.320312 251.011719 37.785156 252.488281 37.785156 C 253.9375 37.785156 255.113281 37.320312 255.988281 36.390625 C 256.863281 35.433594 257.300781 34.203125 257.300781 32.617188 L 257.273438 31.933594 C 257.164062 30.511719 256.671875 29.390625 255.824219 28.542969 C 254.949219 27.695312 253.828125 27.285156 252.488281 27.285156 C 251.53125 27.285156 250.683594 27.503906 249.945312 27.941406 C 249.234375 28.351562 248.632812 28.980469 248.25 29.746094 C 247.867188 30.539062 247.675781 31.441406 247.675781 32.425781 Z M 250.382812 32.617188 C 250.382812 31.550781 250.574219 30.757812 250.929688 30.265625 C 251.285156 29.746094 251.804688 29.472656 252.488281 29.472656 C 253.144531 29.472656 253.636719 29.746094 254.019531 30.265625 C 254.402344 30.757812 254.59375 31.496094 254.59375 32.425781 C 254.59375 33.546875 254.402344 34.367188 254.019531 34.859375 C 253.636719 35.351562 253.144531 35.597656 252.488281 35.597656 C 251.804688 35.597656 251.285156 35.351562 250.929688 34.832031 C 250.574219 34.339844 250.382812 33.574219 250.382812 32.617188 Z M 250.382812 32.617188 "/>
<path fill-rule="nonzero" fill="rgb(0%, 0%, 0%)" fill-opacity="1" d="M 261.4375 27.476562 L 258.894531 27.476562 L 258.894531 37.59375 L 261.601562 37.59375 L 261.601562 30.457031 C 261.984375 29.800781 262.558594 29.472656 263.324219 29.472656 C 263.898438 29.472656 264.28125 29.609375 264.554688 29.855469 C 264.800781 30.128906 264.9375 30.539062 264.9375 31.113281 L 264.9375 37.59375 L 267.617188 37.59375 L 267.617188 31.058594 C 267.617188 29.800781 267.34375 28.871094 266.824219 28.242188 C 266.277344 27.613281 265.511719 27.285156 264.417969 27.285156 C 263.1875 27.285156 262.230469 27.75 261.519531 28.652344 Z M 261.4375 27.476562 "/>
<path fill-rule="nonzero" fill="rgb(0%, 0%, 0%)" fill-opacity="1" d="M 275.539062 37.59375 L 278.300781 37.59375 L 278.300781 37.429688 C 278.027344 36.9375 277.890625 36.226562 277.890625 35.242188 L 277.890625 30.867188 C 277.890625 29.746094 277.535156 28.84375 276.796875 28.214844 C 276.058594 27.613281 275.074219 27.285156 273.816406 27.285156 C 272.96875 27.285156 272.230469 27.421875 271.574219 27.695312 C 270.917969 27.996094 270.398438 28.378906 270.042969 28.871094 C 269.6875 29.363281 269.523438 29.9375 269.523438 30.511719 L 272.203125 30.511719 C 272.203125 30.128906 272.339844 29.855469 272.585938 29.609375 C 272.859375 29.390625 273.214844 29.28125 273.679688 29.28125 C 274.199219 29.28125 274.582031 29.417969 274.800781 29.691406 C 275.019531 29.992188 275.15625 30.375 275.15625 30.839844 L 275.15625 31.414062 L 273.925781 31.414062 C 272.421875 31.414062 271.273438 31.714844 270.480469 32.289062 C 269.660156 32.863281 269.277344 33.683594 269.277344 34.75 C 269.277344 35.625 269.605469 36.335938 270.261719 36.910156 C 270.917969 37.484375 271.738281 37.785156 272.722656 37.785156 C 273.761719 37.785156 274.636719 37.429688 275.292969 36.691406 C 275.320312 37.046875 275.402344 37.375 275.539062 37.59375 Z M 273.324219 35.707031 C 272.914062 35.707031 272.585938 35.625 272.339844 35.378906 C 272.09375 35.160156 271.984375 34.886719 271.984375 34.558594 L 272.011719 34.394531 C 272.066406 33.464844 272.804688 33 274.171875 33 L 275.15625 33 L 275.15625 34.75 C 275.019531 35.050781 274.773438 35.269531 274.417969 35.433594 C 274.0625 35.625 273.707031 35.707031 273.324219 35.707031 Z M 273.324219 35.707031 "/>
<path fill-rule="nonzero" fill="rgb(0%, 0%, 0%)" fill-opacity="1" d="M 289.101562 32.617188 L 289.101562 32.480469 C 289.101562 30.839844 288.71875 29.554688 288.035156 28.652344 C 287.351562 27.75 286.367188 27.285156 285.136719 27.285156 C 284.097656 27.285156 283.277344 27.640625 282.675781 28.378906 L 282.675781 23.210938 L 279.96875 23.210938 L 279.96875 37.59375 L 282.402344 37.59375 L 282.539062 36.527344 C 283.195312 37.375 284.070312 37.785156 285.164062 37.785156 C 286.394531 37.785156 287.351562 37.347656 288.0625 36.417969 C 288.746094 35.515625 289.101562 34.257812 289.101562 32.617188 Z M 286.394531 32.425781 C 286.394531 33.273438 286.3125 33.902344 286.203125 34.3125 C 285.902344 35.1875 285.328125 35.597656 284.480469 35.597656 C 283.578125 35.597656 283.003906 35.242188 282.675781 34.53125 L 282.675781 30.539062 C 283.003906 29.855469 283.578125 29.472656 284.453125 29.472656 C 285.082031 29.472656 285.574219 29.746094 285.875 30.183594 C 286.203125 30.648438 286.394531 31.414062 286.394531 32.425781 Z M 286.394531 32.425781 "/>
<path fill-rule="nonzero" fill="rgb(0%, 0%, 0%)" fill-opacity="1" d="M 293.589844 37.59375 L 293.589844 23.210938 L 290.882812 23.210938 L 290.882812 37.59375 Z M 293.589844 37.59375 "/>
<path fill-rule="nonzero" fill="rgb(0%, 0%, 0%)" fill-opacity="1" d="M 300.476562 37.785156 C 301.324219 37.785156 302.089844 37.621094 302.773438 37.292969 C 303.484375 36.992188 304.003906 36.527344 304.441406 35.953125 L 303.101562 34.476562 C 302.527344 35.242188 301.707031 35.597656 300.667969 35.597656 C 299.984375 35.597656 299.4375 35.40625 299 34.996094 C 298.535156 34.613281 298.289062 34.09375 298.207031 33.410156 L 304.660156 33.410156 L 304.660156 32.316406 C 304.660156 30.703125 304.25 29.472656 303.457031 28.597656 C 302.636719 27.722656 301.570312 27.285156 300.203125 27.285156 C 299.246094 27.285156 298.425781 27.503906 297.714844 27.941406 C 297.003906 28.378906 296.429688 28.980469 296.046875 29.800781 C 295.664062 30.59375 295.472656 31.496094 295.472656 32.507812 L 295.472656 32.78125 C 295.472656 34.285156 295.910156 35.515625 296.867188 36.417969 C 297.769531 37.347656 299 37.785156 300.476562 37.785156 Z M 300.175781 29.472656 C 300.75 29.472656 301.1875 29.636719 301.488281 29.964844 C 301.816406 30.292969 301.980469 30.757812 302.007812 31.332031 L 302.007812 31.578125 L 298.234375 31.578125 C 298.316406 30.894531 298.535156 30.375 298.863281 30.019531 C 299.191406 29.664062 299.628906 29.472656 300.175781 29.472656 Z M 300.175781 29.472656 "/>
<path fill="none" stroke-width="1.99255" stroke-linecap="butt" stroke-linejoin="round" stroke="rgb(19.607843%, 19.607843%, 19.607843%)" stroke-opacity="1" stroke-miterlimit="10" d="M -49.066535 -14.466875 L 49.065162 -14.466875 L 49.065162 14.466161 L -49.066535 14.466161 Z M -49.066535 -14.466875 " transform="matrix(1.75, 0, 0, -1.75, 434.561749, 30.54625)"/>
<path fill-rule="nonzero" fill="rgb(0%, 0%, 0%)" fill-opacity="1" d="M 400.4375 25.523438 L 397.894531 25.523438 L 397.894531 35.640625 L 400.601562 35.640625 L 400.601562 28.476562 C 400.929688 27.847656 401.503906 27.519531 402.269531 27.519531 C 402.816406 27.519531 403.226562 27.65625 403.445312 27.929688 C 403.691406 28.203125 403.800781 28.613281 403.800781 29.1875 L 403.800781 35.640625 L 406.507812 35.640625 L 406.480469 28.695312 C 406.78125 27.902344 407.355469 27.519531 408.175781 27.519531 C 408.75 27.519531 409.132812 27.65625 409.351562 27.929688 C 409.570312 28.203125 409.707031 28.613281 409.707031 29.1875 L 409.707031 35.640625 L 412.414062 35.640625 L 412.414062 29.1875 C 412.414062 27.902344 412.140625 26.945312 411.621094 26.289062 C 411.074219 25.660156 410.253906 25.332031 409.160156 25.332031 C 407.847656 25.332031 406.835938 25.824219 406.125 26.863281 C 405.605469 25.851562 404.730469 25.332031 403.417969 25.332031 C 402.214844 25.332031 401.230469 25.769531 400.519531 26.644531 Z M 400.4375 25.523438 "/>
<path fill-rule="nonzero" fill="rgb(0%, 0%, 0%)" fill-opacity="1" d="M 420.554688 34.601562 L 420.636719 35.640625 L 423.152344 35.640625 L 423.152344 25.523438 L 420.472656 25.523438 L 420.472656 32.6875 C 420.117188 33.34375 419.488281 33.644531 418.558594 33.644531 C 417.601562 33.644531 417.136719 33.125 417.136719 32.058594 L 417.136719 25.523438 L 414.429688 25.523438 L 414.429688 32.140625 C 414.429688 33.371094 414.703125 34.273438 415.277344 34.902344 C 415.851562 35.53125 416.671875 35.832031 417.765625 35.832031 C 418.96875 35.832031 419.898438 35.421875 420.554688 34.601562 Z M 420.554688 34.601562 "/>
<path fill-rule="nonzero" fill="rgb(0%, 0%, 0%)" fill-opacity="1" d="M 428.976562 31.8125 L 427.089844 25.523438 L 424.191406 25.523438 L 427.746094 35.667969 L 427.417969 36.515625 C 427.28125 36.871094 427.089844 37.144531 426.816406 37.28125 C 426.570312 37.445312 426.1875 37.527344 425.667969 37.527344 L 425.285156 37.5 L 425.285156 39.550781 C 425.667969 39.660156 426.050781 39.714844 426.460938 39.714844 C 427.855469 39.742188 428.839844 39.085938 429.441406 37.746094 L 429.6875 37.199219 L 433.761719 25.523438 L 430.863281 25.523438 Z M 428.976562 31.8125 "/>
<path fill-rule="nonzero" fill="rgb(0%, 0%, 0%)" fill-opacity="1" d="M 447.050781 35.640625 L 449.8125 35.640625 L 449.8125 35.476562 C 449.539062 34.984375 449.402344 34.273438 449.402344 33.289062 L 449.402344 28.914062 C 449.402344 27.792969 449.046875 26.890625 448.308594 26.261719 C 447.570312 25.660156 446.585938 25.332031 445.328125 25.332031 C 444.480469 25.332031 443.742188 25.46875 443.085938 25.742188 C 442.429688 26.042969 441.910156 26.425781 441.554688 26.917969 C 441.199219 27.410156 441.035156 27.984375 441.035156 28.558594 L 443.714844 28.558594 C 443.714844 28.175781 443.851562 27.902344 444.097656 27.65625 C 444.371094 27.4375 444.726562 27.328125 445.191406 27.328125 C 445.710938 27.328125 446.09375 27.464844 446.3125 27.738281 C 446.53125 28.039062 446.667969 28.421875 446.667969 28.886719 L 446.667969 29.460938 L 445.4375 29.460938 C 443.933594 29.460938 442.785156 29.761719 441.992188 30.335938 C 441.171875 30.910156 440.789062 31.730469 440.789062 32.796875 C 440.789062 33.671875 441.117188 34.382812 441.773438 34.957031 C 442.429688 35.53125 443.25 35.832031 444.234375 35.832031 C 445.273438 35.832031 446.148438 35.476562 446.804688 34.738281 C 446.832031 35.09375 446.914062 35.421875 447.050781 35.640625 Z M 444.835938 33.753906 C 444.425781 33.753906 444.097656 33.671875 443.851562 33.425781 C 443.605469 33.207031 443.496094 32.933594 443.496094 32.605469 L 443.523438 32.441406 C 443.578125 31.511719 444.316406 31.046875 445.683594 31.046875 L 446.667969 31.046875 L 446.667969 32.796875 C 446.53125 33.097656 446.285156 33.316406 445.929688 33.480469 C 445.574219 33.671875 445.21875 33.753906 444.835938 33.753906 Z M 444.835938 33.753906 "/>
<path fill-rule="nonzero" fill="rgb(0%, 0%, 0%)" fill-opacity="1" d="M 454.320312 35.640625 L 454.320312 21.257812 L 451.613281 21.257812 L 451.613281 35.640625 Z M 454.320312 35.640625 "/>
<path fill-rule="nonzero" fill="rgb(0%, 0%, 0%)" fill-opacity="1" d="M 459.785156 23.035156 L 457.078125 23.035156 L 457.078125 25.523438 L 455.628906 25.523438 L 455.628906 27.492188 L 457.078125 27.492188 L 457.078125 32.960938 C 457.132812 34.875 458.089844 35.832031 459.976562 35.832031 C 460.550781 35.832031 461.097656 35.75 461.644531 35.585938 L 461.644531 33.535156 C 461.398438 33.589844 461.125 33.617188 460.824219 33.617188 C 460.414062 33.617188 460.167969 33.535156 460.003906 33.371094 C 459.839844 33.207031 459.785156 32.933594 459.785156 32.550781 L 459.785156 27.492188 L 461.507812 27.492188 L 461.507812 25.523438 L 459.785156 25.523438 Z M 459.785156 23.035156 "/>
<path fill-rule="nonzero" fill="rgb(0%, 0%, 0%)" fill-opacity="1" d="M 468.875 35.640625 L 471.636719 35.640625 L 471.636719 35.476562 C 471.363281 34.984375 471.226562 34.273438 471.226562 33.289062 L 471.226562 28.914062 C 471.226562 27.792969 470.871094 26.890625 470.132812 26.261719 C 469.394531 25.660156 468.410156 25.332031 467.152344 25.332031 C 466.304688 25.332031 465.566406 25.46875 464.910156 25.742188 C 464.253906 26.042969 463.734375 26.425781 463.378906 26.917969 C 463.023438 27.410156 462.859375 27.984375 462.859375 28.558594 L 465.539062 28.558594 C 465.539062 28.175781 465.675781 27.902344 465.921875 27.65625 C 466.195312 27.4375 466.550781 27.328125 467.015625 27.328125 C 467.535156 27.328125 467.917969 27.464844 468.136719 27.738281 C 468.355469 28.039062 468.492188 28.421875 468.492188 28.886719 L 468.492188 29.460938 L 467.261719 29.460938 C 465.757812 29.460938 464.609375 29.761719 463.816406 30.335938 C 462.996094 30.910156 462.613281 31.730469 462.613281 32.796875 C 462.613281 33.671875 462.941406 34.382812 463.597656 34.957031 C 464.253906 35.53125 465.074219 35.832031 466.058594 35.832031 C 467.097656 35.832031 467.972656 35.476562 468.628906 34.738281 C 468.65625 35.09375 468.738281 35.421875 468.875 35.640625 Z M 466.660156 33.753906 C 466.25 33.753906 465.921875 33.671875 465.675781 33.425781 C 465.429688 33.207031 465.320312 32.933594 465.320312 32.605469 L 465.347656 32.441406 C 465.402344 31.511719 466.140625 31.046875 467.507812 31.046875 L 468.492188 31.046875 L 468.492188 32.796875 C 468.355469 33.097656 468.109375 33.316406 467.753906 33.480469 C 467.398438 33.671875 467.042969 33.753906 466.660156 33.753906 Z M 466.660156 33.753906 "/>
<path fill="none" stroke-width="0.99628" stroke-linecap="butt" stroke-linejoin="round" stroke="rgb(19.607843%, 19.607843%, 19.607843%)" stroke-opacity="1" stroke-miterlimit="10" d="M -49.066161 -14.465448 L 49.065535 -14.465448 L 49.065535 14.467588 L -49.066161 14.467588 Z M -49.066161 -14.465448 " transform="matrix(1.75, 0, 0, -1.75, 91.096251, 82.048747)"/>
<path fill="none" stroke-width="0.99628" stroke-linecap="butt" stroke-linejoin="round" stroke="rgb(19.607843%, 19.607843%, 19.607843%)" stroke-opacity="1" stroke-miterlimit="10" d="M -49.067468 -14.465448 L 49.066461 -14.465448 L 49.066461 14.467588 L -49.067468 14.467588 Z M -49.067468 -14.465448 " transform="matrix(1.75, 0, 0, -1.75, 262.829006, 82.048747)"/>
<path fill="none" stroke-width="0.99628" stroke-linecap="butt" stroke-linejoin="round" stroke="rgb(19.607843%, 19.607843%, 19.607843%)" stroke-opacity="1" stroke-miterlimit="10" d="M -49.066535 -14.465448 L 49.065162 -14.465448 L 49.065162 14.467588 L -49.066535 14.467588 Z M -49.066535 -14.465448 " transform="matrix(1.75, 0, 0, -1.75, 434.561749, 82.048747)"/>
</svg>
