<?xml version="1.0" encoding="UTF-8"?>
<svg xmlns="http://www.w3.org/2000/svg" xmlns:xlink="http://www.w3.org/1999/xlink" width="450.564011" height="95.761499" viewBox="0 0 450.564011 95.761499">
<path fill="none" stroke-width="1.99255" stroke-linecap="butt" stroke-linejoin="round" stroke="rgb(19.607843%, 19.607843%, 19.607843%)" stroke-opacity="1" stroke-miterlimit="10" d="M -49.065417 -14.466875 L 49.067396 -14.466875 L 49.067396 14.468021 L -49.065417 14.468021 Z M -49.065417 -14.466875 " transform="matrix(1.5, 0, 0, -1.5, 78.0825, 26.1825)"/>
<path fill-rule="nonzero" fill="rgb(0%, 0%, 0%)" fill-opacity="1" d="M 47.03125 21.875 L 44.851562 21.875 L 44.851562 30.546875 L 47.171875 30.546875 L 47.171875 24.40625 C 47.453125 23.867188 47.945312 23.585938 48.601562 23.585938 C 49.070312 23.585938 49.421875 23.703125 49.609375 23.9375 C 49.820312 24.171875 49.914062 24.523438 49.914062 25.015625 L 49.914062 30.546875 L 52.234375 30.546875 L 52.210938 24.59375 C 52.46875 23.914062 52.960938 23.585938 53.664062 23.585938 C 54.15625 23.585938 54.484375 23.703125 54.671875 23.9375 C 54.859375 24.171875 54.976562 24.523438 54.976562 25.015625 L 54.976562 30.546875 L 57.296875 30.546875 L 57.296875 25.015625 C 57.296875 23.914062 57.0625 23.09375 56.617188 22.53125 C 56.148438 21.992188 55.445312 21.710938 54.507812 21.710938 C 53.382812 21.710938 52.515625 22.132812 51.90625 23.023438 C 51.460938 22.15625 50.710938 21.710938 49.585938 21.710938 C 48.554688 21.710938 47.710938 22.085938 47.101562 22.835938 Z M 47.03125 21.875 "/>
<path fill-rule="nonzero" fill="rgb(0%, 0%, 0%)" fill-opacity="1" d="M 64.273438 29.65625 L 64.34375 30.546875 L 66.5 30.546875 L 66.5 21.875 L 64.203125 21.875 L 64.203125 28.015625 C 63.898438 28.578125 63.359375 28.835938 62.5625 28.835938 C 61.742188 28.835938 61.34375 28.390625 61.34375 27.476562 L 61.34375 21.875 L 59.023438 21.875 L 59.023438 27.546875 C 59.023438 28.601562 59.257812 29.375 59.75 29.914062 C 60.242188 30.453125 60.945312 30.710938 61.882812 30.710938 C 62.914062 30.710938 63.710938 30.359375 64.273438 29.65625 Z M 64.273438 29.65625 "/>
<path fill-rule="nonzero" fill="rgb(0%, 0%, 0%)" fill-opacity="1" d="M 71.496094 27.265625 L 69.878906 21.875 L 67.394531 21.875 L 70.441406 30.570312 L 70.160156 31.296875 C 70.042969 31.601562 69.878906 31.835938 69.644531 31.953125 C 69.433594 32.09375 69.105469 32.164062 68.660156 32.164062 L 68.332031 32.140625 L 68.332031 33.898438 C 68.660156 33.992188 68.988281 34.039062 69.339844 34.039062 C 70.535156 34.0625 71.378906 33.5 71.894531 32.351562 L 72.105469 31.882812 L 75.597656 21.875 L 73.113281 21.875 Z M 71.496094 27.265625 "/>
<path fill-rule="nonzero" fill="rgb(0%, 0%, 0%)" fill-opacity="1" d="M 89.796875 26.28125 L 89.796875 26.164062 C 89.796875 24.757812 89.46875 23.65625 88.882812 22.882812 C 88.296875 22.109375 87.453125 21.710938 86.398438 21.710938 C 85.507812 21.710938 84.804688 22.015625 84.289062 22.648438 L 84.289062 18.21875 L 81.96875 18.21875 L 81.96875 30.546875 L 84.054688 30.546875 L 84.171875 29.632812 C 84.734375 30.359375 85.484375 30.710938 86.421875 30.710938 C 87.476562 30.710938 88.296875 30.335938 88.90625 29.539062 C 89.492188 28.765625 89.796875 27.6875 89.796875 26.28125 Z M 87.476562 26.117188 C 87.476562 26.84375 87.40625 27.382812 87.3125 27.734375 C 87.054688 28.484375 86.5625 28.835938 85.835938 28.835938 C 85.0625 28.835938 84.570312 28.53125 84.289062 27.921875 L 84.289062 24.5 C 84.570312 23.914062 85.0625 23.585938 85.8125 23.585938 C 86.351562 23.585938 86.773438 23.820312 87.03125 24.195312 C 87.3125 24.59375 87.476562 25.25 87.476562 26.117188 Z M 87.476562 26.117188 "/>
<path fill-rule="nonzero" fill="rgb(0%, 0%, 0%)" fill-opacity="1" d="M 96.222656 30.546875 L 98.589844 30.546875 L 98.589844 30.40625 C 98.355469 29.984375 98.238281 29.375 98.238281 28.53125 L 98.238281 24.78125 C 98.238281 23.820312 97.933594 23.046875 97.300781 22.507812 C 96.667969 21.992188 95.824219 21.710938 94.746094 21.710938 C 94.019531 21.710938 93.386719 21.828125 92.824219 22.0625 C 92.261719 22.320312 91.816406 22.648438 91.511719 23.070312 C 91.207031 23.492188 91.066406 23.984375 91.066406 24.476562 L 93.363281 24.476562 C 93.363281 24.148438 93.480469 23.914062 93.691406 23.703125 C 93.925781 23.515625 94.230469 23.421875 94.628906 23.421875 C 95.074219 23.421875 95.402344 23.539062 95.589844 23.773438 C 95.777344 24.03125 95.894531 24.359375 95.894531 24.757812 L 95.894531 25.25 L 94.839844 25.25 C 93.550781 25.25 92.566406 25.507812 91.886719 26 C 91.183594 26.492188 90.855469 27.195312 90.855469 28.109375 C 90.855469 28.859375 91.136719 29.46875 91.699219 29.960938 C 92.261719 30.453125 92.964844 30.710938 93.808594 30.710938 C 94.699219 30.710938 95.449219 30.40625 96.011719 29.773438 C 96.035156 30.078125 96.105469 30.359375 96.222656 30.546875 Z M 94.324219 28.929688 C 93.972656 28.929688 93.691406 28.859375 93.480469 28.648438 C 93.269531 28.460938 93.175781 28.226562 93.175781 27.945312 L 93.199219 27.804688 C 93.246094 27.007812 93.878906 26.609375 95.050781 26.609375 L 95.894531 26.609375 L 95.894531 28.109375 C 95.777344 28.367188 95.566406 28.554688 95.261719 28.695312 C 94.957031 28.859375 94.652344 28.929688 94.324219 28.929688 Z M 94.324219 28.929688 "/>
<path fill-rule="nonzero" fill="rgb(0%, 0%, 0%)" fill-opacity="1" d="M 102.480469 21.875 L 100.136719 21.875 L 100.136719 31.039062 C 100.136719 31.789062 99.785156 32.164062 99.105469 32.164062 C 98.871094 32.164062 98.636719 32.117188 98.378906 32.070312 L 98.378906 33.921875 C 98.707031 34.015625 99.105469 34.039062 99.503906 34.039062 C 100.464844 34.039062 101.191406 33.78125 101.707031 33.265625 C 102.222656 32.726562 102.480469 31.976562 102.480469 31.015625 Z M 99.972656 19.625 C 99.972656 19.976562 100.089844 20.257812 100.300781 20.492188 C 100.535156 20.726562 100.863281 20.820312 101.261719 20.820312 C 101.660156 20.820312 101.964844 20.726562 102.199219 20.492188 C 102.433594 20.257812 102.574219 19.976562 102.574219 19.625 C 102.574219 19.273438 102.457031 18.992188 102.222656 18.757812 C 101.988281 18.546875 101.660156 18.429688 101.261719 18.429688 C 100.863281 18.429688 100.535156 18.546875 100.300781 18.757812 C 100.089844 18.992188 99.972656 19.273438 99.972656 19.625 Z M 99.972656 19.625 "/>
<path fill-rule="nonzero" fill="rgb(0%, 0%, 0%)" fill-opacity="1" d="M 109.292969 30.546875 L 111.660156 30.546875 L 111.660156 30.40625 C 111.425781 29.984375 111.308594 29.375 111.308594 28.53125 L 111.308594 24.78125 C 111.308594 23.820312 111.003906 23.046875 110.371094 22.507812 C 109.738281 21.992188 108.894531 21.710938 107.816406 21.710938 C 107.089844 21.710938 106.457031 21.828125 105.894531 22.0625 C 105.332031 22.320312 104.886719 22.648438 104.582031 23.070312 C 104.277344 23.492188 104.136719 23.984375 104.136719 24.476562 L 106.433594 24.476562 C 106.433594 24.148438 106.550781 23.914062 106.761719 23.703125 C 106.996094 23.515625 107.300781 23.421875 107.699219 23.421875 C 108.144531 23.421875 108.472656 23.539062 108.660156 23.773438 C 108.847656 24.03125 108.964844 24.359375 108.964844 24.757812 L 108.964844 25.25 L 107.910156 25.25 C 106.621094 25.25 105.636719 25.507812 104.957031 26 C 104.253906 26.492188 103.925781 27.195312 103.925781 28.109375 C 103.925781 28.859375 104.207031 29.46875 104.769531 29.960938 C 105.332031 30.453125 106.035156 30.710938 106.878906 30.710938 C 107.769531 30.710938 108.519531 30.40625 109.082031 29.773438 C 109.105469 30.078125 109.175781 30.359375 109.292969 30.546875 Z M 107.394531 28.929688 C 107.042969 28.929688 106.761719 28.859375 106.550781 28.648438 C 106.339844 28.460938 106.246094 28.226562 106.246094 27.945312 L 106.269531 27.804688 C 106.316406 27.007812 106.949219 26.609375 108.121094 26.609375 L 108.964844 26.609375 L 108.964844 28.109375 C 108.847656 28.367188 108.636719 28.554688 108.332031 28.695312 C 108.027344 28.859375 107.722656 28.929688 107.394531 28.929688 Z M 107.394531 28.929688 "/>
<path fill="none" stroke-width="1.99255" stroke-linecap="butt" stroke-linejoin="round" stroke="rgb(19.607843%, 19.607843%, 19.607843%)" stroke-opacity="1" stroke-miterlimit="10" d="M -49.065608 -14.466875 L 49.067205 -14.466875 L 49.067205 14.468021 L -49.065608 14.468021 Z M -49.065608 -14.466875 " transform="matrix(1.5, 0, 0, -1.5, 225.282005, 26.1825)"/>
<path fill-rule="nonzero" fill="rgb(0%, 0%, 0%)" fill-opacity="1" d="M 194.777344 25.707031 L 194.800781 23.480469 C 194.589844 23.410156 194.332031 23.386719 194.097656 23.386719 C 193.253906 23.386719 192.621094 23.785156 192.152344 24.582031 L 192.105469 23.550781 L 189.902344 23.550781 L 189.902344 32.222656 L 192.222656 32.222656 L 192.222656 26.527344 C 192.480469 25.941406 193.042969 25.660156 193.933594 25.660156 C 194.167969 25.660156 194.449219 25.683594 194.777344 25.707031 Z M 194.777344 25.707031 "/>
<path fill-rule="nonzero" fill="rgb(0%, 0%, 0%)" fill-opacity="1" d="M 200.652344 32.222656 L 203.019531 32.222656 L 203.019531 32.082031 C 202.785156 31.660156 202.667969 31.050781 202.667969 30.207031 L 202.667969 26.457031 C 202.667969 25.496094 202.363281 24.722656 201.730469 24.183594 C 201.097656 23.667969 200.253906 23.386719 199.175781 23.386719 C 198.449219 23.386719 197.816406 23.503906 197.253906 23.738281 C 196.691406 23.996094 196.246094 24.324219 195.941406 24.746094 C 195.636719 25.167969 195.496094 25.660156 195.496094 26.152344 L 197.792969 26.152344 C 197.792969 25.824219 197.910156 25.589844 198.121094 25.378906 C 198.355469 25.191406 198.660156 25.097656 199.058594 25.097656 C 199.503906 25.097656 199.832031 25.214844 200.019531 25.449219 C 200.207031 25.707031 200.324219 26.035156 200.324219 26.433594 L 200.324219 26.925781 L 199.269531 26.925781 C 197.980469 26.925781 196.996094 27.183594 196.316406 27.675781 C 195.613281 28.167969 195.285156 28.871094 195.285156 29.785156 C 195.285156 30.535156 195.566406 31.144531 196.128906 31.636719 C 196.691406 32.128906 197.394531 32.386719 198.238281 32.386719 C 199.128906 32.386719 199.878906 32.082031 200.441406 31.449219 C 200.464844 31.753906 200.535156 32.035156 200.652344 32.222656 Z M 198.753906 30.605469 C 198.402344 30.605469 198.121094 30.535156 197.910156 30.324219 C 197.699219 30.136719 197.605469 29.902344 197.605469 29.621094 L 197.628906 29.480469 C 197.675781 28.683594 198.308594 28.285156 199.480469 28.285156 L 200.324219 28.285156 L 200.324219 29.785156 C 200.207031 30.042969 199.996094 30.230469 199.691406 30.371094 C 199.386719 30.535156 199.082031 30.605469 198.753906 30.605469 Z M 198.753906 30.605469 "/>
<path fill-rule="nonzero" fill="rgb(0%, 0%, 0%)" fill-opacity="1" d="M 207.097656 30.347656 L 211.222656 24.910156 L 211.222656 23.550781 L 204.261719 23.550781 L 204.261719 25.425781 L 208.246094 25.425781 L 204.144531 30.816406 L 204.144531 32.222656 L 211.363281 32.222656 L 211.363281 30.347656 Z M 207.097656 30.347656 "/>
<path fill-rule="nonzero" fill="rgb(0%, 0%, 0%)" fill-opacity="1" d="M 212.292969 27.792969 L 212.292969 27.910156 C 212.292969 29.292969 212.667969 30.371094 213.417969 31.191406 C 214.167969 31.988281 215.152344 32.386719 216.417969 32.386719 C 217.660156 32.386719 218.667969 31.988281 219.417969 31.191406 C 220.167969 30.371094 220.542969 29.316406 220.542969 27.957031 L 220.519531 27.371094 C 220.425781 26.152344 220.003906 25.191406 219.277344 24.464844 C 218.527344 23.738281 217.566406 23.386719 216.417969 23.386719 C 215.597656 23.386719 214.871094 23.574219 214.238281 23.949219 C 213.628906 24.300781 213.113281 24.839844 212.785156 25.496094 C 212.457031 26.175781 212.292969 26.949219 212.292969 27.792969 Z M 214.613281 27.957031 C 214.613281 27.042969 214.777344 26.363281 215.082031 25.941406 C 215.386719 25.496094 215.832031 25.261719 216.417969 25.261719 C 216.980469 25.261719 217.402344 25.496094 217.730469 25.941406 C 218.058594 26.363281 218.222656 26.996094 218.222656 27.792969 C 218.222656 28.753906 218.058594 29.457031 217.730469 29.878906 C 217.402344 30.300781 216.980469 30.511719 216.417969 30.511719 C 215.832031 30.511719 215.386719 30.300781 215.082031 29.855469 C 214.777344 29.433594 214.613281 28.777344 214.613281 27.957031 Z M 214.613281 27.957031 "/>
<path fill-rule="nonzero" fill="rgb(0%, 0%, 0%)" fill-opacity="1" d="M 224.089844 23.550781 L 221.910156 23.550781 L 221.910156 32.222656 L 224.230469 32.222656 L 224.230469 26.105469 C 224.558594 25.542969 225.050781 25.261719 225.707031 25.261719 C 226.199219 25.261719 226.527344 25.378906 226.761719 25.589844 C 226.972656 25.824219 227.089844 26.175781 227.089844 26.667969 L 227.089844 32.222656 L 229.386719 32.222656 L 229.386719 26.621094 C 229.386719 25.542969 229.152344 24.746094 228.707031 24.207031 C 228.238281 23.667969 227.582031 23.386719 226.644531 23.386719 C 225.589844 23.386719 224.769531 23.785156 224.160156 24.558594 Z M 224.089844 23.550781 "/>
<path fill-rule="nonzero" fill="rgb(0%, 0%, 0%)" fill-opacity="1" d="M 236.175781 32.222656 L 238.542969 32.222656 L 238.542969 32.082031 C 238.308594 31.660156 238.191406 31.050781 238.191406 30.207031 L 238.191406 26.457031 C 238.191406 25.496094 237.886719 24.722656 237.253906 24.183594 C 236.621094 23.667969 235.777344 23.386719 234.699219 23.386719 C 233.972656 23.386719 233.339844 23.503906 232.777344 23.738281 C 232.214844 23.996094 231.769531 24.324219 231.464844 24.746094 C 231.160156 25.167969 231.019531 25.660156 231.019531 26.152344 L 233.316406 26.152344 C 233.316406 25.824219 233.433594 25.589844 233.644531 25.378906 C 233.878906 25.191406 234.183594 25.097656 234.582031 25.097656 C 235.027344 25.097656 235.355469 25.214844 235.542969 25.449219 C 235.730469 25.707031 235.847656 26.035156 235.847656 26.433594 L 235.847656 26.925781 L 234.792969 26.925781 C 233.503906 26.925781 232.519531 27.183594 231.839844 27.675781 C 231.136719 28.167969 230.808594 28.871094 230.808594 29.785156 C 230.808594 30.535156 231.089844 31.144531 231.652344 31.636719 C 232.214844 32.128906 232.917969 32.386719 233.761719 32.386719 C 234.652344 32.386719 235.402344 32.082031 235.964844 31.449219 C 235.988281 31.753906 236.058594 32.035156 236.175781 32.222656 Z M 234.277344 30.605469 C 233.925781 30.605469 233.644531 30.535156 233.433594 30.324219 C 233.222656 30.136719 233.128906 29.902344 233.128906 29.621094 L 233.152344 29.480469 C 233.199219 28.683594 233.832031 28.285156 235.003906 28.285156 L 235.847656 28.285156 L 235.847656 29.785156 C 235.730469 30.042969 235.519531 30.230469 235.214844 30.371094 C 234.910156 30.535156 234.605469 30.605469 234.277344 30.605469 Z M 234.277344 30.605469 "/>
<path fill-rule="nonzero" fill="rgb(0%, 0%, 0%)" fill-opacity="1" d="M 247.800781 27.957031 L 247.800781 27.839844 C 247.800781 26.433594 247.472656 25.332031 246.886719 24.558594 C 246.300781 23.785156 245.457031 23.386719 244.402344 23.386719 C 243.511719 23.386719 242.808594 23.691406 242.292969 24.324219 L 242.292969 19.894531 L 239.972656 19.894531 L 239.972656 32.222656 L 242.058594 32.222656 L 242.175781 31.308594 C 242.738281 32.035156 243.488281 32.386719 244.425781 32.386719 C 245.480469 32.386719 246.300781 32.011719 246.910156 31.214844 C 247.496094 30.441406 247.800781 29.363281 247.800781 27.957031 Z M 245.480469 27.792969 C 245.480469 28.519531 245.410156 29.058594 245.316406 29.410156 C 245.058594 30.160156 244.566406 30.511719 243.839844 30.511719 C 243.066406 30.511719 242.574219 30.207031 242.292969 29.597656 L 242.292969 26.175781 C 242.574219 25.589844 243.066406 25.261719 243.816406 25.261719 C 244.355469 25.261719 244.777344 25.496094 245.035156 25.871094 C 245.316406 26.269531 245.480469 26.925781 245.480469 27.792969 Z M 245.480469 27.792969 "/>
<path fill-rule="nonzero" fill="rgb(0%, 0%, 0%)" fill-opacity="1" d="M 251.648438 32.222656 L 251.648438 19.894531 L 249.328125 19.894531 L 249.328125 32.222656 Z M 251.648438 32.222656 "/>
<path fill-rule="nonzero" fill="rgb(0%, 0%, 0%)" fill-opacity="1" d="M 257.550781 32.386719 C 258.277344 32.386719 258.933594 32.246094 259.519531 31.964844 C 260.128906 31.707031 260.574219 31.308594 260.949219 30.816406 L 259.800781 29.550781 C 259.308594 30.207031 258.605469 30.511719 257.714844 30.511719 C 257.128906 30.511719 256.660156 30.347656 256.285156 29.996094 C 255.886719 29.667969 255.675781 29.222656 255.605469 28.636719 L 261.136719 28.636719 L 261.136719 27.699219 C 261.136719 26.316406 260.785156 25.261719 260.105469 24.511719 C 259.402344 23.761719 258.488281 23.386719 257.316406 23.386719 C 256.496094 23.386719 255.792969 23.574219 255.183594 23.949219 C 254.574219 24.324219 254.082031 24.839844 253.753906 25.542969 C 253.425781 26.222656 253.261719 26.996094 253.261719 27.863281 L 253.261719 28.097656 C 253.261719 29.386719 253.636719 30.441406 254.457031 31.214844 C 255.230469 32.011719 256.285156 32.386719 257.550781 32.386719 Z M 257.292969 25.261719 C 257.785156 25.261719 258.160156 25.402344 258.417969 25.683594 C 258.699219 25.964844 258.839844 26.363281 258.863281 26.855469 L 258.863281 27.066406 L 255.628906 27.066406 C 255.699219 26.480469 255.886719 26.035156 256.167969 25.730469 C 256.449219 25.425781 256.824219 25.261719 257.292969 25.261719 Z M 257.292969 25.261719 "/>
<path fill="none" stroke-width="1.99255" stroke-linecap="butt" stroke-linejoin="round" stroke="rgb(19.607843%, 19.607843%, 19.607843%)" stroke-opacity="1" stroke-miterlimit="10" d="M -49.068395 -14.466875 L 49.064418 -14.466875 L 49.064418 14.468021 L -49.068395 14.468021 Z M -49.068395 -14.466875 " transform="matrix(1.5, 0, 0, -1.5, 372.481499, 26.1825)"/>
<path fill-rule="nonzero" fill="rgb(0%, 0%, 0%)" fill-opacity="1" d="M 343.230469 21.875 L 341.050781 21.875 L 341.050781 30.546875 L 343.371094 30.546875 L 343.371094 24.40625 C 343.652344 23.867188 344.144531 23.585938 344.800781 23.585938 C 345.269531 23.585938 345.621094 23.703125 345.808594 23.9375 C 346.019531 24.171875 346.113281 24.523438 346.113281 25.015625 L 346.113281 30.546875 L 348.433594 30.546875 L 348.410156 24.59375 C 348.667969 23.914062 349.160156 23.585938 349.863281 23.585938 C 350.355469 23.585938 350.683594 23.703125 350.871094 23.9375 C 351.058594 24.171875 351.175781 24.523438 351.175781 25.015625 L 351.175781 30.546875 L 353.496094 30.546875 L 353.496094 25.015625 C 353.496094 23.914062 353.261719 23.09375 352.816406 22.53125 C 352.347656 21.992188 351.644531 21.710938 350.707031 21.710938 C 349.582031 21.710938 348.714844 22.132812 348.105469 23.023438 C 347.660156 22.15625 346.910156 21.710938 345.785156 21.710938 C 344.753906 21.710938 343.910156 22.085938 343.300781 22.835938 Z M 343.230469 21.875 "/>
<path fill-rule="nonzero" fill="rgb(0%, 0%, 0%)" fill-opacity="1" d="M 360.472656 29.65625 L 360.542969 30.546875 L 362.699219 30.546875 L 362.699219 21.875 L 360.402344 21.875 L 360.402344 28.015625 C 360.097656 28.578125 359.558594 28.835938 358.761719 28.835938 C 357.941406 28.835938 357.542969 28.390625 357.542969 27.476562 L 357.542969 21.875 L 355.222656 21.875 L 355.222656 27.546875 C 355.222656 28.601562 355.457031 29.375 355.949219 29.914062 C 356.441406 30.453125 357.144531 30.710938 358.082031 30.710938 C 359.113281 30.710938 359.910156 30.359375 360.472656 29.65625 Z M 360.472656 29.65625 "/>
<path fill-rule="nonzero" fill="rgb(0%, 0%, 0%)" fill-opacity="1" d="M 367.695312 27.265625 L 366.078125 21.875 L 363.59375 21.875 L 366.640625 30.570312 L 366.359375 31.296875 C 366.242188 31.601562 366.078125 31.835938 365.84375 31.953125 C 365.632812 32.09375 365.304688 32.164062 364.859375 32.164062 L 364.53125 32.140625 L 364.53125 33.898438 C 364.859375 33.992188 365.1875 34.039062 365.539062 34.039062 C 366.734375 34.0625 367.578125 33.5 368.09375 32.351562 L 368.304688 31.882812 L 371.796875 21.875 L 369.3125 21.875 Z M 367.695312 27.265625 "/>
<path fill-rule="nonzero" fill="rgb(0%, 0%, 0%)" fill-opacity="1" d="M 383.183594 30.546875 L 385.550781 30.546875 L 385.550781 30.40625 C 385.316406 29.984375 385.199219 29.375 385.199219 28.53125 L 385.199219 24.78125 C 385.199219 23.820312 384.894531 23.046875 384.261719 22.507812 C 383.628906 21.992188 382.785156 21.710938 381.707031 21.710938 C 380.980469 21.710938 380.347656 21.828125 379.785156 22.0625 C 379.222656 22.320312 378.777344 22.648438 378.472656 23.070312 C 378.167969 23.492188 378.027344 23.984375 378.027344 24.476562 L 380.324219 24.476562 C 380.324219 24.148438 380.441406 23.914062 380.652344 23.703125 C 380.886719 23.515625 381.191406 23.421875 381.589844 23.421875 C 382.035156 23.421875 382.363281 23.539062 382.550781 23.773438 C 382.738281 24.03125 382.855469 24.359375 382.855469 24.757812 L 382.855469 25.25 L 381.800781 25.25 C 380.511719 25.25 379.527344 25.507812 378.847656 26 C 378.144531 26.492188 377.816406 27.195312 377.816406 28.109375 C 377.816406 28.859375 378.097656 29.46875 378.660156 29.960938 C 379.222656 30.453125 379.925781 30.710938 380.769531 30.710938 C 381.660156 30.710938 382.410156 30.40625 382.972656 29.773438 C 382.996094 30.078125 383.066406 30.359375 383.183594 30.546875 Z M 381.285156 28.929688 C 380.933594 28.929688 380.652344 28.859375 380.441406 28.648438 C 380.230469 28.460938 380.136719 28.226562 380.136719 27.945312 L 380.160156 27.804688 C 380.207031 27.007812 380.839844 26.609375 382.011719 26.609375 L 382.855469 26.609375 L 382.855469 28.109375 C 382.738281 28.367188 382.527344 28.554688 382.222656 28.695312 C 381.917969 28.859375 381.613281 28.929688 381.285156 28.929688 Z M 381.285156 28.929688 "/>
<path fill-rule="nonzero" fill="rgb(0%, 0%, 0%)" fill-opacity="1" d="M 389.417969 30.546875 L 389.417969 18.21875 L 387.097656 18.21875 L 387.097656 30.546875 Z M 389.417969 30.546875 "/>
<path fill-rule="nonzero" fill="rgb(0%, 0%, 0%)" fill-opacity="1" d="M 394.101562 19.742188 L 391.78125 19.742188 L 391.78125 21.875 L 390.539062 21.875 L 390.539062 23.5625 L 391.78125 23.5625 L 391.78125 28.25 C 391.828125 29.890625 392.648438 30.710938 394.265625 30.710938 C 394.757812 30.710938 395.226562 30.640625 395.695312 30.5 L 395.695312 28.742188 C 395.484375 28.789062 395.25 28.8125 394.992188 28.8125 C 394.640625 28.8125 394.429688 28.742188 394.289062 28.601562 C 394.148438 28.460938 394.101562 28.226562 394.101562 27.898438 L 394.101562 23.5625 L 395.578125 23.5625 L 395.578125 21.875 L 394.101562 21.875 Z M 394.101562 19.742188 "/>
<path fill-rule="nonzero" fill="rgb(0%, 0%, 0%)" fill-opacity="1" d="M 401.890625 30.546875 L 404.257812 30.546875 L 404.257812 30.40625 C 404.023438 29.984375 403.90625 29.375 403.90625 28.53125 L 403.90625 24.78125 C 403.90625 23.820312 403.601562 23.046875 402.96875 22.507812 C 402.335938 21.992188 401.492188 21.710938 400.414062 21.710938 C 399.6875 21.710938 399.054688 21.828125 398.492188 22.0625 C 397.929688 22.320312 397.484375 22.648438 397.179688 23.070312 C 396.875 23.492188 396.734375 23.984375 396.734375 24.476562 L 399.03125 24.476562 C 399.03125 24.148438 399.148438 23.914062 399.359375 23.703125 C 399.59375 23.515625 399.898438 23.421875 400.296875 23.421875 C 400.742188 23.421875 401.070312 23.539062 401.257812 23.773438 C 401.445312 24.03125 401.5625 24.359375 401.5625 24.757812 L 401.5625 25.25 L 400.507812 25.25 C 399.21875 25.25 398.234375 25.507812 397.554688 26 C 396.851562 26.492188 396.523438 27.195312 396.523438 28.109375 C 396.523438 28.859375 396.804688 29.46875 397.367188 29.960938 C 397.929688 30.453125 398.632812 30.710938 399.476562 30.710938 C 400.367188 30.710938 401.117188 30.40625 401.679688 29.773438 C 401.703125 30.078125 401.773438 30.359375 401.890625 30.546875 Z M 399.992188 28.929688 C 399.640625 28.929688 399.359375 28.859375 399.148438 28.648438 C 398.9375 28.460938 398.84375 28.226562 398.84375 27.945312 L 398.867188 27.804688 C 398.914062 27.007812 399.546875 26.609375 400.71875 26.609375 L 401.5625 26.609375 L 401.5625 28.109375 C 401.445312 28.367188 401.234375 28.554688 400.929688 28.695312 C 400.625 28.859375 400.320312 28.929688 399.992188 28.929688 Z M 399.992188 28.929688 "/>
<path fill="none" stroke-width="0.99628" stroke-linecap="butt" stroke-linejoin="round" stroke="rgb(19.607843%, 19.607843%, 19.607843%)" stroke-opacity="1" stroke-miterlimit="10" d="M -49.065417 -14.466564 L 49.067396 -14.466564 L 49.067396 14.468332 L -49.065417 14.468332 Z M -49.065417 -14.466564 " transform="matrix(1.5, 0, 0, -1.5, 78.0825, 70.327497)"/>
<path fill="none" stroke-width="0.99628" stroke-linecap="butt" stroke-linejoin="round" stroke="rgb(19.607843%, 19.607843%, 19.607843%)" stroke-opacity="1" stroke-miterlimit="10" d="M -49.065608 -14.466564 L 49.067205 -14.466564 L 49.067205 14.468332 L -49.065608 14.468332 Z M -49.065608 -14.466564 " transform="matrix(1.5, 0, 0, -1.5, 225.282005, 70.327497)"/>
<path fill="none" stroke-width="0.99628" stroke-linecap="butt" stroke-linejoin="round" stroke="rgb(19.607843%, 19.607843%, 19.607843%)" stroke-opacity="1" stroke-miterlimit="10" d="M -49.068395 -14.466564 L 49.064418 -14.466564 L 49.064418 14.468332 L -49.068395 14.468332 Z M -49.068395 -14.466564 " transform="matrix(1.5, 0, 0, -1.5, 372.481499, 70.327497)"/>
</svg>
