<?xml version="1.0" encoding="UTF-8"?>
<svg xmlns="http://www.w3.org/2000/svg" xmlns:xlink="http://www.w3.org/1999/xlink" width="590.72699" height="121.543499" viewBox="0 0 590.72699 121.543499">
<path fill="none" stroke-width="1.99255" stroke-linecap="butt" stroke-linejoin="round" stroke="rgb(19.607843%, 19.607843%, 19.607843%)" stroke-opacity="1" stroke-miterlimit="10" d="M -60.929436 -17.269625 L 60.929939 -17.269625 L 60.929939 17.269438 L -60.929436 17.269438 Z M -60.929436 -17.269625 " transform="matrix(1.5, 0, 0, -1.5, 100.358997, 34.869)"/>
<path fill-rule="nonzero" fill="rgb(0%, 0%, 0%)" fill-opacity="1" d="M 43.144531 30.40625 C 42.628906 30.289062 41.175781 29.75 41.175781 28.4375 C 41.175781 26.445312 43.167969 26.398438 43.941406 26.398438 C 45.253906 26.398438 46.425781 26.703125 47.574219 27.828125 C 47.949219 28.179688 47.972656 28.203125 48.066406 28.203125 C 48.207031 28.203125 48.324219 28.132812 48.394531 27.78125 L 48.722656 25.742188 C 48.769531 25.554688 48.769531 25.507812 48.769531 25.4375 C 48.769531 25.25 48.746094 25.226562 48.183594 24.921875 C 46.519531 24.125 45.136719 24.007812 43.941406 24.007812 C 41.878906 24.007812 38.269531 24.476562 38.269531 28.859375 C 38.269531 30.5 39.136719 31.578125 39.558594 32.046875 C 40.753906 33.265625 41.855469 33.5 43.683594 33.898438 C 44.972656 34.203125 45.488281 34.320312 46.003906 34.789062 C 46.238281 35.023438 46.730469 35.515625 46.730469 36.40625 C 46.730469 38.585938 44.714844 38.65625 43.941406 38.65625 C 41.996094 38.65625 40.285156 37.882812 39.136719 36.828125 C 38.855469 36.546875 38.808594 36.546875 38.714844 36.546875 C 38.574219 36.546875 38.457031 36.617188 38.386719 36.96875 L 38.035156 38.984375 C 37.988281 39.171875 37.988281 39.21875 37.988281 39.289062 C 37.988281 39.78125 40.402344 40.625 40.519531 40.671875 C 42.089844 41.164062 43.355469 41.210938 43.941406 41.210938 C 47.457031 41.210938 49.636719 39.640625 49.636719 36.03125 C 49.636719 33.429688 47.714844 31.460938 45.371094 30.921875 Z M 43.144531 30.40625 "/>
<path fill-rule="nonzero" fill="rgb(0%, 0%, 0%)" fill-opacity="1" d="M 53.453125 24.476562 C 52.726562 24.476562 52.351562 24.617188 52.351562 25.554688 L 52.351562 26.632812 C 52.351562 27.382812 52.585938 27.6875 53.429688 27.6875 L 54.648438 27.6875 C 55.773438 27.6875 55.773438 27.195312 55.773438 26.09375 C 55.773438 24.96875 55.773438 24.476562 54.648438 24.476562 Z M 55.609375 31.132812 C 55.609375 30.382812 55.445312 30.007812 54.484375 30.007812 L 53.617188 30.007812 C 52.796875 30.007812 52.515625 30.265625 52.515625 31.132812 L 52.515625 39.570312 C 52.515625 40.414062 52.773438 40.695312 53.617188 40.695312 L 54.484375 40.695312 C 55.375 40.695312 55.609375 40.390625 55.609375 39.570312 Z M 55.609375 31.132812 "/>
<path fill-rule="nonzero" fill="rgb(0%, 0%, 0%)" fill-opacity="1" d="M 74.835938 37.414062 C 74.835938 36.101562 74.132812 35.28125 73.710938 34.90625 C 72.773438 34.0625 71.976562 33.921875 70.992188 33.734375 C 69.703125 33.523438 68.765625 33.335938 68.765625 32.421875 C 68.765625 31.460938 69.539062 31.273438 70.453125 31.273438 C 72.023438 31.273438 72.84375 31.859375 73.453125 32.375 C 73.6875 32.609375 73.734375 32.609375 73.828125 32.609375 C 74.0625 32.609375 74.109375 32.398438 74.132812 32.304688 C 74.179688 32.117188 74.414062 30.804688 74.414062 30.6875 C 74.414062 30.3125 73.171875 29.984375 72.914062 29.890625 C 72 29.632812 71.25 29.609375 70.640625 29.609375 C 69.585938 29.609375 66.46875 29.609375 66.46875 32.960938 C 66.46875 34.085938 66.984375 34.789062 67.617188 35.351562 C 68.414062 36.101562 69.328125 36.265625 70.664062 36.523438 C 71.34375 36.640625 72.539062 36.851562 72.539062 37.882812 C 72.539062 38.960938 71.625 39.125 70.710938 39.125 C 69.679688 39.125 68.367188 38.820312 67.289062 37.53125 C 67.171875 37.414062 67.101562 37.34375 66.960938 37.34375 C 66.726562 37.34375 66.679688 37.554688 66.65625 37.695312 C 66.609375 38.023438 66.328125 39.335938 66.328125 39.570312 C 66.328125 39.992188 68.039062 40.53125 68.0625 40.554688 C 69.351562 40.953125 70.3125 40.953125 70.710938 40.953125 C 71.90625 40.953125 74.835938 40.859375 74.835938 37.414062 Z M 74.835938 37.414062 "/>
<path fill-rule="nonzero" fill="rgb(0%, 0%, 0%)" fill-opacity="1" d="M 85.371094 25.15625 C 85.488281 25.0625 85.628906 24.945312 85.628906 24.804688 C 85.628906 24.5 85.371094 24.5 84.996094 24.5 L 83.074219 24.5 C 82.605469 24.5 82.582031 24.523438 82.371094 24.78125 L 80.378906 27.523438 C 80.167969 27.78125 80.167969 27.828125 80.167969 27.875 C 80.167969 28.179688 80.425781 28.179688 80.800781 28.179688 L 81.667969 28.179688 Z M 85.371094 25.15625 "/>
<path fill-rule="nonzero" fill="rgb(0%, 0%, 0%)" fill-opacity="1" d="M 85.488281 35.703125 C 86.027344 35.703125 86.613281 35.679688 86.613281 34.625 C 86.613281 31.625 85.207031 29.609375 81.738281 29.609375 C 77.988281 29.609375 76.160156 31.71875 76.160156 35.257812 C 76.160156 39.078125 78.363281 40.953125 82.042969 40.953125 C 82.910156 40.953125 84.246094 40.835938 85.792969 40.0625 C 86.308594 39.804688 86.472656 39.734375 86.472656 39.453125 C 86.472656 39.289062 86.402344 38.609375 86.378906 38.421875 C 86.285156 37.71875 86.261719 37.695312 86.050781 37.695312 C 85.957031 37.695312 85.910156 37.695312 85.652344 37.929688 C 84.269531 39.101562 82.863281 39.265625 82.136719 39.265625 C 79.488281 39.265625 79.207031 37.203125 79.136719 35.703125 Z M 79.160156 34.460938 C 79.230469 33.054688 79.699219 31.296875 81.738281 31.296875 C 83.589844 31.296875 83.941406 32.65625 84.011719 34.460938 Z M 79.160156 34.460938 "/>
<path fill-rule="nonzero" fill="rgb(0%, 0%, 0%)" fill-opacity="1" d="M 107.527344 30.875 C 107.527344 30.125 107.363281 29.75 106.402344 29.75 L 105.535156 29.75 C 104.644531 29.75 104.410156 30.054688 104.410156 30.875 L 104.410156 31.320312 C 103.378906 29.75 102.019531 29.75 101.621094 29.75 C 97.121094 29.75 96.746094 33.523438 96.746094 35.375 C 96.746094 37.203125 97.121094 40.953125 101.457031 40.953125 C 102.699219 40.953125 103.542969 40.484375 104.339844 39.570312 L 104.339844 44.09375 C 104.339844 44.84375 104.503906 45.21875 105.464844 45.21875 L 106.402344 45.21875 C 107.292969 45.21875 107.527344 44.914062 107.527344 44.09375 Z M 104.410156 38.023438 C 103.988281 38.585938 103.355469 39.265625 102.300781 39.265625 C 99.910156 39.265625 99.910156 36.3125 99.910156 35.398438 C 99.910156 34.460938 99.910156 31.578125 102.535156 31.578125 C 102.886719 31.578125 103.378906 31.671875 103.800781 32.117188 C 104.410156 32.703125 104.410156 33.125 104.410156 33.40625 Z M 104.410156 38.023438 "/>
<path fill-rule="nonzero" fill="rgb(0%, 0%, 0%)" fill-opacity="1" d="M 120.609375 31.132812 C 120.609375 30.382812 120.46875 30.007812 119.507812 30.007812 L 118.570312 30.007812 C 117.679688 30.007812 117.445312 30.3125 117.445312 31.132812 L 117.445312 36.664062 C 117.445312 38.210938 116.625 39.523438 114.984375 39.523438 C 113.671875 39.523438 113.53125 39.195312 113.53125 37.976562 L 113.53125 31.132812 C 113.53125 30.382812 113.367188 30.007812 112.40625 30.007812 L 111.46875 30.007812 C 110.648438 30.007812 110.367188 30.265625 110.367188 31.132812 L 110.367188 37.765625 C 110.367188 40.25 111.703125 40.953125 114.140625 40.953125 C 114.773438 40.953125 116.414062 40.953125 117.515625 38.960938 L 117.515625 39.570312 C 117.515625 40.320312 117.679688 40.695312 118.640625 40.695312 L 119.507812 40.695312 C 120.398438 40.695312 120.609375 40.390625 120.609375 39.570312 Z M 120.609375 31.132812 "/>
<path fill-rule="nonzero" fill="rgb(0%, 0%, 0%)" fill-opacity="1" d="M 132.09375 35.703125 C 132.632812 35.703125 133.21875 35.679688 133.21875 34.625 C 133.21875 31.625 131.8125 29.609375 128.34375 29.609375 C 124.59375 29.609375 122.765625 31.71875 122.765625 35.257812 C 122.765625 39.078125 124.96875 40.953125 128.648438 40.953125 C 129.515625 40.953125 130.851562 40.835938 132.398438 40.0625 C 132.914062 39.804688 133.078125 39.734375 133.078125 39.453125 C 133.078125 39.289062 133.007812 38.609375 132.984375 38.421875 C 132.890625 37.71875 132.867188 37.695312 132.65625 37.695312 C 132.5625 37.695312 132.515625 37.695312 132.257812 37.929688 C 130.875 39.101562 129.46875 39.265625 128.742188 39.265625 C 126.09375 39.265625 125.8125 37.203125 125.742188 35.703125 Z M 125.765625 34.460938 C 125.835938 33.054688 126.304688 31.296875 128.34375 31.296875 C 130.195312 31.296875 130.546875 32.65625 130.617188 34.460938 Z M 125.765625 34.460938 "/>
<path fill-rule="nonzero" fill="rgb(0%, 0%, 0%)" fill-opacity="1" d="M 147.597656 38.28125 C 147.597656 37.671875 147.574219 37.648438 146.964844 37.648438 L 145.160156 37.648438 C 144.574219 37.648438 144.550781 37.671875 144.550781 38.28125 L 144.550781 40.0625 C 144.550781 40.671875 144.574219 40.695312 145.160156 40.695312 L 146.964844 40.695312 C 147.574219 40.695312 147.597656 40.671875 147.597656 40.0625 Z M 147.597656 38.28125 "/>
<path fill-rule="nonzero" fill="rgb(0%, 0%, 0%)" fill-opacity="1" d="M 154.722656 38.28125 C 154.722656 37.671875 154.699219 37.648438 154.089844 37.648438 L 152.285156 37.648438 C 151.699219 37.648438 151.675781 37.671875 151.675781 38.28125 L 151.675781 40.0625 C 151.675781 40.671875 151.699219 40.695312 152.285156 40.695312 L 154.089844 40.695312 C 154.699219 40.695312 154.722656 40.671875 154.722656 40.0625 Z M 154.722656 38.28125 "/>
<path fill-rule="nonzero" fill="rgb(0%, 0%, 0%)" fill-opacity="1" d="M 161.847656 38.28125 C 161.847656 37.671875 161.824219 37.648438 161.214844 37.648438 L 159.410156 37.648438 C 158.824219 37.648438 158.800781 37.671875 158.800781 38.28125 L 158.800781 40.0625 C 158.800781 40.671875 158.824219 40.695312 159.410156 40.695312 L 161.214844 40.695312 C 161.824219 40.695312 161.847656 40.671875 161.847656 40.0625 Z M 161.847656 38.28125 "/>
<path fill="none" stroke-width="1.99255" stroke-linecap="butt" stroke-linejoin="round" stroke="rgb(19.607843%, 19.607843%, 19.607843%)" stroke-opacity="1" stroke-miterlimit="10" d="M -130.004679 -17.269625 L 130.005737 -17.269625 L 130.005737 17.269438 L -130.004679 17.269438 Z M -130.004679 -17.269625 " transform="matrix(1.5, 0, 0, -1.5, 386.757019, 34.869)"/>
<path fill-rule="nonzero" fill="rgb(0%, 0%, 0%)" fill-opacity="1" d="M 290.640625 33.453125 L 296.757812 33.453125 C 297.484375 33.453125 297.882812 33.289062 297.882812 32.351562 C 297.882812 31.484375 297.578125 31.25 296.757812 31.25 L 290.640625 31.25 L 290.640625 26.9375 L 291.789062 26.9375 C 293.59375 26.9375 295.445312 27.007812 297.25 27.007812 C 298.070312 27.007812 298.609375 27.007812 298.609375 25.882812 L 298.609375 25.695312 C 298.609375 24.945312 298.445312 24.570312 297.484375 24.570312 L 288.320312 24.570312 C 287.476562 24.570312 287.21875 24.828125 287.21875 25.695312 L 287.21875 39.570312 C 287.21875 40.414062 287.453125 40.695312 288.320312 40.695312 L 297.835938 40.695312 C 298.726562 40.695312 298.960938 40.390625 298.960938 39.570312 L 298.960938 39.242188 C 298.960938 38.140625 298.421875 38.140625 297.648438 38.140625 C 296.453125 38.140625 295.257812 38.1875 294.039062 38.1875 C 293.453125 38.1875 291.0625 38.210938 290.640625 38.234375 Z M 290.640625 33.453125 "/>
<path fill-rule="nonzero" fill="rgb(0%, 0%, 0%)" fill-opacity="1" d="M 311.695312 33.125 C 311.695312 30.710938 310.6875 29.75 308.296875 29.75 C 305.859375 29.75 304.804688 31.53125 304.5 32.164062 L 304.476562 32.164062 L 304.476562 30.992188 C 304.476562 30.242188 304.3125 29.867188 303.351562 29.867188 L 302.554688 29.867188 C 301.734375 29.867188 301.453125 30.125 301.453125 30.992188 L 301.453125 39.570312 C 301.453125 40.414062 301.710938 40.695312 302.554688 40.695312 L 303.492188 40.695312 C 304.382812 40.695312 304.617188 40.390625 304.617188 39.570312 L 304.617188 34.414062 C 304.617188 32.398438 305.976562 31.4375 307.171875 31.4375 C 308.296875 31.4375 308.53125 31.976562 308.53125 33.171875 L 308.53125 39.570312 C 308.53125 40.320312 308.695312 40.695312 309.65625 40.695312 L 310.59375 40.695312 C 311.484375 40.695312 311.695312 40.390625 311.695312 39.570312 Z M 311.695312 33.125 "/>
<path fill-rule="nonzero" fill="rgb(0%, 0%, 0%)" fill-opacity="1" d="M 318.210938 31.695312 L 320.273438 31.695312 C 320.554688 31.695312 321.398438 31.695312 321.398438 30.851562 C 321.398438 30.007812 320.554688 30.007812 320.273438 30.007812 L 318.210938 30.007812 L 318.210938 28.085938 C 318.210938 27.335938 318.046875 26.960938 317.085938 26.960938 L 316.359375 26.960938 C 315.515625 26.960938 315.257812 27.21875 315.257812 28.085938 L 315.257812 30.007812 L 314.71875 30.007812 C 314.460938 30.007812 313.59375 30.007812 313.59375 30.851562 C 313.59375 31.695312 314.4375 31.695312 314.71875 31.695312 L 315.1875 31.695312 L 315.1875 37.601562 C 315.1875 39.945312 316.007812 40.953125 317.625 40.953125 C 317.835938 40.953125 318.867188 40.953125 320.085938 40.578125 C 320.460938 40.460938 321.820312 40.039062 321.820312 39.59375 C 321.820312 39.523438 321.773438 39.359375 321.632812 38.867188 C 321.515625 38.398438 321.46875 38.28125 321.257812 38.28125 C 321.140625 38.28125 321.117188 38.304688 320.976562 38.421875 C 320.71875 38.609375 320.109375 39.125 319.125 39.125 C 318.5625 39.125 318.210938 38.726562 318.210938 37.203125 Z M 318.210938 31.695312 "/>
<path fill-rule="nonzero" fill="rgb(0%, 0%, 0%)" fill-opacity="1" d="M 334.621094 35.445312 C 334.621094 31.625 332.769531 29.609375 328.972656 29.609375 C 325.058594 29.609375 323.277344 31.695312 323.277344 35.445312 C 323.277344 39.242188 325.269531 40.953125 328.949219 40.953125 C 332.605469 40.953125 334.621094 39.265625 334.621094 35.445312 Z M 328.972656 39.125 C 326.441406 39.125 326.441406 37.039062 326.441406 35.164062 C 326.441406 33.382812 326.441406 31.296875 328.949219 31.296875 C 331.457031 31.296875 331.457031 33.359375 331.457031 35.164062 C 331.457031 37.015625 331.457031 39.125 328.972656 39.125 Z M 328.972656 39.125 "/>
<path fill-rule="nonzero" fill="rgb(0%, 0%, 0%)" fill-opacity="1" d="M 347.019531 33.125 C 347.019531 30.710938 346.011719 29.75 343.621094 29.75 C 341.183594 29.75 340.128906 31.53125 339.824219 32.164062 L 339.800781 32.164062 L 339.800781 30.992188 C 339.800781 30.242188 339.636719 29.867188 338.675781 29.867188 L 337.878906 29.867188 C 337.058594 29.867188 336.777344 30.125 336.777344 30.992188 L 336.777344 39.570312 C 336.777344 40.414062 337.035156 40.695312 337.878906 40.695312 L 338.816406 40.695312 C 339.707031 40.695312 339.941406 40.390625 339.941406 39.570312 L 339.941406 34.414062 C 339.941406 32.398438 341.300781 31.4375 342.496094 31.4375 C 343.621094 31.4375 343.855469 31.976562 343.855469 33.171875 L 343.855469 39.570312 C 343.855469 40.320312 344.019531 40.695312 344.980469 40.695312 L 345.917969 40.695312 C 346.808594 40.695312 347.019531 40.390625 347.019531 39.570312 Z M 347.019531 33.125 "/>
<path fill-rule="nonzero" fill="rgb(0%, 0%, 0%)" fill-opacity="1" d="M 359.117188 39.523438 C 359.117188 39.265625 359.023438 38.210938 358.976562 37.90625 C 358.976562 37.835938 358.929688 37.601562 358.695312 37.601562 C 358.601562 37.601562 358.554688 37.601562 358.320312 37.835938 C 357.921875 38.1875 356.820312 39.125 354.921875 39.125 C 352.484375 39.125 352.484375 36.78125 352.484375 35.28125 C 352.484375 33.40625 352.601562 31.4375 354.992188 31.4375 C 356.492188 31.4375 357.125 31.8125 357.96875 32.515625 C 358.25 32.773438 358.296875 32.773438 358.390625 32.773438 C 358.625 32.773438 358.671875 32.5625 358.695312 32.46875 C 358.742188 32.28125 358.976562 30.96875 358.976562 30.851562 C 358.976562 30.640625 358.8125 30.546875 358.414062 30.359375 C 357.289062 29.84375 356.585938 29.609375 354.96875 29.609375 C 351.476562 29.609375 349.320312 31.25 349.320312 35.328125 C 349.320312 39.195312 351.3125 40.953125 354.851562 40.953125 C 355.460938 40.953125 356.867188 40.929688 358.4375 40.132812 C 359.09375 39.78125 359.117188 39.757812 359.117188 39.523438 Z M 359.117188 39.523438 "/>
<path fill-rule="nonzero" fill="rgb(0%, 0%, 0%)" fill-opacity="1" d="M 369.902344 35.703125 C 370.441406 35.703125 371.027344 35.679688 371.027344 34.625 C 371.027344 31.625 369.621094 29.609375 366.152344 29.609375 C 362.402344 29.609375 360.574219 31.71875 360.574219 35.257812 C 360.574219 39.078125 362.777344 40.953125 366.457031 40.953125 C 367.324219 40.953125 368.660156 40.835938 370.207031 40.0625 C 370.722656 39.804688 370.886719 39.734375 370.886719 39.453125 C 370.886719 39.289062 370.816406 38.609375 370.792969 38.421875 C 370.699219 37.71875 370.675781 37.695312 370.464844 37.695312 C 370.371094 37.695312 370.324219 37.695312 370.066406 37.929688 C 368.683594 39.101562 367.277344 39.265625 366.550781 39.265625 C 363.902344 39.265625 363.621094 37.203125 363.550781 35.703125 Z M 363.574219 34.460938 C 363.644531 33.054688 364.113281 31.296875 366.152344 31.296875 C 368.003906 31.296875 368.355469 32.65625 368.425781 34.460938 Z M 363.574219 34.460938 "/>
<path fill-rule="nonzero" fill="rgb(0%, 0%, 0%)" fill-opacity="1" d="M 381 37.414062 C 381 36.101562 380.296875 35.28125 379.875 34.90625 C 378.9375 34.0625 378.140625 33.921875 377.15625 33.734375 C 375.867188 33.523438 374.929688 33.335938 374.929688 32.421875 C 374.929688 31.460938 375.703125 31.273438 376.617188 31.273438 C 378.1875 31.273438 379.007812 31.859375 379.617188 32.375 C 379.851562 32.609375 379.898438 32.609375 379.992188 32.609375 C 380.226562 32.609375 380.273438 32.398438 380.296875 32.304688 C 380.34375 32.117188 380.578125 30.804688 380.578125 30.6875 C 380.578125 30.3125 379.335938 29.984375 379.078125 29.890625 C 378.164062 29.632812 377.414062 29.609375 376.804688 29.609375 C 375.75 29.609375 372.632812 29.609375 372.632812 32.960938 C 372.632812 34.085938 373.148438 34.789062 373.78125 35.351562 C 374.578125 36.101562 375.492188 36.265625 376.828125 36.523438 C 377.507812 36.640625 378.703125 36.851562 378.703125 37.882812 C 378.703125 38.960938 377.789062 39.125 376.875 39.125 C 375.84375 39.125 374.53125 38.820312 373.453125 37.53125 C 373.335938 37.414062 373.265625 37.34375 373.125 37.34375 C 372.890625 37.34375 372.84375 37.554688 372.820312 37.695312 C 372.773438 38.023438 372.492188 39.335938 372.492188 39.570312 C 372.492188 39.992188 374.203125 40.53125 374.226562 40.554688 C 375.515625 40.953125 376.476562 40.953125 376.875 40.953125 C 378.070312 40.953125 381 40.859375 381 37.414062 Z M 381 37.414062 "/>
<path fill-rule="nonzero" fill="rgb(0%, 0%, 0%)" fill-opacity="1" d="M 399.386719 37.414062 C 399.386719 36.101562 398.683594 35.28125 398.261719 34.90625 C 397.324219 34.0625 396.527344 33.921875 395.542969 33.734375 C 394.253906 33.523438 393.316406 33.335938 393.316406 32.421875 C 393.316406 31.460938 394.089844 31.273438 395.003906 31.273438 C 396.574219 31.273438 397.394531 31.859375 398.003906 32.375 C 398.238281 32.609375 398.285156 32.609375 398.378906 32.609375 C 398.613281 32.609375 398.660156 32.398438 398.683594 32.304688 C 398.730469 32.117188 398.964844 30.804688 398.964844 30.6875 C 398.964844 30.3125 397.722656 29.984375 397.464844 29.890625 C 396.550781 29.632812 395.800781 29.609375 395.191406 29.609375 C 394.136719 29.609375 391.019531 29.609375 391.019531 32.960938 C 391.019531 34.085938 391.535156 34.789062 392.167969 35.351562 C 392.964844 36.101562 393.878906 36.265625 395.214844 36.523438 C 395.894531 36.640625 397.089844 36.851562 397.089844 37.882812 C 397.089844 38.960938 396.175781 39.125 395.261719 39.125 C 394.230469 39.125 392.917969 38.820312 391.839844 37.53125 C 391.722656 37.414062 391.652344 37.34375 391.511719 37.34375 C 391.277344 37.34375 391.230469 37.554688 391.207031 37.695312 C 391.160156 38.023438 390.878906 39.335938 390.878906 39.570312 C 390.878906 39.992188 392.589844 40.53125 392.613281 40.554688 C 393.902344 40.953125 394.863281 40.953125 395.261719 40.953125 C 396.457031 40.953125 399.386719 40.859375 399.386719 37.414062 Z M 399.386719 37.414062 "/>
<path fill-rule="nonzero" fill="rgb(0%, 0%, 0%)" fill-opacity="1" d="M 409.921875 25.15625 C 410.039062 25.0625 410.179688 24.945312 410.179688 24.804688 C 410.179688 24.5 409.921875 24.5 409.546875 24.5 L 407.625 24.5 C 407.15625 24.5 407.132812 24.523438 406.921875 24.78125 L 404.929688 27.523438 C 404.71875 27.78125 404.71875 27.828125 404.71875 27.875 C 404.71875 28.179688 404.976562 28.179688 405.351562 28.179688 L 406.21875 28.179688 Z M 409.921875 25.15625 "/>
<path fill-rule="nonzero" fill="rgb(0%, 0%, 0%)" fill-opacity="1" d="M 410.035156 35.703125 C 410.574219 35.703125 411.160156 35.679688 411.160156 34.625 C 411.160156 31.625 409.753906 29.609375 406.285156 29.609375 C 402.535156 29.609375 400.707031 31.71875 400.707031 35.257812 C 400.707031 39.078125 402.910156 40.953125 406.589844 40.953125 C 407.457031 40.953125 408.792969 40.835938 410.339844 40.0625 C 410.855469 39.804688 411.019531 39.734375 411.019531 39.453125 C 411.019531 39.289062 410.949219 38.609375 410.925781 38.421875 C 410.832031 37.71875 410.808594 37.695312 410.597656 37.695312 C 410.503906 37.695312 410.457031 37.695312 410.199219 37.929688 C 408.816406 39.101562 407.410156 39.265625 406.683594 39.265625 C 404.035156 39.265625 403.753906 37.203125 403.683594 35.703125 Z M 403.707031 34.460938 C 403.777344 33.054688 404.246094 31.296875 406.285156 31.296875 C 408.136719 31.296875 408.488281 32.65625 408.558594 34.460938 Z M 403.707031 34.460938 "/>
<path fill-rule="nonzero" fill="rgb(0%, 0%, 0%)" fill-opacity="1" d="M 432.078125 30.875 C 432.078125 30.125 431.914062 29.75 430.953125 29.75 L 430.085938 29.75 C 429.195312 29.75 428.960938 30.054688 428.960938 30.875 L 428.960938 31.320312 C 427.929688 29.75 426.570312 29.75 426.171875 29.75 C 421.671875 29.75 421.296875 33.523438 421.296875 35.375 C 421.296875 37.203125 421.671875 40.953125 426.007812 40.953125 C 427.25 40.953125 428.09375 40.484375 428.890625 39.570312 L 428.890625 44.09375 C 428.890625 44.84375 429.054688 45.21875 430.015625 45.21875 L 430.953125 45.21875 C 431.84375 45.21875 432.078125 44.914062 432.078125 44.09375 Z M 428.960938 38.023438 C 428.539062 38.585938 427.90625 39.265625 426.851562 39.265625 C 424.460938 39.265625 424.460938 36.3125 424.460938 35.398438 C 424.460938 34.460938 424.460938 31.578125 427.085938 31.578125 C 427.4375 31.578125 427.929688 31.671875 428.351562 32.117188 C 428.960938 32.703125 428.960938 33.125 428.960938 33.40625 Z M 428.960938 38.023438 "/>
<path fill-rule="nonzero" fill="rgb(0%, 0%, 0%)" fill-opacity="1" d="M 445.160156 31.132812 C 445.160156 30.382812 445.019531 30.007812 444.058594 30.007812 L 443.121094 30.007812 C 442.230469 30.007812 441.996094 30.3125 441.996094 31.132812 L 441.996094 36.664062 C 441.996094 38.210938 441.175781 39.523438 439.535156 39.523438 C 438.222656 39.523438 438.082031 39.195312 438.082031 37.976562 L 438.082031 31.132812 C 438.082031 30.382812 437.917969 30.007812 436.957031 30.007812 L 436.019531 30.007812 C 435.199219 30.007812 434.917969 30.265625 434.917969 31.132812 L 434.917969 37.765625 C 434.917969 40.25 436.253906 40.953125 438.691406 40.953125 C 439.324219 40.953125 440.964844 40.953125 442.066406 38.960938 L 442.066406 39.570312 C 442.066406 40.320312 442.230469 40.695312 443.191406 40.695312 L 444.058594 40.695312 C 444.949219 40.695312 445.160156 40.390625 445.160156 39.570312 Z M 445.160156 31.132812 "/>
<path fill-rule="nonzero" fill="rgb(0%, 0%, 0%)" fill-opacity="1" d="M 456.644531 35.703125 C 457.183594 35.703125 457.769531 35.679688 457.769531 34.625 C 457.769531 31.625 456.363281 29.609375 452.894531 29.609375 C 449.144531 29.609375 447.316406 31.71875 447.316406 35.257812 C 447.316406 39.078125 449.519531 40.953125 453.199219 40.953125 C 454.066406 40.953125 455.402344 40.835938 456.949219 40.0625 C 457.464844 39.804688 457.628906 39.734375 457.628906 39.453125 C 457.628906 39.289062 457.558594 38.609375 457.535156 38.421875 C 457.441406 37.71875 457.417969 37.695312 457.207031 37.695312 C 457.113281 37.695312 457.066406 37.695312 456.808594 37.929688 C 455.425781 39.101562 454.019531 39.265625 453.292969 39.265625 C 450.644531 39.265625 450.363281 37.203125 450.292969 35.703125 Z M 450.316406 34.460938 C 450.386719 33.054688 450.855469 31.296875 452.894531 31.296875 C 454.746094 31.296875 455.097656 32.65625 455.167969 34.460938 Z M 450.316406 34.460938 "/>
<path fill-rule="nonzero" fill="rgb(0%, 0%, 0%)" fill-opacity="1" d="M 472.148438 38.28125 C 472.148438 37.671875 472.125 37.648438 471.515625 37.648438 L 469.710938 37.648438 C 469.125 37.648438 469.101562 37.671875 469.101562 38.28125 L 469.101562 40.0625 C 469.101562 40.671875 469.125 40.695312 469.710938 40.695312 L 471.515625 40.695312 C 472.125 40.695312 472.148438 40.671875 472.148438 40.0625 Z M 472.148438 38.28125 "/>
<path fill-rule="nonzero" fill="rgb(0%, 0%, 0%)" fill-opacity="1" d="M 479.273438 38.28125 C 479.273438 37.671875 479.25 37.648438 478.640625 37.648438 L 476.835938 37.648438 C 476.25 37.648438 476.226562 37.671875 476.226562 38.28125 L 476.226562 40.0625 C 476.226562 40.671875 476.25 40.695312 476.835938 40.695312 L 478.640625 40.695312 C 479.25 40.695312 479.273438 40.671875 479.273438 40.0625 Z M 479.273438 38.28125 "/>
<path fill-rule="nonzero" fill="rgb(0%, 0%, 0%)" fill-opacity="1" d="M 486.398438 38.28125 C 486.398438 37.671875 486.375 37.648438 485.765625 37.648438 L 483.960938 37.648438 C 483.375 37.648438 483.351562 37.671875 483.351562 38.28125 L 483.351562 40.0625 C 483.351562 40.671875 483.375 40.695312 483.960938 40.695312 L 485.765625 40.695312 C 486.375 40.695312 486.398438 40.671875 486.398438 40.0625 Z M 486.398438 38.28125 "/>
<path fill="none" stroke-width="0.99628" stroke-linecap="butt" stroke-linejoin="round" stroke="rgb(19.607843%, 19.607843%, 19.607843%)" stroke-opacity="1" stroke-miterlimit="10" d="M -60.929436 -17.268481 L 60.929939 -17.268481 L 60.929939 17.270582 L -60.929436 17.270582 Z M -60.929436 -17.268481 " transform="matrix(1.5, 0, 0, -1.5, 100.358997, 87.421497)"/>
<path fill-rule="nonzero" fill="rgb(0%, 0%, 0%)" fill-opacity="1" d="M 109.847656 86.90625 L 109.847656 85.523438 L 87.042969 85.523438 L 87.042969 86.90625 Z M 109.847656 86.90625 "/>
<path fill-rule="nonzero" fill="rgb(0%, 0%, 0%)" fill-opacity="1" d="M 121.285156 86.90625 L 121.285156 85.523438 L 109.871094 85.523438 L 109.871094 86.90625 Z M 121.285156 86.90625 "/>
<path fill="none" stroke-width="0.99628" stroke-linecap="butt" stroke-linejoin="round" stroke="rgb(19.607843%, 19.607843%, 19.607843%)" stroke-opacity="1" stroke-miterlimit="10" d="M -130.004679 -17.268481 L 130.005737 -17.268481 L 130.005737 17.270582 L -130.004679 17.270582 Z M -130.004679 -17.268481 " transform="matrix(1.5, 0, 0, -1.5, 386.757019, 87.421497)"/>
<path fill-rule="nonzero" fill="rgb(0%, 0%, 0%)" fill-opacity="1" d="M 392.441406 86.90625 L 392.441406 85.523438 L 369.636719 85.523438 L 369.636719 86.90625 Z M 392.441406 86.90625 "/>
<path fill-rule="nonzero" fill="rgb(0%, 0%, 0%)" fill-opacity="1" d="M 403.878906 86.90625 L 403.878906 85.523438 L 392.464844 85.523438 L 392.464844 86.90625 Z M 403.878906 86.90625 "/>
</svg>
