<?xml version="1.0" encoding="UTF-8"?>
<svg xmlns="http://www.w3.org/2000/svg" xmlns:xlink="http://www.w3.org/1999/xlink" width="621.810013" height="104.275497" viewBox="0 0 621.810013 104.275497">
<path fill="none" stroke-width="1.99255" stroke-linecap="butt" stroke-linejoin="round" stroke="rgb(19.607843%, 19.607843%, 19.607843%)" stroke-opacity="1" stroke-miterlimit="10" d="M -86.256439 -14.389812 L 86.256582 -14.389812 L 86.256582 14.391438 L -86.256439 14.391438 Z M -86.256439 -14.389812 " transform="matrix(1.5, 0, 0, -1.5, 138.349503, 30.552)"/>
<path fill-rule="nonzero" fill="rgb(0%, 0%, 0%)" fill-opacity="1" d="M 90.667969 26.832031 C 90.246094 26.738281 89.027344 26.292969 89.027344 25.191406 C 89.027344 23.527344 90.691406 23.503906 91.347656 23.503906 C 92.425781 23.503906 93.410156 23.761719 94.347656 24.675781 C 94.675781 24.980469 94.675781 25.003906 94.769531 25.003906 C 94.886719 25.003906 94.980469 24.933594 95.027344 24.652344 L 95.332031 22.964844 C 95.355469 22.800781 95.355469 22.753906 95.355469 22.707031 C 95.355469 22.542969 95.355469 22.519531 94.863281 22.285156 C 93.480469 21.605469 92.332031 21.488281 91.347656 21.488281 C 89.613281 21.488281 86.613281 21.910156 86.613281 25.542969 C 86.613281 26.925781 87.316406 27.816406 87.691406 28.191406 C 88.675781 29.222656 89.589844 29.410156 91.113281 29.761719 C 92.191406 30.019531 92.636719 30.113281 93.058594 30.488281 C 93.246094 30.699219 93.644531 31.097656 93.644531 31.824219 C 93.644531 33.652344 91.980469 33.722656 91.347656 33.722656 C 89.707031 33.722656 88.300781 33.066406 87.316406 32.175781 C 87.082031 31.941406 87.058594 31.941406 86.964844 31.941406 C 86.847656 31.941406 86.753906 32.011719 86.707031 32.292969 L 86.402344 33.980469 C 86.378906 34.144531 86.378906 34.191406 86.378906 34.238281 C 86.378906 34.660156 88.394531 35.363281 88.488281 35.386719 C 89.800781 35.808594 90.832031 35.832031 91.347656 35.832031 C 94.253906 35.832031 96.082031 34.542969 96.082031 31.519531 C 96.082031 29.339844 94.464844 27.722656 92.519531 27.277344 Z M 90.667969 26.832031 "/>
<path fill-rule="nonzero" fill="rgb(0%, 0%, 0%)" fill-opacity="1" d="M 99.28125 21.910156 C 98.648438 21.910156 98.34375 22.027344 98.34375 22.800781 L 98.34375 23.691406 C 98.34375 24.324219 98.53125 24.558594 99.257812 24.558594 L 100.265625 24.558594 C 101.203125 24.558594 101.203125 24.160156 101.203125 23.246094 C 101.203125 22.308594 101.203125 21.910156 100.265625 21.910156 Z M 101.0625 27.441406 C 101.0625 26.832031 100.921875 26.503906 100.125 26.503906 L 99.398438 26.503906 C 98.71875 26.503906 98.484375 26.714844 98.484375 27.441406 L 98.484375 34.472656 C 98.484375 35.175781 98.695312 35.410156 99.398438 35.410156 L 100.125 35.410156 C 100.875 35.410156 101.0625 35.152344 101.0625 34.472656 Z M 101.0625 27.441406 "/>
<path fill-rule="nonzero" fill="rgb(0%, 0%, 0%)" fill-opacity="1" d="M 117.074219 32.667969 C 117.074219 31.589844 116.488281 30.910156 116.136719 30.582031 C 115.363281 29.902344 114.683594 29.785156 113.863281 29.621094 C 112.808594 29.433594 112.035156 29.269531 112.035156 28.519531 C 112.035156 27.722656 112.667969 27.558594 113.417969 27.558594 C 114.730469 27.558594 115.433594 28.050781 115.925781 28.472656 C 116.136719 28.660156 116.160156 28.660156 116.253906 28.660156 C 116.441406 28.660156 116.488281 28.496094 116.488281 28.425781 C 116.535156 28.261719 116.722656 27.183594 116.722656 27.066406 C 116.722656 26.761719 115.691406 26.480469 115.480469 26.410156 C 114.707031 26.199219 114.097656 26.175781 113.582031 26.175781 C 112.714844 26.175781 110.113281 26.175781 110.113281 28.964844 C 110.113281 29.902344 110.535156 30.488281 111.050781 30.957031 C 111.730469 31.589844 112.503906 31.707031 113.605469 31.941406 C 114.167969 32.035156 115.152344 32.199219 115.152344 33.066406 C 115.152344 33.980469 114.402344 34.097656 113.652344 34.097656 C 112.785156 34.097656 111.707031 33.863281 110.792969 32.761719 C 110.699219 32.667969 110.628906 32.621094 110.511719 32.621094 C 110.324219 32.621094 110.277344 32.785156 110.253906 32.902344 C 110.230469 33.183594 109.996094 34.285156 109.996094 34.472656 C 109.996094 34.824219 111.425781 35.269531 111.449219 35.292969 C 112.503906 35.621094 113.300781 35.621094 113.652344 35.621094 C 114.636719 35.621094 117.074219 35.550781 117.074219 32.667969 Z M 117.074219 32.667969 "/>
<path fill-rule="nonzero" fill="rgb(0%, 0%, 0%)" fill-opacity="1" d="M 125.859375 22.472656 C 125.953125 22.402344 126.070312 22.285156 126.070312 22.167969 C 126.070312 21.933594 125.859375 21.933594 125.53125 21.933594 L 123.9375 21.933594 C 123.5625 21.933594 123.539062 21.957031 123.375 22.167969 L 121.6875 24.441406 C 121.523438 24.652344 121.523438 24.675781 121.523438 24.722656 C 121.523438 24.980469 121.734375 24.980469 122.039062 24.980469 L 122.765625 24.980469 Z M 125.859375 22.472656 "/>
<path fill-rule="nonzero" fill="rgb(0%, 0%, 0%)" fill-opacity="1" d="M 125.945312 31.261719 C 126.390625 31.261719 126.882812 31.238281 126.882812 30.347656 C 126.882812 27.863281 125.710938 26.175781 122.828125 26.175781 C 119.710938 26.175781 118.1875 27.933594 118.1875 30.886719 C 118.1875 34.074219 120.015625 35.621094 123.085938 35.621094 C 123.8125 35.621094 124.914062 35.527344 126.203125 34.894531 C 126.625 34.660156 126.765625 34.613281 126.765625 34.378906 C 126.765625 34.238281 126.71875 33.675781 126.695312 33.535156 C 126.601562 32.925781 126.601562 32.902344 126.414062 32.902344 C 126.34375 32.902344 126.296875 32.902344 126.085938 33.089844 C 124.9375 34.097656 123.765625 34.214844 123.15625 34.214844 C 120.953125 34.214844 120.71875 32.503906 120.671875 31.261719 Z M 120.695312 30.230469 C 120.742188 29.035156 121.140625 27.582031 122.828125 27.582031 C 124.375 27.582031 124.679688 28.707031 124.726562 30.230469 Z M 120.695312 30.230469 "/>
<path fill-rule="nonzero" fill="rgb(0%, 0%, 0%)" fill-opacity="1" d="M 144.320312 27.230469 C 144.320312 26.597656 144.179688 26.292969 143.382812 26.292969 L 142.65625 26.292969 C 141.929688 26.292969 141.71875 26.550781 141.71875 27.230469 L 141.71875 27.605469 C 140.875 26.292969 139.726562 26.292969 139.398438 26.292969 C 135.648438 26.292969 135.34375 29.433594 135.34375 30.980469 C 135.34375 32.503906 135.648438 35.621094 139.257812 35.621094 C 140.289062 35.621094 141.015625 35.246094 141.671875 34.472656 L 141.671875 38.246094 C 141.671875 38.878906 141.8125 39.183594 142.609375 39.183594 L 143.382812 39.183594 C 144.109375 39.183594 144.320312 38.925781 144.320312 38.246094 Z M 141.71875 33.183594 C 141.367188 33.652344 140.851562 34.214844 139.960938 34.214844 C 137.96875 34.214844 137.96875 31.753906 137.96875 31.003906 C 137.96875 30.230469 137.96875 27.816406 140.148438 27.816406 C 140.476562 27.816406 140.875 27.886719 141.226562 28.261719 C 141.71875 28.753906 141.71875 29.105469 141.71875 29.339844 Z M 141.71875 33.183594 "/>
<path fill-rule="nonzero" fill="rgb(0%, 0%, 0%)" fill-opacity="1" d="M 155.222656 27.441406 C 155.222656 26.832031 155.105469 26.503906 154.308594 26.503906 L 153.535156 26.503906 C 152.785156 26.503906 152.597656 26.761719 152.597656 27.441406 L 152.597656 32.058594 C 152.597656 33.324219 151.917969 34.449219 150.535156 34.449219 C 149.433594 34.449219 149.316406 34.167969 149.316406 33.136719 L 149.316406 27.441406 C 149.316406 26.832031 149.199219 26.503906 148.402344 26.503906 L 147.628906 26.503906 C 146.925781 26.503906 146.691406 26.714844 146.691406 27.441406 L 146.691406 32.972656 C 146.691406 35.035156 147.816406 35.621094 149.832031 35.621094 C 150.347656 35.621094 151.730469 35.621094 152.644531 33.980469 L 152.644531 34.472656 C 152.644531 35.105469 152.785156 35.410156 153.582031 35.410156 L 154.308594 35.410156 C 155.035156 35.410156 155.222656 35.152344 155.222656 34.472656 Z M 155.222656 27.441406 "/>
<path fill-rule="nonzero" fill="rgb(0%, 0%, 0%)" fill-opacity="1" d="M 164.785156 31.261719 C 165.230469 31.261719 165.722656 31.238281 165.722656 30.347656 C 165.722656 27.863281 164.550781 26.175781 161.667969 26.175781 C 158.550781 26.175781 157.027344 27.933594 157.027344 30.886719 C 157.027344 34.074219 158.855469 35.621094 161.925781 35.621094 C 162.652344 35.621094 163.753906 35.527344 165.042969 34.894531 C 165.464844 34.660156 165.605469 34.613281 165.605469 34.378906 C 165.605469 34.238281 165.558594 33.675781 165.535156 33.535156 C 165.441406 32.925781 165.441406 32.902344 165.253906 32.902344 C 165.183594 32.902344 165.136719 32.902344 164.925781 33.089844 C 163.777344 34.097656 162.605469 34.214844 161.996094 34.214844 C 159.792969 34.214844 159.558594 32.503906 159.511719 31.261719 Z M 159.535156 30.230469 C 159.582031 29.035156 159.980469 27.582031 161.667969 27.582031 C 163.214844 27.582031 163.519531 28.707031 163.566406 30.230469 Z M 159.535156 30.230469 "/>
<path fill-rule="nonzero" fill="rgb(0%, 0%, 0%)" fill-opacity="1" d="M 177.71875 33.394531 C 177.71875 32.878906 177.695312 32.855469 177.179688 32.855469 L 175.703125 32.855469 C 175.1875 32.855469 175.164062 32.878906 175.164062 33.394531 L 175.164062 34.894531 C 175.164062 35.386719 175.1875 35.410156 175.703125 35.410156 L 177.179688 35.410156 C 177.695312 35.410156 177.71875 35.386719 177.71875 34.894531 Z M 177.71875 33.394531 "/>
<path fill-rule="nonzero" fill="rgb(0%, 0%, 0%)" fill-opacity="1" d="M 183.65625 33.394531 C 183.65625 32.878906 183.632812 32.855469 183.117188 32.855469 L 181.640625 32.855469 C 181.125 32.855469 181.101562 32.878906 181.101562 33.394531 L 181.101562 34.894531 C 181.101562 35.386719 181.125 35.410156 181.640625 35.410156 L 183.117188 35.410156 C 183.632812 35.410156 183.65625 35.386719 183.65625 34.894531 Z M 183.65625 33.394531 "/>
<path fill-rule="nonzero" fill="rgb(0%, 0%, 0%)" fill-opacity="1" d="M 189.59375 33.394531 C 189.59375 32.878906 189.570312 32.855469 189.054688 32.855469 L 187.578125 32.855469 C 187.0625 32.855469 187.039062 32.878906 187.039062 33.394531 L 187.039062 34.894531 C 187.039062 35.386719 187.0625 35.410156 187.578125 35.410156 L 189.054688 35.410156 C 189.570312 35.410156 189.59375 35.386719 189.59375 34.894531 Z M 189.59375 33.394531 "/>
<path fill="none" stroke-width="1.99255" stroke-linecap="butt" stroke-linejoin="round" stroke="rgb(19.607843%, 19.607843%, 19.607843%)" stroke-opacity="1" stroke-miterlimit="10" d="M -115.036418 -14.389812 L 115.036499 -14.389812 L 115.036499 14.391438 L -115.036418 14.391438 Z M -115.036418 -14.389812 " transform="matrix(1.5, 0, 0, -1.5, 440.289001, 30.552)"/>
<path fill-rule="nonzero" fill="rgb(0%, 0%, 0%)" fill-opacity="1" d="M 360.179688 29.363281 L 365.289062 29.363281 C 365.898438 29.363281 366.226562 29.222656 366.226562 28.449219 C 366.226562 27.746094 365.96875 27.535156 365.289062 27.535156 L 360.179688 27.535156 L 360.179688 23.949219 L 361.140625 23.949219 C 362.664062 23.949219 364.1875 23.996094 365.710938 23.996094 C 366.390625 23.996094 366.835938 23.996094 366.835938 23.082031 L 366.835938 22.917969 C 366.835938 22.285156 366.695312 21.980469 365.898438 21.980469 L 358.257812 21.980469 C 357.554688 21.980469 357.320312 22.191406 357.320312 22.917969 L 357.320312 34.472656 C 357.320312 35.175781 357.554688 35.410156 358.257812 35.410156 L 366.179688 35.410156 C 366.929688 35.410156 367.117188 35.152344 367.117188 34.472656 L 367.117188 34.214844 C 367.117188 33.277344 366.671875 33.277344 366.039062 33.277344 C 365.03125 33.277344 364.023438 33.300781 363.015625 33.300781 C 362.546875 33.300781 360.53125 33.324219 360.179688 33.347656 Z M 360.179688 29.363281 "/>
<path fill-rule="nonzero" fill="rgb(0%, 0%, 0%)" fill-opacity="1" d="M 377.734375 29.105469 C 377.734375 27.089844 376.890625 26.292969 374.898438 26.292969 C 372.859375 26.292969 371.992188 27.769531 371.734375 28.308594 L 371.734375 27.324219 C 371.734375 26.714844 371.59375 26.386719 370.796875 26.386719 L 370.140625 26.386719 C 369.4375 26.386719 369.203125 26.597656 369.203125 27.324219 L 369.203125 34.472656 C 369.203125 35.175781 369.414062 35.410156 370.140625 35.410156 L 370.914062 35.410156 C 371.640625 35.410156 371.828125 35.152344 371.828125 34.472656 L 371.828125 30.183594 C 371.828125 28.496094 372.976562 27.699219 373.984375 27.699219 C 374.898438 27.699219 375.109375 28.144531 375.109375 29.128906 L 375.109375 34.472656 C 375.109375 35.105469 375.25 35.410156 376.046875 35.410156 L 376.820312 35.410156 C 377.546875 35.410156 377.734375 35.152344 377.734375 34.472656 Z M 377.734375 29.105469 "/>
<path fill-rule="nonzero" fill="rgb(0%, 0%, 0%)" fill-opacity="1" d="M 383.171875 27.910156 L 384.90625 27.910156 C 385.117188 27.910156 385.820312 27.910156 385.820312 27.207031 C 385.820312 26.503906 385.117188 26.503906 384.90625 26.503906 L 383.171875 26.503906 L 383.171875 24.910156 C 383.171875 24.277344 383.03125 23.972656 382.234375 23.972656 L 381.625 23.972656 C 380.921875 23.972656 380.6875 24.183594 380.6875 24.910156 L 380.6875 26.503906 L 380.242188 26.503906 C 380.03125 26.503906 379.328125 26.503906 379.328125 27.207031 C 379.328125 27.910156 380.007812 27.910156 380.242188 27.910156 L 380.640625 27.910156 L 380.640625 32.832031 C 380.640625 34.777344 381.34375 35.621094 382.679688 35.621094 C 382.84375 35.621094 383.710938 35.621094 384.71875 35.316406 C 385.046875 35.222656 386.171875 34.871094 386.171875 34.496094 C 386.171875 34.449219 386.148438 34.308594 386.03125 33.886719 C 385.914062 33.511719 385.890625 33.394531 385.703125 33.394531 C 385.609375 33.394531 385.585938 33.417969 385.46875 33.535156 C 385.257812 33.675781 384.742188 34.097656 383.921875 34.097656 C 383.453125 34.097656 383.171875 33.769531 383.171875 32.503906 Z M 383.171875 27.910156 "/>
<path fill-rule="nonzero" fill="rgb(0%, 0%, 0%)" fill-opacity="1" d="M 396.835938 31.027344 C 396.835938 27.863281 395.289062 26.175781 392.125 26.175781 C 388.890625 26.175781 387.390625 27.910156 387.390625 31.027344 C 387.390625 34.214844 389.054688 35.621094 392.101562 35.621094 C 395.148438 35.621094 396.835938 34.214844 396.835938 31.027344 Z M 392.125 34.097656 C 390.015625 34.097656 390.015625 32.363281 390.015625 30.816406 C 390.015625 29.316406 390.015625 27.582031 392.101562 27.582031 C 394.210938 27.582031 394.210938 29.292969 394.210938 30.816406 C 394.210938 32.339844 394.210938 34.097656 392.125 34.097656 Z M 392.125 34.097656 "/>
<path fill-rule="nonzero" fill="rgb(0%, 0%, 0%)" fill-opacity="1" d="M 407.171875 29.105469 C 407.171875 27.089844 406.328125 26.292969 404.335938 26.292969 C 402.296875 26.292969 401.429688 27.769531 401.171875 28.308594 L 401.171875 27.324219 C 401.171875 26.714844 401.03125 26.386719 400.234375 26.386719 L 399.578125 26.386719 C 398.875 26.386719 398.640625 26.597656 398.640625 27.324219 L 398.640625 34.472656 C 398.640625 35.175781 398.851562 35.410156 399.578125 35.410156 L 400.351562 35.410156 C 401.078125 35.410156 401.265625 35.152344 401.265625 34.472656 L 401.265625 30.183594 C 401.265625 28.496094 402.414062 27.699219 403.421875 27.699219 C 404.335938 27.699219 404.546875 28.144531 404.546875 29.128906 L 404.546875 34.472656 C 404.546875 35.105469 404.6875 35.410156 405.484375 35.410156 L 406.257812 35.410156 C 406.984375 35.410156 407.171875 35.152344 407.171875 34.472656 Z M 407.171875 29.105469 "/>
<path fill-rule="nonzero" fill="rgb(0%, 0%, 0%)" fill-opacity="1" d="M 417.25 34.449219 C 417.25 34.214844 417.179688 33.324219 417.132812 33.089844 C 417.132812 33.019531 417.085938 32.832031 416.898438 32.832031 C 416.828125 32.832031 416.78125 32.832031 416.59375 33.019531 C 416.265625 33.300781 415.351562 34.097656 413.757812 34.097656 C 411.71875 34.097656 411.71875 32.152344 411.71875 30.910156 C 411.71875 29.339844 411.835938 27.699219 413.804688 27.699219 C 415.070312 27.699219 415.585938 28.003906 416.289062 28.589844 C 416.523438 28.800781 416.570312 28.800781 416.640625 28.800781 C 416.828125 28.800781 416.875 28.636719 416.898438 28.542969 C 416.945312 28.402344 417.132812 27.300781 417.132812 27.207031 C 417.132812 27.042969 416.992188 26.949219 416.664062 26.808594 C 415.726562 26.386719 415.140625 26.175781 413.78125 26.175781 C 410.898438 26.175781 409.09375 27.535156 409.09375 30.933594 C 409.09375 34.167969 410.757812 35.621094 413.6875 35.621094 C 414.226562 35.621094 415.375 35.597656 416.6875 34.941406 C 417.226562 34.660156 417.25 34.636719 417.25 34.449219 Z M 417.25 34.449219 "/>
<path fill-rule="nonzero" fill="rgb(0%, 0%, 0%)" fill-opacity="1" d="M 426.234375 31.261719 C 426.679688 31.261719 427.171875 31.238281 427.171875 30.347656 C 427.171875 27.863281 426 26.175781 423.117188 26.175781 C 420 26.175781 418.476562 27.933594 418.476562 30.886719 C 418.476562 34.074219 420.304688 35.621094 423.375 35.621094 C 424.101562 35.621094 425.203125 35.527344 426.492188 34.894531 C 426.914062 34.660156 427.054688 34.613281 427.054688 34.378906 C 427.054688 34.238281 427.007812 33.675781 426.984375 33.535156 C 426.890625 32.925781 426.890625 32.902344 426.703125 32.902344 C 426.632812 32.902344 426.585938 32.902344 426.375 33.089844 C 425.226562 34.097656 424.054688 34.214844 423.445312 34.214844 C 421.242188 34.214844 421.007812 32.503906 420.960938 31.261719 Z M 420.984375 30.230469 C 421.03125 29.035156 421.429688 27.582031 423.117188 27.582031 C 424.664062 27.582031 424.96875 28.707031 425.015625 30.230469 Z M 420.984375 30.230469 "/>
<path fill-rule="nonzero" fill="rgb(0%, 0%, 0%)" fill-opacity="1" d="M 435.484375 32.667969 C 435.484375 31.589844 434.898438 30.910156 434.546875 30.582031 C 433.773438 29.902344 433.09375 29.785156 432.273438 29.621094 C 431.21875 29.433594 430.445312 29.269531 430.445312 28.519531 C 430.445312 27.722656 431.078125 27.558594 431.828125 27.558594 C 433.140625 27.558594 433.84375 28.050781 434.335938 28.472656 C 434.546875 28.660156 434.570312 28.660156 434.664062 28.660156 C 434.851562 28.660156 434.898438 28.496094 434.898438 28.425781 C 434.945312 28.261719 435.132812 27.183594 435.132812 27.066406 C 435.132812 26.761719 434.101562 26.480469 433.890625 26.410156 C 433.117188 26.199219 432.507812 26.175781 431.992188 26.175781 C 431.125 26.175781 428.523438 26.175781 428.523438 28.964844 C 428.523438 29.902344 428.945312 30.488281 429.460938 30.957031 C 430.140625 31.589844 430.914062 31.707031 432.015625 31.941406 C 432.578125 32.035156 433.5625 32.199219 433.5625 33.066406 C 433.5625 33.980469 432.8125 34.097656 432.0625 34.097656 C 431.195312 34.097656 430.117188 33.863281 429.203125 32.761719 C 429.109375 32.667969 429.039062 32.621094 428.921875 32.621094 C 428.734375 32.621094 428.6875 32.785156 428.664062 32.902344 C 428.640625 33.183594 428.40625 34.285156 428.40625 34.472656 C 428.40625 34.824219 429.835938 35.269531 429.859375 35.292969 C 430.914062 35.621094 431.710938 35.621094 432.0625 35.621094 C 433.046875 35.621094 435.484375 35.550781 435.484375 32.667969 Z M 435.484375 32.667969 "/>
<path fill-rule="nonzero" fill="rgb(0%, 0%, 0%)" fill-opacity="1" d="M 450.804688 32.667969 C 450.804688 31.589844 450.21875 30.910156 449.867188 30.582031 C 449.09375 29.902344 448.414062 29.785156 447.59375 29.621094 C 446.539062 29.433594 445.765625 29.269531 445.765625 28.519531 C 445.765625 27.722656 446.398438 27.558594 447.148438 27.558594 C 448.460938 27.558594 449.164062 28.050781 449.65625 28.472656 C 449.867188 28.660156 449.890625 28.660156 449.984375 28.660156 C 450.171875 28.660156 450.21875 28.496094 450.21875 28.425781 C 450.265625 28.261719 450.453125 27.183594 450.453125 27.066406 C 450.453125 26.761719 449.421875 26.480469 449.210938 26.410156 C 448.4375 26.199219 447.828125 26.175781 447.3125 26.175781 C 446.445312 26.175781 443.84375 26.175781 443.84375 28.964844 C 443.84375 29.902344 444.265625 30.488281 444.78125 30.957031 C 445.460938 31.589844 446.234375 31.707031 447.335938 31.941406 C 447.898438 32.035156 448.882812 32.199219 448.882812 33.066406 C 448.882812 33.980469 448.132812 34.097656 447.382812 34.097656 C 446.515625 34.097656 445.4375 33.863281 444.523438 32.761719 C 444.429688 32.667969 444.359375 32.621094 444.242188 32.621094 C 444.054688 32.621094 444.007812 32.785156 443.984375 32.902344 C 443.960938 33.183594 443.726562 34.285156 443.726562 34.472656 C 443.726562 34.824219 445.15625 35.269531 445.179688 35.292969 C 446.234375 35.621094 447.03125 35.621094 447.382812 35.621094 C 448.367188 35.621094 450.804688 35.550781 450.804688 32.667969 Z M 450.804688 32.667969 "/>
<path fill-rule="nonzero" fill="rgb(0%, 0%, 0%)" fill-opacity="1" d="M 459.59375 22.472656 C 459.6875 22.402344 459.804688 22.285156 459.804688 22.167969 C 459.804688 21.933594 459.59375 21.933594 459.265625 21.933594 L 457.671875 21.933594 C 457.296875 21.933594 457.273438 21.957031 457.109375 22.167969 L 455.421875 24.441406 C 455.257812 24.652344 455.257812 24.675781 455.257812 24.722656 C 455.257812 24.980469 455.46875 24.980469 455.773438 24.980469 L 456.5 24.980469 Z M 459.59375 22.472656 "/>
<path fill-rule="nonzero" fill="rgb(0%, 0%, 0%)" fill-opacity="1" d="M 459.675781 31.261719 C 460.121094 31.261719 460.613281 31.238281 460.613281 30.347656 C 460.613281 27.863281 459.441406 26.175781 456.558594 26.175781 C 453.441406 26.175781 451.917969 27.933594 451.917969 30.886719 C 451.917969 34.074219 453.746094 35.621094 456.816406 35.621094 C 457.542969 35.621094 458.644531 35.527344 459.933594 34.894531 C 460.355469 34.660156 460.496094 34.613281 460.496094 34.378906 C 460.496094 34.238281 460.449219 33.675781 460.425781 33.535156 C 460.332031 32.925781 460.332031 32.902344 460.144531 32.902344 C 460.074219 32.902344 460.027344 32.902344 459.816406 33.089844 C 458.667969 34.097656 457.496094 34.214844 456.886719 34.214844 C 454.683594 34.214844 454.449219 32.503906 454.402344 31.261719 Z M 454.425781 30.230469 C 454.472656 29.035156 454.871094 27.582031 456.558594 27.582031 C 458.105469 27.582031 458.410156 28.707031 458.457031 30.230469 Z M 454.425781 30.230469 "/>
<path fill-rule="nonzero" fill="rgb(0%, 0%, 0%)" fill-opacity="1" d="M 478.054688 27.230469 C 478.054688 26.597656 477.914062 26.292969 477.117188 26.292969 L 476.390625 26.292969 C 475.664062 26.292969 475.453125 26.550781 475.453125 27.230469 L 475.453125 27.605469 C 474.609375 26.292969 473.460938 26.292969 473.132812 26.292969 C 469.382812 26.292969 469.078125 29.433594 469.078125 30.980469 C 469.078125 32.503906 469.382812 35.621094 472.992188 35.621094 C 474.023438 35.621094 474.75 35.246094 475.40625 34.472656 L 475.40625 38.246094 C 475.40625 38.878906 475.546875 39.183594 476.34375 39.183594 L 477.117188 39.183594 C 477.84375 39.183594 478.054688 38.925781 478.054688 38.246094 Z M 475.453125 33.183594 C 475.101562 33.652344 474.585938 34.214844 473.695312 34.214844 C 471.703125 34.214844 471.703125 31.753906 471.703125 31.003906 C 471.703125 30.230469 471.703125 27.816406 473.882812 27.816406 C 474.210938 27.816406 474.609375 27.886719 474.960938 28.261719 C 475.453125 28.753906 475.453125 29.105469 475.453125 29.339844 Z M 475.453125 33.183594 "/>
<path fill-rule="nonzero" fill="rgb(0%, 0%, 0%)" fill-opacity="1" d="M 488.953125 27.441406 C 488.953125 26.832031 488.835938 26.503906 488.039062 26.503906 L 487.265625 26.503906 C 486.515625 26.503906 486.328125 26.761719 486.328125 27.441406 L 486.328125 32.058594 C 486.328125 33.324219 485.648438 34.449219 484.265625 34.449219 C 483.164062 34.449219 483.046875 34.167969 483.046875 33.136719 L 483.046875 27.441406 C 483.046875 26.832031 482.929688 26.503906 482.132812 26.503906 L 481.359375 26.503906 C 480.65625 26.503906 480.421875 26.714844 480.421875 27.441406 L 480.421875 32.972656 C 480.421875 35.035156 481.546875 35.621094 483.5625 35.621094 C 484.078125 35.621094 485.460938 35.621094 486.375 33.980469 L 486.375 34.472656 C 486.375 35.105469 486.515625 35.410156 487.3125 35.410156 L 488.039062 35.410156 C 488.765625 35.410156 488.953125 35.152344 488.953125 34.472656 Z M 488.953125 27.441406 "/>
<path fill-rule="nonzero" fill="rgb(0%, 0%, 0%)" fill-opacity="1" d="M 498.519531 31.261719 C 498.964844 31.261719 499.457031 31.238281 499.457031 30.347656 C 499.457031 27.863281 498.285156 26.175781 495.402344 26.175781 C 492.285156 26.175781 490.761719 27.933594 490.761719 30.886719 C 490.761719 34.074219 492.589844 35.621094 495.660156 35.621094 C 496.386719 35.621094 497.488281 35.527344 498.777344 34.894531 C 499.199219 34.660156 499.339844 34.613281 499.339844 34.378906 C 499.339844 34.238281 499.292969 33.675781 499.269531 33.535156 C 499.175781 32.925781 499.175781 32.902344 498.988281 32.902344 C 498.917969 32.902344 498.871094 32.902344 498.660156 33.089844 C 497.511719 34.097656 496.339844 34.214844 495.730469 34.214844 C 493.527344 34.214844 493.292969 32.503906 493.246094 31.261719 Z M 493.269531 30.230469 C 493.316406 29.035156 493.714844 27.582031 495.402344 27.582031 C 496.949219 27.582031 497.253906 28.707031 497.300781 30.230469 Z M 493.269531 30.230469 "/>
<path fill-rule="nonzero" fill="rgb(0%, 0%, 0%)" fill-opacity="1" d="M 511.453125 33.394531 C 511.453125 32.878906 511.429688 32.855469 510.914062 32.855469 L 509.4375 32.855469 C 508.921875 32.855469 508.898438 32.878906 508.898438 33.394531 L 508.898438 34.894531 C 508.898438 35.386719 508.921875 35.410156 509.4375 35.410156 L 510.914062 35.410156 C 511.429688 35.410156 511.453125 35.386719 511.453125 34.894531 Z M 511.453125 33.394531 "/>
<path fill-rule="nonzero" fill="rgb(0%, 0%, 0%)" fill-opacity="1" d="M 517.390625 33.394531 C 517.390625 32.878906 517.367188 32.855469 516.851562 32.855469 L 515.375 32.855469 C 514.859375 32.855469 514.835938 32.878906 514.835938 33.394531 L 514.835938 34.894531 C 514.835938 35.386719 514.859375 35.410156 515.375 35.410156 L 516.851562 35.410156 C 517.367188 35.410156 517.390625 35.386719 517.390625 34.894531 Z M 517.390625 33.394531 "/>
<path fill-rule="nonzero" fill="rgb(0%, 0%, 0%)" fill-opacity="1" d="M 523.328125 33.394531 C 523.328125 32.878906 523.304688 32.855469 522.789062 32.855469 L 521.3125 32.855469 C 520.796875 32.855469 520.773438 32.878906 520.773438 33.394531 L 520.773438 34.894531 C 520.773438 35.386719 520.796875 35.410156 521.3125 35.410156 L 522.789062 35.410156 C 523.304688 35.410156 523.328125 35.386719 523.328125 34.894531 Z M 523.328125 33.394531 "/>
<path fill="none" stroke-width="0.99628" stroke-linecap="butt" stroke-linejoin="round" stroke="rgb(19.607843%, 19.607843%, 19.607843%)" stroke-opacity="1" stroke-miterlimit="10" d="M -86.256439 -14.392063 L 86.256582 -14.392063 L 86.256582 14.389187 L -86.256439 14.389187 Z M -86.256439 -14.392063 " transform="matrix(1.5, 0, 0, -1.5, 138.349503, 74.470499)"/>
<path fill-rule="nonzero" fill="rgb(0%, 0%, 0%)" fill-opacity="1" d="M 146.261719 74.054688 L 146.261719 72.882812 L 127.253906 72.882812 L 127.253906 74.054688 Z M 146.261719 74.054688 "/>
<path fill-rule="nonzero" fill="rgb(0%, 0%, 0%)" fill-opacity="1" d="M 155.769531 74.054688 L 155.769531 72.882812 L 146.277344 72.882812 L 146.277344 74.054688 Z M 155.769531 74.054688 "/>
<path fill="none" stroke-width="0.99628" stroke-linecap="butt" stroke-linejoin="round" stroke="rgb(19.607843%, 19.607843%, 19.607843%)" stroke-opacity="1" stroke-miterlimit="10" d="M -115.036418 -14.392063 L 115.036499 -14.392063 L 115.036499 14.389187 L -115.036418 14.389187 Z M -115.036418 -14.392063 " transform="matrix(1.5, 0, 0, -1.5, 440.289001, 74.470499)"/>
<path fill-rule="nonzero" fill="rgb(0%, 0%, 0%)" fill-opacity="1" d="M 445.03125 74.054688 L 445.03125 72.882812 L 426.023438 72.882812 L 426.023438 74.054688 Z M 445.03125 74.054688 "/>
<path fill-rule="nonzero" fill="rgb(0%, 0%, 0%)" fill-opacity="1" d="M 454.539062 74.054688 L 454.539062 72.882812 L 445.046875 72.882812 L 445.046875 74.054688 Z M 454.539062 74.054688 "/>
</svg>
