<?xml version="1.0" encoding="UTF-8"?>
<svg xmlns="http://www.w3.org/2000/svg" xmlns:xlink="http://www.w3.org/1999/xlink" width="629.713486" height="403.882507" viewBox="0 0 629.713486 403.882507">
<path fill="none" stroke-width="1.99255" stroke-linecap="butt" stroke-linejoin="round" stroke="rgb(19.607843%, 19.607843%, 19.607843%)" stroke-opacity="1" stroke-miterlimit="10" d="M -65.849019 -18.807562 L 65.846293 -18.807562 L 65.846293 18.804417 L -65.849019 18.804417 Z M -65.849019 -18.807562 " transform="matrix(1.5, 0, 0, -1.5, 103.253998, 32.691001)"/>
<path fill-rule="nonzero" fill="rgb(0%, 0%, 0%)" fill-opacity="1" d="M 54.085938 34.554688 C 54.085938 35.117188 53.875 35.539062 53.453125 35.84375 C 53.007812 36.148438 52.445312 36.289062 51.71875 36.289062 C 49.703125 36.289062 48.71875 35.46875 48.71875 33.78125 L 45.578125 33.78125 C 45.578125 34.765625 45.8125 35.632812 46.328125 36.382812 C 46.820312 37.132812 47.546875 37.71875 48.507812 38.140625 C 49.46875 38.5625 50.546875 38.773438 51.71875 38.773438 C 53.382812 38.773438 54.71875 38.421875 55.726562 37.648438 C 56.710938 36.898438 57.226562 35.867188 57.226562 34.554688 C 57.226562 33.335938 56.828125 32.375 56.007812 31.601562 C 55.1875 30.828125 53.898438 30.171875 52.117188 29.609375 C 51.132812 29.304688 50.40625 29 49.914062 28.671875 C 49.398438 28.34375 49.164062 27.945312 49.164062 27.429688 C 49.164062 26.890625 49.351562 26.46875 49.796875 26.140625 C 50.21875 25.8125 50.804688 25.648438 51.578125 25.648438 C 52.375 25.648438 52.984375 25.835938 53.453125 26.234375 C 53.875 26.609375 54.109375 27.171875 54.109375 27.851562 L 57.226562 27.851562 C 57.226562 26.960938 56.992188 26.140625 56.523438 25.414062 C 56.054688 24.6875 55.398438 24.125 54.53125 23.75 C 53.6875 23.375 52.726562 23.140625 51.648438 23.140625 C 50.570312 23.140625 49.585938 23.351562 48.71875 23.703125 C 47.875 24.078125 47.195312 24.570312 46.726562 25.203125 C 46.257812 25.835938 46.046875 26.585938 46.046875 27.40625 C 46.046875 28.976562 46.914062 30.242188 48.625 31.15625 C 49.257812 31.507812 50.101562 31.882812 51.203125 32.210938 C 52.28125 32.585938 53.03125 32.914062 53.476562 33.21875 C 53.875 33.523438 54.085938 33.96875 54.085938 34.554688 Z M 54.085938 34.554688 "/>
<path fill-rule="nonzero" fill="rgb(0%, 0%, 0%)" fill-opacity="1" d="M 62.308594 38.5625 L 62.308594 27.265625 L 59.308594 27.265625 L 59.308594 38.5625 Z M 59.097656 24.359375 C 59.097656 24.828125 59.261719 25.179688 59.566406 25.484375 C 59.871094 25.789062 60.269531 25.90625 60.785156 25.90625 C 61.300781 25.90625 61.722656 25.789062 62.003906 25.484375 C 62.308594 25.179688 62.472656 24.828125 62.472656 24.359375 C 62.472656 23.890625 62.308594 23.539062 62.003906 23.234375 C 61.722656 22.929688 61.300781 22.789062 60.785156 22.789062 C 60.269531 22.789062 59.847656 22.929688 59.542969 23.234375 C 59.261719 23.539062 59.097656 23.890625 59.097656 24.359375 Z M 59.097656 24.359375 "/>
<path fill-rule="nonzero" fill="rgb(0%, 0%, 0%)" fill-opacity="1" d="M 78.015625 35.445312 C 78.015625 35.796875 77.875 36.101562 77.570312 36.3125 C 77.265625 36.523438 76.84375 36.640625 76.257812 36.640625 C 75.648438 36.640625 75.15625 36.5 74.78125 36.21875 C 74.40625 35.9375 74.21875 35.515625 74.195312 34.976562 L 71.335938 34.976562 C 71.335938 35.65625 71.523438 36.289062 71.945312 36.875 C 72.367188 37.460938 72.953125 37.929688 73.679688 38.257812 C 74.40625 38.609375 75.25 38.773438 76.210938 38.773438 C 77.617188 38.773438 78.742188 38.445312 79.632812 37.8125 C 80.523438 37.179688 80.96875 36.335938 80.96875 35.304688 C 80.96875 33.875 80.148438 32.867188 78.578125 32.28125 C 78.0625 32.117188 77.429688 31.929688 76.679688 31.789062 C 75.90625 31.648438 75.367188 31.460938 75.0625 31.25 C 74.757812 31.039062 74.59375 30.78125 74.59375 30.429688 C 74.59375 30.101562 74.734375 29.796875 74.992188 29.5625 C 75.25 29.328125 75.671875 29.210938 76.1875 29.210938 C 76.773438 29.210938 77.195312 29.351562 77.476562 29.632812 C 77.757812 29.9375 77.921875 30.265625 77.921875 30.6875 L 80.921875 30.6875 C 80.921875 29.632812 80.5 28.765625 79.632812 28.085938 C 78.789062 27.40625 77.640625 27.054688 76.210938 27.054688 C 74.851562 27.054688 73.773438 27.40625 72.929688 28.0625 C 72.085938 28.742188 71.6875 29.585938 71.6875 30.570312 C 71.6875 32.304688 73.023438 33.453125 75.71875 34.015625 C 76.515625 34.179688 77.101562 34.34375 77.453125 34.554688 C 77.828125 34.789062 78.015625 35.070312 78.015625 35.445312 Z M 78.015625 35.445312 "/>
<path fill-rule="nonzero" fill="rgb(0%, 0%, 0%)" fill-opacity="1" d="M 87.089844 22.351562 L 85.027344 25.585938 L 87.488281 25.585938 L 90.371094 22.351562 Z M 87.089844 22.351562 "/>
<path fill-rule="nonzero" fill="rgb(0%, 0%, 0%)" fill-opacity="1" d="M 88.09375 38.773438 C 89.03125 38.773438 89.875 38.609375 90.648438 38.234375 C 91.421875 37.90625 92.03125 37.390625 92.5 36.734375 L 91.023438 35.070312 C 90.367188 35.9375 89.453125 36.335938 88.304688 36.335938 C 87.53125 36.335938 86.921875 36.125 86.429688 35.679688 C 85.9375 35.257812 85.632812 34.648438 85.539062 33.898438 L 92.757812 33.898438 L 92.757812 32.65625 C 92.757812 30.898438 92.3125 29.515625 91.398438 28.53125 C 90.507812 27.546875 89.3125 27.054688 87.765625 27.054688 C 86.710938 27.054688 85.796875 27.3125 85.023438 27.78125 C 84.203125 28.273438 83.570312 28.976562 83.148438 29.867188 C 82.703125 30.757812 82.492188 31.765625 82.492188 32.890625 L 82.492188 33.195312 C 82.492188 34.882812 83.007812 36.242188 84.039062 37.25 C 85.070312 38.28125 86.429688 38.773438 88.09375 38.773438 Z M 87.742188 29.492188 C 88.398438 29.492188 88.890625 29.703125 89.21875 30.054688 C 89.570312 30.429688 89.757812 30.921875 89.78125 31.601562 L 89.78125 31.859375 L 85.585938 31.859375 C 85.679688 31.109375 85.914062 30.523438 86.289062 30.125 C 86.664062 29.703125 87.15625 29.492188 87.742188 29.492188 Z M 87.742188 29.492188 "/>
<path fill-rule="nonzero" fill="rgb(0%, 0%, 0%)" fill-opacity="1" d="M 101.078125 32.820312 C 101.078125 34.695312 101.476562 36.171875 102.273438 37.226562 C 103.09375 38.257812 104.171875 38.773438 105.507812 38.773438 C 106.609375 38.773438 107.546875 38.398438 108.25 37.601562 L 108.25 42.898438 L 111.25 42.898438 L 111.25 27.265625 L 108.601562 27.265625 L 108.414062 28.460938 C 107.6875 27.523438 106.726562 27.054688 105.53125 27.054688 C 104.148438 27.054688 103.046875 27.570312 102.25 28.601562 C 101.476562 29.632812 101.078125 31.039062 101.078125 32.820312 Z M 104.101562 33.03125 C 104.101562 31.8125 104.289062 30.921875 104.664062 30.359375 C 105.0625 29.796875 105.601562 29.492188 106.304688 29.492188 C 107.21875 29.492188 107.851562 29.867188 108.25 30.570312 L 108.25 35.234375 C 107.851562 35.984375 107.195312 36.335938 106.28125 36.335938 C 105.601562 36.335938 105.0625 36.054688 104.664062 35.515625 C 104.289062 34.953125 104.101562 34.109375 104.101562 33.03125 Z M 104.101562 33.03125 "/>
<path fill-rule="nonzero" fill="rgb(0%, 0%, 0%)" fill-opacity="1" d="M 120.371094 37.414062 L 120.464844 38.5625 L 123.277344 38.5625 L 123.277344 27.265625 L 120.277344 27.265625 L 120.277344 35.28125 C 119.878906 36.007812 119.175781 36.335938 118.167969 36.335938 C 117.089844 36.335938 116.550781 35.773438 116.550781 34.554688 L 116.550781 27.265625 L 113.550781 27.265625 L 113.550781 34.671875 C 113.550781 36.007812 113.855469 37.039062 114.511719 37.71875 C 115.144531 38.445312 116.058594 38.773438 117.277344 38.773438 C 118.613281 38.773438 119.621094 38.304688 120.371094 37.414062 Z M 120.371094 37.414062 "/>
<path fill-rule="nonzero" fill="rgb(0%, 0%, 0%)" fill-opacity="1" d="M 130.746094 38.773438 C 131.683594 38.773438 132.527344 38.609375 133.300781 38.234375 C 134.074219 37.90625 134.683594 37.390625 135.152344 36.734375 L 133.675781 35.070312 C 133.019531 35.9375 132.105469 36.335938 130.957031 36.335938 C 130.183594 36.335938 129.574219 36.125 129.082031 35.679688 C 128.589844 35.257812 128.285156 34.648438 128.191406 33.898438 L 135.410156 33.898438 L 135.410156 32.65625 C 135.410156 30.898438 134.964844 29.515625 134.050781 28.53125 C 133.160156 27.546875 131.964844 27.054688 130.417969 27.054688 C 129.363281 27.054688 128.449219 27.3125 127.675781 27.78125 C 126.855469 28.273438 126.222656 28.976562 125.800781 29.867188 C 125.355469 30.757812 125.144531 31.765625 125.144531 32.890625 L 125.144531 33.195312 C 125.144531 34.882812 125.660156 36.242188 126.691406 37.25 C 127.722656 38.28125 129.082031 38.773438 130.746094 38.773438 Z M 130.394531 29.492188 C 131.050781 29.492188 131.542969 29.703125 131.871094 30.054688 C 132.222656 30.429688 132.410156 30.921875 132.433594 31.601562 L 132.433594 31.859375 L 128.238281 31.859375 C 128.332031 31.109375 128.566406 30.523438 128.941406 30.125 C 129.316406 29.703125 129.808594 29.492188 130.394531 29.492188 Z M 130.394531 29.492188 "/>
<path fill-rule="nonzero" fill="rgb(0%, 0%, 0%)" fill-opacity="1" d="M 144.410156 37.085938 C 144.410156 37.554688 144.550781 37.953125 144.878906 38.234375 C 145.160156 38.539062 145.582031 38.679688 146.097656 38.679688 C 146.589844 38.679688 146.988281 38.539062 147.316406 38.234375 C 147.621094 37.953125 147.808594 37.554688 147.808594 37.085938 C 147.808594 36.617188 147.621094 36.21875 147.316406 35.914062 C 146.988281 35.609375 146.589844 35.46875 146.097656 35.46875 C 145.605469 35.46875 145.183594 35.609375 144.878906 35.914062 C 144.550781 36.21875 144.410156 36.617188 144.410156 37.085938 Z M 144.410156 37.085938 "/>
<path fill-rule="nonzero" fill="rgb(0%, 0%, 0%)" fill-opacity="1" d="M 150.605469 37.085938 C 150.605469 37.554688 150.746094 37.953125 151.074219 38.234375 C 151.355469 38.539062 151.777344 38.679688 152.292969 38.679688 C 152.785156 38.679688 153.183594 38.539062 153.511719 38.234375 C 153.816406 37.953125 154.003906 37.554688 154.003906 37.085938 C 154.003906 36.617188 153.816406 36.21875 153.511719 35.914062 C 153.183594 35.609375 152.785156 35.46875 152.292969 35.46875 C 151.800781 35.46875 151.378906 35.609375 151.074219 35.914062 C 150.746094 36.21875 150.605469 36.617188 150.605469 37.085938 Z M 150.605469 37.085938 "/>
<path fill-rule="nonzero" fill="rgb(0%, 0%, 0%)" fill-opacity="1" d="M 156.804688 37.085938 C 156.804688 37.554688 156.945312 37.953125 157.273438 38.234375 C 157.554688 38.539062 157.976562 38.679688 158.492188 38.679688 C 158.984375 38.679688 159.382812 38.539062 159.710938 38.234375 C 160.015625 37.953125 160.203125 37.554688 160.203125 37.085938 C 160.203125 36.617188 160.015625 36.21875 159.710938 35.914062 C 159.382812 35.609375 158.984375 35.46875 158.492188 35.46875 C 158 35.46875 157.578125 35.609375 157.273438 35.914062 C 156.945312 36.21875 156.804688 36.617188 156.804688 37.085938 Z M 156.804688 37.085938 "/>
<path fill="none" stroke-width="1.99255" stroke-linecap="butt" stroke-linejoin="round" stroke="rgb(19.607843%, 19.607843%, 19.607843%)" stroke-opacity="1" stroke-miterlimit="10" d="M -141.07132 -18.807562 L 141.069305 -18.807562 L 141.069305 18.804417 L -141.07132 18.804417 Z M -141.07132 -18.807562 " transform="matrix(1.5, 0, 0, -1.5, 413.626511, 32.691001)"/>
<path fill-rule="nonzero" fill="rgb(0%, 0%, 0%)" fill-opacity="1" d="M 330.839844 31.976562 L 330.839844 29.515625 L 324.839844 29.515625 L 324.839844 25.90625 L 331.871094 25.90625 L 331.871094 23.375 L 321.675781 23.375 L 321.675781 38.5625 L 331.871094 38.5625 L 331.871094 36.03125 L 324.839844 36.03125 L 324.839844 31.976562 Z M 330.839844 31.976562 "/>
<path fill-rule="nonzero" fill="rgb(0%, 0%, 0%)" fill-opacity="1" d="M 336.285156 27.265625 L 333.449219 27.265625 L 333.449219 38.5625 L 336.449219 38.5625 L 336.449219 30.59375 C 336.871094 29.890625 337.527344 29.515625 338.371094 29.515625 C 339.027344 29.515625 339.472656 29.679688 339.753906 29.9375 C 340.011719 30.242188 340.175781 30.6875 340.175781 31.34375 L 340.175781 38.5625 L 343.175781 38.5625 L 343.175781 31.273438 C 343.152344 29.890625 342.871094 28.835938 342.285156 28.132812 C 341.699219 27.429688 340.808594 27.054688 339.613281 27.054688 C 338.253906 27.054688 337.175781 27.570312 336.355469 28.578125 Z M 336.285156 27.265625 "/>
<path fill-rule="nonzero" fill="rgb(0%, 0%, 0%)" fill-opacity="1" d="M 349.074219 24.5 L 346.074219 24.5 L 346.074219 27.265625 L 344.433594 27.265625 L 344.433594 29.46875 L 346.074219 29.46875 L 346.074219 35.5625 C 346.121094 37.71875 347.175781 38.773438 349.285156 38.773438 C 349.917969 38.773438 350.527344 38.679688 351.136719 38.492188 L 351.136719 36.21875 C 350.855469 36.265625 350.550781 36.289062 350.246094 36.289062 C 349.777344 36.289062 349.496094 36.21875 349.308594 36.007812 C 349.144531 35.84375 349.074219 35.539062 349.074219 35.117188 L 349.074219 29.46875 L 350.996094 29.46875 L 350.996094 27.265625 L 349.074219 27.265625 Z M 349.074219 24.5 "/>
<path fill-rule="nonzero" fill="rgb(0%, 0%, 0%)" fill-opacity="1" d="M 351.875 32.820312 L 351.875 32.9375 C 351.875 34.742188 352.34375 36.171875 353.328125 37.226562 C 354.289062 38.257812 355.601562 38.773438 357.21875 38.773438 C 358.835938 38.773438 360.148438 38.257812 361.132812 37.226562 C 362.09375 36.171875 362.585938 34.789062 362.585938 33.03125 L 362.5625 32.257812 C 362.445312 30.664062 361.90625 29.421875 360.945312 28.484375 C 359.984375 27.523438 358.742188 27.054688 357.21875 27.054688 C 356.164062 27.054688 355.203125 27.3125 354.40625 27.78125 C 353.585938 28.25 352.953125 28.953125 352.53125 29.820312 C 352.085938 30.6875 351.875 31.695312 351.875 32.820312 Z M 354.898438 33.03125 C 354.898438 31.835938 355.085938 30.945312 355.484375 30.382812 C 355.90625 29.796875 356.46875 29.492188 357.21875 29.492188 C 357.945312 29.492188 358.53125 29.796875 358.953125 30.382812 C 359.351562 30.945312 359.585938 31.765625 359.585938 32.820312 C 359.585938 34.0625 359.351562 34.953125 358.953125 35.515625 C 358.53125 36.054688 357.96875 36.335938 357.242188 36.335938 C 356.46875 36.335938 355.90625 36.054688 355.484375 35.492188 C 355.085938 34.929688 354.898438 34.085938 354.898438 33.03125 Z M 354.898438 33.03125 "/>
<path fill-rule="nonzero" fill="rgb(0%, 0%, 0%)" fill-opacity="1" d="M 367.207031 27.265625 L 364.371094 27.265625 L 364.371094 38.5625 L 367.371094 38.5625 L 367.371094 30.59375 C 367.792969 29.890625 368.449219 29.515625 369.292969 29.515625 C 369.949219 29.515625 370.394531 29.679688 370.675781 29.9375 C 370.933594 30.242188 371.097656 30.6875 371.097656 31.34375 L 371.097656 38.5625 L 374.097656 38.5625 L 374.097656 31.273438 C 374.074219 29.890625 373.792969 28.835938 373.207031 28.132812 C 372.621094 27.429688 371.730469 27.054688 370.535156 27.054688 C 369.175781 27.054688 368.097656 27.570312 367.277344 28.578125 Z M 367.207031 27.265625 "/>
<path fill-rule="nonzero" fill="rgb(0%, 0%, 0%)" fill-opacity="1" d="M 381.097656 36.335938 C 380.371094 36.335938 379.808594 36.101562 379.480469 35.585938 C 379.105469 35.070312 378.941406 34.25 378.941406 33.078125 L 378.941406 32.773438 C 378.941406 31.625 379.105469 30.78125 379.480469 30.265625 C 379.832031 29.75 380.371094 29.492188 381.074219 29.492188 C 381.636719 29.492188 382.105469 29.703125 382.433594 30.054688 C 382.785156 30.429688 382.972656 30.898438 382.996094 31.460938 L 385.808594 31.460938 C 385.808594 30.148438 385.363281 29.09375 384.519531 28.273438 C 383.652344 27.476562 382.527344 27.054688 381.121094 27.054688 C 379.480469 27.054688 378.238281 27.59375 377.300781 28.625 C 376.363281 29.65625 375.917969 31.039062 375.917969 32.773438 L 375.917969 32.984375 C 375.917969 34.789062 376.363281 36.21875 377.300781 37.226562 C 378.261719 38.257812 379.503906 38.773438 381.144531 38.773438 C 381.988281 38.773438 382.785156 38.609375 383.511719 38.234375 C 384.214844 37.90625 384.777344 37.414062 385.199219 36.757812 C 385.597656 36.125 385.808594 35.421875 385.808594 34.648438 L 382.996094 34.648438 C 382.972656 35.164062 382.785156 35.585938 382.433594 35.890625 C 382.105469 36.195312 381.660156 36.335938 381.097656 36.335938 Z M 381.097656 36.335938 "/>
<path fill-rule="nonzero" fill="rgb(0%, 0%, 0%)" fill-opacity="1" d="M 392.722656 38.773438 C 393.660156 38.773438 394.503906 38.609375 395.277344 38.234375 C 396.050781 37.90625 396.660156 37.390625 397.128906 36.734375 L 395.652344 35.070312 C 394.996094 35.9375 394.082031 36.335938 392.933594 36.335938 C 392.160156 36.335938 391.550781 36.125 391.058594 35.679688 C 390.566406 35.257812 390.261719 34.648438 390.167969 33.898438 L 397.386719 33.898438 L 397.386719 32.65625 C 397.386719 30.898438 396.941406 29.515625 396.027344 28.53125 C 395.136719 27.546875 393.941406 27.054688 392.394531 27.054688 C 391.339844 27.054688 390.425781 27.3125 389.652344 27.78125 C 388.832031 28.273438 388.199219 28.976562 387.777344 29.867188 C 387.332031 30.757812 387.121094 31.765625 387.121094 32.890625 L 387.121094 33.195312 C 387.121094 34.882812 387.636719 36.242188 388.667969 37.25 C 389.699219 38.28125 391.058594 38.773438 392.722656 38.773438 Z M 392.371094 29.492188 C 393.027344 29.492188 393.519531 29.703125 393.847656 30.054688 C 394.199219 30.429688 394.386719 30.921875 394.410156 31.601562 L 394.410156 31.859375 L 390.214844 31.859375 C 390.308594 31.109375 390.542969 30.523438 390.917969 30.125 C 391.292969 29.703125 391.785156 29.492188 392.371094 29.492188 Z M 392.371094 29.492188 "/>
<path fill-rule="nonzero" fill="rgb(0%, 0%, 0%)" fill-opacity="1" d="M 405.175781 35.445312 C 405.175781 35.796875 405.035156 36.101562 404.730469 36.3125 C 404.425781 36.523438 404.003906 36.640625 403.417969 36.640625 C 402.808594 36.640625 402.316406 36.5 401.941406 36.21875 C 401.566406 35.9375 401.378906 35.515625 401.355469 34.976562 L 398.496094 34.976562 C 398.496094 35.65625 398.683594 36.289062 399.105469 36.875 C 399.527344 37.460938 400.113281 37.929688 400.839844 38.257812 C 401.566406 38.609375 402.410156 38.773438 403.371094 38.773438 C 404.777344 38.773438 405.902344 38.445312 406.792969 37.8125 C 407.683594 37.179688 408.128906 36.335938 408.128906 35.304688 C 408.128906 33.875 407.308594 32.867188 405.738281 32.28125 C 405.222656 32.117188 404.589844 31.929688 403.839844 31.789062 C 403.066406 31.648438 402.527344 31.460938 402.222656 31.25 C 401.917969 31.039062 401.753906 30.78125 401.753906 30.429688 C 401.753906 30.101562 401.894531 29.796875 402.152344 29.5625 C 402.410156 29.328125 402.832031 29.210938 403.347656 29.210938 C 403.933594 29.210938 404.355469 29.351562 404.636719 29.632812 C 404.917969 29.9375 405.082031 30.265625 405.082031 30.6875 L 408.082031 30.6875 C 408.082031 29.632812 407.660156 28.765625 406.792969 28.085938 C 405.949219 27.40625 404.800781 27.054688 403.371094 27.054688 C 402.011719 27.054688 400.933594 27.40625 400.089844 28.0625 C 399.246094 28.742188 398.847656 29.585938 398.847656 30.570312 C 398.847656 32.304688 400.183594 33.453125 402.878906 34.015625 C 403.675781 34.179688 404.261719 34.34375 404.613281 34.554688 C 404.988281 34.789062 405.175781 35.070312 405.175781 35.445312 Z M 405.175781 35.445312 "/>
<path fill-rule="nonzero" fill="rgb(0%, 0%, 0%)" fill-opacity="1" d="M 423.277344 35.445312 C 423.277344 35.796875 423.136719 36.101562 422.832031 36.3125 C 422.527344 36.523438 422.105469 36.640625 421.519531 36.640625 C 420.910156 36.640625 420.417969 36.5 420.042969 36.21875 C 419.667969 35.9375 419.480469 35.515625 419.457031 34.976562 L 416.597656 34.976562 C 416.597656 35.65625 416.785156 36.289062 417.207031 36.875 C 417.628906 37.460938 418.214844 37.929688 418.941406 38.257812 C 419.667969 38.609375 420.511719 38.773438 421.472656 38.773438 C 422.878906 38.773438 424.003906 38.445312 424.894531 37.8125 C 425.785156 37.179688 426.230469 36.335938 426.230469 35.304688 C 426.230469 33.875 425.410156 32.867188 423.839844 32.28125 C 423.324219 32.117188 422.691406 31.929688 421.941406 31.789062 C 421.167969 31.648438 420.628906 31.460938 420.324219 31.25 C 420.019531 31.039062 419.855469 30.78125 419.855469 30.429688 C 419.855469 30.101562 419.996094 29.796875 420.253906 29.5625 C 420.511719 29.328125 420.933594 29.210938 421.449219 29.210938 C 422.035156 29.210938 422.457031 29.351562 422.738281 29.632812 C 423.019531 29.9375 423.183594 30.265625 423.183594 30.6875 L 426.183594 30.6875 C 426.183594 29.632812 425.761719 28.765625 424.894531 28.085938 C 424.050781 27.40625 422.902344 27.054688 421.472656 27.054688 C 420.113281 27.054688 419.035156 27.40625 418.191406 28.0625 C 417.347656 28.742188 416.949219 29.585938 416.949219 30.570312 C 416.949219 32.304688 418.285156 33.453125 420.980469 34.015625 C 421.777344 34.179688 422.363281 34.34375 422.714844 34.554688 C 423.089844 34.789062 423.277344 35.070312 423.277344 35.445312 Z M 423.277344 35.445312 "/>
<path fill-rule="nonzero" fill="rgb(0%, 0%, 0%)" fill-opacity="1" d="M 432.351562 22.351562 L 430.289062 25.585938 L 432.75 25.585938 L 435.632812 22.351562 Z M 432.351562 22.351562 "/>
<path fill-rule="nonzero" fill="rgb(0%, 0%, 0%)" fill-opacity="1" d="M 433.355469 38.773438 C 434.292969 38.773438 435.136719 38.609375 435.910156 38.234375 C 436.683594 37.90625 437.292969 37.390625 437.761719 36.734375 L 436.285156 35.070312 C 435.628906 35.9375 434.714844 36.335938 433.566406 36.335938 C 432.792969 36.335938 432.183594 36.125 431.691406 35.679688 C 431.199219 35.257812 430.894531 34.648438 430.800781 33.898438 L 438.019531 33.898438 L 438.019531 32.65625 C 438.019531 30.898438 437.574219 29.515625 436.660156 28.53125 C 435.769531 27.546875 434.574219 27.054688 433.027344 27.054688 C 431.972656 27.054688 431.058594 27.3125 430.285156 27.78125 C 429.464844 28.273438 428.832031 28.976562 428.410156 29.867188 C 427.964844 30.757812 427.753906 31.765625 427.753906 32.890625 L 427.753906 33.195312 C 427.753906 34.882812 428.269531 36.242188 429.300781 37.25 C 430.332031 38.28125 431.691406 38.773438 433.355469 38.773438 Z M 433.003906 29.492188 C 433.660156 29.492188 434.152344 29.703125 434.480469 30.054688 C 434.832031 30.429688 435.019531 30.921875 435.042969 31.601562 L 435.042969 31.859375 L 430.847656 31.859375 C 430.941406 31.109375 431.175781 30.523438 431.550781 30.125 C 431.925781 29.703125 432.417969 29.492188 433.003906 29.492188 Z M 433.003906 29.492188 "/>
<path fill-rule="nonzero" fill="rgb(0%, 0%, 0%)" fill-opacity="1" d="M 446.335938 32.820312 C 446.335938 34.695312 446.734375 36.171875 447.53125 37.226562 C 448.351562 38.257812 449.429688 38.773438 450.765625 38.773438 C 451.867188 38.773438 452.804688 38.398438 453.507812 37.601562 L 453.507812 42.898438 L 456.507812 42.898438 L 456.507812 27.265625 L 453.859375 27.265625 L 453.671875 28.460938 C 452.945312 27.523438 451.984375 27.054688 450.789062 27.054688 C 449.40625 27.054688 448.304688 27.570312 447.507812 28.601562 C 446.734375 29.632812 446.335938 31.039062 446.335938 32.820312 Z M 449.359375 33.03125 C 449.359375 31.8125 449.546875 30.921875 449.921875 30.359375 C 450.320312 29.796875 450.859375 29.492188 451.5625 29.492188 C 452.476562 29.492188 453.109375 29.867188 453.507812 30.570312 L 453.507812 35.234375 C 453.109375 35.984375 452.453125 36.335938 451.539062 36.335938 C 450.859375 36.335938 450.320312 36.054688 449.921875 35.515625 C 449.546875 34.953125 449.359375 34.109375 449.359375 33.03125 Z M 449.359375 33.03125 "/>
<path fill-rule="nonzero" fill="rgb(0%, 0%, 0%)" fill-opacity="1" d="M 465.632812 37.414062 L 465.726562 38.5625 L 468.539062 38.5625 L 468.539062 27.265625 L 465.539062 27.265625 L 465.539062 35.28125 C 465.140625 36.007812 464.4375 36.335938 463.429688 36.335938 C 462.351562 36.335938 461.8125 35.773438 461.8125 34.554688 L 461.8125 27.265625 L 458.8125 27.265625 L 458.8125 34.671875 C 458.8125 36.007812 459.117188 37.039062 459.773438 37.71875 C 460.40625 38.445312 461.320312 38.773438 462.539062 38.773438 C 463.875 38.773438 464.882812 38.304688 465.632812 37.414062 Z M 465.632812 37.414062 "/>
<path fill-rule="nonzero" fill="rgb(0%, 0%, 0%)" fill-opacity="1" d="M 476.007812 38.773438 C 476.945312 38.773438 477.789062 38.609375 478.5625 38.234375 C 479.335938 37.90625 479.945312 37.390625 480.414062 36.734375 L 478.9375 35.070312 C 478.28125 35.9375 477.367188 36.335938 476.21875 36.335938 C 475.445312 36.335938 474.835938 36.125 474.34375 35.679688 C 473.851562 35.257812 473.546875 34.648438 473.453125 33.898438 L 480.671875 33.898438 L 480.671875 32.65625 C 480.671875 30.898438 480.226562 29.515625 479.3125 28.53125 C 478.421875 27.546875 477.226562 27.054688 475.679688 27.054688 C 474.625 27.054688 473.710938 27.3125 472.9375 27.78125 C 472.117188 28.273438 471.484375 28.976562 471.0625 29.867188 C 470.617188 30.757812 470.40625 31.765625 470.40625 32.890625 L 470.40625 33.195312 C 470.40625 34.882812 470.921875 36.242188 471.953125 37.25 C 472.984375 38.28125 474.34375 38.773438 476.007812 38.773438 Z M 475.65625 29.492188 C 476.3125 29.492188 476.804688 29.703125 477.132812 30.054688 C 477.484375 30.429688 477.671875 30.921875 477.695312 31.601562 L 477.695312 31.859375 L 473.5 31.859375 C 473.59375 31.109375 473.828125 30.523438 474.203125 30.125 C 474.578125 29.703125 475.070312 29.492188 475.65625 29.492188 Z M 475.65625 29.492188 "/>
<path fill-rule="nonzero" fill="rgb(0%, 0%, 0%)" fill-opacity="1" d="M 489.667969 37.085938 C 489.667969 37.554688 489.808594 37.953125 490.136719 38.234375 C 490.417969 38.539062 490.839844 38.679688 491.355469 38.679688 C 491.847656 38.679688 492.246094 38.539062 492.574219 38.234375 C 492.878906 37.953125 493.066406 37.554688 493.066406 37.085938 C 493.066406 36.617188 492.878906 36.21875 492.574219 35.914062 C 492.246094 35.609375 491.847656 35.46875 491.355469 35.46875 C 490.863281 35.46875 490.441406 35.609375 490.136719 35.914062 C 489.808594 36.21875 489.667969 36.617188 489.667969 37.085938 Z M 489.667969 37.085938 "/>
<path fill-rule="nonzero" fill="rgb(0%, 0%, 0%)" fill-opacity="1" d="M 495.867188 37.085938 C 495.867188 37.554688 496.007812 37.953125 496.335938 38.234375 C 496.617188 38.539062 497.039062 38.679688 497.554688 38.679688 C 498.046875 38.679688 498.445312 38.539062 498.773438 38.234375 C 499.078125 37.953125 499.265625 37.554688 499.265625 37.085938 C 499.265625 36.617188 499.078125 36.21875 498.773438 35.914062 C 498.445312 35.609375 498.046875 35.46875 497.554688 35.46875 C 497.0625 35.46875 496.640625 35.609375 496.335938 35.914062 C 496.007812 36.21875 495.867188 36.617188 495.867188 37.085938 Z M 495.867188 37.085938 "/>
<path fill-rule="nonzero" fill="rgb(0%, 0%, 0%)" fill-opacity="1" d="M 502.0625 37.085938 C 502.0625 37.554688 502.203125 37.953125 502.53125 38.234375 C 502.8125 38.539062 503.234375 38.679688 503.75 38.679688 C 504.242188 38.679688 504.640625 38.539062 504.96875 38.234375 C 505.273438 37.953125 505.460938 37.554688 505.460938 37.085938 C 505.460938 36.617188 505.273438 36.21875 504.96875 35.914062 C 504.640625 35.609375 504.242188 35.46875 503.75 35.46875 C 503.257812 35.46875 502.835938 35.609375 502.53125 35.914062 C 502.203125 36.21875 502.0625 36.617188 502.0625 37.085938 Z M 502.0625 37.085938 "/>
<path fill="none" stroke-width="0.99628" stroke-linecap="butt" stroke-linejoin="round" stroke="rgb(19.607843%, 19.607843%, 19.607843%)" stroke-opacity="1" stroke-miterlimit="10" d="M -65.849019 -22.56677 L 65.846293 -22.56677 L 65.846293 22.566043 L -65.849019 22.566043 Z M -65.849019 -22.56677 " transform="matrix(1.5, 0, 0, -1.5, 103.253998, 95.497501)"/>
<path fill="none" stroke-width="0.99628" stroke-linecap="butt" stroke-linejoin="round" stroke="rgb(19.607843%, 19.607843%, 19.607843%)" stroke-opacity="1" stroke-miterlimit="10" d="M -141.07132 -22.56677 L 141.069305 -22.56677 L 141.069305 22.566043 L -141.07132 22.566043 Z M -141.07132 -22.56677 " transform="matrix(1.5, 0, 0, -1.5, 413.626511, 95.497501)"/>
<path fill="none" stroke-width="0.99628" stroke-linecap="butt" stroke-linejoin="round" stroke="rgb(19.607843%, 19.607843%, 19.607843%)" stroke-opacity="1" stroke-miterlimit="10" d="M -65.849019 -22.563983 L 65.846293 -22.563983 L 65.846293 22.56883 L -65.849019 22.56883 Z M -65.849019 -22.563983 " transform="matrix(1.5, 0, 0, -1.5, 103.253998, 163.196995)"/>
<path fill="none" stroke-width="0.99628" stroke-linecap="butt" stroke-linejoin="round" stroke="rgb(19.607843%, 19.607843%, 19.607843%)" stroke-opacity="1" stroke-miterlimit="10" d="M -141.07132 -22.563983 L 141.069305 -22.563983 L 141.069305 22.56883 L -141.07132 22.56883 Z M -141.07132 -22.563983 " transform="matrix(1.5, 0, 0, -1.5, 413.626511, 163.196995)"/>
<path fill="none" stroke-width="0.99628" stroke-linecap="butt" stroke-linejoin="round" stroke="rgb(19.607843%, 19.607843%, 19.607843%)" stroke-opacity="1" stroke-miterlimit="10" d="M -65.849019 -22.566396 L 65.846293 -22.566396 L 65.846293 22.569021 L -65.849019 22.569021 Z M -65.849019 -22.566396 " transform="matrix(1.5, 0, 0, -1.5, 103.253998, 230.8965)"/>
<path fill="none" stroke-width="0.99628" stroke-linecap="butt" stroke-linejoin="round" stroke="rgb(19.607843%, 19.607843%, 19.607843%)" stroke-opacity="1" stroke-miterlimit="10" d="M -141.07132 -22.566396 L 141.069305 -22.566396 L 141.069305 22.569021 L -141.07132 22.569021 Z M -141.07132 -22.566396 " transform="matrix(1.5, 0, 0, -1.5, 413.626511, 230.8965)"/>
<path fill="none" stroke-width="0.99628" stroke-linecap="butt" stroke-linejoin="round" stroke="rgb(19.607843%, 19.607843%, 19.607843%)" stroke-opacity="1" stroke-miterlimit="10" d="M -65.849019 -22.568817 L 65.846293 -22.568817 L 65.846293 22.569204 L -65.849019 22.569204 Z M -65.849019 -22.568817 " transform="matrix(1.5, 0, 0, -1.5, 103.253998, 298.595993)"/>
<path fill="none" stroke-width="0.99628" stroke-linecap="butt" stroke-linejoin="round" stroke="rgb(19.607843%, 19.607843%, 19.607843%)" stroke-opacity="1" stroke-miterlimit="10" d="M -141.07132 -22.568817 L 141.069305 -22.568817 L 141.069305 22.569204 L -141.07132 22.569204 Z M -141.07132 -22.568817 " transform="matrix(1.5, 0, 0, -1.5, 413.626511, 298.595993)"/>
<path fill="none" stroke-width="0.99628" stroke-linecap="butt" stroke-linejoin="round" stroke="rgb(19.607843%, 19.607843%, 19.607843%)" stroke-opacity="1" stroke-miterlimit="10" d="M -65.849019 -22.567627 L 65.846293 -22.567627 L 65.846293 22.565186 L -65.849019 22.565186 Z M -65.849019 -22.567627 " transform="matrix(1.5, 0, 0, -1.5, 103.253998, 366.296997)"/>
<path fill="none" stroke-width="0.99628" stroke-linecap="butt" stroke-linejoin="round" stroke="rgb(19.607843%, 19.607843%, 19.607843%)" stroke-opacity="1" stroke-miterlimit="10" d="M -141.07132 -22.567627 L 141.069305 -22.567627 L 141.069305 22.565186 L -141.07132 22.565186 Z M -141.07132 -22.567627 " transform="matrix(1.5, 0, 0, -1.5, 413.626511, 366.296997)"/>
</svg>
