<?xml version="1.0" encoding="UTF-8"?>
<svg xmlns="http://www.w3.org/2000/svg" xmlns:xlink="http://www.w3.org/1999/xlink" width="536.861984" height="293.89801" viewBox="0 0 536.861984 293.89801">
<path fill="none" stroke-width="1.99255" stroke-linecap="butt" stroke-linejoin="round" stroke="rgb(19.607843%, 19.607843%, 19.607843%)" stroke-opacity="1" stroke-miterlimit="10" d="M -56.322417 -15.829437 L 56.326021 -15.829437 L 56.326021 15.832021 L -56.322417 15.832021 Z M -56.322417 -15.829437 " transform="matrix(1.5, 0, 0, -1.5, 88.968, 28.2285)"/>
<path fill-rule="nonzero" fill="rgb(0%, 0%, 0%)" fill-opacity="1" d="M 36.507812 24.148438 C 36.039062 24.03125 34.726562 23.539062 34.726562 22.320312 C 34.726562 20.515625 36.53125 20.46875 37.257812 20.46875 C 38.453125 20.46875 39.53125 20.75 40.585938 21.78125 C 40.914062 22.085938 40.9375 22.109375 41.03125 22.109375 C 41.148438 22.109375 41.265625 22.039062 41.3125 21.734375 L 41.640625 19.859375 C 41.6875 19.695312 41.6875 19.648438 41.6875 19.601562 C 41.6875 19.414062 41.664062 19.390625 41.125 19.109375 C 39.601562 18.382812 38.359375 18.265625 37.257812 18.265625 C 35.359375 18.265625 32.054688 18.710938 32.054688 22.71875 C 32.054688 24.21875 32.828125 25.203125 33.25 25.648438 C 34.328125 26.75 35.335938 26.960938 37 27.359375 C 38.195312 27.617188 38.664062 27.734375 39.132812 28.15625 C 39.367188 28.367188 39.8125 28.835938 39.8125 29.632812 C 39.8125 31.648438 37.960938 31.71875 37.257812 31.71875 C 35.476562 31.71875 33.90625 30.992188 32.828125 30.03125 C 32.570312 29.773438 32.546875 29.773438 32.453125 29.773438 C 32.3125 29.773438 32.21875 29.820312 32.148438 30.148438 L 31.84375 32 C 31.796875 32.1875 31.796875 32.234375 31.796875 32.28125 C 31.796875 32.726562 34.023438 33.5 34.117188 33.546875 C 35.546875 33.992188 36.695312 34.039062 37.257812 34.039062 C 40.46875 34.039062 42.484375 32.609375 42.484375 29.304688 C 42.484375 26.890625 40.703125 25.109375 38.570312 24.617188 Z M 36.507812 24.148438 "/>
<path fill-rule="nonzero" fill="rgb(0%, 0%, 0%)" fill-opacity="1" d="M 45.980469 18.710938 C 45.300781 18.710938 44.949219 18.851562 44.949219 19.695312 L 44.949219 20.679688 C 44.949219 21.359375 45.160156 21.640625 45.957031 21.640625 L 47.082031 21.640625 C 48.089844 21.640625 48.089844 21.195312 48.089844 20.1875 C 48.089844 19.15625 48.089844 18.710938 47.082031 18.710938 Z M 47.949219 24.804688 C 47.949219 24.125 47.808594 23.773438 46.917969 23.773438 L 46.121094 23.773438 C 45.371094 23.773438 45.113281 24.007812 45.113281 24.804688 L 45.113281 32.539062 C 45.113281 33.3125 45.347656 33.570312 46.121094 33.570312 L 46.917969 33.570312 C 47.738281 33.570312 47.949219 33.289062 47.949219 32.539062 Z M 47.949219 24.804688 "/>
<path fill-rule="nonzero" fill="rgb(0%, 0%, 0%)" fill-opacity="1" d="M 65.566406 30.546875 C 65.566406 29.351562 64.933594 28.601562 64.535156 28.273438 C 63.691406 27.5 62.941406 27.382812 62.050781 27.195312 C 60.878906 26.984375 60.011719 26.820312 60.011719 25.976562 C 60.011719 25.109375 60.714844 24.945312 61.558594 24.945312 C 62.988281 24.945312 63.761719 25.460938 64.300781 25.929688 C 64.511719 26.164062 64.558594 26.164062 64.652344 26.164062 C 64.863281 26.164062 64.910156 25.953125 64.933594 25.882812 C 64.980469 25.695312 65.191406 24.5 65.191406 24.40625 C 65.191406 24.054688 64.042969 23.75 63.808594 23.679688 C 62.964844 23.445312 62.285156 23.421875 61.722656 23.421875 C 60.761719 23.421875 57.902344 23.421875 57.902344 26.46875 C 57.902344 27.523438 58.371094 28.15625 58.933594 28.671875 C 59.683594 29.351562 60.527344 29.515625 61.746094 29.75 C 62.355469 29.84375 63.457031 30.054688 63.457031 30.992188 C 63.457031 32 62.613281 32.140625 61.792969 32.140625 C 60.855469 32.140625 59.660156 31.859375 58.652344 30.664062 C 58.535156 30.546875 58.464844 30.5 58.347656 30.5 C 58.136719 30.5 58.089844 30.6875 58.066406 30.804688 C 58.019531 31.109375 57.761719 32.328125 57.761719 32.539062 C 57.761719 32.9375 59.355469 33.429688 59.378906 33.453125 C 60.550781 33.804688 61.417969 33.804688 61.792969 33.804688 C 62.871094 33.804688 65.566406 33.710938 65.566406 30.546875 Z M 65.566406 30.546875 "/>
<path fill-rule="nonzero" fill="rgb(0%, 0%, 0%)" fill-opacity="1" d="M 75.230469 19.34375 C 75.324219 19.25 75.464844 19.132812 75.464844 19.015625 C 75.464844 18.734375 75.230469 18.734375 74.878906 18.734375 L 73.121094 18.734375 C 72.699219 18.734375 72.675781 18.757812 72.488281 18.992188 L 70.660156 21.5 C 70.449219 21.734375 70.449219 21.78125 70.449219 21.804688 C 70.449219 22.085938 70.683594 22.085938 71.035156 22.085938 L 71.832031 22.085938 Z M 75.230469 19.34375 "/>
<path fill-rule="nonzero" fill="rgb(0%, 0%, 0%)" fill-opacity="1" d="M 75.328125 29 C 75.820312 29 76.359375 28.976562 76.359375 28.015625 C 76.359375 25.25 75.070312 23.421875 71.882812 23.421875 C 68.460938 23.421875 66.773438 25.34375 66.773438 28.601562 C 66.773438 32.09375 68.8125 33.804688 72.164062 33.804688 C 72.984375 33.804688 74.203125 33.6875 75.609375 32.984375 C 76.078125 32.75 76.21875 32.703125 76.21875 32.445312 C 76.21875 32.28125 76.171875 31.671875 76.148438 31.507812 C 76.054688 30.828125 76.03125 30.804688 75.84375 30.804688 C 75.75 30.804688 75.703125 30.804688 75.46875 31.015625 C 74.226562 32.117188 72.9375 32.257812 72.257812 32.257812 C 69.84375 32.257812 69.585938 30.359375 69.515625 29 Z M 69.539062 27.851562 C 69.609375 26.5625 70.03125 24.945312 71.882812 24.945312 C 73.59375 24.945312 73.921875 26.1875 73.992188 27.851562 Z M 69.539062 27.851562 "/>
<path fill-rule="nonzero" fill="rgb(0%, 0%, 0%)" fill-opacity="1" d="M 95.527344 24.570312 C 95.527344 23.890625 95.386719 23.539062 94.496094 23.539062 L 93.722656 23.539062 C 92.902344 23.539062 92.691406 23.820312 92.691406 24.570312 L 92.691406 24.96875 C 91.753906 23.539062 90.488281 23.539062 90.113281 23.539062 C 85.988281 23.539062 85.660156 26.984375 85.660156 28.695312 C 85.660156 30.359375 85.988281 33.804688 89.972656 33.804688 C 91.097656 33.804688 91.894531 33.382812 92.621094 32.539062 L 92.621094 36.6875 C 92.621094 37.367188 92.761719 37.71875 93.652344 37.71875 L 94.496094 37.71875 C 95.316406 37.71875 95.527344 37.4375 95.527344 36.6875 Z M 92.691406 31.109375 C 92.292969 31.648438 91.730469 32.257812 90.746094 32.257812 C 88.566406 32.257812 88.566406 29.5625 88.566406 28.71875 C 88.566406 27.851562 88.566406 25.203125 90.957031 25.203125 C 91.308594 25.203125 91.753906 25.296875 92.128906 25.695312 C 92.691406 26.234375 92.691406 26.632812 92.691406 26.890625 Z M 92.691406 31.109375 "/>
<path fill-rule="nonzero" fill="rgb(0%, 0%, 0%)" fill-opacity="1" d="M 107.539062 24.804688 C 107.539062 24.125 107.398438 23.773438 106.507812 23.773438 L 105.664062 23.773438 C 104.84375 23.773438 104.632812 24.054688 104.632812 24.804688 L 104.632812 29.867188 C 104.632812 31.273438 103.882812 32.492188 102.359375 32.492188 C 101.164062 32.492188 101.046875 32.210938 101.046875 31.0625 L 101.046875 24.804688 C 101.046875 24.125 100.882812 23.773438 100.015625 23.773438 L 99.148438 23.773438 C 98.398438 23.773438 98.140625 24.007812 98.140625 24.804688 L 98.140625 30.875 C 98.140625 33.171875 99.382812 33.804688 101.585938 33.804688 C 102.171875 33.804688 103.695312 33.804688 104.703125 32 L 104.703125 32.539062 C 104.703125 33.21875 104.84375 33.570312 105.710938 33.570312 L 106.507812 33.570312 C 107.328125 33.570312 107.539062 33.289062 107.539062 32.539062 Z M 107.539062 24.804688 "/>
<path fill-rule="nonzero" fill="rgb(0%, 0%, 0%)" fill-opacity="1" d="M 118.054688 29 C 118.546875 29 119.085938 28.976562 119.085938 28.015625 C 119.085938 25.25 117.796875 23.421875 114.609375 23.421875 C 111.1875 23.421875 109.5 25.34375 109.5 28.601562 C 109.5 32.09375 111.539062 33.804688 114.890625 33.804688 C 115.710938 33.804688 116.929688 33.6875 118.335938 32.984375 C 118.804688 32.75 118.945312 32.703125 118.945312 32.445312 C 118.945312 32.28125 118.898438 31.671875 118.875 31.507812 C 118.78125 30.828125 118.757812 30.804688 118.570312 30.804688 C 118.476562 30.804688 118.429688 30.804688 118.195312 31.015625 C 116.953125 32.117188 115.664062 32.257812 114.984375 32.257812 C 112.570312 32.257812 112.3125 30.359375 112.242188 29 Z M 112.265625 27.851562 C 112.335938 26.5625 112.757812 24.945312 114.609375 24.945312 C 116.320312 24.945312 116.648438 26.1875 116.71875 27.851562 Z M 112.265625 27.851562 "/>
<path fill-rule="nonzero" fill="rgb(0%, 0%, 0%)" fill-opacity="1" d="M 132.273438 31.34375 C 132.273438 30.78125 132.25 30.78125 131.6875 30.78125 L 130.046875 30.78125 C 129.484375 30.78125 129.460938 30.78125 129.460938 31.34375 L 129.460938 32.984375 C 129.460938 33.546875 129.484375 33.570312 130.046875 33.570312 L 131.6875 33.570312 C 132.25 33.570312 132.273438 33.546875 132.273438 32.984375 Z M 132.273438 31.34375 "/>
<path fill-rule="nonzero" fill="rgb(0%, 0%, 0%)" fill-opacity="1" d="M 138.800781 31.34375 C 138.800781 30.78125 138.777344 30.78125 138.214844 30.78125 L 136.574219 30.78125 C 136.011719 30.78125 135.988281 30.78125 135.988281 31.34375 L 135.988281 32.984375 C 135.988281 33.546875 136.011719 33.570312 136.574219 33.570312 L 138.214844 33.570312 C 138.777344 33.570312 138.800781 33.546875 138.800781 32.984375 Z M 138.800781 31.34375 "/>
<path fill-rule="nonzero" fill="rgb(0%, 0%, 0%)" fill-opacity="1" d="M 145.332031 31.34375 C 145.332031 30.78125 145.308594 30.78125 144.746094 30.78125 L 143.105469 30.78125 C 142.542969 30.78125 142.519531 30.78125 142.519531 31.34375 L 142.519531 32.984375 C 142.519531 33.546875 142.542969 33.570312 143.105469 33.570312 L 144.746094 33.570312 C 145.308594 33.570312 145.332031 33.546875 145.332031 32.984375 Z M 145.332031 31.34375 "/>
<path fill="none" stroke-width="1.99255" stroke-linecap="butt" stroke-linejoin="round" stroke="rgb(19.607843%, 19.607843%, 19.607843%)" stroke-opacity="1" stroke-miterlimit="10" d="M -119.639979 -15.829437 L 119.643875 -15.829437 L 119.643875 15.832021 L -119.639979 15.832021 Z M -119.639979 -15.829437 " transform="matrix(1.5, 0, 0, -1.5, 352.917, 28.2285)"/>
<path fill-rule="nonzero" fill="rgb(0%, 0%, 0%)" fill-opacity="1" d="M 264.804688 26.914062 L 270.429688 26.914062 C 271.085938 26.914062 271.460938 26.773438 271.460938 25.929688 C 271.460938 25.132812 271.179688 24.921875 270.429688 24.921875 L 264.804688 24.921875 L 264.804688 20.960938 L 265.859375 20.960938 C 267.523438 20.960938 269.210938 21.03125 270.875 21.03125 C 271.625 21.03125 272.117188 21.03125 272.117188 20 L 272.117188 19.835938 C 272.117188 19.132812 271.976562 18.804688 271.085938 18.804688 L 262.695312 18.804688 C 261.921875 18.804688 261.664062 19.039062 261.664062 19.835938 L 261.664062 32.539062 C 261.664062 33.3125 261.898438 33.570312 262.695312 33.570312 L 271.414062 33.570312 C 272.234375 33.570312 272.445312 33.289062 272.445312 32.539062 L 272.445312 32.234375 C 272.445312 31.226562 271.953125 31.226562 271.25 31.226562 C 270.125 31.226562 269.046875 31.273438 267.921875 31.273438 C 267.382812 31.273438 265.179688 31.273438 264.804688 31.296875 Z M 264.804688 26.914062 "/>
<path fill-rule="nonzero" fill="rgb(0%, 0%, 0%)" fill-opacity="1" d="M 284.117188 26.632812 C 284.117188 24.429688 283.179688 23.539062 281 23.539062 C 278.75 23.539062 277.789062 25.179688 277.507812 25.742188 L 277.484375 25.742188 L 277.484375 24.6875 C 277.484375 23.984375 277.34375 23.65625 276.476562 23.65625 L 275.726562 23.65625 C 274.976562 23.65625 274.71875 23.890625 274.71875 24.6875 L 274.71875 32.539062 C 274.71875 33.3125 274.953125 33.570312 275.726562 33.570312 L 276.59375 33.570312 C 277.414062 33.570312 277.625 33.289062 277.625 32.539062 L 277.625 27.828125 C 277.625 25.953125 278.867188 25.085938 279.96875 25.085938 C 281 25.085938 281.210938 25.578125 281.210938 26.65625 L 281.210938 32.539062 C 281.210938 33.21875 281.351562 33.570312 282.242188 33.570312 L 283.085938 33.570312 C 283.90625 33.570312 284.117188 33.289062 284.117188 32.539062 Z M 284.117188 26.632812 "/>
<path fill-rule="nonzero" fill="rgb(0%, 0%, 0%)" fill-opacity="1" d="M 290.085938 25.320312 L 291.984375 25.320312 C 292.242188 25.320312 293.015625 25.320312 293.015625 24.546875 C 293.015625 23.773438 292.242188 23.773438 291.984375 23.773438 L 290.085938 23.773438 L 290.085938 22.015625 C 290.085938 21.3125 289.921875 20.984375 289.054688 20.984375 L 288.398438 20.984375 C 287.625 20.984375 287.367188 21.21875 287.367188 22.015625 L 287.367188 23.773438 L 286.875 23.773438 C 286.640625 23.773438 285.84375 23.773438 285.84375 24.546875 C 285.84375 25.320312 286.617188 25.320312 286.875 25.320312 L 287.296875 25.320312 L 287.296875 30.734375 C 287.296875 32.890625 288.070312 33.804688 289.546875 33.804688 C 289.734375 33.804688 290.671875 33.804688 291.796875 33.453125 C 292.148438 33.359375 293.390625 32.960938 293.390625 32.5625 C 293.390625 32.492188 293.34375 32.351562 293.226562 31.90625 C 293.109375 31.484375 293.0625 31.34375 292.875 31.34375 C 292.78125 31.34375 292.757812 31.367188 292.617188 31.507812 C 292.382812 31.671875 291.820312 32.140625 290.90625 32.140625 C 290.390625 32.140625 290.085938 31.765625 290.085938 30.359375 Z M 290.085938 25.320312 "/>
<path fill-rule="nonzero" fill="rgb(0%, 0%, 0%)" fill-opacity="1" d="M 305.121094 28.765625 C 305.121094 25.25 303.410156 23.421875 299.941406 23.421875 C 296.355469 23.421875 294.714844 25.320312 294.714844 28.765625 C 294.714844 32.234375 296.566406 33.804688 299.917969 33.804688 C 303.269531 33.804688 305.121094 32.257812 305.121094 28.765625 Z M 299.941406 32.140625 C 297.621094 32.140625 297.621094 30.21875 297.621094 28.507812 C 297.621094 26.867188 297.621094 24.945312 299.917969 24.945312 C 302.214844 24.945312 302.214844 26.84375 302.214844 28.507812 C 302.214844 30.195312 302.214844 32.140625 299.941406 32.140625 Z M 299.941406 32.140625 "/>
<path fill-rule="nonzero" fill="rgb(0%, 0%, 0%)" fill-opacity="1" d="M 316.5 26.632812 C 316.5 24.429688 315.5625 23.539062 313.382812 23.539062 C 311.132812 23.539062 310.171875 25.179688 309.890625 25.742188 L 309.867188 25.742188 L 309.867188 24.6875 C 309.867188 23.984375 309.726562 23.65625 308.859375 23.65625 L 308.109375 23.65625 C 307.359375 23.65625 307.101562 23.890625 307.101562 24.6875 L 307.101562 32.539062 C 307.101562 33.3125 307.335938 33.570312 308.109375 33.570312 L 308.976562 33.570312 C 309.796875 33.570312 310.007812 33.289062 310.007812 32.539062 L 310.007812 27.828125 C 310.007812 25.953125 311.25 25.085938 312.351562 25.085938 C 313.382812 25.085938 313.59375 25.578125 313.59375 26.65625 L 313.59375 32.539062 C 313.59375 33.21875 313.734375 33.570312 314.625 33.570312 L 315.46875 33.570312 C 316.289062 33.570312 316.5 33.289062 316.5 32.539062 Z M 316.5 26.632812 "/>
<path fill-rule="nonzero" fill="rgb(0%, 0%, 0%)" fill-opacity="1" d="M 327.578125 32.492188 C 327.578125 32.257812 327.484375 31.273438 327.4375 31.015625 C 327.4375 30.945312 327.390625 30.734375 327.179688 30.734375 C 327.109375 30.734375 327.0625 30.734375 326.851562 30.945312 C 326.476562 31.273438 325.46875 32.140625 323.734375 32.140625 C 321.507812 32.140625 321.507812 29.984375 321.507812 28.601562 C 321.507812 26.890625 321.601562 25.085938 323.78125 25.085938 C 325.1875 25.085938 325.75 25.4375 326.523438 26.070312 C 326.78125 26.304688 326.828125 26.304688 326.921875 26.304688 C 327.132812 26.304688 327.15625 26.117188 327.179688 26.023438 C 327.226562 25.859375 327.4375 24.664062 327.4375 24.546875 C 327.4375 24.359375 327.296875 24.265625 326.921875 24.101562 C 325.914062 23.632812 325.257812 23.421875 323.757812 23.421875 C 320.59375 23.421875 318.601562 24.921875 318.601562 28.648438 C 318.601562 32.210938 320.429688 33.804688 323.664062 33.804688 C 324.25 33.804688 325.515625 33.78125 326.945312 33.054688 C 327.554688 32.726562 327.578125 32.726562 327.578125 32.492188 Z M 327.578125 32.492188 "/>
<path fill-rule="nonzero" fill="rgb(0%, 0%, 0%)" fill-opacity="1" d="M 337.460938 29 C 337.953125 29 338.492188 28.976562 338.492188 28.015625 C 338.492188 25.25 337.203125 23.421875 334.015625 23.421875 C 330.59375 23.421875 328.90625 25.34375 328.90625 28.601562 C 328.90625 32.09375 330.945312 33.804688 334.296875 33.804688 C 335.117188 33.804688 336.335938 33.6875 337.742188 32.984375 C 338.210938 32.75 338.351562 32.703125 338.351562 32.445312 C 338.351562 32.28125 338.304688 31.671875 338.28125 31.507812 C 338.1875 30.828125 338.164062 30.804688 337.976562 30.804688 C 337.882812 30.804688 337.835938 30.804688 337.601562 31.015625 C 336.359375 32.117188 335.070312 32.257812 334.390625 32.257812 C 331.976562 32.257812 331.71875 30.359375 331.648438 29 Z M 331.671875 27.851562 C 331.742188 26.5625 332.164062 24.945312 334.015625 24.945312 C 335.726562 24.945312 336.054688 26.1875 336.125 27.851562 Z M 331.671875 27.851562 "/>
<path fill-rule="nonzero" fill="rgb(0%, 0%, 0%)" fill-opacity="1" d="M 347.632812 30.546875 C 347.632812 29.351562 347 28.601562 346.601562 28.273438 C 345.757812 27.5 345.007812 27.382812 344.117188 27.195312 C 342.945312 26.984375 342.078125 26.820312 342.078125 25.976562 C 342.078125 25.109375 342.78125 24.945312 343.625 24.945312 C 345.054688 24.945312 345.828125 25.460938 346.367188 25.929688 C 346.578125 26.164062 346.625 26.164062 346.71875 26.164062 C 346.929688 26.164062 346.976562 25.953125 347 25.882812 C 347.046875 25.695312 347.257812 24.5 347.257812 24.40625 C 347.257812 24.054688 346.109375 23.75 345.875 23.679688 C 345.03125 23.445312 344.351562 23.421875 343.789062 23.421875 C 342.828125 23.421875 339.96875 23.421875 339.96875 26.46875 C 339.96875 27.523438 340.4375 28.15625 341 28.671875 C 341.75 29.351562 342.59375 29.515625 343.8125 29.75 C 344.421875 29.84375 345.523438 30.054688 345.523438 30.992188 C 345.523438 32 344.679688 32.140625 343.859375 32.140625 C 342.921875 32.140625 341.726562 31.859375 340.71875 30.664062 C 340.601562 30.546875 340.53125 30.5 340.414062 30.5 C 340.203125 30.5 340.15625 30.6875 340.132812 30.804688 C 340.085938 31.109375 339.828125 32.328125 339.828125 32.539062 C 339.828125 32.9375 341.421875 33.429688 341.445312 33.453125 C 342.617188 33.804688 343.484375 33.804688 343.859375 33.804688 C 344.9375 33.804688 347.632812 33.710938 347.632812 30.546875 Z M 347.632812 30.546875 "/>
<path fill-rule="nonzero" fill="rgb(0%, 0%, 0%)" fill-opacity="1" d="M 364.488281 30.546875 C 364.488281 29.351562 363.855469 28.601562 363.457031 28.273438 C 362.613281 27.5 361.863281 27.382812 360.972656 27.195312 C 359.800781 26.984375 358.933594 26.820312 358.933594 25.976562 C 358.933594 25.109375 359.636719 24.945312 360.480469 24.945312 C 361.910156 24.945312 362.683594 25.460938 363.222656 25.929688 C 363.433594 26.164062 363.480469 26.164062 363.574219 26.164062 C 363.785156 26.164062 363.832031 25.953125 363.855469 25.882812 C 363.902344 25.695312 364.113281 24.5 364.113281 24.40625 C 364.113281 24.054688 362.964844 23.75 362.730469 23.679688 C 361.886719 23.445312 361.207031 23.421875 360.644531 23.421875 C 359.683594 23.421875 356.824219 23.421875 356.824219 26.46875 C 356.824219 27.523438 357.292969 28.15625 357.855469 28.671875 C 358.605469 29.351562 359.449219 29.515625 360.667969 29.75 C 361.277344 29.84375 362.378906 30.054688 362.378906 30.992188 C 362.378906 32 361.535156 32.140625 360.714844 32.140625 C 359.777344 32.140625 358.582031 31.859375 357.574219 30.664062 C 357.457031 30.546875 357.386719 30.5 357.269531 30.5 C 357.058594 30.5 357.011719 30.6875 356.988281 30.804688 C 356.941406 31.109375 356.683594 32.328125 356.683594 32.539062 C 356.683594 32.9375 358.277344 33.429688 358.300781 33.453125 C 359.472656 33.804688 360.339844 33.804688 360.714844 33.804688 C 361.792969 33.804688 364.488281 33.710938 364.488281 30.546875 Z M 364.488281 30.546875 "/>
<path fill-rule="nonzero" fill="rgb(0%, 0%, 0%)" fill-opacity="1" d="M 374.152344 19.34375 C 374.246094 19.25 374.386719 19.132812 374.386719 19.015625 C 374.386719 18.734375 374.152344 18.734375 373.800781 18.734375 L 372.042969 18.734375 C 371.621094 18.734375 371.597656 18.757812 371.410156 18.992188 L 369.582031 21.5 C 369.371094 21.734375 369.371094 21.78125 369.371094 21.804688 C 369.371094 22.085938 369.605469 22.085938 369.957031 22.085938 L 370.753906 22.085938 Z M 374.152344 19.34375 "/>
<path fill-rule="nonzero" fill="rgb(0%, 0%, 0%)" fill-opacity="1" d="M 374.25 29 C 374.742188 29 375.28125 28.976562 375.28125 28.015625 C 375.28125 25.25 373.992188 23.421875 370.804688 23.421875 C 367.382812 23.421875 365.695312 25.34375 365.695312 28.601562 C 365.695312 32.09375 367.734375 33.804688 371.085938 33.804688 C 371.90625 33.804688 373.125 33.6875 374.53125 32.984375 C 375 32.75 375.140625 32.703125 375.140625 32.445312 C 375.140625 32.28125 375.09375 31.671875 375.070312 31.507812 C 374.976562 30.828125 374.953125 30.804688 374.765625 30.804688 C 374.671875 30.804688 374.625 30.804688 374.390625 31.015625 C 373.148438 32.117188 371.859375 32.257812 371.179688 32.257812 C 368.765625 32.257812 368.507812 30.359375 368.4375 29 Z M 368.460938 27.851562 C 368.53125 26.5625 368.953125 24.945312 370.804688 24.945312 C 372.515625 24.945312 372.84375 26.1875 372.914062 27.851562 Z M 368.460938 27.851562 "/>
<path fill-rule="nonzero" fill="rgb(0%, 0%, 0%)" fill-opacity="1" d="M 394.445312 24.570312 C 394.445312 23.890625 394.304688 23.539062 393.414062 23.539062 L 392.640625 23.539062 C 391.820312 23.539062 391.609375 23.820312 391.609375 24.570312 L 391.609375 24.96875 C 390.671875 23.539062 389.40625 23.539062 389.03125 23.539062 C 384.90625 23.539062 384.578125 26.984375 384.578125 28.695312 C 384.578125 30.359375 384.90625 33.804688 388.890625 33.804688 C 390.015625 33.804688 390.8125 33.382812 391.539062 32.539062 L 391.539062 36.6875 C 391.539062 37.367188 391.679688 37.71875 392.570312 37.71875 L 393.414062 37.71875 C 394.234375 37.71875 394.445312 37.4375 394.445312 36.6875 Z M 391.609375 31.109375 C 391.210938 31.648438 390.648438 32.257812 389.664062 32.257812 C 387.484375 32.257812 387.484375 29.5625 387.484375 28.71875 C 387.484375 27.851562 387.484375 25.203125 389.875 25.203125 C 390.226562 25.203125 390.671875 25.296875 391.046875 25.695312 C 391.609375 26.234375 391.609375 26.632812 391.609375 26.890625 Z M 391.609375 31.109375 "/>
<path fill-rule="nonzero" fill="rgb(0%, 0%, 0%)" fill-opacity="1" d="M 406.460938 24.804688 C 406.460938 24.125 406.320312 23.773438 405.429688 23.773438 L 404.585938 23.773438 C 403.765625 23.773438 403.554688 24.054688 403.554688 24.804688 L 403.554688 29.867188 C 403.554688 31.273438 402.804688 32.492188 401.28125 32.492188 C 400.085938 32.492188 399.96875 32.210938 399.96875 31.0625 L 399.96875 24.804688 C 399.96875 24.125 399.804688 23.773438 398.9375 23.773438 L 398.070312 23.773438 C 397.320312 23.773438 397.0625 24.007812 397.0625 24.804688 L 397.0625 30.875 C 397.0625 33.171875 398.304688 33.804688 400.507812 33.804688 C 401.09375 33.804688 402.617188 33.804688 403.625 32 L 403.625 32.539062 C 403.625 33.21875 403.765625 33.570312 404.632812 33.570312 L 405.429688 33.570312 C 406.25 33.570312 406.460938 33.289062 406.460938 32.539062 Z M 406.460938 24.804688 "/>
<path fill-rule="nonzero" fill="rgb(0%, 0%, 0%)" fill-opacity="1" d="M 416.976562 29 C 417.46875 29 418.007812 28.976562 418.007812 28.015625 C 418.007812 25.25 416.71875 23.421875 413.53125 23.421875 C 410.109375 23.421875 408.421875 25.34375 408.421875 28.601562 C 408.421875 32.09375 410.460938 33.804688 413.8125 33.804688 C 414.632812 33.804688 415.851562 33.6875 417.257812 32.984375 C 417.726562 32.75 417.867188 32.703125 417.867188 32.445312 C 417.867188 32.28125 417.820312 31.671875 417.796875 31.507812 C 417.703125 30.828125 417.679688 30.804688 417.492188 30.804688 C 417.398438 30.804688 417.351562 30.804688 417.117188 31.015625 C 415.875 32.117188 414.585938 32.257812 413.90625 32.257812 C 411.492188 32.257812 411.234375 30.359375 411.164062 29 Z M 411.1875 27.851562 C 411.257812 26.5625 411.679688 24.945312 413.53125 24.945312 C 415.242188 24.945312 415.570312 26.1875 415.640625 27.851562 Z M 411.1875 27.851562 "/>
<path fill-rule="nonzero" fill="rgb(0%, 0%, 0%)" fill-opacity="1" d="M 431.191406 31.34375 C 431.191406 30.78125 431.167969 30.78125 430.605469 30.78125 L 428.964844 30.78125 C 428.402344 30.78125 428.378906 30.78125 428.378906 31.34375 L 428.378906 32.984375 C 428.378906 33.546875 428.402344 33.570312 428.964844 33.570312 L 430.605469 33.570312 C 431.167969 33.570312 431.191406 33.546875 431.191406 32.984375 Z M 431.191406 31.34375 "/>
<path fill-rule="nonzero" fill="rgb(0%, 0%, 0%)" fill-opacity="1" d="M 437.722656 31.34375 C 437.722656 30.78125 437.699219 30.78125 437.136719 30.78125 L 435.496094 30.78125 C 434.933594 30.78125 434.910156 30.78125 434.910156 31.34375 L 434.910156 32.984375 C 434.910156 33.546875 434.933594 33.570312 435.496094 33.570312 L 437.136719 33.570312 C 437.699219 33.570312 437.722656 33.546875 437.722656 32.984375 Z M 437.722656 31.34375 "/>
<path fill-rule="nonzero" fill="rgb(0%, 0%, 0%)" fill-opacity="1" d="M 444.253906 31.34375 C 444.253906 30.78125 444.230469 30.78125 443.667969 30.78125 L 442.027344 30.78125 C 441.464844 30.78125 441.441406 30.78125 441.441406 31.34375 L 441.441406 32.984375 C 441.441406 33.546875 441.464844 33.570312 442.027344 33.570312 L 443.667969 33.570312 C 444.230469 33.570312 444.253906 33.546875 444.253906 32.984375 Z M 444.253906 31.34375 "/>
<path fill="none" stroke-width="0.99628" stroke-linecap="butt" stroke-linejoin="round" stroke="rgb(19.607843%, 19.607843%, 19.607843%)" stroke-opacity="1" stroke-miterlimit="10" d="M -56.322417 -15.828686 L 56.326021 -15.828686 L 56.326021 15.830168 L -56.322417 15.830168 Z M -56.322417 -15.828686 " transform="matrix(1.5, 0, 0, -1.5, 88.968, 76.464003)"/>
<path fill="none" stroke-width="0.99628" stroke-linecap="butt" stroke-linejoin="round" stroke="rgb(19.607843%, 19.607843%, 19.607843%)" stroke-opacity="1" stroke-miterlimit="10" d="M -119.639979 -15.828686 L 119.643875 -15.828686 L 119.643875 15.830168 L -119.639979 15.830168 Z M -119.639979 -15.828686 " transform="matrix(1.5, 0, 0, -1.5, 352.917, 76.464003)"/>
<path fill="none" stroke-width="0.99628" stroke-linecap="butt" stroke-linejoin="round" stroke="rgb(19.607843%, 19.607843%, 19.607843%)" stroke-opacity="1" stroke-miterlimit="10" d="M -56.322417 -15.831144 L 56.326021 -15.831144 L 56.326021 15.830315 L -56.322417 15.830315 Z M -56.322417 -15.831144 " transform="matrix(1.5, 0, 0, -1.5, 88.968, 123.952503)"/>
<path fill="none" stroke-width="0.99628" stroke-linecap="butt" stroke-linejoin="round" stroke="rgb(19.607843%, 19.607843%, 19.607843%)" stroke-opacity="1" stroke-miterlimit="10" d="M -119.639979 -15.831144 L 119.643875 -15.831144 L 119.643875 15.830315 L -119.639979 15.830315 Z M -119.639979 -15.831144 " transform="matrix(1.5, 0, 0, -1.5, 352.917, 123.952503)"/>
<path fill="none" stroke-width="0.99628" stroke-linecap="butt" stroke-linejoin="round" stroke="rgb(19.607843%, 19.607843%, 19.607843%)" stroke-opacity="1" stroke-miterlimit="10" d="M -56.322417 -15.831001 L 56.326021 -15.831001 L 56.326021 15.830457 L -56.322417 15.830457 Z M -56.322417 -15.831001 " transform="matrix(1.5, 0, 0, -1.5, 88.968, 171.440998)"/>
<path fill="none" stroke-width="0.99628" stroke-linecap="butt" stroke-linejoin="round" stroke="rgb(19.607843%, 19.607843%, 19.607843%)" stroke-opacity="1" stroke-miterlimit="10" d="M -119.639979 -15.831001 L 119.643875 -15.831001 L 119.643875 15.830457 L -119.639979 15.830457 Z M -119.639979 -15.831001 " transform="matrix(1.5, 0, 0, -1.5, 352.917, 171.440998)"/>
<path fill="none" stroke-width="0.99628" stroke-linecap="butt" stroke-linejoin="round" stroke="rgb(19.607843%, 19.607843%, 19.607843%)" stroke-opacity="1" stroke-miterlimit="10" d="M -56.322417 -15.828247 L 56.326021 -15.828247 L 56.326021 15.828003 L -56.322417 15.828003 Z M -56.322417 -15.828247 " transform="matrix(1.5, 0, 0, -1.5, 88.968, 218.929504)"/>
<path fill="none" stroke-width="0.99628" stroke-linecap="butt" stroke-linejoin="round" stroke="rgb(19.607843%, 19.607843%, 19.607843%)" stroke-opacity="1" stroke-miterlimit="10" d="M -119.639979 -15.828247 L 119.643875 -15.828247 L 119.643875 15.828003 L -119.639979 15.828003 Z M -119.639979 -15.828247 " transform="matrix(1.5, 0, 0, -1.5, 352.917, 218.929504)"/>
<path fill="none" stroke-width="0.99628" stroke-linecap="butt" stroke-linejoin="round" stroke="rgb(19.607843%, 19.607843%, 19.607843%)" stroke-opacity="1" stroke-miterlimit="10" d="M -56.322417 -15.828105 L 56.326021 -15.828105 L 56.326021 15.83075 L -56.322417 15.83075 Z M -56.322417 -15.828105 " transform="matrix(1.5, 0, 0, -1.5, 88.968, 266.417999)"/>
<path fill="none" stroke-width="0.99628" stroke-linecap="butt" stroke-linejoin="round" stroke="rgb(19.607843%, 19.607843%, 19.607843%)" stroke-opacity="1" stroke-miterlimit="10" d="M -119.639979 -15.828105 L 119.643875 -15.828105 L 119.643875 15.83075 L -119.639979 15.83075 Z M -119.639979 -15.828105 " transform="matrix(1.5, 0, 0, -1.5, 352.917, 266.417999)"/>
</svg>
