<?xml version="1.0" encoding="UTF-8"?>
<svg xmlns="http://www.w3.org/2000/svg" xmlns:xlink="http://www.w3.org/1999/xlink" width="552.736496" height="104.275497" viewBox="0 0 552.736496 104.275497">
<path fill="none" stroke-width="1.99255" stroke-linecap="butt" stroke-linejoin="round" stroke="rgb(19.607843%, 19.607843%, 19.607843%)" stroke-opacity="1" stroke-miterlimit="10" d="M -63.232437 -14.389812 L 63.231105 -14.389812 L 63.231105 14.391438 L -63.232437 14.391438 Z M -63.232437 -14.389812 " transform="matrix(1.5, 0, 0, -1.5, 103.813499, 30.552)"/>
<path fill-rule="nonzero" fill="rgb(0%, 0%, 0%)" fill-opacity="1" d="M 56.128906 26.832031 C 55.707031 26.738281 54.488281 26.292969 54.488281 25.191406 C 54.488281 23.527344 56.152344 23.503906 56.808594 23.503906 C 57.886719 23.503906 58.871094 23.761719 59.808594 24.675781 C 60.136719 24.980469 60.136719 25.003906 60.230469 25.003906 C 60.347656 25.003906 60.441406 24.933594 60.488281 24.652344 L 60.792969 22.964844 C 60.816406 22.800781 60.816406 22.753906 60.816406 22.707031 C 60.816406 22.542969 60.816406 22.519531 60.324219 22.285156 C 58.941406 21.605469 57.792969 21.488281 56.808594 21.488281 C 55.074219 21.488281 52.074219 21.910156 52.074219 25.542969 C 52.074219 26.925781 52.777344 27.816406 53.152344 28.191406 C 54.136719 29.222656 55.050781 29.410156 56.574219 29.761719 C 57.652344 30.019531 58.097656 30.113281 58.519531 30.488281 C 58.707031 30.699219 59.105469 31.097656 59.105469 31.824219 C 59.105469 33.652344 57.441406 33.722656 56.808594 33.722656 C 55.167969 33.722656 53.761719 33.066406 52.777344 32.175781 C 52.542969 31.941406 52.519531 31.941406 52.425781 31.941406 C 52.308594 31.941406 52.214844 32.011719 52.167969 32.292969 L 51.863281 33.980469 C 51.839844 34.144531 51.839844 34.191406 51.839844 34.238281 C 51.839844 34.660156 53.855469 35.363281 53.949219 35.386719 C 55.261719 35.808594 56.292969 35.832031 56.808594 35.832031 C 59.714844 35.832031 61.542969 34.542969 61.542969 31.519531 C 61.542969 29.339844 59.925781 27.722656 57.980469 27.277344 Z M 56.128906 26.832031 "/>
<path fill-rule="nonzero" fill="rgb(0%, 0%, 0%)" fill-opacity="1" d="M 64.746094 21.910156 C 64.113281 21.910156 63.808594 22.027344 63.808594 22.800781 L 63.808594 23.691406 C 63.808594 24.324219 63.996094 24.558594 64.722656 24.558594 L 65.730469 24.558594 C 66.667969 24.558594 66.667969 24.160156 66.667969 23.246094 C 66.667969 22.308594 66.667969 21.910156 65.730469 21.910156 Z M 66.527344 27.441406 C 66.527344 26.832031 66.386719 26.503906 65.589844 26.503906 L 64.863281 26.503906 C 64.183594 26.503906 63.949219 26.714844 63.949219 27.441406 L 63.949219 34.472656 C 63.949219 35.175781 64.160156 35.410156 64.863281 35.410156 L 65.589844 35.410156 C 66.339844 35.410156 66.527344 35.152344 66.527344 34.472656 Z M 66.527344 27.441406 "/>
<path fill-rule="nonzero" fill="rgb(0%, 0%, 0%)" fill-opacity="1" d="M 82.535156 32.667969 C 82.535156 31.589844 81.949219 30.910156 81.597656 30.582031 C 80.824219 29.902344 80.144531 29.785156 79.324219 29.621094 C 78.269531 29.433594 77.496094 29.269531 77.496094 28.519531 C 77.496094 27.722656 78.128906 27.558594 78.878906 27.558594 C 80.191406 27.558594 80.894531 28.050781 81.386719 28.472656 C 81.597656 28.660156 81.621094 28.660156 81.714844 28.660156 C 81.902344 28.660156 81.949219 28.496094 81.949219 28.425781 C 81.996094 28.261719 82.183594 27.183594 82.183594 27.066406 C 82.183594 26.761719 81.152344 26.480469 80.941406 26.410156 C 80.167969 26.199219 79.558594 26.175781 79.042969 26.175781 C 78.175781 26.175781 75.574219 26.175781 75.574219 28.964844 C 75.574219 29.902344 75.996094 30.488281 76.511719 30.957031 C 77.191406 31.589844 77.964844 31.707031 79.066406 31.941406 C 79.628906 32.035156 80.613281 32.199219 80.613281 33.066406 C 80.613281 33.980469 79.863281 34.097656 79.113281 34.097656 C 78.246094 34.097656 77.167969 33.863281 76.253906 32.761719 C 76.160156 32.667969 76.089844 32.621094 75.972656 32.621094 C 75.785156 32.621094 75.738281 32.785156 75.714844 32.902344 C 75.691406 33.183594 75.457031 34.285156 75.457031 34.472656 C 75.457031 34.824219 76.886719 35.269531 76.910156 35.292969 C 77.964844 35.621094 78.761719 35.621094 79.113281 35.621094 C 80.097656 35.621094 82.535156 35.550781 82.535156 32.667969 Z M 82.535156 32.667969 "/>
<path fill-rule="nonzero" fill="rgb(0%, 0%, 0%)" fill-opacity="1" d="M 91.324219 22.472656 C 91.417969 22.402344 91.535156 22.285156 91.535156 22.167969 C 91.535156 21.933594 91.324219 21.933594 90.996094 21.933594 L 89.402344 21.933594 C 89.027344 21.933594 89.003906 21.957031 88.839844 22.167969 L 87.152344 24.441406 C 86.988281 24.652344 86.988281 24.675781 86.988281 24.722656 C 86.988281 24.980469 87.199219 24.980469 87.503906 24.980469 L 88.230469 24.980469 Z M 91.324219 22.472656 "/>
<path fill-rule="nonzero" fill="rgb(0%, 0%, 0%)" fill-opacity="1" d="M 91.40625 31.261719 C 91.851562 31.261719 92.34375 31.238281 92.34375 30.347656 C 92.34375 27.863281 91.171875 26.175781 88.289062 26.175781 C 85.171875 26.175781 83.648438 27.933594 83.648438 30.886719 C 83.648438 34.074219 85.476562 35.621094 88.546875 35.621094 C 89.273438 35.621094 90.375 35.527344 91.664062 34.894531 C 92.085938 34.660156 92.226562 34.613281 92.226562 34.378906 C 92.226562 34.238281 92.179688 33.675781 92.15625 33.535156 C 92.0625 32.925781 92.0625 32.902344 91.875 32.902344 C 91.804688 32.902344 91.757812 32.902344 91.546875 33.089844 C 90.398438 34.097656 89.226562 34.214844 88.617188 34.214844 C 86.414062 34.214844 86.179688 32.503906 86.132812 31.261719 Z M 86.15625 30.230469 C 86.203125 29.035156 86.601562 27.582031 88.289062 27.582031 C 89.835938 27.582031 90.140625 28.707031 90.1875 30.230469 Z M 86.15625 30.230469 "/>
<path fill-rule="nonzero" fill="rgb(0%, 0%, 0%)" fill-opacity="1" d="M 109.78125 27.230469 C 109.78125 26.597656 109.640625 26.292969 108.84375 26.292969 L 108.117188 26.292969 C 107.390625 26.292969 107.179688 26.550781 107.179688 27.230469 L 107.179688 27.605469 C 106.335938 26.292969 105.1875 26.292969 104.859375 26.292969 C 101.109375 26.292969 100.804688 29.433594 100.804688 30.980469 C 100.804688 32.503906 101.109375 35.621094 104.71875 35.621094 C 105.75 35.621094 106.476562 35.246094 107.132812 34.472656 L 107.132812 38.246094 C 107.132812 38.878906 107.273438 39.183594 108.070312 39.183594 L 108.84375 39.183594 C 109.570312 39.183594 109.78125 38.925781 109.78125 38.246094 Z M 107.179688 33.183594 C 106.828125 33.652344 106.3125 34.214844 105.421875 34.214844 C 103.429688 34.214844 103.429688 31.753906 103.429688 31.003906 C 103.429688 30.230469 103.429688 27.816406 105.609375 27.816406 C 105.9375 27.816406 106.335938 27.886719 106.6875 28.261719 C 107.179688 28.753906 107.179688 29.105469 107.179688 29.339844 Z M 107.179688 33.183594 "/>
<path fill-rule="nonzero" fill="rgb(0%, 0%, 0%)" fill-opacity="1" d="M 120.683594 27.441406 C 120.683594 26.832031 120.566406 26.503906 119.769531 26.503906 L 118.996094 26.503906 C 118.246094 26.503906 118.058594 26.761719 118.058594 27.441406 L 118.058594 32.058594 C 118.058594 33.324219 117.378906 34.449219 115.996094 34.449219 C 114.894531 34.449219 114.777344 34.167969 114.777344 33.136719 L 114.777344 27.441406 C 114.777344 26.832031 114.660156 26.503906 113.863281 26.503906 L 113.089844 26.503906 C 112.386719 26.503906 112.152344 26.714844 112.152344 27.441406 L 112.152344 32.972656 C 112.152344 35.035156 113.277344 35.621094 115.292969 35.621094 C 115.808594 35.621094 117.191406 35.621094 118.105469 33.980469 L 118.105469 34.472656 C 118.105469 35.105469 118.246094 35.410156 119.042969 35.410156 L 119.769531 35.410156 C 120.496094 35.410156 120.683594 35.152344 120.683594 34.472656 Z M 120.683594 27.441406 "/>
<path fill-rule="nonzero" fill="rgb(0%, 0%, 0%)" fill-opacity="1" d="M 130.246094 31.261719 C 130.691406 31.261719 131.183594 31.238281 131.183594 30.347656 C 131.183594 27.863281 130.011719 26.175781 127.128906 26.175781 C 124.011719 26.175781 122.488281 27.933594 122.488281 30.886719 C 122.488281 34.074219 124.316406 35.621094 127.386719 35.621094 C 128.113281 35.621094 129.214844 35.527344 130.503906 34.894531 C 130.925781 34.660156 131.066406 34.613281 131.066406 34.378906 C 131.066406 34.238281 131.019531 33.675781 130.996094 33.535156 C 130.902344 32.925781 130.902344 32.902344 130.714844 32.902344 C 130.644531 32.902344 130.597656 32.902344 130.386719 33.089844 C 129.238281 34.097656 128.066406 34.214844 127.457031 34.214844 C 125.253906 34.214844 125.019531 32.503906 124.972656 31.261719 Z M 124.996094 30.230469 C 125.042969 29.035156 125.441406 27.582031 127.128906 27.582031 C 128.675781 27.582031 128.980469 28.707031 129.027344 30.230469 Z M 124.996094 30.230469 "/>
<path fill-rule="nonzero" fill="rgb(0%, 0%, 0%)" fill-opacity="1" d="M 143.183594 33.394531 C 143.183594 32.878906 143.160156 32.855469 142.644531 32.855469 L 141.167969 32.855469 C 140.652344 32.855469 140.628906 32.878906 140.628906 33.394531 L 140.628906 34.894531 C 140.628906 35.386719 140.652344 35.410156 141.167969 35.410156 L 142.644531 35.410156 C 143.160156 35.410156 143.183594 35.386719 143.183594 34.894531 Z M 143.183594 33.394531 "/>
<path fill-rule="nonzero" fill="rgb(0%, 0%, 0%)" fill-opacity="1" d="M 149.117188 33.394531 C 149.117188 32.878906 149.09375 32.855469 148.578125 32.855469 L 147.101562 32.855469 C 146.585938 32.855469 146.5625 32.878906 146.5625 33.394531 L 146.5625 34.894531 C 146.5625 35.386719 146.585938 35.410156 147.101562 35.410156 L 148.578125 35.410156 C 149.09375 35.410156 149.117188 35.386719 149.117188 34.894531 Z M 149.117188 33.394531 "/>
<path fill-rule="nonzero" fill="rgb(0%, 0%, 0%)" fill-opacity="1" d="M 155.054688 33.394531 C 155.054688 32.878906 155.03125 32.855469 154.515625 32.855469 L 153.039062 32.855469 C 152.523438 32.855469 152.5 32.878906 152.5 33.394531 L 152.5 34.894531 C 152.5 35.386719 152.523438 35.410156 153.039062 35.410156 L 154.515625 35.410156 C 155.03125 35.410156 155.054688 35.386719 155.054688 34.894531 Z M 155.054688 33.394531 "/>
<path fill="none" stroke-width="1.99255" stroke-linecap="butt" stroke-linejoin="round" stroke="rgb(19.607843%, 19.607843%, 19.607843%)" stroke-opacity="1" stroke-miterlimit="10" d="M -115.038498 -14.389812 L 115.039627 -14.389812 L 115.039627 14.391438 L -115.038498 14.391438 Z M -115.038498 -14.389812 " transform="matrix(1.5, 0, 0, -1.5, 371.213997, 30.552)"/>
<path fill-rule="nonzero" fill="rgb(0%, 0%, 0%)" fill-opacity="1" d="M 291.105469 29.363281 L 296.214844 29.363281 C 296.824219 29.363281 297.152344 29.222656 297.152344 28.449219 C 297.152344 27.746094 296.894531 27.535156 296.214844 27.535156 L 291.105469 27.535156 L 291.105469 23.949219 L 292.066406 23.949219 C 293.589844 23.949219 295.113281 23.996094 296.636719 23.996094 C 297.316406 23.996094 297.761719 23.996094 297.761719 23.082031 L 297.761719 22.917969 C 297.761719 22.285156 297.621094 21.980469 296.824219 21.980469 L 289.183594 21.980469 C 288.480469 21.980469 288.246094 22.191406 288.246094 22.917969 L 288.246094 34.472656 C 288.246094 35.175781 288.480469 35.410156 289.183594 35.410156 L 297.105469 35.410156 C 297.855469 35.410156 298.042969 35.152344 298.042969 34.472656 L 298.042969 34.214844 C 298.042969 33.277344 297.597656 33.277344 296.964844 33.277344 C 295.957031 33.277344 294.949219 33.300781 293.941406 33.300781 C 293.472656 33.300781 291.457031 33.324219 291.105469 33.347656 Z M 291.105469 29.363281 "/>
<path fill-rule="nonzero" fill="rgb(0%, 0%, 0%)" fill-opacity="1" d="M 308.65625 29.105469 C 308.65625 27.089844 307.8125 26.292969 305.820312 26.292969 C 303.78125 26.292969 302.914062 27.769531 302.65625 28.308594 L 302.65625 27.324219 C 302.65625 26.714844 302.515625 26.386719 301.71875 26.386719 L 301.0625 26.386719 C 300.359375 26.386719 300.125 26.597656 300.125 27.324219 L 300.125 34.472656 C 300.125 35.175781 300.335938 35.410156 301.0625 35.410156 L 301.835938 35.410156 C 302.5625 35.410156 302.75 35.152344 302.75 34.472656 L 302.75 30.183594 C 302.75 28.496094 303.898438 27.699219 304.90625 27.699219 C 305.820312 27.699219 306.03125 28.144531 306.03125 29.128906 L 306.03125 34.472656 C 306.03125 35.105469 306.171875 35.410156 306.96875 35.410156 L 307.742188 35.410156 C 308.46875 35.410156 308.65625 35.152344 308.65625 34.472656 Z M 308.65625 29.105469 "/>
<path fill-rule="nonzero" fill="rgb(0%, 0%, 0%)" fill-opacity="1" d="M 314.097656 27.910156 L 315.832031 27.910156 C 316.042969 27.910156 316.746094 27.910156 316.746094 27.207031 C 316.746094 26.503906 316.042969 26.503906 315.832031 26.503906 L 314.097656 26.503906 L 314.097656 24.910156 C 314.097656 24.277344 313.957031 23.972656 313.160156 23.972656 L 312.550781 23.972656 C 311.847656 23.972656 311.613281 24.183594 311.613281 24.910156 L 311.613281 26.503906 L 311.167969 26.503906 C 310.957031 26.503906 310.253906 26.503906 310.253906 27.207031 C 310.253906 27.910156 310.933594 27.910156 311.167969 27.910156 L 311.566406 27.910156 L 311.566406 32.832031 C 311.566406 34.777344 312.269531 35.621094 313.605469 35.621094 C 313.769531 35.621094 314.636719 35.621094 315.644531 35.316406 C 315.972656 35.222656 317.097656 34.871094 317.097656 34.496094 C 317.097656 34.449219 317.074219 34.308594 316.957031 33.886719 C 316.839844 33.511719 316.816406 33.394531 316.628906 33.394531 C 316.535156 33.394531 316.511719 33.417969 316.394531 33.535156 C 316.183594 33.675781 315.667969 34.097656 314.847656 34.097656 C 314.378906 34.097656 314.097656 33.769531 314.097656 32.503906 Z M 314.097656 27.910156 "/>
<path fill-rule="nonzero" fill="rgb(0%, 0%, 0%)" fill-opacity="1" d="M 327.761719 31.027344 C 327.761719 27.863281 326.214844 26.175781 323.050781 26.175781 C 319.816406 26.175781 318.316406 27.910156 318.316406 31.027344 C 318.316406 34.214844 319.980469 35.621094 323.027344 35.621094 C 326.074219 35.621094 327.761719 34.214844 327.761719 31.027344 Z M 323.050781 34.097656 C 320.941406 34.097656 320.941406 32.363281 320.941406 30.816406 C 320.941406 29.316406 320.941406 27.582031 323.027344 27.582031 C 325.136719 27.582031 325.136719 29.292969 325.136719 30.816406 C 325.136719 32.339844 325.136719 34.097656 323.050781 34.097656 Z M 323.050781 34.097656 "/>
<path fill-rule="nonzero" fill="rgb(0%, 0%, 0%)" fill-opacity="1" d="M 338.097656 29.105469 C 338.097656 27.089844 337.253906 26.292969 335.261719 26.292969 C 333.222656 26.292969 332.355469 27.769531 332.097656 28.308594 L 332.097656 27.324219 C 332.097656 26.714844 331.957031 26.386719 331.160156 26.386719 L 330.503906 26.386719 C 329.800781 26.386719 329.566406 26.597656 329.566406 27.324219 L 329.566406 34.472656 C 329.566406 35.175781 329.777344 35.410156 330.503906 35.410156 L 331.277344 35.410156 C 332.003906 35.410156 332.191406 35.152344 332.191406 34.472656 L 332.191406 30.183594 C 332.191406 28.496094 333.339844 27.699219 334.347656 27.699219 C 335.261719 27.699219 335.472656 28.144531 335.472656 29.128906 L 335.472656 34.472656 C 335.472656 35.105469 335.613281 35.410156 336.410156 35.410156 L 337.183594 35.410156 C 337.910156 35.410156 338.097656 35.152344 338.097656 34.472656 Z M 338.097656 29.105469 "/>
<path fill-rule="nonzero" fill="rgb(0%, 0%, 0%)" fill-opacity="1" d="M 348.175781 34.449219 C 348.175781 34.214844 348.105469 33.324219 348.058594 33.089844 C 348.058594 33.019531 348.011719 32.832031 347.824219 32.832031 C 347.753906 32.832031 347.707031 32.832031 347.519531 33.019531 C 347.191406 33.300781 346.277344 34.097656 344.683594 34.097656 C 342.644531 34.097656 342.644531 32.152344 342.644531 30.910156 C 342.644531 29.339844 342.761719 27.699219 344.730469 27.699219 C 345.996094 27.699219 346.511719 28.003906 347.214844 28.589844 C 347.449219 28.800781 347.496094 28.800781 347.566406 28.800781 C 347.753906 28.800781 347.800781 28.636719 347.824219 28.542969 C 347.871094 28.402344 348.058594 27.300781 348.058594 27.207031 C 348.058594 27.042969 347.917969 26.949219 347.589844 26.808594 C 346.652344 26.386719 346.066406 26.175781 344.707031 26.175781 C 341.824219 26.175781 340.019531 27.535156 340.019531 30.933594 C 340.019531 34.167969 341.683594 35.621094 344.613281 35.621094 C 345.152344 35.621094 346.300781 35.597656 347.613281 34.941406 C 348.152344 34.660156 348.175781 34.636719 348.175781 34.449219 Z M 348.175781 34.449219 "/>
<path fill-rule="nonzero" fill="rgb(0%, 0%, 0%)" fill-opacity="1" d="M 357.160156 31.261719 C 357.605469 31.261719 358.097656 31.238281 358.097656 30.347656 C 358.097656 27.863281 356.925781 26.175781 354.042969 26.175781 C 350.925781 26.175781 349.402344 27.933594 349.402344 30.886719 C 349.402344 34.074219 351.230469 35.621094 354.300781 35.621094 C 355.027344 35.621094 356.128906 35.527344 357.417969 34.894531 C 357.839844 34.660156 357.980469 34.613281 357.980469 34.378906 C 357.980469 34.238281 357.933594 33.675781 357.910156 33.535156 C 357.816406 32.925781 357.816406 32.902344 357.628906 32.902344 C 357.558594 32.902344 357.511719 32.902344 357.300781 33.089844 C 356.152344 34.097656 354.980469 34.214844 354.371094 34.214844 C 352.167969 34.214844 351.933594 32.503906 351.886719 31.261719 Z M 351.910156 30.230469 C 351.957031 29.035156 352.355469 27.582031 354.042969 27.582031 C 355.589844 27.582031 355.894531 28.707031 355.941406 30.230469 Z M 351.910156 30.230469 "/>
<path fill-rule="nonzero" fill="rgb(0%, 0%, 0%)" fill-opacity="1" d="M 366.40625 32.667969 C 366.40625 31.589844 365.820312 30.910156 365.46875 30.582031 C 364.695312 29.902344 364.015625 29.785156 363.195312 29.621094 C 362.140625 29.433594 361.367188 29.269531 361.367188 28.519531 C 361.367188 27.722656 362 27.558594 362.75 27.558594 C 364.0625 27.558594 364.765625 28.050781 365.257812 28.472656 C 365.46875 28.660156 365.492188 28.660156 365.585938 28.660156 C 365.773438 28.660156 365.820312 28.496094 365.820312 28.425781 C 365.867188 28.261719 366.054688 27.183594 366.054688 27.066406 C 366.054688 26.761719 365.023438 26.480469 364.8125 26.410156 C 364.039062 26.199219 363.429688 26.175781 362.914062 26.175781 C 362.046875 26.175781 359.445312 26.175781 359.445312 28.964844 C 359.445312 29.902344 359.867188 30.488281 360.382812 30.957031 C 361.0625 31.589844 361.835938 31.707031 362.9375 31.941406 C 363.5 32.035156 364.484375 32.199219 364.484375 33.066406 C 364.484375 33.980469 363.734375 34.097656 362.984375 34.097656 C 362.117188 34.097656 361.039062 33.863281 360.125 32.761719 C 360.03125 32.667969 359.960938 32.621094 359.84375 32.621094 C 359.65625 32.621094 359.609375 32.785156 359.585938 32.902344 C 359.5625 33.183594 359.328125 34.285156 359.328125 34.472656 C 359.328125 34.824219 360.757812 35.269531 360.78125 35.292969 C 361.835938 35.621094 362.632812 35.621094 362.984375 35.621094 C 363.96875 35.621094 366.40625 35.550781 366.40625 32.667969 Z M 366.40625 32.667969 "/>
<path fill-rule="nonzero" fill="rgb(0%, 0%, 0%)" fill-opacity="1" d="M 381.730469 32.667969 C 381.730469 31.589844 381.144531 30.910156 380.792969 30.582031 C 380.019531 29.902344 379.339844 29.785156 378.519531 29.621094 C 377.464844 29.433594 376.691406 29.269531 376.691406 28.519531 C 376.691406 27.722656 377.324219 27.558594 378.074219 27.558594 C 379.386719 27.558594 380.089844 28.050781 380.582031 28.472656 C 380.792969 28.660156 380.816406 28.660156 380.910156 28.660156 C 381.097656 28.660156 381.144531 28.496094 381.144531 28.425781 C 381.191406 28.261719 381.378906 27.183594 381.378906 27.066406 C 381.378906 26.761719 380.347656 26.480469 380.136719 26.410156 C 379.363281 26.199219 378.753906 26.175781 378.238281 26.175781 C 377.371094 26.175781 374.769531 26.175781 374.769531 28.964844 C 374.769531 29.902344 375.191406 30.488281 375.707031 30.957031 C 376.386719 31.589844 377.160156 31.707031 378.261719 31.941406 C 378.824219 32.035156 379.808594 32.199219 379.808594 33.066406 C 379.808594 33.980469 379.058594 34.097656 378.308594 34.097656 C 377.441406 34.097656 376.363281 33.863281 375.449219 32.761719 C 375.355469 32.667969 375.285156 32.621094 375.167969 32.621094 C 374.980469 32.621094 374.933594 32.785156 374.910156 32.902344 C 374.886719 33.183594 374.652344 34.285156 374.652344 34.472656 C 374.652344 34.824219 376.082031 35.269531 376.105469 35.292969 C 377.160156 35.621094 377.957031 35.621094 378.308594 35.621094 C 379.292969 35.621094 381.730469 35.550781 381.730469 32.667969 Z M 381.730469 32.667969 "/>
<path fill-rule="nonzero" fill="rgb(0%, 0%, 0%)" fill-opacity="1" d="M 390.519531 22.472656 C 390.613281 22.402344 390.730469 22.285156 390.730469 22.167969 C 390.730469 21.933594 390.519531 21.933594 390.191406 21.933594 L 388.597656 21.933594 C 388.222656 21.933594 388.199219 21.957031 388.035156 22.167969 L 386.347656 24.441406 C 386.183594 24.652344 386.183594 24.675781 386.183594 24.722656 C 386.183594 24.980469 386.394531 24.980469 386.699219 24.980469 L 387.425781 24.980469 Z M 390.519531 22.472656 "/>
<path fill-rule="nonzero" fill="rgb(0%, 0%, 0%)" fill-opacity="1" d="M 390.601562 31.261719 C 391.046875 31.261719 391.539062 31.238281 391.539062 30.347656 C 391.539062 27.863281 390.367188 26.175781 387.484375 26.175781 C 384.367188 26.175781 382.84375 27.933594 382.84375 30.886719 C 382.84375 34.074219 384.671875 35.621094 387.742188 35.621094 C 388.46875 35.621094 389.570312 35.527344 390.859375 34.894531 C 391.28125 34.660156 391.421875 34.613281 391.421875 34.378906 C 391.421875 34.238281 391.375 33.675781 391.351562 33.535156 C 391.257812 32.925781 391.257812 32.902344 391.070312 32.902344 C 391 32.902344 390.953125 32.902344 390.742188 33.089844 C 389.59375 34.097656 388.421875 34.214844 387.8125 34.214844 C 385.609375 34.214844 385.375 32.503906 385.328125 31.261719 Z M 385.351562 30.230469 C 385.398438 29.035156 385.796875 27.582031 387.484375 27.582031 C 389.03125 27.582031 389.335938 28.707031 389.382812 30.230469 Z M 385.351562 30.230469 "/>
<path fill-rule="nonzero" fill="rgb(0%, 0%, 0%)" fill-opacity="1" d="M 408.976562 27.230469 C 408.976562 26.597656 408.835938 26.292969 408.039062 26.292969 L 407.3125 26.292969 C 406.585938 26.292969 406.375 26.550781 406.375 27.230469 L 406.375 27.605469 C 405.53125 26.292969 404.382812 26.292969 404.054688 26.292969 C 400.304688 26.292969 400 29.433594 400 30.980469 C 400 32.503906 400.304688 35.621094 403.914062 35.621094 C 404.945312 35.621094 405.671875 35.246094 406.328125 34.472656 L 406.328125 38.246094 C 406.328125 38.878906 406.46875 39.183594 407.265625 39.183594 L 408.039062 39.183594 C 408.765625 39.183594 408.976562 38.925781 408.976562 38.246094 Z M 406.375 33.183594 C 406.023438 33.652344 405.507812 34.214844 404.617188 34.214844 C 402.625 34.214844 402.625 31.753906 402.625 31.003906 C 402.625 30.230469 402.625 27.816406 404.804688 27.816406 C 405.132812 27.816406 405.53125 27.886719 405.882812 28.261719 C 406.375 28.753906 406.375 29.105469 406.375 29.339844 Z M 406.375 33.183594 "/>
<path fill-rule="nonzero" fill="rgb(0%, 0%, 0%)" fill-opacity="1" d="M 419.878906 27.441406 C 419.878906 26.832031 419.761719 26.503906 418.964844 26.503906 L 418.191406 26.503906 C 417.441406 26.503906 417.253906 26.761719 417.253906 27.441406 L 417.253906 32.058594 C 417.253906 33.324219 416.574219 34.449219 415.191406 34.449219 C 414.089844 34.449219 413.972656 34.167969 413.972656 33.136719 L 413.972656 27.441406 C 413.972656 26.832031 413.855469 26.503906 413.058594 26.503906 L 412.285156 26.503906 C 411.582031 26.503906 411.347656 26.714844 411.347656 27.441406 L 411.347656 32.972656 C 411.347656 35.035156 412.472656 35.621094 414.488281 35.621094 C 415.003906 35.621094 416.386719 35.621094 417.300781 33.980469 L 417.300781 34.472656 C 417.300781 35.105469 417.441406 35.410156 418.238281 35.410156 L 418.964844 35.410156 C 419.691406 35.410156 419.878906 35.152344 419.878906 34.472656 Z M 419.878906 27.441406 "/>
<path fill-rule="nonzero" fill="rgb(0%, 0%, 0%)" fill-opacity="1" d="M 429.441406 31.261719 C 429.886719 31.261719 430.378906 31.238281 430.378906 30.347656 C 430.378906 27.863281 429.207031 26.175781 426.324219 26.175781 C 423.207031 26.175781 421.683594 27.933594 421.683594 30.886719 C 421.683594 34.074219 423.511719 35.621094 426.582031 35.621094 C 427.308594 35.621094 428.410156 35.527344 429.699219 34.894531 C 430.121094 34.660156 430.261719 34.613281 430.261719 34.378906 C 430.261719 34.238281 430.214844 33.675781 430.191406 33.535156 C 430.097656 32.925781 430.097656 32.902344 429.910156 32.902344 C 429.839844 32.902344 429.792969 32.902344 429.582031 33.089844 C 428.433594 34.097656 427.261719 34.214844 426.652344 34.214844 C 424.449219 34.214844 424.214844 32.503906 424.167969 31.261719 Z M 424.191406 30.230469 C 424.238281 29.035156 424.636719 27.582031 426.324219 27.582031 C 427.871094 27.582031 428.175781 28.707031 428.222656 30.230469 Z M 424.191406 30.230469 "/>
<path fill-rule="nonzero" fill="rgb(0%, 0%, 0%)" fill-opacity="1" d="M 442.378906 33.394531 C 442.378906 32.878906 442.355469 32.855469 441.839844 32.855469 L 440.363281 32.855469 C 439.847656 32.855469 439.824219 32.878906 439.824219 33.394531 L 439.824219 34.894531 C 439.824219 35.386719 439.847656 35.410156 440.363281 35.410156 L 441.839844 35.410156 C 442.355469 35.410156 442.378906 35.386719 442.378906 34.894531 Z M 442.378906 33.394531 "/>
<path fill-rule="nonzero" fill="rgb(0%, 0%, 0%)" fill-opacity="1" d="M 448.3125 33.394531 C 448.3125 32.878906 448.289062 32.855469 447.773438 32.855469 L 446.296875 32.855469 C 445.78125 32.855469 445.757812 32.878906 445.757812 33.394531 L 445.757812 34.894531 C 445.757812 35.386719 445.78125 35.410156 446.296875 35.410156 L 447.773438 35.410156 C 448.289062 35.410156 448.3125 35.386719 448.3125 34.894531 Z M 448.3125 33.394531 "/>
<path fill-rule="nonzero" fill="rgb(0%, 0%, 0%)" fill-opacity="1" d="M 454.25 33.394531 C 454.25 32.878906 454.226562 32.855469 453.710938 32.855469 L 452.234375 32.855469 C 451.71875 32.855469 451.695312 32.878906 451.695312 33.394531 L 451.695312 34.894531 C 451.695312 35.386719 451.71875 35.410156 452.234375 35.410156 L 453.710938 35.410156 C 454.226562 35.410156 454.25 35.386719 454.25 34.894531 Z M 454.25 33.394531 "/>
<path fill="none" stroke-width="0.99628" stroke-linecap="butt" stroke-linejoin="round" stroke="rgb(19.607843%, 19.607843%, 19.607843%)" stroke-opacity="1" stroke-miterlimit="10" d="M -63.232437 -14.392063 L 63.231105 -14.392063 L 63.231105 14.389187 L -63.232437 14.389187 Z M -63.232437 -14.392063 " transform="matrix(1.5, 0, 0, -1.5, 103.813499, 74.470499)"/>
<path fill-rule="nonzero" fill="rgb(0%, 0%, 0%)" fill-opacity="1" d="M 111.722656 74.054688 L 111.722656 72.882812 L 92.714844 72.882812 L 92.714844 74.054688 Z M 111.722656 74.054688 "/>
<path fill-rule="nonzero" fill="rgb(0%, 0%, 0%)" fill-opacity="1" d="M 121.230469 74.054688 L 121.230469 72.882812 L 111.738281 72.882812 L 111.738281 74.054688 Z M 121.230469 74.054688 "/>
<path fill="none" stroke-width="0.99628" stroke-linecap="butt" stroke-linejoin="round" stroke="rgb(19.607843%, 19.607843%, 19.607843%)" stroke-opacity="1" stroke-miterlimit="10" d="M -115.038498 -14.392063 L 115.039627 -14.392063 L 115.039627 14.389187 L -115.038498 14.389187 Z M -115.038498 -14.392063 " transform="matrix(1.5, 0, 0, -1.5, 371.213997, 74.470499)"/>
<path fill-rule="nonzero" fill="rgb(0%, 0%, 0%)" fill-opacity="1" d="M 375.957031 74.054688 L 375.957031 72.882812 L 356.949219 72.882812 L 356.949219 74.054688 Z M 375.957031 74.054688 "/>
<path fill-rule="nonzero" fill="rgb(0%, 0%, 0%)" fill-opacity="1" d="M 385.460938 74.054688 L 385.460938 72.882812 L 375.96875 72.882812 L 375.96875 74.054688 Z M 385.460938 74.054688 "/>
</svg>
