<?xml version="1.0" encoding="UTF-8"?>
<svg xmlns="http://www.w3.org/2000/svg" xmlns:xlink="http://www.w3.org/1999/xlink" width="734.665733" height="247.409748" viewBox="0 0 734.665733 247.409748">
<path fill="none" stroke-width="1.99255" stroke-linecap="butt" stroke-linejoin="round" stroke="rgb(19.607843%, 19.607843%, 19.607843%)" stroke-opacity="1" stroke-miterlimit="10" d="M -65.847159 -18.808678 L 65.847037 -18.808678 L 65.847037 18.805161 L -65.847159 18.805161 Z M -65.847159 -18.808678 " transform="matrix(1.75, 0, 0, -1.75, 120.462997, 38.139501)"/>
<path fill-rule="nonzero" fill="rgb(0%, 0%, 0%)" fill-opacity="1" d="M 63.097656 40.3125 C 63.097656 40.96875 62.851562 41.460938 62.359375 41.816406 C 61.839844 42.171875 61.183594 42.335938 60.335938 42.335938 C 57.984375 42.335938 56.835938 41.378906 56.835938 39.410156 L 53.171875 39.410156 C 53.171875 40.558594 53.445312 41.570312 54.046875 42.445312 C 54.621094 43.320312 55.46875 44.003906 56.589844 44.496094 C 57.710938 44.988281 58.96875 45.234375 60.335938 45.234375 C 62.277344 45.234375 63.835938 44.824219 65.011719 43.921875 C 66.160156 43.046875 66.761719 41.84375 66.761719 40.3125 C 66.761719 38.890625 66.296875 37.769531 65.339844 36.867188 C 64.382812 35.964844 62.878906 35.199219 60.800781 34.542969 C 59.652344 34.1875 58.804688 33.832031 58.230469 33.449219 C 57.628906 33.066406 57.355469 32.601562 57.355469 32 C 57.355469 31.371094 57.574219 30.878906 58.09375 30.496094 C 58.585938 30.113281 59.269531 29.921875 60.171875 29.921875 C 61.101562 29.921875 61.8125 30.140625 62.359375 30.605469 C 62.851562 31.042969 63.125 31.699219 63.125 32.492188 L 66.761719 32.492188 C 66.761719 31.453125 66.488281 30.496094 65.941406 29.648438 C 65.394531 28.800781 64.628906 28.144531 63.617188 27.707031 C 62.632812 27.269531 61.511719 26.996094 60.253906 26.996094 C 58.996094 26.996094 57.847656 27.242188 56.835938 27.652344 C 55.851562 28.089844 55.058594 28.664062 54.511719 29.402344 C 53.964844 30.140625 53.71875 31.015625 53.71875 31.972656 C 53.71875 33.804688 54.730469 35.28125 56.726562 36.347656 C 57.464844 36.757812 58.449219 37.195312 59.734375 37.578125 C 60.992188 38.015625 61.867188 38.398438 62.386719 38.753906 C 62.851562 39.109375 63.097656 39.628906 63.097656 40.3125 Z M 63.097656 40.3125 "/>
<path fill-rule="nonzero" fill="rgb(0%, 0%, 0%)" fill-opacity="1" d="M 72.691406 44.988281 L 72.691406 31.808594 L 69.191406 31.808594 L 69.191406 44.988281 Z M 68.945312 28.417969 C 68.945312 28.964844 69.136719 29.375 69.492188 29.730469 C 69.847656 30.085938 70.3125 30.222656 70.914062 30.222656 C 71.515625 30.222656 72.007812 30.085938 72.335938 29.730469 C 72.691406 29.375 72.882812 28.964844 72.882812 28.417969 C 72.882812 27.871094 72.691406 27.460938 72.335938 27.105469 C 72.007812 26.75 71.515625 26.585938 70.914062 26.585938 C 70.3125 26.585938 69.820312 26.75 69.464844 27.105469 C 69.136719 27.460938 68.945312 27.871094 68.945312 28.417969 Z M 68.945312 28.417969 "/>
<path fill-rule="nonzero" fill="rgb(0%, 0%, 0%)" fill-opacity="1" d="M 91.019531 41.351562 C 91.019531 41.761719 90.855469 42.117188 90.5 42.363281 C 90.144531 42.609375 89.652344 42.746094 88.96875 42.746094 C 88.257812 42.746094 87.683594 42.582031 87.246094 42.253906 C 86.808594 41.925781 86.589844 41.433594 86.5625 40.804688 L 83.226562 40.804688 C 83.226562 41.597656 83.445312 42.335938 83.9375 43.019531 C 84.429688 43.703125 85.113281 44.25 85.960938 44.632812 C 86.808594 45.042969 87.792969 45.234375 88.914062 45.234375 C 90.554688 45.234375 91.867188 44.851562 92.90625 44.113281 C 93.945312 43.375 94.464844 42.390625 94.464844 41.1875 C 94.464844 39.519531 93.507812 38.34375 91.675781 37.660156 C 91.074219 37.46875 90.335938 37.25 89.460938 37.085938 C 88.558594 36.921875 87.929688 36.703125 87.574219 36.457031 C 87.21875 36.210938 87.027344 35.910156 87.027344 35.5 C 87.027344 35.117188 87.191406 34.761719 87.492188 34.488281 C 87.792969 34.214844 88.285156 34.078125 88.886719 34.078125 C 89.570312 34.078125 90.0625 34.242188 90.390625 34.570312 C 90.71875 34.925781 90.910156 35.308594 90.910156 35.800781 L 94.410156 35.800781 C 94.410156 34.570312 93.917969 33.558594 92.90625 32.765625 C 91.921875 31.972656 90.582031 31.5625 88.914062 31.5625 C 87.328125 31.5625 86.070312 31.972656 85.085938 32.738281 C 84.101562 33.53125 83.636719 34.515625 83.636719 35.664062 C 83.636719 37.6875 85.195312 39.027344 88.339844 39.683594 C 89.269531 39.875 89.953125 40.066406 90.363281 40.3125 C 90.800781 40.585938 91.019531 40.914062 91.019531 41.351562 Z M 91.019531 41.351562 "/>
<path fill-rule="nonzero" fill="rgb(0%, 0%, 0%)" fill-opacity="1" d="M 101.605469 26.074219 L 99.199219 29.847656 L 102.070312 29.847656 L 105.433594 26.074219 Z M 101.605469 26.074219 "/>
<path fill-rule="nonzero" fill="rgb(0%, 0%, 0%)" fill-opacity="1" d="M 102.773438 45.234375 C 103.867188 45.234375 104.851562 45.042969 105.753906 44.605469 C 106.65625 44.222656 107.367188 43.621094 107.914062 42.855469 L 106.191406 40.914062 C 105.425781 41.925781 104.359375 42.390625 103.019531 42.390625 C 102.117188 42.390625 101.40625 42.144531 100.832031 41.625 C 100.257812 41.132812 99.902344 40.421875 99.792969 39.546875 L 108.214844 39.546875 L 108.214844 38.097656 C 108.214844 36.046875 107.695312 34.433594 106.628906 33.285156 C 105.589844 32.136719 104.195312 31.5625 102.390625 31.5625 C 101.160156 31.5625 100.09375 31.863281 99.191406 32.410156 C 98.234375 32.984375 97.496094 33.804688 97.003906 34.84375 C 96.484375 35.882812 96.238281 37.058594 96.238281 38.371094 L 96.238281 38.726562 C 96.238281 40.695312 96.839844 42.28125 98.042969 43.457031 C 99.246094 44.660156 100.832031 45.234375 102.773438 45.234375 Z M 102.363281 34.40625 C 103.128906 34.40625 103.703125 34.652344 104.085938 35.0625 C 104.496094 35.5 104.714844 36.074219 104.742188 36.867188 L 104.742188 37.167969 L 99.847656 37.167969 C 99.957031 36.292969 100.230469 35.609375 100.667969 35.144531 C 101.105469 34.652344 101.679688 34.40625 102.363281 34.40625 Z M 102.363281 34.40625 "/>
<path fill-rule="nonzero" fill="rgb(0%, 0%, 0%)" fill-opacity="1" d="M 117.921875 38.289062 C 117.921875 40.476562 118.386719 42.199219 119.316406 43.429688 C 120.273438 44.632812 121.53125 45.234375 123.089844 45.234375 C 124.375 45.234375 125.46875 44.796875 126.289062 43.867188 L 126.289062 50.046875 L 129.789062 50.046875 L 129.789062 31.808594 L 126.699219 31.808594 L 126.480469 33.203125 C 125.632812 32.109375 124.511719 31.5625 123.117188 31.5625 C 121.503906 31.5625 120.21875 32.164062 119.289062 33.367188 C 118.386719 34.570312 117.921875 36.210938 117.921875 38.289062 Z M 121.449219 38.535156 C 121.449219 37.113281 121.667969 36.074219 122.105469 35.417969 C 122.570312 34.761719 123.199219 34.40625 124.019531 34.40625 C 125.085938 34.40625 125.824219 34.84375 126.289062 35.664062 L 126.289062 41.105469 C 125.824219 41.980469 125.058594 42.390625 123.992188 42.390625 C 123.199219 42.390625 122.570312 42.0625 122.105469 41.433594 C 121.667969 40.777344 121.449219 39.792969 121.449219 38.535156 Z M 121.449219 38.535156 "/>
<path fill-rule="nonzero" fill="rgb(0%, 0%, 0%)" fill-opacity="1" d="M 140.433594 43.648438 L 140.542969 44.988281 L 143.824219 44.988281 L 143.824219 31.808594 L 140.324219 31.808594 L 140.324219 41.160156 C 139.859375 42.007812 139.039062 42.390625 137.863281 42.390625 C 136.605469 42.390625 135.976562 41.734375 135.976562 40.3125 L 135.976562 31.808594 L 132.476562 31.808594 L 132.476562 40.449219 C 132.476562 42.007812 132.832031 43.210938 133.597656 44.003906 C 134.335938 44.851562 135.402344 45.234375 136.824219 45.234375 C 138.382812 45.234375 139.558594 44.6875 140.433594 43.648438 Z M 140.433594 43.648438 "/>
<path fill-rule="nonzero" fill="rgb(0%, 0%, 0%)" fill-opacity="1" d="M 152.539062 45.234375 C 153.632812 45.234375 154.617188 45.042969 155.519531 44.605469 C 156.421875 44.222656 157.132812 43.621094 157.679688 42.855469 L 155.957031 40.914062 C 155.191406 41.925781 154.125 42.390625 152.785156 42.390625 C 151.882812 42.390625 151.171875 42.144531 150.597656 41.625 C 150.023438 41.132812 149.667969 40.421875 149.558594 39.546875 L 157.980469 39.546875 L 157.980469 38.097656 C 157.980469 36.046875 157.460938 34.433594 156.394531 33.285156 C 155.355469 32.136719 153.960938 31.5625 152.15625 31.5625 C 150.925781 31.5625 149.859375 31.863281 148.957031 32.410156 C 148 32.984375 147.261719 33.804688 146.769531 34.84375 C 146.25 35.882812 146.003906 37.058594 146.003906 38.371094 L 146.003906 38.726562 C 146.003906 40.695312 146.605469 42.28125 147.808594 43.457031 C 149.011719 44.660156 150.597656 45.234375 152.539062 45.234375 Z M 152.128906 34.40625 C 152.894531 34.40625 153.46875 34.652344 153.851562 35.0625 C 154.261719 35.5 154.480469 36.074219 154.507812 36.867188 L 154.507812 37.167969 L 149.613281 37.167969 C 149.722656 36.292969 149.996094 35.609375 150.433594 35.144531 C 150.871094 34.652344 151.445312 34.40625 152.128906 34.40625 Z M 152.128906 34.40625 "/>
<path fill-rule="nonzero" fill="rgb(0%, 0%, 0%)" fill-opacity="1" d="M 168.476562 43.265625 C 168.476562 43.8125 168.640625 44.277344 169.023438 44.605469 C 169.351562 44.960938 169.84375 45.125 170.445312 45.125 C 171.019531 45.125 171.484375 44.960938 171.867188 44.605469 C 172.222656 44.277344 172.441406 43.8125 172.441406 43.265625 C 172.441406 42.71875 172.222656 42.253906 171.867188 41.898438 C 171.484375 41.542969 171.019531 41.378906 170.445312 41.378906 C 169.871094 41.378906 169.378906 41.542969 169.023438 41.898438 C 168.640625 42.253906 168.476562 42.71875 168.476562 43.265625 Z M 168.476562 43.265625 "/>
<path fill-rule="nonzero" fill="rgb(0%, 0%, 0%)" fill-opacity="1" d="M 175.707031 43.265625 C 175.707031 43.8125 175.871094 44.277344 176.253906 44.605469 C 176.582031 44.960938 177.074219 45.125 177.675781 45.125 C 178.25 45.125 178.714844 44.960938 179.097656 44.605469 C 179.453125 44.277344 179.671875 43.8125 179.671875 43.265625 C 179.671875 42.71875 179.453125 42.253906 179.097656 41.898438 C 178.714844 41.542969 178.25 41.378906 177.675781 41.378906 C 177.101562 41.378906 176.609375 41.542969 176.253906 41.898438 C 175.871094 42.253906 175.707031 42.71875 175.707031 43.265625 Z M 175.707031 43.265625 "/>
<path fill-rule="nonzero" fill="rgb(0%, 0%, 0%)" fill-opacity="1" d="M 182.9375 43.265625 C 182.9375 43.8125 183.101562 44.277344 183.484375 44.605469 C 183.8125 44.960938 184.304688 45.125 184.90625 45.125 C 185.480469 45.125 185.945312 44.960938 186.328125 44.605469 C 186.683594 44.277344 186.902344 43.8125 186.902344 43.265625 C 186.902344 42.71875 186.683594 42.253906 186.328125 41.898438 C 185.945312 41.542969 185.480469 41.378906 184.90625 41.378906 C 184.332031 41.378906 183.839844 41.542969 183.484375 41.898438 C 183.101562 42.253906 182.9375 42.71875 182.9375 43.265625 Z M 182.9375 43.265625 "/>
<path fill="none" stroke-width="1.99255" stroke-linecap="butt" stroke-linejoin="round" stroke="rgb(19.607843%, 19.607843%, 19.607843%)" stroke-opacity="1" stroke-miterlimit="10" d="M -141.070204 -18.808678 L 141.070421 -18.808678 L 141.070421 18.805161 L -141.070204 18.805161 Z M -141.070204 -18.808678 " transform="matrix(1.75, 0, 0, -1.75, 482.564262, 38.139501)"/>
<path fill-rule="nonzero" fill="rgb(0%, 0%, 0%)" fill-opacity="1" d="M 385.976562 37.304688 L 385.976562 34.433594 L 378.976562 34.433594 L 378.976562 30.222656 L 387.179688 30.222656 L 387.179688 27.269531 L 375.285156 27.269531 L 375.285156 44.988281 L 387.179688 44.988281 L 387.179688 42.035156 L 378.976562 42.035156 L 378.976562 37.304688 Z M 385.976562 37.304688 "/>
<path fill-rule="nonzero" fill="rgb(0%, 0%, 0%)" fill-opacity="1" d="M 392.332031 31.808594 L 389.023438 31.808594 L 389.023438 44.988281 L 392.523438 44.988281 L 392.523438 35.691406 C 393.015625 34.871094 393.78125 34.433594 394.765625 34.433594 C 395.53125 34.433594 396.050781 34.625 396.378906 34.925781 C 396.679688 35.28125 396.871094 35.800781 396.871094 36.566406 L 396.871094 44.988281 L 400.371094 44.988281 L 400.371094 36.484375 C 400.34375 34.871094 400.015625 33.640625 399.332031 32.820312 C 398.648438 32 397.609375 31.5625 396.214844 31.5625 C 394.628906 31.5625 393.371094 32.164062 392.414062 33.339844 Z M 392.332031 31.808594 "/>
<path fill-rule="nonzero" fill="rgb(0%, 0%, 0%)" fill-opacity="1" d="M 407.253906 28.582031 L 403.753906 28.582031 L 403.753906 31.808594 L 401.839844 31.808594 L 401.839844 34.378906 L 403.753906 34.378906 L 403.753906 41.488281 C 403.808594 44.003906 405.039062 45.234375 407.5 45.234375 C 408.238281 45.234375 408.949219 45.125 409.660156 44.90625 L 409.660156 42.253906 C 409.332031 42.308594 408.976562 42.335938 408.621094 42.335938 C 408.074219 42.335938 407.746094 42.253906 407.527344 42.007812 C 407.335938 41.816406 407.253906 41.460938 407.253906 40.96875 L 407.253906 34.378906 L 409.496094 34.378906 L 409.496094 31.808594 L 407.253906 31.808594 Z M 407.253906 28.582031 "/>
<path fill-rule="nonzero" fill="rgb(0%, 0%, 0%)" fill-opacity="1" d="M 410.523438 38.289062 L 410.523438 38.425781 C 410.523438 40.53125 411.070312 42.199219 412.21875 43.429688 C 413.339844 44.632812 414.871094 45.234375 416.757812 45.234375 C 418.644531 45.234375 420.175781 44.632812 421.324219 43.429688 C 422.445312 42.199219 423.019531 40.585938 423.019531 38.535156 L 422.992188 37.632812 C 422.855469 35.773438 422.226562 34.324219 421.105469 33.230469 C 419.984375 32.109375 418.535156 31.5625 416.757812 31.5625 C 415.527344 31.5625 414.40625 31.863281 413.476562 32.410156 C 412.519531 32.957031 411.78125 33.777344 411.289062 34.789062 C 410.769531 35.800781 410.523438 36.976562 410.523438 38.289062 Z M 414.050781 38.535156 C 414.050781 37.140625 414.269531 36.101562 414.734375 35.445312 C 415.226562 34.761719 415.882812 34.40625 416.757812 34.40625 C 417.605469 34.40625 418.289062 34.761719 418.78125 35.445312 C 419.246094 36.101562 419.519531 37.058594 419.519531 38.289062 C 419.519531 39.738281 419.246094 40.777344 418.78125 41.433594 C 418.289062 42.0625 417.632812 42.390625 416.785156 42.390625 C 415.882812 42.390625 415.226562 42.0625 414.734375 41.40625 C 414.269531 40.75 414.050781 39.765625 414.050781 38.535156 Z M 414.050781 38.535156 "/>
<path fill-rule="nonzero" fill="rgb(0%, 0%, 0%)" fill-opacity="1" d="M 428.410156 31.808594 L 425.101562 31.808594 L 425.101562 44.988281 L 428.601562 44.988281 L 428.601562 35.691406 C 429.09375 34.871094 429.859375 34.433594 430.84375 34.433594 C 431.609375 34.433594 432.128906 34.625 432.457031 34.925781 C 432.757812 35.28125 432.949219 35.800781 432.949219 36.566406 L 432.949219 44.988281 L 436.449219 44.988281 L 436.449219 36.484375 C 436.421875 34.871094 436.09375 33.640625 435.410156 32.820312 C 434.726562 32 433.6875 31.5625 432.292969 31.5625 C 430.707031 31.5625 429.449219 32.164062 428.492188 33.339844 Z M 428.410156 31.808594 "/>
<path fill-rule="nonzero" fill="rgb(0%, 0%, 0%)" fill-opacity="1" d="M 444.613281 42.390625 C 443.765625 42.390625 443.109375 42.117188 442.726562 41.515625 C 442.289062 40.914062 442.097656 39.957031 442.097656 38.589844 L 442.097656 38.234375 C 442.097656 36.894531 442.289062 35.910156 442.726562 35.308594 C 443.136719 34.707031 443.765625 34.40625 444.585938 34.40625 C 445.242188 34.40625 445.789062 34.652344 446.171875 35.0625 C 446.582031 35.5 446.800781 36.046875 446.828125 36.703125 L 450.109375 36.703125 C 450.109375 35.171875 449.589844 33.941406 448.605469 32.984375 C 447.59375 32.054688 446.28125 31.5625 444.640625 31.5625 C 442.726562 31.5625 441.277344 32.191406 440.183594 33.394531 C 439.089844 34.597656 438.570312 36.210938 438.570312 38.234375 L 438.570312 38.480469 C 438.570312 40.585938 439.089844 42.253906 440.183594 43.429688 C 441.304688 44.632812 442.753906 45.234375 444.667969 45.234375 C 445.652344 45.234375 446.582031 45.042969 447.429688 44.605469 C 448.25 44.222656 448.90625 43.648438 449.398438 42.882812 C 449.863281 42.144531 450.109375 41.324219 450.109375 40.421875 L 446.828125 40.421875 C 446.800781 41.023438 446.582031 41.515625 446.171875 41.871094 C 445.789062 42.226562 445.269531 42.390625 444.613281 42.390625 Z M 444.613281 42.390625 "/>
<path fill-rule="nonzero" fill="rgb(0%, 0%, 0%)" fill-opacity="1" d="M 458.175781 45.234375 C 459.269531 45.234375 460.253906 45.042969 461.15625 44.605469 C 462.058594 44.222656 462.769531 43.621094 463.316406 42.855469 L 461.59375 40.914062 C 460.828125 41.925781 459.761719 42.390625 458.421875 42.390625 C 457.519531 42.390625 456.808594 42.144531 456.234375 41.625 C 455.660156 41.132812 455.304688 40.421875 455.195312 39.546875 L 463.617188 39.546875 L 463.617188 38.097656 C 463.617188 36.046875 463.097656 34.433594 462.03125 33.285156 C 460.992188 32.136719 459.597656 31.5625 457.792969 31.5625 C 456.5625 31.5625 455.496094 31.863281 454.59375 32.410156 C 453.636719 32.984375 452.898438 33.804688 452.40625 34.84375 C 451.886719 35.882812 451.640625 37.058594 451.640625 38.371094 L 451.640625 38.726562 C 451.640625 40.695312 452.242188 42.28125 453.445312 43.457031 C 454.648438 44.660156 456.234375 45.234375 458.175781 45.234375 Z M 457.765625 34.40625 C 458.53125 34.40625 459.105469 34.652344 459.488281 35.0625 C 459.898438 35.5 460.117188 36.074219 460.144531 36.867188 L 460.144531 37.167969 L 455.25 37.167969 C 455.359375 36.292969 455.632812 35.609375 456.070312 35.144531 C 456.507812 34.652344 457.082031 34.40625 457.765625 34.40625 Z M 457.765625 34.40625 "/>
<path fill-rule="nonzero" fill="rgb(0%, 0%, 0%)" fill-opacity="1" d="M 472.707031 41.351562 C 472.707031 41.761719 472.542969 42.117188 472.1875 42.363281 C 471.832031 42.609375 471.339844 42.746094 470.65625 42.746094 C 469.945312 42.746094 469.371094 42.582031 468.933594 42.253906 C 468.496094 41.925781 468.277344 41.433594 468.25 40.804688 L 464.914062 40.804688 C 464.914062 41.597656 465.132812 42.335938 465.625 43.019531 C 466.117188 43.703125 466.800781 44.25 467.648438 44.632812 C 468.496094 45.042969 469.480469 45.234375 470.601562 45.234375 C 472.242188 45.234375 473.554688 44.851562 474.59375 44.113281 C 475.632812 43.375 476.152344 42.390625 476.152344 41.1875 C 476.152344 39.519531 475.195312 38.34375 473.363281 37.660156 C 472.761719 37.46875 472.023438 37.25 471.148438 37.085938 C 470.246094 36.921875 469.617188 36.703125 469.261719 36.457031 C 468.90625 36.210938 468.714844 35.910156 468.714844 35.5 C 468.714844 35.117188 468.878906 34.761719 469.179688 34.488281 C 469.480469 34.214844 469.972656 34.078125 470.574219 34.078125 C 471.257812 34.078125 471.75 34.242188 472.078125 34.570312 C 472.40625 34.925781 472.597656 35.308594 472.597656 35.800781 L 476.097656 35.800781 C 476.097656 34.570312 475.605469 33.558594 474.59375 32.765625 C 473.609375 31.972656 472.269531 31.5625 470.601562 31.5625 C 469.015625 31.5625 467.757812 31.972656 466.773438 32.738281 C 465.789062 33.53125 465.324219 34.515625 465.324219 35.664062 C 465.324219 37.6875 466.882812 39.027344 470.027344 39.683594 C 470.957031 39.875 471.640625 40.066406 472.050781 40.3125 C 472.488281 40.585938 472.707031 40.914062 472.707031 41.351562 Z M 472.707031 41.351562 "/>
<path fill-rule="nonzero" fill="rgb(0%, 0%, 0%)" fill-opacity="1" d="M 493.824219 41.351562 C 493.824219 41.761719 493.660156 42.117188 493.304688 42.363281 C 492.949219 42.609375 492.457031 42.746094 491.773438 42.746094 C 491.0625 42.746094 490.488281 42.582031 490.050781 42.253906 C 489.613281 41.925781 489.394531 41.433594 489.367188 40.804688 L 486.03125 40.804688 C 486.03125 41.597656 486.25 42.335938 486.742188 43.019531 C 487.234375 43.703125 487.917969 44.25 488.765625 44.632812 C 489.613281 45.042969 490.597656 45.234375 491.71875 45.234375 C 493.359375 45.234375 494.671875 44.851562 495.710938 44.113281 C 496.75 43.375 497.269531 42.390625 497.269531 41.1875 C 497.269531 39.519531 496.3125 38.34375 494.480469 37.660156 C 493.878906 37.46875 493.140625 37.25 492.265625 37.085938 C 491.363281 36.921875 490.734375 36.703125 490.378906 36.457031 C 490.023438 36.210938 489.832031 35.910156 489.832031 35.5 C 489.832031 35.117188 489.996094 34.761719 490.296875 34.488281 C 490.597656 34.214844 491.089844 34.078125 491.691406 34.078125 C 492.375 34.078125 492.867188 34.242188 493.195312 34.570312 C 493.523438 34.925781 493.714844 35.308594 493.714844 35.800781 L 497.214844 35.800781 C 497.214844 34.570312 496.722656 33.558594 495.710938 32.765625 C 494.726562 31.972656 493.386719 31.5625 491.71875 31.5625 C 490.132812 31.5625 488.875 31.972656 487.890625 32.738281 C 486.90625 33.53125 486.441406 34.515625 486.441406 35.664062 C 486.441406 37.6875 488 39.027344 491.144531 39.683594 C 492.074219 39.875 492.757812 40.066406 493.167969 40.3125 C 493.605469 40.585938 493.824219 40.914062 493.824219 41.351562 Z M 493.824219 41.351562 "/>
<path fill-rule="nonzero" fill="rgb(0%, 0%, 0%)" fill-opacity="1" d="M 504.410156 26.074219 L 502.003906 29.847656 L 504.875 29.847656 L 508.238281 26.074219 Z M 504.410156 26.074219 "/>
<path fill-rule="nonzero" fill="rgb(0%, 0%, 0%)" fill-opacity="1" d="M 505.578125 45.234375 C 506.671875 45.234375 507.65625 45.042969 508.558594 44.605469 C 509.460938 44.222656 510.171875 43.621094 510.71875 42.855469 L 508.996094 40.914062 C 508.230469 41.925781 507.164062 42.390625 505.824219 42.390625 C 504.921875 42.390625 504.210938 42.144531 503.636719 41.625 C 503.0625 41.132812 502.707031 40.421875 502.597656 39.546875 L 511.019531 39.546875 L 511.019531 38.097656 C 511.019531 36.046875 510.5 34.433594 509.433594 33.285156 C 508.394531 32.136719 507 31.5625 505.195312 31.5625 C 503.964844 31.5625 502.898438 31.863281 501.996094 32.410156 C 501.039062 32.984375 500.300781 33.804688 499.808594 34.84375 C 499.289062 35.882812 499.042969 37.058594 499.042969 38.371094 L 499.042969 38.726562 C 499.042969 40.695312 499.644531 42.28125 500.847656 43.457031 C 502.050781 44.660156 503.636719 45.234375 505.578125 45.234375 Z M 505.167969 34.40625 C 505.933594 34.40625 506.507812 34.652344 506.890625 35.0625 C 507.300781 35.5 507.519531 36.074219 507.546875 36.867188 L 507.546875 37.167969 L 502.652344 37.167969 C 502.761719 36.292969 503.035156 35.609375 503.472656 35.144531 C 503.910156 34.652344 504.484375 34.40625 505.167969 34.40625 Z M 505.167969 34.40625 "/>
<path fill-rule="nonzero" fill="rgb(0%, 0%, 0%)" fill-opacity="1" d="M 520.726562 38.289062 C 520.726562 40.476562 521.191406 42.199219 522.121094 43.429688 C 523.078125 44.632812 524.335938 45.234375 525.894531 45.234375 C 527.179688 45.234375 528.273438 44.796875 529.09375 43.867188 L 529.09375 50.046875 L 532.59375 50.046875 L 532.59375 31.808594 L 529.503906 31.808594 L 529.285156 33.203125 C 528.4375 32.109375 527.316406 31.5625 525.921875 31.5625 C 524.308594 31.5625 523.023438 32.164062 522.09375 33.367188 C 521.191406 34.570312 520.726562 36.210938 520.726562 38.289062 Z M 524.253906 38.535156 C 524.253906 37.113281 524.472656 36.074219 524.910156 35.417969 C 525.375 34.761719 526.003906 34.40625 526.824219 34.40625 C 527.890625 34.40625 528.628906 34.84375 529.09375 35.664062 L 529.09375 41.105469 C 528.628906 41.980469 527.863281 42.390625 526.796875 42.390625 C 526.003906 42.390625 525.375 42.0625 524.910156 41.433594 C 524.472656 40.777344 524.253906 39.792969 524.253906 38.535156 Z M 524.253906 38.535156 "/>
<path fill-rule="nonzero" fill="rgb(0%, 0%, 0%)" fill-opacity="1" d="M 543.238281 43.648438 L 543.347656 44.988281 L 546.628906 44.988281 L 546.628906 31.808594 L 543.128906 31.808594 L 543.128906 41.160156 C 542.664062 42.007812 541.84375 42.390625 540.667969 42.390625 C 539.410156 42.390625 538.78125 41.734375 538.78125 40.3125 L 538.78125 31.808594 L 535.28125 31.808594 L 535.28125 40.449219 C 535.28125 42.007812 535.636719 43.210938 536.402344 44.003906 C 537.140625 44.851562 538.207031 45.234375 539.628906 45.234375 C 541.1875 45.234375 542.363281 44.6875 543.238281 43.648438 Z M 543.238281 43.648438 "/>
<path fill-rule="nonzero" fill="rgb(0%, 0%, 0%)" fill-opacity="1" d="M 555.34375 45.234375 C 556.4375 45.234375 557.421875 45.042969 558.324219 44.605469 C 559.226562 44.222656 559.9375 43.621094 560.484375 42.855469 L 558.761719 40.914062 C 557.996094 41.925781 556.929688 42.390625 555.589844 42.390625 C 554.6875 42.390625 553.976562 42.144531 553.402344 41.625 C 552.828125 41.132812 552.472656 40.421875 552.363281 39.546875 L 560.785156 39.546875 L 560.785156 38.097656 C 560.785156 36.046875 560.265625 34.433594 559.199219 33.285156 C 558.160156 32.136719 556.765625 31.5625 554.960938 31.5625 C 553.730469 31.5625 552.664062 31.863281 551.761719 32.410156 C 550.804688 32.984375 550.066406 33.804688 549.574219 34.84375 C 549.054688 35.882812 548.808594 37.058594 548.808594 38.371094 L 548.808594 38.726562 C 548.808594 40.695312 549.410156 42.28125 550.613281 43.457031 C 551.816406 44.660156 553.402344 45.234375 555.34375 45.234375 Z M 554.933594 34.40625 C 555.699219 34.40625 556.273438 34.652344 556.65625 35.0625 C 557.066406 35.5 557.285156 36.074219 557.3125 36.867188 L 557.3125 37.167969 L 552.417969 37.167969 C 552.527344 36.292969 552.800781 35.609375 553.238281 35.144531 C 553.675781 34.652344 554.25 34.40625 554.933594 34.40625 Z M 554.933594 34.40625 "/>
<path fill-rule="nonzero" fill="rgb(0%, 0%, 0%)" fill-opacity="1" d="M 571.28125 43.265625 C 571.28125 43.8125 571.445312 44.277344 571.828125 44.605469 C 572.15625 44.960938 572.648438 45.125 573.25 45.125 C 573.824219 45.125 574.289062 44.960938 574.671875 44.605469 C 575.027344 44.277344 575.246094 43.8125 575.246094 43.265625 C 575.246094 42.71875 575.027344 42.253906 574.671875 41.898438 C 574.289062 41.542969 573.824219 41.378906 573.25 41.378906 C 572.675781 41.378906 572.183594 41.542969 571.828125 41.898438 C 571.445312 42.253906 571.28125 42.71875 571.28125 43.265625 Z M 571.28125 43.265625 "/>
<path fill-rule="nonzero" fill="rgb(0%, 0%, 0%)" fill-opacity="1" d="M 578.511719 43.265625 C 578.511719 43.8125 578.675781 44.277344 579.058594 44.605469 C 579.386719 44.960938 579.878906 45.125 580.480469 45.125 C 581.054688 45.125 581.519531 44.960938 581.902344 44.605469 C 582.257812 44.277344 582.476562 43.8125 582.476562 43.265625 C 582.476562 42.71875 582.257812 42.253906 581.902344 41.898438 C 581.519531 41.542969 581.054688 41.378906 580.480469 41.378906 C 579.90625 41.378906 579.414062 41.542969 579.058594 41.898438 C 578.675781 42.253906 578.511719 42.71875 578.511719 43.265625 Z M 578.511719 43.265625 "/>
<path fill-rule="nonzero" fill="rgb(0%, 0%, 0%)" fill-opacity="1" d="M 585.742188 43.265625 C 585.742188 43.8125 585.90625 44.277344 586.289062 44.605469 C 586.617188 44.960938 587.109375 45.125 587.710938 45.125 C 588.285156 45.125 588.75 44.960938 589.132812 44.605469 C 589.488281 44.277344 589.707031 43.8125 589.707031 43.265625 C 589.707031 42.71875 589.488281 42.253906 589.132812 41.898438 C 588.75 41.542969 588.285156 41.378906 587.710938 41.378906 C 587.136719 41.378906 586.644531 41.542969 586.289062 41.898438 C 585.90625 42.253906 585.742188 42.71875 585.742188 43.265625 Z M 585.742188 43.265625 "/>
<path fill="none" stroke-width="0.99628" stroke-linecap="butt" stroke-linejoin="round" stroke="rgb(19.607843%, 19.607843%, 19.607843%)" stroke-opacity="1" stroke-miterlimit="10" d="M -65.847159 -18.804589 L 65.847037 -18.804589 L 65.847037 18.804786 L -65.847159 18.804786 Z M -65.847159 -18.804589 " transform="matrix(1.75, 0, 0, -1.75, 120.462997, 104.83025)"/>
<path fill-rule="nonzero" fill="rgb(0%, 0%, 0%)" fill-opacity="1" d="M 66.515625 102.765625 L 66.515625 104.597656 L 68.210938 104.597656 C 69.414062 104.625 70.316406 104.925781 70.972656 105.472656 C 71.574219 106.019531 71.902344 106.8125 71.902344 107.824219 C 71.902344 108.890625 71.601562 109.738281 71.027344 110.285156 C 70.425781 110.859375 69.605469 111.132812 68.539062 111.132812 C 67.527344 111.132812 66.707031 110.859375 66.105469 110.285156 C 65.503906 109.738281 65.203125 108.972656 65.203125 108.042969 L 62.933594 108.042969 C 62.933594 109.492188 63.425781 110.695312 64.464844 111.625 C 65.53125 112.527344 66.871094 112.964844 68.539062 112.964844 C 70.207031 112.964844 71.574219 112.527344 72.613281 111.570312 C 73.652344 110.640625 74.171875 109.382812 74.171875 107.769531 C 74.171875 106.757812 73.898438 105.882812 73.378906 105.171875 C 72.832031 104.460938 72.09375 103.941406 71.109375 103.613281 C 71.957031 103.257812 72.667969 102.738281 73.160156 102 C 73.652344 101.261719 73.898438 100.523438 73.898438 99.757812 C 73.898438 98.199219 73.433594 96.996094 72.476562 96.09375 C 71.546875 95.191406 70.207031 94.726562 68.539062 94.726562 C 66.953125 94.726562 65.640625 95.21875 64.628906 96.148438 C 63.589844 97.105469 63.070312 98.253906 63.070312 99.648438 L 65.339844 99.648438 C 65.339844 98.71875 65.613281 97.980469 66.1875 97.433594 C 66.761719 96.886719 67.554688 96.613281 68.539062 96.613281 C 70.617188 96.613281 71.65625 97.652344 71.65625 99.730469 C 71.65625 100.660156 71.328125 101.371094 70.726562 101.917969 C 70.125 102.464844 69.277344 102.765625 68.210938 102.765625 Z M 66.515625 102.765625 "/>
<path fill-rule="nonzero" fill="rgb(0%, 0%, 0%)" fill-opacity="1" d="M 93.144531 105.773438 L 88.140625 100.824219 C 87.839844 100.523438 87.8125 100.46875 87.59375 100.46875 C 87.347656 100.46875 87.101562 100.6875 87.101562 100.960938 C 87.101562 101.152344 87.15625 101.207031 87.429688 101.480469 L 92.40625 106.484375 L 87.429688 111.488281 C 87.15625 111.761719 87.101562 111.816406 87.101562 112.007812 C 87.101562 112.28125 87.347656 112.5 87.59375 112.5 C 87.8125 112.5 87.839844 112.445312 88.140625 112.144531 L 93.117188 107.195312 L 98.285156 112.335938 C 98.3125 112.363281 98.503906 112.5 98.640625 112.5 C 98.941406 112.5 99.160156 112.28125 99.160156 112.007812 C 99.160156 111.953125 99.160156 111.84375 99.078125 111.734375 C 99.050781 111.679688 95.085938 107.769531 93.828125 106.484375 L 98.394531 101.917969 C 98.53125 101.78125 98.886719 101.453125 99.023438 101.289062 C 99.050781 101.234375 99.160156 101.152344 99.160156 100.960938 C 99.160156 100.6875 98.941406 100.46875 98.640625 100.46875 C 98.449219 100.46875 98.339844 100.578125 98.066406 100.851562 Z M 93.144531 105.773438 "/>
<path fill-rule="nonzero" fill="rgb(0%, 0%, 0%)" fill-opacity="1" d="M 121.464844 106.757812 L 121.464844 95 L 119.085938 95 L 111.15625 107.277344 L 111.15625 108.617188 L 119.222656 108.617188 L 119.222656 112.71875 L 121.464844 112.71875 L 121.464844 108.617188 L 123.953125 108.617188 L 123.953125 106.757812 Z M 113.699219 106.757812 L 118.949219 98.554688 L 119.222656 98.089844 L 119.222656 106.757812 Z M 113.699219 106.757812 "/>
<path fill-rule="nonzero" fill="rgb(0%, 0%, 0%)" fill-opacity="1" d="M 148.730469 102.820312 L 148.730469 100.851562 L 138.558594 100.851562 L 138.558594 102.820312 Z M 148.730469 107.851562 L 148.730469 105.910156 L 138.558594 105.910156 L 138.558594 107.851562 Z M 148.730469 107.851562 "/>
<path fill-rule="nonzero" fill="rgb(0%, 0%, 0%)" fill-opacity="1" d="M 170.480469 112.71875 L 170.480469 94.917969 L 170.152344 94.917969 L 163.671875 97.324219 L 163.671875 99.375 L 168.210938 97.707031 L 168.210938 112.71875 Z M 170.480469 112.71875 "/>
<path fill-rule="nonzero" fill="rgb(0%, 0%, 0%)" fill-opacity="1" d="M 186.550781 112.71875 L 186.550781 110.886719 L 177.636719 110.886719 L 182.367188 105.746094 C 184.609375 103.339844 185.730469 101.234375 185.730469 99.511719 C 185.730469 98.0625 185.210938 96.914062 184.28125 96.039062 C 183.324219 95.191406 182.039062 94.726562 180.398438 94.726562 C 178.621094 94.726562 177.199219 95.273438 176.132812 96.257812 C 175.09375 97.269531 174.574219 98.609375 174.574219 100.222656 L 176.84375 100.222656 C 176.84375 99.074219 177.144531 98.199219 177.773438 97.570312 C 178.402344 96.941406 179.25 96.613281 180.398438 96.613281 C 181.300781 96.613281 182.066406 96.914062 182.613281 97.488281 C 183.160156 98.089844 183.460938 98.828125 183.460938 99.757812 C 183.460938 100.441406 183.269531 101.125 182.941406 101.78125 C 182.585938 102.410156 181.957031 103.257812 181.054688 104.296875 L 174.929688 111.105469 L 174.929688 112.71875 Z M 186.550781 112.71875 "/>
<path fill="none" stroke-width="0.99628" stroke-linecap="butt" stroke-linejoin="round" stroke="rgb(19.607843%, 19.607843%, 19.607843%)" stroke-opacity="1" stroke-miterlimit="10" d="M -141.070204 -18.804589 L 141.070421 -18.804589 L 141.070421 18.804786 L -141.070204 18.804786 Z M -141.070204 -18.804589 " transform="matrix(1.75, 0, 0, -1.75, 482.564262, 104.83025)"/>
<path fill-rule="nonzero" fill="rgb(0%, 0%, 0%)" fill-opacity="1" d="M 339.566406 111.984375 L 339.566406 94.183594 L 339.238281 94.183594 L 332.757812 96.589844 L 332.757812 98.640625 L 337.296875 96.972656 L 337.296875 111.984375 Z M 339.566406 111.984375 "/>
<path fill-rule="nonzero" fill="rgb(0%, 0%, 0%)" fill-opacity="1" d="M 355.636719 111.984375 L 355.636719 110.152344 L 346.722656 110.152344 L 351.453125 105.011719 C 353.695312 102.605469 354.816406 100.5 354.816406 98.777344 C 354.816406 97.328125 354.296875 96.179688 353.367188 95.304688 C 352.410156 94.457031 351.125 93.992188 349.484375 93.992188 C 347.707031 93.992188 346.285156 94.539062 345.21875 95.523438 C 344.179688 96.535156 343.660156 97.875 343.660156 99.488281 L 345.929688 99.488281 C 345.929688 98.339844 346.230469 97.464844 346.859375 96.835938 C 347.488281 96.207031 348.335938 95.878906 349.484375 95.878906 C 350.386719 95.878906 351.152344 96.179688 351.699219 96.753906 C 352.246094 97.355469 352.546875 98.09375 352.546875 99.023438 C 352.546875 99.707031 352.355469 100.390625 352.027344 101.046875 C 351.671875 101.675781 351.042969 102.523438 350.140625 103.5625 L 344.015625 110.371094 L 344.015625 111.984375 Z M 355.636719 111.984375 "/>
<path fill-rule="nonzero" fill="rgb(0%, 0%, 0%)" fill-opacity="1" d="M 378.140625 100.363281 C 378.140625 99.570312 377.484375 98.804688 376.554688 98.804688 C 375.597656 98.804688 374.941406 99.570312 374.941406 100.363281 C 374.941406 101.15625 375.625 101.921875 376.554688 101.921875 C 377.484375 101.921875 378.140625 101.15625 378.140625 100.363281 Z M 378.140625 111.136719 C 378.140625 110.34375 377.484375 109.578125 376.554688 109.578125 C 375.597656 109.578125 374.941406 110.34375 374.941406 111.136719 C 374.941406 111.929688 375.625 112.695312 376.554688 112.695312 C 377.484375 112.695312 378.140625 111.929688 378.140625 111.136719 Z M 369.089844 105.257812 C 368.679688 105.257812 368.214844 105.257812 368.214844 105.75 C 368.214844 106.242188 368.679688 106.242188 369.089844 106.242188 L 383.992188 106.242188 C 384.429688 106.242188 384.867188 106.242188 384.867188 105.75 C 384.867188 105.257812 384.429688 105.257812 383.992188 105.257812 Z M 369.089844 105.257812 "/>
<path fill-rule="nonzero" fill="rgb(0%, 0%, 0%)" fill-opacity="1" d="M 407.527344 106.023438 L 407.527344 94.265625 L 405.148438 94.265625 L 397.21875 106.542969 L 397.21875 107.882812 L 405.285156 107.882812 L 405.285156 111.984375 L 407.527344 111.984375 L 407.527344 107.882812 L 410.015625 107.882812 L 410.015625 106.023438 Z M 399.761719 106.023438 L 405.011719 97.820312 L 405.285156 97.355469 L 405.285156 106.023438 Z M 399.761719 106.023438 "/>
<path fill-rule="nonzero" fill="rgb(0%, 0%, 0%)" fill-opacity="1" d="M 441.425781 102.085938 L 441.425781 100.117188 L 431.253906 100.117188 L 431.253906 102.085938 Z M 441.425781 107.117188 L 441.425781 105.175781 L 431.253906 105.175781 L 431.253906 107.117188 Z M 441.425781 107.117188 "/>
<path fill-rule="nonzero" fill="rgb(0%, 0%, 0%)" fill-opacity="1" d="M 466.714844 102.03125 L 466.714844 103.863281 L 468.410156 103.863281 C 469.613281 103.890625 470.515625 104.191406 471.171875 104.738281 C 471.773438 105.285156 472.101562 106.078125 472.101562 107.089844 C 472.101562 108.15625 471.800781 109.003906 471.226562 109.550781 C 470.625 110.125 469.804688 110.398438 468.738281 110.398438 C 467.726562 110.398438 466.90625 110.125 466.304688 109.550781 C 465.703125 109.003906 465.402344 108.238281 465.402344 107.308594 L 463.132812 107.308594 C 463.132812 108.757812 463.625 109.960938 464.664062 110.890625 C 465.730469 111.792969 467.070312 112.230469 468.738281 112.230469 C 470.40625 112.230469 471.773438 111.792969 472.8125 110.835938 C 473.851562 109.90625 474.371094 108.648438 474.371094 107.035156 C 474.371094 106.023438 474.097656 105.148438 473.578125 104.4375 C 473.03125 103.726562 472.292969 103.207031 471.308594 102.878906 C 472.15625 102.523438 472.867188 102.003906 473.359375 101.265625 C 473.851562 100.527344 474.097656 99.789062 474.097656 99.023438 C 474.097656 97.464844 473.632812 96.261719 472.675781 95.359375 C 471.746094 94.457031 470.40625 93.992188 468.738281 93.992188 C 467.152344 93.992188 465.839844 94.484375 464.828125 95.414062 C 463.789062 96.371094 463.269531 97.519531 463.269531 98.914062 L 465.539062 98.914062 C 465.539062 97.984375 465.8125 97.246094 466.386719 96.699219 C 466.960938 96.152344 467.753906 95.878906 468.738281 95.878906 C 470.816406 95.878906 471.855469 96.917969 471.855469 98.996094 C 471.855469 99.925781 471.527344 100.636719 470.925781 101.183594 C 470.324219 101.730469 469.476562 102.03125 468.410156 102.03125 Z M 466.714844 102.03125 "/>
<path fill-rule="nonzero" fill="rgb(0%, 0%, 0%)" fill-opacity="1" d="M 477.585938 115.539062 C 478.1875 115.019531 478.707031 114.390625 479.117188 113.542969 C 479.527344 112.722656 479.71875 111.902344 479.71875 111.082031 L 479.71875 109.304688 L 477.53125 109.304688 L 477.53125 111.355469 C 477.476562 112.476562 477.066406 113.570312 476.328125 114.636719 Z M 477.585938 115.539062 "/>
<path fill-rule="nonzero" fill="rgb(0%, 0%, 0%)" fill-opacity="1" d="M 497.007812 111.984375 L 497.007812 94.183594 L 496.679688 94.183594 L 490.199219 96.589844 L 490.199219 98.640625 L 494.738281 96.972656 L 494.738281 111.984375 Z M 497.007812 111.984375 "/>
<path fill-rule="nonzero" fill="rgb(0%, 0%, 0%)" fill-opacity="1" d="M 513.078125 111.984375 L 513.078125 110.152344 L 504.164062 110.152344 L 508.894531 105.011719 C 511.136719 102.605469 512.257812 100.5 512.257812 98.777344 C 512.257812 97.328125 511.738281 96.179688 510.808594 95.304688 C 509.851562 94.457031 508.566406 93.992188 506.925781 93.992188 C 505.148438 93.992188 503.726562 94.539062 502.660156 95.523438 C 501.621094 96.535156 501.101562 97.875 501.101562 99.488281 L 503.371094 99.488281 C 503.371094 98.339844 503.671875 97.464844 504.300781 96.835938 C 504.929688 96.207031 505.777344 95.878906 506.925781 95.878906 C 507.828125 95.878906 508.59375 96.179688 509.140625 96.753906 C 509.6875 97.355469 509.988281 98.09375 509.988281 99.023438 C 509.988281 99.707031 509.796875 100.390625 509.46875 101.046875 C 509.113281 101.675781 508.484375 102.523438 507.582031 103.5625 L 501.457031 110.371094 L 501.457031 111.984375 Z M 513.078125 111.984375 "/>
<path fill-rule="nonzero" fill="rgb(0%, 0%, 0%)" fill-opacity="1" d="M 535.585938 100.363281 C 535.585938 99.570312 534.929688 98.804688 534 98.804688 C 533.042969 98.804688 532.386719 99.570312 532.386719 100.363281 C 532.386719 101.15625 533.070312 101.921875 534 101.921875 C 534.929688 101.921875 535.585938 101.15625 535.585938 100.363281 Z M 535.585938 111.136719 C 535.585938 110.34375 534.929688 109.578125 534 109.578125 C 533.042969 109.578125 532.386719 110.34375 532.386719 111.136719 C 532.386719 111.929688 533.070312 112.695312 534 112.695312 C 534.929688 112.695312 535.585938 111.929688 535.585938 111.136719 Z M 526.535156 105.257812 C 526.125 105.257812 525.660156 105.257812 525.660156 105.75 C 525.660156 106.242188 526.125 106.242188 526.535156 106.242188 L 541.4375 106.242188 C 541.875 106.242188 542.3125 106.242188 542.3125 105.75 C 542.3125 105.257812 541.875 105.257812 541.4375 105.257812 Z M 526.535156 105.257812 "/>
<path fill-rule="nonzero" fill="rgb(0%, 0%, 0%)" fill-opacity="1" d="M 558.738281 102.03125 L 558.738281 103.863281 L 560.433594 103.863281 C 561.636719 103.890625 562.539062 104.191406 563.195312 104.738281 C 563.796875 105.285156 564.125 106.078125 564.125 107.089844 C 564.125 108.15625 563.824219 109.003906 563.25 109.550781 C 562.648438 110.125 561.828125 110.398438 560.761719 110.398438 C 559.75 110.398438 558.929688 110.125 558.328125 109.550781 C 557.726562 109.003906 557.425781 108.238281 557.425781 107.308594 L 555.15625 107.308594 C 555.15625 108.757812 555.648438 109.960938 556.6875 110.890625 C 557.753906 111.792969 559.09375 112.230469 560.761719 112.230469 C 562.429688 112.230469 563.796875 111.792969 564.835938 110.835938 C 565.875 109.90625 566.394531 108.648438 566.394531 107.035156 C 566.394531 106.023438 566.121094 105.148438 565.601562 104.4375 C 565.054688 103.726562 564.316406 103.207031 563.332031 102.878906 C 564.179688 102.523438 564.890625 102.003906 565.382812 101.265625 C 565.875 100.527344 566.121094 99.789062 566.121094 99.023438 C 566.121094 97.464844 565.65625 96.261719 564.699219 95.359375 C 563.769531 94.457031 562.429688 93.992188 560.761719 93.992188 C 559.175781 93.992188 557.863281 94.484375 556.851562 95.414062 C 555.8125 96.371094 555.292969 97.519531 555.292969 98.914062 L 557.5625 98.914062 C 557.5625 97.984375 557.835938 97.246094 558.410156 96.699219 C 558.984375 96.152344 559.777344 95.878906 560.761719 95.878906 C 562.839844 95.878906 563.878906 96.917969 563.878906 98.996094 C 563.878906 99.925781 563.550781 100.636719 562.949219 101.183594 C 562.347656 101.730469 561.5 102.03125 560.433594 102.03125 Z M 558.738281 102.03125 "/>
<path fill-rule="nonzero" fill="rgb(0%, 0%, 0%)" fill-opacity="1" d="M 598.871094 102.085938 L 598.871094 100.117188 L 588.699219 100.117188 L 588.699219 102.085938 Z M 598.871094 107.117188 L 598.871094 105.175781 L 588.699219 105.175781 L 588.699219 107.117188 Z M 598.871094 107.117188 "/>
<path fill-rule="nonzero" fill="rgb(0%, 0%, 0%)" fill-opacity="1" d="M 630.394531 106.023438 L 630.394531 94.265625 L 628.015625 94.265625 L 620.085938 106.542969 L 620.085938 107.882812 L 628.152344 107.882812 L 628.152344 111.984375 L 630.394531 111.984375 L 630.394531 107.882812 L 632.882812 107.882812 L 632.882812 106.023438 Z M 622.628906 106.023438 L 627.878906 97.820312 L 628.152344 97.355469 L 628.152344 106.023438 Z M 622.628906 106.023438 "/>
<path fill="none" stroke-width="0.99628" stroke-linecap="butt" stroke-linejoin="round" stroke="rgb(19.607843%, 19.607843%, 19.607843%)" stroke-opacity="1" stroke-miterlimit="10" d="M -65.847159 -30.089164 L 65.847037 -30.089164 L 65.847037 30.089408 L -65.847159 30.089408 Z M -65.847159 -30.089164 " transform="matrix(1.75, 0, 0, -1.75, 120.462997, 190.394745)"/>
<path fill-rule="nonzero" fill="rgb(0%, 0%, 0%)" fill-opacity="1" d="M 70.050781 198.28125 L 70.050781 196.449219 L 61.136719 196.449219 L 65.867188 191.308594 C 68.109375 188.902344 69.230469 186.796875 69.230469 185.074219 C 69.230469 183.625 68.710938 182.476562 67.78125 181.601562 C 66.824219 180.753906 65.539062 180.289062 63.898438 180.289062 C 62.121094 180.289062 60.699219 180.835938 59.632812 181.820312 C 58.59375 182.832031 58.074219 184.171875 58.074219 185.785156 L 60.34375 185.785156 C 60.34375 184.636719 60.644531 183.761719 61.273438 183.132812 C 61.902344 182.503906 62.75 182.175781 63.898438 182.175781 C 64.800781 182.175781 65.566406 182.476562 66.113281 183.050781 C 66.660156 183.652344 66.960938 184.390625 66.960938 185.320312 C 66.960938 186.003906 66.769531 186.6875 66.441406 187.34375 C 66.085938 187.972656 65.457031 188.820312 64.554688 189.859375 L 58.429688 196.667969 L 58.429688 198.28125 Z M 70.050781 198.28125 "/>
<path fill-rule="nonzero" fill="rgb(0%, 0%, 0%)" fill-opacity="1" d="M 88.507812 191.335938 L 83.503906 186.386719 C 83.203125 186.085938 83.175781 186.03125 82.957031 186.03125 C 82.710938 186.03125 82.464844 186.25 82.464844 186.523438 C 82.464844 186.714844 82.519531 186.769531 82.792969 187.042969 L 87.769531 192.046875 L 82.792969 197.050781 C 82.519531 197.324219 82.464844 197.378906 82.464844 197.570312 C 82.464844 197.84375 82.710938 198.0625 82.957031 198.0625 C 83.175781 198.0625 83.203125 198.007812 83.503906 197.707031 L 88.480469 192.757812 L 93.648438 197.898438 C 93.675781 197.925781 93.867188 198.0625 94.003906 198.0625 C 94.304688 198.0625 94.523438 197.84375 94.523438 197.570312 C 94.523438 197.515625 94.523438 197.40625 94.441406 197.296875 C 94.414062 197.242188 90.449219 193.332031 89.191406 192.046875 L 93.757812 187.480469 C 93.894531 187.34375 94.25 187.015625 94.386719 186.851562 C 94.414062 186.796875 94.523438 186.714844 94.523438 186.523438 C 94.523438 186.25 94.304688 186.03125 94.003906 186.03125 C 93.8125 186.03125 93.703125 186.140625 93.429688 186.414062 Z M 88.507812 191.335938 "/>
<path fill-rule="nonzero" fill="rgb(0%, 0%, 0%)" fill-opacity="1" d="M 118.277344 185.183594 C 118.277344 183.679688 117.785156 182.53125 116.828125 181.628906 C 115.871094 180.753906 114.613281 180.289062 113.054688 180.289062 C 111.496094 180.289062 110.210938 180.753906 109.28125 181.628906 C 108.296875 182.53125 107.832031 183.679688 107.832031 185.183594 C 107.832031 186.058594 108.050781 186.824219 108.488281 187.535156 C 108.953125 188.21875 109.582031 188.792969 110.375 189.148438 C 109.445312 189.558594 108.734375 190.160156 108.1875 190.898438 C 107.667969 191.664062 107.421875 192.539062 107.421875 193.496094 C 107.421875 195.027344 107.914062 196.257812 108.953125 197.160156 C 109.964844 198.089844 111.332031 198.527344 113.054688 198.527344 C 114.722656 198.527344 116.089844 198.089844 117.128906 197.160156 C 118.167969 196.257812 118.6875 195.027344 118.6875 193.496094 C 118.6875 192.539062 118.414062 191.664062 117.867188 190.898438 C 117.320312 190.160156 116.609375 189.558594 115.679688 189.148438 C 116.472656 188.792969 117.101562 188.246094 117.566406 187.5625 C 118.03125 186.851562 118.277344 186.085938 118.277344 185.183594 Z M 116.445312 193.441406 C 116.445312 194.453125 116.117188 195.246094 115.542969 195.820312 C 114.941406 196.421875 114.121094 196.695312 113.054688 196.695312 C 111.988281 196.695312 111.167969 196.421875 110.566406 195.847656 C 109.964844 195.273438 109.664062 194.453125 109.664062 193.46875 C 109.664062 192.484375 109.964844 191.636719 110.59375 191.035156 C 111.195312 190.40625 112.015625 190.078125 113.027344 190.078125 C 114.039062 190.078125 114.859375 190.40625 115.515625 191.035156 C 116.117188 191.636719 116.445312 192.457031 116.445312 193.441406 Z M 113.054688 182.175781 C 113.902344 182.175781 114.640625 182.476562 115.1875 183.023438 C 115.734375 183.597656 116.035156 184.308594 116.035156 185.210938 C 116.035156 186.113281 115.761719 186.851562 115.214844 187.398438 C 114.667969 187.945312 113.957031 188.21875 113.054688 188.21875 C 112.152344 188.21875 111.441406 187.945312 110.894531 187.398438 C 110.347656 186.851562 110.101562 186.113281 110.101562 185.210938 C 110.101562 184.253906 110.375 183.542969 110.921875 182.996094 C 111.46875 182.449219 112.152344 182.175781 113.054688 182.175781 Z M 113.054688 182.175781 "/>
<path fill-rule="nonzero" fill="rgb(0%, 0%, 0%)" fill-opacity="1" d="M 144.785156 188.382812 L 144.785156 186.414062 L 134.613281 186.414062 L 134.613281 188.382812 Z M 144.785156 193.414062 L 144.785156 191.472656 L 134.613281 191.472656 L 134.613281 193.414062 Z M 144.785156 193.414062 "/>
<path fill-rule="nonzero" fill="rgb(0%, 0%, 0%)" fill-opacity="1" d="M 167.007812 198.28125 L 167.007812 180.480469 L 166.679688 180.480469 L 160.199219 182.886719 L 160.199219 184.9375 L 164.738281 183.269531 L 164.738281 198.28125 Z M 167.007812 198.28125 "/>
<path fill-rule="nonzero" fill="rgb(0%, 0%, 0%)" fill-opacity="1" d="M 180.316406 180.5625 L 179.878906 180.5625 C 177.144531 180.589844 175.066406 181.464844 173.671875 183.1875 C 172.277344 184.9375 171.566406 187.425781 171.566406 190.679688 L 171.566406 191.527344 C 171.566406 193.605469 172.113281 195.300781 173.152344 196.585938 C 174.191406 197.871094 175.585938 198.527344 177.28125 198.527344 C 178.949219 198.527344 180.316406 197.980469 181.300781 196.886719 C 182.3125 195.792969 182.804688 194.34375 182.804688 192.484375 C 182.804688 190.789062 182.3125 189.394531 181.410156 188.300781 C 180.480469 187.207031 179.25 186.660156 177.71875 186.660156 C 176.078125 186.660156 174.820312 187.207031 173.890625 188.246094 C 174.054688 186.441406 174.65625 185.019531 175.695312 184.007812 C 176.734375 183.023438 178.128906 182.503906 179.878906 182.449219 L 180.316406 182.449219 Z M 177.335938 188.519531 C 178.320312 188.519531 179.085938 188.902344 179.6875 189.640625 C 180.261719 190.40625 180.5625 191.390625 180.5625 192.59375 C 180.5625 193.824219 180.261719 194.78125 179.6875 195.546875 C 179.085938 196.285156 178.292969 196.667969 177.28125 196.667969 C 176.296875 196.667969 175.476562 196.230469 174.820312 195.328125 C 174.164062 194.453125 173.835938 193.277344 173.835938 191.800781 L 173.835938 190.980469 C 174.082031 190.269531 174.546875 189.695312 175.203125 189.230469 C 175.832031 188.792969 176.570312 188.519531 177.335938 188.519531 Z M 177.335938 188.519531 "/>
<path fill="none" stroke-width="0.99628" stroke-linecap="butt" stroke-linejoin="round" stroke="rgb(19.607843%, 19.607843%, 19.607843%)" stroke-opacity="1" stroke-miterlimit="10" d="M -141.070204 -30.089164 L 141.070421 -30.089164 L 141.070421 30.089408 L -141.070204 30.089408 Z M -141.070204 -30.089164 " transform="matrix(1.75, 0, 0, -1.75, 482.564262, 190.394745)"/>
<path fill-rule="nonzero" fill="rgb(0%, 0%, 0%)" fill-opacity="1" d="M 337.808594 182.820312 L 337.808594 165.019531 L 337.480469 165.019531 L 331 167.425781 L 331 169.476562 L 335.539062 167.808594 L 335.539062 182.820312 Z M 337.808594 182.820312 "/>
<path fill-rule="nonzero" fill="rgb(0%, 0%, 0%)" fill-opacity="1" d="M 351.113281 165.101562 L 350.675781 165.101562 C 347.941406 165.128906 345.863281 166.003906 344.46875 167.726562 C 343.074219 169.476562 342.363281 171.964844 342.363281 175.21875 L 342.363281 176.066406 C 342.363281 178.144531 342.910156 179.839844 343.949219 181.125 C 344.988281 182.410156 346.382812 183.066406 348.078125 183.066406 C 349.746094 183.066406 351.113281 182.519531 352.097656 181.425781 C 353.109375 180.332031 353.601562 178.882812 353.601562 177.023438 C 353.601562 175.328125 353.109375 173.933594 352.207031 172.839844 C 351.277344 171.746094 350.046875 171.199219 348.515625 171.199219 C 346.875 171.199219 345.617188 171.746094 344.6875 172.785156 C 344.851562 170.980469 345.453125 169.558594 346.492188 168.546875 C 347.53125 167.5625 348.925781 167.042969 350.675781 166.988281 L 351.113281 166.988281 Z M 348.132812 173.058594 C 349.117188 173.058594 349.882812 173.441406 350.484375 174.179688 C 351.058594 174.945312 351.359375 175.929688 351.359375 177.132812 C 351.359375 178.363281 351.058594 179.320312 350.484375 180.085938 C 349.882812 180.824219 349.089844 181.207031 348.078125 181.207031 C 347.09375 181.207031 346.273438 180.769531 345.617188 179.867188 C 344.960938 178.992188 344.632812 177.816406 344.632812 176.339844 L 344.632812 175.519531 C 344.878906 174.808594 345.34375 174.234375 346 173.769531 C 346.628906 173.332031 347.367188 173.058594 348.132812 173.058594 Z M 348.132812 173.058594 "/>
<path fill-rule="nonzero" fill="rgb(0%, 0%, 0%)" fill-opacity="1" d="M 376.285156 171.199219 C 376.285156 170.40625 375.628906 169.640625 374.699219 169.640625 C 373.742188 169.640625 373.085938 170.40625 373.085938 171.199219 C 373.085938 171.992188 373.769531 172.757812 374.699219 172.757812 C 375.628906 172.757812 376.285156 171.992188 376.285156 171.199219 Z M 376.285156 181.972656 C 376.285156 181.179688 375.628906 180.414062 374.699219 180.414062 C 373.742188 180.414062 373.085938 181.179688 373.085938 181.972656 C 373.085938 182.765625 373.769531 183.53125 374.699219 183.53125 C 375.628906 183.53125 376.285156 182.765625 376.285156 181.972656 Z M 367.234375 176.09375 C 366.824219 176.09375 366.359375 176.09375 366.359375 176.585938 C 366.359375 177.078125 366.824219 177.078125 367.234375 177.078125 L 382.136719 177.078125 C 382.574219 177.078125 383.011719 177.078125 383.011719 176.585938 C 383.011719 176.09375 382.574219 176.09375 382.136719 176.09375 Z M 367.234375 176.09375 "/>
<path fill-rule="nonzero" fill="rgb(0%, 0%, 0%)" fill-opacity="1" d="M 407.707031 182.820312 L 407.707031 180.988281 L 398.792969 180.988281 L 403.523438 175.847656 C 405.765625 173.441406 406.886719 171.335938 406.886719 169.613281 C 406.886719 168.164062 406.367188 167.015625 405.4375 166.140625 C 404.480469 165.292969 403.195312 164.828125 401.554688 164.828125 C 399.777344 164.828125 398.355469 165.375 397.289062 166.359375 C 396.25 167.371094 395.730469 168.710938 395.730469 170.324219 L 398 170.324219 C 398 169.175781 398.300781 168.300781 398.929688 167.671875 C 399.558594 167.042969 400.40625 166.714844 401.554688 166.714844 C 402.457031 166.714844 403.222656 167.015625 403.769531 167.589844 C 404.316406 168.191406 404.617188 168.929688 404.617188 169.859375 C 404.617188 170.542969 404.425781 171.226562 404.097656 171.882812 C 403.742188 172.511719 403.113281 173.359375 402.210938 174.398438 L 396.085938 181.207031 L 396.085938 182.820312 Z M 407.707031 182.820312 "/>
<path fill-rule="nonzero" fill="rgb(0%, 0%, 0%)" fill-opacity="1" d="M 439.25 172.921875 L 439.25 170.953125 L 429.078125 170.953125 L 429.078125 172.921875 Z M 439.25 177.953125 L 439.25 176.011719 L 429.078125 176.011719 L 429.078125 177.953125 Z M 439.25 177.953125 "/>
<path fill-rule="nonzero" fill="rgb(0%, 0%, 0%)" fill-opacity="1" d="M 471.753906 169.722656 C 471.753906 168.21875 471.261719 167.070312 470.304688 166.167969 C 469.347656 165.292969 468.089844 164.828125 466.53125 164.828125 C 464.972656 164.828125 463.6875 165.292969 462.757812 166.167969 C 461.773438 167.070312 461.308594 168.21875 461.308594 169.722656 C 461.308594 170.597656 461.527344 171.363281 461.964844 172.074219 C 462.429688 172.757812 463.058594 173.332031 463.851562 173.6875 C 462.921875 174.097656 462.210938 174.699219 461.664062 175.4375 C 461.144531 176.203125 460.898438 177.078125 460.898438 178.035156 C 460.898438 179.566406 461.390625 180.796875 462.429688 181.699219 C 463.441406 182.628906 464.808594 183.066406 466.53125 183.066406 C 468.199219 183.066406 469.566406 182.628906 470.605469 181.699219 C 471.644531 180.796875 472.164062 179.566406 472.164062 178.035156 C 472.164062 177.078125 471.890625 176.203125 471.34375 175.4375 C 470.796875 174.699219 470.085938 174.097656 469.15625 173.6875 C 469.949219 173.332031 470.578125 172.785156 471.042969 172.101562 C 471.507812 171.390625 471.753906 170.625 471.753906 169.722656 Z M 469.921875 177.980469 C 469.921875 178.992188 469.59375 179.785156 469.019531 180.359375 C 468.417969 180.960938 467.597656 181.234375 466.53125 181.234375 C 465.464844 181.234375 464.644531 180.960938 464.042969 180.386719 C 463.441406 179.8125 463.140625 178.992188 463.140625 178.007812 C 463.140625 177.023438 463.441406 176.175781 464.070312 175.574219 C 464.671875 174.945312 465.492188 174.617188 466.503906 174.617188 C 467.515625 174.617188 468.335938 174.945312 468.992188 175.574219 C 469.59375 176.175781 469.921875 176.996094 469.921875 177.980469 Z M 466.53125 166.714844 C 467.378906 166.714844 468.117188 167.015625 468.664062 167.5625 C 469.210938 168.136719 469.511719 168.847656 469.511719 169.75 C 469.511719 170.652344 469.238281 171.390625 468.691406 171.9375 C 468.144531 172.484375 467.433594 172.757812 466.53125 172.757812 C 465.628906 172.757812 464.917969 172.484375 464.371094 171.9375 C 463.824219 171.390625 463.578125 170.652344 463.578125 169.75 C 463.578125 168.792969 463.851562 168.082031 464.398438 167.535156 C 464.945312 166.988281 465.628906 166.714844 466.53125 166.714844 Z M 466.53125 166.714844 "/>
<path fill-rule="nonzero" fill="rgb(0%, 0%, 0%)" fill-opacity="1" d="M 475.132812 186.375 C 475.734375 185.855469 476.253906 185.226562 476.664062 184.378906 C 477.074219 183.558594 477.265625 182.738281 477.265625 181.917969 L 477.265625 180.140625 L 475.078125 180.140625 L 475.078125 182.191406 C 475.023438 183.3125 474.613281 184.40625 473.875 185.472656 Z M 475.132812 186.375 "/>
<path fill-rule="nonzero" fill="rgb(0%, 0%, 0%)" fill-opacity="1" d="M 494.578125 182.820312 L 494.578125 165.019531 L 494.25 165.019531 L 487.769531 167.425781 L 487.769531 169.476562 L 492.308594 167.808594 L 492.308594 182.820312 Z M 494.578125 182.820312 "/>
<path fill-rule="nonzero" fill="rgb(0%, 0%, 0%)" fill-opacity="1" d="M 507.886719 165.101562 L 507.449219 165.101562 C 504.714844 165.128906 502.636719 166.003906 501.242188 167.726562 C 499.847656 169.476562 499.136719 171.964844 499.136719 175.21875 L 499.136719 176.066406 C 499.136719 178.144531 499.683594 179.839844 500.722656 181.125 C 501.761719 182.410156 503.15625 183.066406 504.851562 183.066406 C 506.519531 183.066406 507.886719 182.519531 508.871094 181.425781 C 509.882812 180.332031 510.375 178.882812 510.375 177.023438 C 510.375 175.328125 509.882812 173.933594 508.980469 172.839844 C 508.050781 171.746094 506.820312 171.199219 505.289062 171.199219 C 503.648438 171.199219 502.390625 171.746094 501.460938 172.785156 C 501.625 170.980469 502.226562 169.558594 503.265625 168.546875 C 504.304688 167.5625 505.699219 167.042969 507.449219 166.988281 L 507.886719 166.988281 Z M 504.90625 173.058594 C 505.890625 173.058594 506.65625 173.441406 507.257812 174.179688 C 507.832031 174.945312 508.132812 175.929688 508.132812 177.132812 C 508.132812 178.363281 507.832031 179.320312 507.257812 180.085938 C 506.65625 180.824219 505.863281 181.207031 504.851562 181.207031 C 503.867188 181.207031 503.046875 180.769531 502.390625 179.867188 C 501.734375 178.992188 501.40625 177.816406 501.40625 176.339844 L 501.40625 175.519531 C 501.652344 174.808594 502.117188 174.234375 502.773438 173.769531 C 503.402344 173.332031 504.140625 173.058594 504.90625 173.058594 Z M 504.90625 173.058594 "/>
<path fill-rule="nonzero" fill="rgb(0%, 0%, 0%)" fill-opacity="1" d="M 533.046875 171.199219 C 533.046875 170.40625 532.390625 169.640625 531.460938 169.640625 C 530.503906 169.640625 529.847656 170.40625 529.847656 171.199219 C 529.847656 171.992188 530.53125 172.757812 531.460938 172.757812 C 532.390625 172.757812 533.046875 171.992188 533.046875 171.199219 Z M 533.046875 181.972656 C 533.046875 181.179688 532.390625 180.414062 531.460938 180.414062 C 530.503906 180.414062 529.847656 181.179688 529.847656 181.972656 C 529.847656 182.765625 530.53125 183.53125 531.460938 183.53125 C 532.390625 183.53125 533.046875 182.765625 533.046875 181.972656 Z M 523.996094 176.09375 C 523.585938 176.09375 523.121094 176.09375 523.121094 176.585938 C 523.121094 177.078125 523.585938 177.078125 523.996094 177.078125 L 538.898438 177.078125 C 539.335938 177.078125 539.773438 177.078125 539.773438 176.585938 C 539.773438 176.09375 539.335938 176.09375 538.898438 176.09375 Z M 523.996094 176.09375 "/>
<path fill-rule="nonzero" fill="rgb(0%, 0%, 0%)" fill-opacity="1" d="M 563.589844 169.722656 C 563.589844 168.21875 563.097656 167.070312 562.140625 166.167969 C 561.183594 165.292969 559.925781 164.828125 558.367188 164.828125 C 556.808594 164.828125 555.523438 165.292969 554.59375 166.167969 C 553.609375 167.070312 553.144531 168.21875 553.144531 169.722656 C 553.144531 170.597656 553.363281 171.363281 553.800781 172.074219 C 554.265625 172.757812 554.894531 173.332031 555.6875 173.6875 C 554.757812 174.097656 554.046875 174.699219 553.5 175.4375 C 552.980469 176.203125 552.734375 177.078125 552.734375 178.035156 C 552.734375 179.566406 553.226562 180.796875 554.265625 181.699219 C 555.277344 182.628906 556.644531 183.066406 558.367188 183.066406 C 560.035156 183.066406 561.402344 182.628906 562.441406 181.699219 C 563.480469 180.796875 564 179.566406 564 178.035156 C 564 177.078125 563.726562 176.203125 563.179688 175.4375 C 562.632812 174.699219 561.921875 174.097656 560.992188 173.6875 C 561.785156 173.332031 562.414062 172.785156 562.878906 172.101562 C 563.34375 171.390625 563.589844 170.625 563.589844 169.722656 Z M 561.757812 177.980469 C 561.757812 178.992188 561.429688 179.785156 560.855469 180.359375 C 560.253906 180.960938 559.433594 181.234375 558.367188 181.234375 C 557.300781 181.234375 556.480469 180.960938 555.878906 180.386719 C 555.277344 179.8125 554.976562 178.992188 554.976562 178.007812 C 554.976562 177.023438 555.277344 176.175781 555.90625 175.574219 C 556.507812 174.945312 557.328125 174.617188 558.339844 174.617188 C 559.351562 174.617188 560.171875 174.945312 560.828125 175.574219 C 561.429688 176.175781 561.757812 176.996094 561.757812 177.980469 Z M 558.367188 166.714844 C 559.214844 166.714844 559.953125 167.015625 560.5 167.5625 C 561.046875 168.136719 561.347656 168.847656 561.347656 169.75 C 561.347656 170.652344 561.074219 171.390625 560.527344 171.9375 C 559.980469 172.484375 559.269531 172.757812 558.367188 172.757812 C 557.464844 172.757812 556.753906 172.484375 556.207031 171.9375 C 555.660156 171.390625 555.414062 170.652344 555.414062 169.75 C 555.414062 168.792969 555.6875 168.082031 556.234375 167.535156 C 556.78125 166.988281 557.464844 166.714844 558.367188 166.714844 Z M 558.367188 166.714844 "/>
<path fill-rule="nonzero" fill="rgb(0%, 0%, 0%)" fill-opacity="1" d="M 596.007812 172.921875 L 596.007812 170.953125 L 585.835938 170.953125 L 585.835938 172.921875 Z M 596.007812 177.953125 L 596.007812 176.011719 L 585.835938 176.011719 L 585.835938 177.953125 Z M 596.007812 177.953125 "/>
<path fill-rule="nonzero" fill="rgb(0%, 0%, 0%)" fill-opacity="1" d="M 629.386719 182.820312 L 629.386719 180.988281 L 620.472656 180.988281 L 625.203125 175.847656 C 627.445312 173.441406 628.566406 171.335938 628.566406 169.613281 C 628.566406 168.164062 628.046875 167.015625 627.117188 166.140625 C 626.160156 165.292969 624.875 164.828125 623.234375 164.828125 C 621.457031 164.828125 620.035156 165.375 618.96875 166.359375 C 617.929688 167.371094 617.410156 168.710938 617.410156 170.324219 L 619.679688 170.324219 C 619.679688 169.175781 619.980469 168.300781 620.609375 167.671875 C 621.238281 167.042969 622.085938 166.714844 623.234375 166.714844 C 624.136719 166.714844 624.902344 167.015625 625.449219 167.589844 C 625.996094 168.191406 626.296875 168.929688 626.296875 169.859375 C 626.296875 170.542969 626.105469 171.226562 625.777344 171.882812 C 625.421875 172.511719 624.792969 173.359375 623.890625 174.398438 L 617.765625 181.207031 L 617.765625 182.820312 Z M 629.386719 182.820312 "/>
<path fill-rule="nonzero" fill="rgb(0%, 0%, 0%)" fill-opacity="1" d="M 631.890625 186.375 C 632.492188 185.855469 633.011719 185.226562 633.421875 184.378906 C 633.832031 183.558594 634.023438 182.738281 634.023438 181.917969 L 634.023438 180.140625 L 631.835938 180.140625 L 631.835938 182.191406 C 631.78125 183.3125 631.371094 184.40625 630.632812 185.472656 Z M 631.890625 186.375 "/>
<path fill-rule="nonzero" fill="rgb(0%, 0%, 0%)" fill-opacity="1" d="M 343.941406 199.1875 C 343.941406 197.683594 343.449219 196.535156 342.492188 195.632812 C 341.535156 194.757812 340.277344 194.292969 338.71875 194.292969 C 337.160156 194.292969 335.875 194.757812 334.945312 195.632812 C 333.960938 196.535156 333.496094 197.683594 333.496094 199.1875 C 333.496094 200.0625 333.714844 200.828125 334.152344 201.539062 C 334.617188 202.222656 335.246094 202.796875 336.039062 203.152344 C 335.109375 203.5625 334.398438 204.164062 333.851562 204.902344 C 333.332031 205.667969 333.085938 206.542969 333.085938 207.5 C 333.085938 209.03125 333.578125 210.261719 334.617188 211.164062 C 335.628906 212.09375 336.996094 212.53125 338.71875 212.53125 C 340.386719 212.53125 341.753906 212.09375 342.792969 211.164062 C 343.832031 210.261719 344.351562 209.03125 344.351562 207.5 C 344.351562 206.542969 344.078125 205.667969 343.53125 204.902344 C 342.984375 204.164062 342.273438 203.5625 341.34375 203.152344 C 342.136719 202.796875 342.765625 202.25 343.230469 201.566406 C 343.695312 200.855469 343.941406 200.089844 343.941406 199.1875 Z M 342.109375 207.445312 C 342.109375 208.457031 341.78125 209.25 341.207031 209.824219 C 340.605469 210.425781 339.785156 210.699219 338.71875 210.699219 C 337.652344 210.699219 336.832031 210.425781 336.230469 209.851562 C 335.628906 209.277344 335.328125 208.457031 335.328125 207.472656 C 335.328125 206.488281 335.628906 205.640625 336.257812 205.039062 C 336.859375 204.410156 337.679688 204.082031 338.691406 204.082031 C 339.703125 204.082031 340.523438 204.410156 341.179688 205.039062 C 341.78125 205.640625 342.109375 206.460938 342.109375 207.445312 Z M 338.71875 196.179688 C 339.566406 196.179688 340.304688 196.480469 340.851562 197.027344 C 341.398438 197.601562 341.699219 198.3125 341.699219 199.214844 C 341.699219 200.117188 341.425781 200.855469 340.878906 201.402344 C 340.332031 201.949219 339.621094 202.222656 338.71875 202.222656 C 337.816406 202.222656 337.105469 201.949219 336.558594 201.402344 C 336.011719 200.855469 335.765625 200.117188 335.765625 199.214844 C 335.765625 198.257812 336.039062 197.546875 336.585938 197 C 337.132812 196.453125 337.816406 196.179688 338.71875 196.179688 Z M 338.71875 196.179688 "/>
<path fill-rule="nonzero" fill="rgb(0%, 0%, 0%)" fill-opacity="1" d="M 376.582031 202.386719 L 376.582031 200.417969 L 366.410156 200.417969 L 366.410156 202.386719 Z M 376.582031 207.417969 L 376.582031 205.476562 L 366.410156 205.476562 L 366.410156 207.417969 Z M 376.582031 207.417969 "/>
<path fill-rule="nonzero" fill="rgb(0%, 0%, 0%)" fill-opacity="1" d="M 404.984375 212.285156 L 404.984375 194.484375 L 404.65625 194.484375 L 398.175781 196.890625 L 398.175781 198.941406 L 402.714844 197.273438 L 402.714844 212.285156 Z M 404.984375 212.285156 "/>
<path fill-rule="nonzero" fill="rgb(0%, 0%, 0%)" fill-opacity="1" d="M 418.292969 194.566406 L 417.855469 194.566406 C 415.121094 194.59375 413.042969 195.46875 411.648438 197.191406 C 410.253906 198.941406 409.542969 201.429688 409.542969 204.683594 L 409.542969 205.53125 C 409.542969 207.609375 410.089844 209.304688 411.128906 210.589844 C 412.167969 211.875 413.5625 212.53125 415.257812 212.53125 C 416.925781 212.53125 418.292969 211.984375 419.277344 210.890625 C 420.289062 209.796875 420.78125 208.347656 420.78125 206.488281 C 420.78125 204.792969 420.289062 203.398438 419.386719 202.304688 C 418.457031 201.210938 417.226562 200.664062 415.695312 200.664062 C 414.054688 200.664062 412.796875 201.210938 411.867188 202.25 C 412.03125 200.445312 412.632812 199.023438 413.671875 198.011719 C 414.710938 197.027344 416.105469 196.507812 417.855469 196.453125 L 418.292969 196.453125 Z M 415.3125 202.523438 C 416.296875 202.523438 417.0625 202.90625 417.664062 203.644531 C 418.238281 204.410156 418.539062 205.394531 418.539062 206.597656 C 418.539062 207.828125 418.238281 208.785156 417.664062 209.550781 C 417.0625 210.289062 416.269531 210.671875 415.257812 210.671875 C 414.273438 210.671875 413.453125 210.234375 412.796875 209.332031 C 412.140625 208.457031 411.8125 207.28125 411.8125 205.804688 L 411.8125 204.984375 C 412.058594 204.273438 412.523438 203.699219 413.179688 203.234375 C 413.808594 202.796875 414.546875 202.523438 415.3125 202.523438 Z M 415.3125 202.523438 "/>
<path fill-rule="nonzero" fill="rgb(0%, 0%, 0%)" fill-opacity="1" d="M 443.558594 200.664062 C 443.558594 199.871094 442.902344 199.105469 441.972656 199.105469 C 441.015625 199.105469 440.359375 199.871094 440.359375 200.664062 C 440.359375 201.457031 441.042969 202.222656 441.972656 202.222656 C 442.902344 202.222656 443.558594 201.457031 443.558594 200.664062 Z M 443.558594 211.4375 C 443.558594 210.644531 442.902344 209.878906 441.972656 209.878906 C 441.015625 209.878906 440.359375 210.644531 440.359375 211.4375 C 440.359375 212.230469 441.042969 212.996094 441.972656 212.996094 C 442.902344 212.996094 443.558594 212.230469 443.558594 211.4375 Z M 434.507812 205.558594 C 434.097656 205.558594 433.632812 205.558594 433.632812 206.050781 C 433.632812 206.542969 434.097656 206.542969 434.507812 206.542969 L 449.410156 206.542969 C 449.847656 206.542969 450.285156 206.542969 450.285156 206.050781 C 450.285156 205.558594 449.847656 205.558594 449.410156 205.558594 Z M 434.507812 205.558594 "/>
<path fill-rule="nonzero" fill="rgb(0%, 0%, 0%)" fill-opacity="1" d="M 475.078125 212.285156 L 475.078125 210.453125 L 466.164062 210.453125 L 470.894531 205.3125 C 473.136719 202.90625 474.257812 200.800781 474.257812 199.078125 C 474.257812 197.628906 473.738281 196.480469 472.808594 195.605469 C 471.851562 194.757812 470.566406 194.292969 468.925781 194.292969 C 467.148438 194.292969 465.726562 194.839844 464.660156 195.824219 C 463.621094 196.835938 463.101562 198.175781 463.101562 199.789062 L 465.371094 199.789062 C 465.371094 198.640625 465.671875 197.765625 466.300781 197.136719 C 466.929688 196.507812 467.777344 196.179688 468.925781 196.179688 C 469.828125 196.179688 470.59375 196.480469 471.140625 197.054688 C 471.6875 197.65625 471.988281 198.394531 471.988281 199.324219 C 471.988281 200.007812 471.796875 200.691406 471.46875 201.347656 C 471.113281 201.976562 470.484375 202.824219 469.582031 203.863281 L 463.457031 210.671875 L 463.457031 212.285156 Z M 475.078125 212.285156 "/>
<path fill-rule="nonzero" fill="rgb(0%, 0%, 0%)" fill-opacity="1" d="M 477.582031 215.839844 C 478.183594 215.320312 478.703125 214.691406 479.113281 213.84375 C 479.523438 213.023438 479.714844 212.203125 479.714844 211.382812 L 479.714844 209.605469 L 477.527344 209.605469 L 477.527344 211.65625 C 477.472656 212.777344 477.0625 213.871094 476.324219 214.9375 Z M 477.582031 215.839844 "/>
<path fill-rule="nonzero" fill="rgb(0%, 0%, 0%)" fill-opacity="1" d="M 502.253906 212.285156 L 502.253906 210.453125 L 493.339844 210.453125 L 498.070312 205.3125 C 500.3125 202.90625 501.433594 200.800781 501.433594 199.078125 C 501.433594 197.628906 500.914062 196.480469 499.984375 195.605469 C 499.027344 194.757812 497.742188 194.292969 496.101562 194.292969 C 494.324219 194.292969 492.902344 194.839844 491.835938 195.824219 C 490.796875 196.835938 490.277344 198.175781 490.277344 199.789062 L 492.546875 199.789062 C 492.546875 198.640625 492.847656 197.765625 493.476562 197.136719 C 494.105469 196.507812 494.953125 196.179688 496.101562 196.179688 C 497.003906 196.179688 497.769531 196.480469 498.316406 197.054688 C 498.863281 197.65625 499.164062 198.394531 499.164062 199.324219 C 499.164062 200.007812 498.972656 200.691406 498.644531 201.347656 C 498.289062 201.976562 497.660156 202.824219 496.757812 203.863281 L 490.632812 210.671875 L 490.632812 212.285156 Z M 502.253906 212.285156 "/>
<path fill-rule="nonzero" fill="rgb(0%, 0%, 0%)" fill-opacity="1" d="M 534.042969 202.386719 L 534.042969 200.417969 L 523.871094 200.417969 L 523.871094 202.386719 Z M 534.042969 207.417969 L 534.042969 205.476562 L 523.871094 205.476562 L 523.871094 207.417969 Z M 534.042969 207.417969 "/>
<path fill-rule="nonzero" fill="rgb(0%, 0%, 0%)" fill-opacity="1" d="M 562.425781 212.285156 L 562.425781 194.484375 L 562.097656 194.484375 L 555.617188 196.890625 L 555.617188 198.941406 L 560.15625 197.273438 L 560.15625 212.285156 Z M 562.425781 212.285156 "/>
<path fill-rule="nonzero" fill="rgb(0%, 0%, 0%)" fill-opacity="1" d="M 575.734375 194.566406 L 575.296875 194.566406 C 572.5625 194.59375 570.484375 195.46875 569.089844 197.191406 C 567.695312 198.941406 566.984375 201.429688 566.984375 204.683594 L 566.984375 205.53125 C 566.984375 207.609375 567.53125 209.304688 568.570312 210.589844 C 569.609375 211.875 571.003906 212.53125 572.699219 212.53125 C 574.367188 212.53125 575.734375 211.984375 576.71875 210.890625 C 577.730469 209.796875 578.222656 208.347656 578.222656 206.488281 C 578.222656 204.792969 577.730469 203.398438 576.828125 202.304688 C 575.898438 201.210938 574.667969 200.664062 573.136719 200.664062 C 571.496094 200.664062 570.238281 201.210938 569.308594 202.25 C 569.472656 200.445312 570.074219 199.023438 571.113281 198.011719 C 572.152344 197.027344 573.546875 196.507812 575.296875 196.453125 L 575.734375 196.453125 Z M 572.753906 202.523438 C 573.738281 202.523438 574.503906 202.90625 575.105469 203.644531 C 575.679688 204.410156 575.980469 205.394531 575.980469 206.597656 C 575.980469 207.828125 575.679688 208.785156 575.105469 209.550781 C 574.503906 210.289062 573.710938 210.671875 572.699219 210.671875 C 571.714844 210.671875 570.894531 210.234375 570.238281 209.332031 C 569.582031 208.457031 569.253906 207.28125 569.253906 205.804688 L 569.253906 204.984375 C 569.5 204.273438 569.964844 203.699219 570.621094 203.234375 C 571.25 202.796875 571.988281 202.523438 572.753906 202.523438 Z M 572.753906 202.523438 "/>
<path fill-rule="nonzero" fill="rgb(0%, 0%, 0%)" fill-opacity="1" d="M 601.003906 200.664062 C 601.003906 199.871094 600.347656 199.105469 599.417969 199.105469 C 598.460938 199.105469 597.804688 199.871094 597.804688 200.664062 C 597.804688 201.457031 598.488281 202.222656 599.417969 202.222656 C 600.347656 202.222656 601.003906 201.457031 601.003906 200.664062 Z M 601.003906 211.4375 C 601.003906 210.644531 600.347656 209.878906 599.417969 209.878906 C 598.460938 209.878906 597.804688 210.644531 597.804688 211.4375 C 597.804688 212.230469 598.488281 212.996094 599.417969 212.996094 C 600.347656 212.996094 601.003906 212.230469 601.003906 211.4375 Z M 591.953125 205.558594 C 591.542969 205.558594 591.078125 205.558594 591.078125 206.050781 C 591.078125 206.542969 591.542969 206.542969 591.953125 206.542969 L 606.855469 206.542969 C 607.292969 206.542969 607.730469 206.542969 607.730469 206.050781 C 607.730469 205.558594 607.292969 205.558594 606.855469 205.558594 Z M 591.953125 205.558594 "/>
<path fill-rule="nonzero" fill="rgb(0%, 0%, 0%)" fill-opacity="1" d="M 631.648438 199.1875 C 631.648438 197.683594 631.15625 196.535156 630.199219 195.632812 C 629.242188 194.757812 627.984375 194.292969 626.425781 194.292969 C 624.867188 194.292969 623.582031 194.757812 622.652344 195.632812 C 621.667969 196.535156 621.203125 197.683594 621.203125 199.1875 C 621.203125 200.0625 621.421875 200.828125 621.859375 201.539062 C 622.324219 202.222656 622.953125 202.796875 623.746094 203.152344 C 622.816406 203.5625 622.105469 204.164062 621.558594 204.902344 C 621.039062 205.667969 620.792969 206.542969 620.792969 207.5 C 620.792969 209.03125 621.285156 210.261719 622.324219 211.164062 C 623.335938 212.09375 624.703125 212.53125 626.425781 212.53125 C 628.09375 212.53125 629.460938 212.09375 630.5 211.164062 C 631.539062 210.261719 632.058594 209.03125 632.058594 207.5 C 632.058594 206.542969 631.785156 205.667969 631.238281 204.902344 C 630.691406 204.164062 629.980469 203.5625 629.050781 203.152344 C 629.84375 202.796875 630.472656 202.25 630.9375 201.566406 C 631.402344 200.855469 631.648438 200.089844 631.648438 199.1875 Z M 629.816406 207.445312 C 629.816406 208.457031 629.488281 209.25 628.914062 209.824219 C 628.3125 210.425781 627.492188 210.699219 626.425781 210.699219 C 625.359375 210.699219 624.539062 210.425781 623.9375 209.851562 C 623.335938 209.277344 623.035156 208.457031 623.035156 207.472656 C 623.035156 206.488281 623.335938 205.640625 623.964844 205.039062 C 624.566406 204.410156 625.386719 204.082031 626.398438 204.082031 C 627.410156 204.082031 628.230469 204.410156 628.886719 205.039062 C 629.488281 205.640625 629.816406 206.460938 629.816406 207.445312 Z M 626.425781 196.179688 C 627.273438 196.179688 628.011719 196.480469 628.558594 197.027344 C 629.105469 197.601562 629.40625 198.3125 629.40625 199.214844 C 629.40625 200.117188 629.132812 200.855469 628.585938 201.402344 C 628.039062 201.949219 627.328125 202.222656 626.425781 202.222656 C 625.523438 202.222656 624.8125 201.949219 624.265625 201.402344 C 623.71875 200.855469 623.472656 200.117188 623.472656 199.214844 C 623.472656 198.257812 623.746094 197.546875 624.292969 197 C 624.839844 196.453125 625.523438 196.179688 626.425781 196.179688 Z M 626.425781 196.179688 "/>
</svg>
