<?xml version="1.0" encoding="UTF-8"?>
<svg xmlns="http://www.w3.org/2000/svg" xmlns:xlink="http://www.w3.org/1999/xlink" width="621.810013" height="173.350502" viewBox="0 0 621.810013 173.350502">
<path fill="none" stroke-width="1.99255" stroke-linecap="butt" stroke-linejoin="round" stroke="rgb(19.607843%, 19.607843%, 19.607843%)" stroke-opacity="1" stroke-miterlimit="10" d="M -86.256439 -14.388813 L 86.256582 -14.388813 L 86.256582 14.392437 L -86.256439 14.392437 Z M -86.256439 -14.388813 " transform="matrix(1.5, 0, 0, -1.5, 138.349503, 30.553499)"/>
<path fill-rule="nonzero" fill="rgb(0%, 0%, 0%)" fill-opacity="1" d="M 90.667969 26.832031 C 90.246094 26.738281 89.027344 26.292969 89.027344 25.191406 C 89.027344 23.527344 90.691406 23.503906 91.347656 23.503906 C 92.425781 23.503906 93.410156 23.761719 94.347656 24.675781 C 94.675781 24.980469 94.675781 25.003906 94.769531 25.003906 C 94.886719 25.003906 94.980469 24.933594 95.027344 24.652344 L 95.332031 22.964844 C 95.355469 22.800781 95.355469 22.753906 95.355469 22.707031 C 95.355469 22.542969 95.355469 22.519531 94.863281 22.285156 C 93.480469 21.605469 92.332031 21.488281 91.347656 21.488281 C 89.613281 21.488281 86.613281 21.910156 86.613281 25.542969 C 86.613281 26.925781 87.316406 27.816406 87.691406 28.191406 C 88.675781 29.222656 89.589844 29.410156 91.113281 29.761719 C 92.191406 30.019531 92.636719 30.113281 93.058594 30.488281 C 93.246094 30.699219 93.644531 31.097656 93.644531 31.824219 C 93.644531 33.652344 91.980469 33.722656 91.347656 33.722656 C 89.707031 33.722656 88.300781 33.066406 87.316406 32.175781 C 87.082031 31.941406 87.058594 31.941406 86.964844 31.941406 C 86.847656 31.941406 86.753906 32.011719 86.707031 32.292969 L 86.402344 33.980469 C 86.378906 34.144531 86.378906 34.191406 86.378906 34.238281 C 86.378906 34.660156 88.394531 35.363281 88.488281 35.386719 C 89.800781 35.808594 90.832031 35.832031 91.347656 35.832031 C 94.253906 35.832031 96.082031 34.542969 96.082031 31.519531 C 96.082031 29.339844 94.464844 27.722656 92.519531 27.277344 Z M 90.667969 26.832031 "/>
<path fill-rule="nonzero" fill="rgb(0%, 0%, 0%)" fill-opacity="1" d="M 99.28125 21.910156 C 98.648438 21.910156 98.34375 22.027344 98.34375 22.800781 L 98.34375 23.691406 C 98.34375 24.324219 98.53125 24.558594 99.257812 24.558594 L 100.265625 24.558594 C 101.203125 24.558594 101.203125 24.160156 101.203125 23.246094 C 101.203125 22.308594 101.203125 21.910156 100.265625 21.910156 Z M 101.0625 27.441406 C 101.0625 26.832031 100.921875 26.503906 100.125 26.503906 L 99.398438 26.503906 C 98.71875 26.503906 98.484375 26.714844 98.484375 27.441406 L 98.484375 34.472656 C 98.484375 35.175781 98.695312 35.410156 99.398438 35.410156 L 100.125 35.410156 C 100.875 35.410156 101.0625 35.152344 101.0625 34.472656 Z M 101.0625 27.441406 "/>
<path fill-rule="nonzero" fill="rgb(0%, 0%, 0%)" fill-opacity="1" d="M 117.074219 32.667969 C 117.074219 31.589844 116.488281 30.910156 116.136719 30.582031 C 115.363281 29.902344 114.683594 29.785156 113.863281 29.621094 C 112.808594 29.433594 112.035156 29.269531 112.035156 28.519531 C 112.035156 27.722656 112.667969 27.558594 113.417969 27.558594 C 114.730469 27.558594 115.433594 28.050781 115.925781 28.472656 C 116.136719 28.660156 116.160156 28.660156 116.253906 28.660156 C 116.441406 28.660156 116.488281 28.496094 116.488281 28.425781 C 116.535156 28.261719 116.722656 27.183594 116.722656 27.066406 C 116.722656 26.761719 115.691406 26.480469 115.480469 26.410156 C 114.707031 26.199219 114.097656 26.175781 113.582031 26.175781 C 112.714844 26.175781 110.113281 26.175781 110.113281 28.964844 C 110.113281 29.902344 110.535156 30.488281 111.050781 30.957031 C 111.730469 31.589844 112.503906 31.707031 113.605469 31.941406 C 114.167969 32.035156 115.152344 32.199219 115.152344 33.066406 C 115.152344 33.980469 114.402344 34.097656 113.652344 34.097656 C 112.785156 34.097656 111.707031 33.863281 110.792969 32.761719 C 110.699219 32.667969 110.628906 32.621094 110.511719 32.621094 C 110.324219 32.621094 110.277344 32.785156 110.253906 32.902344 C 110.230469 33.183594 109.996094 34.285156 109.996094 34.472656 C 109.996094 34.824219 111.425781 35.269531 111.449219 35.292969 C 112.503906 35.621094 113.300781 35.621094 113.652344 35.621094 C 114.636719 35.621094 117.074219 35.550781 117.074219 32.667969 Z M 117.074219 32.667969 "/>
<path fill-rule="nonzero" fill="rgb(0%, 0%, 0%)" fill-opacity="1" d="M 125.859375 22.472656 C 125.953125 22.402344 126.070312 22.285156 126.070312 22.167969 C 126.070312 21.933594 125.859375 21.933594 125.53125 21.933594 L 123.9375 21.933594 C 123.5625 21.933594 123.539062 21.957031 123.375 22.167969 L 121.6875 24.441406 C 121.523438 24.652344 121.523438 24.675781 121.523438 24.722656 C 121.523438 24.980469 121.734375 24.980469 122.039062 24.980469 L 122.765625 24.980469 Z M 125.859375 22.472656 "/>
<path fill-rule="nonzero" fill="rgb(0%, 0%, 0%)" fill-opacity="1" d="M 125.945312 31.261719 C 126.390625 31.261719 126.882812 31.238281 126.882812 30.347656 C 126.882812 27.863281 125.710938 26.175781 122.828125 26.175781 C 119.710938 26.175781 118.1875 27.933594 118.1875 30.886719 C 118.1875 34.074219 120.015625 35.621094 123.085938 35.621094 C 123.8125 35.621094 124.914062 35.527344 126.203125 34.894531 C 126.625 34.660156 126.765625 34.613281 126.765625 34.378906 C 126.765625 34.238281 126.71875 33.675781 126.695312 33.535156 C 126.601562 32.925781 126.601562 32.902344 126.414062 32.902344 C 126.34375 32.902344 126.296875 32.902344 126.085938 33.089844 C 124.9375 34.097656 123.765625 34.214844 123.15625 34.214844 C 120.953125 34.214844 120.71875 32.503906 120.671875 31.261719 Z M 120.695312 30.230469 C 120.742188 29.035156 121.140625 27.582031 122.828125 27.582031 C 124.375 27.582031 124.679688 28.707031 124.726562 30.230469 Z M 120.695312 30.230469 "/>
<path fill-rule="nonzero" fill="rgb(0%, 0%, 0%)" fill-opacity="1" d="M 144.320312 27.230469 C 144.320312 26.597656 144.179688 26.292969 143.382812 26.292969 L 142.65625 26.292969 C 141.929688 26.292969 141.71875 26.550781 141.71875 27.230469 L 141.71875 27.605469 C 140.875 26.292969 139.726562 26.292969 139.398438 26.292969 C 135.648438 26.292969 135.34375 29.433594 135.34375 30.980469 C 135.34375 32.503906 135.648438 35.621094 139.257812 35.621094 C 140.289062 35.621094 141.015625 35.246094 141.671875 34.472656 L 141.671875 38.246094 C 141.671875 38.878906 141.8125 39.183594 142.609375 39.183594 L 143.382812 39.183594 C 144.109375 39.183594 144.320312 38.925781 144.320312 38.246094 Z M 141.71875 33.183594 C 141.367188 33.652344 140.851562 34.214844 139.960938 34.214844 C 137.96875 34.214844 137.96875 31.753906 137.96875 31.003906 C 137.96875 30.230469 137.96875 27.816406 140.148438 27.816406 C 140.476562 27.816406 140.875 27.886719 141.226562 28.261719 C 141.71875 28.753906 141.71875 29.105469 141.71875 29.339844 Z M 141.71875 33.183594 "/>
<path fill-rule="nonzero" fill="rgb(0%, 0%, 0%)" fill-opacity="1" d="M 155.222656 27.441406 C 155.222656 26.832031 155.105469 26.503906 154.308594 26.503906 L 153.535156 26.503906 C 152.785156 26.503906 152.597656 26.761719 152.597656 27.441406 L 152.597656 32.058594 C 152.597656 33.324219 151.917969 34.449219 150.535156 34.449219 C 149.433594 34.449219 149.316406 34.167969 149.316406 33.136719 L 149.316406 27.441406 C 149.316406 26.832031 149.199219 26.503906 148.402344 26.503906 L 147.628906 26.503906 C 146.925781 26.503906 146.691406 26.714844 146.691406 27.441406 L 146.691406 32.972656 C 146.691406 35.035156 147.816406 35.621094 149.832031 35.621094 C 150.347656 35.621094 151.730469 35.621094 152.644531 33.980469 L 152.644531 34.472656 C 152.644531 35.105469 152.785156 35.410156 153.582031 35.410156 L 154.308594 35.410156 C 155.035156 35.410156 155.222656 35.152344 155.222656 34.472656 Z M 155.222656 27.441406 "/>
<path fill-rule="nonzero" fill="rgb(0%, 0%, 0%)" fill-opacity="1" d="M 164.785156 31.261719 C 165.230469 31.261719 165.722656 31.238281 165.722656 30.347656 C 165.722656 27.863281 164.550781 26.175781 161.667969 26.175781 C 158.550781 26.175781 157.027344 27.933594 157.027344 30.886719 C 157.027344 34.074219 158.855469 35.621094 161.925781 35.621094 C 162.652344 35.621094 163.753906 35.527344 165.042969 34.894531 C 165.464844 34.660156 165.605469 34.613281 165.605469 34.378906 C 165.605469 34.238281 165.558594 33.675781 165.535156 33.535156 C 165.441406 32.925781 165.441406 32.902344 165.253906 32.902344 C 165.183594 32.902344 165.136719 32.902344 164.925781 33.089844 C 163.777344 34.097656 162.605469 34.214844 161.996094 34.214844 C 159.792969 34.214844 159.558594 32.503906 159.511719 31.261719 Z M 159.535156 30.230469 C 159.582031 29.035156 159.980469 27.582031 161.667969 27.582031 C 163.214844 27.582031 163.519531 28.707031 163.566406 30.230469 Z M 159.535156 30.230469 "/>
<path fill-rule="nonzero" fill="rgb(0%, 0%, 0%)" fill-opacity="1" d="M 177.71875 33.394531 C 177.71875 32.878906 177.695312 32.855469 177.179688 32.855469 L 175.703125 32.855469 C 175.1875 32.855469 175.164062 32.878906 175.164062 33.394531 L 175.164062 34.894531 C 175.164062 35.386719 175.1875 35.410156 175.703125 35.410156 L 177.179688 35.410156 C 177.695312 35.410156 177.71875 35.386719 177.71875 34.894531 Z M 177.71875 33.394531 "/>
<path fill-rule="nonzero" fill="rgb(0%, 0%, 0%)" fill-opacity="1" d="M 183.65625 33.394531 C 183.65625 32.878906 183.632812 32.855469 183.117188 32.855469 L 181.640625 32.855469 C 181.125 32.855469 181.101562 32.878906 181.101562 33.394531 L 181.101562 34.894531 C 181.101562 35.386719 181.125 35.410156 181.640625 35.410156 L 183.117188 35.410156 C 183.632812 35.410156 183.65625 35.386719 183.65625 34.894531 Z M 183.65625 33.394531 "/>
<path fill-rule="nonzero" fill="rgb(0%, 0%, 0%)" fill-opacity="1" d="M 189.59375 33.394531 C 189.59375 32.878906 189.570312 32.855469 189.054688 32.855469 L 187.578125 32.855469 C 187.0625 32.855469 187.039062 32.878906 187.039062 33.394531 L 187.039062 34.894531 C 187.039062 35.386719 187.0625 35.410156 187.578125 35.410156 L 189.054688 35.410156 C 189.570312 35.410156 189.59375 35.386719 189.59375 34.894531 Z M 189.59375 33.394531 "/>
<path fill="none" stroke-width="1.99255" stroke-linecap="butt" stroke-linejoin="round" stroke="rgb(19.607843%, 19.607843%, 19.607843%)" stroke-opacity="1" stroke-miterlimit="10" d="M -115.036418 -14.388813 L 115.036499 -14.388813 L 115.036499 14.392437 L -115.036418 14.392437 Z M -115.036418 -14.388813 " transform="matrix(1.5, 0, 0, -1.5, 440.289001, 30.553499)"/>
<path fill-rule="nonzero" fill="rgb(0%, 0%, 0%)" fill-opacity="1" d="M 360.179688 29.363281 L 365.289062 29.363281 C 365.898438 29.363281 366.226562 29.222656 366.226562 28.449219 C 366.226562 27.746094 365.96875 27.535156 365.289062 27.535156 L 360.179688 27.535156 L 360.179688 23.949219 L 361.140625 23.949219 C 362.664062 23.949219 364.1875 23.996094 365.710938 23.996094 C 366.390625 23.996094 366.835938 23.996094 366.835938 23.082031 L 366.835938 22.917969 C 366.835938 22.285156 366.695312 21.980469 365.898438 21.980469 L 358.257812 21.980469 C 357.554688 21.980469 357.320312 22.191406 357.320312 22.917969 L 357.320312 34.472656 C 357.320312 35.175781 357.554688 35.410156 358.257812 35.410156 L 366.179688 35.410156 C 366.929688 35.410156 367.117188 35.152344 367.117188 34.472656 L 367.117188 34.214844 C 367.117188 33.277344 366.671875 33.277344 366.039062 33.277344 C 365.03125 33.277344 364.023438 33.300781 363.015625 33.300781 C 362.546875 33.300781 360.53125 33.324219 360.179688 33.347656 Z M 360.179688 29.363281 "/>
<path fill-rule="nonzero" fill="rgb(0%, 0%, 0%)" fill-opacity="1" d="M 377.734375 29.105469 C 377.734375 27.089844 376.890625 26.292969 374.898438 26.292969 C 372.859375 26.292969 371.992188 27.769531 371.734375 28.308594 L 371.734375 27.324219 C 371.734375 26.714844 371.59375 26.386719 370.796875 26.386719 L 370.140625 26.386719 C 369.4375 26.386719 369.203125 26.597656 369.203125 27.324219 L 369.203125 34.472656 C 369.203125 35.175781 369.414062 35.410156 370.140625 35.410156 L 370.914062 35.410156 C 371.640625 35.410156 371.828125 35.152344 371.828125 34.472656 L 371.828125 30.183594 C 371.828125 28.496094 372.976562 27.699219 373.984375 27.699219 C 374.898438 27.699219 375.109375 28.144531 375.109375 29.128906 L 375.109375 34.472656 C 375.109375 35.105469 375.25 35.410156 376.046875 35.410156 L 376.820312 35.410156 C 377.546875 35.410156 377.734375 35.152344 377.734375 34.472656 Z M 377.734375 29.105469 "/>
<path fill-rule="nonzero" fill="rgb(0%, 0%, 0%)" fill-opacity="1" d="M 383.171875 27.910156 L 384.90625 27.910156 C 385.117188 27.910156 385.820312 27.910156 385.820312 27.207031 C 385.820312 26.503906 385.117188 26.503906 384.90625 26.503906 L 383.171875 26.503906 L 383.171875 24.910156 C 383.171875 24.277344 383.03125 23.972656 382.234375 23.972656 L 381.625 23.972656 C 380.921875 23.972656 380.6875 24.183594 380.6875 24.910156 L 380.6875 26.503906 L 380.242188 26.503906 C 380.03125 26.503906 379.328125 26.503906 379.328125 27.207031 C 379.328125 27.910156 380.007812 27.910156 380.242188 27.910156 L 380.640625 27.910156 L 380.640625 32.832031 C 380.640625 34.777344 381.34375 35.621094 382.679688 35.621094 C 382.84375 35.621094 383.710938 35.621094 384.71875 35.316406 C 385.046875 35.222656 386.171875 34.871094 386.171875 34.496094 C 386.171875 34.449219 386.148438 34.308594 386.03125 33.886719 C 385.914062 33.511719 385.890625 33.394531 385.703125 33.394531 C 385.609375 33.394531 385.585938 33.417969 385.46875 33.535156 C 385.257812 33.675781 384.742188 34.097656 383.921875 34.097656 C 383.453125 34.097656 383.171875 33.769531 383.171875 32.503906 Z M 383.171875 27.910156 "/>
<path fill-rule="nonzero" fill="rgb(0%, 0%, 0%)" fill-opacity="1" d="M 396.835938 31.027344 C 396.835938 27.863281 395.289062 26.175781 392.125 26.175781 C 388.890625 26.175781 387.390625 27.910156 387.390625 31.027344 C 387.390625 34.214844 389.054688 35.621094 392.101562 35.621094 C 395.148438 35.621094 396.835938 34.214844 396.835938 31.027344 Z M 392.125 34.097656 C 390.015625 34.097656 390.015625 32.363281 390.015625 30.816406 C 390.015625 29.316406 390.015625 27.582031 392.101562 27.582031 C 394.210938 27.582031 394.210938 29.292969 394.210938 30.816406 C 394.210938 32.339844 394.210938 34.097656 392.125 34.097656 Z M 392.125 34.097656 "/>
<path fill-rule="nonzero" fill="rgb(0%, 0%, 0%)" fill-opacity="1" d="M 407.171875 29.105469 C 407.171875 27.089844 406.328125 26.292969 404.335938 26.292969 C 402.296875 26.292969 401.429688 27.769531 401.171875 28.308594 L 401.171875 27.324219 C 401.171875 26.714844 401.03125 26.386719 400.234375 26.386719 L 399.578125 26.386719 C 398.875 26.386719 398.640625 26.597656 398.640625 27.324219 L 398.640625 34.472656 C 398.640625 35.175781 398.851562 35.410156 399.578125 35.410156 L 400.351562 35.410156 C 401.078125 35.410156 401.265625 35.152344 401.265625 34.472656 L 401.265625 30.183594 C 401.265625 28.496094 402.414062 27.699219 403.421875 27.699219 C 404.335938 27.699219 404.546875 28.144531 404.546875 29.128906 L 404.546875 34.472656 C 404.546875 35.105469 404.6875 35.410156 405.484375 35.410156 L 406.257812 35.410156 C 406.984375 35.410156 407.171875 35.152344 407.171875 34.472656 Z M 407.171875 29.105469 "/>
<path fill-rule="nonzero" fill="rgb(0%, 0%, 0%)" fill-opacity="1" d="M 417.25 34.449219 C 417.25 34.214844 417.179688 33.324219 417.132812 33.089844 C 417.132812 33.019531 417.085938 32.832031 416.898438 32.832031 C 416.828125 32.832031 416.78125 32.832031 416.59375 33.019531 C 416.265625 33.300781 415.351562 34.097656 413.757812 34.097656 C 411.71875 34.097656 411.71875 32.152344 411.71875 30.910156 C 411.71875 29.339844 411.835938 27.699219 413.804688 27.699219 C 415.070312 27.699219 415.585938 28.003906 416.289062 28.589844 C 416.523438 28.800781 416.570312 28.800781 416.640625 28.800781 C 416.828125 28.800781 416.875 28.636719 416.898438 28.542969 C 416.945312 28.402344 417.132812 27.300781 417.132812 27.207031 C 417.132812 27.042969 416.992188 26.949219 416.664062 26.808594 C 415.726562 26.386719 415.140625 26.175781 413.78125 26.175781 C 410.898438 26.175781 409.09375 27.535156 409.09375 30.933594 C 409.09375 34.167969 410.757812 35.621094 413.6875 35.621094 C 414.226562 35.621094 415.375 35.597656 416.6875 34.941406 C 417.226562 34.660156 417.25 34.636719 417.25 34.449219 Z M 417.25 34.449219 "/>
<path fill-rule="nonzero" fill="rgb(0%, 0%, 0%)" fill-opacity="1" d="M 426.234375 31.261719 C 426.679688 31.261719 427.171875 31.238281 427.171875 30.347656 C 427.171875 27.863281 426 26.175781 423.117188 26.175781 C 420 26.175781 418.476562 27.933594 418.476562 30.886719 C 418.476562 34.074219 420.304688 35.621094 423.375 35.621094 C 424.101562 35.621094 425.203125 35.527344 426.492188 34.894531 C 426.914062 34.660156 427.054688 34.613281 427.054688 34.378906 C 427.054688 34.238281 427.007812 33.675781 426.984375 33.535156 C 426.890625 32.925781 426.890625 32.902344 426.703125 32.902344 C 426.632812 32.902344 426.585938 32.902344 426.375 33.089844 C 425.226562 34.097656 424.054688 34.214844 423.445312 34.214844 C 421.242188 34.214844 421.007812 32.503906 420.960938 31.261719 Z M 420.984375 30.230469 C 421.03125 29.035156 421.429688 27.582031 423.117188 27.582031 C 424.664062 27.582031 424.96875 28.707031 425.015625 30.230469 Z M 420.984375 30.230469 "/>
<path fill-rule="nonzero" fill="rgb(0%, 0%, 0%)" fill-opacity="1" d="M 435.484375 32.667969 C 435.484375 31.589844 434.898438 30.910156 434.546875 30.582031 C 433.773438 29.902344 433.09375 29.785156 432.273438 29.621094 C 431.21875 29.433594 430.445312 29.269531 430.445312 28.519531 C 430.445312 27.722656 431.078125 27.558594 431.828125 27.558594 C 433.140625 27.558594 433.84375 28.050781 434.335938 28.472656 C 434.546875 28.660156 434.570312 28.660156 434.664062 28.660156 C 434.851562 28.660156 434.898438 28.496094 434.898438 28.425781 C 434.945312 28.261719 435.132812 27.183594 435.132812 27.066406 C 435.132812 26.761719 434.101562 26.480469 433.890625 26.410156 C 433.117188 26.199219 432.507812 26.175781 431.992188 26.175781 C 431.125 26.175781 428.523438 26.175781 428.523438 28.964844 C 428.523438 29.902344 428.945312 30.488281 429.460938 30.957031 C 430.140625 31.589844 430.914062 31.707031 432.015625 31.941406 C 432.578125 32.035156 433.5625 32.199219 433.5625 33.066406 C 433.5625 33.980469 432.8125 34.097656 432.0625 34.097656 C 431.195312 34.097656 430.117188 33.863281 429.203125 32.761719 C 429.109375 32.667969 429.039062 32.621094 428.921875 32.621094 C 428.734375 32.621094 428.6875 32.785156 428.664062 32.902344 C 428.640625 33.183594 428.40625 34.285156 428.40625 34.472656 C 428.40625 34.824219 429.835938 35.269531 429.859375 35.292969 C 430.914062 35.621094 431.710938 35.621094 432.0625 35.621094 C 433.046875 35.621094 435.484375 35.550781 435.484375 32.667969 Z M 435.484375 32.667969 "/>
<path fill-rule="nonzero" fill="rgb(0%, 0%, 0%)" fill-opacity="1" d="M 450.804688 32.667969 C 450.804688 31.589844 450.21875 30.910156 449.867188 30.582031 C 449.09375 29.902344 448.414062 29.785156 447.59375 29.621094 C 446.539062 29.433594 445.765625 29.269531 445.765625 28.519531 C 445.765625 27.722656 446.398438 27.558594 447.148438 27.558594 C 448.460938 27.558594 449.164062 28.050781 449.65625 28.472656 C 449.867188 28.660156 449.890625 28.660156 449.984375 28.660156 C 450.171875 28.660156 450.21875 28.496094 450.21875 28.425781 C 450.265625 28.261719 450.453125 27.183594 450.453125 27.066406 C 450.453125 26.761719 449.421875 26.480469 449.210938 26.410156 C 448.4375 26.199219 447.828125 26.175781 447.3125 26.175781 C 446.445312 26.175781 443.84375 26.175781 443.84375 28.964844 C 443.84375 29.902344 444.265625 30.488281 444.78125 30.957031 C 445.460938 31.589844 446.234375 31.707031 447.335938 31.941406 C 447.898438 32.035156 448.882812 32.199219 448.882812 33.066406 C 448.882812 33.980469 448.132812 34.097656 447.382812 34.097656 C 446.515625 34.097656 445.4375 33.863281 444.523438 32.761719 C 444.429688 32.667969 444.359375 32.621094 444.242188 32.621094 C 444.054688 32.621094 444.007812 32.785156 443.984375 32.902344 C 443.960938 33.183594 443.726562 34.285156 443.726562 34.472656 C 443.726562 34.824219 445.15625 35.269531 445.179688 35.292969 C 446.234375 35.621094 447.03125 35.621094 447.382812 35.621094 C 448.367188 35.621094 450.804688 35.550781 450.804688 32.667969 Z M 450.804688 32.667969 "/>
<path fill-rule="nonzero" fill="rgb(0%, 0%, 0%)" fill-opacity="1" d="M 459.59375 22.472656 C 459.6875 22.402344 459.804688 22.285156 459.804688 22.167969 C 459.804688 21.933594 459.59375 21.933594 459.265625 21.933594 L 457.671875 21.933594 C 457.296875 21.933594 457.273438 21.957031 457.109375 22.167969 L 455.421875 24.441406 C 455.257812 24.652344 455.257812 24.675781 455.257812 24.722656 C 455.257812 24.980469 455.46875 24.980469 455.773438 24.980469 L 456.5 24.980469 Z M 459.59375 22.472656 "/>
<path fill-rule="nonzero" fill="rgb(0%, 0%, 0%)" fill-opacity="1" d="M 459.675781 31.261719 C 460.121094 31.261719 460.613281 31.238281 460.613281 30.347656 C 460.613281 27.863281 459.441406 26.175781 456.558594 26.175781 C 453.441406 26.175781 451.917969 27.933594 451.917969 30.886719 C 451.917969 34.074219 453.746094 35.621094 456.816406 35.621094 C 457.542969 35.621094 458.644531 35.527344 459.933594 34.894531 C 460.355469 34.660156 460.496094 34.613281 460.496094 34.378906 C 460.496094 34.238281 460.449219 33.675781 460.425781 33.535156 C 460.332031 32.925781 460.332031 32.902344 460.144531 32.902344 C 460.074219 32.902344 460.027344 32.902344 459.816406 33.089844 C 458.667969 34.097656 457.496094 34.214844 456.886719 34.214844 C 454.683594 34.214844 454.449219 32.503906 454.402344 31.261719 Z M 454.425781 30.230469 C 454.472656 29.035156 454.871094 27.582031 456.558594 27.582031 C 458.105469 27.582031 458.410156 28.707031 458.457031 30.230469 Z M 454.425781 30.230469 "/>
<path fill-rule="nonzero" fill="rgb(0%, 0%, 0%)" fill-opacity="1" d="M 478.054688 27.230469 C 478.054688 26.597656 477.914062 26.292969 477.117188 26.292969 L 476.390625 26.292969 C 475.664062 26.292969 475.453125 26.550781 475.453125 27.230469 L 475.453125 27.605469 C 474.609375 26.292969 473.460938 26.292969 473.132812 26.292969 C 469.382812 26.292969 469.078125 29.433594 469.078125 30.980469 C 469.078125 32.503906 469.382812 35.621094 472.992188 35.621094 C 474.023438 35.621094 474.75 35.246094 475.40625 34.472656 L 475.40625 38.246094 C 475.40625 38.878906 475.546875 39.183594 476.34375 39.183594 L 477.117188 39.183594 C 477.84375 39.183594 478.054688 38.925781 478.054688 38.246094 Z M 475.453125 33.183594 C 475.101562 33.652344 474.585938 34.214844 473.695312 34.214844 C 471.703125 34.214844 471.703125 31.753906 471.703125 31.003906 C 471.703125 30.230469 471.703125 27.816406 473.882812 27.816406 C 474.210938 27.816406 474.609375 27.886719 474.960938 28.261719 C 475.453125 28.753906 475.453125 29.105469 475.453125 29.339844 Z M 475.453125 33.183594 "/>
<path fill-rule="nonzero" fill="rgb(0%, 0%, 0%)" fill-opacity="1" d="M 488.953125 27.441406 C 488.953125 26.832031 488.835938 26.503906 488.039062 26.503906 L 487.265625 26.503906 C 486.515625 26.503906 486.328125 26.761719 486.328125 27.441406 L 486.328125 32.058594 C 486.328125 33.324219 485.648438 34.449219 484.265625 34.449219 C 483.164062 34.449219 483.046875 34.167969 483.046875 33.136719 L 483.046875 27.441406 C 483.046875 26.832031 482.929688 26.503906 482.132812 26.503906 L 481.359375 26.503906 C 480.65625 26.503906 480.421875 26.714844 480.421875 27.441406 L 480.421875 32.972656 C 480.421875 35.035156 481.546875 35.621094 483.5625 35.621094 C 484.078125 35.621094 485.460938 35.621094 486.375 33.980469 L 486.375 34.472656 C 486.375 35.105469 486.515625 35.410156 487.3125 35.410156 L 488.039062 35.410156 C 488.765625 35.410156 488.953125 35.152344 488.953125 34.472656 Z M 488.953125 27.441406 "/>
<path fill-rule="nonzero" fill="rgb(0%, 0%, 0%)" fill-opacity="1" d="M 498.519531 31.261719 C 498.964844 31.261719 499.457031 31.238281 499.457031 30.347656 C 499.457031 27.863281 498.285156 26.175781 495.402344 26.175781 C 492.285156 26.175781 490.761719 27.933594 490.761719 30.886719 C 490.761719 34.074219 492.589844 35.621094 495.660156 35.621094 C 496.386719 35.621094 497.488281 35.527344 498.777344 34.894531 C 499.199219 34.660156 499.339844 34.613281 499.339844 34.378906 C 499.339844 34.238281 499.292969 33.675781 499.269531 33.535156 C 499.175781 32.925781 499.175781 32.902344 498.988281 32.902344 C 498.917969 32.902344 498.871094 32.902344 498.660156 33.089844 C 497.511719 34.097656 496.339844 34.214844 495.730469 34.214844 C 493.527344 34.214844 493.292969 32.503906 493.246094 31.261719 Z M 493.269531 30.230469 C 493.316406 29.035156 493.714844 27.582031 495.402344 27.582031 C 496.949219 27.582031 497.253906 28.707031 497.300781 30.230469 Z M 493.269531 30.230469 "/>
<path fill-rule="nonzero" fill="rgb(0%, 0%, 0%)" fill-opacity="1" d="M 511.453125 33.394531 C 511.453125 32.878906 511.429688 32.855469 510.914062 32.855469 L 509.4375 32.855469 C 508.921875 32.855469 508.898438 32.878906 508.898438 33.394531 L 508.898438 34.894531 C 508.898438 35.386719 508.921875 35.410156 509.4375 35.410156 L 510.914062 35.410156 C 511.429688 35.410156 511.453125 35.386719 511.453125 34.894531 Z M 511.453125 33.394531 "/>
<path fill-rule="nonzero" fill="rgb(0%, 0%, 0%)" fill-opacity="1" d="M 517.390625 33.394531 C 517.390625 32.878906 517.367188 32.855469 516.851562 32.855469 L 515.375 32.855469 C 514.859375 32.855469 514.835938 32.878906 514.835938 33.394531 L 514.835938 34.894531 C 514.835938 35.386719 514.859375 35.410156 515.375 35.410156 L 516.851562 35.410156 C 517.367188 35.410156 517.390625 35.386719 517.390625 34.894531 Z M 517.390625 33.394531 "/>
<path fill-rule="nonzero" fill="rgb(0%, 0%, 0%)" fill-opacity="1" d="M 523.328125 33.394531 C 523.328125 32.878906 523.304688 32.855469 522.789062 32.855469 L 521.3125 32.855469 C 520.796875 32.855469 520.773438 32.878906 520.773438 33.394531 L 520.773438 34.894531 C 520.773438 35.386719 520.796875 35.410156 521.3125 35.410156 L 522.789062 35.410156 C 523.304688 35.410156 523.328125 35.386719 523.328125 34.894531 Z M 523.328125 33.394531 "/>
<path fill="none" stroke-width="0.99628" stroke-linecap="butt" stroke-linejoin="round" stroke="rgb(19.607843%, 19.607843%, 19.607843%)" stroke-opacity="1" stroke-miterlimit="10" d="M -86.256439 -14.391064 L 86.256582 -14.391064 L 86.256582 14.390186 L -86.256439 14.390186 Z M -86.256439 -14.391064 " transform="matrix(1.5, 0, 0, -1.5, 138.349503, 74.471998)"/>
<path fill-rule="nonzero" fill="rgb(0%, 0%, 0%)" fill-opacity="1" d="M 87.300781 70.085938 C 87.792969 68.820312 88.964844 68 90.277344 68 C 91.261719 68 92.199219 68.5625 92.199219 69.828125 C 92.199219 71.117188 91.308594 72.195312 90.253906 72.429688 C 90.160156 72.453125 88.917969 72.546875 88.730469 72.570312 L 88.730469 73.71875 L 90.113281 73.71875 C 92.105469 73.71875 92.597656 75.429688 92.597656 76.507812 C 92.597656 78.078125 91.636719 79.273438 90.253906 79.273438 C 89.011719 79.273438 87.464844 78.640625 86.574219 77.234375 L 86.363281 78.382812 C 87.628906 80.117188 89.339844 80.421875 90.277344 80.421875 C 92.550781 80.421875 94.261719 78.59375 94.261719 76.53125 C 94.261719 75.03125 93.277344 73.71875 91.636719 73.15625 C 92.996094 72.40625 93.746094 71.09375 93.746094 69.828125 C 93.746094 68.140625 92.175781 66.898438 90.277344 66.898438 C 88.730469 66.898438 87.347656 67.742188 86.621094 69.03125 Z M 87.300781 70.085938 "/>
<path fill-rule="nonzero" fill="rgb(0%, 0%, 0%)" fill-opacity="1" d="M 110.445312 74.632812 L 106.578125 70.765625 C 106.34375 70.53125 106.296875 70.484375 106.132812 70.484375 C 105.945312 70.484375 105.757812 70.648438 105.757812 70.882812 C 105.757812 71 105.804688 71.046875 106.015625 71.257812 L 109.882812 75.171875 L 106.015625 79.0625 C 105.804688 79.273438 105.757812 79.320312 105.757812 79.460938 C 105.757812 79.671875 105.945312 79.859375 106.132812 79.859375 C 106.296875 79.859375 106.34375 79.8125 106.578125 79.578125 L 110.445312 75.710938 L 114.453125 79.742188 C 114.5 79.742188 114.640625 79.859375 114.757812 79.859375 C 114.992188 79.859375 115.132812 79.671875 115.132812 79.460938 C 115.132812 79.414062 115.132812 79.34375 115.085938 79.25 C 115.0625 79.203125 111.96875 76.15625 111.007812 75.171875 L 114.546875 71.609375 C 114.664062 71.492188 114.945312 71.234375 115.039062 71.117188 C 115.0625 71.09375 115.132812 71 115.132812 70.882812 C 115.132812 70.648438 114.992188 70.484375 114.757812 70.484375 C 114.59375 70.484375 114.523438 70.554688 114.3125 70.765625 Z M 110.445312 74.632812 "/>
<path fill-rule="nonzero" fill="rgb(0%, 0%, 0%)" fill-opacity="1" d="M 132.933594 76.671875 L 134.808594 76.671875 L 134.808594 75.523438 L 132.933594 75.523438 L 132.933594 67.296875 L 131.175781 67.296875 L 126.347656 75.523438 L 126.347656 76.671875 L 131.386719 76.671875 L 131.386719 80.023438 L 132.933594 80.023438 Z M 127.847656 75.523438 C 128.410156 74.515625 129.183594 73.273438 129.980469 71.726562 C 130.214844 71.28125 131.480469 68.890625 131.480469 68.164062 L 131.480469 75.523438 Z M 127.847656 75.523438 "/>
<path fill-rule="nonzero" fill="rgb(0%, 0%, 0%)" fill-opacity="1" d="M 162.628906 73.671875 C 162.886719 73.671875 163.238281 73.671875 163.238281 73.320312 C 163.238281 72.945312 162.910156 72.945312 162.628906 72.945312 L 151.167969 72.945312 C 150.910156 72.945312 150.558594 72.945312 150.558594 73.296875 C 150.558594 73.671875 150.886719 73.671875 151.167969 73.671875 Z M 162.628906 77.398438 C 162.886719 77.398438 163.238281 77.398438 163.238281 77.046875 C 163.238281 76.671875 162.910156 76.671875 162.628906 76.671875 L 151.167969 76.671875 C 150.910156 76.671875 150.558594 76.671875 150.558594 77.023438 C 150.558594 77.398438 150.886719 77.398438 151.167969 77.398438 Z M 162.628906 77.398438 "/>
<path fill-rule="nonzero" fill="rgb(0%, 0%, 0%)" fill-opacity="1" d="M 184.164062 66.898438 L 183.789062 66.898438 C 183.484375 67.203125 182.546875 68.117188 180.4375 68.140625 C 180.179688 68.140625 180.15625 68.164062 180.15625 68.515625 L 180.15625 69.289062 C 181.351562 69.289062 182.242188 69.007812 182.640625 68.820312 L 182.640625 78.898438 L 180.273438 78.898438 L 180.273438 80.023438 L 186.53125 80.023438 L 186.53125 78.898438 L 184.164062 78.898438 Z M 184.164062 66.898438 "/>
<path fill-rule="nonzero" fill="rgb(0%, 0%, 0%)" fill-opacity="1" d="M 188.914062 78.804688 L 188.914062 80.023438 L 196.507812 80.023438 L 196.507812 78.710938 L 193.039062 78.710938 C 192.804688 78.710938 192.570312 78.710938 192.335938 78.710938 L 190.273438 78.710938 C 190.765625 78.195312 192.570312 76.414062 193.835938 75.289062 C 195.289062 74.023438 196.507812 72.804688 196.507812 71.023438 C 196.507812 68.867188 195.007812 66.898438 192.429688 66.898438 C 190.34375 66.898438 189.265625 68.257812 188.75 70.085938 C 189.382812 70.859375 189.382812 70.882812 189.546875 71.117188 C 190.039062 69.054688 190.742188 68.09375 192.195312 68.09375 C 193.859375 68.09375 194.9375 69.40625 194.9375 71.070312 C 194.9375 72.078125 194.539062 73.203125 193.226562 74.492188 Z M 188.914062 78.804688 "/>
<path fill="none" stroke-width="0.99628" stroke-linecap="butt" stroke-linejoin="round" stroke="rgb(19.607843%, 19.607843%, 19.607843%)" stroke-opacity="1" stroke-miterlimit="10" d="M -115.036418 -14.391064 L 115.036499 -14.391064 L 115.036499 14.390186 L -115.036418 14.390186 Z M -115.036418 -14.391064 " transform="matrix(1.5, 0, 0, -1.5, 440.289001, 74.471998)"/>
<path fill-rule="nonzero" fill="rgb(0%, 0%, 0%)" fill-opacity="1" d="M 332.675781 66.496094 L 332.300781 66.496094 C 331.996094 66.800781 331.058594 67.714844 328.949219 67.738281 C 328.691406 67.738281 328.667969 67.761719 328.667969 68.113281 L 328.667969 68.886719 C 329.863281 68.886719 330.753906 68.605469 331.152344 68.417969 L 331.152344 78.496094 L 328.785156 78.496094 L 328.785156 79.621094 L 335.042969 79.621094 L 335.042969 78.496094 L 332.675781 78.496094 Z M 332.675781 66.496094 "/>
<path fill-rule="nonzero" fill="rgb(0%, 0%, 0%)" fill-opacity="1" d="M 337.429688 78.402344 L 337.429688 79.621094 L 345.023438 79.621094 L 345.023438 78.308594 L 341.554688 78.308594 C 341.320312 78.308594 341.085938 78.308594 340.851562 78.308594 L 338.789062 78.308594 C 339.28125 77.792969 341.085938 76.011719 342.351562 74.886719 C 343.804688 73.621094 345.023438 72.402344 345.023438 70.621094 C 345.023438 68.464844 343.523438 66.496094 340.945312 66.496094 C 338.859375 66.496094 337.78125 67.855469 337.265625 69.683594 C 337.898438 70.457031 337.898438 70.480469 338.0625 70.714844 C 338.554688 68.652344 339.257812 67.691406 340.710938 67.691406 C 342.375 67.691406 343.453125 69.003906 343.453125 70.667969 C 343.453125 71.675781 343.054688 72.800781 341.742188 74.089844 Z M 337.429688 78.402344 "/>
<path fill-rule="nonzero" fill="rgb(0%, 0%, 0%)" fill-opacity="1" d="M 361.984375 70.574219 C 361.984375 69.941406 361.445312 69.332031 360.71875 69.332031 C 359.992188 69.332031 359.476562 69.941406 359.476562 70.574219 C 359.476562 71.183594 360.015625 71.792969 360.71875 71.792969 C 361.46875 71.792969 361.984375 71.183594 361.984375 70.574219 Z M 361.984375 78.964844 C 361.984375 78.332031 361.445312 77.746094 360.71875 77.746094 C 359.992188 77.746094 359.476562 78.332031 359.476562 78.964844 C 359.476562 79.574219 360.015625 80.183594 360.71875 80.183594 C 361.46875 80.183594 361.984375 79.574219 361.984375 78.964844 Z M 354.929688 74.371094 C 354.601562 74.371094 354.25 74.371094 354.25 74.769531 C 354.25 75.144531 354.601562 75.144531 354.929688 75.144531 L 366.53125 75.144531 C 366.859375 75.144531 367.210938 75.144531 367.210938 74.769531 C 367.210938 74.371094 366.859375 74.371094 366.53125 74.371094 Z M 354.929688 74.371094 "/>
<path fill-rule="nonzero" fill="rgb(0%, 0%, 0%)" fill-opacity="1" d="M 382.578125 76.269531 L 384.453125 76.269531 L 384.453125 75.121094 L 382.578125 75.121094 L 382.578125 66.894531 L 380.820312 66.894531 L 375.992188 75.121094 L 375.992188 76.269531 L 381.03125 76.269531 L 381.03125 79.621094 L 382.578125 79.621094 Z M 377.492188 75.121094 C 378.054688 74.113281 378.828125 72.871094 379.625 71.324219 C 379.859375 70.878906 381.125 68.488281 381.125 67.761719 L 381.125 75.121094 Z M 377.492188 75.121094 "/>
<path fill-rule="nonzero" fill="rgb(0%, 0%, 0%)" fill-opacity="1" d="M 410.703125 73.269531 C 410.960938 73.269531 411.3125 73.269531 411.3125 72.917969 C 411.3125 72.542969 410.984375 72.542969 410.703125 72.542969 L 399.242188 72.542969 C 398.984375 72.542969 398.632812 72.542969 398.632812 72.894531 C 398.632812 73.269531 398.960938 73.269531 399.242188 73.269531 Z M 410.703125 76.996094 C 410.960938 76.996094 411.3125 76.996094 411.3125 76.644531 C 411.3125 76.269531 410.984375 76.269531 410.703125 76.269531 L 399.242188 76.269531 C 398.984375 76.269531 398.632812 76.269531 398.632812 76.621094 C 398.632812 76.996094 398.960938 76.996094 399.242188 76.996094 Z M 410.703125 76.996094 "/>
<path fill-rule="nonzero" fill="rgb(0%, 0%, 0%)" fill-opacity="1" d="M 426.699219 69.683594 C 427.191406 68.417969 428.363281 67.597656 429.675781 67.597656 C 430.660156 67.597656 431.597656 68.160156 431.597656 69.425781 C 431.597656 70.714844 430.707031 71.792969 429.652344 72.027344 C 429.558594 72.050781 428.316406 72.144531 428.128906 72.167969 L 428.128906 73.316406 L 429.511719 73.316406 C 431.503906 73.316406 431.996094 75.027344 431.996094 76.105469 C 431.996094 77.675781 431.035156 78.871094 429.652344 78.871094 C 428.410156 78.871094 426.863281 78.238281 425.972656 76.832031 L 425.761719 77.980469 C 427.027344 79.714844 428.738281 80.019531 429.675781 80.019531 C 431.949219 80.019531 433.660156 78.191406 433.660156 76.128906 C 433.660156 74.628906 432.675781 73.316406 431.035156 72.753906 C 432.394531 72.003906 433.144531 70.691406 433.144531 69.425781 C 433.144531 67.738281 431.574219 66.496094 429.675781 66.496094 C 428.128906 66.496094 426.746094 67.339844 426.019531 68.628906 Z M 426.699219 69.683594 "/>
<path fill-rule="nonzero" fill="rgb(0%, 0%, 0%)" fill-opacity="1" d="M 437.898438 79.597656 L 437.898438 78.050781 L 436.328125 78.050781 L 436.328125 79.621094 L 436.796875 79.621094 L 436.328125 82.058594 L 437.101562 82.058594 Z M 437.898438 79.597656 "/>
<path fill-rule="nonzero" fill="rgb(0%, 0%, 0%)" fill-opacity="1" d="M 451.8125 66.496094 L 451.4375 66.496094 C 451.132812 66.800781 450.195312 67.714844 448.085938 67.738281 C 447.828125 67.738281 447.804688 67.761719 447.804688 68.113281 L 447.804688 68.886719 C 449 68.886719 449.890625 68.605469 450.289062 68.417969 L 450.289062 78.496094 L 447.921875 78.496094 L 447.921875 79.621094 L 454.179688 79.621094 L 454.179688 78.496094 L 451.8125 78.496094 Z M 451.8125 66.496094 "/>
<path fill-rule="nonzero" fill="rgb(0%, 0%, 0%)" fill-opacity="1" d="M 456.566406 78.402344 L 456.566406 79.621094 L 464.160156 79.621094 L 464.160156 78.308594 L 460.691406 78.308594 C 460.457031 78.308594 460.222656 78.308594 459.988281 78.308594 L 457.925781 78.308594 C 458.417969 77.792969 460.222656 76.011719 461.488281 74.886719 C 462.941406 73.621094 464.160156 72.402344 464.160156 70.621094 C 464.160156 68.464844 462.660156 66.496094 460.082031 66.496094 C 457.996094 66.496094 456.917969 67.855469 456.402344 69.683594 C 457.035156 70.457031 457.035156 70.480469 457.199219 70.714844 C 457.691406 68.652344 458.394531 67.691406 459.847656 67.691406 C 461.511719 67.691406 462.589844 69.003906 462.589844 70.667969 C 462.589844 71.675781 462.191406 72.800781 460.878906 74.089844 Z M 456.566406 78.402344 "/>
<path fill-rule="nonzero" fill="rgb(0%, 0%, 0%)" fill-opacity="1" d="M 481.132812 70.574219 C 481.132812 69.941406 480.59375 69.332031 479.867188 69.332031 C 479.140625 69.332031 478.625 69.941406 478.625 70.574219 C 478.625 71.183594 479.164062 71.792969 479.867188 71.792969 C 480.617188 71.792969 481.132812 71.183594 481.132812 70.574219 Z M 481.132812 78.964844 C 481.132812 78.332031 480.59375 77.746094 479.867188 77.746094 C 479.140625 77.746094 478.625 78.332031 478.625 78.964844 C 478.625 79.574219 479.164062 80.183594 479.867188 80.183594 C 480.617188 80.183594 481.132812 79.574219 481.132812 78.964844 Z M 474.078125 74.371094 C 473.75 74.371094 473.398438 74.371094 473.398438 74.769531 C 473.398438 75.144531 473.75 75.144531 474.078125 75.144531 L 485.679688 75.144531 C 486.007812 75.144531 486.359375 75.144531 486.359375 74.769531 C 486.359375 74.371094 486.007812 74.371094 485.679688 74.371094 Z M 474.078125 74.371094 "/>
<path fill-rule="nonzero" fill="rgb(0%, 0%, 0%)" fill-opacity="1" d="M 496.355469 69.683594 C 496.847656 68.417969 498.019531 67.597656 499.332031 67.597656 C 500.316406 67.597656 501.253906 68.160156 501.253906 69.425781 C 501.253906 70.714844 500.363281 71.792969 499.308594 72.027344 C 499.214844 72.050781 497.972656 72.144531 497.785156 72.167969 L 497.785156 73.316406 L 499.167969 73.316406 C 501.160156 73.316406 501.652344 75.027344 501.652344 76.105469 C 501.652344 77.675781 500.691406 78.871094 499.308594 78.871094 C 498.066406 78.871094 496.519531 78.238281 495.628906 76.832031 L 495.417969 77.980469 C 496.683594 79.714844 498.394531 80.019531 499.332031 80.019531 C 501.605469 80.019531 503.316406 78.191406 503.316406 76.128906 C 503.316406 74.628906 502.332031 73.316406 500.691406 72.753906 C 502.050781 72.003906 502.800781 70.691406 502.800781 69.425781 C 502.800781 67.738281 501.230469 66.496094 499.332031 66.496094 C 497.785156 66.496094 496.402344 67.339844 495.675781 68.628906 Z M 496.355469 69.683594 "/>
<path fill-rule="nonzero" fill="rgb(0%, 0%, 0%)" fill-opacity="1" d="M 529.847656 73.269531 C 530.105469 73.269531 530.457031 73.269531 530.457031 72.917969 C 530.457031 72.542969 530.128906 72.542969 529.847656 72.542969 L 518.386719 72.542969 C 518.128906 72.542969 517.777344 72.542969 517.777344 72.894531 C 517.777344 73.269531 518.105469 73.269531 518.386719 73.269531 Z M 529.847656 76.996094 C 530.105469 76.996094 530.457031 76.996094 530.457031 76.644531 C 530.457031 76.269531 530.128906 76.269531 529.847656 76.269531 L 518.386719 76.269531 C 518.128906 76.269531 517.777344 76.269531 517.777344 76.621094 C 517.777344 76.996094 518.105469 76.996094 518.386719 76.996094 Z M 529.847656 76.996094 "/>
<path fill-rule="nonzero" fill="rgb(0%, 0%, 0%)" fill-opacity="1" d="M 551.207031 76.269531 L 553.082031 76.269531 L 553.082031 75.121094 L 551.207031 75.121094 L 551.207031 66.894531 L 549.449219 66.894531 L 544.621094 75.121094 L 544.621094 76.269531 L 549.660156 76.269531 L 549.660156 79.621094 L 551.207031 79.621094 Z M 546.121094 75.121094 C 546.683594 74.113281 547.457031 72.871094 548.253906 71.324219 C 548.488281 70.878906 549.753906 68.488281 549.753906 67.761719 L 549.753906 75.121094 Z M 546.121094 75.121094 "/>
<path fill="none" stroke-width="0.99628" stroke-linecap="butt" stroke-linejoin="round" stroke="rgb(19.607843%, 19.607843%, 19.607843%)" stroke-opacity="1" stroke-miterlimit="10" d="M -86.256439 -23.028142 L 86.256582 -23.028142 L 86.256582 23.023941 L -86.256439 23.023941 Z M -86.256439 -23.028142 " transform="matrix(1.5, 0, 0, -1.5, 138.349503, 130.594505)"/>
<path fill-rule="nonzero" fill="rgb(0%, 0%, 0%)" fill-opacity="1" d="M 82.832031 134.929688 L 82.832031 136.148438 L 90.425781 136.148438 L 90.425781 134.835938 L 86.957031 134.835938 C 86.722656 134.835938 86.488281 134.835938 86.253906 134.835938 L 84.191406 134.835938 C 84.683594 134.320312 86.488281 132.539062 87.753906 131.414062 C 89.207031 130.148438 90.425781 128.929688 90.425781 127.148438 C 90.425781 124.992188 88.925781 123.023438 86.347656 123.023438 C 84.261719 123.023438 83.183594 124.382812 82.667969 126.210938 C 83.300781 126.984375 83.300781 127.007812 83.464844 127.242188 C 83.957031 125.179688 84.660156 124.21875 86.113281 124.21875 C 87.777344 124.21875 88.855469 125.53125 88.855469 127.195312 C 88.855469 128.203125 88.457031 129.328125 87.144531 130.617188 Z M 82.832031 134.929688 "/>
<path fill-rule="nonzero" fill="rgb(0%, 0%, 0%)" fill-opacity="1" d="M 106.902344 130.757812 L 103.035156 126.890625 C 102.800781 126.65625 102.753906 126.609375 102.589844 126.609375 C 102.402344 126.609375 102.214844 126.773438 102.214844 127.007812 C 102.214844 127.125 102.261719 127.171875 102.472656 127.382812 L 106.339844 131.296875 L 102.472656 135.1875 C 102.261719 135.398438 102.214844 135.445312 102.214844 135.585938 C 102.214844 135.796875 102.402344 135.984375 102.589844 135.984375 C 102.753906 135.984375 102.800781 135.9375 103.035156 135.703125 L 106.902344 131.835938 L 110.910156 135.867188 C 110.957031 135.867188 111.097656 135.984375 111.214844 135.984375 C 111.449219 135.984375 111.589844 135.796875 111.589844 135.585938 C 111.589844 135.539062 111.589844 135.46875 111.542969 135.375 C 111.519531 135.328125 108.425781 132.28125 107.464844 131.296875 L 111.003906 127.734375 C 111.121094 127.617188 111.402344 127.359375 111.496094 127.242188 C 111.519531 127.21875 111.589844 127.125 111.589844 127.007812 C 111.589844 126.773438 111.449219 126.609375 111.214844 126.609375 C 111.050781 126.609375 110.980469 126.679688 110.769531 126.890625 Z M 106.902344 130.757812 "/>
<path fill-rule="nonzero" fill="rgb(0%, 0%, 0%)" fill-opacity="1" d="M 128.507812 129.28125 C 129.726562 128.90625 130.898438 127.828125 130.898438 126.398438 C 130.898438 124.570312 129.257812 123.023438 127.195312 123.023438 C 125.0625 123.023438 123.492188 124.617188 123.492188 126.398438 C 123.492188 127.851562 124.664062 128.929688 125.882812 129.28125 C 124.3125 129.796875 123.234375 131.085938 123.234375 132.65625 C 123.234375 134.71875 124.96875 136.546875 127.171875 136.546875 C 129.46875 136.546875 131.132812 134.695312 131.132812 132.65625 C 131.132812 131.085938 130.078125 129.796875 128.507812 129.28125 Z M 127.195312 128.695312 C 125.671875 128.695312 124.828125 127.664062 124.828125 126.421875 C 124.828125 124.945312 125.882812 124.125 127.171875 124.125 C 128.578125 124.125 129.539062 124.992188 129.539062 126.421875 C 129.539062 127.710938 128.648438 128.695312 127.195312 128.695312 Z M 127.195312 135.398438 C 125.90625 135.398438 124.757812 134.460938 124.757812 132.632812 C 124.757812 130.546875 126.164062 129.84375 127.171875 129.84375 C 128.273438 129.84375 129.609375 130.617188 129.609375 132.632812 C 129.609375 134.507812 128.414062 135.398438 127.195312 135.398438 Z M 127.195312 135.398438 "/>
<path fill-rule="nonzero" fill="rgb(0%, 0%, 0%)" fill-opacity="1" d="M 159.605469 129.796875 C 159.863281 129.796875 160.214844 129.796875 160.214844 129.445312 C 160.214844 129.070312 159.886719 129.070312 159.605469 129.070312 L 148.144531 129.070312 C 147.886719 129.070312 147.535156 129.070312 147.535156 129.421875 C 147.535156 129.796875 147.863281 129.796875 148.144531 129.796875 Z M 159.605469 133.523438 C 159.863281 133.523438 160.214844 133.523438 160.214844 133.171875 C 160.214844 132.796875 159.886719 132.796875 159.605469 132.796875 L 148.144531 132.796875 C 147.886719 132.796875 147.535156 132.796875 147.535156 133.148438 C 147.535156 133.523438 147.863281 133.523438 148.144531 133.523438 Z M 159.605469 133.523438 "/>
<path fill-rule="nonzero" fill="rgb(0%, 0%, 0%)" fill-opacity="1" d="M 181.523438 123.023438 L 181.148438 123.023438 C 180.84375 123.328125 179.90625 124.242188 177.796875 124.265625 C 177.539062 124.265625 177.515625 124.289062 177.515625 124.640625 L 177.515625 125.414062 C 178.710938 125.414062 179.601562 125.132812 180 124.945312 L 180 135.023438 L 177.632812 135.023438 L 177.632812 136.148438 L 183.890625 136.148438 L 183.890625 135.023438 L 181.523438 135.023438 Z M 181.523438 123.023438 "/>
<path fill-rule="nonzero" fill="rgb(0%, 0%, 0%)" fill-opacity="1" d="M 193.214844 123.398438 C 192.417969 123.117188 191.855469 123.023438 191.175781 123.023438 C 188.550781 123.023438 186.136719 125.71875 186.136719 129.890625 C 186.136719 135.46875 188.550781 136.546875 190.097656 136.546875 C 191.269531 136.546875 192.089844 136.101562 192.863281 135.1875 C 193.730469 134.15625 194.011719 133.242188 194.011719 131.835938 C 194.011719 129.351562 192.722656 127.21875 190.941406 127.21875 C 189.511719 127.21875 188.433594 127.921875 187.707031 128.8125 C 187.917969 125.929688 189.300781 124.125 191.222656 124.125 C 192.066406 124.125 192.652344 124.3125 193.214844 124.523438 Z M 187.730469 131.90625 C 187.730469 131.765625 187.730469 131.507812 187.753906 131.367188 C 187.753906 130.007812 188.527344 128.390625 190.191406 128.390625 C 190.824219 128.390625 191.457031 128.578125 192.019531 129.539062 C 192.441406 130.3125 192.464844 131.085938 192.464844 131.859375 C 192.464844 132.65625 192.464844 133.476562 191.878906 134.367188 C 191.527344 134.882812 191.058594 135.398438 190.097656 135.398438 C 188.082031 135.398438 187.777344 132.539062 187.730469 131.90625 Z M 187.730469 131.90625 "/>
<path fill="none" stroke-width="0.99628" stroke-linecap="butt" stroke-linejoin="round" stroke="rgb(19.607843%, 19.607843%, 19.607843%)" stroke-opacity="1" stroke-miterlimit="10" d="M -115.036418 -23.028142 L 115.036499 -23.028142 L 115.036499 23.023941 L -115.036418 23.023941 Z M -115.036418 -23.028142 " transform="matrix(1.5, 0, 0, -1.5, 440.289001, 130.594505)"/>
<path fill-rule="nonzero" fill="rgb(0%, 0%, 0%)" fill-opacity="1" d="M 330.785156 110.960938 L 330.410156 110.960938 C 330.105469 111.265625 329.167969 112.179688 327.058594 112.203125 C 326.800781 112.203125 326.777344 112.226562 326.777344 112.578125 L 326.777344 113.351562 C 327.972656 113.351562 328.863281 113.070312 329.261719 112.882812 L 329.261719 122.960938 L 326.894531 122.960938 L 326.894531 124.085938 L 333.152344 124.085938 L 333.152344 122.960938 L 330.785156 122.960938 Z M 330.785156 110.960938 "/>
<path fill-rule="nonzero" fill="rgb(0%, 0%, 0%)" fill-opacity="1" d="M 342.476562 111.335938 C 341.679688 111.054688 341.117188 110.960938 340.4375 110.960938 C 337.8125 110.960938 335.398438 113.65625 335.398438 117.828125 C 335.398438 123.40625 337.8125 124.484375 339.359375 124.484375 C 340.53125 124.484375 341.351562 124.039062 342.125 123.125 C 342.992188 122.09375 343.273438 121.179688 343.273438 119.773438 C 343.273438 117.289062 341.984375 115.15625 340.203125 115.15625 C 338.773438 115.15625 337.695312 115.859375 336.96875 116.75 C 337.179688 113.867188 338.5625 112.0625 340.484375 112.0625 C 341.328125 112.0625 341.914062 112.25 342.476562 112.460938 Z M 336.992188 119.84375 C 336.992188 119.703125 336.992188 119.445312 337.015625 119.304688 C 337.015625 117.945312 337.789062 116.328125 339.453125 116.328125 C 340.085938 116.328125 340.71875 116.515625 341.28125 117.476562 C 341.703125 118.25 341.726562 119.023438 341.726562 119.796875 C 341.726562 120.59375 341.726562 121.414062 341.140625 122.304688 C 340.789062 122.820312 340.320312 123.335938 339.359375 123.335938 C 337.34375 123.335938 337.039062 120.476562 336.992188 119.84375 Z M 336.992188 119.84375 "/>
<path fill-rule="nonzero" fill="rgb(0%, 0%, 0%)" fill-opacity="1" d="M 359.988281 115.039062 C 359.988281 114.40625 359.449219 113.796875 358.722656 113.796875 C 357.996094 113.796875 357.480469 114.40625 357.480469 115.039062 C 357.480469 115.648438 358.019531 116.257812 358.722656 116.257812 C 359.472656 116.257812 359.988281 115.648438 359.988281 115.039062 Z M 359.988281 123.429688 C 359.988281 122.796875 359.449219 122.210938 358.722656 122.210938 C 357.996094 122.210938 357.480469 122.796875 357.480469 123.429688 C 357.480469 124.039062 358.019531 124.648438 358.722656 124.648438 C 359.472656 124.648438 359.988281 124.039062 359.988281 123.429688 Z M 352.933594 118.835938 C 352.605469 118.835938 352.253906 118.835938 352.253906 119.234375 C 352.253906 119.609375 352.605469 119.609375 352.933594 119.609375 L 364.535156 119.609375 C 364.863281 119.609375 365.214844 119.609375 365.214844 119.234375 C 365.214844 118.835938 364.863281 118.835938 364.535156 118.835938 Z M 352.933594 118.835938 "/>
<path fill-rule="nonzero" fill="rgb(0%, 0%, 0%)" fill-opacity="1" d="M 374.332031 122.867188 L 374.332031 124.085938 L 381.925781 124.085938 L 381.925781 122.773438 L 378.457031 122.773438 C 378.222656 122.773438 377.988281 122.773438 377.753906 122.773438 L 375.691406 122.773438 C 376.183594 122.257812 377.988281 120.476562 379.253906 119.351562 C 380.707031 118.085938 381.925781 116.867188 381.925781 115.085938 C 381.925781 112.929688 380.425781 110.960938 377.847656 110.960938 C 375.761719 110.960938 374.683594 112.320312 374.167969 114.148438 C 374.800781 114.921875 374.800781 114.945312 374.964844 115.179688 C 375.457031 113.117188 376.160156 112.15625 377.613281 112.15625 C 379.277344 112.15625 380.355469 113.46875 380.355469 115.132812 C 380.355469 116.140625 379.957031 117.265625 378.644531 118.554688 Z M 374.332031 122.867188 "/>
<path fill-rule="nonzero" fill="rgb(0%, 0%, 0%)" fill-opacity="1" d="M 408.324219 117.734375 C 408.582031 117.734375 408.933594 117.734375 408.933594 117.382812 C 408.933594 117.007812 408.605469 117.007812 408.324219 117.007812 L 396.863281 117.007812 C 396.605469 117.007812 396.253906 117.007812 396.253906 117.359375 C 396.253906 117.734375 396.582031 117.734375 396.863281 117.734375 Z M 408.324219 121.460938 C 408.582031 121.460938 408.933594 121.460938 408.933594 121.109375 C 408.933594 120.734375 408.605469 120.734375 408.324219 120.734375 L 396.863281 120.734375 C 396.605469 120.734375 396.253906 120.734375 396.253906 121.085938 C 396.253906 121.460938 396.582031 121.460938 396.863281 121.460938 Z M 408.324219 121.460938 "/>
<path fill-rule="nonzero" fill="rgb(0%, 0%, 0%)" fill-opacity="1" d="M 428.402344 117.21875 C 429.621094 116.84375 430.792969 115.765625 430.792969 114.335938 C 430.792969 112.507812 429.152344 110.960938 427.089844 110.960938 C 424.957031 110.960938 423.386719 112.554688 423.386719 114.335938 C 423.386719 115.789062 424.558594 116.867188 425.777344 117.21875 C 424.207031 117.734375 423.128906 119.023438 423.128906 120.59375 C 423.128906 122.65625 424.863281 124.484375 427.066406 124.484375 C 429.363281 124.484375 431.027344 122.632812 431.027344 120.59375 C 431.027344 119.023438 429.972656 117.734375 428.402344 117.21875 Z M 427.089844 116.632812 C 425.566406 116.632812 424.722656 115.601562 424.722656 114.359375 C 424.722656 112.882812 425.777344 112.0625 427.066406 112.0625 C 428.472656 112.0625 429.433594 112.929688 429.433594 114.359375 C 429.433594 115.648438 428.542969 116.632812 427.089844 116.632812 Z M 427.089844 123.335938 C 425.800781 123.335938 424.652344 122.398438 424.652344 120.570312 C 424.652344 118.484375 426.058594 117.78125 427.066406 117.78125 C 428.167969 117.78125 429.503906 118.554688 429.503906 120.570312 C 429.503906 122.445312 428.308594 123.335938 427.089844 123.335938 Z M 427.089844 123.335938 "/>
<path fill-rule="nonzero" fill="rgb(0%, 0%, 0%)" fill-opacity="1" d="M 435.246094 124.0625 L 435.246094 122.515625 L 433.675781 122.515625 L 433.675781 124.085938 L 434.144531 124.085938 L 433.675781 126.523438 L 434.449219 126.523438 Z M 435.246094 124.0625 "/>
<path fill-rule="nonzero" fill="rgb(0%, 0%, 0%)" fill-opacity="1" d="M 449.179688 110.960938 L 448.804688 110.960938 C 448.5 111.265625 447.5625 112.179688 445.453125 112.203125 C 445.195312 112.203125 445.171875 112.226562 445.171875 112.578125 L 445.171875 113.351562 C 446.367188 113.351562 447.257812 113.070312 447.65625 112.882812 L 447.65625 122.960938 L 445.289062 122.960938 L 445.289062 124.085938 L 451.546875 124.085938 L 451.546875 122.960938 L 449.179688 122.960938 Z M 449.179688 110.960938 "/>
<path fill-rule="nonzero" fill="rgb(0%, 0%, 0%)" fill-opacity="1" d="M 460.871094 111.335938 C 460.074219 111.054688 459.511719 110.960938 458.832031 110.960938 C 456.207031 110.960938 453.792969 113.65625 453.792969 117.828125 C 453.792969 123.40625 456.207031 124.484375 457.753906 124.484375 C 458.925781 124.484375 459.746094 124.039062 460.519531 123.125 C 461.386719 122.09375 461.667969 121.179688 461.667969 119.773438 C 461.667969 117.289062 460.378906 115.15625 458.597656 115.15625 C 457.167969 115.15625 456.089844 115.859375 455.363281 116.75 C 455.574219 113.867188 456.957031 112.0625 458.878906 112.0625 C 459.722656 112.0625 460.308594 112.25 460.871094 112.460938 Z M 455.386719 119.84375 C 455.386719 119.703125 455.386719 119.445312 455.410156 119.304688 C 455.410156 117.945312 456.183594 116.328125 457.847656 116.328125 C 458.480469 116.328125 459.113281 116.515625 459.675781 117.476562 C 460.097656 118.25 460.121094 119.023438 460.121094 119.796875 C 460.121094 120.59375 460.121094 121.414062 459.535156 122.304688 C 459.183594 122.820312 458.714844 123.335938 457.753906 123.335938 C 455.738281 123.335938 455.433594 120.476562 455.386719 119.84375 Z M 455.386719 119.84375 "/>
<path fill-rule="nonzero" fill="rgb(0%, 0%, 0%)" fill-opacity="1" d="M 478.382812 115.039062 C 478.382812 114.40625 477.84375 113.796875 477.117188 113.796875 C 476.390625 113.796875 475.875 114.40625 475.875 115.039062 C 475.875 115.648438 476.414062 116.257812 477.117188 116.257812 C 477.867188 116.257812 478.382812 115.648438 478.382812 115.039062 Z M 478.382812 123.429688 C 478.382812 122.796875 477.84375 122.210938 477.117188 122.210938 C 476.390625 122.210938 475.875 122.796875 475.875 123.429688 C 475.875 124.039062 476.414062 124.648438 477.117188 124.648438 C 477.867188 124.648438 478.382812 124.039062 478.382812 123.429688 Z M 471.328125 118.835938 C 471 118.835938 470.648438 118.835938 470.648438 119.234375 C 470.648438 119.609375 471 119.609375 471.328125 119.609375 L 482.929688 119.609375 C 483.257812 119.609375 483.609375 119.609375 483.609375 119.234375 C 483.609375 118.835938 483.257812 118.835938 482.929688 118.835938 Z M 471.328125 118.835938 "/>
<path fill-rule="nonzero" fill="rgb(0%, 0%, 0%)" fill-opacity="1" d="M 497.835938 117.21875 C 499.054688 116.84375 500.226562 115.765625 500.226562 114.335938 C 500.226562 112.507812 498.585938 110.960938 496.523438 110.960938 C 494.390625 110.960938 492.820312 112.554688 492.820312 114.335938 C 492.820312 115.789062 493.992188 116.867188 495.210938 117.21875 C 493.640625 117.734375 492.5625 119.023438 492.5625 120.59375 C 492.5625 122.65625 494.296875 124.484375 496.5 124.484375 C 498.796875 124.484375 500.460938 122.632812 500.460938 120.59375 C 500.460938 119.023438 499.40625 117.734375 497.835938 117.21875 Z M 496.523438 116.632812 C 495 116.632812 494.15625 115.601562 494.15625 114.359375 C 494.15625 112.882812 495.210938 112.0625 496.5 112.0625 C 497.90625 112.0625 498.867188 112.929688 498.867188 114.359375 C 498.867188 115.648438 497.976562 116.632812 496.523438 116.632812 Z M 496.523438 123.335938 C 495.234375 123.335938 494.085938 122.398438 494.085938 120.570312 C 494.085938 118.484375 495.492188 117.78125 496.5 117.78125 C 497.601562 117.78125 498.9375 118.554688 498.9375 120.570312 C 498.9375 122.445312 497.742188 123.335938 496.523438 123.335938 Z M 496.523438 123.335938 "/>
<path fill-rule="nonzero" fill="rgb(0%, 0%, 0%)" fill-opacity="1" d="M 526.71875 117.734375 C 526.976562 117.734375 527.328125 117.734375 527.328125 117.382812 C 527.328125 117.007812 527 117.007812 526.71875 117.007812 L 515.257812 117.007812 C 515 117.007812 514.648438 117.007812 514.648438 117.359375 C 514.648438 117.734375 514.976562 117.734375 515.257812 117.734375 Z M 526.71875 121.460938 C 526.976562 121.460938 527.328125 121.460938 527.328125 121.109375 C 527.328125 120.734375 527 120.734375 526.71875 120.734375 L 515.257812 120.734375 C 515 120.734375 514.648438 120.734375 514.648438 121.085938 C 514.648438 121.460938 514.976562 121.460938 515.257812 121.460938 Z M 526.71875 121.460938 "/>
<path fill-rule="nonzero" fill="rgb(0%, 0%, 0%)" fill-opacity="1" d="M 541.6875 122.867188 L 541.6875 124.085938 L 549.28125 124.085938 L 549.28125 122.773438 L 545.8125 122.773438 C 545.578125 122.773438 545.34375 122.773438 545.109375 122.773438 L 543.046875 122.773438 C 543.539062 122.257812 545.34375 120.476562 546.609375 119.351562 C 548.0625 118.085938 549.28125 116.867188 549.28125 115.085938 C 549.28125 112.929688 547.78125 110.960938 545.203125 110.960938 C 543.117188 110.960938 542.039062 112.320312 541.523438 114.148438 C 542.15625 114.921875 542.15625 114.945312 542.320312 115.179688 C 542.8125 113.117188 543.515625 112.15625 544.96875 112.15625 C 546.632812 112.15625 547.710938 113.46875 547.710938 115.132812 C 547.710938 116.140625 547.3125 117.265625 546 118.554688 Z M 541.6875 122.867188 "/>
<path fill-rule="nonzero" fill="rgb(0%, 0%, 0%)" fill-opacity="1" d="M 553.640625 124.0625 L 553.640625 122.515625 L 552.070312 122.515625 L 552.070312 124.085938 L 552.539062 124.085938 L 552.070312 126.523438 L 552.84375 126.523438 Z M 553.640625 124.0625 "/>
<path fill-rule="nonzero" fill="rgb(0%, 0%, 0%)" fill-opacity="1" d="M 333.027344 140.53125 C 334.246094 140.15625 335.417969 139.078125 335.417969 137.648438 C 335.417969 135.820312 333.777344 134.273438 331.714844 134.273438 C 329.582031 134.273438 328.011719 135.867188 328.011719 137.648438 C 328.011719 139.101562 329.183594 140.179688 330.402344 140.53125 C 328.832031 141.046875 327.753906 142.335938 327.753906 143.90625 C 327.753906 145.96875 329.488281 147.796875 331.691406 147.796875 C 333.988281 147.796875 335.652344 145.945312 335.652344 143.90625 C 335.652344 142.335938 334.597656 141.046875 333.027344 140.53125 Z M 331.714844 139.945312 C 330.191406 139.945312 329.347656 138.914062 329.347656 137.671875 C 329.347656 136.195312 330.402344 135.375 331.691406 135.375 C 333.097656 135.375 334.058594 136.242188 334.058594 137.671875 C 334.058594 138.960938 333.167969 139.945312 331.714844 139.945312 Z M 331.714844 146.648438 C 330.425781 146.648438 329.277344 145.710938 329.277344 143.882812 C 329.277344 141.796875 330.683594 141.09375 331.691406 141.09375 C 332.792969 141.09375 334.128906 141.867188 334.128906 143.882812 C 334.128906 145.757812 332.933594 146.648438 331.714844 146.648438 Z M 331.714844 146.648438 "/>
<path fill-rule="nonzero" fill="rgb(0%, 0%, 0%)" fill-opacity="1" d="M 362.183594 141.046875 C 362.441406 141.046875 362.792969 141.046875 362.792969 140.695312 C 362.792969 140.320312 362.464844 140.320312 362.183594 140.320312 L 350.722656 140.320312 C 350.464844 140.320312 350.113281 140.320312 350.113281 140.671875 C 350.113281 141.046875 350.441406 141.046875 350.722656 141.046875 Z M 362.183594 144.773438 C 362.441406 144.773438 362.792969 144.773438 362.792969 144.421875 C 362.792969 144.046875 362.464844 144.046875 362.183594 144.046875 L 350.722656 144.046875 C 350.464844 144.046875 350.113281 144.046875 350.113281 144.398438 C 350.113281 144.773438 350.441406 144.773438 350.722656 144.773438 Z M 362.183594 144.773438 "/>
<path fill-rule="nonzero" fill="rgb(0%, 0%, 0%)" fill-opacity="1" d="M 382.160156 134.273438 L 381.785156 134.273438 C 381.480469 134.578125 380.542969 135.492188 378.433594 135.515625 C 378.175781 135.515625 378.152344 135.539062 378.152344 135.890625 L 378.152344 136.664062 C 379.347656 136.664062 380.238281 136.382812 380.636719 136.195312 L 380.636719 146.273438 L 378.269531 146.273438 L 378.269531 147.398438 L 384.527344 147.398438 L 384.527344 146.273438 L 382.160156 146.273438 Z M 382.160156 134.273438 "/>
<path fill-rule="nonzero" fill="rgb(0%, 0%, 0%)" fill-opacity="1" d="M 393.851562 134.648438 C 393.054688 134.367188 392.492188 134.273438 391.8125 134.273438 C 389.1875 134.273438 386.773438 136.96875 386.773438 141.140625 C 386.773438 146.71875 389.1875 147.796875 390.734375 147.796875 C 391.90625 147.796875 392.726562 147.351562 393.5 146.4375 C 394.367188 145.40625 394.648438 144.492188 394.648438 143.085938 C 394.648438 140.601562 393.359375 138.46875 391.578125 138.46875 C 390.148438 138.46875 389.070312 139.171875 388.34375 140.0625 C 388.554688 137.179688 389.9375 135.375 391.859375 135.375 C 392.703125 135.375 393.289062 135.5625 393.851562 135.773438 Z M 388.367188 143.15625 C 388.367188 143.015625 388.367188 142.757812 388.390625 142.617188 C 388.390625 141.257812 389.164062 139.640625 390.828125 139.640625 C 391.460938 139.640625 392.09375 139.828125 392.65625 140.789062 C 393.078125 141.5625 393.101562 142.335938 393.101562 143.109375 C 393.101562 143.90625 393.101562 144.726562 392.515625 145.617188 C 392.164062 146.132812 391.695312 146.648438 390.734375 146.648438 C 388.71875 146.648438 388.414062 143.789062 388.367188 143.15625 Z M 388.367188 143.15625 "/>
<path fill-rule="nonzero" fill="rgb(0%, 0%, 0%)" fill-opacity="1" d="M 411.472656 138.351562 C 411.472656 137.71875 410.933594 137.109375 410.207031 137.109375 C 409.480469 137.109375 408.964844 137.71875 408.964844 138.351562 C 408.964844 138.960938 409.503906 139.570312 410.207031 139.570312 C 410.957031 139.570312 411.472656 138.960938 411.472656 138.351562 Z M 411.472656 146.742188 C 411.472656 146.109375 410.933594 145.523438 410.207031 145.523438 C 409.480469 145.523438 408.964844 146.109375 408.964844 146.742188 C 408.964844 147.351562 409.503906 147.960938 410.207031 147.960938 C 410.957031 147.960938 411.472656 147.351562 411.472656 146.742188 Z M 404.417969 142.148438 C 404.089844 142.148438 403.738281 142.148438 403.738281 142.546875 C 403.738281 142.921875 404.089844 142.921875 404.417969 142.921875 L 416.019531 142.921875 C 416.347656 142.921875 416.699219 142.921875 416.699219 142.546875 C 416.699219 142.148438 416.347656 142.148438 416.019531 142.148438 Z M 404.417969 142.148438 "/>
<path fill-rule="nonzero" fill="rgb(0%, 0%, 0%)" fill-opacity="1" d="M 425.925781 146.179688 L 425.925781 147.398438 L 433.519531 147.398438 L 433.519531 146.085938 L 430.050781 146.085938 C 429.816406 146.085938 429.582031 146.085938 429.347656 146.085938 L 427.285156 146.085938 C 427.777344 145.570312 429.582031 143.789062 430.847656 142.664062 C 432.300781 141.398438 433.519531 140.179688 433.519531 138.398438 C 433.519531 136.242188 432.019531 134.273438 429.441406 134.273438 C 427.355469 134.273438 426.277344 135.632812 425.761719 137.460938 C 426.394531 138.234375 426.394531 138.257812 426.558594 138.492188 C 427.050781 136.429688 427.753906 135.46875 429.207031 135.46875 C 430.871094 135.46875 431.949219 136.78125 431.949219 138.445312 C 431.949219 139.453125 431.550781 140.578125 430.238281 141.867188 Z M 425.925781 146.179688 "/>
<path fill-rule="nonzero" fill="rgb(0%, 0%, 0%)" fill-opacity="1" d="M 437.898438 147.375 L 437.898438 145.828125 L 436.328125 145.828125 L 436.328125 147.398438 L 436.796875 147.398438 L 436.328125 149.835938 L 437.101562 149.835938 Z M 437.898438 147.375 "/>
<path fill-rule="nonzero" fill="rgb(0%, 0%, 0%)" fill-opacity="1" d="M 447.054688 146.179688 L 447.054688 147.398438 L 454.648438 147.398438 L 454.648438 146.085938 L 451.179688 146.085938 C 450.945312 146.085938 450.710938 146.085938 450.476562 146.085938 L 448.414062 146.085938 C 448.90625 145.570312 450.710938 143.789062 451.976562 142.664062 C 453.429688 141.398438 454.648438 140.179688 454.648438 138.398438 C 454.648438 136.242188 453.148438 134.273438 450.570312 134.273438 C 448.484375 134.273438 447.40625 135.632812 446.890625 137.460938 C 447.523438 138.234375 447.523438 138.257812 447.6875 138.492188 C 448.179688 136.429688 448.882812 135.46875 450.335938 135.46875 C 452 135.46875 453.078125 136.78125 453.078125 138.445312 C 453.078125 139.453125 452.679688 140.578125 451.367188 141.867188 Z M 447.054688 146.179688 "/>
<path fill-rule="nonzero" fill="rgb(0%, 0%, 0%)" fill-opacity="1" d="M 481.320312 141.046875 C 481.578125 141.046875 481.929688 141.046875 481.929688 140.695312 C 481.929688 140.320312 481.601562 140.320312 481.320312 140.320312 L 469.859375 140.320312 C 469.601562 140.320312 469.25 140.320312 469.25 140.671875 C 469.25 141.046875 469.578125 141.046875 469.859375 141.046875 Z M 481.320312 144.773438 C 481.578125 144.773438 481.929688 144.773438 481.929688 144.421875 C 481.929688 144.046875 481.601562 144.046875 481.320312 144.046875 L 469.859375 144.046875 C 469.601562 144.046875 469.25 144.046875 469.25 144.398438 C 469.25 144.773438 469.578125 144.773438 469.859375 144.773438 Z M 481.320312 144.773438 "/>
<path fill-rule="nonzero" fill="rgb(0%, 0%, 0%)" fill-opacity="1" d="M 501.296875 134.273438 L 500.921875 134.273438 C 500.617188 134.578125 499.679688 135.492188 497.570312 135.515625 C 497.3125 135.515625 497.289062 135.539062 497.289062 135.890625 L 497.289062 136.664062 C 498.484375 136.664062 499.375 136.382812 499.773438 136.195312 L 499.773438 146.273438 L 497.40625 146.273438 L 497.40625 147.398438 L 503.664062 147.398438 L 503.664062 146.273438 L 501.296875 146.273438 Z M 501.296875 134.273438 "/>
<path fill-rule="nonzero" fill="rgb(0%, 0%, 0%)" fill-opacity="1" d="M 512.988281 134.648438 C 512.191406 134.367188 511.628906 134.273438 510.949219 134.273438 C 508.324219 134.273438 505.910156 136.96875 505.910156 141.140625 C 505.910156 146.71875 508.324219 147.796875 509.871094 147.796875 C 511.042969 147.796875 511.863281 147.351562 512.636719 146.4375 C 513.503906 145.40625 513.785156 144.492188 513.785156 143.085938 C 513.785156 140.601562 512.496094 138.46875 510.714844 138.46875 C 509.285156 138.46875 508.207031 139.171875 507.480469 140.0625 C 507.691406 137.179688 509.074219 135.375 510.996094 135.375 C 511.839844 135.375 512.425781 135.5625 512.988281 135.773438 Z M 507.503906 143.15625 C 507.503906 143.015625 507.503906 142.757812 507.527344 142.617188 C 507.527344 141.257812 508.300781 139.640625 509.964844 139.640625 C 510.597656 139.640625 511.230469 139.828125 511.792969 140.789062 C 512.214844 141.5625 512.238281 142.335938 512.238281 143.109375 C 512.238281 143.90625 512.238281 144.726562 511.652344 145.617188 C 511.300781 146.132812 510.832031 146.648438 509.871094 146.648438 C 507.855469 146.648438 507.550781 143.789062 507.503906 143.15625 Z M 507.503906 143.15625 "/>
<path fill-rule="nonzero" fill="rgb(0%, 0%, 0%)" fill-opacity="1" d="M 530.617188 138.351562 C 530.617188 137.71875 530.078125 137.109375 529.351562 137.109375 C 528.625 137.109375 528.109375 137.71875 528.109375 138.351562 C 528.109375 138.960938 528.648438 139.570312 529.351562 139.570312 C 530.101562 139.570312 530.617188 138.960938 530.617188 138.351562 Z M 530.617188 146.742188 C 530.617188 146.109375 530.078125 145.523438 529.351562 145.523438 C 528.625 145.523438 528.109375 146.109375 528.109375 146.742188 C 528.109375 147.351562 528.648438 147.960938 529.351562 147.960938 C 530.101562 147.960938 530.617188 147.351562 530.617188 146.742188 Z M 523.5625 142.148438 C 523.234375 142.148438 522.882812 142.148438 522.882812 142.546875 C 522.882812 142.921875 523.234375 142.921875 523.5625 142.921875 L 535.164062 142.921875 C 535.492188 142.921875 535.84375 142.921875 535.84375 142.546875 C 535.84375 142.148438 535.492188 142.148438 535.164062 142.148438 Z M 523.5625 142.148438 "/>
<path fill-rule="nonzero" fill="rgb(0%, 0%, 0%)" fill-opacity="1" d="M 550.179688 140.53125 C 551.398438 140.15625 552.570312 139.078125 552.570312 137.648438 C 552.570312 135.820312 550.929688 134.273438 548.867188 134.273438 C 546.734375 134.273438 545.164062 135.867188 545.164062 137.648438 C 545.164062 139.101562 546.335938 140.179688 547.554688 140.53125 C 545.984375 141.046875 544.90625 142.335938 544.90625 143.90625 C 544.90625 145.96875 546.640625 147.796875 548.84375 147.796875 C 551.140625 147.796875 552.804688 145.945312 552.804688 143.90625 C 552.804688 142.335938 551.75 141.046875 550.179688 140.53125 Z M 548.867188 139.945312 C 547.34375 139.945312 546.5 138.914062 546.5 137.671875 C 546.5 136.195312 547.554688 135.375 548.84375 135.375 C 550.25 135.375 551.210938 136.242188 551.210938 137.671875 C 551.210938 138.960938 550.320312 139.945312 548.867188 139.945312 Z M 548.867188 146.648438 C 547.578125 146.648438 546.429688 145.710938 546.429688 143.882812 C 546.429688 141.796875 547.835938 141.09375 548.84375 141.09375 C 549.945312 141.09375 551.28125 141.867188 551.28125 143.882812 C 551.28125 145.757812 550.085938 146.648438 548.867188 146.648438 Z M 548.867188 146.648438 "/>
</svg>
