<?xml version="1.0" encoding="UTF-8"?>
<svg xmlns="http://www.w3.org/2000/svg" xmlns:xlink="http://www.w3.org/1999/xlink" width="552.736496" height="173.350502" viewBox="0 0 552.736496 173.350502">
<path fill="none" stroke-width="1.99255" stroke-linecap="butt" stroke-linejoin="round" stroke="rgb(19.607843%, 19.607843%, 19.607843%)" stroke-opacity="1" stroke-miterlimit="10" d="M -63.232437 -14.388813 L 63.231105 -14.388813 L 63.231105 14.392437 L -63.232437 14.392437 Z M -63.232437 -14.388813 " transform="matrix(1.5, 0, 0, -1.5, 103.813499, 30.553499)"/>
<path fill-rule="nonzero" fill="rgb(0%, 0%, 0%)" fill-opacity="1" d="M 56.128906 26.832031 C 55.707031 26.738281 54.488281 26.292969 54.488281 25.191406 C 54.488281 23.527344 56.152344 23.503906 56.808594 23.503906 C 57.886719 23.503906 58.871094 23.761719 59.808594 24.675781 C 60.136719 24.980469 60.136719 25.003906 60.230469 25.003906 C 60.347656 25.003906 60.441406 24.933594 60.488281 24.652344 L 60.792969 22.964844 C 60.816406 22.800781 60.816406 22.753906 60.816406 22.707031 C 60.816406 22.542969 60.816406 22.519531 60.324219 22.285156 C 58.941406 21.605469 57.792969 21.488281 56.808594 21.488281 C 55.074219 21.488281 52.074219 21.910156 52.074219 25.542969 C 52.074219 26.925781 52.777344 27.816406 53.152344 28.191406 C 54.136719 29.222656 55.050781 29.410156 56.574219 29.761719 C 57.652344 30.019531 58.097656 30.113281 58.519531 30.488281 C 58.707031 30.699219 59.105469 31.097656 59.105469 31.824219 C 59.105469 33.652344 57.441406 33.722656 56.808594 33.722656 C 55.167969 33.722656 53.761719 33.066406 52.777344 32.175781 C 52.542969 31.941406 52.519531 31.941406 52.425781 31.941406 C 52.308594 31.941406 52.214844 32.011719 52.167969 32.292969 L 51.863281 33.980469 C 51.839844 34.144531 51.839844 34.191406 51.839844 34.238281 C 51.839844 34.660156 53.855469 35.363281 53.949219 35.386719 C 55.261719 35.808594 56.292969 35.832031 56.808594 35.832031 C 59.714844 35.832031 61.542969 34.542969 61.542969 31.519531 C 61.542969 29.339844 59.925781 27.722656 57.980469 27.277344 Z M 56.128906 26.832031 "/>
<path fill-rule="nonzero" fill="rgb(0%, 0%, 0%)" fill-opacity="1" d="M 64.746094 21.910156 C 64.113281 21.910156 63.808594 22.027344 63.808594 22.800781 L 63.808594 23.691406 C 63.808594 24.324219 63.996094 24.558594 64.722656 24.558594 L 65.730469 24.558594 C 66.667969 24.558594 66.667969 24.160156 66.667969 23.246094 C 66.667969 22.308594 66.667969 21.910156 65.730469 21.910156 Z M 66.527344 27.441406 C 66.527344 26.832031 66.386719 26.503906 65.589844 26.503906 L 64.863281 26.503906 C 64.183594 26.503906 63.949219 26.714844 63.949219 27.441406 L 63.949219 34.472656 C 63.949219 35.175781 64.160156 35.410156 64.863281 35.410156 L 65.589844 35.410156 C 66.339844 35.410156 66.527344 35.152344 66.527344 34.472656 Z M 66.527344 27.441406 "/>
<path fill-rule="nonzero" fill="rgb(0%, 0%, 0%)" fill-opacity="1" d="M 82.535156 32.667969 C 82.535156 31.589844 81.949219 30.910156 81.597656 30.582031 C 80.824219 29.902344 80.144531 29.785156 79.324219 29.621094 C 78.269531 29.433594 77.496094 29.269531 77.496094 28.519531 C 77.496094 27.722656 78.128906 27.558594 78.878906 27.558594 C 80.191406 27.558594 80.894531 28.050781 81.386719 28.472656 C 81.597656 28.660156 81.621094 28.660156 81.714844 28.660156 C 81.902344 28.660156 81.949219 28.496094 81.949219 28.425781 C 81.996094 28.261719 82.183594 27.183594 82.183594 27.066406 C 82.183594 26.761719 81.152344 26.480469 80.941406 26.410156 C 80.167969 26.199219 79.558594 26.175781 79.042969 26.175781 C 78.175781 26.175781 75.574219 26.175781 75.574219 28.964844 C 75.574219 29.902344 75.996094 30.488281 76.511719 30.957031 C 77.191406 31.589844 77.964844 31.707031 79.066406 31.941406 C 79.628906 32.035156 80.613281 32.199219 80.613281 33.066406 C 80.613281 33.980469 79.863281 34.097656 79.113281 34.097656 C 78.246094 34.097656 77.167969 33.863281 76.253906 32.761719 C 76.160156 32.667969 76.089844 32.621094 75.972656 32.621094 C 75.785156 32.621094 75.738281 32.785156 75.714844 32.902344 C 75.691406 33.183594 75.457031 34.285156 75.457031 34.472656 C 75.457031 34.824219 76.886719 35.269531 76.910156 35.292969 C 77.964844 35.621094 78.761719 35.621094 79.113281 35.621094 C 80.097656 35.621094 82.535156 35.550781 82.535156 32.667969 Z M 82.535156 32.667969 "/>
<path fill-rule="nonzero" fill="rgb(0%, 0%, 0%)" fill-opacity="1" d="M 91.324219 22.472656 C 91.417969 22.402344 91.535156 22.285156 91.535156 22.167969 C 91.535156 21.933594 91.324219 21.933594 90.996094 21.933594 L 89.402344 21.933594 C 89.027344 21.933594 89.003906 21.957031 88.839844 22.167969 L 87.152344 24.441406 C 86.988281 24.652344 86.988281 24.675781 86.988281 24.722656 C 86.988281 24.980469 87.199219 24.980469 87.503906 24.980469 L 88.230469 24.980469 Z M 91.324219 22.472656 "/>
<path fill-rule="nonzero" fill="rgb(0%, 0%, 0%)" fill-opacity="1" d="M 91.40625 31.261719 C 91.851562 31.261719 92.34375 31.238281 92.34375 30.347656 C 92.34375 27.863281 91.171875 26.175781 88.289062 26.175781 C 85.171875 26.175781 83.648438 27.933594 83.648438 30.886719 C 83.648438 34.074219 85.476562 35.621094 88.546875 35.621094 C 89.273438 35.621094 90.375 35.527344 91.664062 34.894531 C 92.085938 34.660156 92.226562 34.613281 92.226562 34.378906 C 92.226562 34.238281 92.179688 33.675781 92.15625 33.535156 C 92.0625 32.925781 92.0625 32.902344 91.875 32.902344 C 91.804688 32.902344 91.757812 32.902344 91.546875 33.089844 C 90.398438 34.097656 89.226562 34.214844 88.617188 34.214844 C 86.414062 34.214844 86.179688 32.503906 86.132812 31.261719 Z M 86.15625 30.230469 C 86.203125 29.035156 86.601562 27.582031 88.289062 27.582031 C 89.835938 27.582031 90.140625 28.707031 90.1875 30.230469 Z M 86.15625 30.230469 "/>
<path fill-rule="nonzero" fill="rgb(0%, 0%, 0%)" fill-opacity="1" d="M 109.78125 27.230469 C 109.78125 26.597656 109.640625 26.292969 108.84375 26.292969 L 108.117188 26.292969 C 107.390625 26.292969 107.179688 26.550781 107.179688 27.230469 L 107.179688 27.605469 C 106.335938 26.292969 105.1875 26.292969 104.859375 26.292969 C 101.109375 26.292969 100.804688 29.433594 100.804688 30.980469 C 100.804688 32.503906 101.109375 35.621094 104.71875 35.621094 C 105.75 35.621094 106.476562 35.246094 107.132812 34.472656 L 107.132812 38.246094 C 107.132812 38.878906 107.273438 39.183594 108.070312 39.183594 L 108.84375 39.183594 C 109.570312 39.183594 109.78125 38.925781 109.78125 38.246094 Z M 107.179688 33.183594 C 106.828125 33.652344 106.3125 34.214844 105.421875 34.214844 C 103.429688 34.214844 103.429688 31.753906 103.429688 31.003906 C 103.429688 30.230469 103.429688 27.816406 105.609375 27.816406 C 105.9375 27.816406 106.335938 27.886719 106.6875 28.261719 C 107.179688 28.753906 107.179688 29.105469 107.179688 29.339844 Z M 107.179688 33.183594 "/>
<path fill-rule="nonzero" fill="rgb(0%, 0%, 0%)" fill-opacity="1" d="M 120.683594 27.441406 C 120.683594 26.832031 120.566406 26.503906 119.769531 26.503906 L 118.996094 26.503906 C 118.246094 26.503906 118.058594 26.761719 118.058594 27.441406 L 118.058594 32.058594 C 118.058594 33.324219 117.378906 34.449219 115.996094 34.449219 C 114.894531 34.449219 114.777344 34.167969 114.777344 33.136719 L 114.777344 27.441406 C 114.777344 26.832031 114.660156 26.503906 113.863281 26.503906 L 113.089844 26.503906 C 112.386719 26.503906 112.152344 26.714844 112.152344 27.441406 L 112.152344 32.972656 C 112.152344 35.035156 113.277344 35.621094 115.292969 35.621094 C 115.808594 35.621094 117.191406 35.621094 118.105469 33.980469 L 118.105469 34.472656 C 118.105469 35.105469 118.246094 35.410156 119.042969 35.410156 L 119.769531 35.410156 C 120.496094 35.410156 120.683594 35.152344 120.683594 34.472656 Z M 120.683594 27.441406 "/>
<path fill-rule="nonzero" fill="rgb(0%, 0%, 0%)" fill-opacity="1" d="M 130.246094 31.261719 C 130.691406 31.261719 131.183594 31.238281 131.183594 30.347656 C 131.183594 27.863281 130.011719 26.175781 127.128906 26.175781 C 124.011719 26.175781 122.488281 27.933594 122.488281 30.886719 C 122.488281 34.074219 124.316406 35.621094 127.386719 35.621094 C 128.113281 35.621094 129.214844 35.527344 130.503906 34.894531 C 130.925781 34.660156 131.066406 34.613281 131.066406 34.378906 C 131.066406 34.238281 131.019531 33.675781 130.996094 33.535156 C 130.902344 32.925781 130.902344 32.902344 130.714844 32.902344 C 130.644531 32.902344 130.597656 32.902344 130.386719 33.089844 C 129.238281 34.097656 128.066406 34.214844 127.457031 34.214844 C 125.253906 34.214844 125.019531 32.503906 124.972656 31.261719 Z M 124.996094 30.230469 C 125.042969 29.035156 125.441406 27.582031 127.128906 27.582031 C 128.675781 27.582031 128.980469 28.707031 129.027344 30.230469 Z M 124.996094 30.230469 "/>
<path fill-rule="nonzero" fill="rgb(0%, 0%, 0%)" fill-opacity="1" d="M 143.183594 33.394531 C 143.183594 32.878906 143.160156 32.855469 142.644531 32.855469 L 141.167969 32.855469 C 140.652344 32.855469 140.628906 32.878906 140.628906 33.394531 L 140.628906 34.894531 C 140.628906 35.386719 140.652344 35.410156 141.167969 35.410156 L 142.644531 35.410156 C 143.160156 35.410156 143.183594 35.386719 143.183594 34.894531 Z M 143.183594 33.394531 "/>
<path fill-rule="nonzero" fill="rgb(0%, 0%, 0%)" fill-opacity="1" d="M 149.117188 33.394531 C 149.117188 32.878906 149.09375 32.855469 148.578125 32.855469 L 147.101562 32.855469 C 146.585938 32.855469 146.5625 32.878906 146.5625 33.394531 L 146.5625 34.894531 C 146.5625 35.386719 146.585938 35.410156 147.101562 35.410156 L 148.578125 35.410156 C 149.09375 35.410156 149.117188 35.386719 149.117188 34.894531 Z M 149.117188 33.394531 "/>
<path fill-rule="nonzero" fill="rgb(0%, 0%, 0%)" fill-opacity="1" d="M 155.054688 33.394531 C 155.054688 32.878906 155.03125 32.855469 154.515625 32.855469 L 153.039062 32.855469 C 152.523438 32.855469 152.5 32.878906 152.5 33.394531 L 152.5 34.894531 C 152.5 35.386719 152.523438 35.410156 153.039062 35.410156 L 154.515625 35.410156 C 155.03125 35.410156 155.054688 35.386719 155.054688 34.894531 Z M 155.054688 33.394531 "/>
<path fill="none" stroke-width="1.99255" stroke-linecap="butt" stroke-linejoin="round" stroke="rgb(19.607843%, 19.607843%, 19.607843%)" stroke-opacity="1" stroke-miterlimit="10" d="M -115.038498 -14.388813 L 115.039627 -14.388813 L 115.039627 14.392437 L -115.038498 14.392437 Z M -115.038498 -14.388813 " transform="matrix(1.5, 0, 0, -1.5, 371.213997, 30.553499)"/>
<path fill-rule="nonzero" fill="rgb(0%, 0%, 0%)" fill-opacity="1" d="M 291.105469 29.363281 L 296.214844 29.363281 C 296.824219 29.363281 297.152344 29.222656 297.152344 28.449219 C 297.152344 27.746094 296.894531 27.535156 296.214844 27.535156 L 291.105469 27.535156 L 291.105469 23.949219 L 292.066406 23.949219 C 293.589844 23.949219 295.113281 23.996094 296.636719 23.996094 C 297.316406 23.996094 297.761719 23.996094 297.761719 23.082031 L 297.761719 22.917969 C 297.761719 22.285156 297.621094 21.980469 296.824219 21.980469 L 289.183594 21.980469 C 288.480469 21.980469 288.246094 22.191406 288.246094 22.917969 L 288.246094 34.472656 C 288.246094 35.175781 288.480469 35.410156 289.183594 35.410156 L 297.105469 35.410156 C 297.855469 35.410156 298.042969 35.152344 298.042969 34.472656 L 298.042969 34.214844 C 298.042969 33.277344 297.597656 33.277344 296.964844 33.277344 C 295.957031 33.277344 294.949219 33.300781 293.941406 33.300781 C 293.472656 33.300781 291.457031 33.324219 291.105469 33.347656 Z M 291.105469 29.363281 "/>
<path fill-rule="nonzero" fill="rgb(0%, 0%, 0%)" fill-opacity="1" d="M 308.65625 29.105469 C 308.65625 27.089844 307.8125 26.292969 305.820312 26.292969 C 303.78125 26.292969 302.914062 27.769531 302.65625 28.308594 L 302.65625 27.324219 C 302.65625 26.714844 302.515625 26.386719 301.71875 26.386719 L 301.0625 26.386719 C 300.359375 26.386719 300.125 26.597656 300.125 27.324219 L 300.125 34.472656 C 300.125 35.175781 300.335938 35.410156 301.0625 35.410156 L 301.835938 35.410156 C 302.5625 35.410156 302.75 35.152344 302.75 34.472656 L 302.75 30.183594 C 302.75 28.496094 303.898438 27.699219 304.90625 27.699219 C 305.820312 27.699219 306.03125 28.144531 306.03125 29.128906 L 306.03125 34.472656 C 306.03125 35.105469 306.171875 35.410156 306.96875 35.410156 L 307.742188 35.410156 C 308.46875 35.410156 308.65625 35.152344 308.65625 34.472656 Z M 308.65625 29.105469 "/>
<path fill-rule="nonzero" fill="rgb(0%, 0%, 0%)" fill-opacity="1" d="M 314.097656 27.910156 L 315.832031 27.910156 C 316.042969 27.910156 316.746094 27.910156 316.746094 27.207031 C 316.746094 26.503906 316.042969 26.503906 315.832031 26.503906 L 314.097656 26.503906 L 314.097656 24.910156 C 314.097656 24.277344 313.957031 23.972656 313.160156 23.972656 L 312.550781 23.972656 C 311.847656 23.972656 311.613281 24.183594 311.613281 24.910156 L 311.613281 26.503906 L 311.167969 26.503906 C 310.957031 26.503906 310.253906 26.503906 310.253906 27.207031 C 310.253906 27.910156 310.933594 27.910156 311.167969 27.910156 L 311.566406 27.910156 L 311.566406 32.832031 C 311.566406 34.777344 312.269531 35.621094 313.605469 35.621094 C 313.769531 35.621094 314.636719 35.621094 315.644531 35.316406 C 315.972656 35.222656 317.097656 34.871094 317.097656 34.496094 C 317.097656 34.449219 317.074219 34.308594 316.957031 33.886719 C 316.839844 33.511719 316.816406 33.394531 316.628906 33.394531 C 316.535156 33.394531 316.511719 33.417969 316.394531 33.535156 C 316.183594 33.675781 315.667969 34.097656 314.847656 34.097656 C 314.378906 34.097656 314.097656 33.769531 314.097656 32.503906 Z M 314.097656 27.910156 "/>
<path fill-rule="nonzero" fill="rgb(0%, 0%, 0%)" fill-opacity="1" d="M 327.761719 31.027344 C 327.761719 27.863281 326.214844 26.175781 323.050781 26.175781 C 319.816406 26.175781 318.316406 27.910156 318.316406 31.027344 C 318.316406 34.214844 319.980469 35.621094 323.027344 35.621094 C 326.074219 35.621094 327.761719 34.214844 327.761719 31.027344 Z M 323.050781 34.097656 C 320.941406 34.097656 320.941406 32.363281 320.941406 30.816406 C 320.941406 29.316406 320.941406 27.582031 323.027344 27.582031 C 325.136719 27.582031 325.136719 29.292969 325.136719 30.816406 C 325.136719 32.339844 325.136719 34.097656 323.050781 34.097656 Z M 323.050781 34.097656 "/>
<path fill-rule="nonzero" fill="rgb(0%, 0%, 0%)" fill-opacity="1" d="M 338.097656 29.105469 C 338.097656 27.089844 337.253906 26.292969 335.261719 26.292969 C 333.222656 26.292969 332.355469 27.769531 332.097656 28.308594 L 332.097656 27.324219 C 332.097656 26.714844 331.957031 26.386719 331.160156 26.386719 L 330.503906 26.386719 C 329.800781 26.386719 329.566406 26.597656 329.566406 27.324219 L 329.566406 34.472656 C 329.566406 35.175781 329.777344 35.410156 330.503906 35.410156 L 331.277344 35.410156 C 332.003906 35.410156 332.191406 35.152344 332.191406 34.472656 L 332.191406 30.183594 C 332.191406 28.496094 333.339844 27.699219 334.347656 27.699219 C 335.261719 27.699219 335.472656 28.144531 335.472656 29.128906 L 335.472656 34.472656 C 335.472656 35.105469 335.613281 35.410156 336.410156 35.410156 L 337.183594 35.410156 C 337.910156 35.410156 338.097656 35.152344 338.097656 34.472656 Z M 338.097656 29.105469 "/>
<path fill-rule="nonzero" fill="rgb(0%, 0%, 0%)" fill-opacity="1" d="M 348.175781 34.449219 C 348.175781 34.214844 348.105469 33.324219 348.058594 33.089844 C 348.058594 33.019531 348.011719 32.832031 347.824219 32.832031 C 347.753906 32.832031 347.707031 32.832031 347.519531 33.019531 C 347.191406 33.300781 346.277344 34.097656 344.683594 34.097656 C 342.644531 34.097656 342.644531 32.152344 342.644531 30.910156 C 342.644531 29.339844 342.761719 27.699219 344.730469 27.699219 C 345.996094 27.699219 346.511719 28.003906 347.214844 28.589844 C 347.449219 28.800781 347.496094 28.800781 347.566406 28.800781 C 347.753906 28.800781 347.800781 28.636719 347.824219 28.542969 C 347.871094 28.402344 348.058594 27.300781 348.058594 27.207031 C 348.058594 27.042969 347.917969 26.949219 347.589844 26.808594 C 346.652344 26.386719 346.066406 26.175781 344.707031 26.175781 C 341.824219 26.175781 340.019531 27.535156 340.019531 30.933594 C 340.019531 34.167969 341.683594 35.621094 344.613281 35.621094 C 345.152344 35.621094 346.300781 35.597656 347.613281 34.941406 C 348.152344 34.660156 348.175781 34.636719 348.175781 34.449219 Z M 348.175781 34.449219 "/>
<path fill-rule="nonzero" fill="rgb(0%, 0%, 0%)" fill-opacity="1" d="M 357.160156 31.261719 C 357.605469 31.261719 358.097656 31.238281 358.097656 30.347656 C 358.097656 27.863281 356.925781 26.175781 354.042969 26.175781 C 350.925781 26.175781 349.402344 27.933594 349.402344 30.886719 C 349.402344 34.074219 351.230469 35.621094 354.300781 35.621094 C 355.027344 35.621094 356.128906 35.527344 357.417969 34.894531 C 357.839844 34.660156 357.980469 34.613281 357.980469 34.378906 C 357.980469 34.238281 357.933594 33.675781 357.910156 33.535156 C 357.816406 32.925781 357.816406 32.902344 357.628906 32.902344 C 357.558594 32.902344 357.511719 32.902344 357.300781 33.089844 C 356.152344 34.097656 354.980469 34.214844 354.371094 34.214844 C 352.167969 34.214844 351.933594 32.503906 351.886719 31.261719 Z M 351.910156 30.230469 C 351.957031 29.035156 352.355469 27.582031 354.042969 27.582031 C 355.589844 27.582031 355.894531 28.707031 355.941406 30.230469 Z M 351.910156 30.230469 "/>
<path fill-rule="nonzero" fill="rgb(0%, 0%, 0%)" fill-opacity="1" d="M 366.40625 32.667969 C 366.40625 31.589844 365.820312 30.910156 365.46875 30.582031 C 364.695312 29.902344 364.015625 29.785156 363.195312 29.621094 C 362.140625 29.433594 361.367188 29.269531 361.367188 28.519531 C 361.367188 27.722656 362 27.558594 362.75 27.558594 C 364.0625 27.558594 364.765625 28.050781 365.257812 28.472656 C 365.46875 28.660156 365.492188 28.660156 365.585938 28.660156 C 365.773438 28.660156 365.820312 28.496094 365.820312 28.425781 C 365.867188 28.261719 366.054688 27.183594 366.054688 27.066406 C 366.054688 26.761719 365.023438 26.480469 364.8125 26.410156 C 364.039062 26.199219 363.429688 26.175781 362.914062 26.175781 C 362.046875 26.175781 359.445312 26.175781 359.445312 28.964844 C 359.445312 29.902344 359.867188 30.488281 360.382812 30.957031 C 361.0625 31.589844 361.835938 31.707031 362.9375 31.941406 C 363.5 32.035156 364.484375 32.199219 364.484375 33.066406 C 364.484375 33.980469 363.734375 34.097656 362.984375 34.097656 C 362.117188 34.097656 361.039062 33.863281 360.125 32.761719 C 360.03125 32.667969 359.960938 32.621094 359.84375 32.621094 C 359.65625 32.621094 359.609375 32.785156 359.585938 32.902344 C 359.5625 33.183594 359.328125 34.285156 359.328125 34.472656 C 359.328125 34.824219 360.757812 35.269531 360.78125 35.292969 C 361.835938 35.621094 362.632812 35.621094 362.984375 35.621094 C 363.96875 35.621094 366.40625 35.550781 366.40625 32.667969 Z M 366.40625 32.667969 "/>
<path fill-rule="nonzero" fill="rgb(0%, 0%, 0%)" fill-opacity="1" d="M 381.730469 32.667969 C 381.730469 31.589844 381.144531 30.910156 380.792969 30.582031 C 380.019531 29.902344 379.339844 29.785156 378.519531 29.621094 C 377.464844 29.433594 376.691406 29.269531 376.691406 28.519531 C 376.691406 27.722656 377.324219 27.558594 378.074219 27.558594 C 379.386719 27.558594 380.089844 28.050781 380.582031 28.472656 C 380.792969 28.660156 380.816406 28.660156 380.910156 28.660156 C 381.097656 28.660156 381.144531 28.496094 381.144531 28.425781 C 381.191406 28.261719 381.378906 27.183594 381.378906 27.066406 C 381.378906 26.761719 380.347656 26.480469 380.136719 26.410156 C 379.363281 26.199219 378.753906 26.175781 378.238281 26.175781 C 377.371094 26.175781 374.769531 26.175781 374.769531 28.964844 C 374.769531 29.902344 375.191406 30.488281 375.707031 30.957031 C 376.386719 31.589844 377.160156 31.707031 378.261719 31.941406 C 378.824219 32.035156 379.808594 32.199219 379.808594 33.066406 C 379.808594 33.980469 379.058594 34.097656 378.308594 34.097656 C 377.441406 34.097656 376.363281 33.863281 375.449219 32.761719 C 375.355469 32.667969 375.285156 32.621094 375.167969 32.621094 C 374.980469 32.621094 374.933594 32.785156 374.910156 32.902344 C 374.886719 33.183594 374.652344 34.285156 374.652344 34.472656 C 374.652344 34.824219 376.082031 35.269531 376.105469 35.292969 C 377.160156 35.621094 377.957031 35.621094 378.308594 35.621094 C 379.292969 35.621094 381.730469 35.550781 381.730469 32.667969 Z M 381.730469 32.667969 "/>
<path fill-rule="nonzero" fill="rgb(0%, 0%, 0%)" fill-opacity="1" d="M 390.519531 22.472656 C 390.613281 22.402344 390.730469 22.285156 390.730469 22.167969 C 390.730469 21.933594 390.519531 21.933594 390.191406 21.933594 L 388.597656 21.933594 C 388.222656 21.933594 388.199219 21.957031 388.035156 22.167969 L 386.347656 24.441406 C 386.183594 24.652344 386.183594 24.675781 386.183594 24.722656 C 386.183594 24.980469 386.394531 24.980469 386.699219 24.980469 L 387.425781 24.980469 Z M 390.519531 22.472656 "/>
<path fill-rule="nonzero" fill="rgb(0%, 0%, 0%)" fill-opacity="1" d="M 390.601562 31.261719 C 391.046875 31.261719 391.539062 31.238281 391.539062 30.347656 C 391.539062 27.863281 390.367188 26.175781 387.484375 26.175781 C 384.367188 26.175781 382.84375 27.933594 382.84375 30.886719 C 382.84375 34.074219 384.671875 35.621094 387.742188 35.621094 C 388.46875 35.621094 389.570312 35.527344 390.859375 34.894531 C 391.28125 34.660156 391.421875 34.613281 391.421875 34.378906 C 391.421875 34.238281 391.375 33.675781 391.351562 33.535156 C 391.257812 32.925781 391.257812 32.902344 391.070312 32.902344 C 391 32.902344 390.953125 32.902344 390.742188 33.089844 C 389.59375 34.097656 388.421875 34.214844 387.8125 34.214844 C 385.609375 34.214844 385.375 32.503906 385.328125 31.261719 Z M 385.351562 30.230469 C 385.398438 29.035156 385.796875 27.582031 387.484375 27.582031 C 389.03125 27.582031 389.335938 28.707031 389.382812 30.230469 Z M 385.351562 30.230469 "/>
<path fill-rule="nonzero" fill="rgb(0%, 0%, 0%)" fill-opacity="1" d="M 408.976562 27.230469 C 408.976562 26.597656 408.835938 26.292969 408.039062 26.292969 L 407.3125 26.292969 C 406.585938 26.292969 406.375 26.550781 406.375 27.230469 L 406.375 27.605469 C 405.53125 26.292969 404.382812 26.292969 404.054688 26.292969 C 400.304688 26.292969 400 29.433594 400 30.980469 C 400 32.503906 400.304688 35.621094 403.914062 35.621094 C 404.945312 35.621094 405.671875 35.246094 406.328125 34.472656 L 406.328125 38.246094 C 406.328125 38.878906 406.46875 39.183594 407.265625 39.183594 L 408.039062 39.183594 C 408.765625 39.183594 408.976562 38.925781 408.976562 38.246094 Z M 406.375 33.183594 C 406.023438 33.652344 405.507812 34.214844 404.617188 34.214844 C 402.625 34.214844 402.625 31.753906 402.625 31.003906 C 402.625 30.230469 402.625 27.816406 404.804688 27.816406 C 405.132812 27.816406 405.53125 27.886719 405.882812 28.261719 C 406.375 28.753906 406.375 29.105469 406.375 29.339844 Z M 406.375 33.183594 "/>
<path fill-rule="nonzero" fill="rgb(0%, 0%, 0%)" fill-opacity="1" d="M 419.878906 27.441406 C 419.878906 26.832031 419.761719 26.503906 418.964844 26.503906 L 418.191406 26.503906 C 417.441406 26.503906 417.253906 26.761719 417.253906 27.441406 L 417.253906 32.058594 C 417.253906 33.324219 416.574219 34.449219 415.191406 34.449219 C 414.089844 34.449219 413.972656 34.167969 413.972656 33.136719 L 413.972656 27.441406 C 413.972656 26.832031 413.855469 26.503906 413.058594 26.503906 L 412.285156 26.503906 C 411.582031 26.503906 411.347656 26.714844 411.347656 27.441406 L 411.347656 32.972656 C 411.347656 35.035156 412.472656 35.621094 414.488281 35.621094 C 415.003906 35.621094 416.386719 35.621094 417.300781 33.980469 L 417.300781 34.472656 C 417.300781 35.105469 417.441406 35.410156 418.238281 35.410156 L 418.964844 35.410156 C 419.691406 35.410156 419.878906 35.152344 419.878906 34.472656 Z M 419.878906 27.441406 "/>
<path fill-rule="nonzero" fill="rgb(0%, 0%, 0%)" fill-opacity="1" d="M 429.441406 31.261719 C 429.886719 31.261719 430.378906 31.238281 430.378906 30.347656 C 430.378906 27.863281 429.207031 26.175781 426.324219 26.175781 C 423.207031 26.175781 421.683594 27.933594 421.683594 30.886719 C 421.683594 34.074219 423.511719 35.621094 426.582031 35.621094 C 427.308594 35.621094 428.410156 35.527344 429.699219 34.894531 C 430.121094 34.660156 430.261719 34.613281 430.261719 34.378906 C 430.261719 34.238281 430.214844 33.675781 430.191406 33.535156 C 430.097656 32.925781 430.097656 32.902344 429.910156 32.902344 C 429.839844 32.902344 429.792969 32.902344 429.582031 33.089844 C 428.433594 34.097656 427.261719 34.214844 426.652344 34.214844 C 424.449219 34.214844 424.214844 32.503906 424.167969 31.261719 Z M 424.191406 30.230469 C 424.238281 29.035156 424.636719 27.582031 426.324219 27.582031 C 427.871094 27.582031 428.175781 28.707031 428.222656 30.230469 Z M 424.191406 30.230469 "/>
<path fill-rule="nonzero" fill="rgb(0%, 0%, 0%)" fill-opacity="1" d="M 442.378906 33.394531 C 442.378906 32.878906 442.355469 32.855469 441.839844 32.855469 L 440.363281 32.855469 C 439.847656 32.855469 439.824219 32.878906 439.824219 33.394531 L 439.824219 34.894531 C 439.824219 35.386719 439.847656 35.410156 440.363281 35.410156 L 441.839844 35.410156 C 442.355469 35.410156 442.378906 35.386719 442.378906 34.894531 Z M 442.378906 33.394531 "/>
<path fill-rule="nonzero" fill="rgb(0%, 0%, 0%)" fill-opacity="1" d="M 448.3125 33.394531 C 448.3125 32.878906 448.289062 32.855469 447.773438 32.855469 L 446.296875 32.855469 C 445.78125 32.855469 445.757812 32.878906 445.757812 33.394531 L 445.757812 34.894531 C 445.757812 35.386719 445.78125 35.410156 446.296875 35.410156 L 447.773438 35.410156 C 448.289062 35.410156 448.3125 35.386719 448.3125 34.894531 Z M 448.3125 33.394531 "/>
<path fill-rule="nonzero" fill="rgb(0%, 0%, 0%)" fill-opacity="1" d="M 454.25 33.394531 C 454.25 32.878906 454.226562 32.855469 453.710938 32.855469 L 452.234375 32.855469 C 451.71875 32.855469 451.695312 32.878906 451.695312 33.394531 L 451.695312 34.894531 C 451.695312 35.386719 451.71875 35.410156 452.234375 35.410156 L 453.710938 35.410156 C 454.226562 35.410156 454.25 35.386719 454.25 34.894531 Z M 454.25 33.394531 "/>
<path fill="none" stroke-width="0.99628" stroke-linecap="butt" stroke-linejoin="round" stroke="rgb(19.607843%, 19.607843%, 19.607843%)" stroke-opacity="1" stroke-miterlimit="10" d="M -63.232437 -14.391064 L 63.231105 -14.391064 L 63.231105 14.390186 L -63.232437 14.390186 Z M -63.232437 -14.391064 " transform="matrix(1.5, 0, 0, -1.5, 103.813499, 74.471998)"/>
<path fill-rule="nonzero" fill="rgb(0%, 0%, 0%)" fill-opacity="1" d="M 58.488281 70.085938 C 58.980469 68.820312 60.152344 68 61.464844 68 C 62.449219 68 63.386719 68.5625 63.386719 69.828125 C 63.386719 71.117188 62.496094 72.195312 61.441406 72.429688 C 61.347656 72.453125 60.105469 72.546875 59.917969 72.570312 L 59.917969 73.71875 L 61.300781 73.71875 C 63.292969 73.71875 63.785156 75.429688 63.785156 76.507812 C 63.785156 78.078125 62.824219 79.273438 61.441406 79.273438 C 60.199219 79.273438 58.652344 78.640625 57.761719 77.234375 L 57.550781 78.382812 C 58.816406 80.117188 60.527344 80.421875 61.464844 80.421875 C 63.738281 80.421875 65.449219 78.59375 65.449219 76.53125 C 65.449219 75.03125 64.464844 73.71875 62.824219 73.15625 C 64.183594 72.40625 64.933594 71.09375 64.933594 69.828125 C 64.933594 68.140625 63.363281 66.898438 61.464844 66.898438 C 59.917969 66.898438 58.535156 67.742188 57.808594 69.03125 Z M 58.488281 70.085938 "/>
<path fill-rule="nonzero" fill="rgb(0%, 0%, 0%)" fill-opacity="1" d="M 79.996094 74.632812 L 76.128906 70.765625 C 75.894531 70.53125 75.847656 70.484375 75.683594 70.484375 C 75.496094 70.484375 75.308594 70.648438 75.308594 70.882812 C 75.308594 71 75.355469 71.046875 75.566406 71.257812 L 79.433594 75.171875 L 75.566406 79.0625 C 75.355469 79.273438 75.308594 79.320312 75.308594 79.460938 C 75.308594 79.671875 75.496094 79.859375 75.683594 79.859375 C 75.847656 79.859375 75.894531 79.8125 76.128906 79.578125 L 79.996094 75.710938 L 84.003906 79.742188 C 84.050781 79.742188 84.191406 79.859375 84.308594 79.859375 C 84.542969 79.859375 84.683594 79.671875 84.683594 79.460938 C 84.683594 79.414062 84.683594 79.34375 84.636719 79.25 C 84.613281 79.203125 81.519531 76.15625 80.558594 75.171875 L 84.097656 71.609375 C 84.214844 71.492188 84.496094 71.234375 84.589844 71.117188 C 84.613281 71.09375 84.683594 71 84.683594 70.882812 C 84.683594 70.648438 84.542969 70.484375 84.308594 70.484375 C 84.144531 70.484375 84.074219 70.554688 83.863281 70.765625 Z M 79.996094 74.632812 "/>
<path fill-rule="nonzero" fill="rgb(0%, 0%, 0%)" fill-opacity="1" d="M 100.847656 76.671875 L 102.722656 76.671875 L 102.722656 75.523438 L 100.847656 75.523438 L 100.847656 67.296875 L 99.089844 67.296875 L 94.261719 75.523438 L 94.261719 76.671875 L 99.300781 76.671875 L 99.300781 80.023438 L 100.847656 80.023438 Z M 95.761719 75.523438 C 96.324219 74.515625 97.097656 73.273438 97.894531 71.726562 C 98.128906 71.28125 99.394531 68.890625 99.394531 68.164062 L 99.394531 75.523438 Z M 95.761719 75.523438 "/>
<path fill-rule="nonzero" fill="rgb(0%, 0%, 0%)" fill-opacity="1" d="M 126.445312 73.671875 C 126.703125 73.671875 127.054688 73.671875 127.054688 73.320312 C 127.054688 72.945312 126.726562 72.945312 126.445312 72.945312 L 114.984375 72.945312 C 114.726562 72.945312 114.375 72.945312 114.375 73.296875 C 114.375 73.671875 114.703125 73.671875 114.984375 73.671875 Z M 126.445312 77.398438 C 126.703125 77.398438 127.054688 77.398438 127.054688 77.046875 C 127.054688 76.671875 126.726562 76.671875 126.445312 76.671875 L 114.984375 76.671875 C 114.726562 76.671875 114.375 76.671875 114.375 77.023438 C 114.375 77.398438 114.703125 77.398438 114.984375 77.398438 Z M 126.445312 77.398438 "/>
<path fill-rule="nonzero" fill="rgb(0%, 0%, 0%)" fill-opacity="1" d="M 143.917969 66.898438 L 143.542969 66.898438 C 143.238281 67.203125 142.300781 68.117188 140.191406 68.140625 C 139.933594 68.140625 139.910156 68.164062 139.910156 68.515625 L 139.910156 69.289062 C 141.105469 69.289062 141.996094 69.007812 142.394531 68.820312 L 142.394531 78.898438 L 140.027344 78.898438 L 140.027344 80.023438 L 146.285156 80.023438 L 146.285156 78.898438 L 143.917969 78.898438 Z M 143.917969 66.898438 "/>
<path fill-rule="nonzero" fill="rgb(0%, 0%, 0%)" fill-opacity="1" d="M 148.652344 78.804688 L 148.652344 80.023438 L 156.246094 80.023438 L 156.246094 78.710938 L 152.777344 78.710938 C 152.542969 78.710938 152.308594 78.710938 152.074219 78.710938 L 150.011719 78.710938 C 150.503906 78.195312 152.308594 76.414062 153.574219 75.289062 C 155.027344 74.023438 156.246094 72.804688 156.246094 71.023438 C 156.246094 68.867188 154.746094 66.898438 152.167969 66.898438 C 150.082031 66.898438 149.003906 68.257812 148.488281 70.085938 C 149.121094 70.859375 149.121094 70.882812 149.285156 71.117188 C 149.777344 69.054688 150.480469 68.09375 151.933594 68.09375 C 153.597656 68.09375 154.675781 69.40625 154.675781 71.070312 C 154.675781 72.078125 154.277344 73.203125 152.964844 74.492188 Z M 148.652344 78.804688 "/>
<path fill="none" stroke-width="0.99628" stroke-linecap="butt" stroke-linejoin="round" stroke="rgb(19.607843%, 19.607843%, 19.607843%)" stroke-opacity="1" stroke-miterlimit="10" d="M -115.038498 -14.391064 L 115.039627 -14.391064 L 115.039627 14.390186 L -115.038498 14.390186 Z M -115.038498 -14.391064 " transform="matrix(1.5, 0, 0, -1.5, 371.213997, 74.471998)"/>
<path fill-rule="nonzero" fill="rgb(0%, 0%, 0%)" fill-opacity="1" d="M 263.601562 66.496094 L 263.226562 66.496094 C 262.921875 66.800781 261.984375 67.714844 259.875 67.738281 C 259.617188 67.738281 259.59375 67.761719 259.59375 68.113281 L 259.59375 68.886719 C 260.789062 68.886719 261.679688 68.605469 262.078125 68.417969 L 262.078125 78.496094 L 259.710938 78.496094 L 259.710938 79.621094 L 265.96875 79.621094 L 265.96875 78.496094 L 263.601562 78.496094 Z M 263.601562 66.496094 "/>
<path fill-rule="nonzero" fill="rgb(0%, 0%, 0%)" fill-opacity="1" d="M 268.355469 78.402344 L 268.355469 79.621094 L 275.949219 79.621094 L 275.949219 78.308594 L 272.480469 78.308594 C 272.246094 78.308594 272.011719 78.308594 271.777344 78.308594 L 269.714844 78.308594 C 270.207031 77.792969 272.011719 76.011719 273.277344 74.886719 C 274.730469 73.621094 275.949219 72.402344 275.949219 70.621094 C 275.949219 68.464844 274.449219 66.496094 271.871094 66.496094 C 269.785156 66.496094 268.707031 67.855469 268.191406 69.683594 C 268.824219 70.457031 268.824219 70.480469 268.988281 70.714844 C 269.480469 68.652344 270.183594 67.691406 271.636719 67.691406 C 273.300781 67.691406 274.378906 69.003906 274.378906 70.667969 C 274.378906 71.675781 273.980469 72.800781 272.667969 74.089844 Z M 268.355469 78.402344 "/>
<path fill-rule="nonzero" fill="rgb(0%, 0%, 0%)" fill-opacity="1" d="M 292.914062 70.574219 C 292.914062 69.941406 292.375 69.332031 291.648438 69.332031 C 290.921875 69.332031 290.40625 69.941406 290.40625 70.574219 C 290.40625 71.183594 290.945312 71.792969 291.648438 71.792969 C 292.398438 71.792969 292.914062 71.183594 292.914062 70.574219 Z M 292.914062 78.964844 C 292.914062 78.332031 292.375 77.746094 291.648438 77.746094 C 290.921875 77.746094 290.40625 78.332031 290.40625 78.964844 C 290.40625 79.574219 290.945312 80.183594 291.648438 80.183594 C 292.398438 80.183594 292.914062 79.574219 292.914062 78.964844 Z M 285.859375 74.371094 C 285.53125 74.371094 285.179688 74.371094 285.179688 74.769531 C 285.179688 75.144531 285.53125 75.144531 285.859375 75.144531 L 297.460938 75.144531 C 297.789062 75.144531 298.140625 75.144531 298.140625 74.769531 C 298.140625 74.371094 297.789062 74.371094 297.460938 74.371094 Z M 285.859375 74.371094 "/>
<path fill-rule="nonzero" fill="rgb(0%, 0%, 0%)" fill-opacity="1" d="M 313.507812 76.269531 L 315.382812 76.269531 L 315.382812 75.121094 L 313.507812 75.121094 L 313.507812 66.894531 L 311.75 66.894531 L 306.921875 75.121094 L 306.921875 76.269531 L 311.960938 76.269531 L 311.960938 79.621094 L 313.507812 79.621094 Z M 308.421875 75.121094 C 308.984375 74.113281 309.757812 72.871094 310.554688 71.324219 C 310.789062 70.878906 312.054688 68.488281 312.054688 67.761719 L 312.054688 75.121094 Z M 308.421875 75.121094 "/>
<path fill-rule="nonzero" fill="rgb(0%, 0%, 0%)" fill-opacity="1" d="M 341.628906 73.269531 C 341.886719 73.269531 342.238281 73.269531 342.238281 72.917969 C 342.238281 72.542969 341.910156 72.542969 341.628906 72.542969 L 330.167969 72.542969 C 329.910156 72.542969 329.558594 72.542969 329.558594 72.894531 C 329.558594 73.269531 329.886719 73.269531 330.167969 73.269531 Z M 341.628906 76.996094 C 341.886719 76.996094 342.238281 76.996094 342.238281 76.644531 C 342.238281 76.269531 341.910156 76.269531 341.628906 76.269531 L 330.167969 76.269531 C 329.910156 76.269531 329.558594 76.269531 329.558594 76.621094 C 329.558594 76.996094 329.886719 76.996094 330.167969 76.996094 Z M 341.628906 76.996094 "/>
<path fill-rule="nonzero" fill="rgb(0%, 0%, 0%)" fill-opacity="1" d="M 357.625 69.683594 C 358.117188 68.417969 359.289062 67.597656 360.601562 67.597656 C 361.585938 67.597656 362.523438 68.160156 362.523438 69.425781 C 362.523438 70.714844 361.632812 71.792969 360.578125 72.027344 C 360.484375 72.050781 359.242188 72.144531 359.054688 72.167969 L 359.054688 73.316406 L 360.4375 73.316406 C 362.429688 73.316406 362.921875 75.027344 362.921875 76.105469 C 362.921875 77.675781 361.960938 78.871094 360.578125 78.871094 C 359.335938 78.871094 357.789062 78.238281 356.898438 76.832031 L 356.6875 77.980469 C 357.953125 79.714844 359.664062 80.019531 360.601562 80.019531 C 362.875 80.019531 364.585938 78.191406 364.585938 76.128906 C 364.585938 74.628906 363.601562 73.316406 361.960938 72.753906 C 363.320312 72.003906 364.070312 70.691406 364.070312 69.425781 C 364.070312 67.738281 362.5 66.496094 360.601562 66.496094 C 359.054688 66.496094 357.671875 67.339844 356.945312 68.628906 Z M 357.625 69.683594 "/>
<path fill-rule="nonzero" fill="rgb(0%, 0%, 0%)" fill-opacity="1" d="M 368.824219 79.597656 L 368.824219 78.050781 L 367.253906 78.050781 L 367.253906 79.621094 L 367.722656 79.621094 L 367.253906 82.058594 L 368.027344 82.058594 Z M 368.824219 79.597656 "/>
<path fill-rule="nonzero" fill="rgb(0%, 0%, 0%)" fill-opacity="1" d="M 382.738281 66.496094 L 382.363281 66.496094 C 382.058594 66.800781 381.121094 67.714844 379.011719 67.738281 C 378.753906 67.738281 378.730469 67.761719 378.730469 68.113281 L 378.730469 68.886719 C 379.925781 68.886719 380.816406 68.605469 381.214844 68.417969 L 381.214844 78.496094 L 378.847656 78.496094 L 378.847656 79.621094 L 385.105469 79.621094 L 385.105469 78.496094 L 382.738281 78.496094 Z M 382.738281 66.496094 "/>
<path fill-rule="nonzero" fill="rgb(0%, 0%, 0%)" fill-opacity="1" d="M 387.492188 78.402344 L 387.492188 79.621094 L 395.085938 79.621094 L 395.085938 78.308594 L 391.617188 78.308594 C 391.382812 78.308594 391.148438 78.308594 390.914062 78.308594 L 388.851562 78.308594 C 389.34375 77.792969 391.148438 76.011719 392.414062 74.886719 C 393.867188 73.621094 395.085938 72.402344 395.085938 70.621094 C 395.085938 68.464844 393.585938 66.496094 391.007812 66.496094 C 388.921875 66.496094 387.84375 67.855469 387.328125 69.683594 C 387.960938 70.457031 387.960938 70.480469 388.125 70.714844 C 388.617188 68.652344 389.320312 67.691406 390.773438 67.691406 C 392.4375 67.691406 393.515625 69.003906 393.515625 70.667969 C 393.515625 71.675781 393.117188 72.800781 391.804688 74.089844 Z M 387.492188 78.402344 "/>
<path fill-rule="nonzero" fill="rgb(0%, 0%, 0%)" fill-opacity="1" d="M 412.054688 70.574219 C 412.054688 69.941406 411.515625 69.332031 410.789062 69.332031 C 410.0625 69.332031 409.546875 69.941406 409.546875 70.574219 C 409.546875 71.183594 410.085938 71.792969 410.789062 71.792969 C 411.539062 71.792969 412.054688 71.183594 412.054688 70.574219 Z M 412.054688 78.964844 C 412.054688 78.332031 411.515625 77.746094 410.789062 77.746094 C 410.0625 77.746094 409.546875 78.332031 409.546875 78.964844 C 409.546875 79.574219 410.085938 80.183594 410.789062 80.183594 C 411.539062 80.183594 412.054688 79.574219 412.054688 78.964844 Z M 405 74.371094 C 404.671875 74.371094 404.320312 74.371094 404.320312 74.769531 C 404.320312 75.144531 404.671875 75.144531 405 75.144531 L 416.601562 75.144531 C 416.929688 75.144531 417.28125 75.144531 417.28125 74.769531 C 417.28125 74.371094 416.929688 74.371094 416.601562 74.371094 Z M 405 74.371094 "/>
<path fill-rule="nonzero" fill="rgb(0%, 0%, 0%)" fill-opacity="1" d="M 427.28125 69.683594 C 427.773438 68.417969 428.945312 67.597656 430.257812 67.597656 C 431.242188 67.597656 432.179688 68.160156 432.179688 69.425781 C 432.179688 70.714844 431.289062 71.792969 430.234375 72.027344 C 430.140625 72.050781 428.898438 72.144531 428.710938 72.167969 L 428.710938 73.316406 L 430.09375 73.316406 C 432.085938 73.316406 432.578125 75.027344 432.578125 76.105469 C 432.578125 77.675781 431.617188 78.871094 430.234375 78.871094 C 428.992188 78.871094 427.445312 78.238281 426.554688 76.832031 L 426.34375 77.980469 C 427.609375 79.714844 429.320312 80.019531 430.257812 80.019531 C 432.53125 80.019531 434.242188 78.191406 434.242188 76.128906 C 434.242188 74.628906 433.257812 73.316406 431.617188 72.753906 C 432.976562 72.003906 433.726562 70.691406 433.726562 69.425781 C 433.726562 67.738281 432.15625 66.496094 430.257812 66.496094 C 428.710938 66.496094 427.328125 67.339844 426.601562 68.628906 Z M 427.28125 69.683594 "/>
<path fill-rule="nonzero" fill="rgb(0%, 0%, 0%)" fill-opacity="1" d="M 460.773438 73.269531 C 461.03125 73.269531 461.382812 73.269531 461.382812 72.917969 C 461.382812 72.542969 461.054688 72.542969 460.773438 72.542969 L 449.3125 72.542969 C 449.054688 72.542969 448.703125 72.542969 448.703125 72.894531 C 448.703125 73.269531 449.03125 73.269531 449.3125 73.269531 Z M 460.773438 76.996094 C 461.03125 76.996094 461.382812 76.996094 461.382812 76.644531 C 461.382812 76.269531 461.054688 76.269531 460.773438 76.269531 L 449.3125 76.269531 C 449.054688 76.269531 448.703125 76.269531 448.703125 76.621094 C 448.703125 76.996094 449.03125 76.996094 449.3125 76.996094 Z M 460.773438 76.996094 "/>
<path fill-rule="nonzero" fill="rgb(0%, 0%, 0%)" fill-opacity="1" d="M 482.136719 76.269531 L 484.011719 76.269531 L 484.011719 75.121094 L 482.136719 75.121094 L 482.136719 66.894531 L 480.378906 66.894531 L 475.550781 75.121094 L 475.550781 76.269531 L 480.589844 76.269531 L 480.589844 79.621094 L 482.136719 79.621094 Z M 477.050781 75.121094 C 477.613281 74.113281 478.386719 72.871094 479.183594 71.324219 C 479.417969 70.878906 480.683594 68.488281 480.683594 67.761719 L 480.683594 75.121094 Z M 477.050781 75.121094 "/>
<path fill="none" stroke-width="0.99628" stroke-linecap="butt" stroke-linejoin="round" stroke="rgb(19.607843%, 19.607843%, 19.607843%)" stroke-opacity="1" stroke-miterlimit="10" d="M -63.232437 -23.028142 L 63.231105 -23.028142 L 63.231105 23.023941 L -63.232437 23.023941 Z M -63.232437 -23.028142 " transform="matrix(1.5, 0, 0, -1.5, 103.813499, 130.594505)"/>
<path fill-rule="nonzero" fill="rgb(0%, 0%, 0%)" fill-opacity="1" d="M 54.019531 134.929688 L 54.019531 136.148438 L 61.613281 136.148438 L 61.613281 134.835938 L 58.144531 134.835938 C 57.910156 134.835938 57.675781 134.835938 57.441406 134.835938 L 55.378906 134.835938 C 55.871094 134.320312 57.675781 132.539062 58.941406 131.414062 C 60.394531 130.148438 61.613281 128.929688 61.613281 127.148438 C 61.613281 124.992188 60.113281 123.023438 57.535156 123.023438 C 55.449219 123.023438 54.371094 124.382812 53.855469 126.210938 C 54.488281 126.984375 54.488281 127.007812 54.652344 127.242188 C 55.144531 125.179688 55.847656 124.21875 57.300781 124.21875 C 58.964844 124.21875 60.042969 125.53125 60.042969 127.195312 C 60.042969 128.203125 59.644531 129.328125 58.332031 130.617188 Z M 54.019531 134.929688 "/>
<path fill-rule="nonzero" fill="rgb(0%, 0%, 0%)" fill-opacity="1" d="M 76.453125 130.757812 L 72.585938 126.890625 C 72.351562 126.65625 72.304688 126.609375 72.140625 126.609375 C 71.953125 126.609375 71.765625 126.773438 71.765625 127.007812 C 71.765625 127.125 71.8125 127.171875 72.023438 127.382812 L 75.890625 131.296875 L 72.023438 135.1875 C 71.8125 135.398438 71.765625 135.445312 71.765625 135.585938 C 71.765625 135.796875 71.953125 135.984375 72.140625 135.984375 C 72.304688 135.984375 72.351562 135.9375 72.585938 135.703125 L 76.453125 131.835938 L 80.460938 135.867188 C 80.507812 135.867188 80.648438 135.984375 80.765625 135.984375 C 81 135.984375 81.140625 135.796875 81.140625 135.585938 C 81.140625 135.539062 81.140625 135.46875 81.09375 135.375 C 81.070312 135.328125 77.976562 132.28125 77.015625 131.296875 L 80.554688 127.734375 C 80.671875 127.617188 80.953125 127.359375 81.046875 127.242188 C 81.070312 127.21875 81.140625 127.125 81.140625 127.007812 C 81.140625 126.773438 81 126.609375 80.765625 126.609375 C 80.601562 126.609375 80.53125 126.679688 80.320312 126.890625 Z M 76.453125 130.757812 "/>
<path fill-rule="nonzero" fill="rgb(0%, 0%, 0%)" fill-opacity="1" d="M 96.421875 129.28125 C 97.640625 128.90625 98.8125 127.828125 98.8125 126.398438 C 98.8125 124.570312 97.171875 123.023438 95.109375 123.023438 C 92.976562 123.023438 91.40625 124.617188 91.40625 126.398438 C 91.40625 127.851562 92.578125 128.929688 93.796875 129.28125 C 92.226562 129.796875 91.148438 131.085938 91.148438 132.65625 C 91.148438 134.71875 92.882812 136.546875 95.085938 136.546875 C 97.382812 136.546875 99.046875 134.695312 99.046875 132.65625 C 99.046875 131.085938 97.992188 129.796875 96.421875 129.28125 Z M 95.109375 128.695312 C 93.585938 128.695312 92.742188 127.664062 92.742188 126.421875 C 92.742188 124.945312 93.796875 124.125 95.085938 124.125 C 96.492188 124.125 97.453125 124.992188 97.453125 126.421875 C 97.453125 127.710938 96.5625 128.695312 95.109375 128.695312 Z M 95.109375 135.398438 C 93.820312 135.398438 92.671875 134.460938 92.671875 132.632812 C 92.671875 130.546875 94.078125 129.84375 95.085938 129.84375 C 96.1875 129.84375 97.523438 130.617188 97.523438 132.632812 C 97.523438 134.507812 96.328125 135.398438 95.109375 135.398438 Z M 95.109375 135.398438 "/>
<path fill-rule="nonzero" fill="rgb(0%, 0%, 0%)" fill-opacity="1" d="M 123.4375 129.796875 C 123.695312 129.796875 124.046875 129.796875 124.046875 129.445312 C 124.046875 129.070312 123.71875 129.070312 123.4375 129.070312 L 111.976562 129.070312 C 111.71875 129.070312 111.367188 129.070312 111.367188 129.421875 C 111.367188 129.796875 111.695312 129.796875 111.976562 129.796875 Z M 123.4375 133.523438 C 123.695312 133.523438 124.046875 133.523438 124.046875 133.171875 C 124.046875 132.796875 123.71875 132.796875 123.4375 132.796875 L 111.976562 132.796875 C 111.71875 132.796875 111.367188 132.796875 111.367188 133.148438 C 111.367188 133.523438 111.695312 133.523438 111.976562 133.523438 Z M 123.4375 133.523438 "/>
<path fill-rule="nonzero" fill="rgb(0%, 0%, 0%)" fill-opacity="1" d="M 141.261719 123.023438 L 140.886719 123.023438 C 140.582031 123.328125 139.644531 124.242188 137.535156 124.265625 C 137.277344 124.265625 137.253906 124.289062 137.253906 124.640625 L 137.253906 125.414062 C 138.449219 125.414062 139.339844 125.132812 139.738281 124.945312 L 139.738281 135.023438 L 137.371094 135.023438 L 137.371094 136.148438 L 143.628906 136.148438 L 143.628906 135.023438 L 141.261719 135.023438 Z M 141.261719 123.023438 "/>
<path fill-rule="nonzero" fill="rgb(0%, 0%, 0%)" fill-opacity="1" d="M 152.953125 123.398438 C 152.15625 123.117188 151.59375 123.023438 150.914062 123.023438 C 148.289062 123.023438 145.875 125.71875 145.875 129.890625 C 145.875 135.46875 148.289062 136.546875 149.835938 136.546875 C 151.007812 136.546875 151.828125 136.101562 152.601562 135.1875 C 153.46875 134.15625 153.75 133.242188 153.75 131.835938 C 153.75 129.351562 152.460938 127.21875 150.679688 127.21875 C 149.25 127.21875 148.171875 127.921875 147.445312 128.8125 C 147.65625 125.929688 149.039062 124.125 150.960938 124.125 C 151.804688 124.125 152.390625 124.3125 152.953125 124.523438 Z M 147.46875 131.90625 C 147.46875 131.765625 147.46875 131.507812 147.492188 131.367188 C 147.492188 130.007812 148.265625 128.390625 149.929688 128.390625 C 150.5625 128.390625 151.195312 128.578125 151.757812 129.539062 C 152.179688 130.3125 152.203125 131.085938 152.203125 131.859375 C 152.203125 132.65625 152.203125 133.476562 151.617188 134.367188 C 151.265625 134.882812 150.796875 135.398438 149.835938 135.398438 C 147.820312 135.398438 147.515625 132.539062 147.46875 131.90625 Z M 147.46875 131.90625 "/>
<path fill="none" stroke-width="0.99628" stroke-linecap="butt" stroke-linejoin="round" stroke="rgb(19.607843%, 19.607843%, 19.607843%)" stroke-opacity="1" stroke-miterlimit="10" d="M -115.038498 -23.028142 L 115.039627 -23.028142 L 115.039627 23.023941 L -115.038498 23.023941 Z M -115.038498 -23.028142 " transform="matrix(1.5, 0, 0, -1.5, 371.213997, 130.594505)"/>
<path fill-rule="nonzero" fill="rgb(0%, 0%, 0%)" fill-opacity="1" d="M 261.710938 110.960938 L 261.335938 110.960938 C 261.03125 111.265625 260.09375 112.179688 257.984375 112.203125 C 257.726562 112.203125 257.703125 112.226562 257.703125 112.578125 L 257.703125 113.351562 C 258.898438 113.351562 259.789062 113.070312 260.1875 112.882812 L 260.1875 122.960938 L 257.820312 122.960938 L 257.820312 124.085938 L 264.078125 124.085938 L 264.078125 122.960938 L 261.710938 122.960938 Z M 261.710938 110.960938 "/>
<path fill-rule="nonzero" fill="rgb(0%, 0%, 0%)" fill-opacity="1" d="M 273.402344 111.335938 C 272.605469 111.054688 272.042969 110.960938 271.363281 110.960938 C 268.738281 110.960938 266.324219 113.65625 266.324219 117.828125 C 266.324219 123.40625 268.738281 124.484375 270.285156 124.484375 C 271.457031 124.484375 272.277344 124.039062 273.050781 123.125 C 273.917969 122.09375 274.199219 121.179688 274.199219 119.773438 C 274.199219 117.289062 272.910156 115.15625 271.128906 115.15625 C 269.699219 115.15625 268.621094 115.859375 267.894531 116.75 C 268.105469 113.867188 269.488281 112.0625 271.410156 112.0625 C 272.253906 112.0625 272.839844 112.25 273.402344 112.460938 Z M 267.917969 119.84375 C 267.917969 119.703125 267.917969 119.445312 267.941406 119.304688 C 267.941406 117.945312 268.714844 116.328125 270.378906 116.328125 C 271.011719 116.328125 271.644531 116.515625 272.207031 117.476562 C 272.628906 118.25 272.652344 119.023438 272.652344 119.796875 C 272.652344 120.59375 272.652344 121.414062 272.066406 122.304688 C 271.714844 122.820312 271.246094 123.335938 270.285156 123.335938 C 268.269531 123.335938 267.964844 120.476562 267.917969 119.84375 Z M 267.917969 119.84375 "/>
<path fill-rule="nonzero" fill="rgb(0%, 0%, 0%)" fill-opacity="1" d="M 290.914062 115.039062 C 290.914062 114.40625 290.375 113.796875 289.648438 113.796875 C 288.921875 113.796875 288.40625 114.40625 288.40625 115.039062 C 288.40625 115.648438 288.945312 116.257812 289.648438 116.257812 C 290.398438 116.257812 290.914062 115.648438 290.914062 115.039062 Z M 290.914062 123.429688 C 290.914062 122.796875 290.375 122.210938 289.648438 122.210938 C 288.921875 122.210938 288.40625 122.796875 288.40625 123.429688 C 288.40625 124.039062 288.945312 124.648438 289.648438 124.648438 C 290.398438 124.648438 290.914062 124.039062 290.914062 123.429688 Z M 283.859375 118.835938 C 283.53125 118.835938 283.179688 118.835938 283.179688 119.234375 C 283.179688 119.609375 283.53125 119.609375 283.859375 119.609375 L 295.460938 119.609375 C 295.789062 119.609375 296.140625 119.609375 296.140625 119.234375 C 296.140625 118.835938 295.789062 118.835938 295.460938 118.835938 Z M 283.859375 118.835938 "/>
<path fill-rule="nonzero" fill="rgb(0%, 0%, 0%)" fill-opacity="1" d="M 305.261719 122.867188 L 305.261719 124.085938 L 312.855469 124.085938 L 312.855469 122.773438 L 309.386719 122.773438 C 309.152344 122.773438 308.917969 122.773438 308.683594 122.773438 L 306.621094 122.773438 C 307.113281 122.257812 308.917969 120.476562 310.183594 119.351562 C 311.636719 118.085938 312.855469 116.867188 312.855469 115.085938 C 312.855469 112.929688 311.355469 110.960938 308.777344 110.960938 C 306.691406 110.960938 305.613281 112.320312 305.097656 114.148438 C 305.730469 114.921875 305.730469 114.945312 305.894531 115.179688 C 306.386719 113.117188 307.089844 112.15625 308.542969 112.15625 C 310.207031 112.15625 311.285156 113.46875 311.285156 115.132812 C 311.285156 116.140625 310.886719 117.265625 309.574219 118.554688 Z M 305.261719 122.867188 "/>
<path fill-rule="nonzero" fill="rgb(0%, 0%, 0%)" fill-opacity="1" d="M 339.253906 117.734375 C 339.511719 117.734375 339.863281 117.734375 339.863281 117.382812 C 339.863281 117.007812 339.535156 117.007812 339.253906 117.007812 L 327.792969 117.007812 C 327.535156 117.007812 327.183594 117.007812 327.183594 117.359375 C 327.183594 117.734375 327.511719 117.734375 327.792969 117.734375 Z M 339.253906 121.460938 C 339.511719 121.460938 339.863281 121.460938 339.863281 121.109375 C 339.863281 120.734375 339.535156 120.734375 339.253906 120.734375 L 327.792969 120.734375 C 327.535156 120.734375 327.183594 120.734375 327.183594 121.085938 C 327.183594 121.460938 327.511719 121.460938 327.792969 121.460938 Z M 339.253906 121.460938 "/>
<path fill-rule="nonzero" fill="rgb(0%, 0%, 0%)" fill-opacity="1" d="M 359.308594 117.21875 C 360.527344 116.84375 361.699219 115.765625 361.699219 114.335938 C 361.699219 112.507812 360.058594 110.960938 357.996094 110.960938 C 355.863281 110.960938 354.292969 112.554688 354.292969 114.335938 C 354.292969 115.789062 355.464844 116.867188 356.683594 117.21875 C 355.113281 117.734375 354.035156 119.023438 354.035156 120.59375 C 354.035156 122.65625 355.769531 124.484375 357.972656 124.484375 C 360.269531 124.484375 361.933594 122.632812 361.933594 120.59375 C 361.933594 119.023438 360.878906 117.734375 359.308594 117.21875 Z M 357.996094 116.632812 C 356.472656 116.632812 355.628906 115.601562 355.628906 114.359375 C 355.628906 112.882812 356.683594 112.0625 357.972656 112.0625 C 359.378906 112.0625 360.339844 112.929688 360.339844 114.359375 C 360.339844 115.648438 359.449219 116.632812 357.996094 116.632812 Z M 357.996094 123.335938 C 356.707031 123.335938 355.558594 122.398438 355.558594 120.570312 C 355.558594 118.484375 356.964844 117.78125 357.972656 117.78125 C 359.074219 117.78125 360.410156 118.554688 360.410156 120.570312 C 360.410156 122.445312 359.214844 123.335938 357.996094 123.335938 Z M 357.996094 123.335938 "/>
<path fill-rule="nonzero" fill="rgb(0%, 0%, 0%)" fill-opacity="1" d="M 366.171875 124.0625 L 366.171875 122.515625 L 364.601562 122.515625 L 364.601562 124.085938 L 365.070312 124.085938 L 364.601562 126.523438 L 365.375 126.523438 Z M 366.171875 124.0625 "/>
<path fill-rule="nonzero" fill="rgb(0%, 0%, 0%)" fill-opacity="1" d="M 380.105469 110.960938 L 379.730469 110.960938 C 379.425781 111.265625 378.488281 112.179688 376.378906 112.203125 C 376.121094 112.203125 376.097656 112.226562 376.097656 112.578125 L 376.097656 113.351562 C 377.292969 113.351562 378.183594 113.070312 378.582031 112.882812 L 378.582031 122.960938 L 376.214844 122.960938 L 376.214844 124.085938 L 382.472656 124.085938 L 382.472656 122.960938 L 380.105469 122.960938 Z M 380.105469 110.960938 "/>
<path fill-rule="nonzero" fill="rgb(0%, 0%, 0%)" fill-opacity="1" d="M 391.796875 111.335938 C 391 111.054688 390.4375 110.960938 389.757812 110.960938 C 387.132812 110.960938 384.71875 113.65625 384.71875 117.828125 C 384.71875 123.40625 387.132812 124.484375 388.679688 124.484375 C 389.851562 124.484375 390.671875 124.039062 391.445312 123.125 C 392.3125 122.09375 392.59375 121.179688 392.59375 119.773438 C 392.59375 117.289062 391.304688 115.15625 389.523438 115.15625 C 388.09375 115.15625 387.015625 115.859375 386.289062 116.75 C 386.5 113.867188 387.882812 112.0625 389.804688 112.0625 C 390.648438 112.0625 391.234375 112.25 391.796875 112.460938 Z M 386.3125 119.84375 C 386.3125 119.703125 386.3125 119.445312 386.335938 119.304688 C 386.335938 117.945312 387.109375 116.328125 388.773438 116.328125 C 389.40625 116.328125 390.039062 116.515625 390.601562 117.476562 C 391.023438 118.25 391.046875 119.023438 391.046875 119.796875 C 391.046875 120.59375 391.046875 121.414062 390.460938 122.304688 C 390.109375 122.820312 389.640625 123.335938 388.679688 123.335938 C 386.664062 123.335938 386.359375 120.476562 386.3125 119.84375 Z M 386.3125 119.84375 "/>
<path fill-rule="nonzero" fill="rgb(0%, 0%, 0%)" fill-opacity="1" d="M 409.304688 115.039062 C 409.304688 114.40625 408.765625 113.796875 408.039062 113.796875 C 407.3125 113.796875 406.796875 114.40625 406.796875 115.039062 C 406.796875 115.648438 407.335938 116.257812 408.039062 116.257812 C 408.789062 116.257812 409.304688 115.648438 409.304688 115.039062 Z M 409.304688 123.429688 C 409.304688 122.796875 408.765625 122.210938 408.039062 122.210938 C 407.3125 122.210938 406.796875 122.796875 406.796875 123.429688 C 406.796875 124.039062 407.335938 124.648438 408.039062 124.648438 C 408.789062 124.648438 409.304688 124.039062 409.304688 123.429688 Z M 402.25 118.835938 C 401.921875 118.835938 401.570312 118.835938 401.570312 119.234375 C 401.570312 119.609375 401.921875 119.609375 402.25 119.609375 L 413.851562 119.609375 C 414.179688 119.609375 414.53125 119.609375 414.53125 119.234375 C 414.53125 118.835938 414.179688 118.835938 413.851562 118.835938 Z M 402.25 118.835938 "/>
<path fill-rule="nonzero" fill="rgb(0%, 0%, 0%)" fill-opacity="1" d="M 428.761719 117.21875 C 429.980469 116.84375 431.152344 115.765625 431.152344 114.335938 C 431.152344 112.507812 429.511719 110.960938 427.449219 110.960938 C 425.316406 110.960938 423.746094 112.554688 423.746094 114.335938 C 423.746094 115.789062 424.917969 116.867188 426.136719 117.21875 C 424.566406 117.734375 423.488281 119.023438 423.488281 120.59375 C 423.488281 122.65625 425.222656 124.484375 427.425781 124.484375 C 429.722656 124.484375 431.386719 122.632812 431.386719 120.59375 C 431.386719 119.023438 430.332031 117.734375 428.761719 117.21875 Z M 427.449219 116.632812 C 425.925781 116.632812 425.082031 115.601562 425.082031 114.359375 C 425.082031 112.882812 426.136719 112.0625 427.425781 112.0625 C 428.832031 112.0625 429.792969 112.929688 429.792969 114.359375 C 429.792969 115.648438 428.902344 116.632812 427.449219 116.632812 Z M 427.449219 123.335938 C 426.160156 123.335938 425.011719 122.398438 425.011719 120.570312 C 425.011719 118.484375 426.417969 117.78125 427.425781 117.78125 C 428.527344 117.78125 429.863281 118.554688 429.863281 120.570312 C 429.863281 122.445312 428.667969 123.335938 427.449219 123.335938 Z M 427.449219 123.335938 "/>
<path fill-rule="nonzero" fill="rgb(0%, 0%, 0%)" fill-opacity="1" d="M 457.644531 117.734375 C 457.902344 117.734375 458.253906 117.734375 458.253906 117.382812 C 458.253906 117.007812 457.925781 117.007812 457.644531 117.007812 L 446.183594 117.007812 C 445.925781 117.007812 445.574219 117.007812 445.574219 117.359375 C 445.574219 117.734375 445.902344 117.734375 446.183594 117.734375 Z M 457.644531 121.460938 C 457.902344 121.460938 458.253906 121.460938 458.253906 121.109375 C 458.253906 120.734375 457.925781 120.734375 457.644531 120.734375 L 446.183594 120.734375 C 445.925781 120.734375 445.574219 120.734375 445.574219 121.085938 C 445.574219 121.460938 445.902344 121.460938 446.183594 121.460938 Z M 457.644531 121.460938 "/>
<path fill-rule="nonzero" fill="rgb(0%, 0%, 0%)" fill-opacity="1" d="M 472.59375 122.867188 L 472.59375 124.085938 L 480.1875 124.085938 L 480.1875 122.773438 L 476.71875 122.773438 C 476.484375 122.773438 476.25 122.773438 476.015625 122.773438 L 473.953125 122.773438 C 474.445312 122.257812 476.25 120.476562 477.515625 119.351562 C 478.96875 118.085938 480.1875 116.867188 480.1875 115.085938 C 480.1875 112.929688 478.6875 110.960938 476.109375 110.960938 C 474.023438 110.960938 472.945312 112.320312 472.429688 114.148438 C 473.0625 114.921875 473.0625 114.945312 473.226562 115.179688 C 473.71875 113.117188 474.421875 112.15625 475.875 112.15625 C 477.539062 112.15625 478.617188 113.46875 478.617188 115.132812 C 478.617188 116.140625 478.21875 117.265625 476.90625 118.554688 Z M 472.59375 122.867188 "/>
<path fill-rule="nonzero" fill="rgb(0%, 0%, 0%)" fill-opacity="1" d="M 484.566406 124.0625 L 484.566406 122.515625 L 482.996094 122.515625 L 482.996094 124.085938 L 483.464844 124.085938 L 482.996094 126.523438 L 483.769531 126.523438 Z M 484.566406 124.0625 "/>
<path fill-rule="nonzero" fill="rgb(0%, 0%, 0%)" fill-opacity="1" d="M 263.953125 140.53125 C 265.171875 140.15625 266.34375 139.078125 266.34375 137.648438 C 266.34375 135.820312 264.703125 134.273438 262.640625 134.273438 C 260.507812 134.273438 258.9375 135.867188 258.9375 137.648438 C 258.9375 139.101562 260.109375 140.179688 261.328125 140.53125 C 259.757812 141.046875 258.679688 142.335938 258.679688 143.90625 C 258.679688 145.96875 260.414062 147.796875 262.617188 147.796875 C 264.914062 147.796875 266.578125 145.945312 266.578125 143.90625 C 266.578125 142.335938 265.523438 141.046875 263.953125 140.53125 Z M 262.640625 139.945312 C 261.117188 139.945312 260.273438 138.914062 260.273438 137.671875 C 260.273438 136.195312 261.328125 135.375 262.617188 135.375 C 264.023438 135.375 264.984375 136.242188 264.984375 137.671875 C 264.984375 138.960938 264.09375 139.945312 262.640625 139.945312 Z M 262.640625 146.648438 C 261.351562 146.648438 260.203125 145.710938 260.203125 143.882812 C 260.203125 141.796875 261.609375 141.09375 262.617188 141.09375 C 263.71875 141.09375 265.054688 141.867188 265.054688 143.882812 C 265.054688 145.757812 263.859375 146.648438 262.640625 146.648438 Z M 262.640625 146.648438 "/>
<path fill-rule="nonzero" fill="rgb(0%, 0%, 0%)" fill-opacity="1" d="M 293.109375 141.046875 C 293.367188 141.046875 293.71875 141.046875 293.71875 140.695312 C 293.71875 140.320312 293.390625 140.320312 293.109375 140.320312 L 281.648438 140.320312 C 281.390625 140.320312 281.039062 140.320312 281.039062 140.671875 C 281.039062 141.046875 281.367188 141.046875 281.648438 141.046875 Z M 293.109375 144.773438 C 293.367188 144.773438 293.71875 144.773438 293.71875 144.421875 C 293.71875 144.046875 293.390625 144.046875 293.109375 144.046875 L 281.648438 144.046875 C 281.390625 144.046875 281.039062 144.046875 281.039062 144.398438 C 281.039062 144.773438 281.367188 144.773438 281.648438 144.773438 Z M 293.109375 144.773438 "/>
<path fill-rule="nonzero" fill="rgb(0%, 0%, 0%)" fill-opacity="1" d="M 313.085938 134.273438 L 312.710938 134.273438 C 312.40625 134.578125 311.46875 135.492188 309.359375 135.515625 C 309.101562 135.515625 309.078125 135.539062 309.078125 135.890625 L 309.078125 136.664062 C 310.273438 136.664062 311.164062 136.382812 311.5625 136.195312 L 311.5625 146.273438 L 309.195312 146.273438 L 309.195312 147.398438 L 315.453125 147.398438 L 315.453125 146.273438 L 313.085938 146.273438 Z M 313.085938 134.273438 "/>
<path fill-rule="nonzero" fill="rgb(0%, 0%, 0%)" fill-opacity="1" d="M 324.777344 134.648438 C 323.980469 134.367188 323.417969 134.273438 322.738281 134.273438 C 320.113281 134.273438 317.699219 136.96875 317.699219 141.140625 C 317.699219 146.71875 320.113281 147.796875 321.660156 147.796875 C 322.832031 147.796875 323.652344 147.351562 324.425781 146.4375 C 325.292969 145.40625 325.574219 144.492188 325.574219 143.085938 C 325.574219 140.601562 324.285156 138.46875 322.503906 138.46875 C 321.074219 138.46875 319.996094 139.171875 319.269531 140.0625 C 319.480469 137.179688 320.863281 135.375 322.785156 135.375 C 323.628906 135.375 324.214844 135.5625 324.777344 135.773438 Z M 319.292969 143.15625 C 319.292969 143.015625 319.292969 142.757812 319.316406 142.617188 C 319.316406 141.257812 320.089844 139.640625 321.753906 139.640625 C 322.386719 139.640625 323.019531 139.828125 323.582031 140.789062 C 324.003906 141.5625 324.027344 142.335938 324.027344 143.109375 C 324.027344 143.90625 324.027344 144.726562 323.441406 145.617188 C 323.089844 146.132812 322.621094 146.648438 321.660156 146.648438 C 319.644531 146.648438 319.339844 143.789062 319.292969 143.15625 Z M 319.292969 143.15625 "/>
<path fill-rule="nonzero" fill="rgb(0%, 0%, 0%)" fill-opacity="1" d="M 342.398438 138.351562 C 342.398438 137.71875 341.859375 137.109375 341.132812 137.109375 C 340.40625 137.109375 339.890625 137.71875 339.890625 138.351562 C 339.890625 138.960938 340.429688 139.570312 341.132812 139.570312 C 341.882812 139.570312 342.398438 138.960938 342.398438 138.351562 Z M 342.398438 146.742188 C 342.398438 146.109375 341.859375 145.523438 341.132812 145.523438 C 340.40625 145.523438 339.890625 146.109375 339.890625 146.742188 C 339.890625 147.351562 340.429688 147.960938 341.132812 147.960938 C 341.882812 147.960938 342.398438 147.351562 342.398438 146.742188 Z M 335.34375 142.148438 C 335.015625 142.148438 334.664062 142.148438 334.664062 142.546875 C 334.664062 142.921875 335.015625 142.921875 335.34375 142.921875 L 346.945312 142.921875 C 347.273438 142.921875 347.625 142.921875 347.625 142.546875 C 347.625 142.148438 347.273438 142.148438 346.945312 142.148438 Z M 335.34375 142.148438 "/>
<path fill-rule="nonzero" fill="rgb(0%, 0%, 0%)" fill-opacity="1" d="M 356.851562 146.179688 L 356.851562 147.398438 L 364.445312 147.398438 L 364.445312 146.085938 L 360.976562 146.085938 C 360.742188 146.085938 360.507812 146.085938 360.273438 146.085938 L 358.210938 146.085938 C 358.703125 145.570312 360.507812 143.789062 361.773438 142.664062 C 363.226562 141.398438 364.445312 140.179688 364.445312 138.398438 C 364.445312 136.242188 362.945312 134.273438 360.367188 134.273438 C 358.28125 134.273438 357.203125 135.632812 356.6875 137.460938 C 357.320312 138.234375 357.320312 138.257812 357.484375 138.492188 C 357.976562 136.429688 358.679688 135.46875 360.132812 135.46875 C 361.796875 135.46875 362.875 136.78125 362.875 138.445312 C 362.875 139.453125 362.476562 140.578125 361.164062 141.867188 Z M 356.851562 146.179688 "/>
<path fill-rule="nonzero" fill="rgb(0%, 0%, 0%)" fill-opacity="1" d="M 368.824219 147.375 L 368.824219 145.828125 L 367.253906 145.828125 L 367.253906 147.398438 L 367.722656 147.398438 L 367.253906 149.835938 L 368.027344 149.835938 Z M 368.824219 147.375 "/>
<path fill-rule="nonzero" fill="rgb(0%, 0%, 0%)" fill-opacity="1" d="M 377.980469 146.179688 L 377.980469 147.398438 L 385.574219 147.398438 L 385.574219 146.085938 L 382.105469 146.085938 C 381.871094 146.085938 381.636719 146.085938 381.402344 146.085938 L 379.339844 146.085938 C 379.832031 145.570312 381.636719 143.789062 382.902344 142.664062 C 384.355469 141.398438 385.574219 140.179688 385.574219 138.398438 C 385.574219 136.242188 384.074219 134.273438 381.496094 134.273438 C 379.410156 134.273438 378.332031 135.632812 377.816406 137.460938 C 378.449219 138.234375 378.449219 138.257812 378.613281 138.492188 C 379.105469 136.429688 379.808594 135.46875 381.261719 135.46875 C 382.925781 135.46875 384.003906 136.78125 384.003906 138.445312 C 384.003906 139.453125 383.605469 140.578125 382.292969 141.867188 Z M 377.980469 146.179688 "/>
<path fill-rule="nonzero" fill="rgb(0%, 0%, 0%)" fill-opacity="1" d="M 412.246094 141.046875 C 412.503906 141.046875 412.855469 141.046875 412.855469 140.695312 C 412.855469 140.320312 412.527344 140.320312 412.246094 140.320312 L 400.785156 140.320312 C 400.527344 140.320312 400.175781 140.320312 400.175781 140.671875 C 400.175781 141.046875 400.503906 141.046875 400.785156 141.046875 Z M 412.246094 144.773438 C 412.503906 144.773438 412.855469 144.773438 412.855469 144.421875 C 412.855469 144.046875 412.527344 144.046875 412.246094 144.046875 L 400.785156 144.046875 C 400.527344 144.046875 400.175781 144.046875 400.175781 144.398438 C 400.175781 144.773438 400.503906 144.773438 400.785156 144.773438 Z M 412.246094 144.773438 "/>
<path fill-rule="nonzero" fill="rgb(0%, 0%, 0%)" fill-opacity="1" d="M 432.222656 134.273438 L 431.847656 134.273438 C 431.542969 134.578125 430.605469 135.492188 428.496094 135.515625 C 428.238281 135.515625 428.214844 135.539062 428.214844 135.890625 L 428.214844 136.664062 C 429.410156 136.664062 430.300781 136.382812 430.699219 136.195312 L 430.699219 146.273438 L 428.332031 146.273438 L 428.332031 147.398438 L 434.589844 147.398438 L 434.589844 146.273438 L 432.222656 146.273438 Z M 432.222656 134.273438 "/>
<path fill-rule="nonzero" fill="rgb(0%, 0%, 0%)" fill-opacity="1" d="M 443.914062 134.648438 C 443.117188 134.367188 442.554688 134.273438 441.875 134.273438 C 439.25 134.273438 436.835938 136.96875 436.835938 141.140625 C 436.835938 146.71875 439.25 147.796875 440.796875 147.796875 C 441.96875 147.796875 442.789062 147.351562 443.5625 146.4375 C 444.429688 145.40625 444.710938 144.492188 444.710938 143.085938 C 444.710938 140.601562 443.421875 138.46875 441.640625 138.46875 C 440.210938 138.46875 439.132812 139.171875 438.40625 140.0625 C 438.617188 137.179688 440 135.375 441.921875 135.375 C 442.765625 135.375 443.351562 135.5625 443.914062 135.773438 Z M 438.429688 143.15625 C 438.429688 143.015625 438.429688 142.757812 438.453125 142.617188 C 438.453125 141.257812 439.226562 139.640625 440.890625 139.640625 C 441.523438 139.640625 442.15625 139.828125 442.71875 140.789062 C 443.140625 141.5625 443.164062 142.335938 443.164062 143.109375 C 443.164062 143.90625 443.164062 144.726562 442.578125 145.617188 C 442.226562 146.132812 441.757812 146.648438 440.796875 146.648438 C 438.78125 146.648438 438.476562 143.789062 438.429688 143.15625 Z M 438.429688 143.15625 "/>
<path fill-rule="nonzero" fill="rgb(0%, 0%, 0%)" fill-opacity="1" d="M 461.542969 138.351562 C 461.542969 137.71875 461.003906 137.109375 460.277344 137.109375 C 459.550781 137.109375 459.035156 137.71875 459.035156 138.351562 C 459.035156 138.960938 459.574219 139.570312 460.277344 139.570312 C 461.027344 139.570312 461.542969 138.960938 461.542969 138.351562 Z M 461.542969 146.742188 C 461.542969 146.109375 461.003906 145.523438 460.277344 145.523438 C 459.550781 145.523438 459.035156 146.109375 459.035156 146.742188 C 459.035156 147.351562 459.574219 147.960938 460.277344 147.960938 C 461.027344 147.960938 461.542969 147.351562 461.542969 146.742188 Z M 454.488281 142.148438 C 454.160156 142.148438 453.808594 142.148438 453.808594 142.546875 C 453.808594 142.921875 454.160156 142.921875 454.488281 142.921875 L 466.089844 142.921875 C 466.417969 142.921875 466.769531 142.921875 466.769531 142.546875 C 466.769531 142.148438 466.417969 142.148438 466.089844 142.148438 Z M 454.488281 142.148438 "/>
<path fill-rule="nonzero" fill="rgb(0%, 0%, 0%)" fill-opacity="1" d="M 481.105469 140.53125 C 482.324219 140.15625 483.496094 139.078125 483.496094 137.648438 C 483.496094 135.820312 481.855469 134.273438 479.792969 134.273438 C 477.660156 134.273438 476.089844 135.867188 476.089844 137.648438 C 476.089844 139.101562 477.261719 140.179688 478.480469 140.53125 C 476.910156 141.046875 475.832031 142.335938 475.832031 143.90625 C 475.832031 145.96875 477.566406 147.796875 479.769531 147.796875 C 482.066406 147.796875 483.730469 145.945312 483.730469 143.90625 C 483.730469 142.335938 482.675781 141.046875 481.105469 140.53125 Z M 479.792969 139.945312 C 478.269531 139.945312 477.425781 138.914062 477.425781 137.671875 C 477.425781 136.195312 478.480469 135.375 479.769531 135.375 C 481.175781 135.375 482.136719 136.242188 482.136719 137.671875 C 482.136719 138.960938 481.246094 139.945312 479.792969 139.945312 Z M 479.792969 146.648438 C 478.503906 146.648438 477.355469 145.710938 477.355469 143.882812 C 477.355469 141.796875 478.761719 141.09375 479.769531 141.09375 C 480.871094 141.09375 482.207031 141.867188 482.207031 143.882812 C 482.207031 145.757812 481.011719 146.648438 479.792969 146.648438 Z M 479.792969 146.648438 "/>
</svg>
