<?xml version="1.0" encoding="UTF-8"?>
<svg xmlns="http://www.w3.org/2000/svg" xmlns:xlink="http://www.w3.org/1999/xlink" width="590.72699" height="328.766991" viewBox="0 0 590.72699 328.766991">
<path fill="none" stroke-width="1.99255" stroke-linecap="butt" stroke-linejoin="round" stroke="rgb(19.607843%, 19.607843%, 19.607843%)" stroke-opacity="1" stroke-miterlimit="10" d="M -60.929436 -17.269625 L 60.929939 -17.269625 L 60.929939 17.269438 L -60.929436 17.269438 Z M -60.929436 -17.269625 " transform="matrix(1.5, 0, 0, -1.5, 100.358997, 34.869)"/>
<path fill-rule="nonzero" fill="rgb(0%, 0%, 0%)" fill-opacity="1" d="M 43.144531 30.410156 C 42.628906 30.292969 41.175781 29.753906 41.175781 28.441406 C 41.175781 26.449219 43.167969 26.402344 43.941406 26.402344 C 45.253906 26.402344 46.425781 26.707031 47.574219 27.832031 C 47.949219 28.183594 47.972656 28.207031 48.066406 28.207031 C 48.207031 28.207031 48.324219 28.136719 48.394531 27.785156 L 48.722656 25.746094 C 48.769531 25.558594 48.769531 25.511719 48.769531 25.441406 C 48.769531 25.253906 48.746094 25.230469 48.183594 24.925781 C 46.519531 24.128906 45.136719 24.011719 43.941406 24.011719 C 41.878906 24.011719 38.269531 24.480469 38.269531 28.863281 C 38.269531 30.503906 39.136719 31.582031 39.558594 32.050781 C 40.753906 33.269531 41.855469 33.503906 43.683594 33.902344 C 44.972656 34.207031 45.488281 34.324219 46.003906 34.792969 C 46.238281 35.027344 46.730469 35.519531 46.730469 36.410156 C 46.730469 38.589844 44.714844 38.660156 43.941406 38.660156 C 41.996094 38.660156 40.285156 37.886719 39.136719 36.832031 C 38.855469 36.550781 38.808594 36.550781 38.714844 36.550781 C 38.574219 36.550781 38.457031 36.621094 38.386719 36.972656 L 38.035156 38.988281 C 37.988281 39.175781 37.988281 39.222656 37.988281 39.292969 C 37.988281 39.785156 40.402344 40.628906 40.519531 40.675781 C 42.089844 41.167969 43.355469 41.214844 43.941406 41.214844 C 47.457031 41.214844 49.636719 39.644531 49.636719 36.035156 C 49.636719 33.433594 47.714844 31.464844 45.371094 30.925781 Z M 43.144531 30.410156 "/>
<path fill-rule="nonzero" fill="rgb(0%, 0%, 0%)" fill-opacity="1" d="M 53.453125 24.480469 C 52.726562 24.480469 52.351562 24.621094 52.351562 25.558594 L 52.351562 26.636719 C 52.351562 27.386719 52.585938 27.691406 53.429688 27.691406 L 54.648438 27.691406 C 55.773438 27.691406 55.773438 27.199219 55.773438 26.097656 C 55.773438 24.972656 55.773438 24.480469 54.648438 24.480469 Z M 55.609375 31.136719 C 55.609375 30.386719 55.445312 30.011719 54.484375 30.011719 L 53.617188 30.011719 C 52.796875 30.011719 52.515625 30.269531 52.515625 31.136719 L 52.515625 39.574219 C 52.515625 40.417969 52.773438 40.699219 53.617188 40.699219 L 54.484375 40.699219 C 55.375 40.699219 55.609375 40.394531 55.609375 39.574219 Z M 55.609375 31.136719 "/>
<path fill-rule="nonzero" fill="rgb(0%, 0%, 0%)" fill-opacity="1" d="M 74.835938 37.417969 C 74.835938 36.105469 74.132812 35.285156 73.710938 34.910156 C 72.773438 34.066406 71.976562 33.925781 70.992188 33.738281 C 69.703125 33.527344 68.765625 33.339844 68.765625 32.425781 C 68.765625 31.464844 69.539062 31.277344 70.453125 31.277344 C 72.023438 31.277344 72.84375 31.863281 73.453125 32.378906 C 73.6875 32.613281 73.734375 32.613281 73.828125 32.613281 C 74.0625 32.613281 74.109375 32.402344 74.132812 32.308594 C 74.179688 32.121094 74.414062 30.808594 74.414062 30.691406 C 74.414062 30.316406 73.171875 29.988281 72.914062 29.894531 C 72 29.636719 71.25 29.613281 70.640625 29.613281 C 69.585938 29.613281 66.46875 29.613281 66.46875 32.964844 C 66.46875 34.089844 66.984375 34.792969 67.617188 35.355469 C 68.414062 36.105469 69.328125 36.269531 70.664062 36.527344 C 71.34375 36.644531 72.539062 36.855469 72.539062 37.886719 C 72.539062 38.964844 71.625 39.128906 70.710938 39.128906 C 69.679688 39.128906 68.367188 38.824219 67.289062 37.535156 C 67.171875 37.417969 67.101562 37.347656 66.960938 37.347656 C 66.726562 37.347656 66.679688 37.558594 66.65625 37.699219 C 66.609375 38.027344 66.328125 39.339844 66.328125 39.574219 C 66.328125 39.996094 68.039062 40.535156 68.0625 40.558594 C 69.351562 40.957031 70.3125 40.957031 70.710938 40.957031 C 71.90625 40.957031 74.835938 40.863281 74.835938 37.417969 Z M 74.835938 37.417969 "/>
<path fill-rule="nonzero" fill="rgb(0%, 0%, 0%)" fill-opacity="1" d="M 85.371094 25.160156 C 85.488281 25.066406 85.628906 24.949219 85.628906 24.808594 C 85.628906 24.503906 85.371094 24.503906 84.996094 24.503906 L 83.074219 24.503906 C 82.605469 24.503906 82.582031 24.527344 82.371094 24.785156 L 80.378906 27.527344 C 80.167969 27.785156 80.167969 27.832031 80.167969 27.878906 C 80.167969 28.183594 80.425781 28.183594 80.800781 28.183594 L 81.667969 28.183594 Z M 85.371094 25.160156 "/>
<path fill-rule="nonzero" fill="rgb(0%, 0%, 0%)" fill-opacity="1" d="M 85.488281 35.707031 C 86.027344 35.707031 86.613281 35.683594 86.613281 34.628906 C 86.613281 31.628906 85.207031 29.613281 81.738281 29.613281 C 77.988281 29.613281 76.160156 31.722656 76.160156 35.261719 C 76.160156 39.082031 78.363281 40.957031 82.042969 40.957031 C 82.910156 40.957031 84.246094 40.839844 85.792969 40.066406 C 86.308594 39.808594 86.472656 39.738281 86.472656 39.457031 C 86.472656 39.292969 86.402344 38.613281 86.378906 38.425781 C 86.285156 37.722656 86.261719 37.699219 86.050781 37.699219 C 85.957031 37.699219 85.910156 37.699219 85.652344 37.933594 C 84.269531 39.105469 82.863281 39.269531 82.136719 39.269531 C 79.488281 39.269531 79.207031 37.207031 79.136719 35.707031 Z M 79.160156 34.464844 C 79.230469 33.058594 79.699219 31.300781 81.738281 31.300781 C 83.589844 31.300781 83.941406 32.660156 84.011719 34.464844 Z M 79.160156 34.464844 "/>
<path fill-rule="nonzero" fill="rgb(0%, 0%, 0%)" fill-opacity="1" d="M 107.527344 30.878906 C 107.527344 30.128906 107.363281 29.753906 106.402344 29.753906 L 105.535156 29.753906 C 104.644531 29.753906 104.410156 30.058594 104.410156 30.878906 L 104.410156 31.324219 C 103.378906 29.753906 102.019531 29.753906 101.621094 29.753906 C 97.121094 29.753906 96.746094 33.527344 96.746094 35.378906 C 96.746094 37.207031 97.121094 40.957031 101.457031 40.957031 C 102.699219 40.957031 103.542969 40.488281 104.339844 39.574219 L 104.339844 44.097656 C 104.339844 44.847656 104.503906 45.222656 105.464844 45.222656 L 106.402344 45.222656 C 107.292969 45.222656 107.527344 44.917969 107.527344 44.097656 Z M 104.410156 38.027344 C 103.988281 38.589844 103.355469 39.269531 102.300781 39.269531 C 99.910156 39.269531 99.910156 36.316406 99.910156 35.402344 C 99.910156 34.464844 99.910156 31.582031 102.535156 31.582031 C 102.886719 31.582031 103.378906 31.675781 103.800781 32.121094 C 104.410156 32.707031 104.410156 33.128906 104.410156 33.410156 Z M 104.410156 38.027344 "/>
<path fill-rule="nonzero" fill="rgb(0%, 0%, 0%)" fill-opacity="1" d="M 120.609375 31.136719 C 120.609375 30.386719 120.46875 30.011719 119.507812 30.011719 L 118.570312 30.011719 C 117.679688 30.011719 117.445312 30.316406 117.445312 31.136719 L 117.445312 36.667969 C 117.445312 38.214844 116.625 39.527344 114.984375 39.527344 C 113.671875 39.527344 113.53125 39.199219 113.53125 37.980469 L 113.53125 31.136719 C 113.53125 30.386719 113.367188 30.011719 112.40625 30.011719 L 111.46875 30.011719 C 110.648438 30.011719 110.367188 30.269531 110.367188 31.136719 L 110.367188 37.769531 C 110.367188 40.253906 111.703125 40.957031 114.140625 40.957031 C 114.773438 40.957031 116.414062 40.957031 117.515625 38.964844 L 117.515625 39.574219 C 117.515625 40.324219 117.679688 40.699219 118.640625 40.699219 L 119.507812 40.699219 C 120.398438 40.699219 120.609375 40.394531 120.609375 39.574219 Z M 120.609375 31.136719 "/>
<path fill-rule="nonzero" fill="rgb(0%, 0%, 0%)" fill-opacity="1" d="M 132.09375 35.707031 C 132.632812 35.707031 133.21875 35.683594 133.21875 34.628906 C 133.21875 31.628906 131.8125 29.613281 128.34375 29.613281 C 124.59375 29.613281 122.765625 31.722656 122.765625 35.261719 C 122.765625 39.082031 124.96875 40.957031 128.648438 40.957031 C 129.515625 40.957031 130.851562 40.839844 132.398438 40.066406 C 132.914062 39.808594 133.078125 39.738281 133.078125 39.457031 C 133.078125 39.292969 133.007812 38.613281 132.984375 38.425781 C 132.890625 37.722656 132.867188 37.699219 132.65625 37.699219 C 132.5625 37.699219 132.515625 37.699219 132.257812 37.933594 C 130.875 39.105469 129.46875 39.269531 128.742188 39.269531 C 126.09375 39.269531 125.8125 37.207031 125.742188 35.707031 Z M 125.765625 34.464844 C 125.835938 33.058594 126.304688 31.300781 128.34375 31.300781 C 130.195312 31.300781 130.546875 32.660156 130.617188 34.464844 Z M 125.765625 34.464844 "/>
<path fill-rule="nonzero" fill="rgb(0%, 0%, 0%)" fill-opacity="1" d="M 147.597656 38.285156 C 147.597656 37.675781 147.574219 37.652344 146.964844 37.652344 L 145.160156 37.652344 C 144.574219 37.652344 144.550781 37.675781 144.550781 38.285156 L 144.550781 40.066406 C 144.550781 40.675781 144.574219 40.699219 145.160156 40.699219 L 146.964844 40.699219 C 147.574219 40.699219 147.597656 40.675781 147.597656 40.066406 Z M 147.597656 38.285156 "/>
<path fill-rule="nonzero" fill="rgb(0%, 0%, 0%)" fill-opacity="1" d="M 154.722656 38.285156 C 154.722656 37.675781 154.699219 37.652344 154.089844 37.652344 L 152.285156 37.652344 C 151.699219 37.652344 151.675781 37.675781 151.675781 38.285156 L 151.675781 40.066406 C 151.675781 40.675781 151.699219 40.699219 152.285156 40.699219 L 154.089844 40.699219 C 154.699219 40.699219 154.722656 40.675781 154.722656 40.066406 Z M 154.722656 38.285156 "/>
<path fill-rule="nonzero" fill="rgb(0%, 0%, 0%)" fill-opacity="1" d="M 161.847656 38.285156 C 161.847656 37.675781 161.824219 37.652344 161.214844 37.652344 L 159.410156 37.652344 C 158.824219 37.652344 158.800781 37.675781 158.800781 38.285156 L 158.800781 40.066406 C 158.800781 40.675781 158.824219 40.699219 159.410156 40.699219 L 161.214844 40.699219 C 161.824219 40.699219 161.847656 40.675781 161.847656 40.066406 Z M 161.847656 38.285156 "/>
<path fill="none" stroke-width="1.99255" stroke-linecap="butt" stroke-linejoin="round" stroke="rgb(19.607843%, 19.607843%, 19.607843%)" stroke-opacity="1" stroke-miterlimit="10" d="M -130.004679 -17.269625 L 130.005737 -17.269625 L 130.005737 17.269438 L -130.004679 17.269438 Z M -130.004679 -17.269625 " transform="matrix(1.5, 0, 0, -1.5, 386.757019, 34.869)"/>
<path fill-rule="nonzero" fill="rgb(0%, 0%, 0%)" fill-opacity="1" d="M 290.640625 33.457031 L 296.757812 33.457031 C 297.484375 33.457031 297.882812 33.292969 297.882812 32.355469 C 297.882812 31.488281 297.578125 31.253906 296.757812 31.253906 L 290.640625 31.253906 L 290.640625 26.941406 L 291.789062 26.941406 C 293.59375 26.941406 295.445312 27.011719 297.25 27.011719 C 298.070312 27.011719 298.609375 27.011719 298.609375 25.886719 L 298.609375 25.699219 C 298.609375 24.949219 298.445312 24.574219 297.484375 24.574219 L 288.320312 24.574219 C 287.476562 24.574219 287.21875 24.832031 287.21875 25.699219 L 287.21875 39.574219 C 287.21875 40.417969 287.453125 40.699219 288.320312 40.699219 L 297.835938 40.699219 C 298.726562 40.699219 298.960938 40.394531 298.960938 39.574219 L 298.960938 39.246094 C 298.960938 38.144531 298.421875 38.144531 297.648438 38.144531 C 296.453125 38.144531 295.257812 38.191406 294.039062 38.191406 C 293.453125 38.191406 291.0625 38.214844 290.640625 38.238281 Z M 290.640625 33.457031 "/>
<path fill-rule="nonzero" fill="rgb(0%, 0%, 0%)" fill-opacity="1" d="M 311.695312 33.128906 C 311.695312 30.714844 310.6875 29.753906 308.296875 29.753906 C 305.859375 29.753906 304.804688 31.535156 304.5 32.167969 L 304.476562 32.167969 L 304.476562 30.996094 C 304.476562 30.246094 304.3125 29.871094 303.351562 29.871094 L 302.554688 29.871094 C 301.734375 29.871094 301.453125 30.128906 301.453125 30.996094 L 301.453125 39.574219 C 301.453125 40.417969 301.710938 40.699219 302.554688 40.699219 L 303.492188 40.699219 C 304.382812 40.699219 304.617188 40.394531 304.617188 39.574219 L 304.617188 34.417969 C 304.617188 32.402344 305.976562 31.441406 307.171875 31.441406 C 308.296875 31.441406 308.53125 31.980469 308.53125 33.175781 L 308.53125 39.574219 C 308.53125 40.324219 308.695312 40.699219 309.65625 40.699219 L 310.59375 40.699219 C 311.484375 40.699219 311.695312 40.394531 311.695312 39.574219 Z M 311.695312 33.128906 "/>
<path fill-rule="nonzero" fill="rgb(0%, 0%, 0%)" fill-opacity="1" d="M 318.210938 31.699219 L 320.273438 31.699219 C 320.554688 31.699219 321.398438 31.699219 321.398438 30.855469 C 321.398438 30.011719 320.554688 30.011719 320.273438 30.011719 L 318.210938 30.011719 L 318.210938 28.089844 C 318.210938 27.339844 318.046875 26.964844 317.085938 26.964844 L 316.359375 26.964844 C 315.515625 26.964844 315.257812 27.222656 315.257812 28.089844 L 315.257812 30.011719 L 314.71875 30.011719 C 314.460938 30.011719 313.59375 30.011719 313.59375 30.855469 C 313.59375 31.699219 314.4375 31.699219 314.71875 31.699219 L 315.1875 31.699219 L 315.1875 37.605469 C 315.1875 39.949219 316.007812 40.957031 317.625 40.957031 C 317.835938 40.957031 318.867188 40.957031 320.085938 40.582031 C 320.460938 40.464844 321.820312 40.042969 321.820312 39.597656 C 321.820312 39.527344 321.773438 39.363281 321.632812 38.871094 C 321.515625 38.402344 321.46875 38.285156 321.257812 38.285156 C 321.140625 38.285156 321.117188 38.308594 320.976562 38.425781 C 320.71875 38.613281 320.109375 39.128906 319.125 39.128906 C 318.5625 39.128906 318.210938 38.730469 318.210938 37.207031 Z M 318.210938 31.699219 "/>
<path fill-rule="nonzero" fill="rgb(0%, 0%, 0%)" fill-opacity="1" d="M 334.621094 35.449219 C 334.621094 31.628906 332.769531 29.613281 328.972656 29.613281 C 325.058594 29.613281 323.277344 31.699219 323.277344 35.449219 C 323.277344 39.246094 325.269531 40.957031 328.949219 40.957031 C 332.605469 40.957031 334.621094 39.269531 334.621094 35.449219 Z M 328.972656 39.128906 C 326.441406 39.128906 326.441406 37.042969 326.441406 35.167969 C 326.441406 33.386719 326.441406 31.300781 328.949219 31.300781 C 331.457031 31.300781 331.457031 33.363281 331.457031 35.167969 C 331.457031 37.019531 331.457031 39.128906 328.972656 39.128906 Z M 328.972656 39.128906 "/>
<path fill-rule="nonzero" fill="rgb(0%, 0%, 0%)" fill-opacity="1" d="M 347.019531 33.128906 C 347.019531 30.714844 346.011719 29.753906 343.621094 29.753906 C 341.183594 29.753906 340.128906 31.535156 339.824219 32.167969 L 339.800781 32.167969 L 339.800781 30.996094 C 339.800781 30.246094 339.636719 29.871094 338.675781 29.871094 L 337.878906 29.871094 C 337.058594 29.871094 336.777344 30.128906 336.777344 30.996094 L 336.777344 39.574219 C 336.777344 40.417969 337.035156 40.699219 337.878906 40.699219 L 338.816406 40.699219 C 339.707031 40.699219 339.941406 40.394531 339.941406 39.574219 L 339.941406 34.417969 C 339.941406 32.402344 341.300781 31.441406 342.496094 31.441406 C 343.621094 31.441406 343.855469 31.980469 343.855469 33.175781 L 343.855469 39.574219 C 343.855469 40.324219 344.019531 40.699219 344.980469 40.699219 L 345.917969 40.699219 C 346.808594 40.699219 347.019531 40.394531 347.019531 39.574219 Z M 347.019531 33.128906 "/>
<path fill-rule="nonzero" fill="rgb(0%, 0%, 0%)" fill-opacity="1" d="M 359.117188 39.527344 C 359.117188 39.269531 359.023438 38.214844 358.976562 37.910156 C 358.976562 37.839844 358.929688 37.605469 358.695312 37.605469 C 358.601562 37.605469 358.554688 37.605469 358.320312 37.839844 C 357.921875 38.191406 356.820312 39.128906 354.921875 39.128906 C 352.484375 39.128906 352.484375 36.785156 352.484375 35.285156 C 352.484375 33.410156 352.601562 31.441406 354.992188 31.441406 C 356.492188 31.441406 357.125 31.816406 357.96875 32.519531 C 358.25 32.777344 358.296875 32.777344 358.390625 32.777344 C 358.625 32.777344 358.671875 32.566406 358.695312 32.472656 C 358.742188 32.285156 358.976562 30.972656 358.976562 30.855469 C 358.976562 30.644531 358.8125 30.550781 358.414062 30.363281 C 357.289062 29.847656 356.585938 29.613281 354.96875 29.613281 C 351.476562 29.613281 349.320312 31.253906 349.320312 35.332031 C 349.320312 39.199219 351.3125 40.957031 354.851562 40.957031 C 355.460938 40.957031 356.867188 40.933594 358.4375 40.136719 C 359.09375 39.785156 359.117188 39.761719 359.117188 39.527344 Z M 359.117188 39.527344 "/>
<path fill-rule="nonzero" fill="rgb(0%, 0%, 0%)" fill-opacity="1" d="M 369.902344 35.707031 C 370.441406 35.707031 371.027344 35.683594 371.027344 34.628906 C 371.027344 31.628906 369.621094 29.613281 366.152344 29.613281 C 362.402344 29.613281 360.574219 31.722656 360.574219 35.261719 C 360.574219 39.082031 362.777344 40.957031 366.457031 40.957031 C 367.324219 40.957031 368.660156 40.839844 370.207031 40.066406 C 370.722656 39.808594 370.886719 39.738281 370.886719 39.457031 C 370.886719 39.292969 370.816406 38.613281 370.792969 38.425781 C 370.699219 37.722656 370.675781 37.699219 370.464844 37.699219 C 370.371094 37.699219 370.324219 37.699219 370.066406 37.933594 C 368.683594 39.105469 367.277344 39.269531 366.550781 39.269531 C 363.902344 39.269531 363.621094 37.207031 363.550781 35.707031 Z M 363.574219 34.464844 C 363.644531 33.058594 364.113281 31.300781 366.152344 31.300781 C 368.003906 31.300781 368.355469 32.660156 368.425781 34.464844 Z M 363.574219 34.464844 "/>
<path fill-rule="nonzero" fill="rgb(0%, 0%, 0%)" fill-opacity="1" d="M 381 37.417969 C 381 36.105469 380.296875 35.285156 379.875 34.910156 C 378.9375 34.066406 378.140625 33.925781 377.15625 33.738281 C 375.867188 33.527344 374.929688 33.339844 374.929688 32.425781 C 374.929688 31.464844 375.703125 31.277344 376.617188 31.277344 C 378.1875 31.277344 379.007812 31.863281 379.617188 32.378906 C 379.851562 32.613281 379.898438 32.613281 379.992188 32.613281 C 380.226562 32.613281 380.273438 32.402344 380.296875 32.308594 C 380.34375 32.121094 380.578125 30.808594 380.578125 30.691406 C 380.578125 30.316406 379.335938 29.988281 379.078125 29.894531 C 378.164062 29.636719 377.414062 29.613281 376.804688 29.613281 C 375.75 29.613281 372.632812 29.613281 372.632812 32.964844 C 372.632812 34.089844 373.148438 34.792969 373.78125 35.355469 C 374.578125 36.105469 375.492188 36.269531 376.828125 36.527344 C 377.507812 36.644531 378.703125 36.855469 378.703125 37.886719 C 378.703125 38.964844 377.789062 39.128906 376.875 39.128906 C 375.84375 39.128906 374.53125 38.824219 373.453125 37.535156 C 373.335938 37.417969 373.265625 37.347656 373.125 37.347656 C 372.890625 37.347656 372.84375 37.558594 372.820312 37.699219 C 372.773438 38.027344 372.492188 39.339844 372.492188 39.574219 C 372.492188 39.996094 374.203125 40.535156 374.226562 40.558594 C 375.515625 40.957031 376.476562 40.957031 376.875 40.957031 C 378.070312 40.957031 381 40.863281 381 37.417969 Z M 381 37.417969 "/>
<path fill-rule="nonzero" fill="rgb(0%, 0%, 0%)" fill-opacity="1" d="M 399.386719 37.417969 C 399.386719 36.105469 398.683594 35.285156 398.261719 34.910156 C 397.324219 34.066406 396.527344 33.925781 395.542969 33.738281 C 394.253906 33.527344 393.316406 33.339844 393.316406 32.425781 C 393.316406 31.464844 394.089844 31.277344 395.003906 31.277344 C 396.574219 31.277344 397.394531 31.863281 398.003906 32.378906 C 398.238281 32.613281 398.285156 32.613281 398.378906 32.613281 C 398.613281 32.613281 398.660156 32.402344 398.683594 32.308594 C 398.730469 32.121094 398.964844 30.808594 398.964844 30.691406 C 398.964844 30.316406 397.722656 29.988281 397.464844 29.894531 C 396.550781 29.636719 395.800781 29.613281 395.191406 29.613281 C 394.136719 29.613281 391.019531 29.613281 391.019531 32.964844 C 391.019531 34.089844 391.535156 34.792969 392.167969 35.355469 C 392.964844 36.105469 393.878906 36.269531 395.214844 36.527344 C 395.894531 36.644531 397.089844 36.855469 397.089844 37.886719 C 397.089844 38.964844 396.175781 39.128906 395.261719 39.128906 C 394.230469 39.128906 392.917969 38.824219 391.839844 37.535156 C 391.722656 37.417969 391.652344 37.347656 391.511719 37.347656 C 391.277344 37.347656 391.230469 37.558594 391.207031 37.699219 C 391.160156 38.027344 390.878906 39.339844 390.878906 39.574219 C 390.878906 39.996094 392.589844 40.535156 392.613281 40.558594 C 393.902344 40.957031 394.863281 40.957031 395.261719 40.957031 C 396.457031 40.957031 399.386719 40.863281 399.386719 37.417969 Z M 399.386719 37.417969 "/>
<path fill-rule="nonzero" fill="rgb(0%, 0%, 0%)" fill-opacity="1" d="M 409.921875 25.160156 C 410.039062 25.066406 410.179688 24.949219 410.179688 24.808594 C 410.179688 24.503906 409.921875 24.503906 409.546875 24.503906 L 407.625 24.503906 C 407.15625 24.503906 407.132812 24.527344 406.921875 24.785156 L 404.929688 27.527344 C 404.71875 27.785156 404.71875 27.832031 404.71875 27.878906 C 404.71875 28.183594 404.976562 28.183594 405.351562 28.183594 L 406.21875 28.183594 Z M 409.921875 25.160156 "/>
<path fill-rule="nonzero" fill="rgb(0%, 0%, 0%)" fill-opacity="1" d="M 410.035156 35.707031 C 410.574219 35.707031 411.160156 35.683594 411.160156 34.628906 C 411.160156 31.628906 409.753906 29.613281 406.285156 29.613281 C 402.535156 29.613281 400.707031 31.722656 400.707031 35.261719 C 400.707031 39.082031 402.910156 40.957031 406.589844 40.957031 C 407.457031 40.957031 408.792969 40.839844 410.339844 40.066406 C 410.855469 39.808594 411.019531 39.738281 411.019531 39.457031 C 411.019531 39.292969 410.949219 38.613281 410.925781 38.425781 C 410.832031 37.722656 410.808594 37.699219 410.597656 37.699219 C 410.503906 37.699219 410.457031 37.699219 410.199219 37.933594 C 408.816406 39.105469 407.410156 39.269531 406.683594 39.269531 C 404.035156 39.269531 403.753906 37.207031 403.683594 35.707031 Z M 403.707031 34.464844 C 403.777344 33.058594 404.246094 31.300781 406.285156 31.300781 C 408.136719 31.300781 408.488281 32.660156 408.558594 34.464844 Z M 403.707031 34.464844 "/>
<path fill-rule="nonzero" fill="rgb(0%, 0%, 0%)" fill-opacity="1" d="M 432.078125 30.878906 C 432.078125 30.128906 431.914062 29.753906 430.953125 29.753906 L 430.085938 29.753906 C 429.195312 29.753906 428.960938 30.058594 428.960938 30.878906 L 428.960938 31.324219 C 427.929688 29.753906 426.570312 29.753906 426.171875 29.753906 C 421.671875 29.753906 421.296875 33.527344 421.296875 35.378906 C 421.296875 37.207031 421.671875 40.957031 426.007812 40.957031 C 427.25 40.957031 428.09375 40.488281 428.890625 39.574219 L 428.890625 44.097656 C 428.890625 44.847656 429.054688 45.222656 430.015625 45.222656 L 430.953125 45.222656 C 431.84375 45.222656 432.078125 44.917969 432.078125 44.097656 Z M 428.960938 38.027344 C 428.539062 38.589844 427.90625 39.269531 426.851562 39.269531 C 424.460938 39.269531 424.460938 36.316406 424.460938 35.402344 C 424.460938 34.464844 424.460938 31.582031 427.085938 31.582031 C 427.4375 31.582031 427.929688 31.675781 428.351562 32.121094 C 428.960938 32.707031 428.960938 33.128906 428.960938 33.410156 Z M 428.960938 38.027344 "/>
<path fill-rule="nonzero" fill="rgb(0%, 0%, 0%)" fill-opacity="1" d="M 445.160156 31.136719 C 445.160156 30.386719 445.019531 30.011719 444.058594 30.011719 L 443.121094 30.011719 C 442.230469 30.011719 441.996094 30.316406 441.996094 31.136719 L 441.996094 36.667969 C 441.996094 38.214844 441.175781 39.527344 439.535156 39.527344 C 438.222656 39.527344 438.082031 39.199219 438.082031 37.980469 L 438.082031 31.136719 C 438.082031 30.386719 437.917969 30.011719 436.957031 30.011719 L 436.019531 30.011719 C 435.199219 30.011719 434.917969 30.269531 434.917969 31.136719 L 434.917969 37.769531 C 434.917969 40.253906 436.253906 40.957031 438.691406 40.957031 C 439.324219 40.957031 440.964844 40.957031 442.066406 38.964844 L 442.066406 39.574219 C 442.066406 40.324219 442.230469 40.699219 443.191406 40.699219 L 444.058594 40.699219 C 444.949219 40.699219 445.160156 40.394531 445.160156 39.574219 Z M 445.160156 31.136719 "/>
<path fill-rule="nonzero" fill="rgb(0%, 0%, 0%)" fill-opacity="1" d="M 456.644531 35.707031 C 457.183594 35.707031 457.769531 35.683594 457.769531 34.628906 C 457.769531 31.628906 456.363281 29.613281 452.894531 29.613281 C 449.144531 29.613281 447.316406 31.722656 447.316406 35.261719 C 447.316406 39.082031 449.519531 40.957031 453.199219 40.957031 C 454.066406 40.957031 455.402344 40.839844 456.949219 40.066406 C 457.464844 39.808594 457.628906 39.738281 457.628906 39.457031 C 457.628906 39.292969 457.558594 38.613281 457.535156 38.425781 C 457.441406 37.722656 457.417969 37.699219 457.207031 37.699219 C 457.113281 37.699219 457.066406 37.699219 456.808594 37.933594 C 455.425781 39.105469 454.019531 39.269531 453.292969 39.269531 C 450.644531 39.269531 450.363281 37.207031 450.292969 35.707031 Z M 450.316406 34.464844 C 450.386719 33.058594 450.855469 31.300781 452.894531 31.300781 C 454.746094 31.300781 455.097656 32.660156 455.167969 34.464844 Z M 450.316406 34.464844 "/>
<path fill-rule="nonzero" fill="rgb(0%, 0%, 0%)" fill-opacity="1" d="M 472.148438 38.285156 C 472.148438 37.675781 472.125 37.652344 471.515625 37.652344 L 469.710938 37.652344 C 469.125 37.652344 469.101562 37.675781 469.101562 38.285156 L 469.101562 40.066406 C 469.101562 40.675781 469.125 40.699219 469.710938 40.699219 L 471.515625 40.699219 C 472.125 40.699219 472.148438 40.675781 472.148438 40.066406 Z M 472.148438 38.285156 "/>
<path fill-rule="nonzero" fill="rgb(0%, 0%, 0%)" fill-opacity="1" d="M 479.273438 38.285156 C 479.273438 37.675781 479.25 37.652344 478.640625 37.652344 L 476.835938 37.652344 C 476.25 37.652344 476.226562 37.675781 476.226562 38.285156 L 476.226562 40.066406 C 476.226562 40.675781 476.25 40.699219 476.835938 40.699219 L 478.640625 40.699219 C 479.25 40.699219 479.273438 40.675781 479.273438 40.066406 Z M 479.273438 38.285156 "/>
<path fill-rule="nonzero" fill="rgb(0%, 0%, 0%)" fill-opacity="1" d="M 486.398438 38.285156 C 486.398438 37.675781 486.375 37.652344 485.765625 37.652344 L 483.960938 37.652344 C 483.375 37.652344 483.351562 37.675781 483.351562 38.285156 L 483.351562 40.066406 C 483.351562 40.675781 483.375 40.699219 483.960938 40.699219 L 485.765625 40.699219 C 486.375 40.699219 486.398438 40.675781 486.398438 40.066406 Z M 486.398438 38.285156 "/>
<path fill="none" stroke-width="0.99628" stroke-linecap="butt" stroke-linejoin="round" stroke="rgb(19.607843%, 19.607843%, 19.607843%)" stroke-opacity="1" stroke-miterlimit="10" d="M -60.929436 -17.268481 L 60.929939 -17.268481 L 60.929939 17.270582 L -60.929436 17.270582 Z M -60.929436 -17.268481 " transform="matrix(1.5, 0, 0, -1.5, 100.358997, 87.421497)"/>
<path fill-rule="nonzero" fill="rgb(0%, 0%, 0%)" fill-opacity="1" d="M 76.78125 92.609375 L 76.78125 94.085938 L 85.898438 94.085938 L 85.898438 92.492188 L 81.75 92.492188 C 81.46875 92.492188 81.1875 92.515625 80.90625 92.515625 L 78.398438 92.515625 C 79.007812 91.882812 81.1875 89.75 82.6875 88.390625 C 84.421875 86.890625 85.898438 85.4375 85.898438 83.28125 C 85.898438 80.703125 84.09375 78.3125 81.023438 78.3125 C 78.492188 78.3125 77.226562 79.976562 76.59375 82.15625 C 77.34375 83.070312 77.34375 83.117188 77.554688 83.398438 C 78.117188 80.914062 78.984375 79.765625 80.71875 79.765625 C 82.710938 79.765625 84.023438 81.335938 84.023438 83.328125 C 84.023438 84.546875 83.53125 85.90625 81.984375 87.429688 Z M 76.78125 92.609375 "/>
<path fill-rule="nonzero" fill="rgb(0%, 0%, 0%)" fill-opacity="1" d="M 104.167969 87.59375 L 99.503906 82.953125 C 99.222656 82.671875 99.175781 82.625 98.988281 82.625 C 98.753906 82.625 98.519531 82.835938 98.519531 83.09375 C 98.519531 83.257812 98.566406 83.304688 98.824219 83.5625 L 103.488281 88.25 L 98.824219 92.9375 C 98.566406 93.195312 98.519531 93.242188 98.519531 93.40625 C 98.519531 93.664062 98.753906 93.875 98.988281 93.875 C 99.175781 93.875 99.222656 93.828125 99.503906 93.546875 L 104.144531 88.90625 L 108.972656 93.734375 C 109.019531 93.757812 109.183594 93.875 109.324219 93.875 C 109.605469 93.875 109.792969 93.664062 109.792969 93.40625 C 109.792969 93.359375 109.792969 93.265625 109.722656 93.148438 C 109.699219 93.101562 105.996094 89.445312 104.824219 88.25 L 109.089844 83.984375 C 109.207031 83.84375 109.558594 83.539062 109.675781 83.398438 C 109.699219 83.351562 109.792969 83.257812 109.792969 83.09375 C 109.792969 82.835938 109.605469 82.625 109.324219 82.625 C 109.136719 82.625 109.042969 82.71875 108.785156 82.976562 Z M 104.167969 87.59375 "/>
<path fill-rule="nonzero" fill="rgb(0%, 0%, 0%)" fill-opacity="1" d="M 129.785156 90.078125 L 132.058594 90.078125 L 132.058594 88.671875 L 129.785156 88.671875 L 129.785156 78.804688 L 127.699219 78.804688 L 121.910156 88.671875 L 121.910156 90.078125 L 127.957031 90.078125 L 127.957031 94.085938 L 129.785156 94.085938 Z M 123.691406 88.671875 C 124.371094 87.476562 125.285156 86 126.269531 84.125 C 126.550781 83.585938 128.074219 80.726562 128.074219 79.859375 L 128.074219 88.671875 Z M 123.691406 88.671875 "/>
<path fill="none" stroke-width="0.99628" stroke-linecap="butt" stroke-linejoin="round" stroke="rgb(19.607843%, 19.607843%, 19.607843%)" stroke-opacity="1" stroke-miterlimit="10" d="M -130.004679 -17.268481 L 130.005737 -17.268481 L 130.005737 17.270582 L -130.004679 17.270582 Z M -130.004679 -17.268481 " transform="matrix(1.5, 0, 0, -1.5, 386.757019, 87.421497)"/>
<path fill-rule="nonzero" fill="rgb(0%, 0%, 0%)" fill-opacity="1" d="M 290.433594 89.59375 L 292.707031 89.59375 L 292.707031 88.1875 L 290.433594 88.1875 L 290.433594 78.320312 L 288.347656 78.320312 L 282.558594 88.1875 L 282.558594 89.59375 L 288.605469 89.59375 L 288.605469 93.601562 L 290.433594 93.601562 Z M 284.339844 88.1875 C 285.019531 86.992188 285.933594 85.515625 286.917969 83.640625 C 287.199219 83.101562 288.722656 80.242188 288.722656 79.375 L 288.722656 88.1875 Z M 284.339844 88.1875 "/>
<path fill-rule="nonzero" fill="rgb(0%, 0%, 0%)" fill-opacity="1" d="M 312.226562 87.109375 L 307.5625 82.46875 C 307.28125 82.1875 307.234375 82.140625 307.046875 82.140625 C 306.8125 82.140625 306.578125 82.351562 306.578125 82.609375 C 306.578125 82.773438 306.625 82.820312 306.882812 83.078125 L 311.546875 87.765625 L 306.882812 92.453125 C 306.625 92.710938 306.578125 92.757812 306.578125 92.921875 C 306.578125 93.179688 306.8125 93.390625 307.046875 93.390625 C 307.234375 93.390625 307.28125 93.34375 307.5625 93.0625 L 312.203125 88.421875 L 317.03125 93.25 C 317.078125 93.273438 317.242188 93.390625 317.382812 93.390625 C 317.664062 93.390625 317.851562 93.179688 317.851562 92.921875 C 317.851562 92.875 317.851562 92.78125 317.78125 92.664062 C 317.757812 92.617188 314.054688 88.960938 312.882812 87.765625 L 317.148438 83.5 C 317.265625 83.359375 317.617188 83.054688 317.734375 82.914062 C 317.757812 82.867188 317.851562 82.773438 317.851562 82.609375 C 317.851562 82.351562 317.664062 82.140625 317.382812 82.140625 C 317.195312 82.140625 317.101562 82.234375 316.84375 82.492188 Z M 312.226562 87.109375 "/>
<path fill-rule="nonzero" fill="rgb(0%, 0%, 0%)" fill-opacity="1" d="M 332.25 92.125 L 332.25 93.601562 L 341.367188 93.601562 L 341.367188 92.007812 L 337.21875 92.007812 C 336.9375 92.007812 336.65625 92.03125 336.375 92.03125 L 333.867188 92.03125 C 334.476562 91.398438 336.65625 89.265625 338.15625 87.90625 C 339.890625 86.40625 341.367188 84.953125 341.367188 82.796875 C 341.367188 80.21875 339.5625 77.828125 336.492188 77.828125 C 333.960938 77.828125 332.695312 79.492188 332.0625 81.671875 C 332.8125 82.585938 332.8125 82.632812 333.023438 82.914062 C 333.585938 80.429688 334.453125 79.28125 336.1875 79.28125 C 338.179688 79.28125 339.492188 80.851562 339.492188 82.84375 C 339.492188 84.0625 339 85.421875 337.453125 86.945312 Z M 332.25 92.125 "/>
<path fill-rule="nonzero" fill="rgb(0%, 0%, 0%)" fill-opacity="1" d="M 346.617188 93.578125 L 346.617188 91.703125 L 344.742188 91.703125 L 344.742188 93.601562 L 345.304688 93.601562 L 344.742188 96.507812 L 345.65625 96.507812 Z M 346.617188 93.578125 "/>
<path fill-rule="nonzero" fill="rgb(0%, 0%, 0%)" fill-opacity="1" d="M 364.964844 89.59375 L 367.238281 89.59375 L 367.238281 88.1875 L 364.964844 88.1875 L 364.964844 78.320312 L 362.878906 78.320312 L 357.089844 88.1875 L 357.089844 89.59375 L 363.136719 89.59375 L 363.136719 93.601562 L 364.964844 93.601562 Z M 358.871094 88.1875 C 359.550781 86.992188 360.464844 85.515625 361.449219 83.640625 C 361.730469 83.101562 363.253906 80.242188 363.253906 79.375 L 363.253906 88.1875 Z M 358.871094 88.1875 "/>
<path fill-rule="nonzero" fill="rgb(0%, 0%, 0%)" fill-opacity="1" d="M 386.761719 87.109375 L 382.097656 82.46875 C 381.816406 82.1875 381.769531 82.140625 381.582031 82.140625 C 381.347656 82.140625 381.113281 82.351562 381.113281 82.609375 C 381.113281 82.773438 381.160156 82.820312 381.417969 83.078125 L 386.082031 87.765625 L 381.417969 92.453125 C 381.160156 92.710938 381.113281 92.757812 381.113281 92.921875 C 381.113281 93.179688 381.347656 93.390625 381.582031 93.390625 C 381.769531 93.390625 381.816406 93.34375 382.097656 93.0625 L 386.738281 88.421875 L 391.566406 93.25 C 391.613281 93.273438 391.777344 93.390625 391.917969 93.390625 C 392.199219 93.390625 392.386719 93.179688 392.386719 92.921875 C 392.386719 92.875 392.386719 92.78125 392.316406 92.664062 C 392.292969 92.617188 388.589844 88.960938 387.417969 87.765625 L 391.683594 83.5 C 391.800781 83.359375 392.152344 83.054688 392.269531 82.914062 C 392.292969 82.867188 392.386719 82.773438 392.386719 82.609375 C 392.386719 82.351562 392.199219 82.140625 391.917969 82.140625 C 391.730469 82.140625 391.636719 82.234375 391.378906 82.492188 Z M 386.761719 87.109375 "/>
<path fill-rule="nonzero" fill="rgb(0%, 0%, 0%)" fill-opacity="1" d="M 414.144531 89.59375 L 416.417969 89.59375 L 416.417969 88.1875 L 414.144531 88.1875 L 414.144531 78.320312 L 412.058594 78.320312 L 406.269531 88.1875 L 406.269531 89.59375 L 412.316406 89.59375 L 412.316406 93.601562 L 414.144531 93.601562 Z M 408.050781 88.1875 C 408.730469 86.992188 409.644531 85.515625 410.628906 83.640625 C 410.910156 83.101562 412.433594 80.242188 412.433594 79.375 L 412.433594 88.1875 Z M 408.050781 88.1875 "/>
<path fill-rule="nonzero" fill="rgb(0%, 0%, 0%)" fill-opacity="1" d="M 421.152344 93.578125 L 421.152344 91.703125 L 419.277344 91.703125 L 419.277344 93.601562 L 419.839844 93.601562 L 419.277344 96.507812 L 420.191406 96.507812 Z M 421.152344 93.578125 "/>
<path fill-rule="nonzero" fill="rgb(0%, 0%, 0%)" fill-opacity="1" d="M 432.140625 92.125 L 432.140625 93.601562 L 441.257812 93.601562 L 441.257812 92.007812 L 437.109375 92.007812 C 436.828125 92.007812 436.546875 92.03125 436.265625 92.03125 L 433.757812 92.03125 C 434.367188 91.398438 436.546875 89.265625 438.046875 87.90625 C 439.78125 86.40625 441.257812 84.953125 441.257812 82.796875 C 441.257812 80.21875 439.453125 77.828125 436.382812 77.828125 C 433.851562 77.828125 432.585938 79.492188 431.953125 81.671875 C 432.703125 82.585938 432.703125 82.632812 432.914062 82.914062 C 433.476562 80.429688 434.34375 79.28125 436.078125 79.28125 C 438.070312 79.28125 439.382812 80.851562 439.382812 82.84375 C 439.382812 84.0625 438.890625 85.421875 437.34375 86.945312 Z M 432.140625 92.125 "/>
<path fill-rule="nonzero" fill="rgb(0%, 0%, 0%)" fill-opacity="1" d="M 461.296875 87.109375 L 456.632812 82.46875 C 456.351562 82.1875 456.304688 82.140625 456.117188 82.140625 C 455.882812 82.140625 455.648438 82.351562 455.648438 82.609375 C 455.648438 82.773438 455.695312 82.820312 455.953125 83.078125 L 460.617188 87.765625 L 455.953125 92.453125 C 455.695312 92.710938 455.648438 92.757812 455.648438 92.921875 C 455.648438 93.179688 455.882812 93.390625 456.117188 93.390625 C 456.304688 93.390625 456.351562 93.34375 456.632812 93.0625 L 461.273438 88.421875 L 466.101562 93.25 C 466.148438 93.273438 466.3125 93.390625 466.453125 93.390625 C 466.734375 93.390625 466.921875 93.179688 466.921875 92.921875 C 466.921875 92.875 466.921875 92.78125 466.851562 92.664062 C 466.828125 92.617188 463.125 88.960938 461.953125 87.765625 L 466.21875 83.5 C 466.335938 83.359375 466.6875 83.054688 466.804688 82.914062 C 466.828125 82.867188 466.921875 82.773438 466.921875 82.609375 C 466.921875 82.351562 466.734375 82.140625 466.453125 82.140625 C 466.265625 82.140625 466.171875 82.234375 465.914062 82.492188 Z M 461.296875 87.109375 "/>
<path fill-rule="nonzero" fill="rgb(0%, 0%, 0%)" fill-opacity="1" d="M 487.441406 85.351562 C 488.917969 84.90625 490.324219 83.617188 490.324219 81.90625 C 490.324219 79.703125 488.355469 77.828125 485.894531 77.828125 C 483.316406 77.828125 481.441406 79.773438 481.441406 81.90625 C 481.441406 83.640625 482.847656 84.929688 484.300781 85.351562 C 482.425781 85.984375 481.136719 87.53125 481.136719 89.40625 C 481.136719 91.890625 483.199219 94.09375 485.871094 94.09375 C 488.613281 94.09375 490.628906 91.84375 490.628906 89.40625 C 490.628906 87.53125 489.339844 85.984375 487.441406 85.351562 Z M 485.894531 84.648438 C 484.042969 84.648438 483.035156 83.40625 483.035156 81.929688 C 483.035156 80.148438 484.300781 79.164062 485.871094 79.164062 C 487.535156 79.164062 488.707031 80.21875 488.707031 81.929688 C 488.707031 83.476562 487.628906 84.648438 485.894531 84.648438 Z M 485.894531 92.6875 C 484.324219 92.6875 482.964844 91.5625 482.964844 89.382812 C 482.964844 86.875 484.652344 86.054688 485.871094 86.054688 C 487.160156 86.054688 488.777344 86.945312 488.777344 89.382812 C 488.777344 91.632812 487.347656 92.6875 485.894531 92.6875 Z M 485.894531 92.6875 "/>
<path fill="none" stroke-width="0.99628" stroke-linecap="butt" stroke-linejoin="round" stroke="rgb(19.607843%, 19.607843%, 19.607843%)" stroke-opacity="1" stroke-miterlimit="10" d="M -60.929436 -17.266937 L 60.929939 -17.266937 L 60.929939 17.269521 L -60.929436 17.269521 Z M -60.929436 -17.266937 " transform="matrix(1.5, 0, 0, -1.5, 100.358997, 139.2285)"/>
<path fill-rule="nonzero" fill="rgb(0%, 0%, 0%)" fill-opacity="1" d="M 73.710938 133.964844 C 74.273438 132.464844 75.703125 131.457031 77.273438 131.457031 C 78.46875 131.457031 79.570312 132.136719 79.570312 133.660156 C 79.570312 135.207031 78.515625 136.496094 77.25 136.777344 C 77.132812 136.800781 75.65625 136.917969 75.421875 136.941406 L 75.421875 138.347656 L 77.085938 138.347656 C 79.476562 138.347656 80.0625 140.386719 80.0625 141.675781 C 80.0625 143.574219 78.914062 144.980469 77.25 144.980469 C 75.75 144.980469 73.921875 144.230469 72.84375 142.566406 L 72.585938 143.925781 C 74.085938 146.011719 76.148438 146.386719 77.296875 146.386719 C 80.015625 146.386719 82.078125 144.160156 82.078125 141.699219 C 82.078125 139.894531 80.882812 138.324219 78.890625 137.644531 C 80.53125 136.753906 81.445312 135.183594 81.445312 133.660156 C 81.445312 131.644531 79.546875 130.121094 77.296875 130.121094 C 75.421875 130.121094 73.78125 131.152344 72.890625 132.699219 Z M 73.710938 133.964844 "/>
<path fill-rule="nonzero" fill="rgb(0%, 0%, 0%)" fill-opacity="1" d="M 100.363281 139.402344 L 95.699219 134.761719 C 95.417969 134.480469 95.371094 134.433594 95.183594 134.433594 C 94.949219 134.433594 94.714844 134.644531 94.714844 134.902344 C 94.714844 135.066406 94.761719 135.113281 95.019531 135.371094 L 99.683594 140.058594 L 95.019531 144.746094 C 94.761719 145.003906 94.714844 145.050781 94.714844 145.214844 C 94.714844 145.472656 94.949219 145.683594 95.183594 145.683594 C 95.371094 145.683594 95.417969 145.636719 95.699219 145.355469 L 100.339844 140.714844 L 105.167969 145.542969 C 105.214844 145.566406 105.378906 145.683594 105.519531 145.683594 C 105.800781 145.683594 105.988281 145.472656 105.988281 145.214844 C 105.988281 145.167969 105.988281 145.074219 105.917969 144.957031 C 105.894531 144.910156 102.191406 141.253906 101.019531 140.058594 L 105.285156 135.792969 C 105.402344 135.652344 105.753906 135.347656 105.871094 135.207031 C 105.894531 135.160156 105.988281 135.066406 105.988281 134.902344 C 105.988281 134.644531 105.800781 134.433594 105.519531 134.433594 C 105.332031 134.433594 105.238281 134.527344 104.980469 134.785156 Z M 100.363281 139.402344 "/>
<path fill-rule="nonzero" fill="rgb(0%, 0%, 0%)" fill-opacity="1" d="M 121.171875 132.066406 L 127.171875 132.066406 L 127.171875 130.613281 L 119.53125 130.613281 L 119.53125 139.191406 L 121.03125 139.191406 C 121.617188 137.878906 122.648438 137.363281 123.609375 137.363281 C 124.6875 137.363281 125.929688 138.347656 125.929688 141.113281 C 125.929688 144.042969 124.265625 144.980469 122.90625 144.980469 C 121.617188 144.980469 120.070312 144.277344 119.34375 142.824219 L 118.570312 144.066406 C 120.09375 146.269531 122.296875 146.386719 122.929688 146.386719 C 125.671875 146.386719 127.945312 144.066406 127.945312 141.160156 C 127.945312 138.253906 125.976562 135.957031 123.632812 135.957031 C 122.695312 135.957031 121.828125 136.308594 121.171875 136.894531 Z M 121.171875 132.066406 "/>
<path fill="none" stroke-width="0.99628" stroke-linecap="butt" stroke-linejoin="round" stroke="rgb(19.607843%, 19.607843%, 19.607843%)" stroke-opacity="1" stroke-miterlimit="10" d="M -130.004679 -17.266937 L 130.005737 -17.266937 L 130.005737 17.269521 L -130.004679 17.269521 Z M -130.004679 -17.266937 " transform="matrix(1.5, 0, 0, -1.5, 386.757019, 139.2285)"/>
<path fill-rule="nonzero" fill="rgb(0%, 0%, 0%)" fill-opacity="1" d="M 291.417969 130.101562 C 290.457031 129.75 289.777344 129.632812 288.957031 129.632812 C 285.816406 129.632812 282.910156 132.890625 282.910156 137.90625 C 282.910156 144.585938 285.816406 145.898438 287.667969 145.898438 C 289.050781 145.898438 290.058594 145.335938 290.972656 144.257812 C 292.027344 143.015625 292.355469 141.914062 292.355469 140.226562 C 292.355469 137.25 290.808594 134.695312 288.699219 134.695312 C 286.964844 134.695312 285.652344 135.539062 284.785156 136.59375 C 285.042969 133.148438 286.707031 130.96875 289.003906 130.96875 C 290.011719 130.96875 290.738281 131.203125 291.417969 131.460938 Z M 284.808594 140.320312 C 284.808594 140.132812 284.808594 139.828125 284.832031 139.664062 C 284.832031 138.046875 285.769531 136.101562 287.785156 136.101562 C 288.558594 136.101562 289.285156 136.3125 289.964844 137.484375 C 290.480469 138.421875 290.503906 139.335938 290.503906 140.25 C 290.503906 141.210938 290.503906 142.21875 289.800781 143.25 C 289.378906 143.882812 288.816406 144.492188 287.667969 144.492188 C 285.230469 144.492188 284.878906 141.070312 284.808594 140.320312 Z M 284.808594 140.320312 "/>
<path fill-rule="nonzero" fill="rgb(0%, 0%, 0%)" fill-opacity="1" d="M 312.226562 138.914062 L 307.5625 134.273438 C 307.28125 133.992188 307.234375 133.945312 307.046875 133.945312 C 306.8125 133.945312 306.578125 134.15625 306.578125 134.414062 C 306.578125 134.578125 306.625 134.625 306.882812 134.882812 L 311.546875 139.570312 L 306.882812 144.257812 C 306.625 144.515625 306.578125 144.5625 306.578125 144.726562 C 306.578125 144.984375 306.8125 145.195312 307.046875 145.195312 C 307.234375 145.195312 307.28125 145.148438 307.5625 144.867188 L 312.203125 140.226562 L 317.03125 145.054688 C 317.078125 145.078125 317.242188 145.195312 317.382812 145.195312 C 317.664062 145.195312 317.851562 144.984375 317.851562 144.726562 C 317.851562 144.679688 317.851562 144.585938 317.78125 144.46875 C 317.757812 144.421875 314.054688 140.765625 312.882812 139.570312 L 317.148438 135.304688 C 317.265625 135.164062 317.617188 134.859375 317.734375 134.71875 C 317.757812 134.671875 317.851562 134.578125 317.851562 134.414062 C 317.851562 134.15625 317.664062 133.945312 317.382812 133.945312 C 317.195312 133.945312 317.101562 134.039062 316.84375 134.296875 Z M 312.226562 138.914062 "/>
<path fill-rule="nonzero" fill="rgb(0%, 0%, 0%)" fill-opacity="1" d="M 334.59375 131.578125 L 340.59375 131.578125 L 340.59375 130.125 L 332.953125 130.125 L 332.953125 138.703125 L 334.453125 138.703125 C 335.039062 137.390625 336.070312 136.875 337.03125 136.875 C 338.109375 136.875 339.351562 137.859375 339.351562 140.625 C 339.351562 143.554688 337.6875 144.492188 336.328125 144.492188 C 335.039062 144.492188 333.492188 143.789062 332.765625 142.335938 L 331.992188 143.578125 C 333.515625 145.78125 335.71875 145.898438 336.351562 145.898438 C 339.09375 145.898438 341.367188 143.578125 341.367188 140.671875 C 341.367188 137.765625 339.398438 135.46875 337.054688 135.46875 C 336.117188 135.46875 335.25 135.820312 334.59375 136.40625 Z M 334.59375 131.578125 "/>
<path fill-rule="nonzero" fill="rgb(0%, 0%, 0%)" fill-opacity="1" d="M 346.617188 145.382812 L 346.617188 143.507812 L 344.742188 143.507812 L 344.742188 145.40625 L 345.304688 145.40625 L 344.742188 148.3125 L 345.65625 148.3125 Z M 346.617188 145.382812 "/>
<path fill-rule="nonzero" fill="rgb(0%, 0%, 0%)" fill-opacity="1" d="M 359.949219 131.578125 L 365.949219 131.578125 L 365.949219 130.125 L 358.308594 130.125 L 358.308594 138.703125 L 359.808594 138.703125 C 360.394531 137.390625 361.425781 136.875 362.386719 136.875 C 363.464844 136.875 364.707031 137.859375 364.707031 140.625 C 364.707031 143.554688 363.042969 144.492188 361.683594 144.492188 C 360.394531 144.492188 358.847656 143.789062 358.121094 142.335938 L 357.347656 143.578125 C 358.871094 145.78125 361.074219 145.898438 361.707031 145.898438 C 364.449219 145.898438 366.722656 143.578125 366.722656 140.671875 C 366.722656 137.765625 364.753906 135.46875 362.410156 135.46875 C 361.472656 135.46875 360.605469 135.820312 359.949219 136.40625 Z M 359.949219 131.578125 "/>
<path fill-rule="nonzero" fill="rgb(0%, 0%, 0%)" fill-opacity="1" d="M 386.761719 138.914062 L 382.097656 134.273438 C 381.816406 133.992188 381.769531 133.945312 381.582031 133.945312 C 381.347656 133.945312 381.113281 134.15625 381.113281 134.414062 C 381.113281 134.578125 381.160156 134.625 381.417969 134.882812 L 386.082031 139.570312 L 381.417969 144.257812 C 381.160156 144.515625 381.113281 144.5625 381.113281 144.726562 C 381.113281 144.984375 381.347656 145.195312 381.582031 145.195312 C 381.769531 145.195312 381.816406 145.148438 382.097656 144.867188 L 386.738281 140.226562 L 391.566406 145.054688 C 391.613281 145.078125 391.777344 145.195312 391.917969 145.195312 C 392.199219 145.195312 392.386719 144.984375 392.386719 144.726562 C 392.386719 144.679688 392.386719 144.585938 392.316406 144.46875 C 392.292969 144.421875 388.589844 140.765625 387.417969 139.570312 L 391.683594 135.304688 C 391.800781 135.164062 392.152344 134.859375 392.269531 134.71875 C 392.292969 134.671875 392.386719 134.578125 392.386719 134.414062 C 392.386719 134.15625 392.199219 133.945312 391.917969 133.945312 C 391.730469 133.945312 391.636719 134.039062 391.378906 134.296875 Z M 386.761719 138.914062 "/>
<path fill-rule="nonzero" fill="rgb(0%, 0%, 0%)" fill-opacity="1" d="M 407.722656 133.476562 C 408.285156 131.976562 409.714844 130.96875 411.285156 130.96875 C 412.480469 130.96875 413.582031 131.648438 413.582031 133.171875 C 413.582031 134.71875 412.527344 136.007812 411.261719 136.289062 C 411.144531 136.3125 409.667969 136.429688 409.433594 136.453125 L 409.433594 137.859375 L 411.097656 137.859375 C 413.488281 137.859375 414.074219 139.898438 414.074219 141.1875 C 414.074219 143.085938 412.925781 144.492188 411.261719 144.492188 C 409.761719 144.492188 407.933594 143.742188 406.855469 142.078125 L 406.597656 143.4375 C 408.097656 145.523438 410.160156 145.898438 411.308594 145.898438 C 414.027344 145.898438 416.089844 143.671875 416.089844 141.210938 C 416.089844 139.40625 414.894531 137.835938 412.902344 137.15625 C 414.542969 136.265625 415.457031 134.695312 415.457031 133.171875 C 415.457031 131.15625 413.558594 129.632812 411.308594 129.632812 C 409.433594 129.632812 407.792969 130.664062 406.902344 132.210938 Z M 407.722656 133.476562 "/>
<path fill-rule="nonzero" fill="rgb(0%, 0%, 0%)" fill-opacity="1" d="M 421.152344 145.382812 L 421.152344 143.507812 L 419.277344 143.507812 L 419.277344 145.40625 L 419.839844 145.40625 L 419.277344 148.3125 L 420.191406 148.3125 Z M 421.152344 145.382812 "/>
<path fill-rule="nonzero" fill="rgb(0%, 0%, 0%)" fill-opacity="1" d="M 439.5 141.398438 L 441.773438 141.398438 L 441.773438 139.992188 L 439.5 139.992188 L 439.5 130.125 L 437.414062 130.125 L 431.625 139.992188 L 431.625 141.398438 L 437.671875 141.398438 L 437.671875 145.40625 L 439.5 145.40625 Z M 433.40625 139.992188 C 434.085938 138.796875 435 137.320312 435.984375 135.445312 C 436.265625 134.90625 437.789062 132.046875 437.789062 131.179688 L 437.789062 139.992188 Z M 433.40625 139.992188 "/>
<path fill-rule="nonzero" fill="rgb(0%, 0%, 0%)" fill-opacity="1" d="M 461.296875 138.914062 L 456.632812 134.273438 C 456.351562 133.992188 456.304688 133.945312 456.117188 133.945312 C 455.882812 133.945312 455.648438 134.15625 455.648438 134.414062 C 455.648438 134.578125 455.695312 134.625 455.953125 134.882812 L 460.617188 139.570312 L 455.953125 144.257812 C 455.695312 144.515625 455.648438 144.5625 455.648438 144.726562 C 455.648438 144.984375 455.882812 145.195312 456.117188 145.195312 C 456.304688 145.195312 456.351562 145.148438 456.632812 144.867188 L 461.273438 140.226562 L 466.101562 145.054688 C 466.148438 145.078125 466.3125 145.195312 466.453125 145.195312 C 466.734375 145.195312 466.921875 144.984375 466.921875 144.726562 C 466.921875 144.679688 466.921875 144.585938 466.851562 144.46875 C 466.828125 144.421875 463.125 140.765625 461.953125 139.570312 L 466.21875 135.304688 C 466.335938 135.164062 466.6875 134.859375 466.804688 134.71875 C 466.828125 134.671875 466.921875 134.578125 466.921875 134.414062 C 466.921875 134.15625 466.734375 133.945312 466.453125 133.945312 C 466.265625 133.945312 466.171875 134.039062 465.914062 134.296875 Z M 461.296875 138.914062 "/>
<path fill-rule="nonzero" fill="rgb(0%, 0%, 0%)" fill-opacity="1" d="M 483.667969 131.578125 L 489.667969 131.578125 L 489.667969 130.125 L 482.027344 130.125 L 482.027344 138.703125 L 483.527344 138.703125 C 484.113281 137.390625 485.144531 136.875 486.105469 136.875 C 487.183594 136.875 488.425781 137.859375 488.425781 140.625 C 488.425781 143.554688 486.761719 144.492188 485.402344 144.492188 C 484.113281 144.492188 482.566406 143.789062 481.839844 142.335938 L 481.066406 143.578125 C 482.589844 145.78125 484.792969 145.898438 485.425781 145.898438 C 488.167969 145.898438 490.441406 143.578125 490.441406 140.671875 C 490.441406 137.765625 488.472656 135.46875 486.128906 135.46875 C 485.191406 135.46875 484.324219 135.820312 483.667969 136.40625 Z M 483.667969 131.578125 "/>
<path fill="none" stroke-width="0.99628" stroke-linecap="butt" stroke-linejoin="round" stroke="rgb(19.607843%, 19.607843%, 19.607843%)" stroke-opacity="1" stroke-miterlimit="10" d="M -60.929436 -17.268997 L 60.929939 -17.268997 L 60.929939 17.270065 L -60.929436 17.270065 Z M -60.929436 -17.268997 " transform="matrix(1.5, 0, 0, -1.5, 100.358997, 191.034004)"/>
<path fill-rule="nonzero" fill="rgb(0%, 0%, 0%)" fill-opacity="1" d="M 74.734375 193.691406 L 77.007812 193.691406 L 77.007812 192.285156 L 74.734375 192.285156 L 74.734375 182.417969 L 72.648438 182.417969 L 66.859375 192.285156 L 66.859375 193.691406 L 72.90625 193.691406 L 72.90625 197.699219 L 74.734375 197.699219 Z M 68.640625 192.285156 C 69.320312 191.089844 70.234375 189.613281 71.21875 187.738281 C 71.5 187.199219 73.023438 184.339844 73.023438 183.472656 L 73.023438 192.285156 Z M 68.640625 192.285156 "/>
<path fill-rule="nonzero" fill="rgb(0%, 0%, 0%)" fill-opacity="1" d="M 94.65625 191.207031 L 89.992188 186.566406 C 89.710938 186.285156 89.664062 186.238281 89.476562 186.238281 C 89.242188 186.238281 89.007812 186.449219 89.007812 186.707031 C 89.007812 186.871094 89.054688 186.917969 89.3125 187.175781 L 93.976562 191.863281 L 89.3125 196.550781 C 89.054688 196.808594 89.007812 196.855469 89.007812 197.019531 C 89.007812 197.277344 89.242188 197.488281 89.476562 197.488281 C 89.664062 197.488281 89.710938 197.441406 89.992188 197.160156 L 94.632812 192.519531 L 99.460938 197.347656 C 99.507812 197.371094 99.671875 197.488281 99.8125 197.488281 C 100.09375 197.488281 100.28125 197.277344 100.28125 197.019531 C 100.28125 196.972656 100.28125 196.878906 100.210938 196.761719 C 100.1875 196.714844 96.484375 193.058594 95.3125 191.863281 L 99.578125 187.597656 C 99.695312 187.457031 100.046875 187.152344 100.164062 187.011719 C 100.1875 186.964844 100.28125 186.871094 100.28125 186.707031 C 100.28125 186.449219 100.09375 186.238281 99.8125 186.238281 C 99.625 186.238281 99.53125 186.332031 99.273438 186.589844 Z M 94.65625 191.207031 "/>
<path fill-rule="nonzero" fill="rgb(0%, 0%, 0%)" fill-opacity="1" d="M 118.53125 181.925781 L 118.085938 181.925781 C 117.710938 182.300781 116.585938 183.402344 114.054688 183.449219 C 113.75 183.449219 113.726562 183.472656 113.726562 183.894531 L 113.726562 184.832031 C 115.132812 184.832031 116.210938 184.480469 116.703125 184.269531 L 116.703125 196.339844 L 113.867188 196.339844 L 113.867188 197.699219 L 121.367188 197.699219 L 121.367188 196.339844 L 118.53125 196.339844 Z M 118.53125 181.925781 "/>
<path fill-rule="nonzero" fill="rgb(0%, 0%, 0%)" fill-opacity="1" d="M 133.53125 190.105469 C 133.53125 188.535156 133.460938 186.730469 132.851562 185.089844 C 131.84375 182.464844 130.039062 181.925781 128.796875 181.925781 C 127.273438 181.925781 125.796875 182.699219 124.953125 184.550781 C 124.179688 186.191406 124.039062 188.089844 124.039062 190.105469 C 124.039062 192.636719 124.25 194.089844 125 195.707031 C 125.679688 197.253906 127.179688 198.191406 128.773438 198.191406 C 130.296875 198.191406 131.773438 197.347656 132.570312 195.730469 C 133.367188 194.089844 133.53125 192.378906 133.53125 190.105469 Z M 128.796875 196.785156 C 125.796875 196.785156 125.796875 192.003906 125.796875 189.824219 C 125.796875 188.300781 125.796875 186.871094 126.21875 185.558594 C 126.78125 183.894531 127.8125 183.332031 128.773438 183.332031 C 131.75 183.332031 131.75 187.667969 131.75 189.824219 C 131.75 191.300781 131.75 192.847656 131.328125 194.300781 C 130.695312 196.527344 129.40625 196.785156 128.796875 196.785156 Z M 128.796875 196.785156 "/>
<path fill="none" stroke-width="0.99628" stroke-linecap="butt" stroke-linejoin="round" stroke="rgb(19.607843%, 19.607843%, 19.607843%)" stroke-opacity="1" stroke-miterlimit="10" d="M -130.004679 -17.268997 L 130.005737 -17.268997 L 130.005737 17.270065 L -130.004679 17.270065 Z M -130.004679 -17.268997 " transform="matrix(1.5, 0, 0, -1.5, 386.757019, 191.034004)"/>
<path fill-rule="nonzero" fill="rgb(0%, 0%, 0%)" fill-opacity="1" d="M 279.039062 181.4375 L 278.59375 181.4375 C 278.21875 181.8125 277.09375 182.914062 274.5625 182.960938 C 274.257812 182.960938 274.234375 182.984375 274.234375 183.40625 L 274.234375 184.34375 C 275.640625 184.34375 276.71875 183.992188 277.210938 183.78125 L 277.210938 195.851562 L 274.375 195.851562 L 274.375 197.210938 L 281.875 197.210938 L 281.875 195.851562 L 279.039062 195.851562 Z M 279.039062 181.4375 "/>
<path fill-rule="nonzero" fill="rgb(0%, 0%, 0%)" fill-opacity="1" d="M 294.039062 189.617188 C 294.039062 188.046875 293.96875 186.242188 293.359375 184.601562 C 292.351562 181.976562 290.546875 181.4375 289.304688 181.4375 C 287.78125 181.4375 286.304688 182.210938 285.460938 184.0625 C 284.6875 185.703125 284.546875 187.601562 284.546875 189.617188 C 284.546875 192.148438 284.757812 193.601562 285.507812 195.21875 C 286.1875 196.765625 287.6875 197.703125 289.28125 197.703125 C 290.804688 197.703125 292.28125 196.859375 293.078125 195.242188 C 293.875 193.601562 294.039062 191.890625 294.039062 189.617188 Z M 289.304688 196.296875 C 286.304688 196.296875 286.304688 191.515625 286.304688 189.335938 C 286.304688 187.8125 286.304688 186.382812 286.726562 185.070312 C 287.289062 183.40625 288.320312 182.84375 289.28125 182.84375 C 292.257812 182.84375 292.257812 187.179688 292.257812 189.335938 C 292.257812 190.8125 292.257812 192.359375 291.835938 193.8125 C 291.203125 196.039062 289.914062 196.296875 289.304688 196.296875 Z M 289.304688 196.296875 "/>
<path fill-rule="nonzero" fill="rgb(0%, 0%, 0%)" fill-opacity="1" d="M 313.332031 190.71875 L 308.667969 186.078125 C 308.386719 185.796875 308.339844 185.75 308.152344 185.75 C 307.917969 185.75 307.683594 185.960938 307.683594 186.21875 C 307.683594 186.382812 307.730469 186.429688 307.988281 186.6875 L 312.652344 191.375 L 307.988281 196.0625 C 307.730469 196.320312 307.683594 196.367188 307.683594 196.53125 C 307.683594 196.789062 307.917969 197 308.152344 197 C 308.339844 197 308.386719 196.953125 308.667969 196.671875 L 313.308594 192.03125 L 318.136719 196.859375 C 318.183594 196.882812 318.347656 197 318.488281 197 C 318.769531 197 318.957031 196.789062 318.957031 196.53125 C 318.957031 196.484375 318.957031 196.390625 318.886719 196.273438 C 318.863281 196.226562 315.160156 192.570312 313.988281 191.375 L 318.253906 187.109375 C 318.371094 186.96875 318.722656 186.664062 318.839844 186.523438 C 318.863281 186.476562 318.957031 186.382812 318.957031 186.21875 C 318.957031 185.960938 318.769531 185.75 318.488281 185.75 C 318.300781 185.75 318.207031 185.84375 317.949219 186.101562 Z M 313.332031 190.71875 "/>
<path fill-rule="nonzero" fill="rgb(0%, 0%, 0%)" fill-opacity="1" d="M 340.164062 193.203125 L 342.4375 193.203125 L 342.4375 191.796875 L 340.164062 191.796875 L 340.164062 181.929688 L 338.078125 181.929688 L 332.289062 191.796875 L 332.289062 193.203125 L 338.335938 193.203125 L 338.335938 197.210938 L 340.164062 197.210938 Z M 334.070312 191.796875 C 334.75 190.601562 335.664062 189.125 336.648438 187.25 C 336.929688 186.710938 338.453125 183.851562 338.453125 182.984375 L 338.453125 191.796875 Z M 334.070312 191.796875 "/>
<path fill-rule="nonzero" fill="rgb(0%, 0%, 0%)" fill-opacity="1" d="M 347.171875 197.1875 L 347.171875 195.3125 L 345.296875 195.3125 L 345.296875 197.210938 L 345.859375 197.210938 L 345.296875 200.117188 L 346.210938 200.117188 Z M 347.171875 197.1875 "/>
<path fill-rule="nonzero" fill="rgb(0%, 0%, 0%)" fill-opacity="1" d="M 358.671875 196.625 C 359.703125 197.445312 360.664062 197.703125 361.695312 197.703125 C 364.648438 197.703125 367.4375 194.515625 367.4375 189.40625 C 367.4375 183.054688 364.835938 181.4375 362.796875 181.4375 C 361.109375 181.4375 360.125 182.210938 359.328125 183.195312 C 358.203125 184.53125 357.992188 185.75 357.992188 187.085938 C 357.992188 190.109375 359.515625 192.640625 361.648438 192.640625 C 363.359375 192.640625 364.648438 191.820312 365.539062 190.71875 C 365.351562 194 363.851562 196.296875 361.695312 196.296875 C 360.734375 196.296875 360.007812 195.992188 359.375 195.382812 Z M 365.46875 187.0625 C 365.492188 187.226562 365.492188 187.460938 365.492188 187.625 C 365.492188 189.40625 364.484375 191.234375 362.5625 191.234375 C 362.164062 191.234375 361.132812 191.234375 360.359375 189.875 C 359.914062 189.03125 359.820312 188.351562 359.820312 187.085938 C 359.820312 186.054688 359.84375 185.09375 360.546875 184.039062 C 360.898438 183.523438 361.53125 182.773438 362.796875 182.773438 C 365.023438 182.773438 365.421875 185.914062 365.46875 187.0625 Z M 365.46875 187.0625 "/>
<path fill-rule="nonzero" fill="rgb(0%, 0%, 0%)" fill-opacity="1" d="M 386.761719 190.71875 L 382.097656 186.078125 C 381.816406 185.796875 381.769531 185.75 381.582031 185.75 C 381.347656 185.75 381.113281 185.960938 381.113281 186.21875 C 381.113281 186.382812 381.160156 186.429688 381.417969 186.6875 L 386.082031 191.375 L 381.417969 196.0625 C 381.160156 196.320312 381.113281 196.367188 381.113281 196.53125 C 381.113281 196.789062 381.347656 197 381.582031 197 C 381.769531 197 381.816406 196.953125 382.097656 196.671875 L 386.738281 192.03125 L 391.566406 196.859375 C 391.613281 196.882812 391.777344 197 391.917969 197 C 392.199219 197 392.386719 196.789062 392.386719 196.53125 C 392.386719 196.484375 392.386719 196.390625 392.316406 196.273438 C 392.292969 196.226562 388.589844 192.570312 387.417969 191.375 L 391.683594 187.109375 C 391.800781 186.96875 392.152344 186.664062 392.269531 186.523438 C 392.292969 186.476562 392.386719 186.382812 392.386719 186.21875 C 392.386719 185.960938 392.199219 185.75 391.917969 185.75 C 391.730469 185.75 391.636719 185.84375 391.378906 186.101562 Z M 386.761719 190.71875 "/>
<path fill-rule="nonzero" fill="rgb(0%, 0%, 0%)" fill-opacity="1" d="M 413.59375 193.203125 L 415.867188 193.203125 L 415.867188 191.796875 L 413.59375 191.796875 L 413.59375 181.929688 L 411.507812 181.929688 L 405.71875 191.796875 L 405.71875 193.203125 L 411.765625 193.203125 L 411.765625 197.210938 L 413.59375 197.210938 Z M 407.5 191.796875 C 408.179688 190.601562 409.09375 189.125 410.078125 187.25 C 410.359375 186.710938 411.882812 183.851562 411.882812 182.984375 L 411.882812 191.796875 Z M 407.5 191.796875 "/>
<path fill-rule="nonzero" fill="rgb(0%, 0%, 0%)" fill-opacity="1" d="M 420.597656 197.1875 L 420.597656 195.3125 L 418.722656 195.3125 L 418.722656 197.210938 L 419.285156 197.210938 L 418.722656 200.117188 L 419.636719 200.117188 Z M 420.597656 197.1875 "/>
<path fill-rule="nonzero" fill="rgb(0%, 0%, 0%)" fill-opacity="1" d="M 437.703125 188.960938 C 439.179688 188.515625 440.585938 187.226562 440.585938 185.515625 C 440.585938 183.3125 438.617188 181.4375 436.15625 181.4375 C 433.578125 181.4375 431.703125 183.382812 431.703125 185.515625 C 431.703125 187.25 433.109375 188.539062 434.5625 188.960938 C 432.6875 189.59375 431.398438 191.140625 431.398438 193.015625 C 431.398438 195.5 433.460938 197.703125 436.132812 197.703125 C 438.875 197.703125 440.890625 195.453125 440.890625 193.015625 C 440.890625 191.140625 439.601562 189.59375 437.703125 188.960938 Z M 436.15625 188.257812 C 434.304688 188.257812 433.296875 187.015625 433.296875 185.539062 C 433.296875 183.757812 434.5625 182.773438 436.132812 182.773438 C 437.796875 182.773438 438.96875 183.828125 438.96875 185.539062 C 438.96875 187.085938 437.890625 188.257812 436.15625 188.257812 Z M 436.15625 196.296875 C 434.585938 196.296875 433.226562 195.171875 433.226562 192.992188 C 433.226562 190.484375 434.914062 189.664062 436.132812 189.664062 C 437.421875 189.664062 439.039062 190.554688 439.039062 192.992188 C 439.039062 195.242188 437.609375 196.296875 436.15625 196.296875 Z M 436.15625 196.296875 "/>
<path fill-rule="nonzero" fill="rgb(0%, 0%, 0%)" fill-opacity="1" d="M 460.191406 190.71875 L 455.527344 186.078125 C 455.246094 185.796875 455.199219 185.75 455.011719 185.75 C 454.777344 185.75 454.542969 185.960938 454.542969 186.21875 C 454.542969 186.382812 454.589844 186.429688 454.847656 186.6875 L 459.511719 191.375 L 454.847656 196.0625 C 454.589844 196.320312 454.542969 196.367188 454.542969 196.53125 C 454.542969 196.789062 454.777344 197 455.011719 197 C 455.199219 197 455.246094 196.953125 455.527344 196.671875 L 460.167969 192.03125 L 464.996094 196.859375 C 465.042969 196.882812 465.207031 197 465.347656 197 C 465.628906 197 465.816406 196.789062 465.816406 196.53125 C 465.816406 196.484375 465.816406 196.390625 465.746094 196.273438 C 465.722656 196.226562 462.019531 192.570312 460.847656 191.375 L 465.113281 187.109375 C 465.230469 186.96875 465.582031 186.664062 465.699219 186.523438 C 465.722656 186.476562 465.816406 186.382812 465.816406 186.21875 C 465.816406 185.960938 465.628906 185.75 465.347656 185.75 C 465.160156 185.75 465.066406 185.84375 464.808594 186.101562 Z M 460.191406 190.71875 "/>
<path fill-rule="nonzero" fill="rgb(0%, 0%, 0%)" fill-opacity="1" d="M 485.378906 181.4375 L 484.933594 181.4375 C 484.558594 181.8125 483.433594 182.914062 480.902344 182.960938 C 480.597656 182.960938 480.574219 182.984375 480.574219 183.40625 L 480.574219 184.34375 C 481.980469 184.34375 483.058594 183.992188 483.550781 183.78125 L 483.550781 195.851562 L 480.714844 195.851562 L 480.714844 197.210938 L 488.214844 197.210938 L 488.214844 195.851562 L 485.378906 195.851562 Z M 485.378906 181.4375 "/>
<path fill-rule="nonzero" fill="rgb(0%, 0%, 0%)" fill-opacity="1" d="M 500.378906 189.617188 C 500.378906 188.046875 500.308594 186.242188 499.699219 184.601562 C 498.691406 181.976562 496.886719 181.4375 495.644531 181.4375 C 494.121094 181.4375 492.644531 182.210938 491.800781 184.0625 C 491.027344 185.703125 490.886719 187.601562 490.886719 189.617188 C 490.886719 192.148438 491.097656 193.601562 491.847656 195.21875 C 492.527344 196.765625 494.027344 197.703125 495.621094 197.703125 C 497.144531 197.703125 498.621094 196.859375 499.417969 195.242188 C 500.214844 193.601562 500.378906 191.890625 500.378906 189.617188 Z M 495.644531 196.296875 C 492.644531 196.296875 492.644531 191.515625 492.644531 189.335938 C 492.644531 187.8125 492.644531 186.382812 493.066406 185.070312 C 493.628906 183.40625 494.660156 182.84375 495.621094 182.84375 C 498.597656 182.84375 498.597656 187.179688 498.597656 189.335938 C 498.597656 190.8125 498.597656 192.359375 498.175781 193.8125 C 497.542969 196.039062 496.253906 196.296875 495.644531 196.296875 Z M 495.644531 196.296875 "/>
<path fill="none" stroke-width="0.99628" stroke-linecap="butt" stroke-linejoin="round" stroke="rgb(19.607843%, 19.607843%, 19.607843%)" stroke-opacity="1" stroke-miterlimit="10" d="M -60.929436 -17.268453 L 60.929939 -17.268453 L 60.929939 17.268005 L -60.929436 17.268005 Z M -60.929436 -17.268453 " transform="matrix(1.5, 0, 0, -1.5, 100.358997, 242.839508)"/>
<path fill-rule="nonzero" fill="rgb(0%, 0%, 0%)" fill-opacity="1" d="M 76.921875 235.816406 C 77.203125 235.816406 77.484375 235.792969 77.765625 235.792969 L 80.554688 235.792969 C 79.148438 237.433594 75.117188 242.097656 75.117188 249.738281 L 77.015625 249.738281 C 77.015625 243.667969 79.5 238.699219 82.078125 235.699219 L 82.078125 234.222656 L 72.585938 234.222656 L 72.585938 235.816406 Z M 76.921875 235.816406 "/>
<path fill-rule="nonzero" fill="rgb(0%, 0%, 0%)" fill-opacity="1" d="M 100.363281 243.011719 L 95.699219 238.371094 C 95.417969 238.089844 95.371094 238.042969 95.183594 238.042969 C 94.949219 238.042969 94.714844 238.253906 94.714844 238.511719 C 94.714844 238.675781 94.761719 238.722656 95.019531 238.980469 L 99.683594 243.667969 L 95.019531 248.355469 C 94.761719 248.613281 94.714844 248.660156 94.714844 248.824219 C 94.714844 249.082031 94.949219 249.292969 95.183594 249.292969 C 95.371094 249.292969 95.417969 249.246094 95.699219 248.964844 L 100.339844 244.324219 L 105.167969 249.152344 C 105.214844 249.175781 105.378906 249.292969 105.519531 249.292969 C 105.800781 249.292969 105.988281 249.082031 105.988281 248.824219 C 105.988281 248.777344 105.988281 248.683594 105.917969 248.566406 C 105.894531 248.519531 102.191406 244.863281 101.019531 243.667969 L 105.285156 239.402344 C 105.402344 239.261719 105.753906 238.957031 105.871094 238.816406 C 105.894531 238.769531 105.988281 238.675781 105.988281 238.511719 C 105.988281 238.253906 105.800781 238.042969 105.519531 238.042969 C 105.332031 238.042969 105.238281 238.136719 104.980469 238.394531 Z M 100.363281 243.011719 "/>
<path fill-rule="nonzero" fill="rgb(0%, 0%, 0%)" fill-opacity="1" d="M 118.828125 248.027344 L 118.828125 249.503906 L 127.945312 249.503906 L 127.945312 247.910156 L 123.796875 247.910156 C 123.515625 247.910156 123.234375 247.933594 122.953125 247.933594 L 120.445312 247.933594 C 121.054688 247.300781 123.234375 245.167969 124.734375 243.808594 C 126.46875 242.308594 127.945312 240.855469 127.945312 238.699219 C 127.945312 236.121094 126.140625 233.730469 123.070312 233.730469 C 120.539062 233.730469 119.273438 235.394531 118.640625 237.574219 C 119.390625 238.488281 119.390625 238.535156 119.601562 238.816406 C 120.164062 236.332031 121.03125 235.183594 122.765625 235.183594 C 124.757812 235.183594 126.070312 236.753906 126.070312 238.746094 C 126.070312 239.964844 125.578125 241.324219 124.03125 242.847656 Z M 118.828125 248.027344 "/>
<path fill="none" stroke-width="0.99628" stroke-linecap="butt" stroke-linejoin="round" stroke="rgb(19.607843%, 19.607843%, 19.607843%)" stroke-opacity="1" stroke-miterlimit="10" d="M -130.004679 -17.268453 L 130.005737 -17.268453 L 130.005737 17.268005 L -130.004679 17.268005 Z M -130.004679 -17.268453 " transform="matrix(1.5, 0, 0, -1.5, 386.757019, 242.839508)"/>
<path fill-rule="nonzero" fill="rgb(0%, 0%, 0%)" fill-opacity="1" d="M 282.347656 235.332031 C 282.628906 235.332031 282.910156 235.308594 283.191406 235.308594 L 285.980469 235.308594 C 284.574219 236.949219 280.542969 241.613281 280.542969 249.253906 L 282.441406 249.253906 C 282.441406 243.183594 284.925781 238.214844 287.503906 235.214844 L 287.503906 233.738281 L 278.011719 233.738281 L 278.011719 235.332031 Z M 282.347656 235.332031 "/>
<path fill-rule="nonzero" fill="rgb(0%, 0%, 0%)" fill-opacity="1" d="M 307.070312 242.527344 L 302.40625 237.886719 C 302.125 237.605469 302.078125 237.558594 301.890625 237.558594 C 301.65625 237.558594 301.421875 237.769531 301.421875 238.027344 C 301.421875 238.191406 301.46875 238.238281 301.726562 238.496094 L 306.390625 243.183594 L 301.726562 247.871094 C 301.46875 248.128906 301.421875 248.175781 301.421875 248.339844 C 301.421875 248.597656 301.65625 248.808594 301.890625 248.808594 C 302.078125 248.808594 302.125 248.761719 302.40625 248.480469 L 307.046875 243.839844 L 311.875 248.667969 C 311.921875 248.691406 312.085938 248.808594 312.226562 248.808594 C 312.507812 248.808594 312.695312 248.597656 312.695312 248.339844 C 312.695312 248.292969 312.695312 248.199219 312.625 248.082031 C 312.601562 248.035156 308.898438 244.378906 307.726562 243.183594 L 311.992188 238.917969 C 312.109375 238.777344 312.460938 238.472656 312.578125 238.332031 C 312.601562 238.285156 312.695312 238.191406 312.695312 238.027344 C 312.695312 237.769531 312.507812 237.558594 312.226562 237.558594 C 312.039062 237.558594 311.945312 237.652344 311.6875 237.910156 Z M 307.070312 242.527344 "/>
<path fill-rule="nonzero" fill="rgb(0%, 0%, 0%)" fill-opacity="1" d="M 334.179688 245.011719 L 336.453125 245.011719 L 336.453125 243.605469 L 334.179688 243.605469 L 334.179688 233.738281 L 332.09375 233.738281 L 326.304688 243.605469 L 326.304688 245.011719 L 332.351562 245.011719 L 332.351562 249.019531 L 334.179688 249.019531 Z M 328.085938 243.605469 C 328.765625 242.410156 329.679688 240.933594 330.664062 239.058594 C 330.945312 238.519531 332.46875 235.660156 332.46875 234.792969 L 332.46875 243.605469 Z M 328.085938 243.605469 "/>
<path fill-rule="nonzero" fill="rgb(0%, 0%, 0%)" fill-opacity="1" d="M 341.1875 248.996094 L 341.1875 247.121094 L 339.3125 247.121094 L 339.3125 249.019531 L 339.875 249.019531 L 339.3125 251.925781 L 340.226562 251.925781 Z M 341.1875 248.996094 "/>
<path fill-rule="nonzero" fill="rgb(0%, 0%, 0%)" fill-opacity="1" d="M 358.292969 240.769531 C 359.769531 240.324219 361.175781 239.035156 361.175781 237.324219 C 361.175781 235.121094 359.207031 233.246094 356.746094 233.246094 C 354.167969 233.246094 352.292969 235.191406 352.292969 237.324219 C 352.292969 239.058594 353.699219 240.347656 355.152344 240.769531 C 353.277344 241.402344 351.988281 242.949219 351.988281 244.824219 C 351.988281 247.308594 354.050781 249.511719 356.722656 249.511719 C 359.464844 249.511719 361.480469 247.261719 361.480469 244.824219 C 361.480469 242.949219 360.191406 241.402344 358.292969 240.769531 Z M 356.746094 240.066406 C 354.894531 240.066406 353.886719 238.824219 353.886719 237.347656 C 353.886719 235.566406 355.152344 234.582031 356.722656 234.582031 C 358.386719 234.582031 359.558594 235.636719 359.558594 237.347656 C 359.558594 238.894531 358.480469 240.066406 356.746094 240.066406 Z M 356.746094 248.105469 C 355.175781 248.105469 353.816406 246.980469 353.816406 244.800781 C 353.816406 242.292969 355.503906 241.472656 356.722656 241.472656 C 358.011719 241.472656 359.628906 242.363281 359.628906 244.800781 C 359.628906 247.050781 358.199219 248.105469 356.746094 248.105469 Z M 356.746094 248.105469 "/>
<path fill-rule="nonzero" fill="rgb(0%, 0%, 0%)" fill-opacity="1" d="M 381.054688 242.527344 L 376.390625 237.886719 C 376.109375 237.605469 376.0625 237.558594 375.875 237.558594 C 375.640625 237.558594 375.40625 237.769531 375.40625 238.027344 C 375.40625 238.191406 375.453125 238.238281 375.710938 238.496094 L 380.375 243.183594 L 375.710938 247.871094 C 375.453125 248.128906 375.40625 248.175781 375.40625 248.339844 C 375.40625 248.597656 375.640625 248.808594 375.875 248.808594 C 376.0625 248.808594 376.109375 248.761719 376.390625 248.480469 L 381.03125 243.839844 L 385.859375 248.667969 C 385.90625 248.691406 386.070312 248.808594 386.210938 248.808594 C 386.492188 248.808594 386.679688 248.597656 386.679688 248.339844 C 386.679688 248.292969 386.679688 248.199219 386.609375 248.082031 C 386.585938 248.035156 382.882812 244.378906 381.710938 243.183594 L 385.976562 238.917969 C 386.09375 238.777344 386.445312 238.472656 386.5625 238.332031 C 386.585938 238.285156 386.679688 238.191406 386.679688 238.027344 C 386.679688 237.769531 386.492188 237.558594 386.210938 237.558594 C 386.023438 237.558594 385.929688 237.652344 385.671875 237.910156 Z M 381.054688 242.527344 "/>
<path fill-rule="nonzero" fill="rgb(0%, 0%, 0%)" fill-opacity="1" d="M 400.800781 247.542969 L 400.800781 249.019531 L 409.917969 249.019531 L 409.917969 247.425781 L 405.769531 247.425781 C 405.488281 247.425781 405.207031 247.449219 404.925781 247.449219 L 402.417969 247.449219 C 403.027344 246.816406 405.207031 244.683594 406.707031 243.324219 C 408.441406 241.824219 409.917969 240.371094 409.917969 238.214844 C 409.917969 235.636719 408.113281 233.246094 405.042969 233.246094 C 402.511719 233.246094 401.246094 234.910156 400.613281 237.089844 C 401.363281 238.003906 401.363281 238.050781 401.574219 238.332031 C 402.136719 235.847656 403.003906 234.699219 404.738281 234.699219 C 406.730469 234.699219 408.042969 236.269531 408.042969 238.261719 C 408.042969 239.480469 407.550781 240.839844 406.003906 242.363281 Z M 400.800781 247.542969 "/>
<path fill-rule="nonzero" fill="rgb(0%, 0%, 0%)" fill-opacity="1" d="M 415.167969 248.996094 L 415.167969 247.121094 L 413.292969 247.121094 L 413.292969 249.019531 L 413.855469 249.019531 L 413.292969 251.925781 L 414.207031 251.925781 Z M 415.167969 248.996094 "/>
<path fill-rule="nonzero" fill="rgb(0%, 0%, 0%)" fill-opacity="1" d="M 431.875 233.246094 L 431.429688 233.246094 C 431.054688 233.621094 429.929688 234.722656 427.398438 234.769531 C 427.09375 234.769531 427.070312 234.792969 427.070312 235.214844 L 427.070312 236.152344 C 428.476562 236.152344 429.554688 235.800781 430.046875 235.589844 L 430.046875 247.660156 L 427.210938 247.660156 L 427.210938 249.019531 L 434.710938 249.019531 L 434.710938 247.660156 L 431.875 247.660156 Z M 431.875 233.246094 "/>
<path fill-rule="nonzero" fill="rgb(0%, 0%, 0%)" fill-opacity="1" d="M 444.929688 245.011719 L 447.203125 245.011719 L 447.203125 243.605469 L 444.929688 243.605469 L 444.929688 233.738281 L 442.84375 233.738281 L 437.054688 243.605469 L 437.054688 245.011719 L 443.101562 245.011719 L 443.101562 249.019531 L 444.929688 249.019531 Z M 438.835938 243.605469 C 439.515625 242.410156 440.429688 240.933594 441.414062 239.058594 C 441.695312 238.519531 443.21875 235.660156 443.21875 234.792969 L 443.21875 243.605469 Z M 438.835938 243.605469 "/>
<path fill-rule="nonzero" fill="rgb(0%, 0%, 0%)" fill-opacity="1" d="M 466.449219 242.527344 L 461.785156 237.886719 C 461.503906 237.605469 461.457031 237.558594 461.269531 237.558594 C 461.035156 237.558594 460.800781 237.769531 460.800781 238.027344 C 460.800781 238.191406 460.847656 238.238281 461.105469 238.496094 L 465.769531 243.183594 L 461.105469 247.871094 C 460.847656 248.128906 460.800781 248.175781 460.800781 248.339844 C 460.800781 248.597656 461.035156 248.808594 461.269531 248.808594 C 461.457031 248.808594 461.503906 248.761719 461.785156 248.480469 L 466.425781 243.839844 L 471.253906 248.667969 C 471.300781 248.691406 471.464844 248.808594 471.605469 248.808594 C 471.886719 248.808594 472.074219 248.597656 472.074219 248.339844 C 472.074219 248.292969 472.074219 248.199219 472.003906 248.082031 C 471.980469 248.035156 468.277344 244.378906 467.105469 243.183594 L 471.371094 238.917969 C 471.488281 238.777344 471.839844 238.472656 471.957031 238.332031 C 471.980469 238.285156 472.074219 238.191406 472.074219 238.027344 C 472.074219 237.769531 471.886719 237.558594 471.605469 237.558594 C 471.417969 237.558594 471.324219 237.652344 471.066406 237.910156 Z M 466.449219 242.527344 "/>
<path fill-rule="nonzero" fill="rgb(0%, 0%, 0%)" fill-opacity="1" d="M 486.199219 247.542969 L 486.199219 249.019531 L 495.316406 249.019531 L 495.316406 247.425781 L 491.167969 247.425781 C 490.886719 247.425781 490.605469 247.449219 490.324219 247.449219 L 487.816406 247.449219 C 488.425781 246.816406 490.605469 244.683594 492.105469 243.324219 C 493.839844 241.824219 495.316406 240.371094 495.316406 238.214844 C 495.316406 235.636719 493.511719 233.246094 490.441406 233.246094 C 487.910156 233.246094 486.644531 234.910156 486.011719 237.089844 C 486.761719 238.003906 486.761719 238.050781 486.972656 238.332031 C 487.535156 235.847656 488.402344 234.699219 490.136719 234.699219 C 492.128906 234.699219 493.441406 236.269531 493.441406 238.261719 C 493.441406 239.480469 492.949219 240.839844 491.402344 242.363281 Z M 486.199219 247.542969 "/>
<path fill="none" stroke-width="0.99628" stroke-linecap="butt" stroke-linejoin="round" stroke="rgb(19.607843%, 19.607843%, 19.607843%)" stroke-opacity="1" stroke-miterlimit="10" d="M -60.929436 -17.267924 L 60.929939 -17.267924 L 60.929939 17.271139 L -60.929436 17.271139 Z M -60.929436 -17.267924 " transform="matrix(1.5, 0, 0, -1.5, 100.358997, 294.644989)"/>
<path fill-rule="nonzero" fill="rgb(0%, 0%, 0%)" fill-opacity="1" d="M 75.117188 287.480469 L 81.117188 287.480469 L 81.117188 286.027344 L 73.476562 286.027344 L 73.476562 294.605469 L 74.976562 294.605469 C 75.5625 293.292969 76.59375 292.777344 77.554688 292.777344 C 78.632812 292.777344 79.875 293.761719 79.875 296.527344 C 79.875 299.457031 78.210938 300.394531 76.851562 300.394531 C 75.5625 300.394531 74.015625 299.691406 73.289062 298.238281 L 72.515625 299.480469 C 74.039062 301.683594 76.242188 301.800781 76.875 301.800781 C 79.617188 301.800781 81.890625 299.480469 81.890625 296.574219 C 81.890625 293.667969 79.921875 291.371094 77.578125 291.371094 C 76.640625 291.371094 75.773438 291.722656 75.117188 292.308594 Z M 75.117188 287.480469 "/>
<path fill-rule="nonzero" fill="rgb(0%, 0%, 0%)" fill-opacity="1" d="M 100.363281 294.816406 L 95.699219 290.175781 C 95.417969 289.894531 95.371094 289.847656 95.183594 289.847656 C 94.949219 289.847656 94.714844 290.058594 94.714844 290.316406 C 94.714844 290.480469 94.761719 290.527344 95.019531 290.785156 L 99.683594 295.472656 L 95.019531 300.160156 C 94.761719 300.417969 94.714844 300.464844 94.714844 300.628906 C 94.714844 300.886719 94.949219 301.097656 95.183594 301.097656 C 95.371094 301.097656 95.417969 301.050781 95.699219 300.769531 L 100.339844 296.128906 L 105.167969 300.957031 C 105.214844 300.980469 105.378906 301.097656 105.519531 301.097656 C 105.800781 301.097656 105.988281 300.886719 105.988281 300.628906 C 105.988281 300.582031 105.988281 300.488281 105.917969 300.371094 C 105.894531 300.324219 102.191406 296.667969 101.019531 295.472656 L 105.285156 291.207031 C 105.402344 291.066406 105.753906 290.761719 105.871094 290.621094 C 105.894531 290.574219 105.988281 290.480469 105.988281 290.316406 C 105.988281 290.058594 105.800781 289.847656 105.519531 289.847656 C 105.332031 289.847656 105.238281 289.941406 104.980469 290.199219 Z M 100.363281 294.816406 "/>
<path fill-rule="nonzero" fill="rgb(0%, 0%, 0%)" fill-opacity="1" d="M 124.945312 293.058594 C 126.421875 292.613281 127.828125 291.324219 127.828125 289.613281 C 127.828125 287.410156 125.859375 285.535156 123.398438 285.535156 C 120.820312 285.535156 118.945312 287.480469 118.945312 289.613281 C 118.945312 291.347656 120.351562 292.636719 121.804688 293.058594 C 119.929688 293.691406 118.640625 295.238281 118.640625 297.113281 C 118.640625 299.597656 120.703125 301.800781 123.375 301.800781 C 126.117188 301.800781 128.132812 299.550781 128.132812 297.113281 C 128.132812 295.238281 126.84375 293.691406 124.945312 293.058594 Z M 123.398438 292.355469 C 121.546875 292.355469 120.539062 291.113281 120.539062 289.636719 C 120.539062 287.855469 121.804688 286.871094 123.375 286.871094 C 125.039062 286.871094 126.210938 287.925781 126.210938 289.636719 C 126.210938 291.183594 125.132812 292.355469 123.398438 292.355469 Z M 123.398438 300.394531 C 121.828125 300.394531 120.46875 299.269531 120.46875 297.089844 C 120.46875 294.582031 122.15625 293.761719 123.375 293.761719 C 124.664062 293.761719 126.28125 294.652344 126.28125 297.089844 C 126.28125 299.339844 124.851562 300.394531 123.398438 300.394531 Z M 123.398438 300.394531 "/>
<path fill="none" stroke-width="0.99628" stroke-linecap="butt" stroke-linejoin="round" stroke="rgb(19.607843%, 19.607843%, 19.607843%)" stroke-opacity="1" stroke-miterlimit="10" d="M -130.004679 -17.267924 L 130.005737 -17.267924 L 130.005737 17.271139 L -130.004679 17.271139 Z M -130.004679 -17.267924 " transform="matrix(1.5, 0, 0, -1.5, 386.757019, 294.644989)"/>
<path fill-rule="nonzero" fill="rgb(0%, 0%, 0%)" fill-opacity="1" d="M 291.417969 285.519531 C 290.457031 285.167969 289.777344 285.050781 288.957031 285.050781 C 285.816406 285.050781 282.910156 288.308594 282.910156 293.324219 C 282.910156 300.003906 285.816406 301.316406 287.667969 301.316406 C 289.050781 301.316406 290.058594 300.753906 290.972656 299.675781 C 292.027344 298.433594 292.355469 297.332031 292.355469 295.644531 C 292.355469 292.667969 290.808594 290.113281 288.699219 290.113281 C 286.964844 290.113281 285.652344 290.957031 284.785156 292.011719 C 285.042969 288.566406 286.707031 286.386719 289.003906 286.386719 C 290.011719 286.386719 290.738281 286.621094 291.417969 286.878906 Z M 284.808594 295.738281 C 284.808594 295.550781 284.808594 295.246094 284.832031 295.082031 C 284.832031 293.464844 285.769531 291.519531 287.785156 291.519531 C 288.558594 291.519531 289.285156 291.730469 289.964844 292.902344 C 290.480469 293.839844 290.503906 294.753906 290.503906 295.667969 C 290.503906 296.628906 290.503906 297.636719 289.800781 298.667969 C 289.378906 299.300781 288.816406 299.910156 287.667969 299.910156 C 285.230469 299.910156 284.878906 296.488281 284.808594 295.738281 Z M 284.808594 295.738281 "/>
<path fill-rule="nonzero" fill="rgb(0%, 0%, 0%)" fill-opacity="1" d="M 312.226562 294.332031 L 307.5625 289.691406 C 307.28125 289.410156 307.234375 289.363281 307.046875 289.363281 C 306.8125 289.363281 306.578125 289.574219 306.578125 289.832031 C 306.578125 289.996094 306.625 290.042969 306.882812 290.300781 L 311.546875 294.988281 L 306.882812 299.675781 C 306.625 299.933594 306.578125 299.980469 306.578125 300.144531 C 306.578125 300.402344 306.8125 300.613281 307.046875 300.613281 C 307.234375 300.613281 307.28125 300.566406 307.5625 300.285156 L 312.203125 295.644531 L 317.03125 300.472656 C 317.078125 300.496094 317.242188 300.613281 317.382812 300.613281 C 317.664062 300.613281 317.851562 300.402344 317.851562 300.144531 C 317.851562 300.097656 317.851562 300.003906 317.78125 299.886719 C 317.757812 299.839844 314.054688 296.183594 312.882812 294.988281 L 317.148438 290.722656 C 317.265625 290.582031 317.617188 290.277344 317.734375 290.136719 C 317.757812 290.089844 317.851562 289.996094 317.851562 289.832031 C 317.851562 289.574219 317.664062 289.363281 317.382812 289.363281 C 317.195312 289.363281 317.101562 289.457031 316.84375 289.714844 Z M 312.226562 294.332031 "/>
<path fill-rule="nonzero" fill="rgb(0%, 0%, 0%)" fill-opacity="1" d="M 338.367188 292.574219 C 339.84375 292.128906 341.25 290.839844 341.25 289.128906 C 341.25 286.925781 339.28125 285.050781 336.820312 285.050781 C 334.242188 285.050781 332.367188 286.996094 332.367188 289.128906 C 332.367188 290.863281 333.773438 292.152344 335.226562 292.574219 C 333.351562 293.207031 332.0625 294.753906 332.0625 296.628906 C 332.0625 299.113281 334.125 301.316406 336.796875 301.316406 C 339.539062 301.316406 341.554688 299.066406 341.554688 296.628906 C 341.554688 294.753906 340.265625 293.207031 338.367188 292.574219 Z M 336.820312 291.871094 C 334.96875 291.871094 333.960938 290.628906 333.960938 289.152344 C 333.960938 287.371094 335.226562 286.386719 336.796875 286.386719 C 338.460938 286.386719 339.632812 287.441406 339.632812 289.152344 C 339.632812 290.699219 338.554688 291.871094 336.820312 291.871094 Z M 336.820312 299.910156 C 335.25 299.910156 333.890625 298.785156 333.890625 296.605469 C 333.890625 294.097656 335.578125 293.277344 336.796875 293.277344 C 338.085938 293.277344 339.703125 294.167969 339.703125 296.605469 C 339.703125 298.855469 338.273438 299.910156 336.820312 299.910156 Z M 336.820312 299.910156 "/>
<path fill-rule="nonzero" fill="rgb(0%, 0%, 0%)" fill-opacity="1" d="M 346.617188 300.800781 L 346.617188 298.925781 L 344.742188 298.925781 L 344.742188 300.824219 L 345.304688 300.824219 L 344.742188 303.730469 L 345.65625 303.730469 Z M 346.617188 300.800781 "/>
<path fill-rule="nonzero" fill="rgb(0%, 0%, 0%)" fill-opacity="1" d="M 364.964844 296.816406 L 367.238281 296.816406 L 367.238281 295.410156 L 364.964844 295.410156 L 364.964844 285.542969 L 362.878906 285.542969 L 357.089844 295.410156 L 357.089844 296.816406 L 363.136719 296.816406 L 363.136719 300.824219 L 364.964844 300.824219 Z M 358.871094 295.410156 C 359.550781 294.214844 360.464844 292.738281 361.449219 290.863281 C 361.730469 290.324219 363.253906 287.464844 363.253906 286.597656 L 363.253906 295.410156 Z M 358.871094 295.410156 "/>
<path fill-rule="nonzero" fill="rgb(0%, 0%, 0%)" fill-opacity="1" d="M 386.761719 294.332031 L 382.097656 289.691406 C 381.816406 289.410156 381.769531 289.363281 381.582031 289.363281 C 381.347656 289.363281 381.113281 289.574219 381.113281 289.832031 C 381.113281 289.996094 381.160156 290.042969 381.417969 290.300781 L 386.082031 294.988281 L 381.417969 299.675781 C 381.160156 299.933594 381.113281 299.980469 381.113281 300.144531 C 381.113281 300.402344 381.347656 300.613281 381.582031 300.613281 C 381.769531 300.613281 381.816406 300.566406 382.097656 300.285156 L 386.738281 295.644531 L 391.566406 300.472656 C 391.613281 300.496094 391.777344 300.613281 391.917969 300.613281 C 392.199219 300.613281 392.386719 300.402344 392.386719 300.144531 C 392.386719 300.097656 392.386719 300.003906 392.316406 299.886719 C 392.292969 299.839844 388.589844 296.183594 387.417969 294.988281 L 391.683594 290.722656 C 391.800781 290.582031 392.152344 290.277344 392.269531 290.136719 C 392.292969 290.089844 392.386719 289.996094 392.386719 289.832031 C 392.386719 289.574219 392.199219 289.363281 391.917969 289.363281 C 391.730469 289.363281 391.636719 289.457031 391.378906 289.714844 Z M 386.761719 294.332031 "/>
<path fill-rule="nonzero" fill="rgb(0%, 0%, 0%)" fill-opacity="1" d="M 412.902344 292.574219 C 414.378906 292.128906 415.785156 290.839844 415.785156 289.128906 C 415.785156 286.925781 413.816406 285.050781 411.355469 285.050781 C 408.777344 285.050781 406.902344 286.996094 406.902344 289.128906 C 406.902344 290.863281 408.308594 292.152344 409.761719 292.574219 C 407.886719 293.207031 406.597656 294.753906 406.597656 296.628906 C 406.597656 299.113281 408.660156 301.316406 411.332031 301.316406 C 414.074219 301.316406 416.089844 299.066406 416.089844 296.628906 C 416.089844 294.753906 414.800781 293.207031 412.902344 292.574219 Z M 411.355469 291.871094 C 409.503906 291.871094 408.496094 290.628906 408.496094 289.152344 C 408.496094 287.371094 409.761719 286.386719 411.332031 286.386719 C 412.996094 286.386719 414.167969 287.441406 414.167969 289.152344 C 414.167969 290.699219 413.089844 291.871094 411.355469 291.871094 Z M 411.355469 299.910156 C 409.785156 299.910156 408.425781 298.785156 408.425781 296.605469 C 408.425781 294.097656 410.113281 293.277344 411.332031 293.277344 C 412.621094 293.277344 414.238281 294.167969 414.238281 296.605469 C 414.238281 298.855469 412.808594 299.910156 411.355469 299.910156 Z M 411.355469 299.910156 "/>
<path fill-rule="nonzero" fill="rgb(0%, 0%, 0%)" fill-opacity="1" d="M 421.152344 300.800781 L 421.152344 298.925781 L 419.277344 298.925781 L 419.277344 300.824219 L 419.839844 300.824219 L 419.277344 303.730469 L 420.191406 303.730469 Z M 421.152344 300.800781 "/>
<path fill-rule="nonzero" fill="rgb(0%, 0%, 0%)" fill-opacity="1" d="M 438.257812 292.574219 C 439.734375 292.128906 441.140625 290.839844 441.140625 289.128906 C 441.140625 286.925781 439.171875 285.050781 436.710938 285.050781 C 434.132812 285.050781 432.257812 286.996094 432.257812 289.128906 C 432.257812 290.863281 433.664062 292.152344 435.117188 292.574219 C 433.242188 293.207031 431.953125 294.753906 431.953125 296.628906 C 431.953125 299.113281 434.015625 301.316406 436.6875 301.316406 C 439.429688 301.316406 441.445312 299.066406 441.445312 296.628906 C 441.445312 294.753906 440.15625 293.207031 438.257812 292.574219 Z M 436.710938 291.871094 C 434.859375 291.871094 433.851562 290.628906 433.851562 289.152344 C 433.851562 287.371094 435.117188 286.386719 436.6875 286.386719 C 438.351562 286.386719 439.523438 287.441406 439.523438 289.152344 C 439.523438 290.699219 438.445312 291.871094 436.710938 291.871094 Z M 436.710938 299.910156 C 435.140625 299.910156 433.78125 298.785156 433.78125 296.605469 C 433.78125 294.097656 435.46875 293.277344 436.6875 293.277344 C 437.976562 293.277344 439.59375 294.167969 439.59375 296.605469 C 439.59375 298.855469 438.164062 299.910156 436.710938 299.910156 Z M 436.710938 299.910156 "/>
<path fill-rule="nonzero" fill="rgb(0%, 0%, 0%)" fill-opacity="1" d="M 461.296875 294.332031 L 456.632812 289.691406 C 456.351562 289.410156 456.304688 289.363281 456.117188 289.363281 C 455.882812 289.363281 455.648438 289.574219 455.648438 289.832031 C 455.648438 289.996094 455.695312 290.042969 455.953125 290.300781 L 460.617188 294.988281 L 455.953125 299.675781 C 455.695312 299.933594 455.648438 299.980469 455.648438 300.144531 C 455.648438 300.402344 455.882812 300.613281 456.117188 300.613281 C 456.304688 300.613281 456.351562 300.566406 456.632812 300.285156 L 461.273438 295.644531 L 466.101562 300.472656 C 466.148438 300.496094 466.3125 300.613281 466.453125 300.613281 C 466.734375 300.613281 466.921875 300.402344 466.921875 300.144531 C 466.921875 300.097656 466.921875 300.003906 466.851562 299.886719 C 466.828125 299.839844 463.125 296.183594 461.953125 294.988281 L 466.21875 290.722656 C 466.335938 290.582031 466.6875 290.277344 466.804688 290.136719 C 466.828125 290.089844 466.921875 289.996094 466.921875 289.832031 C 466.921875 289.574219 466.734375 289.363281 466.453125 289.363281 C 466.265625 289.363281 466.171875 289.457031 465.914062 289.714844 Z M 461.296875 294.332031 "/>
<path fill-rule="nonzero" fill="rgb(0%, 0%, 0%)" fill-opacity="1" d="M 487.441406 292.574219 C 488.917969 292.128906 490.324219 290.839844 490.324219 289.128906 C 490.324219 286.925781 488.355469 285.050781 485.894531 285.050781 C 483.316406 285.050781 481.441406 286.996094 481.441406 289.128906 C 481.441406 290.863281 482.847656 292.152344 484.300781 292.574219 C 482.425781 293.207031 481.136719 294.753906 481.136719 296.628906 C 481.136719 299.113281 483.199219 301.316406 485.871094 301.316406 C 488.613281 301.316406 490.628906 299.066406 490.628906 296.628906 C 490.628906 294.753906 489.339844 293.207031 487.441406 292.574219 Z M 485.894531 291.871094 C 484.042969 291.871094 483.035156 290.628906 483.035156 289.152344 C 483.035156 287.371094 484.300781 286.386719 485.871094 286.386719 C 487.535156 286.386719 488.707031 287.441406 488.707031 289.152344 C 488.707031 290.699219 487.628906 291.871094 485.894531 291.871094 Z M 485.894531 299.910156 C 484.324219 299.910156 482.964844 298.785156 482.964844 296.605469 C 482.964844 294.097656 484.652344 293.277344 485.871094 293.277344 C 487.160156 293.277344 488.777344 294.167969 488.777344 296.605469 C 488.777344 298.855469 487.347656 299.910156 485.894531 299.910156 Z M 485.894531 299.910156 "/>
</svg>
