<?xml version="1.0" encoding="UTF-8"?>
<svg xmlns="http://www.w3.org/2000/svg" xmlns:xlink="http://www.w3.org/1999/xlink" width="552.736496" height="276.96151" viewBox="0 0 552.736496 276.96151">
<path fill="none" stroke-width="1.99255" stroke-linecap="butt" stroke-linejoin="round" stroke="rgb(19.607843%, 19.607843%, 19.607843%)" stroke-opacity="1" stroke-miterlimit="10" d="M -63.232437 -14.389812 L 63.231105 -14.389812 L 63.231105 14.391438 L -63.232437 14.391438 Z M -63.232437 -14.389812 " transform="matrix(1.5, 0, 0, -1.5, 103.813499, 30.552)"/>
<path fill-rule="nonzero" fill="rgb(0%, 0%, 0%)" fill-opacity="1" d="M 56.128906 26.832031 C 55.707031 26.738281 54.488281 26.292969 54.488281 25.191406 C 54.488281 23.527344 56.152344 23.503906 56.808594 23.503906 C 57.886719 23.503906 58.871094 23.761719 59.808594 24.675781 C 60.136719 24.980469 60.136719 25.003906 60.230469 25.003906 C 60.347656 25.003906 60.441406 24.933594 60.488281 24.652344 L 60.792969 22.964844 C 60.816406 22.800781 60.816406 22.753906 60.816406 22.707031 C 60.816406 22.542969 60.816406 22.519531 60.324219 22.285156 C 58.941406 21.605469 57.792969 21.488281 56.808594 21.488281 C 55.074219 21.488281 52.074219 21.910156 52.074219 25.542969 C 52.074219 26.925781 52.777344 27.816406 53.152344 28.191406 C 54.136719 29.222656 55.050781 29.410156 56.574219 29.761719 C 57.652344 30.019531 58.097656 30.113281 58.519531 30.488281 C 58.707031 30.699219 59.105469 31.097656 59.105469 31.824219 C 59.105469 33.652344 57.441406 33.722656 56.808594 33.722656 C 55.167969 33.722656 53.761719 33.066406 52.777344 32.175781 C 52.542969 31.941406 52.519531 31.941406 52.425781 31.941406 C 52.308594 31.941406 52.214844 32.011719 52.167969 32.292969 L 51.863281 33.980469 C 51.839844 34.144531 51.839844 34.191406 51.839844 34.238281 C 51.839844 34.660156 53.855469 35.363281 53.949219 35.386719 C 55.261719 35.808594 56.292969 35.832031 56.808594 35.832031 C 59.714844 35.832031 61.542969 34.542969 61.542969 31.519531 C 61.542969 29.339844 59.925781 27.722656 57.980469 27.277344 Z M 56.128906 26.832031 "/>
<path fill-rule="nonzero" fill="rgb(0%, 0%, 0%)" fill-opacity="1" d="M 64.746094 21.910156 C 64.113281 21.910156 63.808594 22.027344 63.808594 22.800781 L 63.808594 23.691406 C 63.808594 24.324219 63.996094 24.558594 64.722656 24.558594 L 65.730469 24.558594 C 66.667969 24.558594 66.667969 24.160156 66.667969 23.246094 C 66.667969 22.308594 66.667969 21.910156 65.730469 21.910156 Z M 66.527344 27.441406 C 66.527344 26.832031 66.386719 26.503906 65.589844 26.503906 L 64.863281 26.503906 C 64.183594 26.503906 63.949219 26.714844 63.949219 27.441406 L 63.949219 34.472656 C 63.949219 35.175781 64.160156 35.410156 64.863281 35.410156 L 65.589844 35.410156 C 66.339844 35.410156 66.527344 35.152344 66.527344 34.472656 Z M 66.527344 27.441406 "/>
<path fill-rule="nonzero" fill="rgb(0%, 0%, 0%)" fill-opacity="1" d="M 82.535156 32.667969 C 82.535156 31.589844 81.949219 30.910156 81.597656 30.582031 C 80.824219 29.902344 80.144531 29.785156 79.324219 29.621094 C 78.269531 29.433594 77.496094 29.269531 77.496094 28.519531 C 77.496094 27.722656 78.128906 27.558594 78.878906 27.558594 C 80.191406 27.558594 80.894531 28.050781 81.386719 28.472656 C 81.597656 28.660156 81.621094 28.660156 81.714844 28.660156 C 81.902344 28.660156 81.949219 28.496094 81.949219 28.425781 C 81.996094 28.261719 82.183594 27.183594 82.183594 27.066406 C 82.183594 26.761719 81.152344 26.480469 80.941406 26.410156 C 80.167969 26.199219 79.558594 26.175781 79.042969 26.175781 C 78.175781 26.175781 75.574219 26.175781 75.574219 28.964844 C 75.574219 29.902344 75.996094 30.488281 76.511719 30.957031 C 77.191406 31.589844 77.964844 31.707031 79.066406 31.941406 C 79.628906 32.035156 80.613281 32.199219 80.613281 33.066406 C 80.613281 33.980469 79.863281 34.097656 79.113281 34.097656 C 78.246094 34.097656 77.167969 33.863281 76.253906 32.761719 C 76.160156 32.667969 76.089844 32.621094 75.972656 32.621094 C 75.785156 32.621094 75.738281 32.785156 75.714844 32.902344 C 75.691406 33.183594 75.457031 34.285156 75.457031 34.472656 C 75.457031 34.824219 76.886719 35.269531 76.910156 35.292969 C 77.964844 35.621094 78.761719 35.621094 79.113281 35.621094 C 80.097656 35.621094 82.535156 35.550781 82.535156 32.667969 Z M 82.535156 32.667969 "/>
<path fill-rule="nonzero" fill="rgb(0%, 0%, 0%)" fill-opacity="1" d="M 91.324219 22.472656 C 91.417969 22.402344 91.535156 22.285156 91.535156 22.167969 C 91.535156 21.933594 91.324219 21.933594 90.996094 21.933594 L 89.402344 21.933594 C 89.027344 21.933594 89.003906 21.957031 88.839844 22.167969 L 87.152344 24.441406 C 86.988281 24.652344 86.988281 24.675781 86.988281 24.722656 C 86.988281 24.980469 87.199219 24.980469 87.503906 24.980469 L 88.230469 24.980469 Z M 91.324219 22.472656 "/>
<path fill-rule="nonzero" fill="rgb(0%, 0%, 0%)" fill-opacity="1" d="M 91.40625 31.261719 C 91.851562 31.261719 92.34375 31.238281 92.34375 30.347656 C 92.34375 27.863281 91.171875 26.175781 88.289062 26.175781 C 85.171875 26.175781 83.648438 27.933594 83.648438 30.886719 C 83.648438 34.074219 85.476562 35.621094 88.546875 35.621094 C 89.273438 35.621094 90.375 35.527344 91.664062 34.894531 C 92.085938 34.660156 92.226562 34.613281 92.226562 34.378906 C 92.226562 34.238281 92.179688 33.675781 92.15625 33.535156 C 92.0625 32.925781 92.0625 32.902344 91.875 32.902344 C 91.804688 32.902344 91.757812 32.902344 91.546875 33.089844 C 90.398438 34.097656 89.226562 34.214844 88.617188 34.214844 C 86.414062 34.214844 86.179688 32.503906 86.132812 31.261719 Z M 86.15625 30.230469 C 86.203125 29.035156 86.601562 27.582031 88.289062 27.582031 C 89.835938 27.582031 90.140625 28.707031 90.1875 30.230469 Z M 86.15625 30.230469 "/>
<path fill-rule="nonzero" fill="rgb(0%, 0%, 0%)" fill-opacity="1" d="M 109.78125 27.230469 C 109.78125 26.597656 109.640625 26.292969 108.84375 26.292969 L 108.117188 26.292969 C 107.390625 26.292969 107.179688 26.550781 107.179688 27.230469 L 107.179688 27.605469 C 106.335938 26.292969 105.1875 26.292969 104.859375 26.292969 C 101.109375 26.292969 100.804688 29.433594 100.804688 30.980469 C 100.804688 32.503906 101.109375 35.621094 104.71875 35.621094 C 105.75 35.621094 106.476562 35.246094 107.132812 34.472656 L 107.132812 38.246094 C 107.132812 38.878906 107.273438 39.183594 108.070312 39.183594 L 108.84375 39.183594 C 109.570312 39.183594 109.78125 38.925781 109.78125 38.246094 Z M 107.179688 33.183594 C 106.828125 33.652344 106.3125 34.214844 105.421875 34.214844 C 103.429688 34.214844 103.429688 31.753906 103.429688 31.003906 C 103.429688 30.230469 103.429688 27.816406 105.609375 27.816406 C 105.9375 27.816406 106.335938 27.886719 106.6875 28.261719 C 107.179688 28.753906 107.179688 29.105469 107.179688 29.339844 Z M 107.179688 33.183594 "/>
<path fill-rule="nonzero" fill="rgb(0%, 0%, 0%)" fill-opacity="1" d="M 120.683594 27.441406 C 120.683594 26.832031 120.566406 26.503906 119.769531 26.503906 L 118.996094 26.503906 C 118.246094 26.503906 118.058594 26.761719 118.058594 27.441406 L 118.058594 32.058594 C 118.058594 33.324219 117.378906 34.449219 115.996094 34.449219 C 114.894531 34.449219 114.777344 34.167969 114.777344 33.136719 L 114.777344 27.441406 C 114.777344 26.832031 114.660156 26.503906 113.863281 26.503906 L 113.089844 26.503906 C 112.386719 26.503906 112.152344 26.714844 112.152344 27.441406 L 112.152344 32.972656 C 112.152344 35.035156 113.277344 35.621094 115.292969 35.621094 C 115.808594 35.621094 117.191406 35.621094 118.105469 33.980469 L 118.105469 34.472656 C 118.105469 35.105469 118.246094 35.410156 119.042969 35.410156 L 119.769531 35.410156 C 120.496094 35.410156 120.683594 35.152344 120.683594 34.472656 Z M 120.683594 27.441406 "/>
<path fill-rule="nonzero" fill="rgb(0%, 0%, 0%)" fill-opacity="1" d="M 130.246094 31.261719 C 130.691406 31.261719 131.183594 31.238281 131.183594 30.347656 C 131.183594 27.863281 130.011719 26.175781 127.128906 26.175781 C 124.011719 26.175781 122.488281 27.933594 122.488281 30.886719 C 122.488281 34.074219 124.316406 35.621094 127.386719 35.621094 C 128.113281 35.621094 129.214844 35.527344 130.503906 34.894531 C 130.925781 34.660156 131.066406 34.613281 131.066406 34.378906 C 131.066406 34.238281 131.019531 33.675781 130.996094 33.535156 C 130.902344 32.925781 130.902344 32.902344 130.714844 32.902344 C 130.644531 32.902344 130.597656 32.902344 130.386719 33.089844 C 129.238281 34.097656 128.066406 34.214844 127.457031 34.214844 C 125.253906 34.214844 125.019531 32.503906 124.972656 31.261719 Z M 124.996094 30.230469 C 125.042969 29.035156 125.441406 27.582031 127.128906 27.582031 C 128.675781 27.582031 128.980469 28.707031 129.027344 30.230469 Z M 124.996094 30.230469 "/>
<path fill-rule="nonzero" fill="rgb(0%, 0%, 0%)" fill-opacity="1" d="M 143.183594 33.394531 C 143.183594 32.878906 143.160156 32.855469 142.644531 32.855469 L 141.167969 32.855469 C 140.652344 32.855469 140.628906 32.878906 140.628906 33.394531 L 140.628906 34.894531 C 140.628906 35.386719 140.652344 35.410156 141.167969 35.410156 L 142.644531 35.410156 C 143.160156 35.410156 143.183594 35.386719 143.183594 34.894531 Z M 143.183594 33.394531 "/>
<path fill-rule="nonzero" fill="rgb(0%, 0%, 0%)" fill-opacity="1" d="M 149.117188 33.394531 C 149.117188 32.878906 149.09375 32.855469 148.578125 32.855469 L 147.101562 32.855469 C 146.585938 32.855469 146.5625 32.878906 146.5625 33.394531 L 146.5625 34.894531 C 146.5625 35.386719 146.585938 35.410156 147.101562 35.410156 L 148.578125 35.410156 C 149.09375 35.410156 149.117188 35.386719 149.117188 34.894531 Z M 149.117188 33.394531 "/>
<path fill-rule="nonzero" fill="rgb(0%, 0%, 0%)" fill-opacity="1" d="M 155.054688 33.394531 C 155.054688 32.878906 155.03125 32.855469 154.515625 32.855469 L 153.039062 32.855469 C 152.523438 32.855469 152.5 32.878906 152.5 33.394531 L 152.5 34.894531 C 152.5 35.386719 152.523438 35.410156 153.039062 35.410156 L 154.515625 35.410156 C 155.03125 35.410156 155.054688 35.386719 155.054688 34.894531 Z M 155.054688 33.394531 "/>
<path fill="none" stroke-width="1.99255" stroke-linecap="butt" stroke-linejoin="round" stroke="rgb(19.607843%, 19.607843%, 19.607843%)" stroke-opacity="1" stroke-miterlimit="10" d="M -115.038498 -14.389812 L 115.039627 -14.389812 L 115.039627 14.391438 L -115.038498 14.391438 Z M -115.038498 -14.389812 " transform="matrix(1.5, 0, 0, -1.5, 371.213997, 30.552)"/>
<path fill-rule="nonzero" fill="rgb(0%, 0%, 0%)" fill-opacity="1" d="M 291.105469 29.363281 L 296.214844 29.363281 C 296.824219 29.363281 297.152344 29.222656 297.152344 28.449219 C 297.152344 27.746094 296.894531 27.535156 296.214844 27.535156 L 291.105469 27.535156 L 291.105469 23.949219 L 292.066406 23.949219 C 293.589844 23.949219 295.113281 23.996094 296.636719 23.996094 C 297.316406 23.996094 297.761719 23.996094 297.761719 23.082031 L 297.761719 22.917969 C 297.761719 22.285156 297.621094 21.980469 296.824219 21.980469 L 289.183594 21.980469 C 288.480469 21.980469 288.246094 22.191406 288.246094 22.917969 L 288.246094 34.472656 C 288.246094 35.175781 288.480469 35.410156 289.183594 35.410156 L 297.105469 35.410156 C 297.855469 35.410156 298.042969 35.152344 298.042969 34.472656 L 298.042969 34.214844 C 298.042969 33.277344 297.597656 33.277344 296.964844 33.277344 C 295.957031 33.277344 294.949219 33.300781 293.941406 33.300781 C 293.472656 33.300781 291.457031 33.324219 291.105469 33.347656 Z M 291.105469 29.363281 "/>
<path fill-rule="nonzero" fill="rgb(0%, 0%, 0%)" fill-opacity="1" d="M 308.65625 29.105469 C 308.65625 27.089844 307.8125 26.292969 305.820312 26.292969 C 303.78125 26.292969 302.914062 27.769531 302.65625 28.308594 L 302.65625 27.324219 C 302.65625 26.714844 302.515625 26.386719 301.71875 26.386719 L 301.0625 26.386719 C 300.359375 26.386719 300.125 26.597656 300.125 27.324219 L 300.125 34.472656 C 300.125 35.175781 300.335938 35.410156 301.0625 35.410156 L 301.835938 35.410156 C 302.5625 35.410156 302.75 35.152344 302.75 34.472656 L 302.75 30.183594 C 302.75 28.496094 303.898438 27.699219 304.90625 27.699219 C 305.820312 27.699219 306.03125 28.144531 306.03125 29.128906 L 306.03125 34.472656 C 306.03125 35.105469 306.171875 35.410156 306.96875 35.410156 L 307.742188 35.410156 C 308.46875 35.410156 308.65625 35.152344 308.65625 34.472656 Z M 308.65625 29.105469 "/>
<path fill-rule="nonzero" fill="rgb(0%, 0%, 0%)" fill-opacity="1" d="M 314.097656 27.910156 L 315.832031 27.910156 C 316.042969 27.910156 316.746094 27.910156 316.746094 27.207031 C 316.746094 26.503906 316.042969 26.503906 315.832031 26.503906 L 314.097656 26.503906 L 314.097656 24.910156 C 314.097656 24.277344 313.957031 23.972656 313.160156 23.972656 L 312.550781 23.972656 C 311.847656 23.972656 311.613281 24.183594 311.613281 24.910156 L 311.613281 26.503906 L 311.167969 26.503906 C 310.957031 26.503906 310.253906 26.503906 310.253906 27.207031 C 310.253906 27.910156 310.933594 27.910156 311.167969 27.910156 L 311.566406 27.910156 L 311.566406 32.832031 C 311.566406 34.777344 312.269531 35.621094 313.605469 35.621094 C 313.769531 35.621094 314.636719 35.621094 315.644531 35.316406 C 315.972656 35.222656 317.097656 34.871094 317.097656 34.496094 C 317.097656 34.449219 317.074219 34.308594 316.957031 33.886719 C 316.839844 33.511719 316.816406 33.394531 316.628906 33.394531 C 316.535156 33.394531 316.511719 33.417969 316.394531 33.535156 C 316.183594 33.675781 315.667969 34.097656 314.847656 34.097656 C 314.378906 34.097656 314.097656 33.769531 314.097656 32.503906 Z M 314.097656 27.910156 "/>
<path fill-rule="nonzero" fill="rgb(0%, 0%, 0%)" fill-opacity="1" d="M 327.761719 31.027344 C 327.761719 27.863281 326.214844 26.175781 323.050781 26.175781 C 319.816406 26.175781 318.316406 27.910156 318.316406 31.027344 C 318.316406 34.214844 319.980469 35.621094 323.027344 35.621094 C 326.074219 35.621094 327.761719 34.214844 327.761719 31.027344 Z M 323.050781 34.097656 C 320.941406 34.097656 320.941406 32.363281 320.941406 30.816406 C 320.941406 29.316406 320.941406 27.582031 323.027344 27.582031 C 325.136719 27.582031 325.136719 29.292969 325.136719 30.816406 C 325.136719 32.339844 325.136719 34.097656 323.050781 34.097656 Z M 323.050781 34.097656 "/>
<path fill-rule="nonzero" fill="rgb(0%, 0%, 0%)" fill-opacity="1" d="M 338.097656 29.105469 C 338.097656 27.089844 337.253906 26.292969 335.261719 26.292969 C 333.222656 26.292969 332.355469 27.769531 332.097656 28.308594 L 332.097656 27.324219 C 332.097656 26.714844 331.957031 26.386719 331.160156 26.386719 L 330.503906 26.386719 C 329.800781 26.386719 329.566406 26.597656 329.566406 27.324219 L 329.566406 34.472656 C 329.566406 35.175781 329.777344 35.410156 330.503906 35.410156 L 331.277344 35.410156 C 332.003906 35.410156 332.191406 35.152344 332.191406 34.472656 L 332.191406 30.183594 C 332.191406 28.496094 333.339844 27.699219 334.347656 27.699219 C 335.261719 27.699219 335.472656 28.144531 335.472656 29.128906 L 335.472656 34.472656 C 335.472656 35.105469 335.613281 35.410156 336.410156 35.410156 L 337.183594 35.410156 C 337.910156 35.410156 338.097656 35.152344 338.097656 34.472656 Z M 338.097656 29.105469 "/>
<path fill-rule="nonzero" fill="rgb(0%, 0%, 0%)" fill-opacity="1" d="M 348.175781 34.449219 C 348.175781 34.214844 348.105469 33.324219 348.058594 33.089844 C 348.058594 33.019531 348.011719 32.832031 347.824219 32.832031 C 347.753906 32.832031 347.707031 32.832031 347.519531 33.019531 C 347.191406 33.300781 346.277344 34.097656 344.683594 34.097656 C 342.644531 34.097656 342.644531 32.152344 342.644531 30.910156 C 342.644531 29.339844 342.761719 27.699219 344.730469 27.699219 C 345.996094 27.699219 346.511719 28.003906 347.214844 28.589844 C 347.449219 28.800781 347.496094 28.800781 347.566406 28.800781 C 347.753906 28.800781 347.800781 28.636719 347.824219 28.542969 C 347.871094 28.402344 348.058594 27.300781 348.058594 27.207031 C 348.058594 27.042969 347.917969 26.949219 347.589844 26.808594 C 346.652344 26.386719 346.066406 26.175781 344.707031 26.175781 C 341.824219 26.175781 340.019531 27.535156 340.019531 30.933594 C 340.019531 34.167969 341.683594 35.621094 344.613281 35.621094 C 345.152344 35.621094 346.300781 35.597656 347.613281 34.941406 C 348.152344 34.660156 348.175781 34.636719 348.175781 34.449219 Z M 348.175781 34.449219 "/>
<path fill-rule="nonzero" fill="rgb(0%, 0%, 0%)" fill-opacity="1" d="M 357.160156 31.261719 C 357.605469 31.261719 358.097656 31.238281 358.097656 30.347656 C 358.097656 27.863281 356.925781 26.175781 354.042969 26.175781 C 350.925781 26.175781 349.402344 27.933594 349.402344 30.886719 C 349.402344 34.074219 351.230469 35.621094 354.300781 35.621094 C 355.027344 35.621094 356.128906 35.527344 357.417969 34.894531 C 357.839844 34.660156 357.980469 34.613281 357.980469 34.378906 C 357.980469 34.238281 357.933594 33.675781 357.910156 33.535156 C 357.816406 32.925781 357.816406 32.902344 357.628906 32.902344 C 357.558594 32.902344 357.511719 32.902344 357.300781 33.089844 C 356.152344 34.097656 354.980469 34.214844 354.371094 34.214844 C 352.167969 34.214844 351.933594 32.503906 351.886719 31.261719 Z M 351.910156 30.230469 C 351.957031 29.035156 352.355469 27.582031 354.042969 27.582031 C 355.589844 27.582031 355.894531 28.707031 355.941406 30.230469 Z M 351.910156 30.230469 "/>
<path fill-rule="nonzero" fill="rgb(0%, 0%, 0%)" fill-opacity="1" d="M 366.40625 32.667969 C 366.40625 31.589844 365.820312 30.910156 365.46875 30.582031 C 364.695312 29.902344 364.015625 29.785156 363.195312 29.621094 C 362.140625 29.433594 361.367188 29.269531 361.367188 28.519531 C 361.367188 27.722656 362 27.558594 362.75 27.558594 C 364.0625 27.558594 364.765625 28.050781 365.257812 28.472656 C 365.46875 28.660156 365.492188 28.660156 365.585938 28.660156 C 365.773438 28.660156 365.820312 28.496094 365.820312 28.425781 C 365.867188 28.261719 366.054688 27.183594 366.054688 27.066406 C 366.054688 26.761719 365.023438 26.480469 364.8125 26.410156 C 364.039062 26.199219 363.429688 26.175781 362.914062 26.175781 C 362.046875 26.175781 359.445312 26.175781 359.445312 28.964844 C 359.445312 29.902344 359.867188 30.488281 360.382812 30.957031 C 361.0625 31.589844 361.835938 31.707031 362.9375 31.941406 C 363.5 32.035156 364.484375 32.199219 364.484375 33.066406 C 364.484375 33.980469 363.734375 34.097656 362.984375 34.097656 C 362.117188 34.097656 361.039062 33.863281 360.125 32.761719 C 360.03125 32.667969 359.960938 32.621094 359.84375 32.621094 C 359.65625 32.621094 359.609375 32.785156 359.585938 32.902344 C 359.5625 33.183594 359.328125 34.285156 359.328125 34.472656 C 359.328125 34.824219 360.757812 35.269531 360.78125 35.292969 C 361.835938 35.621094 362.632812 35.621094 362.984375 35.621094 C 363.96875 35.621094 366.40625 35.550781 366.40625 32.667969 Z M 366.40625 32.667969 "/>
<path fill-rule="nonzero" fill="rgb(0%, 0%, 0%)" fill-opacity="1" d="M 381.730469 32.667969 C 381.730469 31.589844 381.144531 30.910156 380.792969 30.582031 C 380.019531 29.902344 379.339844 29.785156 378.519531 29.621094 C 377.464844 29.433594 376.691406 29.269531 376.691406 28.519531 C 376.691406 27.722656 377.324219 27.558594 378.074219 27.558594 C 379.386719 27.558594 380.089844 28.050781 380.582031 28.472656 C 380.792969 28.660156 380.816406 28.660156 380.910156 28.660156 C 381.097656 28.660156 381.144531 28.496094 381.144531 28.425781 C 381.191406 28.261719 381.378906 27.183594 381.378906 27.066406 C 381.378906 26.761719 380.347656 26.480469 380.136719 26.410156 C 379.363281 26.199219 378.753906 26.175781 378.238281 26.175781 C 377.371094 26.175781 374.769531 26.175781 374.769531 28.964844 C 374.769531 29.902344 375.191406 30.488281 375.707031 30.957031 C 376.386719 31.589844 377.160156 31.707031 378.261719 31.941406 C 378.824219 32.035156 379.808594 32.199219 379.808594 33.066406 C 379.808594 33.980469 379.058594 34.097656 378.308594 34.097656 C 377.441406 34.097656 376.363281 33.863281 375.449219 32.761719 C 375.355469 32.667969 375.285156 32.621094 375.167969 32.621094 C 374.980469 32.621094 374.933594 32.785156 374.910156 32.902344 C 374.886719 33.183594 374.652344 34.285156 374.652344 34.472656 C 374.652344 34.824219 376.082031 35.269531 376.105469 35.292969 C 377.160156 35.621094 377.957031 35.621094 378.308594 35.621094 C 379.292969 35.621094 381.730469 35.550781 381.730469 32.667969 Z M 381.730469 32.667969 "/>
<path fill-rule="nonzero" fill="rgb(0%, 0%, 0%)" fill-opacity="1" d="M 390.519531 22.472656 C 390.613281 22.402344 390.730469 22.285156 390.730469 22.167969 C 390.730469 21.933594 390.519531 21.933594 390.191406 21.933594 L 388.597656 21.933594 C 388.222656 21.933594 388.199219 21.957031 388.035156 22.167969 L 386.347656 24.441406 C 386.183594 24.652344 386.183594 24.675781 386.183594 24.722656 C 386.183594 24.980469 386.394531 24.980469 386.699219 24.980469 L 387.425781 24.980469 Z M 390.519531 22.472656 "/>
<path fill-rule="nonzero" fill="rgb(0%, 0%, 0%)" fill-opacity="1" d="M 390.601562 31.261719 C 391.046875 31.261719 391.539062 31.238281 391.539062 30.347656 C 391.539062 27.863281 390.367188 26.175781 387.484375 26.175781 C 384.367188 26.175781 382.84375 27.933594 382.84375 30.886719 C 382.84375 34.074219 384.671875 35.621094 387.742188 35.621094 C 388.46875 35.621094 389.570312 35.527344 390.859375 34.894531 C 391.28125 34.660156 391.421875 34.613281 391.421875 34.378906 C 391.421875 34.238281 391.375 33.675781 391.351562 33.535156 C 391.257812 32.925781 391.257812 32.902344 391.070312 32.902344 C 391 32.902344 390.953125 32.902344 390.742188 33.089844 C 389.59375 34.097656 388.421875 34.214844 387.8125 34.214844 C 385.609375 34.214844 385.375 32.503906 385.328125 31.261719 Z M 385.351562 30.230469 C 385.398438 29.035156 385.796875 27.582031 387.484375 27.582031 C 389.03125 27.582031 389.335938 28.707031 389.382812 30.230469 Z M 385.351562 30.230469 "/>
<path fill-rule="nonzero" fill="rgb(0%, 0%, 0%)" fill-opacity="1" d="M 408.976562 27.230469 C 408.976562 26.597656 408.835938 26.292969 408.039062 26.292969 L 407.3125 26.292969 C 406.585938 26.292969 406.375 26.550781 406.375 27.230469 L 406.375 27.605469 C 405.53125 26.292969 404.382812 26.292969 404.054688 26.292969 C 400.304688 26.292969 400 29.433594 400 30.980469 C 400 32.503906 400.304688 35.621094 403.914062 35.621094 C 404.945312 35.621094 405.671875 35.246094 406.328125 34.472656 L 406.328125 38.246094 C 406.328125 38.878906 406.46875 39.183594 407.265625 39.183594 L 408.039062 39.183594 C 408.765625 39.183594 408.976562 38.925781 408.976562 38.246094 Z M 406.375 33.183594 C 406.023438 33.652344 405.507812 34.214844 404.617188 34.214844 C 402.625 34.214844 402.625 31.753906 402.625 31.003906 C 402.625 30.230469 402.625 27.816406 404.804688 27.816406 C 405.132812 27.816406 405.53125 27.886719 405.882812 28.261719 C 406.375 28.753906 406.375 29.105469 406.375 29.339844 Z M 406.375 33.183594 "/>
<path fill-rule="nonzero" fill="rgb(0%, 0%, 0%)" fill-opacity="1" d="M 419.878906 27.441406 C 419.878906 26.832031 419.761719 26.503906 418.964844 26.503906 L 418.191406 26.503906 C 417.441406 26.503906 417.253906 26.761719 417.253906 27.441406 L 417.253906 32.058594 C 417.253906 33.324219 416.574219 34.449219 415.191406 34.449219 C 414.089844 34.449219 413.972656 34.167969 413.972656 33.136719 L 413.972656 27.441406 C 413.972656 26.832031 413.855469 26.503906 413.058594 26.503906 L 412.285156 26.503906 C 411.582031 26.503906 411.347656 26.714844 411.347656 27.441406 L 411.347656 32.972656 C 411.347656 35.035156 412.472656 35.621094 414.488281 35.621094 C 415.003906 35.621094 416.386719 35.621094 417.300781 33.980469 L 417.300781 34.472656 C 417.300781 35.105469 417.441406 35.410156 418.238281 35.410156 L 418.964844 35.410156 C 419.691406 35.410156 419.878906 35.152344 419.878906 34.472656 Z M 419.878906 27.441406 "/>
<path fill-rule="nonzero" fill="rgb(0%, 0%, 0%)" fill-opacity="1" d="M 429.441406 31.261719 C 429.886719 31.261719 430.378906 31.238281 430.378906 30.347656 C 430.378906 27.863281 429.207031 26.175781 426.324219 26.175781 C 423.207031 26.175781 421.683594 27.933594 421.683594 30.886719 C 421.683594 34.074219 423.511719 35.621094 426.582031 35.621094 C 427.308594 35.621094 428.410156 35.527344 429.699219 34.894531 C 430.121094 34.660156 430.261719 34.613281 430.261719 34.378906 C 430.261719 34.238281 430.214844 33.675781 430.191406 33.535156 C 430.097656 32.925781 430.097656 32.902344 429.910156 32.902344 C 429.839844 32.902344 429.792969 32.902344 429.582031 33.089844 C 428.433594 34.097656 427.261719 34.214844 426.652344 34.214844 C 424.449219 34.214844 424.214844 32.503906 424.167969 31.261719 Z M 424.191406 30.230469 C 424.238281 29.035156 424.636719 27.582031 426.324219 27.582031 C 427.871094 27.582031 428.175781 28.707031 428.222656 30.230469 Z M 424.191406 30.230469 "/>
<path fill-rule="nonzero" fill="rgb(0%, 0%, 0%)" fill-opacity="1" d="M 442.378906 33.394531 C 442.378906 32.878906 442.355469 32.855469 441.839844 32.855469 L 440.363281 32.855469 C 439.847656 32.855469 439.824219 32.878906 439.824219 33.394531 L 439.824219 34.894531 C 439.824219 35.386719 439.847656 35.410156 440.363281 35.410156 L 441.839844 35.410156 C 442.355469 35.410156 442.378906 35.386719 442.378906 34.894531 Z M 442.378906 33.394531 "/>
<path fill-rule="nonzero" fill="rgb(0%, 0%, 0%)" fill-opacity="1" d="M 448.3125 33.394531 C 448.3125 32.878906 448.289062 32.855469 447.773438 32.855469 L 446.296875 32.855469 C 445.78125 32.855469 445.757812 32.878906 445.757812 33.394531 L 445.757812 34.894531 C 445.757812 35.386719 445.78125 35.410156 446.296875 35.410156 L 447.773438 35.410156 C 448.289062 35.410156 448.3125 35.386719 448.3125 34.894531 Z M 448.3125 33.394531 "/>
<path fill-rule="nonzero" fill="rgb(0%, 0%, 0%)" fill-opacity="1" d="M 454.25 33.394531 C 454.25 32.878906 454.226562 32.855469 453.710938 32.855469 L 452.234375 32.855469 C 451.71875 32.855469 451.695312 32.878906 451.695312 33.394531 L 451.695312 34.894531 C 451.695312 35.386719 451.71875 35.410156 452.234375 35.410156 L 453.710938 35.410156 C 454.226562 35.410156 454.25 35.386719 454.25 34.894531 Z M 454.25 33.394531 "/>
<path fill="none" stroke-width="0.99628" stroke-linecap="butt" stroke-linejoin="round" stroke="rgb(19.607843%, 19.607843%, 19.607843%)" stroke-opacity="1" stroke-miterlimit="10" d="M -63.232437 -14.392063 L 63.231105 -14.392063 L 63.231105 14.389187 L -63.232437 14.389187 Z M -63.232437 -14.392063 " transform="matrix(1.5, 0, 0, -1.5, 103.813499, 74.470499)"/>
<path fill-rule="nonzero" fill="rgb(0%, 0%, 0%)" fill-opacity="1" d="M 83.242188 78.804688 L 83.242188 80.023438 L 90.835938 80.023438 L 90.835938 78.710938 L 87.367188 78.710938 C 87.132812 78.710938 86.898438 78.710938 86.664062 78.710938 L 84.601562 78.710938 C 85.09375 78.195312 86.898438 76.414062 88.164062 75.289062 C 89.617188 74.023438 90.835938 72.804688 90.835938 71.023438 C 90.835938 68.867188 89.335938 66.898438 86.757812 66.898438 C 84.671875 66.898438 83.59375 68.257812 83.078125 70.085938 C 83.710938 70.859375 83.710938 70.882812 83.875 71.117188 C 84.367188 69.054688 85.070312 68.09375 86.523438 68.09375 C 88.1875 68.09375 89.265625 69.40625 89.265625 71.070312 C 89.265625 72.078125 88.867188 73.203125 87.554688 74.492188 Z M 83.242188 78.804688 "/>
<path fill-rule="nonzero" fill="rgb(0%, 0%, 0%)" fill-opacity="1" d="M 106.972656 74.632812 L 103.105469 70.765625 C 102.871094 70.53125 102.824219 70.484375 102.660156 70.484375 C 102.472656 70.484375 102.285156 70.648438 102.285156 70.882812 C 102.285156 71 102.332031 71.046875 102.542969 71.257812 L 106.410156 75.171875 L 102.542969 79.0625 C 102.332031 79.273438 102.285156 79.320312 102.285156 79.460938 C 102.285156 79.671875 102.472656 79.859375 102.660156 79.859375 C 102.824219 79.859375 102.871094 79.8125 103.105469 79.578125 L 106.972656 75.710938 L 110.980469 79.742188 C 111.027344 79.742188 111.167969 79.859375 111.285156 79.859375 C 111.519531 79.859375 111.660156 79.671875 111.660156 79.460938 C 111.660156 79.414062 111.660156 79.34375 111.613281 79.25 C 111.589844 79.203125 108.496094 76.15625 107.535156 75.171875 L 111.074219 71.609375 C 111.191406 71.492188 111.472656 71.234375 111.566406 71.117188 C 111.589844 71.09375 111.660156 71 111.660156 70.882812 C 111.660156 70.648438 111.519531 70.484375 111.285156 70.484375 C 111.121094 70.484375 111.050781 70.554688 110.839844 70.765625 Z M 106.972656 74.632812 "/>
<path fill-rule="nonzero" fill="rgb(0%, 0%, 0%)" fill-opacity="1" d="M 129.273438 76.671875 L 131.148438 76.671875 L 131.148438 75.523438 L 129.273438 75.523438 L 129.273438 67.296875 L 127.515625 67.296875 L 122.6875 75.523438 L 122.6875 76.671875 L 127.726562 76.671875 L 127.726562 80.023438 L 129.273438 80.023438 Z M 124.1875 75.523438 C 124.75 74.515625 125.523438 73.273438 126.320312 71.726562 C 126.554688 71.28125 127.820312 68.890625 127.820312 68.164062 L 127.820312 75.523438 Z M 124.1875 75.523438 "/>
<path fill="none" stroke-width="0.99628" stroke-linecap="butt" stroke-linejoin="round" stroke="rgb(19.607843%, 19.607843%, 19.607843%)" stroke-opacity="1" stroke-miterlimit="10" d="M -115.038498 -14.392063 L 115.039627 -14.392063 L 115.039627 14.389187 L -115.038498 14.389187 Z M -115.038498 -14.392063 " transform="matrix(1.5, 0, 0, -1.5, 371.213997, 74.470499)"/>
<path fill-rule="nonzero" fill="rgb(0%, 0%, 0%)" fill-opacity="1" d="M 289.703125 76.269531 L 291.578125 76.269531 L 291.578125 75.121094 L 289.703125 75.121094 L 289.703125 66.894531 L 287.945312 66.894531 L 283.117188 75.121094 L 283.117188 76.269531 L 288.15625 76.269531 L 288.15625 79.621094 L 289.703125 79.621094 Z M 284.617188 75.121094 C 285.179688 74.113281 285.953125 72.871094 286.75 71.324219 C 286.984375 70.878906 288.25 68.488281 288.25 67.761719 L 288.25 75.121094 Z M 284.617188 75.121094 "/>
<path fill-rule="nonzero" fill="rgb(0%, 0%, 0%)" fill-opacity="1" d="M 308.257812 74.230469 L 304.390625 70.363281 C 304.15625 70.128906 304.109375 70.082031 303.945312 70.082031 C 303.757812 70.082031 303.570312 70.246094 303.570312 70.480469 C 303.570312 70.597656 303.617188 70.644531 303.828125 70.855469 L 307.695312 74.769531 L 303.828125 78.660156 C 303.617188 78.871094 303.570312 78.917969 303.570312 79.058594 C 303.570312 79.269531 303.757812 79.457031 303.945312 79.457031 C 304.109375 79.457031 304.15625 79.410156 304.390625 79.175781 L 308.257812 75.308594 L 312.265625 79.339844 C 312.3125 79.339844 312.453125 79.457031 312.570312 79.457031 C 312.804688 79.457031 312.945312 79.269531 312.945312 79.058594 C 312.945312 79.011719 312.945312 78.941406 312.898438 78.847656 C 312.875 78.800781 309.78125 75.753906 308.820312 74.769531 L 312.359375 71.207031 C 312.476562 71.089844 312.757812 70.832031 312.851562 70.714844 C 312.875 70.691406 312.945312 70.597656 312.945312 70.480469 C 312.945312 70.246094 312.804688 70.082031 312.570312 70.082031 C 312.40625 70.082031 312.335938 70.152344 312.125 70.363281 Z M 308.257812 74.230469 "/>
<path fill-rule="nonzero" fill="rgb(0%, 0%, 0%)" fill-opacity="1" d="M 325.375 78.402344 L 325.375 79.621094 L 332.96875 79.621094 L 332.96875 78.308594 L 329.5 78.308594 C 329.265625 78.308594 329.03125 78.308594 328.796875 78.308594 L 326.734375 78.308594 C 327.226562 77.792969 329.03125 76.011719 330.296875 74.886719 C 331.75 73.621094 332.96875 72.402344 332.96875 70.621094 C 332.96875 68.464844 331.46875 66.496094 328.890625 66.496094 C 326.804688 66.496094 325.726562 67.855469 325.210938 69.683594 C 325.84375 70.457031 325.84375 70.480469 326.007812 70.714844 C 326.5 68.652344 327.203125 67.691406 328.65625 67.691406 C 330.320312 67.691406 331.398438 69.003906 331.398438 70.667969 C 331.398438 71.675781 331 72.800781 329.6875 74.089844 Z M 325.375 78.402344 "/>
<path fill-rule="nonzero" fill="rgb(0%, 0%, 0%)" fill-opacity="1" d="M 337.347656 79.597656 L 337.347656 78.050781 L 335.777344 78.050781 L 335.777344 79.621094 L 336.246094 79.621094 L 335.777344 82.058594 L 336.550781 82.058594 Z M 337.347656 79.597656 "/>
<path fill-rule="nonzero" fill="rgb(0%, 0%, 0%)" fill-opacity="1" d="M 352.644531 76.269531 L 354.519531 76.269531 L 354.519531 75.121094 L 352.644531 75.121094 L 352.644531 66.894531 L 350.886719 66.894531 L 346.058594 75.121094 L 346.058594 76.269531 L 351.097656 76.269531 L 351.097656 79.621094 L 352.644531 79.621094 Z M 347.558594 75.121094 C 348.121094 74.113281 348.894531 72.871094 349.691406 71.324219 C 349.925781 70.878906 351.191406 68.488281 351.191406 67.761719 L 351.191406 75.121094 Z M 347.558594 75.121094 "/>
<path fill-rule="nonzero" fill="rgb(0%, 0%, 0%)" fill-opacity="1" d="M 371.207031 74.230469 L 367.339844 70.363281 C 367.105469 70.128906 367.058594 70.082031 366.894531 70.082031 C 366.707031 70.082031 366.519531 70.246094 366.519531 70.480469 C 366.519531 70.597656 366.566406 70.644531 366.777344 70.855469 L 370.644531 74.769531 L 366.777344 78.660156 C 366.566406 78.871094 366.519531 78.917969 366.519531 79.058594 C 366.519531 79.269531 366.707031 79.457031 366.894531 79.457031 C 367.058594 79.457031 367.105469 79.410156 367.339844 79.175781 L 371.207031 75.308594 L 375.214844 79.339844 C 375.261719 79.339844 375.402344 79.457031 375.519531 79.457031 C 375.753906 79.457031 375.894531 79.269531 375.894531 79.058594 C 375.894531 79.011719 375.894531 78.941406 375.847656 78.847656 C 375.824219 78.800781 372.730469 75.753906 371.769531 74.769531 L 375.308594 71.207031 C 375.425781 71.089844 375.707031 70.832031 375.800781 70.714844 C 375.824219 70.691406 375.894531 70.597656 375.894531 70.480469 C 375.894531 70.246094 375.753906 70.082031 375.519531 70.082031 C 375.355469 70.082031 375.285156 70.152344 375.074219 70.363281 Z M 371.207031 74.230469 "/>
<path fill-rule="nonzero" fill="rgb(0%, 0%, 0%)" fill-opacity="1" d="M 394.46875 76.269531 L 396.34375 76.269531 L 396.34375 75.121094 L 394.46875 75.121094 L 394.46875 66.894531 L 392.710938 66.894531 L 387.882812 75.121094 L 387.882812 76.269531 L 392.921875 76.269531 L 392.921875 79.621094 L 394.46875 79.621094 Z M 389.382812 75.121094 C 389.945312 74.113281 390.71875 72.871094 391.515625 71.324219 C 391.75 70.878906 393.015625 68.488281 393.015625 67.761719 L 393.015625 75.121094 Z M 389.382812 75.121094 "/>
<path fill-rule="nonzero" fill="rgb(0%, 0%, 0%)" fill-opacity="1" d="M 400.300781 79.597656 L 400.300781 78.050781 L 398.730469 78.050781 L 398.730469 79.621094 L 399.199219 79.621094 L 398.730469 82.058594 L 399.503906 82.058594 Z M 400.300781 79.597656 "/>
<path fill-rule="nonzero" fill="rgb(0%, 0%, 0%)" fill-opacity="1" d="M 409.457031 78.402344 L 409.457031 79.621094 L 417.050781 79.621094 L 417.050781 78.308594 L 413.582031 78.308594 C 413.347656 78.308594 413.113281 78.308594 412.878906 78.308594 L 410.816406 78.308594 C 411.308594 77.792969 413.113281 76.011719 414.378906 74.886719 C 415.832031 73.621094 417.050781 72.402344 417.050781 70.621094 C 417.050781 68.464844 415.550781 66.496094 412.972656 66.496094 C 410.886719 66.496094 409.808594 67.855469 409.292969 69.683594 C 409.925781 70.457031 409.925781 70.480469 410.089844 70.714844 C 410.582031 68.652344 411.285156 67.691406 412.738281 67.691406 C 414.402344 67.691406 415.480469 69.003906 415.480469 70.667969 C 415.480469 71.675781 415.082031 72.800781 413.769531 74.089844 Z M 409.457031 78.402344 "/>
<path fill-rule="nonzero" fill="rgb(0%, 0%, 0%)" fill-opacity="1" d="M 434.15625 74.230469 L 430.289062 70.363281 C 430.054688 70.128906 430.007812 70.082031 429.84375 70.082031 C 429.65625 70.082031 429.46875 70.246094 429.46875 70.480469 C 429.46875 70.597656 429.515625 70.644531 429.726562 70.855469 L 433.59375 74.769531 L 429.726562 78.660156 C 429.515625 78.871094 429.46875 78.917969 429.46875 79.058594 C 429.46875 79.269531 429.65625 79.457031 429.84375 79.457031 C 430.007812 79.457031 430.054688 79.410156 430.289062 79.175781 L 434.15625 75.308594 L 438.164062 79.339844 C 438.210938 79.339844 438.351562 79.457031 438.46875 79.457031 C 438.703125 79.457031 438.84375 79.269531 438.84375 79.058594 C 438.84375 79.011719 438.84375 78.941406 438.796875 78.847656 C 438.773438 78.800781 435.679688 75.753906 434.71875 74.769531 L 438.257812 71.207031 C 438.375 71.089844 438.65625 70.832031 438.75 70.714844 C 438.773438 70.691406 438.84375 70.597656 438.84375 70.480469 C 438.84375 70.246094 438.703125 70.082031 438.46875 70.082031 C 438.304688 70.082031 438.234375 70.152344 438.023438 70.363281 Z M 434.15625 74.230469 "/>
<path fill-rule="nonzero" fill="rgb(0%, 0%, 0%)" fill-opacity="1" d="M 456.386719 72.753906 C 457.605469 72.378906 458.777344 71.300781 458.777344 69.871094 C 458.777344 68.042969 457.136719 66.496094 455.074219 66.496094 C 452.941406 66.496094 451.371094 68.089844 451.371094 69.871094 C 451.371094 71.324219 452.542969 72.402344 453.761719 72.753906 C 452.191406 73.269531 451.113281 74.558594 451.113281 76.128906 C 451.113281 78.191406 452.847656 80.019531 455.050781 80.019531 C 457.347656 80.019531 459.011719 78.167969 459.011719 76.128906 C 459.011719 74.558594 457.957031 73.269531 456.386719 72.753906 Z M 455.074219 72.167969 C 453.550781 72.167969 452.707031 71.136719 452.707031 69.894531 C 452.707031 68.417969 453.761719 67.597656 455.050781 67.597656 C 456.457031 67.597656 457.417969 68.464844 457.417969 69.894531 C 457.417969 71.183594 456.527344 72.167969 455.074219 72.167969 Z M 455.074219 78.871094 C 453.785156 78.871094 452.636719 77.933594 452.636719 76.105469 C 452.636719 74.019531 454.042969 73.316406 455.050781 73.316406 C 456.152344 73.316406 457.488281 74.089844 457.488281 76.105469 C 457.488281 77.980469 456.292969 78.871094 455.074219 78.871094 Z M 455.074219 78.871094 "/>
<path fill="none" stroke-width="0.99628" stroke-linecap="butt" stroke-linejoin="round" stroke="rgb(19.607843%, 19.607843%, 19.607843%)" stroke-opacity="1" stroke-miterlimit="10" d="M -63.232437 -14.392311 L 63.231105 -14.392311 L 63.231105 14.388939 L -63.232437 14.388939 Z M -63.232437 -14.392311 " transform="matrix(1.5, 0, 0, -1.5, 103.813499, 117.642002)"/>
<path fill-rule="nonzero" fill="rgb(0%, 0%, 0%)" fill-opacity="1" d="M 80.675781 113.257812 C 81.167969 111.992188 82.339844 111.171875 83.652344 111.171875 C 84.636719 111.171875 85.574219 111.734375 85.574219 113 C 85.574219 114.289062 84.683594 115.367188 83.628906 115.601562 C 83.535156 115.625 82.292969 115.71875 82.105469 115.742188 L 82.105469 116.890625 L 83.488281 116.890625 C 85.480469 116.890625 85.972656 118.601562 85.972656 119.679688 C 85.972656 121.25 85.011719 122.445312 83.628906 122.445312 C 82.386719 122.445312 80.839844 121.8125 79.949219 120.40625 L 79.738281 121.554688 C 81.003906 123.289062 82.714844 123.59375 83.652344 123.59375 C 85.925781 123.59375 87.636719 121.765625 87.636719 119.703125 C 87.636719 118.203125 86.652344 116.890625 85.011719 116.328125 C 86.371094 115.578125 87.121094 114.265625 87.121094 113 C 87.121094 111.3125 85.550781 110.070312 83.652344 110.070312 C 82.105469 110.070312 80.722656 110.914062 79.996094 112.203125 Z M 80.675781 113.257812 "/>
<path fill-rule="nonzero" fill="rgb(0%, 0%, 0%)" fill-opacity="1" d="M 103.804688 117.804688 L 99.9375 113.9375 C 99.703125 113.703125 99.65625 113.65625 99.492188 113.65625 C 99.304688 113.65625 99.117188 113.820312 99.117188 114.054688 C 99.117188 114.171875 99.164062 114.21875 99.375 114.429688 L 103.242188 118.34375 L 99.375 122.234375 C 99.164062 122.445312 99.117188 122.492188 99.117188 122.632812 C 99.117188 122.84375 99.304688 123.03125 99.492188 123.03125 C 99.65625 123.03125 99.703125 122.984375 99.9375 122.75 L 103.804688 118.882812 L 107.8125 122.914062 C 107.859375 122.914062 108 123.03125 108.117188 123.03125 C 108.351562 123.03125 108.492188 122.84375 108.492188 122.632812 C 108.492188 122.585938 108.492188 122.515625 108.445312 122.421875 C 108.421875 122.375 105.328125 119.328125 104.367188 118.34375 L 107.90625 114.78125 C 108.023438 114.664062 108.304688 114.40625 108.398438 114.289062 C 108.421875 114.265625 108.492188 114.171875 108.492188 114.054688 C 108.492188 113.820312 108.351562 113.65625 108.117188 113.65625 C 107.953125 113.65625 107.882812 113.726562 107.671875 113.9375 Z M 103.804688 117.804688 "/>
<path fill-rule="nonzero" fill="rgb(0%, 0%, 0%)" fill-opacity="1" d="M 122.078125 111.664062 L 127.070312 111.664062 L 127.070312 110.46875 L 120.695312 110.46875 L 120.695312 117.617188 L 121.960938 117.617188 C 122.453125 116.515625 123.320312 116.09375 124.117188 116.09375 C 125.03125 116.09375 126.039062 116.890625 126.039062 119.210938 C 126.039062 121.671875 124.65625 122.445312 123.53125 122.445312 C 122.453125 122.445312 121.164062 121.859375 120.554688 120.640625 L 119.921875 121.671875 C 121.1875 123.5 123.015625 123.59375 123.554688 123.59375 C 125.828125 123.59375 127.726562 121.671875 127.726562 119.257812 C 127.726562 116.820312 126.085938 114.921875 124.117188 114.921875 C 123.34375 114.921875 122.640625 115.203125 122.078125 115.695312 Z M 122.078125 111.664062 "/>
<path fill="none" stroke-width="0.99628" stroke-linecap="butt" stroke-linejoin="round" stroke="rgb(19.607843%, 19.607843%, 19.607843%)" stroke-opacity="1" stroke-miterlimit="10" d="M -115.038498 -14.392311 L 115.039627 -14.392311 L 115.039627 14.388939 L -115.038498 14.388939 Z M -115.038498 -14.392311 " transform="matrix(1.5, 0, 0, -1.5, 371.213997, 117.642002)"/>
<path fill-rule="nonzero" fill="rgb(0%, 0%, 0%)" fill-opacity="1" d="M 290.5 110.042969 C 289.703125 109.761719 289.140625 109.667969 288.460938 109.667969 C 285.835938 109.667969 283.421875 112.363281 283.421875 116.535156 C 283.421875 122.113281 285.835938 123.191406 287.382812 123.191406 C 288.554688 123.191406 289.375 122.746094 290.148438 121.832031 C 291.015625 120.800781 291.296875 119.886719 291.296875 118.480469 C 291.296875 115.996094 290.007812 113.863281 288.226562 113.863281 C 286.796875 113.863281 285.71875 114.566406 284.992188 115.457031 C 285.203125 112.574219 286.585938 110.769531 288.507812 110.769531 C 289.351562 110.769531 289.9375 110.957031 290.5 111.167969 Z M 285.015625 118.550781 C 285.015625 118.410156 285.015625 118.152344 285.039062 118.011719 C 285.039062 116.652344 285.8125 115.035156 287.476562 115.035156 C 288.109375 115.035156 288.742188 115.222656 289.304688 116.183594 C 289.726562 116.957031 289.75 117.730469 289.75 118.503906 C 289.75 119.300781 289.75 120.121094 289.164062 121.011719 C 288.8125 121.527344 288.34375 122.042969 287.382812 122.042969 C 285.367188 122.042969 285.0625 119.183594 285.015625 118.550781 Z M 285.015625 118.550781 "/>
<path fill-rule="nonzero" fill="rgb(0%, 0%, 0%)" fill-opacity="1" d="M 308.257812 117.402344 L 304.390625 113.535156 C 304.15625 113.300781 304.109375 113.253906 303.945312 113.253906 C 303.757812 113.253906 303.570312 113.417969 303.570312 113.652344 C 303.570312 113.769531 303.617188 113.816406 303.828125 114.027344 L 307.695312 117.941406 L 303.828125 121.832031 C 303.617188 122.042969 303.570312 122.089844 303.570312 122.230469 C 303.570312 122.441406 303.757812 122.628906 303.945312 122.628906 C 304.109375 122.628906 304.15625 122.582031 304.390625 122.347656 L 308.257812 118.480469 L 312.265625 122.511719 C 312.3125 122.511719 312.453125 122.628906 312.570312 122.628906 C 312.804688 122.628906 312.945312 122.441406 312.945312 122.230469 C 312.945312 122.183594 312.945312 122.113281 312.898438 122.019531 C 312.875 121.972656 309.78125 118.925781 308.820312 117.941406 L 312.359375 114.378906 C 312.476562 114.261719 312.757812 114.003906 312.851562 113.886719 C 312.875 113.863281 312.945312 113.769531 312.945312 113.652344 C 312.945312 113.417969 312.804688 113.253906 312.570312 113.253906 C 312.40625 113.253906 312.335938 113.324219 312.125 113.535156 Z M 308.257812 117.402344 "/>
<path fill-rule="nonzero" fill="rgb(0%, 0%, 0%)" fill-opacity="1" d="M 327.320312 111.261719 L 332.3125 111.261719 L 332.3125 110.066406 L 325.9375 110.066406 L 325.9375 117.214844 L 327.203125 117.214844 C 327.695312 116.113281 328.5625 115.691406 329.359375 115.691406 C 330.273438 115.691406 331.28125 116.488281 331.28125 118.808594 C 331.28125 121.269531 329.898438 122.042969 328.773438 122.042969 C 327.695312 122.042969 326.40625 121.457031 325.796875 120.238281 L 325.164062 121.269531 C 326.429688 123.097656 328.257812 123.191406 328.796875 123.191406 C 331.070312 123.191406 332.96875 121.269531 332.96875 118.855469 C 332.96875 116.417969 331.328125 114.519531 329.359375 114.519531 C 328.585938 114.519531 327.882812 114.800781 327.320312 115.292969 Z M 327.320312 111.261719 "/>
<path fill-rule="nonzero" fill="rgb(0%, 0%, 0%)" fill-opacity="1" d="M 337.347656 122.769531 L 337.347656 121.222656 L 335.777344 121.222656 L 335.777344 122.792969 L 336.246094 122.792969 L 335.777344 125.230469 L 336.550781 125.230469 Z M 337.347656 122.769531 "/>
<path fill-rule="nonzero" fill="rgb(0%, 0%, 0%)" fill-opacity="1" d="M 348.449219 111.261719 L 353.441406 111.261719 L 353.441406 110.066406 L 347.066406 110.066406 L 347.066406 117.214844 L 348.332031 117.214844 C 348.824219 116.113281 349.691406 115.691406 350.488281 115.691406 C 351.402344 115.691406 352.410156 116.488281 352.410156 118.808594 C 352.410156 121.269531 351.027344 122.042969 349.902344 122.042969 C 348.824219 122.042969 347.535156 121.457031 346.925781 120.238281 L 346.292969 121.269531 C 347.558594 123.097656 349.386719 123.191406 349.925781 123.191406 C 352.199219 123.191406 354.097656 121.269531 354.097656 118.855469 C 354.097656 116.417969 352.457031 114.519531 350.488281 114.519531 C 349.714844 114.519531 349.011719 114.800781 348.449219 115.292969 Z M 348.449219 111.261719 "/>
<path fill-rule="nonzero" fill="rgb(0%, 0%, 0%)" fill-opacity="1" d="M 371.207031 117.402344 L 367.339844 113.535156 C 367.105469 113.300781 367.058594 113.253906 366.894531 113.253906 C 366.707031 113.253906 366.519531 113.417969 366.519531 113.652344 C 366.519531 113.769531 366.566406 113.816406 366.777344 114.027344 L 370.644531 117.941406 L 366.777344 121.832031 C 366.566406 122.042969 366.519531 122.089844 366.519531 122.230469 C 366.519531 122.441406 366.707031 122.628906 366.894531 122.628906 C 367.058594 122.628906 367.105469 122.582031 367.339844 122.347656 L 371.207031 118.480469 L 375.214844 122.511719 C 375.261719 122.511719 375.402344 122.628906 375.519531 122.628906 C 375.753906 122.628906 375.894531 122.441406 375.894531 122.230469 C 375.894531 122.183594 375.894531 122.113281 375.847656 122.019531 C 375.824219 121.972656 372.730469 118.925781 371.769531 117.941406 L 375.308594 114.378906 C 375.425781 114.261719 375.707031 114.003906 375.800781 113.886719 C 375.824219 113.863281 375.894531 113.769531 375.894531 113.652344 C 375.894531 113.417969 375.753906 113.253906 375.519531 113.253906 C 375.355469 113.253906 375.285156 113.324219 375.074219 113.535156 Z M 371.207031 117.402344 "/>
<path fill-rule="nonzero" fill="rgb(0%, 0%, 0%)" fill-opacity="1" d="M 389.101562 112.855469 C 389.59375 111.589844 390.765625 110.769531 392.078125 110.769531 C 393.0625 110.769531 394 111.332031 394 112.597656 C 394 113.886719 393.109375 114.964844 392.054688 115.199219 C 391.960938 115.222656 390.71875 115.316406 390.53125 115.339844 L 390.53125 116.488281 L 391.914062 116.488281 C 393.90625 116.488281 394.398438 118.199219 394.398438 119.277344 C 394.398438 120.847656 393.4375 122.042969 392.054688 122.042969 C 390.8125 122.042969 389.265625 121.410156 388.375 120.003906 L 388.164062 121.152344 C 389.429688 122.886719 391.140625 123.191406 392.078125 123.191406 C 394.351562 123.191406 396.0625 121.363281 396.0625 119.300781 C 396.0625 117.800781 395.078125 116.488281 393.4375 115.925781 C 394.796875 115.175781 395.546875 113.863281 395.546875 112.597656 C 395.546875 110.910156 393.976562 109.667969 392.078125 109.667969 C 390.53125 109.667969 389.148438 110.511719 388.421875 111.800781 Z M 389.101562 112.855469 "/>
<path fill-rule="nonzero" fill="rgb(0%, 0%, 0%)" fill-opacity="1" d="M 400.300781 122.769531 L 400.300781 121.222656 L 398.730469 121.222656 L 398.730469 122.792969 L 399.199219 122.792969 L 398.730469 125.230469 L 399.503906 125.230469 Z M 400.300781 122.769531 "/>
<path fill-rule="nonzero" fill="rgb(0%, 0%, 0%)" fill-opacity="1" d="M 415.597656 119.441406 L 417.472656 119.441406 L 417.472656 118.292969 L 415.597656 118.292969 L 415.597656 110.066406 L 413.839844 110.066406 L 409.011719 118.292969 L 409.011719 119.441406 L 414.050781 119.441406 L 414.050781 122.792969 L 415.597656 122.792969 Z M 410.511719 118.292969 C 411.074219 117.285156 411.847656 116.042969 412.644531 114.496094 C 412.878906 114.050781 414.144531 111.660156 414.144531 110.933594 L 414.144531 118.292969 Z M 410.511719 118.292969 "/>
<path fill-rule="nonzero" fill="rgb(0%, 0%, 0%)" fill-opacity="1" d="M 434.15625 117.402344 L 430.289062 113.535156 C 430.054688 113.300781 430.007812 113.253906 429.84375 113.253906 C 429.65625 113.253906 429.46875 113.417969 429.46875 113.652344 C 429.46875 113.769531 429.515625 113.816406 429.726562 114.027344 L 433.59375 117.941406 L 429.726562 121.832031 C 429.515625 122.042969 429.46875 122.089844 429.46875 122.230469 C 429.46875 122.441406 429.65625 122.628906 429.84375 122.628906 C 430.007812 122.628906 430.054688 122.582031 430.289062 122.347656 L 434.15625 118.480469 L 438.164062 122.511719 C 438.210938 122.511719 438.351562 122.628906 438.46875 122.628906 C 438.703125 122.628906 438.84375 122.441406 438.84375 122.230469 C 438.84375 122.183594 438.84375 122.113281 438.796875 122.019531 C 438.773438 121.972656 435.679688 118.925781 434.71875 117.941406 L 438.257812 114.378906 C 438.375 114.261719 438.65625 114.003906 438.75 113.886719 C 438.773438 113.863281 438.84375 113.769531 438.84375 113.652344 C 438.84375 113.417969 438.703125 113.253906 438.46875 113.253906 C 438.304688 113.253906 438.234375 113.324219 438.023438 113.535156 Z M 434.15625 117.402344 "/>
<path fill-rule="nonzero" fill="rgb(0%, 0%, 0%)" fill-opacity="1" d="M 453.222656 111.261719 L 458.214844 111.261719 L 458.214844 110.066406 L 451.839844 110.066406 L 451.839844 117.214844 L 453.105469 117.214844 C 453.597656 116.113281 454.464844 115.691406 455.261719 115.691406 C 456.175781 115.691406 457.183594 116.488281 457.183594 118.808594 C 457.183594 121.269531 455.800781 122.042969 454.675781 122.042969 C 453.597656 122.042969 452.308594 121.457031 451.699219 120.238281 L 451.066406 121.269531 C 452.332031 123.097656 454.160156 123.191406 454.699219 123.191406 C 456.972656 123.191406 458.871094 121.269531 458.871094 118.855469 C 458.871094 116.417969 457.230469 114.519531 455.261719 114.519531 C 454.488281 114.519531 453.785156 114.800781 453.222656 115.292969 Z M 453.222656 111.261719 "/>
<path fill="none" stroke-width="0.99628" stroke-linecap="butt" stroke-linejoin="round" stroke="rgb(19.607843%, 19.607843%, 19.607843%)" stroke-opacity="1" stroke-miterlimit="10" d="M -63.232437 -14.392563 L 63.231105 -14.392563 L 63.231105 14.393895 L -63.232437 14.393895 Z M -63.232437 -14.392563 " transform="matrix(1.5, 0, 0, -1.5, 103.813499, 160.813499)"/>
<path fill-rule="nonzero" fill="rgb(0%, 0%, 0%)" fill-opacity="1" d="M 81.542969 163.015625 L 83.417969 163.015625 L 83.417969 161.867188 L 81.542969 161.867188 L 81.542969 153.640625 L 79.785156 153.640625 L 74.957031 161.867188 L 74.957031 163.015625 L 79.996094 163.015625 L 79.996094 166.367188 L 81.542969 166.367188 Z M 76.457031 161.867188 C 77.019531 160.859375 77.792969 159.617188 78.589844 158.070312 C 78.824219 157.625 80.089844 155.234375 80.089844 154.507812 L 80.089844 161.867188 Z M 76.457031 161.867188 "/>
<path fill-rule="nonzero" fill="rgb(0%, 0%, 0%)" fill-opacity="1" d="M 99.050781 160.976562 L 95.183594 157.109375 C 94.949219 156.875 94.902344 156.828125 94.738281 156.828125 C 94.550781 156.828125 94.363281 156.992188 94.363281 157.226562 C 94.363281 157.34375 94.410156 157.390625 94.621094 157.601562 L 98.488281 161.515625 L 94.621094 165.40625 C 94.410156 165.617188 94.363281 165.664062 94.363281 165.804688 C 94.363281 166.015625 94.550781 166.203125 94.738281 166.203125 C 94.902344 166.203125 94.949219 166.15625 95.183594 165.921875 L 99.050781 162.054688 L 103.058594 166.085938 C 103.105469 166.085938 103.246094 166.203125 103.363281 166.203125 C 103.597656 166.203125 103.738281 166.015625 103.738281 165.804688 C 103.738281 165.757812 103.738281 165.6875 103.691406 165.59375 C 103.667969 165.546875 100.574219 162.5 99.613281 161.515625 L 103.152344 157.953125 C 103.269531 157.835938 103.550781 157.578125 103.644531 157.460938 C 103.667969 157.4375 103.738281 157.34375 103.738281 157.226562 C 103.738281 156.992188 103.597656 156.828125 103.363281 156.828125 C 103.199219 156.828125 103.128906 156.898438 102.917969 157.109375 Z M 99.050781 160.976562 "/>
<path fill-rule="nonzero" fill="rgb(0%, 0%, 0%)" fill-opacity="1" d="M 119.878906 153.242188 L 119.503906 153.242188 C 119.199219 153.546875 118.261719 154.460938 116.152344 154.484375 C 115.894531 154.484375 115.871094 154.507812 115.871094 154.859375 L 115.871094 155.632812 C 117.066406 155.632812 117.957031 155.351562 118.355469 155.164062 L 118.355469 165.242188 L 115.988281 165.242188 L 115.988281 166.367188 L 122.246094 166.367188 L 122.246094 165.242188 L 119.878906 165.242188 Z M 119.878906 153.242188 "/>
<path fill-rule="nonzero" fill="rgb(0%, 0%, 0%)" fill-opacity="1" d="M 132.367188 160.039062 C 132.367188 158.726562 132.320312 157.226562 131.804688 155.867188 C 130.984375 153.6875 129.460938 153.242188 128.429688 153.242188 C 127.164062 153.242188 125.945312 153.875 125.21875 155.398438 C 124.585938 156.78125 124.46875 158.351562 124.46875 160.039062 C 124.46875 162.148438 124.632812 163.367188 125.265625 164.726562 C 125.851562 165.992188 127.09375 166.765625 128.40625 166.765625 C 129.695312 166.765625 130.914062 166.085938 131.570312 164.726562 C 132.25 163.367188 132.367188 161.9375 132.367188 160.039062 Z M 128.429688 165.617188 C 125.945312 165.617188 125.945312 161.632812 125.945312 159.804688 C 125.945312 158.539062 125.945312 157.34375 126.296875 156.242188 C 126.765625 154.859375 127.609375 154.390625 128.40625 154.390625 C 130.890625 154.390625 130.890625 158.023438 130.890625 159.804688 C 130.890625 161.046875 130.890625 162.335938 130.539062 163.53125 C 130.023438 165.40625 128.945312 165.617188 128.429688 165.617188 Z M 128.429688 165.617188 "/>
<path fill="none" stroke-width="0.99628" stroke-linecap="butt" stroke-linejoin="round" stroke="rgb(19.607843%, 19.607843%, 19.607843%)" stroke-opacity="1" stroke-miterlimit="10" d="M -115.038498 -14.392563 L 115.039627 -14.392563 L 115.039627 14.393895 L -115.038498 14.393895 Z M -115.038498 -14.392563 " transform="matrix(1.5, 0, 0, -1.5, 371.213997, 160.813499)"/>
<path fill-rule="nonzero" fill="rgb(0%, 0%, 0%)" fill-opacity="1" d="M 280.191406 152.839844 L 279.816406 152.839844 C 279.511719 153.144531 278.574219 154.058594 276.464844 154.082031 C 276.207031 154.082031 276.183594 154.105469 276.183594 154.457031 L 276.183594 155.230469 C 277.378906 155.230469 278.269531 154.949219 278.667969 154.761719 L 278.667969 164.839844 L 276.300781 164.839844 L 276.300781 165.964844 L 282.558594 165.964844 L 282.558594 164.839844 L 280.191406 164.839844 Z M 280.191406 152.839844 "/>
<path fill-rule="nonzero" fill="rgb(0%, 0%, 0%)" fill-opacity="1" d="M 292.679688 159.636719 C 292.679688 158.324219 292.632812 156.824219 292.117188 155.464844 C 291.296875 153.285156 289.773438 152.839844 288.742188 152.839844 C 287.476562 152.839844 286.257812 153.472656 285.53125 154.996094 C 284.898438 156.378906 284.78125 157.949219 284.78125 159.636719 C 284.78125 161.746094 284.945312 162.964844 285.578125 164.324219 C 286.164062 165.589844 287.40625 166.363281 288.71875 166.363281 C 290.007812 166.363281 291.226562 165.683594 291.882812 164.324219 C 292.5625 162.964844 292.679688 161.535156 292.679688 159.636719 Z M 288.742188 165.214844 C 286.257812 165.214844 286.257812 161.230469 286.257812 159.402344 C 286.257812 158.136719 286.257812 156.941406 286.609375 155.839844 C 287.078125 154.457031 287.921875 153.988281 288.71875 153.988281 C 291.203125 153.988281 291.203125 157.621094 291.203125 159.402344 C 291.203125 160.644531 291.203125 161.933594 290.851562 163.128906 C 290.335938 165.003906 289.257812 165.214844 288.742188 165.214844 Z M 288.742188 165.214844 "/>
<path fill-rule="nonzero" fill="rgb(0%, 0%, 0%)" fill-opacity="1" d="M 309.175781 160.574219 L 305.308594 156.707031 C 305.074219 156.472656 305.027344 156.425781 304.863281 156.425781 C 304.675781 156.425781 304.488281 156.589844 304.488281 156.824219 C 304.488281 156.941406 304.535156 156.988281 304.746094 157.199219 L 308.613281 161.113281 L 304.746094 165.003906 C 304.535156 165.214844 304.488281 165.261719 304.488281 165.402344 C 304.488281 165.613281 304.675781 165.800781 304.863281 165.800781 C 305.027344 165.800781 305.074219 165.753906 305.308594 165.519531 L 309.175781 161.652344 L 313.183594 165.683594 C 313.230469 165.683594 313.371094 165.800781 313.488281 165.800781 C 313.722656 165.800781 313.863281 165.613281 313.863281 165.402344 C 313.863281 165.355469 313.863281 165.285156 313.816406 165.191406 C 313.792969 165.144531 310.699219 162.097656 309.738281 161.113281 L 313.277344 157.550781 C 313.394531 157.433594 313.675781 157.175781 313.769531 157.058594 C 313.792969 157.035156 313.863281 156.941406 313.863281 156.824219 C 313.863281 156.589844 313.722656 156.425781 313.488281 156.425781 C 313.324219 156.425781 313.253906 156.496094 313.042969 156.707031 Z M 309.175781 160.574219 "/>
<path fill-rule="nonzero" fill="rgb(0%, 0%, 0%)" fill-opacity="1" d="M 331.980469 162.613281 L 333.855469 162.613281 L 333.855469 161.464844 L 331.980469 161.464844 L 331.980469 153.238281 L 330.222656 153.238281 L 325.394531 161.464844 L 325.394531 162.613281 L 330.433594 162.613281 L 330.433594 165.964844 L 331.980469 165.964844 Z M 326.894531 161.464844 C 327.457031 160.457031 328.230469 159.214844 329.027344 157.667969 C 329.261719 157.222656 330.527344 154.832031 330.527344 154.105469 L 330.527344 161.464844 Z M 326.894531 161.464844 "/>
<path fill-rule="nonzero" fill="rgb(0%, 0%, 0%)" fill-opacity="1" d="M 337.8125 165.941406 L 337.8125 164.394531 L 336.242188 164.394531 L 336.242188 165.964844 L 336.710938 165.964844 L 336.242188 168.402344 L 337.015625 168.402344 Z M 337.8125 165.941406 "/>
<path fill-rule="nonzero" fill="rgb(0%, 0%, 0%)" fill-opacity="1" d="M 347.390625 165.472656 C 348.257812 166.152344 349.054688 166.363281 349.921875 166.363281 C 352.382812 166.363281 354.703125 163.714844 354.703125 159.449219 C 354.703125 154.175781 352.546875 152.839844 350.835938 152.839844 C 349.429688 152.839844 348.609375 153.472656 347.929688 154.292969 C 346.992188 155.394531 346.828125 156.425781 346.828125 157.527344 C 346.828125 160.035156 348.117188 162.167969 349.875 162.167969 C 351.28125 162.167969 352.382812 161.488281 353.109375 160.574219 C 352.96875 163.292969 351.703125 165.214844 349.921875 165.214844 C 349.125 165.214844 348.515625 164.957031 348 164.441406 Z M 353.0625 157.503906 C 353.085938 157.644531 353.085938 157.832031 353.085938 157.972656 C 353.085938 159.449219 352.242188 160.996094 350.625 160.996094 C 350.296875 160.996094 349.453125 160.996094 348.796875 159.847656 C 348.445312 159.144531 348.351562 158.582031 348.351562 157.527344 C 348.351562 156.683594 348.375 155.863281 348.960938 154.996094 C 349.242188 154.550781 349.78125 153.941406 350.835938 153.941406 C 352.6875 153.941406 353.015625 156.566406 353.0625 157.503906 Z M 353.0625 157.503906 "/>
<path fill-rule="nonzero" fill="rgb(0%, 0%, 0%)" fill-opacity="1" d="M 371.207031 160.574219 L 367.339844 156.707031 C 367.105469 156.472656 367.058594 156.425781 366.894531 156.425781 C 366.707031 156.425781 366.519531 156.589844 366.519531 156.824219 C 366.519531 156.941406 366.566406 156.988281 366.777344 157.199219 L 370.644531 161.113281 L 366.777344 165.003906 C 366.566406 165.214844 366.519531 165.261719 366.519531 165.402344 C 366.519531 165.613281 366.707031 165.800781 366.894531 165.800781 C 367.058594 165.800781 367.105469 165.753906 367.339844 165.519531 L 371.207031 161.652344 L 375.214844 165.683594 C 375.261719 165.683594 375.402344 165.800781 375.519531 165.800781 C 375.753906 165.800781 375.894531 165.613281 375.894531 165.402344 C 375.894531 165.355469 375.894531 165.285156 375.847656 165.191406 C 375.824219 165.144531 372.730469 162.097656 371.769531 161.113281 L 375.308594 157.550781 C 375.425781 157.433594 375.707031 157.175781 375.800781 157.058594 C 375.824219 157.035156 375.894531 156.941406 375.894531 156.824219 C 375.894531 156.589844 375.753906 156.425781 375.519531 156.425781 C 375.355469 156.425781 375.285156 156.496094 375.074219 156.707031 Z M 371.207031 160.574219 "/>
<path fill-rule="nonzero" fill="rgb(0%, 0%, 0%)" fill-opacity="1" d="M 394.007812 162.613281 L 395.882812 162.613281 L 395.882812 161.464844 L 394.007812 161.464844 L 394.007812 153.238281 L 392.25 153.238281 L 387.421875 161.464844 L 387.421875 162.613281 L 392.460938 162.613281 L 392.460938 165.964844 L 394.007812 165.964844 Z M 388.921875 161.464844 C 389.484375 160.457031 390.257812 159.214844 391.054688 157.667969 C 391.289062 157.222656 392.554688 154.832031 392.554688 154.105469 L 392.554688 161.464844 Z M 388.921875 161.464844 "/>
<path fill-rule="nonzero" fill="rgb(0%, 0%, 0%)" fill-opacity="1" d="M 399.839844 165.941406 L 399.839844 164.394531 L 398.269531 164.394531 L 398.269531 165.964844 L 398.738281 165.964844 L 398.269531 168.402344 L 399.042969 168.402344 Z M 399.839844 165.941406 "/>
<path fill-rule="nonzero" fill="rgb(0%, 0%, 0%)" fill-opacity="1" d="M 414.105469 159.097656 C 415.324219 158.722656 416.496094 157.644531 416.496094 156.214844 C 416.496094 154.386719 414.855469 152.839844 412.792969 152.839844 C 410.660156 152.839844 409.089844 154.433594 409.089844 156.214844 C 409.089844 157.667969 410.261719 158.746094 411.480469 159.097656 C 409.910156 159.613281 408.832031 160.902344 408.832031 162.472656 C 408.832031 164.535156 410.566406 166.363281 412.769531 166.363281 C 415.066406 166.363281 416.730469 164.511719 416.730469 162.472656 C 416.730469 160.902344 415.675781 159.613281 414.105469 159.097656 Z M 412.792969 158.511719 C 411.269531 158.511719 410.425781 157.480469 410.425781 156.238281 C 410.425781 154.761719 411.480469 153.941406 412.769531 153.941406 C 414.175781 153.941406 415.136719 154.808594 415.136719 156.238281 C 415.136719 157.527344 414.246094 158.511719 412.792969 158.511719 Z M 412.792969 165.214844 C 411.503906 165.214844 410.355469 164.277344 410.355469 162.449219 C 410.355469 160.363281 411.761719 159.660156 412.769531 159.660156 C 413.871094 159.660156 415.207031 160.433594 415.207031 162.449219 C 415.207031 164.324219 414.011719 165.214844 412.792969 165.214844 Z M 412.792969 165.214844 "/>
<path fill-rule="nonzero" fill="rgb(0%, 0%, 0%)" fill-opacity="1" d="M 433.234375 160.574219 L 429.367188 156.707031 C 429.132812 156.472656 429.085938 156.425781 428.921875 156.425781 C 428.734375 156.425781 428.546875 156.589844 428.546875 156.824219 C 428.546875 156.941406 428.59375 156.988281 428.804688 157.199219 L 432.671875 161.113281 L 428.804688 165.003906 C 428.59375 165.214844 428.546875 165.261719 428.546875 165.402344 C 428.546875 165.613281 428.734375 165.800781 428.921875 165.800781 C 429.085938 165.800781 429.132812 165.753906 429.367188 165.519531 L 433.234375 161.652344 L 437.242188 165.683594 C 437.289062 165.683594 437.429688 165.800781 437.546875 165.800781 C 437.78125 165.800781 437.921875 165.613281 437.921875 165.402344 C 437.921875 165.355469 437.921875 165.285156 437.875 165.191406 C 437.851562 165.144531 434.757812 162.097656 433.796875 161.113281 L 437.335938 157.550781 C 437.453125 157.433594 437.734375 157.175781 437.828125 157.058594 C 437.851562 157.035156 437.921875 156.941406 437.921875 156.824219 C 437.921875 156.589844 437.78125 156.425781 437.546875 156.425781 C 437.382812 156.425781 437.3125 156.496094 437.101562 156.707031 Z M 433.234375 160.574219 "/>
<path fill-rule="nonzero" fill="rgb(0%, 0%, 0%)" fill-opacity="1" d="M 454.652344 152.839844 L 454.277344 152.839844 C 453.972656 153.144531 453.035156 154.058594 450.925781 154.082031 C 450.667969 154.082031 450.644531 154.105469 450.644531 154.457031 L 450.644531 155.230469 C 451.839844 155.230469 452.730469 154.949219 453.128906 154.761719 L 453.128906 164.839844 L 450.761719 164.839844 L 450.761719 165.964844 L 457.019531 165.964844 L 457.019531 164.839844 L 454.652344 164.839844 Z M 454.652344 152.839844 "/>
<path fill-rule="nonzero" fill="rgb(0%, 0%, 0%)" fill-opacity="1" d="M 467.140625 159.636719 C 467.140625 158.324219 467.09375 156.824219 466.578125 155.464844 C 465.757812 153.285156 464.234375 152.839844 463.203125 152.839844 C 461.9375 152.839844 460.71875 153.472656 459.992188 154.996094 C 459.359375 156.378906 459.242188 157.949219 459.242188 159.636719 C 459.242188 161.746094 459.40625 162.964844 460.039062 164.324219 C 460.625 165.589844 461.867188 166.363281 463.179688 166.363281 C 464.46875 166.363281 465.6875 165.683594 466.34375 164.324219 C 467.023438 162.964844 467.140625 161.535156 467.140625 159.636719 Z M 463.203125 165.214844 C 460.71875 165.214844 460.71875 161.230469 460.71875 159.402344 C 460.71875 158.136719 460.71875 156.941406 461.070312 155.839844 C 461.539062 154.457031 462.382812 153.988281 463.179688 153.988281 C 465.664062 153.988281 465.664062 157.621094 465.664062 159.402344 C 465.664062 160.644531 465.664062 161.933594 465.3125 163.128906 C 464.796875 165.003906 463.71875 165.214844 463.203125 165.214844 Z M 463.203125 165.214844 "/>
<path fill="none" stroke-width="0.99628" stroke-linecap="butt" stroke-linejoin="round" stroke="rgb(19.607843%, 19.607843%, 19.607843%)" stroke-opacity="1" stroke-miterlimit="10" d="M -63.232437 -14.390203 L 63.231105 -14.390203 L 63.231105 14.391047 L -63.232437 14.391047 Z M -63.232437 -14.390203 " transform="matrix(1.5, 0, 0, -1.5, 103.813499, 203.985008)"/>
<path fill-rule="nonzero" fill="rgb(0%, 0%, 0%)" fill-opacity="1" d="M 83.347656 198.125 C 83.582031 198.125 83.816406 198.125 84.050781 198.125 L 86.394531 198.125 C 85.222656 199.484375 81.847656 203.351562 81.847656 209.726562 L 83.417969 209.726562 C 83.417969 204.6875 85.503906 200.539062 87.636719 198.03125 L 87.636719 196.8125 L 79.738281 196.8125 L 79.738281 198.125 Z M 83.347656 198.125 "/>
<path fill-rule="nonzero" fill="rgb(0%, 0%, 0%)" fill-opacity="1" d="M 103.804688 204.148438 L 99.9375 200.28125 C 99.703125 200.046875 99.65625 200 99.492188 200 C 99.304688 200 99.117188 200.164062 99.117188 200.398438 C 99.117188 200.515625 99.164062 200.5625 99.375 200.773438 L 103.242188 204.6875 L 99.375 208.578125 C 99.164062 208.789062 99.117188 208.835938 99.117188 208.976562 C 99.117188 209.1875 99.304688 209.375 99.492188 209.375 C 99.65625 209.375 99.703125 209.328125 99.9375 209.09375 L 103.804688 205.226562 L 107.8125 209.257812 C 107.859375 209.257812 108 209.375 108.117188 209.375 C 108.351562 209.375 108.492188 209.1875 108.492188 208.976562 C 108.492188 208.929688 108.492188 208.859375 108.445312 208.765625 C 108.421875 208.71875 105.328125 205.671875 104.367188 204.6875 L 107.90625 201.125 C 108.023438 201.007812 108.304688 200.75 108.398438 200.632812 C 108.421875 200.609375 108.492188 200.515625 108.492188 200.398438 C 108.492188 200.164062 108.351562 200 108.117188 200 C 107.953125 200 107.882812 200.070312 107.671875 200.28125 Z M 103.804688 204.148438 "/>
<path fill-rule="nonzero" fill="rgb(0%, 0%, 0%)" fill-opacity="1" d="M 120.132812 208.320312 L 120.132812 209.539062 L 127.726562 209.539062 L 127.726562 208.226562 L 124.257812 208.226562 C 124.023438 208.226562 123.789062 208.226562 123.554688 208.226562 L 121.492188 208.226562 C 121.984375 207.710938 123.789062 205.929688 125.054688 204.804688 C 126.507812 203.539062 127.726562 202.320312 127.726562 200.539062 C 127.726562 198.382812 126.226562 196.414062 123.648438 196.414062 C 121.5625 196.414062 120.484375 197.773438 119.96875 199.601562 C 120.601562 200.375 120.601562 200.398438 120.765625 200.632812 C 121.257812 198.570312 121.960938 197.609375 123.414062 197.609375 C 125.078125 197.609375 126.15625 198.921875 126.15625 200.585938 C 126.15625 201.59375 125.757812 202.71875 124.445312 204.007812 Z M 120.132812 208.320312 "/>
<path fill="none" stroke-width="0.99628" stroke-linecap="butt" stroke-linejoin="round" stroke="rgb(19.607843%, 19.607843%, 19.607843%)" stroke-opacity="1" stroke-miterlimit="10" d="M -115.038498 -14.390203 L 115.039627 -14.390203 L 115.039627 14.391047 L -115.038498 14.391047 Z M -115.038498 -14.390203 " transform="matrix(1.5, 0, 0, -1.5, 371.213997, 203.985008)"/>
<path fill-rule="nonzero" fill="rgb(0%, 0%, 0%)" fill-opacity="1" d="M 282.941406 197.71875 C 283.175781 197.71875 283.410156 197.71875 283.644531 197.71875 L 285.988281 197.71875 C 284.816406 199.078125 281.441406 202.945312 281.441406 209.320312 L 283.011719 209.320312 C 283.011719 204.28125 285.097656 200.132812 287.230469 197.625 L 287.230469 196.40625 L 279.332031 196.40625 L 279.332031 197.71875 Z M 282.941406 197.71875 "/>
<path fill-rule="nonzero" fill="rgb(0%, 0%, 0%)" fill-opacity="1" d="M 303.960938 203.742188 L 300.09375 199.875 C 299.859375 199.640625 299.8125 199.59375 299.648438 199.59375 C 299.460938 199.59375 299.273438 199.757812 299.273438 199.992188 C 299.273438 200.109375 299.320312 200.15625 299.53125 200.367188 L 303.398438 204.28125 L 299.53125 208.171875 C 299.320312 208.382812 299.273438 208.429688 299.273438 208.570312 C 299.273438 208.78125 299.460938 208.96875 299.648438 208.96875 C 299.8125 208.96875 299.859375 208.921875 300.09375 208.6875 L 303.960938 204.820312 L 307.96875 208.851562 C 308.015625 208.851562 308.15625 208.96875 308.273438 208.96875 C 308.507812 208.96875 308.648438 208.78125 308.648438 208.570312 C 308.648438 208.523438 308.648438 208.453125 308.601562 208.359375 C 308.578125 208.3125 305.484375 205.265625 304.523438 204.28125 L 308.0625 200.71875 C 308.179688 200.601562 308.460938 200.34375 308.554688 200.226562 C 308.578125 200.203125 308.648438 200.109375 308.648438 199.992188 C 308.648438 199.757812 308.507812 199.59375 308.273438 199.59375 C 308.109375 199.59375 308.039062 199.664062 307.828125 199.875 Z M 303.960938 203.742188 "/>
<path fill-rule="nonzero" fill="rgb(0%, 0%, 0%)" fill-opacity="1" d="M 326.992188 205.78125 L 328.867188 205.78125 L 328.867188 204.632812 L 326.992188 204.632812 L 326.992188 196.40625 L 325.234375 196.40625 L 320.40625 204.632812 L 320.40625 205.78125 L 325.445312 205.78125 L 325.445312 209.132812 L 326.992188 209.132812 Z M 321.90625 204.632812 C 322.46875 203.625 323.242188 202.382812 324.039062 200.835938 C 324.273438 200.390625 325.539062 198 325.539062 197.273438 L 325.539062 204.632812 Z M 321.90625 204.632812 "/>
<path fill-rule="nonzero" fill="rgb(0%, 0%, 0%)" fill-opacity="1" d="M 332.824219 209.109375 L 332.824219 207.5625 L 331.253906 207.5625 L 331.253906 209.132812 L 331.722656 209.132812 L 331.253906 211.570312 L 332.027344 211.570312 Z M 332.824219 209.109375 "/>
<path fill-rule="nonzero" fill="rgb(0%, 0%, 0%)" fill-opacity="1" d="M 347.089844 202.265625 C 348.308594 201.890625 349.480469 200.8125 349.480469 199.382812 C 349.480469 197.554688 347.839844 196.007812 345.777344 196.007812 C 343.644531 196.007812 342.074219 197.601562 342.074219 199.382812 C 342.074219 200.835938 343.246094 201.914062 344.464844 202.265625 C 342.894531 202.78125 341.816406 204.070312 341.816406 205.640625 C 341.816406 207.703125 343.550781 209.53125 345.753906 209.53125 C 348.050781 209.53125 349.714844 207.679688 349.714844 205.640625 C 349.714844 204.070312 348.660156 202.78125 347.089844 202.265625 Z M 345.777344 201.679688 C 344.253906 201.679688 343.410156 200.648438 343.410156 199.40625 C 343.410156 197.929688 344.464844 197.109375 345.753906 197.109375 C 347.160156 197.109375 348.121094 197.976562 348.121094 199.40625 C 348.121094 200.695312 347.230469 201.679688 345.777344 201.679688 Z M 345.777344 208.382812 C 344.488281 208.382812 343.339844 207.445312 343.339844 205.617188 C 343.339844 203.53125 344.746094 202.828125 345.753906 202.828125 C 346.855469 202.828125 348.191406 203.601562 348.191406 205.617188 C 348.191406 207.492188 346.996094 208.382812 345.777344 208.382812 Z M 345.777344 208.382812 "/>
<path fill-rule="nonzero" fill="rgb(0%, 0%, 0%)" fill-opacity="1" d="M 366.449219 203.742188 L 362.582031 199.875 C 362.347656 199.640625 362.300781 199.59375 362.136719 199.59375 C 361.949219 199.59375 361.761719 199.757812 361.761719 199.992188 C 361.761719 200.109375 361.808594 200.15625 362.019531 200.367188 L 365.886719 204.28125 L 362.019531 208.171875 C 361.808594 208.382812 361.761719 208.429688 361.761719 208.570312 C 361.761719 208.78125 361.949219 208.96875 362.136719 208.96875 C 362.300781 208.96875 362.347656 208.921875 362.582031 208.6875 L 366.449219 204.820312 L 370.457031 208.851562 C 370.503906 208.851562 370.644531 208.96875 370.761719 208.96875 C 370.996094 208.96875 371.136719 208.78125 371.136719 208.570312 C 371.136719 208.523438 371.136719 208.453125 371.089844 208.359375 C 371.066406 208.3125 367.972656 205.265625 367.011719 204.28125 L 370.550781 200.71875 C 370.667969 200.601562 370.949219 200.34375 371.042969 200.226562 C 371.066406 200.203125 371.136719 200.109375 371.136719 199.992188 C 371.136719 199.757812 370.996094 199.59375 370.761719 199.59375 C 370.597656 199.59375 370.527344 199.664062 370.316406 199.875 Z M 366.449219 203.742188 "/>
<path fill-rule="nonzero" fill="rgb(0%, 0%, 0%)" fill-opacity="1" d="M 383.34375 207.914062 L 383.34375 209.132812 L 390.9375 209.132812 L 390.9375 207.820312 L 387.46875 207.820312 C 387.234375 207.820312 387 207.820312 386.765625 207.820312 L 384.703125 207.820312 C 385.195312 207.304688 387 205.523438 388.265625 204.398438 C 389.71875 203.132812 390.9375 201.914062 390.9375 200.132812 C 390.9375 197.976562 389.4375 196.007812 386.859375 196.007812 C 384.773438 196.007812 383.695312 197.367188 383.179688 199.195312 C 383.8125 199.96875 383.8125 199.992188 383.976562 200.226562 C 384.46875 198.164062 385.171875 197.203125 386.625 197.203125 C 388.289062 197.203125 389.367188 198.515625 389.367188 200.179688 C 389.367188 201.1875 388.96875 202.3125 387.65625 203.601562 Z M 383.34375 207.914062 "/>
<path fill-rule="nonzero" fill="rgb(0%, 0%, 0%)" fill-opacity="1" d="M 395.316406 209.109375 L 395.316406 207.5625 L 393.746094 207.5625 L 393.746094 209.132812 L 394.214844 209.132812 L 393.746094 211.570312 L 394.519531 211.570312 Z M 395.316406 209.109375 "/>
<path fill-rule="nonzero" fill="rgb(0%, 0%, 0%)" fill-opacity="1" d="M 409.230469 196.007812 L 408.855469 196.007812 C 408.550781 196.3125 407.613281 197.226562 405.503906 197.25 C 405.246094 197.25 405.222656 197.273438 405.222656 197.625 L 405.222656 198.398438 C 406.417969 198.398438 407.308594 198.117188 407.707031 197.929688 L 407.707031 208.007812 L 405.339844 208.007812 L 405.339844 209.132812 L 411.597656 209.132812 L 411.597656 208.007812 L 409.230469 208.007812 Z M 409.230469 196.007812 "/>
<path fill-rule="nonzero" fill="rgb(0%, 0%, 0%)" fill-opacity="1" d="M 420.125 205.78125 L 422 205.78125 L 422 204.632812 L 420.125 204.632812 L 420.125 196.40625 L 418.367188 196.40625 L 413.539062 204.632812 L 413.539062 205.78125 L 418.578125 205.78125 L 418.578125 209.132812 L 420.125 209.132812 Z M 415.039062 204.632812 C 415.601562 203.625 416.375 202.382812 417.171875 200.835938 C 417.40625 200.390625 418.671875 198 418.671875 197.273438 L 418.671875 204.632812 Z M 415.039062 204.632812 "/>
<path fill-rule="nonzero" fill="rgb(0%, 0%, 0%)" fill-opacity="1" d="M 438.453125 203.742188 L 434.585938 199.875 C 434.351562 199.640625 434.304688 199.59375 434.140625 199.59375 C 433.953125 199.59375 433.765625 199.757812 433.765625 199.992188 C 433.765625 200.109375 433.8125 200.15625 434.023438 200.367188 L 437.890625 204.28125 L 434.023438 208.171875 C 433.8125 208.382812 433.765625 208.429688 433.765625 208.570312 C 433.765625 208.78125 433.953125 208.96875 434.140625 208.96875 C 434.304688 208.96875 434.351562 208.921875 434.585938 208.6875 L 438.453125 204.820312 L 442.460938 208.851562 C 442.507812 208.851562 442.648438 208.96875 442.765625 208.96875 C 443 208.96875 443.140625 208.78125 443.140625 208.570312 C 443.140625 208.523438 443.140625 208.453125 443.09375 208.359375 C 443.070312 208.3125 439.976562 205.265625 439.015625 204.28125 L 442.554688 200.71875 C 442.671875 200.601562 442.953125 200.34375 443.046875 200.226562 C 443.070312 200.203125 443.140625 200.109375 443.140625 199.992188 C 443.140625 199.757812 443 199.59375 442.765625 199.59375 C 442.601562 199.59375 442.53125 199.664062 442.320312 199.875 Z M 438.453125 203.742188 "/>
<path fill-rule="nonzero" fill="rgb(0%, 0%, 0%)" fill-opacity="1" d="M 455.34375 207.914062 L 455.34375 209.132812 L 462.9375 209.132812 L 462.9375 207.820312 L 459.46875 207.820312 C 459.234375 207.820312 459 207.820312 458.765625 207.820312 L 456.703125 207.820312 C 457.195312 207.304688 459 205.523438 460.265625 204.398438 C 461.71875 203.132812 462.9375 201.914062 462.9375 200.132812 C 462.9375 197.976562 461.4375 196.007812 458.859375 196.007812 C 456.773438 196.007812 455.695312 197.367188 455.179688 199.195312 C 455.8125 199.96875 455.8125 199.992188 455.976562 200.226562 C 456.46875 198.164062 457.171875 197.203125 458.625 197.203125 C 460.289062 197.203125 461.367188 198.515625 461.367188 200.179688 C 461.367188 201.1875 460.96875 202.3125 459.65625 203.601562 Z M 455.34375 207.914062 "/>
<path fill="none" stroke-width="0.99628" stroke-linecap="butt" stroke-linejoin="round" stroke="rgb(19.607843%, 19.607843%, 19.607843%)" stroke-opacity="1" stroke-miterlimit="10" d="M -63.232437 -14.387858 L 63.231105 -14.387858 L 63.231105 14.393392 L -63.232437 14.393392 Z M -63.232437 -14.387858 " transform="matrix(1.5, 0, 0, -1.5, 103.813499, 247.156494)"/>
<path fill-rule="nonzero" fill="rgb(0%, 0%, 0%)" fill-opacity="1" d="M 81.847656 241.179688 L 86.839844 241.179688 L 86.839844 239.984375 L 80.464844 239.984375 L 80.464844 247.132812 L 81.730469 247.132812 C 82.222656 246.03125 83.089844 245.609375 83.886719 245.609375 C 84.800781 245.609375 85.808594 246.40625 85.808594 248.726562 C 85.808594 251.1875 84.425781 251.960938 83.300781 251.960938 C 82.222656 251.960938 80.933594 251.375 80.324219 250.15625 L 79.691406 251.1875 C 80.957031 253.015625 82.785156 253.109375 83.324219 253.109375 C 85.597656 253.109375 87.496094 251.1875 87.496094 248.773438 C 87.496094 246.335938 85.855469 244.4375 83.886719 244.4375 C 83.113281 244.4375 82.410156 244.71875 81.847656 245.210938 Z M 81.847656 241.179688 "/>
<path fill-rule="nonzero" fill="rgb(0%, 0%, 0%)" fill-opacity="1" d="M 103.804688 247.320312 L 99.9375 243.453125 C 99.703125 243.21875 99.65625 243.171875 99.492188 243.171875 C 99.304688 243.171875 99.117188 243.335938 99.117188 243.570312 C 99.117188 243.6875 99.164062 243.734375 99.375 243.945312 L 103.242188 247.859375 L 99.375 251.75 C 99.164062 251.960938 99.117188 252.007812 99.117188 252.148438 C 99.117188 252.359375 99.304688 252.546875 99.492188 252.546875 C 99.65625 252.546875 99.703125 252.5 99.9375 252.265625 L 103.804688 248.398438 L 107.8125 252.429688 C 107.859375 252.429688 108 252.546875 108.117188 252.546875 C 108.351562 252.546875 108.492188 252.359375 108.492188 252.148438 C 108.492188 252.101562 108.492188 252.03125 108.445312 251.9375 C 108.421875 251.890625 105.328125 248.84375 104.367188 247.859375 L 107.90625 244.296875 C 108.023438 244.179688 108.304688 243.921875 108.398438 243.804688 C 108.421875 243.78125 108.492188 243.6875 108.492188 243.570312 C 108.492188 243.335938 108.351562 243.171875 108.117188 243.171875 C 107.953125 243.171875 107.882812 243.242188 107.671875 243.453125 Z M 103.804688 247.320312 "/>
<path fill-rule="nonzero" fill="rgb(0%, 0%, 0%)" fill-opacity="1" d="M 125.242188 245.84375 C 126.460938 245.46875 127.632812 244.390625 127.632812 242.960938 C 127.632812 241.132812 125.992188 239.585938 123.929688 239.585938 C 121.796875 239.585938 120.226562 241.179688 120.226562 242.960938 C 120.226562 244.414062 121.398438 245.492188 122.617188 245.84375 C 121.046875 246.359375 119.96875 247.648438 119.96875 249.21875 C 119.96875 251.28125 121.703125 253.109375 123.90625 253.109375 C 126.203125 253.109375 127.867188 251.257812 127.867188 249.21875 C 127.867188 247.648438 126.8125 246.359375 125.242188 245.84375 Z M 123.929688 245.257812 C 122.40625 245.257812 121.5625 244.226562 121.5625 242.984375 C 121.5625 241.507812 122.617188 240.6875 123.90625 240.6875 C 125.3125 240.6875 126.273438 241.554688 126.273438 242.984375 C 126.273438 244.273438 125.382812 245.257812 123.929688 245.257812 Z M 123.929688 251.960938 C 122.640625 251.960938 121.492188 251.023438 121.492188 249.195312 C 121.492188 247.109375 122.898438 246.40625 123.90625 246.40625 C 125.007812 246.40625 126.34375 247.179688 126.34375 249.195312 C 126.34375 251.070312 125.148438 251.960938 123.929688 251.960938 Z M 123.929688 251.960938 "/>
<path fill="none" stroke-width="0.99628" stroke-linecap="butt" stroke-linejoin="round" stroke="rgb(19.607843%, 19.607843%, 19.607843%)" stroke-opacity="1" stroke-miterlimit="10" d="M -115.038498 -14.387858 L 115.039627 -14.387858 L 115.039627 14.393392 L -115.038498 14.393392 Z M -115.038498 -14.387858 " transform="matrix(1.5, 0, 0, -1.5, 371.213997, 247.156494)"/>
<path fill-rule="nonzero" fill="rgb(0%, 0%, 0%)" fill-opacity="1" d="M 290.5 239.554688 C 289.703125 239.273438 289.140625 239.179688 288.460938 239.179688 C 285.835938 239.179688 283.421875 241.875 283.421875 246.046875 C 283.421875 251.625 285.835938 252.703125 287.382812 252.703125 C 288.554688 252.703125 289.375 252.257812 290.148438 251.34375 C 291.015625 250.3125 291.296875 249.398438 291.296875 247.992188 C 291.296875 245.507812 290.007812 243.375 288.226562 243.375 C 286.796875 243.375 285.71875 244.078125 284.992188 244.96875 C 285.203125 242.085938 286.585938 240.28125 288.507812 240.28125 C 289.351562 240.28125 289.9375 240.46875 290.5 240.679688 Z M 285.015625 248.0625 C 285.015625 247.921875 285.015625 247.664062 285.039062 247.523438 C 285.039062 246.164062 285.8125 244.546875 287.476562 244.546875 C 288.109375 244.546875 288.742188 244.734375 289.304688 245.695312 C 289.726562 246.46875 289.75 247.242188 289.75 248.015625 C 289.75 248.8125 289.75 249.632812 289.164062 250.523438 C 288.8125 251.039062 288.34375 251.554688 287.382812 251.554688 C 285.367188 251.554688 285.0625 248.695312 285.015625 248.0625 Z M 285.015625 248.0625 "/>
<path fill-rule="nonzero" fill="rgb(0%, 0%, 0%)" fill-opacity="1" d="M 308.257812 246.914062 L 304.390625 243.046875 C 304.15625 242.8125 304.109375 242.765625 303.945312 242.765625 C 303.757812 242.765625 303.570312 242.929688 303.570312 243.164062 C 303.570312 243.28125 303.617188 243.328125 303.828125 243.539062 L 307.695312 247.453125 L 303.828125 251.34375 C 303.617188 251.554688 303.570312 251.601562 303.570312 251.742188 C 303.570312 251.953125 303.757812 252.140625 303.945312 252.140625 C 304.109375 252.140625 304.15625 252.09375 304.390625 251.859375 L 308.257812 247.992188 L 312.265625 252.023438 C 312.3125 252.023438 312.453125 252.140625 312.570312 252.140625 C 312.804688 252.140625 312.945312 251.953125 312.945312 251.742188 C 312.945312 251.695312 312.945312 251.625 312.898438 251.53125 C 312.875 251.484375 309.78125 248.4375 308.820312 247.453125 L 312.359375 243.890625 C 312.476562 243.773438 312.757812 243.515625 312.851562 243.398438 C 312.875 243.375 312.945312 243.28125 312.945312 243.164062 C 312.945312 242.929688 312.804688 242.765625 312.570312 242.765625 C 312.40625 242.765625 312.335938 242.835938 312.125 243.046875 Z M 308.257812 246.914062 "/>
<path fill-rule="nonzero" fill="rgb(0%, 0%, 0%)" fill-opacity="1" d="M 330.484375 245.4375 C 331.703125 245.0625 332.875 243.984375 332.875 242.554688 C 332.875 240.726562 331.234375 239.179688 329.171875 239.179688 C 327.039062 239.179688 325.46875 240.773438 325.46875 242.554688 C 325.46875 244.007812 326.640625 245.085938 327.859375 245.4375 C 326.289062 245.953125 325.210938 247.242188 325.210938 248.8125 C 325.210938 250.875 326.945312 252.703125 329.148438 252.703125 C 331.445312 252.703125 333.109375 250.851562 333.109375 248.8125 C 333.109375 247.242188 332.054688 245.953125 330.484375 245.4375 Z M 329.171875 244.851562 C 327.648438 244.851562 326.804688 243.820312 326.804688 242.578125 C 326.804688 241.101562 327.859375 240.28125 329.148438 240.28125 C 330.554688 240.28125 331.515625 241.148438 331.515625 242.578125 C 331.515625 243.867188 330.625 244.851562 329.171875 244.851562 Z M 329.171875 251.554688 C 327.882812 251.554688 326.734375 250.617188 326.734375 248.789062 C 326.734375 246.703125 328.140625 246 329.148438 246 C 330.25 246 331.585938 246.773438 331.585938 248.789062 C 331.585938 250.664062 330.390625 251.554688 329.171875 251.554688 Z M 329.171875 251.554688 "/>
<path fill-rule="nonzero" fill="rgb(0%, 0%, 0%)" fill-opacity="1" d="M 337.347656 252.28125 L 337.347656 250.734375 L 335.777344 250.734375 L 335.777344 252.304688 L 336.246094 252.304688 L 335.777344 254.742188 L 336.550781 254.742188 Z M 337.347656 252.28125 "/>
<path fill-rule="nonzero" fill="rgb(0%, 0%, 0%)" fill-opacity="1" d="M 352.644531 248.953125 L 354.519531 248.953125 L 354.519531 247.804688 L 352.644531 247.804688 L 352.644531 239.578125 L 350.886719 239.578125 L 346.058594 247.804688 L 346.058594 248.953125 L 351.097656 248.953125 L 351.097656 252.304688 L 352.644531 252.304688 Z M 347.558594 247.804688 C 348.121094 246.796875 348.894531 245.554688 349.691406 244.007812 C 349.925781 243.5625 351.191406 241.171875 351.191406 240.445312 L 351.191406 247.804688 Z M 347.558594 247.804688 "/>
<path fill-rule="nonzero" fill="rgb(0%, 0%, 0%)" fill-opacity="1" d="M 371.207031 246.914062 L 367.339844 243.046875 C 367.105469 242.8125 367.058594 242.765625 366.894531 242.765625 C 366.707031 242.765625 366.519531 242.929688 366.519531 243.164062 C 366.519531 243.28125 366.566406 243.328125 366.777344 243.539062 L 370.644531 247.453125 L 366.777344 251.34375 C 366.566406 251.554688 366.519531 251.601562 366.519531 251.742188 C 366.519531 251.953125 366.707031 252.140625 366.894531 252.140625 C 367.058594 252.140625 367.105469 252.09375 367.339844 251.859375 L 371.207031 247.992188 L 375.214844 252.023438 C 375.261719 252.023438 375.402344 252.140625 375.519531 252.140625 C 375.753906 252.140625 375.894531 251.953125 375.894531 251.742188 C 375.894531 251.695312 375.894531 251.625 375.847656 251.53125 C 375.824219 251.484375 372.730469 248.4375 371.769531 247.453125 L 375.308594 243.890625 C 375.425781 243.773438 375.707031 243.515625 375.800781 243.398438 C 375.824219 243.375 375.894531 243.28125 375.894531 243.164062 C 375.894531 242.929688 375.753906 242.765625 375.519531 242.765625 C 375.355469 242.765625 375.285156 242.835938 375.074219 243.046875 Z M 371.207031 246.914062 "/>
<path fill-rule="nonzero" fill="rgb(0%, 0%, 0%)" fill-opacity="1" d="M 393.4375 245.4375 C 394.65625 245.0625 395.828125 243.984375 395.828125 242.554688 C 395.828125 240.726562 394.1875 239.179688 392.125 239.179688 C 389.992188 239.179688 388.421875 240.773438 388.421875 242.554688 C 388.421875 244.007812 389.59375 245.085938 390.8125 245.4375 C 389.242188 245.953125 388.164062 247.242188 388.164062 248.8125 C 388.164062 250.875 389.898438 252.703125 392.101562 252.703125 C 394.398438 252.703125 396.0625 250.851562 396.0625 248.8125 C 396.0625 247.242188 395.007812 245.953125 393.4375 245.4375 Z M 392.125 244.851562 C 390.601562 244.851562 389.757812 243.820312 389.757812 242.578125 C 389.757812 241.101562 390.8125 240.28125 392.101562 240.28125 C 393.507812 240.28125 394.46875 241.148438 394.46875 242.578125 C 394.46875 243.867188 393.578125 244.851562 392.125 244.851562 Z M 392.125 251.554688 C 390.835938 251.554688 389.6875 250.617188 389.6875 248.789062 C 389.6875 246.703125 391.09375 246 392.101562 246 C 393.203125 246 394.539062 246.773438 394.539062 248.789062 C 394.539062 250.664062 393.34375 251.554688 392.125 251.554688 Z M 392.125 251.554688 "/>
<path fill-rule="nonzero" fill="rgb(0%, 0%, 0%)" fill-opacity="1" d="M 400.300781 252.28125 L 400.300781 250.734375 L 398.730469 250.734375 L 398.730469 252.304688 L 399.199219 252.304688 L 398.730469 254.742188 L 399.503906 254.742188 Z M 400.300781 252.28125 "/>
<path fill-rule="nonzero" fill="rgb(0%, 0%, 0%)" fill-opacity="1" d="M 414.566406 245.4375 C 415.785156 245.0625 416.957031 243.984375 416.957031 242.554688 C 416.957031 240.726562 415.316406 239.179688 413.253906 239.179688 C 411.121094 239.179688 409.550781 240.773438 409.550781 242.554688 C 409.550781 244.007812 410.722656 245.085938 411.941406 245.4375 C 410.371094 245.953125 409.292969 247.242188 409.292969 248.8125 C 409.292969 250.875 411.027344 252.703125 413.230469 252.703125 C 415.527344 252.703125 417.191406 250.851562 417.191406 248.8125 C 417.191406 247.242188 416.136719 245.953125 414.566406 245.4375 Z M 413.253906 244.851562 C 411.730469 244.851562 410.886719 243.820312 410.886719 242.578125 C 410.886719 241.101562 411.941406 240.28125 413.230469 240.28125 C 414.636719 240.28125 415.597656 241.148438 415.597656 242.578125 C 415.597656 243.867188 414.707031 244.851562 413.253906 244.851562 Z M 413.253906 251.554688 C 411.964844 251.554688 410.816406 250.617188 410.816406 248.789062 C 410.816406 246.703125 412.222656 246 413.230469 246 C 414.332031 246 415.667969 246.773438 415.667969 248.789062 C 415.667969 250.664062 414.472656 251.554688 413.253906 251.554688 Z M 413.253906 251.554688 "/>
<path fill-rule="nonzero" fill="rgb(0%, 0%, 0%)" fill-opacity="1" d="M 434.15625 246.914062 L 430.289062 243.046875 C 430.054688 242.8125 430.007812 242.765625 429.84375 242.765625 C 429.65625 242.765625 429.46875 242.929688 429.46875 243.164062 C 429.46875 243.28125 429.515625 243.328125 429.726562 243.539062 L 433.59375 247.453125 L 429.726562 251.34375 C 429.515625 251.554688 429.46875 251.601562 429.46875 251.742188 C 429.46875 251.953125 429.65625 252.140625 429.84375 252.140625 C 430.007812 252.140625 430.054688 252.09375 430.289062 251.859375 L 434.15625 247.992188 L 438.164062 252.023438 C 438.210938 252.023438 438.351562 252.140625 438.46875 252.140625 C 438.703125 252.140625 438.84375 251.953125 438.84375 251.742188 C 438.84375 251.695312 438.84375 251.625 438.796875 251.53125 C 438.773438 251.484375 435.679688 248.4375 434.71875 247.453125 L 438.257812 243.890625 C 438.375 243.773438 438.65625 243.515625 438.75 243.398438 C 438.773438 243.375 438.84375 243.28125 438.84375 243.164062 C 438.84375 242.929688 438.703125 242.765625 438.46875 242.765625 C 438.304688 242.765625 438.234375 242.835938 438.023438 243.046875 Z M 434.15625 246.914062 "/>
<path fill-rule="nonzero" fill="rgb(0%, 0%, 0%)" fill-opacity="1" d="M 456.386719 245.4375 C 457.605469 245.0625 458.777344 243.984375 458.777344 242.554688 C 458.777344 240.726562 457.136719 239.179688 455.074219 239.179688 C 452.941406 239.179688 451.371094 240.773438 451.371094 242.554688 C 451.371094 244.007812 452.542969 245.085938 453.761719 245.4375 C 452.191406 245.953125 451.113281 247.242188 451.113281 248.8125 C 451.113281 250.875 452.847656 252.703125 455.050781 252.703125 C 457.347656 252.703125 459.011719 250.851562 459.011719 248.8125 C 459.011719 247.242188 457.957031 245.953125 456.386719 245.4375 Z M 455.074219 244.851562 C 453.550781 244.851562 452.707031 243.820312 452.707031 242.578125 C 452.707031 241.101562 453.761719 240.28125 455.050781 240.28125 C 456.457031 240.28125 457.417969 241.148438 457.417969 242.578125 C 457.417969 243.867188 456.527344 244.851562 455.074219 244.851562 Z M 455.074219 251.554688 C 453.785156 251.554688 452.636719 250.617188 452.636719 248.789062 C 452.636719 246.703125 454.042969 246 455.050781 246 C 456.152344 246 457.488281 246.773438 457.488281 248.789062 C 457.488281 250.664062 456.292969 251.554688 455.074219 251.554688 Z M 455.074219 251.554688 "/>
</svg>
