<?xml version="1.0" encoding="UTF-8"?>
<svg xmlns="http://www.w3.org/2000/svg" xmlns:xlink="http://www.w3.org/1999/xlink" width="590.72699" height="204.433502" viewBox="0 0 590.72699 204.433502">
<path fill="none" stroke-width="1.99255" stroke-linecap="butt" stroke-linejoin="round" stroke="rgb(19.607843%, 19.607843%, 19.607843%)" stroke-opacity="1" stroke-miterlimit="10" d="M -60.929436 -17.269625 L 60.929939 -17.269625 L 60.929939 17.269438 L -60.929436 17.269438 Z M -60.929436 -17.269625 " transform="matrix(1.5, 0, 0, -1.5, 100.358997, 34.869)"/>
<path fill-rule="nonzero" fill="rgb(0%, 0%, 0%)" fill-opacity="1" d="M 43.144531 30.410156 C 42.628906 30.292969 41.175781 29.753906 41.175781 28.441406 C 41.175781 26.449219 43.167969 26.402344 43.941406 26.402344 C 45.253906 26.402344 46.425781 26.707031 47.574219 27.832031 C 47.949219 28.183594 47.972656 28.207031 48.066406 28.207031 C 48.207031 28.207031 48.324219 28.136719 48.394531 27.785156 L 48.722656 25.746094 C 48.769531 25.558594 48.769531 25.511719 48.769531 25.441406 C 48.769531 25.253906 48.746094 25.230469 48.183594 24.925781 C 46.519531 24.128906 45.136719 24.011719 43.941406 24.011719 C 41.878906 24.011719 38.269531 24.480469 38.269531 28.863281 C 38.269531 30.503906 39.136719 31.582031 39.558594 32.050781 C 40.753906 33.269531 41.855469 33.503906 43.683594 33.902344 C 44.972656 34.207031 45.488281 34.324219 46.003906 34.792969 C 46.238281 35.027344 46.730469 35.519531 46.730469 36.410156 C 46.730469 38.589844 44.714844 38.660156 43.941406 38.660156 C 41.996094 38.660156 40.285156 37.886719 39.136719 36.832031 C 38.855469 36.550781 38.808594 36.550781 38.714844 36.550781 C 38.574219 36.550781 38.457031 36.621094 38.386719 36.972656 L 38.035156 38.988281 C 37.988281 39.175781 37.988281 39.222656 37.988281 39.292969 C 37.988281 39.785156 40.402344 40.628906 40.519531 40.675781 C 42.089844 41.167969 43.355469 41.214844 43.941406 41.214844 C 47.457031 41.214844 49.636719 39.644531 49.636719 36.035156 C 49.636719 33.433594 47.714844 31.464844 45.371094 30.925781 Z M 43.144531 30.410156 "/>
<path fill-rule="nonzero" fill="rgb(0%, 0%, 0%)" fill-opacity="1" d="M 53.453125 24.480469 C 52.726562 24.480469 52.351562 24.621094 52.351562 25.558594 L 52.351562 26.636719 C 52.351562 27.386719 52.585938 27.691406 53.429688 27.691406 L 54.648438 27.691406 C 55.773438 27.691406 55.773438 27.199219 55.773438 26.097656 C 55.773438 24.972656 55.773438 24.480469 54.648438 24.480469 Z M 55.609375 31.136719 C 55.609375 30.386719 55.445312 30.011719 54.484375 30.011719 L 53.617188 30.011719 C 52.796875 30.011719 52.515625 30.269531 52.515625 31.136719 L 52.515625 39.574219 C 52.515625 40.417969 52.773438 40.699219 53.617188 40.699219 L 54.484375 40.699219 C 55.375 40.699219 55.609375 40.394531 55.609375 39.574219 Z M 55.609375 31.136719 "/>
<path fill-rule="nonzero" fill="rgb(0%, 0%, 0%)" fill-opacity="1" d="M 74.835938 37.417969 C 74.835938 36.105469 74.132812 35.285156 73.710938 34.910156 C 72.773438 34.066406 71.976562 33.925781 70.992188 33.738281 C 69.703125 33.527344 68.765625 33.339844 68.765625 32.425781 C 68.765625 31.464844 69.539062 31.277344 70.453125 31.277344 C 72.023438 31.277344 72.84375 31.863281 73.453125 32.378906 C 73.6875 32.613281 73.734375 32.613281 73.828125 32.613281 C 74.0625 32.613281 74.109375 32.402344 74.132812 32.308594 C 74.179688 32.121094 74.414062 30.808594 74.414062 30.691406 C 74.414062 30.316406 73.171875 29.988281 72.914062 29.894531 C 72 29.636719 71.25 29.613281 70.640625 29.613281 C 69.585938 29.613281 66.46875 29.613281 66.46875 32.964844 C 66.46875 34.089844 66.984375 34.792969 67.617188 35.355469 C 68.414062 36.105469 69.328125 36.269531 70.664062 36.527344 C 71.34375 36.644531 72.539062 36.855469 72.539062 37.886719 C 72.539062 38.964844 71.625 39.128906 70.710938 39.128906 C 69.679688 39.128906 68.367188 38.824219 67.289062 37.535156 C 67.171875 37.417969 67.101562 37.347656 66.960938 37.347656 C 66.726562 37.347656 66.679688 37.558594 66.65625 37.699219 C 66.609375 38.027344 66.328125 39.339844 66.328125 39.574219 C 66.328125 39.996094 68.039062 40.535156 68.0625 40.558594 C 69.351562 40.957031 70.3125 40.957031 70.710938 40.957031 C 71.90625 40.957031 74.835938 40.863281 74.835938 37.417969 Z M 74.835938 37.417969 "/>
<path fill-rule="nonzero" fill="rgb(0%, 0%, 0%)" fill-opacity="1" d="M 85.371094 25.160156 C 85.488281 25.066406 85.628906 24.949219 85.628906 24.808594 C 85.628906 24.503906 85.371094 24.503906 84.996094 24.503906 L 83.074219 24.503906 C 82.605469 24.503906 82.582031 24.527344 82.371094 24.785156 L 80.378906 27.527344 C 80.167969 27.785156 80.167969 27.832031 80.167969 27.878906 C 80.167969 28.183594 80.425781 28.183594 80.800781 28.183594 L 81.667969 28.183594 Z M 85.371094 25.160156 "/>
<path fill-rule="nonzero" fill="rgb(0%, 0%, 0%)" fill-opacity="1" d="M 85.488281 35.707031 C 86.027344 35.707031 86.613281 35.683594 86.613281 34.628906 C 86.613281 31.628906 85.207031 29.613281 81.738281 29.613281 C 77.988281 29.613281 76.160156 31.722656 76.160156 35.261719 C 76.160156 39.082031 78.363281 40.957031 82.042969 40.957031 C 82.910156 40.957031 84.246094 40.839844 85.792969 40.066406 C 86.308594 39.808594 86.472656 39.738281 86.472656 39.457031 C 86.472656 39.292969 86.402344 38.613281 86.378906 38.425781 C 86.285156 37.722656 86.261719 37.699219 86.050781 37.699219 C 85.957031 37.699219 85.910156 37.699219 85.652344 37.933594 C 84.269531 39.105469 82.863281 39.269531 82.136719 39.269531 C 79.488281 39.269531 79.207031 37.207031 79.136719 35.707031 Z M 79.160156 34.464844 C 79.230469 33.058594 79.699219 31.300781 81.738281 31.300781 C 83.589844 31.300781 83.941406 32.660156 84.011719 34.464844 Z M 79.160156 34.464844 "/>
<path fill-rule="nonzero" fill="rgb(0%, 0%, 0%)" fill-opacity="1" d="M 107.527344 30.878906 C 107.527344 30.128906 107.363281 29.753906 106.402344 29.753906 L 105.535156 29.753906 C 104.644531 29.753906 104.410156 30.058594 104.410156 30.878906 L 104.410156 31.324219 C 103.378906 29.753906 102.019531 29.753906 101.621094 29.753906 C 97.121094 29.753906 96.746094 33.527344 96.746094 35.378906 C 96.746094 37.207031 97.121094 40.957031 101.457031 40.957031 C 102.699219 40.957031 103.542969 40.488281 104.339844 39.574219 L 104.339844 44.097656 C 104.339844 44.847656 104.503906 45.222656 105.464844 45.222656 L 106.402344 45.222656 C 107.292969 45.222656 107.527344 44.917969 107.527344 44.097656 Z M 104.410156 38.027344 C 103.988281 38.589844 103.355469 39.269531 102.300781 39.269531 C 99.910156 39.269531 99.910156 36.316406 99.910156 35.402344 C 99.910156 34.464844 99.910156 31.582031 102.535156 31.582031 C 102.886719 31.582031 103.378906 31.675781 103.800781 32.121094 C 104.410156 32.707031 104.410156 33.128906 104.410156 33.410156 Z M 104.410156 38.027344 "/>
<path fill-rule="nonzero" fill="rgb(0%, 0%, 0%)" fill-opacity="1" d="M 120.609375 31.136719 C 120.609375 30.386719 120.46875 30.011719 119.507812 30.011719 L 118.570312 30.011719 C 117.679688 30.011719 117.445312 30.316406 117.445312 31.136719 L 117.445312 36.667969 C 117.445312 38.214844 116.625 39.527344 114.984375 39.527344 C 113.671875 39.527344 113.53125 39.199219 113.53125 37.980469 L 113.53125 31.136719 C 113.53125 30.386719 113.367188 30.011719 112.40625 30.011719 L 111.46875 30.011719 C 110.648438 30.011719 110.367188 30.269531 110.367188 31.136719 L 110.367188 37.769531 C 110.367188 40.253906 111.703125 40.957031 114.140625 40.957031 C 114.773438 40.957031 116.414062 40.957031 117.515625 38.964844 L 117.515625 39.574219 C 117.515625 40.324219 117.679688 40.699219 118.640625 40.699219 L 119.507812 40.699219 C 120.398438 40.699219 120.609375 40.394531 120.609375 39.574219 Z M 120.609375 31.136719 "/>
<path fill-rule="nonzero" fill="rgb(0%, 0%, 0%)" fill-opacity="1" d="M 132.09375 35.707031 C 132.632812 35.707031 133.21875 35.683594 133.21875 34.628906 C 133.21875 31.628906 131.8125 29.613281 128.34375 29.613281 C 124.59375 29.613281 122.765625 31.722656 122.765625 35.261719 C 122.765625 39.082031 124.96875 40.957031 128.648438 40.957031 C 129.515625 40.957031 130.851562 40.839844 132.398438 40.066406 C 132.914062 39.808594 133.078125 39.738281 133.078125 39.457031 C 133.078125 39.292969 133.007812 38.613281 132.984375 38.425781 C 132.890625 37.722656 132.867188 37.699219 132.65625 37.699219 C 132.5625 37.699219 132.515625 37.699219 132.257812 37.933594 C 130.875 39.105469 129.46875 39.269531 128.742188 39.269531 C 126.09375 39.269531 125.8125 37.207031 125.742188 35.707031 Z M 125.765625 34.464844 C 125.835938 33.058594 126.304688 31.300781 128.34375 31.300781 C 130.195312 31.300781 130.546875 32.660156 130.617188 34.464844 Z M 125.765625 34.464844 "/>
<path fill-rule="nonzero" fill="rgb(0%, 0%, 0%)" fill-opacity="1" d="M 147.597656 38.285156 C 147.597656 37.675781 147.574219 37.652344 146.964844 37.652344 L 145.160156 37.652344 C 144.574219 37.652344 144.550781 37.675781 144.550781 38.285156 L 144.550781 40.066406 C 144.550781 40.675781 144.574219 40.699219 145.160156 40.699219 L 146.964844 40.699219 C 147.574219 40.699219 147.597656 40.675781 147.597656 40.066406 Z M 147.597656 38.285156 "/>
<path fill-rule="nonzero" fill="rgb(0%, 0%, 0%)" fill-opacity="1" d="M 154.722656 38.285156 C 154.722656 37.675781 154.699219 37.652344 154.089844 37.652344 L 152.285156 37.652344 C 151.699219 37.652344 151.675781 37.675781 151.675781 38.285156 L 151.675781 40.066406 C 151.675781 40.675781 151.699219 40.699219 152.285156 40.699219 L 154.089844 40.699219 C 154.699219 40.699219 154.722656 40.675781 154.722656 40.066406 Z M 154.722656 38.285156 "/>
<path fill-rule="nonzero" fill="rgb(0%, 0%, 0%)" fill-opacity="1" d="M 161.847656 38.285156 C 161.847656 37.675781 161.824219 37.652344 161.214844 37.652344 L 159.410156 37.652344 C 158.824219 37.652344 158.800781 37.675781 158.800781 38.285156 L 158.800781 40.066406 C 158.800781 40.675781 158.824219 40.699219 159.410156 40.699219 L 161.214844 40.699219 C 161.824219 40.699219 161.847656 40.675781 161.847656 40.066406 Z M 161.847656 38.285156 "/>
<path fill="none" stroke-width="1.99255" stroke-linecap="butt" stroke-linejoin="round" stroke="rgb(19.607843%, 19.607843%, 19.607843%)" stroke-opacity="1" stroke-miterlimit="10" d="M -130.004679 -17.269625 L 130.005737 -17.269625 L 130.005737 17.269438 L -130.004679 17.269438 Z M -130.004679 -17.269625 " transform="matrix(1.5, 0, 0, -1.5, 386.757019, 34.869)"/>
<path fill-rule="nonzero" fill="rgb(0%, 0%, 0%)" fill-opacity="1" d="M 290.640625 33.457031 L 296.757812 33.457031 C 297.484375 33.457031 297.882812 33.292969 297.882812 32.355469 C 297.882812 31.488281 297.578125 31.253906 296.757812 31.253906 L 290.640625 31.253906 L 290.640625 26.941406 L 291.789062 26.941406 C 293.59375 26.941406 295.445312 27.011719 297.25 27.011719 C 298.070312 27.011719 298.609375 27.011719 298.609375 25.886719 L 298.609375 25.699219 C 298.609375 24.949219 298.445312 24.574219 297.484375 24.574219 L 288.320312 24.574219 C 287.476562 24.574219 287.21875 24.832031 287.21875 25.699219 L 287.21875 39.574219 C 287.21875 40.417969 287.453125 40.699219 288.320312 40.699219 L 297.835938 40.699219 C 298.726562 40.699219 298.960938 40.394531 298.960938 39.574219 L 298.960938 39.246094 C 298.960938 38.144531 298.421875 38.144531 297.648438 38.144531 C 296.453125 38.144531 295.257812 38.191406 294.039062 38.191406 C 293.453125 38.191406 291.0625 38.214844 290.640625 38.238281 Z M 290.640625 33.457031 "/>
<path fill-rule="nonzero" fill="rgb(0%, 0%, 0%)" fill-opacity="1" d="M 311.695312 33.128906 C 311.695312 30.714844 310.6875 29.753906 308.296875 29.753906 C 305.859375 29.753906 304.804688 31.535156 304.5 32.167969 L 304.476562 32.167969 L 304.476562 30.996094 C 304.476562 30.246094 304.3125 29.871094 303.351562 29.871094 L 302.554688 29.871094 C 301.734375 29.871094 301.453125 30.128906 301.453125 30.996094 L 301.453125 39.574219 C 301.453125 40.417969 301.710938 40.699219 302.554688 40.699219 L 303.492188 40.699219 C 304.382812 40.699219 304.617188 40.394531 304.617188 39.574219 L 304.617188 34.417969 C 304.617188 32.402344 305.976562 31.441406 307.171875 31.441406 C 308.296875 31.441406 308.53125 31.980469 308.53125 33.175781 L 308.53125 39.574219 C 308.53125 40.324219 308.695312 40.699219 309.65625 40.699219 L 310.59375 40.699219 C 311.484375 40.699219 311.695312 40.394531 311.695312 39.574219 Z M 311.695312 33.128906 "/>
<path fill-rule="nonzero" fill="rgb(0%, 0%, 0%)" fill-opacity="1" d="M 318.210938 31.699219 L 320.273438 31.699219 C 320.554688 31.699219 321.398438 31.699219 321.398438 30.855469 C 321.398438 30.011719 320.554688 30.011719 320.273438 30.011719 L 318.210938 30.011719 L 318.210938 28.089844 C 318.210938 27.339844 318.046875 26.964844 317.085938 26.964844 L 316.359375 26.964844 C 315.515625 26.964844 315.257812 27.222656 315.257812 28.089844 L 315.257812 30.011719 L 314.71875 30.011719 C 314.460938 30.011719 313.59375 30.011719 313.59375 30.855469 C 313.59375 31.699219 314.4375 31.699219 314.71875 31.699219 L 315.1875 31.699219 L 315.1875 37.605469 C 315.1875 39.949219 316.007812 40.957031 317.625 40.957031 C 317.835938 40.957031 318.867188 40.957031 320.085938 40.582031 C 320.460938 40.464844 321.820312 40.042969 321.820312 39.597656 C 321.820312 39.527344 321.773438 39.363281 321.632812 38.871094 C 321.515625 38.402344 321.46875 38.285156 321.257812 38.285156 C 321.140625 38.285156 321.117188 38.308594 320.976562 38.425781 C 320.71875 38.613281 320.109375 39.128906 319.125 39.128906 C 318.5625 39.128906 318.210938 38.730469 318.210938 37.207031 Z M 318.210938 31.699219 "/>
<path fill-rule="nonzero" fill="rgb(0%, 0%, 0%)" fill-opacity="1" d="M 334.621094 35.449219 C 334.621094 31.628906 332.769531 29.613281 328.972656 29.613281 C 325.058594 29.613281 323.277344 31.699219 323.277344 35.449219 C 323.277344 39.246094 325.269531 40.957031 328.949219 40.957031 C 332.605469 40.957031 334.621094 39.269531 334.621094 35.449219 Z M 328.972656 39.128906 C 326.441406 39.128906 326.441406 37.042969 326.441406 35.167969 C 326.441406 33.386719 326.441406 31.300781 328.949219 31.300781 C 331.457031 31.300781 331.457031 33.363281 331.457031 35.167969 C 331.457031 37.019531 331.457031 39.128906 328.972656 39.128906 Z M 328.972656 39.128906 "/>
<path fill-rule="nonzero" fill="rgb(0%, 0%, 0%)" fill-opacity="1" d="M 347.019531 33.128906 C 347.019531 30.714844 346.011719 29.753906 343.621094 29.753906 C 341.183594 29.753906 340.128906 31.535156 339.824219 32.167969 L 339.800781 32.167969 L 339.800781 30.996094 C 339.800781 30.246094 339.636719 29.871094 338.675781 29.871094 L 337.878906 29.871094 C 337.058594 29.871094 336.777344 30.128906 336.777344 30.996094 L 336.777344 39.574219 C 336.777344 40.417969 337.035156 40.699219 337.878906 40.699219 L 338.816406 40.699219 C 339.707031 40.699219 339.941406 40.394531 339.941406 39.574219 L 339.941406 34.417969 C 339.941406 32.402344 341.300781 31.441406 342.496094 31.441406 C 343.621094 31.441406 343.855469 31.980469 343.855469 33.175781 L 343.855469 39.574219 C 343.855469 40.324219 344.019531 40.699219 344.980469 40.699219 L 345.917969 40.699219 C 346.808594 40.699219 347.019531 40.394531 347.019531 39.574219 Z M 347.019531 33.128906 "/>
<path fill-rule="nonzero" fill="rgb(0%, 0%, 0%)" fill-opacity="1" d="M 359.117188 39.527344 C 359.117188 39.269531 359.023438 38.214844 358.976562 37.910156 C 358.976562 37.839844 358.929688 37.605469 358.695312 37.605469 C 358.601562 37.605469 358.554688 37.605469 358.320312 37.839844 C 357.921875 38.191406 356.820312 39.128906 354.921875 39.128906 C 352.484375 39.128906 352.484375 36.785156 352.484375 35.285156 C 352.484375 33.410156 352.601562 31.441406 354.992188 31.441406 C 356.492188 31.441406 357.125 31.816406 357.96875 32.519531 C 358.25 32.777344 358.296875 32.777344 358.390625 32.777344 C 358.625 32.777344 358.671875 32.566406 358.695312 32.472656 C 358.742188 32.285156 358.976562 30.972656 358.976562 30.855469 C 358.976562 30.644531 358.8125 30.550781 358.414062 30.363281 C 357.289062 29.847656 356.585938 29.613281 354.96875 29.613281 C 351.476562 29.613281 349.320312 31.253906 349.320312 35.332031 C 349.320312 39.199219 351.3125 40.957031 354.851562 40.957031 C 355.460938 40.957031 356.867188 40.933594 358.4375 40.136719 C 359.09375 39.785156 359.117188 39.761719 359.117188 39.527344 Z M 359.117188 39.527344 "/>
<path fill-rule="nonzero" fill="rgb(0%, 0%, 0%)" fill-opacity="1" d="M 369.902344 35.707031 C 370.441406 35.707031 371.027344 35.683594 371.027344 34.628906 C 371.027344 31.628906 369.621094 29.613281 366.152344 29.613281 C 362.402344 29.613281 360.574219 31.722656 360.574219 35.261719 C 360.574219 39.082031 362.777344 40.957031 366.457031 40.957031 C 367.324219 40.957031 368.660156 40.839844 370.207031 40.066406 C 370.722656 39.808594 370.886719 39.738281 370.886719 39.457031 C 370.886719 39.292969 370.816406 38.613281 370.792969 38.425781 C 370.699219 37.722656 370.675781 37.699219 370.464844 37.699219 C 370.371094 37.699219 370.324219 37.699219 370.066406 37.933594 C 368.683594 39.105469 367.277344 39.269531 366.550781 39.269531 C 363.902344 39.269531 363.621094 37.207031 363.550781 35.707031 Z M 363.574219 34.464844 C 363.644531 33.058594 364.113281 31.300781 366.152344 31.300781 C 368.003906 31.300781 368.355469 32.660156 368.425781 34.464844 Z M 363.574219 34.464844 "/>
<path fill-rule="nonzero" fill="rgb(0%, 0%, 0%)" fill-opacity="1" d="M 381 37.417969 C 381 36.105469 380.296875 35.285156 379.875 34.910156 C 378.9375 34.066406 378.140625 33.925781 377.15625 33.738281 C 375.867188 33.527344 374.929688 33.339844 374.929688 32.425781 C 374.929688 31.464844 375.703125 31.277344 376.617188 31.277344 C 378.1875 31.277344 379.007812 31.863281 379.617188 32.378906 C 379.851562 32.613281 379.898438 32.613281 379.992188 32.613281 C 380.226562 32.613281 380.273438 32.402344 380.296875 32.308594 C 380.34375 32.121094 380.578125 30.808594 380.578125 30.691406 C 380.578125 30.316406 379.335938 29.988281 379.078125 29.894531 C 378.164062 29.636719 377.414062 29.613281 376.804688 29.613281 C 375.75 29.613281 372.632812 29.613281 372.632812 32.964844 C 372.632812 34.089844 373.148438 34.792969 373.78125 35.355469 C 374.578125 36.105469 375.492188 36.269531 376.828125 36.527344 C 377.507812 36.644531 378.703125 36.855469 378.703125 37.886719 C 378.703125 38.964844 377.789062 39.128906 376.875 39.128906 C 375.84375 39.128906 374.53125 38.824219 373.453125 37.535156 C 373.335938 37.417969 373.265625 37.347656 373.125 37.347656 C 372.890625 37.347656 372.84375 37.558594 372.820312 37.699219 C 372.773438 38.027344 372.492188 39.339844 372.492188 39.574219 C 372.492188 39.996094 374.203125 40.535156 374.226562 40.558594 C 375.515625 40.957031 376.476562 40.957031 376.875 40.957031 C 378.070312 40.957031 381 40.863281 381 37.417969 Z M 381 37.417969 "/>
<path fill-rule="nonzero" fill="rgb(0%, 0%, 0%)" fill-opacity="1" d="M 399.386719 37.417969 C 399.386719 36.105469 398.683594 35.285156 398.261719 34.910156 C 397.324219 34.066406 396.527344 33.925781 395.542969 33.738281 C 394.253906 33.527344 393.316406 33.339844 393.316406 32.425781 C 393.316406 31.464844 394.089844 31.277344 395.003906 31.277344 C 396.574219 31.277344 397.394531 31.863281 398.003906 32.378906 C 398.238281 32.613281 398.285156 32.613281 398.378906 32.613281 C 398.613281 32.613281 398.660156 32.402344 398.683594 32.308594 C 398.730469 32.121094 398.964844 30.808594 398.964844 30.691406 C 398.964844 30.316406 397.722656 29.988281 397.464844 29.894531 C 396.550781 29.636719 395.800781 29.613281 395.191406 29.613281 C 394.136719 29.613281 391.019531 29.613281 391.019531 32.964844 C 391.019531 34.089844 391.535156 34.792969 392.167969 35.355469 C 392.964844 36.105469 393.878906 36.269531 395.214844 36.527344 C 395.894531 36.644531 397.089844 36.855469 397.089844 37.886719 C 397.089844 38.964844 396.175781 39.128906 395.261719 39.128906 C 394.230469 39.128906 392.917969 38.824219 391.839844 37.535156 C 391.722656 37.417969 391.652344 37.347656 391.511719 37.347656 C 391.277344 37.347656 391.230469 37.558594 391.207031 37.699219 C 391.160156 38.027344 390.878906 39.339844 390.878906 39.574219 C 390.878906 39.996094 392.589844 40.535156 392.613281 40.558594 C 393.902344 40.957031 394.863281 40.957031 395.261719 40.957031 C 396.457031 40.957031 399.386719 40.863281 399.386719 37.417969 Z M 399.386719 37.417969 "/>
<path fill-rule="nonzero" fill="rgb(0%, 0%, 0%)" fill-opacity="1" d="M 409.921875 25.160156 C 410.039062 25.066406 410.179688 24.949219 410.179688 24.808594 C 410.179688 24.503906 409.921875 24.503906 409.546875 24.503906 L 407.625 24.503906 C 407.15625 24.503906 407.132812 24.527344 406.921875 24.785156 L 404.929688 27.527344 C 404.71875 27.785156 404.71875 27.832031 404.71875 27.878906 C 404.71875 28.183594 404.976562 28.183594 405.351562 28.183594 L 406.21875 28.183594 Z M 409.921875 25.160156 "/>
<path fill-rule="nonzero" fill="rgb(0%, 0%, 0%)" fill-opacity="1" d="M 410.035156 35.707031 C 410.574219 35.707031 411.160156 35.683594 411.160156 34.628906 C 411.160156 31.628906 409.753906 29.613281 406.285156 29.613281 C 402.535156 29.613281 400.707031 31.722656 400.707031 35.261719 C 400.707031 39.082031 402.910156 40.957031 406.589844 40.957031 C 407.457031 40.957031 408.792969 40.839844 410.339844 40.066406 C 410.855469 39.808594 411.019531 39.738281 411.019531 39.457031 C 411.019531 39.292969 410.949219 38.613281 410.925781 38.425781 C 410.832031 37.722656 410.808594 37.699219 410.597656 37.699219 C 410.503906 37.699219 410.457031 37.699219 410.199219 37.933594 C 408.816406 39.105469 407.410156 39.269531 406.683594 39.269531 C 404.035156 39.269531 403.753906 37.207031 403.683594 35.707031 Z M 403.707031 34.464844 C 403.777344 33.058594 404.246094 31.300781 406.285156 31.300781 C 408.136719 31.300781 408.488281 32.660156 408.558594 34.464844 Z M 403.707031 34.464844 "/>
<path fill-rule="nonzero" fill="rgb(0%, 0%, 0%)" fill-opacity="1" d="M 432.078125 30.878906 C 432.078125 30.128906 431.914062 29.753906 430.953125 29.753906 L 430.085938 29.753906 C 429.195312 29.753906 428.960938 30.058594 428.960938 30.878906 L 428.960938 31.324219 C 427.929688 29.753906 426.570312 29.753906 426.171875 29.753906 C 421.671875 29.753906 421.296875 33.527344 421.296875 35.378906 C 421.296875 37.207031 421.671875 40.957031 426.007812 40.957031 C 427.25 40.957031 428.09375 40.488281 428.890625 39.574219 L 428.890625 44.097656 C 428.890625 44.847656 429.054688 45.222656 430.015625 45.222656 L 430.953125 45.222656 C 431.84375 45.222656 432.078125 44.917969 432.078125 44.097656 Z M 428.960938 38.027344 C 428.539062 38.589844 427.90625 39.269531 426.851562 39.269531 C 424.460938 39.269531 424.460938 36.316406 424.460938 35.402344 C 424.460938 34.464844 424.460938 31.582031 427.085938 31.582031 C 427.4375 31.582031 427.929688 31.675781 428.351562 32.121094 C 428.960938 32.707031 428.960938 33.128906 428.960938 33.410156 Z M 428.960938 38.027344 "/>
<path fill-rule="nonzero" fill="rgb(0%, 0%, 0%)" fill-opacity="1" d="M 445.160156 31.136719 C 445.160156 30.386719 445.019531 30.011719 444.058594 30.011719 L 443.121094 30.011719 C 442.230469 30.011719 441.996094 30.316406 441.996094 31.136719 L 441.996094 36.667969 C 441.996094 38.214844 441.175781 39.527344 439.535156 39.527344 C 438.222656 39.527344 438.082031 39.199219 438.082031 37.980469 L 438.082031 31.136719 C 438.082031 30.386719 437.917969 30.011719 436.957031 30.011719 L 436.019531 30.011719 C 435.199219 30.011719 434.917969 30.269531 434.917969 31.136719 L 434.917969 37.769531 C 434.917969 40.253906 436.253906 40.957031 438.691406 40.957031 C 439.324219 40.957031 440.964844 40.957031 442.066406 38.964844 L 442.066406 39.574219 C 442.066406 40.324219 442.230469 40.699219 443.191406 40.699219 L 444.058594 40.699219 C 444.949219 40.699219 445.160156 40.394531 445.160156 39.574219 Z M 445.160156 31.136719 "/>
<path fill-rule="nonzero" fill="rgb(0%, 0%, 0%)" fill-opacity="1" d="M 456.644531 35.707031 C 457.183594 35.707031 457.769531 35.683594 457.769531 34.628906 C 457.769531 31.628906 456.363281 29.613281 452.894531 29.613281 C 449.144531 29.613281 447.316406 31.722656 447.316406 35.261719 C 447.316406 39.082031 449.519531 40.957031 453.199219 40.957031 C 454.066406 40.957031 455.402344 40.839844 456.949219 40.066406 C 457.464844 39.808594 457.628906 39.738281 457.628906 39.457031 C 457.628906 39.292969 457.558594 38.613281 457.535156 38.425781 C 457.441406 37.722656 457.417969 37.699219 457.207031 37.699219 C 457.113281 37.699219 457.066406 37.699219 456.808594 37.933594 C 455.425781 39.105469 454.019531 39.269531 453.292969 39.269531 C 450.644531 39.269531 450.363281 37.207031 450.292969 35.707031 Z M 450.316406 34.464844 C 450.386719 33.058594 450.855469 31.300781 452.894531 31.300781 C 454.746094 31.300781 455.097656 32.660156 455.167969 34.464844 Z M 450.316406 34.464844 "/>
<path fill-rule="nonzero" fill="rgb(0%, 0%, 0%)" fill-opacity="1" d="M 472.148438 38.285156 C 472.148438 37.675781 472.125 37.652344 471.515625 37.652344 L 469.710938 37.652344 C 469.125 37.652344 469.101562 37.675781 469.101562 38.285156 L 469.101562 40.066406 C 469.101562 40.675781 469.125 40.699219 469.710938 40.699219 L 471.515625 40.699219 C 472.125 40.699219 472.148438 40.675781 472.148438 40.066406 Z M 472.148438 38.285156 "/>
<path fill-rule="nonzero" fill="rgb(0%, 0%, 0%)" fill-opacity="1" d="M 479.273438 38.285156 C 479.273438 37.675781 479.25 37.652344 478.640625 37.652344 L 476.835938 37.652344 C 476.25 37.652344 476.226562 37.675781 476.226562 38.285156 L 476.226562 40.066406 C 476.226562 40.675781 476.25 40.699219 476.835938 40.699219 L 478.640625 40.699219 C 479.25 40.699219 479.273438 40.675781 479.273438 40.066406 Z M 479.273438 38.285156 "/>
<path fill-rule="nonzero" fill="rgb(0%, 0%, 0%)" fill-opacity="1" d="M 486.398438 38.285156 C 486.398438 37.675781 486.375 37.652344 485.765625 37.652344 L 483.960938 37.652344 C 483.375 37.652344 483.351562 37.675781 483.351562 38.285156 L 483.351562 40.066406 C 483.351562 40.675781 483.375 40.699219 483.960938 40.699219 L 485.765625 40.699219 C 486.375 40.699219 486.398438 40.675781 486.398438 40.066406 Z M 486.398438 38.285156 "/>
<path fill="none" stroke-width="0.99628" stroke-linecap="butt" stroke-linejoin="round" stroke="rgb(19.607843%, 19.607843%, 19.607843%)" stroke-opacity="1" stroke-miterlimit="10" d="M -60.929436 -17.270082 L 60.929939 -17.270082 L 60.929939 17.268981 L -60.929436 17.268981 Z M -60.929436 -17.270082 " transform="matrix(1.5, 0, 0, -1.5, 100.358997, 87.423002)"/>
<path fill-rule="nonzero" fill="rgb(0%, 0%, 0%)" fill-opacity="1" d="M 49.40625 82.15625 C 49.96875 80.65625 51.398438 79.648438 52.96875 79.648438 C 54.164062 79.648438 55.265625 80.328125 55.265625 81.851562 C 55.265625 83.398438 54.210938 84.6875 52.945312 84.96875 C 52.828125 84.992188 51.351562 85.109375 51.117188 85.132812 L 51.117188 86.539062 L 52.78125 86.539062 C 55.171875 86.539062 55.757812 88.578125 55.757812 89.867188 C 55.757812 91.765625 54.609375 93.171875 52.945312 93.171875 C 51.445312 93.171875 49.617188 92.421875 48.539062 90.757812 L 48.28125 92.117188 C 49.78125 94.203125 51.84375 94.578125 52.992188 94.578125 C 55.710938 94.578125 57.773438 92.351562 57.773438 89.890625 C 57.773438 88.085938 56.578125 86.515625 54.585938 85.835938 C 56.226562 84.945312 57.140625 83.375 57.140625 81.851562 C 57.140625 79.835938 55.242188 78.3125 52.992188 78.3125 C 51.117188 78.3125 49.476562 79.34375 48.585938 80.890625 Z M 49.40625 82.15625 "/>
<path fill-rule="nonzero" fill="rgb(0%, 0%, 0%)" fill-opacity="1" d="M 74.246094 87.59375 L 69.582031 82.953125 C 69.300781 82.671875 69.253906 82.625 69.066406 82.625 C 68.832031 82.625 68.597656 82.835938 68.597656 83.09375 C 68.597656 83.257812 68.644531 83.304688 68.902344 83.5625 L 73.566406 88.25 L 68.902344 92.9375 C 68.644531 93.195312 68.597656 93.242188 68.597656 93.40625 C 68.597656 93.664062 68.832031 93.875 69.066406 93.875 C 69.253906 93.875 69.300781 93.828125 69.582031 93.546875 L 74.222656 88.90625 L 79.050781 93.734375 C 79.097656 93.757812 79.261719 93.875 79.402344 93.875 C 79.683594 93.875 79.871094 93.664062 79.871094 93.40625 C 79.871094 93.359375 79.871094 93.265625 79.800781 93.148438 C 79.777344 93.101562 76.074219 89.445312 74.902344 88.25 L 79.167969 83.984375 C 79.285156 83.84375 79.636719 83.539062 79.753906 83.398438 C 79.777344 83.351562 79.871094 83.257812 79.871094 83.09375 C 79.871094 82.835938 79.683594 82.625 79.402344 82.625 C 79.214844 82.625 79.121094 82.71875 78.863281 82.976562 Z M 74.246094 87.59375 "/>
<path fill-rule="nonzero" fill="rgb(0%, 0%, 0%)" fill-opacity="1" d="M 98.257812 90.078125 L 100.53125 90.078125 L 100.53125 88.671875 L 98.257812 88.671875 L 98.257812 78.804688 L 96.171875 78.804688 L 90.382812 88.671875 L 90.382812 90.078125 L 96.429688 90.078125 L 96.429688 94.085938 L 98.257812 94.085938 Z M 92.164062 88.671875 C 92.84375 87.476562 93.757812 86 94.742188 84.125 C 95.023438 83.585938 96.546875 80.726562 96.546875 79.859375 L 96.546875 88.671875 Z M 92.164062 88.671875 "/>
<path fill-rule="nonzero" fill="rgb(0%, 0%, 0%)" fill-opacity="1" d="M 126.542969 86.46875 C 126.871094 86.46875 127.269531 86.46875 127.269531 86.046875 C 127.269531 85.601562 126.894531 85.601562 126.542969 85.601562 L 112.808594 85.601562 C 112.480469 85.601562 112.058594 85.601562 112.058594 86.023438 C 112.058594 86.46875 112.457031 86.46875 112.808594 86.46875 Z M 126.542969 90.945312 C 126.871094 90.945312 127.269531 90.945312 127.269531 90.523438 C 127.269531 90.078125 126.894531 90.078125 126.542969 90.078125 L 112.808594 90.078125 C 112.480469 90.078125 112.058594 90.078125 112.058594 90.5 C 112.058594 90.945312 112.457031 90.945312 112.808594 90.945312 Z M 126.542969 90.945312 "/>
<path fill-rule="nonzero" fill="rgb(0%, 0%, 0%)" fill-opacity="1" d="M 145.042969 78.3125 L 144.597656 78.3125 C 144.222656 78.6875 143.097656 79.789062 140.566406 79.835938 C 140.261719 79.835938 140.238281 79.859375 140.238281 80.28125 L 140.238281 81.21875 C 141.644531 81.21875 142.722656 80.867188 143.214844 80.65625 L 143.214844 92.726562 L 140.378906 92.726562 L 140.378906 94.085938 L 147.878906 94.085938 L 147.878906 92.726562 L 145.042969 92.726562 Z M 145.042969 78.3125 "/>
<path fill-rule="nonzero" fill="rgb(0%, 0%, 0%)" fill-opacity="1" d="M 150.738281 92.609375 L 150.738281 94.085938 L 159.855469 94.085938 L 159.855469 92.492188 L 155.707031 92.492188 C 155.425781 92.492188 155.144531 92.515625 154.863281 92.515625 L 152.355469 92.515625 C 152.964844 91.882812 155.144531 89.75 156.644531 88.390625 C 158.378906 86.890625 159.855469 85.4375 159.855469 83.28125 C 159.855469 80.703125 158.050781 78.3125 154.980469 78.3125 C 152.449219 78.3125 151.183594 79.976562 150.550781 82.15625 C 151.300781 83.070312 151.300781 83.117188 151.511719 83.398438 C 152.074219 80.914062 152.941406 79.765625 154.675781 79.765625 C 156.667969 79.765625 157.980469 81.335938 157.980469 83.328125 C 157.980469 84.546875 157.488281 85.90625 155.941406 87.429688 Z M 150.738281 92.609375 "/>
<path fill="none" stroke-width="0.99628" stroke-linecap="butt" stroke-linejoin="round" stroke="rgb(19.607843%, 19.607843%, 19.607843%)" stroke-opacity="1" stroke-miterlimit="10" d="M -130.004679 -17.270082 L 130.005737 -17.270082 L 130.005737 17.268981 L -130.004679 17.268981 Z M -130.004679 -17.270082 " transform="matrix(1.5, 0, 0, -1.5, 386.757019, 87.423002)"/>
<path fill-rule="nonzero" fill="rgb(0%, 0%, 0%)" fill-opacity="1" d="M 260.570312 77.828125 L 260.125 77.828125 C 259.75 78.203125 258.625 79.304688 256.09375 79.351562 C 255.789062 79.351562 255.765625 79.375 255.765625 79.796875 L 255.765625 80.734375 C 257.171875 80.734375 258.25 80.382812 258.742188 80.171875 L 258.742188 92.242188 L 255.90625 92.242188 L 255.90625 93.601562 L 263.40625 93.601562 L 263.40625 92.242188 L 260.570312 92.242188 Z M 260.570312 77.828125 "/>
<path fill-rule="nonzero" fill="rgb(0%, 0%, 0%)" fill-opacity="1" d="M 266.265625 92.125 L 266.265625 93.601562 L 275.382812 93.601562 L 275.382812 92.007812 L 271.234375 92.007812 C 270.953125 92.007812 270.671875 92.03125 270.390625 92.03125 L 267.882812 92.03125 C 268.492188 91.398438 270.671875 89.265625 272.171875 87.90625 C 273.90625 86.40625 275.382812 84.953125 275.382812 82.796875 C 275.382812 80.21875 273.578125 77.828125 270.507812 77.828125 C 267.976562 77.828125 266.710938 79.492188 266.078125 81.671875 C 266.828125 82.585938 266.828125 82.632812 267.039062 82.914062 C 267.601562 80.429688 268.46875 79.28125 270.203125 79.28125 C 272.195312 79.28125 273.507812 80.851562 273.507812 82.84375 C 273.507812 84.0625 273.015625 85.421875 271.46875 86.945312 Z M 266.265625 92.125 "/>
<path fill-rule="nonzero" fill="rgb(0%, 0%, 0%)" fill-opacity="1" d="M 295.3125 82.726562 C 295.3125 81.976562 294.679688 81.273438 293.8125 81.273438 C 292.921875 81.273438 292.3125 81.976562 292.3125 82.726562 C 292.3125 83.476562 292.945312 84.203125 293.8125 84.203125 C 294.703125 84.203125 295.3125 83.476562 295.3125 82.726562 Z M 295.3125 92.804688 C 295.3125 92.054688 294.679688 91.328125 293.8125 91.328125 C 292.921875 91.328125 292.3125 92.054688 292.3125 92.804688 C 292.3125 93.554688 292.945312 94.28125 293.8125 94.28125 C 294.703125 94.28125 295.3125 93.554688 295.3125 92.804688 Z M 286.851562 87.296875 C 286.453125 87.296875 286.03125 87.296875 286.03125 87.765625 C 286.03125 88.234375 286.453125 88.234375 286.851562 88.234375 L 300.796875 88.234375 C 301.171875 88.234375 301.59375 88.234375 301.59375 87.765625 C 301.59375 87.296875 301.171875 87.296875 300.796875 87.296875 Z M 286.851562 87.296875 "/>
<path fill-rule="nonzero" fill="rgb(0%, 0%, 0%)" fill-opacity="1" d="M 319.597656 89.59375 L 321.871094 89.59375 L 321.871094 88.1875 L 319.597656 88.1875 L 319.597656 78.320312 L 317.511719 78.320312 L 311.722656 88.1875 L 311.722656 89.59375 L 317.769531 89.59375 L 317.769531 93.601562 L 319.597656 93.601562 Z M 313.503906 88.1875 C 314.183594 86.992188 315.097656 85.515625 316.082031 83.640625 C 316.363281 83.101562 317.886719 80.242188 317.886719 79.375 L 317.886719 88.1875 Z M 313.503906 88.1875 "/>
<path fill-rule="nonzero" fill="rgb(0%, 0%, 0%)" fill-opacity="1" d="M 352.308594 85.984375 C 352.636719 85.984375 353.035156 85.984375 353.035156 85.5625 C 353.035156 85.117188 352.660156 85.117188 352.308594 85.117188 L 338.574219 85.117188 C 338.246094 85.117188 337.824219 85.117188 337.824219 85.539062 C 337.824219 85.984375 338.222656 85.984375 338.574219 85.984375 Z M 352.308594 90.460938 C 352.636719 90.460938 353.035156 90.460938 353.035156 90.039062 C 353.035156 89.59375 352.660156 89.59375 352.308594 89.59375 L 338.574219 89.59375 C 338.246094 89.59375 337.824219 89.59375 337.824219 90.015625 C 337.824219 90.460938 338.222656 90.460938 338.574219 90.460938 Z M 352.308594 90.460938 "/>
<path fill-rule="nonzero" fill="rgb(0%, 0%, 0%)" fill-opacity="1" d="M 370.457031 81.671875 C 371.019531 80.171875 372.449219 79.164062 374.019531 79.164062 C 375.214844 79.164062 376.316406 79.84375 376.316406 81.367188 C 376.316406 82.914062 375.261719 84.203125 373.996094 84.484375 C 373.878906 84.507812 372.402344 84.625 372.167969 84.648438 L 372.167969 86.054688 L 373.832031 86.054688 C 376.222656 86.054688 376.808594 88.09375 376.808594 89.382812 C 376.808594 91.28125 375.660156 92.6875 373.996094 92.6875 C 372.496094 92.6875 370.667969 91.9375 369.589844 90.273438 L 369.332031 91.632812 C 370.832031 93.71875 372.894531 94.09375 374.042969 94.09375 C 376.761719 94.09375 378.824219 91.867188 378.824219 89.40625 C 378.824219 87.601562 377.628906 86.03125 375.636719 85.351562 C 377.277344 84.460938 378.191406 82.890625 378.191406 81.367188 C 378.191406 79.351562 376.292969 77.828125 374.042969 77.828125 C 372.167969 77.828125 370.527344 78.859375 369.636719 80.40625 Z M 370.457031 81.671875 "/>
<path fill-rule="nonzero" fill="rgb(0%, 0%, 0%)" fill-opacity="1" d="M 383.886719 93.578125 L 383.886719 91.703125 L 382.011719 91.703125 L 382.011719 93.601562 L 382.574219 93.601562 L 382.011719 96.507812 L 382.925781 96.507812 Z M 383.886719 93.578125 "/>
<path fill-rule="nonzero" fill="rgb(0%, 0%, 0%)" fill-opacity="1" d="M 400.59375 77.828125 L 400.148438 77.828125 C 399.773438 78.203125 398.648438 79.304688 396.117188 79.351562 C 395.8125 79.351562 395.789062 79.375 395.789062 79.796875 L 395.789062 80.734375 C 397.195312 80.734375 398.273438 80.382812 398.765625 80.171875 L 398.765625 92.242188 L 395.929688 92.242188 L 395.929688 93.601562 L 403.429688 93.601562 L 403.429688 92.242188 L 400.59375 92.242188 Z M 400.59375 77.828125 "/>
<path fill-rule="nonzero" fill="rgb(0%, 0%, 0%)" fill-opacity="1" d="M 406.289062 92.125 L 406.289062 93.601562 L 415.40625 93.601562 L 415.40625 92.007812 L 411.257812 92.007812 C 410.976562 92.007812 410.695312 92.03125 410.414062 92.03125 L 407.90625 92.03125 C 408.515625 91.398438 410.695312 89.265625 412.195312 87.90625 C 413.929688 86.40625 415.40625 84.953125 415.40625 82.796875 C 415.40625 80.21875 413.601562 77.828125 410.53125 77.828125 C 408 77.828125 406.734375 79.492188 406.101562 81.671875 C 406.851562 82.585938 406.851562 82.632812 407.0625 82.914062 C 407.625 80.429688 408.492188 79.28125 410.226562 79.28125 C 412.21875 79.28125 413.53125 80.851562 413.53125 82.84375 C 413.53125 84.0625 413.039062 85.421875 411.492188 86.945312 Z M 406.289062 92.125 "/>
<path fill-rule="nonzero" fill="rgb(0%, 0%, 0%)" fill-opacity="1" d="M 435.34375 82.726562 C 435.34375 81.976562 434.710938 81.273438 433.84375 81.273438 C 432.953125 81.273438 432.34375 81.976562 432.34375 82.726562 C 432.34375 83.476562 432.976562 84.203125 433.84375 84.203125 C 434.734375 84.203125 435.34375 83.476562 435.34375 82.726562 Z M 435.34375 92.804688 C 435.34375 92.054688 434.710938 91.328125 433.84375 91.328125 C 432.953125 91.328125 432.34375 92.054688 432.34375 92.804688 C 432.34375 93.554688 432.976562 94.28125 433.84375 94.28125 C 434.734375 94.28125 435.34375 93.554688 435.34375 92.804688 Z M 426.882812 87.296875 C 426.484375 87.296875 426.0625 87.296875 426.0625 87.765625 C 426.0625 88.234375 426.484375 88.234375 426.882812 88.234375 L 440.828125 88.234375 C 441.203125 88.234375 441.625 88.234375 441.625 87.765625 C 441.625 87.296875 441.203125 87.296875 440.828125 87.296875 Z M 426.882812 87.296875 "/>
<path fill-rule="nonzero" fill="rgb(0%, 0%, 0%)" fill-opacity="1" d="M 453.203125 81.671875 C 453.765625 80.171875 455.195312 79.164062 456.765625 79.164062 C 457.960938 79.164062 459.0625 79.84375 459.0625 81.367188 C 459.0625 82.914062 458.007812 84.203125 456.742188 84.484375 C 456.625 84.507812 455.148438 84.625 454.914062 84.648438 L 454.914062 86.054688 L 456.578125 86.054688 C 458.96875 86.054688 459.554688 88.09375 459.554688 89.382812 C 459.554688 91.28125 458.40625 92.6875 456.742188 92.6875 C 455.242188 92.6875 453.414062 91.9375 452.335938 90.273438 L 452.078125 91.632812 C 453.578125 93.71875 455.640625 94.09375 456.789062 94.09375 C 459.507812 94.09375 461.570312 91.867188 461.570312 89.40625 C 461.570312 87.601562 460.375 86.03125 458.382812 85.351562 C 460.023438 84.460938 460.9375 82.890625 460.9375 81.367188 C 460.9375 79.351562 459.039062 77.828125 456.789062 77.828125 C 454.914062 77.828125 453.273438 78.859375 452.382812 80.40625 Z M 453.203125 81.671875 "/>
<path fill-rule="nonzero" fill="rgb(0%, 0%, 0%)" fill-opacity="1" d="M 492.335938 85.984375 C 492.664062 85.984375 493.0625 85.984375 493.0625 85.5625 C 493.0625 85.117188 492.6875 85.117188 492.335938 85.117188 L 478.601562 85.117188 C 478.273438 85.117188 477.851562 85.117188 477.851562 85.539062 C 477.851562 85.984375 478.25 85.984375 478.601562 85.984375 Z M 492.335938 90.460938 C 492.664062 90.460938 493.0625 90.460938 493.0625 90.039062 C 493.0625 89.59375 492.6875 89.59375 492.335938 89.59375 L 478.601562 89.59375 C 478.273438 89.59375 477.851562 89.59375 477.851562 90.015625 C 477.851562 90.460938 478.25 90.460938 478.601562 90.460938 Z M 492.335938 90.460938 "/>
<path fill-rule="nonzero" fill="rgb(0%, 0%, 0%)" fill-opacity="1" d="M 516.90625 89.59375 L 519.179688 89.59375 L 519.179688 88.1875 L 516.90625 88.1875 L 516.90625 78.320312 L 514.820312 78.320312 L 509.03125 88.1875 L 509.03125 89.59375 L 515.078125 89.59375 L 515.078125 93.601562 L 516.90625 93.601562 Z M 510.8125 88.1875 C 511.492188 86.992188 512.40625 85.515625 513.390625 83.640625 C 513.671875 83.101562 515.195312 80.242188 515.195312 79.375 L 515.195312 88.1875 Z M 510.8125 88.1875 "/>
<path fill="none" stroke-width="0.99628" stroke-linecap="butt" stroke-linejoin="round" stroke="rgb(19.607843%, 19.607843%, 19.607843%)" stroke-opacity="1" stroke-miterlimit="10" d="M -60.929436 -27.629896 L 60.929939 -27.629896 L 60.929939 27.627917 L -60.929436 27.627917 Z M -60.929436 -27.629896 " transform="matrix(1.5, 0, 0, -1.5, 100.358997, 154.77)"/>
<path fill-rule="nonzero" fill="rgb(0%, 0%, 0%)" fill-opacity="1" d="M 44.035156 159.957031 L 44.035156 161.433594 L 53.152344 161.433594 L 53.152344 159.839844 L 49.003906 159.839844 C 48.722656 159.839844 48.441406 159.863281 48.160156 159.863281 L 45.652344 159.863281 C 46.261719 159.230469 48.441406 157.097656 49.941406 155.738281 C 51.675781 154.238281 53.152344 152.785156 53.152344 150.628906 C 53.152344 148.050781 51.347656 145.660156 48.277344 145.660156 C 45.746094 145.660156 44.480469 147.324219 43.847656 149.503906 C 44.597656 150.417969 44.597656 150.464844 44.808594 150.746094 C 45.371094 148.261719 46.238281 147.113281 47.972656 147.113281 C 49.964844 147.113281 51.277344 148.683594 51.277344 150.675781 C 51.277344 151.894531 50.785156 153.253906 49.238281 154.777344 Z M 44.035156 159.957031 "/>
<path fill-rule="nonzero" fill="rgb(0%, 0%, 0%)" fill-opacity="1" d="M 69.992188 154.941406 L 65.328125 150.300781 C 65.046875 150.019531 65 149.972656 64.8125 149.972656 C 64.578125 149.972656 64.34375 150.183594 64.34375 150.441406 C 64.34375 150.605469 64.390625 150.652344 64.648438 150.910156 L 69.3125 155.597656 L 64.648438 160.285156 C 64.390625 160.542969 64.34375 160.589844 64.34375 160.753906 C 64.34375 161.011719 64.578125 161.222656 64.8125 161.222656 C 65 161.222656 65.046875 161.175781 65.328125 160.894531 L 69.96875 156.253906 L 74.796875 161.082031 C 74.84375 161.105469 75.007812 161.222656 75.148438 161.222656 C 75.429688 161.222656 75.617188 161.011719 75.617188 160.753906 C 75.617188 160.707031 75.617188 160.613281 75.546875 160.496094 C 75.523438 160.449219 71.820312 156.792969 70.648438 155.597656 L 74.914062 151.332031 C 75.03125 151.191406 75.382812 150.886719 75.5 150.746094 C 75.523438 150.699219 75.617188 150.605469 75.617188 150.441406 C 75.617188 150.183594 75.429688 149.972656 75.148438 149.972656 C 74.960938 149.972656 74.867188 150.066406 74.609375 150.324219 Z M 69.992188 154.941406 "/>
<path fill-rule="nonzero" fill="rgb(0%, 0%, 0%)" fill-opacity="1" d="M 92.941406 153.183594 C 94.417969 152.738281 95.824219 151.449219 95.824219 149.738281 C 95.824219 147.535156 93.855469 145.660156 91.394531 145.660156 C 88.816406 145.660156 86.941406 147.605469 86.941406 149.738281 C 86.941406 151.472656 88.347656 152.761719 89.800781 153.183594 C 87.925781 153.816406 86.636719 155.363281 86.636719 157.238281 C 86.636719 159.722656 88.699219 161.925781 91.371094 161.925781 C 94.113281 161.925781 96.128906 159.675781 96.128906 157.238281 C 96.128906 155.363281 94.839844 153.816406 92.941406 153.183594 Z M 91.394531 152.480469 C 89.542969 152.480469 88.535156 151.238281 88.535156 149.761719 C 88.535156 147.980469 89.800781 146.996094 91.371094 146.996094 C 93.035156 146.996094 94.207031 148.050781 94.207031 149.761719 C 94.207031 151.308594 93.128906 152.480469 91.394531 152.480469 Z M 91.394531 160.519531 C 89.824219 160.519531 88.464844 159.394531 88.464844 157.214844 C 88.464844 154.707031 90.152344 153.886719 91.371094 153.886719 C 92.660156 153.886719 94.277344 154.777344 94.277344 157.214844 C 94.277344 159.464844 92.847656 160.519531 91.394531 160.519531 Z M 91.394531 160.519531 "/>
<path fill-rule="nonzero" fill="rgb(0%, 0%, 0%)" fill-opacity="1" d="M 122.910156 153.816406 C 123.238281 153.816406 123.636719 153.816406 123.636719 153.394531 C 123.636719 152.949219 123.261719 152.949219 122.910156 152.949219 L 109.175781 152.949219 C 108.847656 152.949219 108.425781 152.949219 108.425781 153.371094 C 108.425781 153.816406 108.824219 153.816406 109.175781 153.816406 Z M 122.910156 158.292969 C 123.238281 158.292969 123.636719 158.292969 123.636719 157.871094 C 123.636719 157.425781 123.261719 157.425781 122.910156 157.425781 L 109.175781 157.425781 C 108.847656 157.425781 108.425781 157.425781 108.425781 157.847656 C 108.425781 158.292969 108.824219 158.292969 109.175781 158.292969 Z M 122.910156 158.292969 "/>
<path fill-rule="nonzero" fill="rgb(0%, 0%, 0%)" fill-opacity="1" d="M 141.878906 145.660156 L 141.433594 145.660156 C 141.058594 146.035156 139.933594 147.136719 137.402344 147.183594 C 137.097656 147.183594 137.074219 147.207031 137.074219 147.628906 L 137.074219 148.566406 C 138.480469 148.566406 139.558594 148.214844 140.050781 148.003906 L 140.050781 160.074219 L 137.214844 160.074219 L 137.214844 161.433594 L 144.714844 161.433594 L 144.714844 160.074219 L 141.878906 160.074219 Z M 141.878906 145.660156 "/>
<path fill-rule="nonzero" fill="rgb(0%, 0%, 0%)" fill-opacity="1" d="M 155.917969 146.128906 C 154.957031 145.777344 154.277344 145.660156 153.457031 145.660156 C 150.316406 145.660156 147.410156 148.917969 147.410156 153.933594 C 147.410156 160.613281 150.316406 161.925781 152.167969 161.925781 C 153.550781 161.925781 154.558594 161.363281 155.472656 160.285156 C 156.527344 159.042969 156.855469 157.941406 156.855469 156.253906 C 156.855469 153.277344 155.308594 150.722656 153.199219 150.722656 C 151.464844 150.722656 150.152344 151.566406 149.285156 152.621094 C 149.542969 149.175781 151.207031 146.996094 153.503906 146.996094 C 154.511719 146.996094 155.238281 147.230469 155.917969 147.488281 Z M 149.308594 156.347656 C 149.308594 156.160156 149.308594 155.855469 149.332031 155.691406 C 149.332031 154.074219 150.269531 152.128906 152.285156 152.128906 C 153.058594 152.128906 153.785156 152.339844 154.464844 153.511719 C 154.980469 154.449219 155.003906 155.363281 155.003906 156.277344 C 155.003906 157.238281 155.003906 158.246094 154.300781 159.277344 C 153.878906 159.910156 153.316406 160.519531 152.167969 160.519531 C 149.730469 160.519531 149.378906 157.097656 149.308594 156.347656 Z M 149.308594 156.347656 "/>
<path fill="none" stroke-width="0.99628" stroke-linecap="butt" stroke-linejoin="round" stroke="rgb(19.607843%, 19.607843%, 19.607843%)" stroke-opacity="1" stroke-miterlimit="10" d="M -130.004679 -27.629896 L 130.005737 -27.629896 L 130.005737 27.627917 L -130.004679 27.627917 Z M -130.004679 -27.629896 " transform="matrix(1.5, 0, 0, -1.5, 386.757019, 154.77)"/>
<path fill-rule="nonzero" fill="rgb(0%, 0%, 0%)" fill-opacity="1" d="M 258.300781 131.1875 L 257.855469 131.1875 C 257.480469 131.5625 256.355469 132.664062 253.824219 132.710938 C 253.519531 132.710938 253.496094 132.734375 253.496094 133.15625 L 253.496094 134.09375 C 254.902344 134.09375 255.980469 133.742188 256.472656 133.53125 L 256.472656 145.601562 L 253.636719 145.601562 L 253.636719 146.960938 L 261.136719 146.960938 L 261.136719 145.601562 L 258.300781 145.601562 Z M 258.300781 131.1875 "/>
<path fill-rule="nonzero" fill="rgb(0%, 0%, 0%)" fill-opacity="1" d="M 272.339844 131.65625 C 271.378906 131.304688 270.699219 131.1875 269.878906 131.1875 C 266.738281 131.1875 263.832031 134.445312 263.832031 139.460938 C 263.832031 146.140625 266.738281 147.453125 268.589844 147.453125 C 269.972656 147.453125 270.980469 146.890625 271.894531 145.8125 C 272.949219 144.570312 273.277344 143.46875 273.277344 141.78125 C 273.277344 138.804688 271.730469 136.25 269.621094 136.25 C 267.886719 136.25 266.574219 137.09375 265.707031 138.148438 C 265.964844 134.703125 267.628906 132.523438 269.925781 132.523438 C 270.933594 132.523438 271.660156 132.757812 272.339844 133.015625 Z M 265.730469 141.875 C 265.730469 141.6875 265.730469 141.382812 265.753906 141.21875 C 265.753906 139.601562 266.691406 137.65625 268.707031 137.65625 C 269.480469 137.65625 270.207031 137.867188 270.886719 139.039062 C 271.402344 139.976562 271.425781 140.890625 271.425781 141.804688 C 271.425781 142.765625 271.425781 143.773438 270.722656 144.804688 C 270.300781 145.4375 269.738281 146.046875 268.589844 146.046875 C 266.152344 146.046875 265.800781 142.625 265.730469 141.875 Z M 265.730469 141.875 "/>
<path fill-rule="nonzero" fill="rgb(0%, 0%, 0%)" fill-opacity="1" d="M 292.914062 136.085938 C 292.914062 135.335938 292.28125 134.632812 291.414062 134.632812 C 290.523438 134.632812 289.914062 135.335938 289.914062 136.085938 C 289.914062 136.835938 290.546875 137.5625 291.414062 137.5625 C 292.304688 137.5625 292.914062 136.835938 292.914062 136.085938 Z M 292.914062 146.164062 C 292.914062 145.414062 292.28125 144.6875 291.414062 144.6875 C 290.523438 144.6875 289.914062 145.414062 289.914062 146.164062 C 289.914062 146.914062 290.546875 147.640625 291.414062 147.640625 C 292.304688 147.640625 292.914062 146.914062 292.914062 146.164062 Z M 284.453125 140.65625 C 284.054688 140.65625 283.632812 140.65625 283.632812 141.125 C 283.632812 141.59375 284.054688 141.59375 284.453125 141.59375 L 298.398438 141.59375 C 298.773438 141.59375 299.195312 141.59375 299.195312 141.125 C 299.195312 140.65625 298.773438 140.65625 298.398438 140.65625 Z M 284.453125 140.65625 "/>
<path fill-rule="nonzero" fill="rgb(0%, 0%, 0%)" fill-opacity="1" d="M 309.707031 145.484375 L 309.707031 146.960938 L 318.824219 146.960938 L 318.824219 145.367188 L 314.675781 145.367188 C 314.394531 145.367188 314.113281 145.390625 313.832031 145.390625 L 311.324219 145.390625 C 311.933594 144.757812 314.113281 142.625 315.613281 141.265625 C 317.347656 139.765625 318.824219 138.3125 318.824219 136.15625 C 318.824219 133.578125 317.019531 131.1875 313.949219 131.1875 C 311.417969 131.1875 310.152344 132.851562 309.519531 135.03125 C 310.269531 135.945312 310.269531 135.992188 310.480469 136.273438 C 311.042969 133.789062 311.910156 132.640625 313.644531 132.640625 C 315.636719 132.640625 316.949219 134.210938 316.949219 136.203125 C 316.949219 137.421875 316.457031 138.78125 314.910156 140.304688 Z M 309.707031 145.484375 "/>
<path fill-rule="nonzero" fill="rgb(0%, 0%, 0%)" fill-opacity="1" d="M 349.457031 139.34375 C 349.785156 139.34375 350.183594 139.34375 350.183594 138.921875 C 350.183594 138.476562 349.808594 138.476562 349.457031 138.476562 L 335.722656 138.476562 C 335.394531 138.476562 334.972656 138.476562 334.972656 138.898438 C 334.972656 139.34375 335.371094 139.34375 335.722656 139.34375 Z M 349.457031 143.820312 C 349.785156 143.820312 350.183594 143.820312 350.183594 143.398438 C 350.183594 142.953125 349.808594 142.953125 349.457031 142.953125 L 335.722656 142.953125 C 335.394531 142.953125 334.972656 142.953125 334.972656 143.375 C 334.972656 143.820312 335.371094 143.820312 335.722656 143.820312 Z M 349.457031 143.820312 "/>
<path fill-rule="nonzero" fill="rgb(0%, 0%, 0%)" fill-opacity="1" d="M 372.457031 138.710938 C 373.933594 138.265625 375.339844 136.976562 375.339844 135.265625 C 375.339844 133.0625 373.371094 131.1875 370.910156 131.1875 C 368.332031 131.1875 366.457031 133.132812 366.457031 135.265625 C 366.457031 137 367.863281 138.289062 369.316406 138.710938 C 367.441406 139.34375 366.152344 140.890625 366.152344 142.765625 C 366.152344 145.25 368.214844 147.453125 370.886719 147.453125 C 373.628906 147.453125 375.644531 145.203125 375.644531 142.765625 C 375.644531 140.890625 374.355469 139.34375 372.457031 138.710938 Z M 370.910156 138.007812 C 369.058594 138.007812 368.050781 136.765625 368.050781 135.289062 C 368.050781 133.507812 369.316406 132.523438 370.886719 132.523438 C 372.550781 132.523438 373.722656 133.578125 373.722656 135.289062 C 373.722656 136.835938 372.644531 138.007812 370.910156 138.007812 Z M 370.910156 146.046875 C 369.339844 146.046875 367.980469 144.921875 367.980469 142.742188 C 367.980469 140.234375 369.667969 139.414062 370.886719 139.414062 C 372.175781 139.414062 373.792969 140.304688 373.792969 142.742188 C 373.792969 144.992188 372.363281 146.046875 370.910156 146.046875 Z M 370.910156 146.046875 "/>
<path fill-rule="nonzero" fill="rgb(0%, 0%, 0%)" fill-opacity="1" d="M 380.707031 146.9375 L 380.707031 145.0625 L 378.832031 145.0625 L 378.832031 146.960938 L 379.394531 146.960938 L 378.832031 149.867188 L 379.746094 149.867188 Z M 380.707031 146.9375 "/>
<path fill-rule="nonzero" fill="rgb(0%, 0%, 0%)" fill-opacity="1" d="M 397.4375 131.1875 L 396.992188 131.1875 C 396.617188 131.5625 395.492188 132.664062 392.960938 132.710938 C 392.65625 132.710938 392.632812 132.734375 392.632812 133.15625 L 392.632812 134.09375 C 394.039062 134.09375 395.117188 133.742188 395.609375 133.53125 L 395.609375 145.601562 L 392.773438 145.601562 L 392.773438 146.960938 L 400.273438 146.960938 L 400.273438 145.601562 L 397.4375 145.601562 Z M 397.4375 131.1875 "/>
<path fill-rule="nonzero" fill="rgb(0%, 0%, 0%)" fill-opacity="1" d="M 411.476562 131.65625 C 410.515625 131.304688 409.835938 131.1875 409.015625 131.1875 C 405.875 131.1875 402.96875 134.445312 402.96875 139.460938 C 402.96875 146.140625 405.875 147.453125 407.726562 147.453125 C 409.109375 147.453125 410.117188 146.890625 411.03125 145.8125 C 412.085938 144.570312 412.414062 143.46875 412.414062 141.78125 C 412.414062 138.804688 410.867188 136.25 408.757812 136.25 C 407.023438 136.25 405.710938 137.09375 404.84375 138.148438 C 405.101562 134.703125 406.765625 132.523438 409.0625 132.523438 C 410.070312 132.523438 410.796875 132.757812 411.476562 133.015625 Z M 404.867188 141.875 C 404.867188 141.6875 404.867188 141.382812 404.890625 141.21875 C 404.890625 139.601562 405.828125 137.65625 407.84375 137.65625 C 408.617188 137.65625 409.34375 137.867188 410.023438 139.039062 C 410.539062 139.976562 410.5625 140.890625 410.5625 141.804688 C 410.5625 142.765625 410.5625 143.773438 409.859375 144.804688 C 409.4375 145.4375 408.875 146.046875 407.726562 146.046875 C 405.289062 146.046875 404.9375 142.625 404.867188 141.875 Z M 404.867188 141.875 "/>
<path fill-rule="nonzero" fill="rgb(0%, 0%, 0%)" fill-opacity="1" d="M 432.042969 136.085938 C 432.042969 135.335938 431.410156 134.632812 430.542969 134.632812 C 429.652344 134.632812 429.042969 135.335938 429.042969 136.085938 C 429.042969 136.835938 429.675781 137.5625 430.542969 137.5625 C 431.433594 137.5625 432.042969 136.835938 432.042969 136.085938 Z M 432.042969 146.164062 C 432.042969 145.414062 431.410156 144.6875 430.542969 144.6875 C 429.652344 144.6875 429.042969 145.414062 429.042969 146.164062 C 429.042969 146.914062 429.675781 147.640625 430.542969 147.640625 C 431.433594 147.640625 432.042969 146.914062 432.042969 146.164062 Z M 423.582031 140.65625 C 423.183594 140.65625 422.761719 140.65625 422.761719 141.125 C 422.761719 141.59375 423.183594 141.59375 423.582031 141.59375 L 437.527344 141.59375 C 437.902344 141.59375 438.324219 141.59375 438.324219 141.125 C 438.324219 140.65625 437.902344 140.65625 437.527344 140.65625 Z M 423.582031 140.65625 "/>
<path fill-rule="nonzero" fill="rgb(0%, 0%, 0%)" fill-opacity="1" d="M 454.953125 138.710938 C 456.429688 138.265625 457.835938 136.976562 457.835938 135.265625 C 457.835938 133.0625 455.867188 131.1875 453.40625 131.1875 C 450.828125 131.1875 448.953125 133.132812 448.953125 135.265625 C 448.953125 137 450.359375 138.289062 451.8125 138.710938 C 449.9375 139.34375 448.648438 140.890625 448.648438 142.765625 C 448.648438 145.25 450.710938 147.453125 453.382812 147.453125 C 456.125 147.453125 458.140625 145.203125 458.140625 142.765625 C 458.140625 140.890625 456.851562 139.34375 454.953125 138.710938 Z M 453.40625 138.007812 C 451.554688 138.007812 450.546875 136.765625 450.546875 135.289062 C 450.546875 133.507812 451.8125 132.523438 453.382812 132.523438 C 455.046875 132.523438 456.21875 133.578125 456.21875 135.289062 C 456.21875 136.835938 455.140625 138.007812 453.40625 138.007812 Z M 453.40625 146.046875 C 451.835938 146.046875 450.476562 144.921875 450.476562 142.742188 C 450.476562 140.234375 452.164062 139.414062 453.382812 139.414062 C 454.671875 139.414062 456.289062 140.304688 456.289062 142.742188 C 456.289062 144.992188 454.859375 146.046875 453.40625 146.046875 Z M 453.40625 146.046875 "/>
<path fill-rule="nonzero" fill="rgb(0%, 0%, 0%)" fill-opacity="1" d="M 488.582031 139.34375 C 488.910156 139.34375 489.308594 139.34375 489.308594 138.921875 C 489.308594 138.476562 488.933594 138.476562 488.582031 138.476562 L 474.847656 138.476562 C 474.519531 138.476562 474.097656 138.476562 474.097656 138.898438 C 474.097656 139.34375 474.496094 139.34375 474.847656 139.34375 Z M 488.582031 143.820312 C 488.910156 143.820312 489.308594 143.820312 489.308594 143.398438 C 489.308594 142.953125 488.933594 142.953125 488.582031 142.953125 L 474.847656 142.953125 C 474.519531 142.953125 474.097656 142.953125 474.097656 143.375 C 474.097656 143.820312 474.496094 143.820312 474.847656 143.820312 Z M 488.582031 143.820312 "/>
<path fill-rule="nonzero" fill="rgb(0%, 0%, 0%)" fill-opacity="1" d="M 505.46875 145.484375 L 505.46875 146.960938 L 514.585938 146.960938 L 514.585938 145.367188 L 510.4375 145.367188 C 510.15625 145.367188 509.875 145.390625 509.59375 145.390625 L 507.085938 145.390625 C 507.695312 144.757812 509.875 142.625 511.375 141.265625 C 513.109375 139.765625 514.585938 138.3125 514.585938 136.15625 C 514.585938 133.578125 512.78125 131.1875 509.710938 131.1875 C 507.179688 131.1875 505.914062 132.851562 505.28125 135.03125 C 506.03125 135.945312 506.03125 135.992188 506.242188 136.273438 C 506.804688 133.789062 507.671875 132.640625 509.40625 132.640625 C 511.398438 132.640625 512.710938 134.210938 512.710938 136.203125 C 512.710938 137.421875 512.21875 138.78125 510.671875 140.304688 Z M 505.46875 145.484375 "/>
<path fill-rule="nonzero" fill="rgb(0%, 0%, 0%)" fill-opacity="1" d="M 519.835938 146.9375 L 519.835938 145.0625 L 517.960938 145.0625 L 517.960938 146.960938 L 518.523438 146.960938 L 517.960938 149.867188 L 518.875 149.867188 Z M 519.835938 146.9375 "/>
<path fill-rule="nonzero" fill="rgb(0%, 0%, 0%)" fill-opacity="1" d="M 260.96875 166.6875 C 262.445312 166.242188 263.851562 164.953125 263.851562 163.242188 C 263.851562 161.039062 261.882812 159.164062 259.421875 159.164062 C 256.84375 159.164062 254.96875 161.109375 254.96875 163.242188 C 254.96875 164.976562 256.375 166.265625 257.828125 166.6875 C 255.953125 167.320312 254.664062 168.867188 254.664062 170.742188 C 254.664062 173.226562 256.726562 175.429688 259.398438 175.429688 C 262.140625 175.429688 264.15625 173.179688 264.15625 170.742188 C 264.15625 168.867188 262.867188 167.320312 260.96875 166.6875 Z M 259.421875 165.984375 C 257.570312 165.984375 256.5625 164.742188 256.5625 163.265625 C 256.5625 161.484375 257.828125 160.5 259.398438 160.5 C 261.0625 160.5 262.234375 161.554688 262.234375 163.265625 C 262.234375 164.8125 261.15625 165.984375 259.421875 165.984375 Z M 259.421875 174.023438 C 257.851562 174.023438 256.492188 172.898438 256.492188 170.71875 C 256.492188 168.210938 258.179688 167.390625 259.398438 167.390625 C 260.6875 167.390625 262.304688 168.28125 262.304688 170.71875 C 262.304688 172.96875 260.875 174.023438 259.421875 174.023438 Z M 259.421875 174.023438 "/>
<path fill-rule="nonzero" fill="rgb(0%, 0%, 0%)" fill-opacity="1" d="M 294.925781 167.320312 C 295.253906 167.320312 295.652344 167.320312 295.652344 166.898438 C 295.652344 166.453125 295.277344 166.453125 294.925781 166.453125 L 281.191406 166.453125 C 280.863281 166.453125 280.441406 166.453125 280.441406 166.875 C 280.441406 167.320312 280.839844 167.320312 281.191406 167.320312 Z M 294.925781 171.796875 C 295.253906 171.796875 295.652344 171.796875 295.652344 171.375 C 295.652344 170.929688 295.277344 170.929688 294.925781 170.929688 L 281.191406 170.929688 C 280.863281 170.929688 280.441406 170.929688 280.441406 171.351562 C 280.441406 171.796875 280.839844 171.796875 281.191406 171.796875 Z M 294.925781 171.796875 "/>
<path fill-rule="nonzero" fill="rgb(0%, 0%, 0%)" fill-opacity="1" d="M 317.855469 159.164062 L 317.410156 159.164062 C 317.035156 159.539062 315.910156 160.640625 313.378906 160.6875 C 313.074219 160.6875 313.050781 160.710938 313.050781 161.132812 L 313.050781 162.070312 C 314.457031 162.070312 315.535156 161.71875 316.027344 161.507812 L 316.027344 173.578125 L 313.191406 173.578125 L 313.191406 174.9375 L 320.691406 174.9375 L 320.691406 173.578125 L 317.855469 173.578125 Z M 317.855469 159.164062 "/>
<path fill-rule="nonzero" fill="rgb(0%, 0%, 0%)" fill-opacity="1" d="M 331.890625 159.632812 C 330.929688 159.28125 330.25 159.164062 329.429688 159.164062 C 326.289062 159.164062 323.382812 162.421875 323.382812 167.4375 C 323.382812 174.117188 326.289062 175.429688 328.140625 175.429688 C 329.523438 175.429688 330.53125 174.867188 331.445312 173.789062 C 332.5 172.546875 332.828125 171.445312 332.828125 169.757812 C 332.828125 166.78125 331.28125 164.226562 329.171875 164.226562 C 327.4375 164.226562 326.125 165.070312 325.257812 166.125 C 325.515625 162.679688 327.179688 160.5 329.476562 160.5 C 330.484375 160.5 331.210938 160.734375 331.890625 160.992188 Z M 325.28125 169.851562 C 325.28125 169.664062 325.28125 169.359375 325.304688 169.195312 C 325.304688 167.578125 326.242188 165.632812 328.257812 165.632812 C 329.03125 165.632812 329.757812 165.84375 330.4375 167.015625 C 330.953125 167.953125 330.976562 168.867188 330.976562 169.78125 C 330.976562 170.742188 330.976562 171.75 330.273438 172.78125 C 329.851562 173.414062 329.289062 174.023438 328.140625 174.023438 C 325.703125 174.023438 325.351562 170.601562 325.28125 169.851562 Z M 325.28125 169.851562 "/>
<path fill-rule="nonzero" fill="rgb(0%, 0%, 0%)" fill-opacity="1" d="M 352.59375 164.0625 C 352.59375 163.3125 351.960938 162.609375 351.09375 162.609375 C 350.203125 162.609375 349.59375 163.3125 349.59375 164.0625 C 349.59375 164.8125 350.226562 165.539062 351.09375 165.539062 C 351.984375 165.539062 352.59375 164.8125 352.59375 164.0625 Z M 352.59375 174.140625 C 352.59375 173.390625 351.960938 172.664062 351.09375 172.664062 C 350.203125 172.664062 349.59375 173.390625 349.59375 174.140625 C 349.59375 174.890625 350.226562 175.617188 351.09375 175.617188 C 351.984375 175.617188 352.59375 174.890625 352.59375 174.140625 Z M 344.132812 168.632812 C 343.734375 168.632812 343.3125 168.632812 343.3125 169.101562 C 343.3125 169.570312 343.734375 169.570312 344.132812 169.570312 L 358.078125 169.570312 C 358.453125 169.570312 358.875 169.570312 358.875 169.101562 C 358.875 168.632812 358.453125 168.632812 358.078125 168.632812 Z M 344.132812 168.632812 "/>
<path fill-rule="nonzero" fill="rgb(0%, 0%, 0%)" fill-opacity="1" d="M 369.515625 173.460938 L 369.515625 174.9375 L 378.632812 174.9375 L 378.632812 173.34375 L 374.484375 173.34375 C 374.203125 173.34375 373.921875 173.367188 373.640625 173.367188 L 371.132812 173.367188 C 371.742188 172.734375 373.921875 170.601562 375.421875 169.242188 C 377.15625 167.742188 378.632812 166.289062 378.632812 164.132812 C 378.632812 161.554688 376.828125 159.164062 373.757812 159.164062 C 371.226562 159.164062 369.960938 160.828125 369.328125 163.007812 C 370.078125 163.921875 370.078125 163.96875 370.289062 164.25 C 370.851562 161.765625 371.71875 160.617188 373.453125 160.617188 C 375.445312 160.617188 376.757812 162.1875 376.757812 164.179688 C 376.757812 165.398438 376.265625 166.757812 374.71875 168.28125 Z M 369.515625 173.460938 "/>
<path fill-rule="nonzero" fill="rgb(0%, 0%, 0%)" fill-opacity="1" d="M 383.882812 174.914062 L 383.882812 173.039062 L 382.007812 173.039062 L 382.007812 174.9375 L 382.570312 174.9375 L 382.007812 177.84375 L 382.921875 177.84375 Z M 383.882812 174.914062 "/>
<path fill-rule="nonzero" fill="rgb(0%, 0%, 0%)" fill-opacity="1" d="M 394.871094 173.460938 L 394.871094 174.9375 L 403.988281 174.9375 L 403.988281 173.34375 L 399.839844 173.34375 C 399.558594 173.34375 399.277344 173.367188 398.996094 173.367188 L 396.488281 173.367188 C 397.097656 172.734375 399.277344 170.601562 400.777344 169.242188 C 402.511719 167.742188 403.988281 166.289062 403.988281 164.132812 C 403.988281 161.554688 402.183594 159.164062 399.113281 159.164062 C 396.582031 159.164062 395.316406 160.828125 394.683594 163.007812 C 395.433594 163.921875 395.433594 163.96875 395.644531 164.25 C 396.207031 161.765625 397.074219 160.617188 398.808594 160.617188 C 400.800781 160.617188 402.113281 162.1875 402.113281 164.179688 C 402.113281 165.398438 401.621094 166.757812 400.074219 168.28125 Z M 394.871094 173.460938 "/>
<path fill-rule="nonzero" fill="rgb(0%, 0%, 0%)" fill-opacity="1" d="M 434.945312 167.320312 C 435.273438 167.320312 435.671875 167.320312 435.671875 166.898438 C 435.671875 166.453125 435.296875 166.453125 434.945312 166.453125 L 421.210938 166.453125 C 420.882812 166.453125 420.460938 166.453125 420.460938 166.875 C 420.460938 167.320312 420.859375 167.320312 421.210938 167.320312 Z M 434.945312 171.796875 C 435.273438 171.796875 435.671875 171.796875 435.671875 171.375 C 435.671875 170.929688 435.296875 170.929688 434.945312 170.929688 L 421.210938 170.929688 C 420.882812 170.929688 420.460938 170.929688 420.460938 171.351562 C 420.460938 171.796875 420.859375 171.796875 421.210938 171.796875 Z M 434.945312 171.796875 "/>
<path fill-rule="nonzero" fill="rgb(0%, 0%, 0%)" fill-opacity="1" d="M 457.875 159.164062 L 457.429688 159.164062 C 457.054688 159.539062 455.929688 160.640625 453.398438 160.6875 C 453.09375 160.6875 453.070312 160.710938 453.070312 161.132812 L 453.070312 162.070312 C 454.476562 162.070312 455.554688 161.71875 456.046875 161.507812 L 456.046875 173.578125 L 453.210938 173.578125 L 453.210938 174.9375 L 460.710938 174.9375 L 460.710938 173.578125 L 457.875 173.578125 Z M 457.875 159.164062 "/>
<path fill-rule="nonzero" fill="rgb(0%, 0%, 0%)" fill-opacity="1" d="M 471.914062 159.632812 C 470.953125 159.28125 470.273438 159.164062 469.453125 159.164062 C 466.3125 159.164062 463.40625 162.421875 463.40625 167.4375 C 463.40625 174.117188 466.3125 175.429688 468.164062 175.429688 C 469.546875 175.429688 470.554688 174.867188 471.46875 173.789062 C 472.523438 172.546875 472.851562 171.445312 472.851562 169.757812 C 472.851562 166.78125 471.304688 164.226562 469.195312 164.226562 C 467.460938 164.226562 466.148438 165.070312 465.28125 166.125 C 465.539062 162.679688 467.203125 160.5 469.5 160.5 C 470.507812 160.5 471.234375 160.734375 471.914062 160.992188 Z M 465.304688 169.851562 C 465.304688 169.664062 465.304688 169.359375 465.328125 169.195312 C 465.328125 167.578125 466.265625 165.632812 468.28125 165.632812 C 469.054688 165.632812 469.78125 165.84375 470.460938 167.015625 C 470.976562 167.953125 471 168.867188 471 169.78125 C 471 170.742188 471 171.75 470.296875 172.78125 C 469.875 173.414062 469.3125 174.023438 468.164062 174.023438 C 465.726562 174.023438 465.375 170.601562 465.304688 169.851562 Z M 465.304688 169.851562 "/>
<path fill-rule="nonzero" fill="rgb(0%, 0%, 0%)" fill-opacity="1" d="M 492.621094 164.0625 C 492.621094 163.3125 491.988281 162.609375 491.121094 162.609375 C 490.230469 162.609375 489.621094 163.3125 489.621094 164.0625 C 489.621094 164.8125 490.253906 165.539062 491.121094 165.539062 C 492.011719 165.539062 492.621094 164.8125 492.621094 164.0625 Z M 492.621094 174.140625 C 492.621094 173.390625 491.988281 172.664062 491.121094 172.664062 C 490.230469 172.664062 489.621094 173.390625 489.621094 174.140625 C 489.621094 174.890625 490.253906 175.617188 491.121094 175.617188 C 492.011719 175.617188 492.621094 174.890625 492.621094 174.140625 Z M 484.160156 168.632812 C 483.761719 168.632812 483.339844 168.632812 483.339844 169.101562 C 483.339844 169.570312 483.761719 169.570312 484.160156 169.570312 L 498.105469 169.570312 C 498.480469 169.570312 498.902344 169.570312 498.902344 169.101562 C 498.902344 168.632812 498.480469 168.632812 498.105469 168.632812 Z M 484.160156 168.632812 "/>
<path fill-rule="nonzero" fill="rgb(0%, 0%, 0%)" fill-opacity="1" d="M 515.664062 166.6875 C 517.140625 166.242188 518.546875 164.953125 518.546875 163.242188 C 518.546875 161.039062 516.578125 159.164062 514.117188 159.164062 C 511.539062 159.164062 509.664062 161.109375 509.664062 163.242188 C 509.664062 164.976562 511.070312 166.265625 512.523438 166.6875 C 510.648438 167.320312 509.359375 168.867188 509.359375 170.742188 C 509.359375 173.226562 511.421875 175.429688 514.09375 175.429688 C 516.835938 175.429688 518.851562 173.179688 518.851562 170.742188 C 518.851562 168.867188 517.5625 167.320312 515.664062 166.6875 Z M 514.117188 165.984375 C 512.265625 165.984375 511.257812 164.742188 511.257812 163.265625 C 511.257812 161.484375 512.523438 160.5 514.09375 160.5 C 515.757812 160.5 516.929688 161.554688 516.929688 163.265625 C 516.929688 164.8125 515.851562 165.984375 514.117188 165.984375 Z M 514.117188 174.023438 C 512.546875 174.023438 511.1875 172.898438 511.1875 170.71875 C 511.1875 168.210938 512.875 167.390625 514.09375 167.390625 C 515.382812 167.390625 517 168.28125 517 170.71875 C 517 172.96875 515.570312 174.023438 514.117188 174.023438 Z M 514.117188 174.023438 "/>
</svg>
