<?xml version="1.0" encoding="UTF-8"?>
<svg xmlns="http://www.w3.org/2000/svg" xmlns:xlink="http://www.w3.org/1999/xlink" width="629.713486" height="347.465996" viewBox="0 0 629.713486 347.465996">
<path fill="none" stroke-width="1.99255" stroke-linecap="butt" stroke-linejoin="round" stroke="rgb(19.607843%, 19.607843%, 19.607843%)" stroke-opacity="1" stroke-miterlimit="10" d="M -65.849019 -18.806562 L 65.846293 -18.806562 L 65.846293 18.808021 L -65.849019 18.808021 Z M -65.849019 -18.806562 " transform="matrix(1.5, 0, 0, -1.5, 103.253998, 32.6925)"/>
<path fill-rule="nonzero" fill="rgb(0%, 0%, 0%)" fill-opacity="1" d="M 54.085938 34.554688 C 54.085938 35.117188 53.875 35.539062 53.453125 35.84375 C 53.007812 36.148438 52.445312 36.289062 51.71875 36.289062 C 49.703125 36.289062 48.71875 35.46875 48.71875 33.78125 L 45.578125 33.78125 C 45.578125 34.765625 45.8125 35.632812 46.328125 36.382812 C 46.820312 37.132812 47.546875 37.71875 48.507812 38.140625 C 49.46875 38.5625 50.546875 38.773438 51.71875 38.773438 C 53.382812 38.773438 54.71875 38.421875 55.726562 37.648438 C 56.710938 36.898438 57.226562 35.867188 57.226562 34.554688 C 57.226562 33.335938 56.828125 32.375 56.007812 31.601562 C 55.1875 30.828125 53.898438 30.171875 52.117188 29.609375 C 51.132812 29.304688 50.40625 29 49.914062 28.671875 C 49.398438 28.34375 49.164062 27.945312 49.164062 27.429688 C 49.164062 26.890625 49.351562 26.46875 49.796875 26.140625 C 50.21875 25.8125 50.804688 25.648438 51.578125 25.648438 C 52.375 25.648438 52.984375 25.835938 53.453125 26.234375 C 53.875 26.609375 54.109375 27.171875 54.109375 27.851562 L 57.226562 27.851562 C 57.226562 26.960938 56.992188 26.140625 56.523438 25.414062 C 56.054688 24.6875 55.398438 24.125 54.53125 23.75 C 53.6875 23.375 52.726562 23.140625 51.648438 23.140625 C 50.570312 23.140625 49.585938 23.351562 48.71875 23.703125 C 47.875 24.078125 47.195312 24.570312 46.726562 25.203125 C 46.257812 25.835938 46.046875 26.585938 46.046875 27.40625 C 46.046875 28.976562 46.914062 30.242188 48.625 31.15625 C 49.257812 31.507812 50.101562 31.882812 51.203125 32.210938 C 52.28125 32.585938 53.03125 32.914062 53.476562 33.21875 C 53.875 33.523438 54.085938 33.96875 54.085938 34.554688 Z M 54.085938 34.554688 "/>
<path fill-rule="nonzero" fill="rgb(0%, 0%, 0%)" fill-opacity="1" d="M 62.308594 38.5625 L 62.308594 27.265625 L 59.308594 27.265625 L 59.308594 38.5625 Z M 59.097656 24.359375 C 59.097656 24.828125 59.261719 25.179688 59.566406 25.484375 C 59.871094 25.789062 60.269531 25.90625 60.785156 25.90625 C 61.300781 25.90625 61.722656 25.789062 62.003906 25.484375 C 62.308594 25.179688 62.472656 24.828125 62.472656 24.359375 C 62.472656 23.890625 62.308594 23.539062 62.003906 23.234375 C 61.722656 22.929688 61.300781 22.789062 60.785156 22.789062 C 60.269531 22.789062 59.847656 22.929688 59.542969 23.234375 C 59.261719 23.539062 59.097656 23.890625 59.097656 24.359375 Z M 59.097656 24.359375 "/>
<path fill-rule="nonzero" fill="rgb(0%, 0%, 0%)" fill-opacity="1" d="M 78.015625 35.445312 C 78.015625 35.796875 77.875 36.101562 77.570312 36.3125 C 77.265625 36.523438 76.84375 36.640625 76.257812 36.640625 C 75.648438 36.640625 75.15625 36.5 74.78125 36.21875 C 74.40625 35.9375 74.21875 35.515625 74.195312 34.976562 L 71.335938 34.976562 C 71.335938 35.65625 71.523438 36.289062 71.945312 36.875 C 72.367188 37.460938 72.953125 37.929688 73.679688 38.257812 C 74.40625 38.609375 75.25 38.773438 76.210938 38.773438 C 77.617188 38.773438 78.742188 38.445312 79.632812 37.8125 C 80.523438 37.179688 80.96875 36.335938 80.96875 35.304688 C 80.96875 33.875 80.148438 32.867188 78.578125 32.28125 C 78.0625 32.117188 77.429688 31.929688 76.679688 31.789062 C 75.90625 31.648438 75.367188 31.460938 75.0625 31.25 C 74.757812 31.039062 74.59375 30.78125 74.59375 30.429688 C 74.59375 30.101562 74.734375 29.796875 74.992188 29.5625 C 75.25 29.328125 75.671875 29.210938 76.1875 29.210938 C 76.773438 29.210938 77.195312 29.351562 77.476562 29.632812 C 77.757812 29.9375 77.921875 30.265625 77.921875 30.6875 L 80.921875 30.6875 C 80.921875 29.632812 80.5 28.765625 79.632812 28.085938 C 78.789062 27.40625 77.640625 27.054688 76.210938 27.054688 C 74.851562 27.054688 73.773438 27.40625 72.929688 28.0625 C 72.085938 28.742188 71.6875 29.585938 71.6875 30.570312 C 71.6875 32.304688 73.023438 33.453125 75.71875 34.015625 C 76.515625 34.179688 77.101562 34.34375 77.453125 34.554688 C 77.828125 34.789062 78.015625 35.070312 78.015625 35.445312 Z M 78.015625 35.445312 "/>
<path fill-rule="nonzero" fill="rgb(0%, 0%, 0%)" fill-opacity="1" d="M 87.089844 22.351562 L 85.027344 25.585938 L 87.488281 25.585938 L 90.371094 22.351562 Z M 87.089844 22.351562 "/>
<path fill-rule="nonzero" fill="rgb(0%, 0%, 0%)" fill-opacity="1" d="M 88.09375 38.773438 C 89.03125 38.773438 89.875 38.609375 90.648438 38.234375 C 91.421875 37.90625 92.03125 37.390625 92.5 36.734375 L 91.023438 35.070312 C 90.367188 35.9375 89.453125 36.335938 88.304688 36.335938 C 87.53125 36.335938 86.921875 36.125 86.429688 35.679688 C 85.9375 35.257812 85.632812 34.648438 85.539062 33.898438 L 92.757812 33.898438 L 92.757812 32.65625 C 92.757812 30.898438 92.3125 29.515625 91.398438 28.53125 C 90.507812 27.546875 89.3125 27.054688 87.765625 27.054688 C 86.710938 27.054688 85.796875 27.3125 85.023438 27.78125 C 84.203125 28.273438 83.570312 28.976562 83.148438 29.867188 C 82.703125 30.757812 82.492188 31.765625 82.492188 32.890625 L 82.492188 33.195312 C 82.492188 34.882812 83.007812 36.242188 84.039062 37.25 C 85.070312 38.28125 86.429688 38.773438 88.09375 38.773438 Z M 87.742188 29.492188 C 88.398438 29.492188 88.890625 29.703125 89.21875 30.054688 C 89.570312 30.429688 89.757812 30.921875 89.78125 31.601562 L 89.78125 31.859375 L 85.585938 31.859375 C 85.679688 31.109375 85.914062 30.523438 86.289062 30.125 C 86.664062 29.703125 87.15625 29.492188 87.742188 29.492188 Z M 87.742188 29.492188 "/>
<path fill-rule="nonzero" fill="rgb(0%, 0%, 0%)" fill-opacity="1" d="M 101.078125 32.820312 C 101.078125 34.695312 101.476562 36.171875 102.273438 37.226562 C 103.09375 38.257812 104.171875 38.773438 105.507812 38.773438 C 106.609375 38.773438 107.546875 38.398438 108.25 37.601562 L 108.25 42.898438 L 111.25 42.898438 L 111.25 27.265625 L 108.601562 27.265625 L 108.414062 28.460938 C 107.6875 27.523438 106.726562 27.054688 105.53125 27.054688 C 104.148438 27.054688 103.046875 27.570312 102.25 28.601562 C 101.476562 29.632812 101.078125 31.039062 101.078125 32.820312 Z M 104.101562 33.03125 C 104.101562 31.8125 104.289062 30.921875 104.664062 30.359375 C 105.0625 29.796875 105.601562 29.492188 106.304688 29.492188 C 107.21875 29.492188 107.851562 29.867188 108.25 30.570312 L 108.25 35.234375 C 107.851562 35.984375 107.195312 36.335938 106.28125 36.335938 C 105.601562 36.335938 105.0625 36.054688 104.664062 35.515625 C 104.289062 34.953125 104.101562 34.109375 104.101562 33.03125 Z M 104.101562 33.03125 "/>
<path fill-rule="nonzero" fill="rgb(0%, 0%, 0%)" fill-opacity="1" d="M 120.371094 37.414062 L 120.464844 38.5625 L 123.277344 38.5625 L 123.277344 27.265625 L 120.277344 27.265625 L 120.277344 35.28125 C 119.878906 36.007812 119.175781 36.335938 118.167969 36.335938 C 117.089844 36.335938 116.550781 35.773438 116.550781 34.554688 L 116.550781 27.265625 L 113.550781 27.265625 L 113.550781 34.671875 C 113.550781 36.007812 113.855469 37.039062 114.511719 37.71875 C 115.144531 38.445312 116.058594 38.773438 117.277344 38.773438 C 118.613281 38.773438 119.621094 38.304688 120.371094 37.414062 Z M 120.371094 37.414062 "/>
<path fill-rule="nonzero" fill="rgb(0%, 0%, 0%)" fill-opacity="1" d="M 130.746094 38.773438 C 131.683594 38.773438 132.527344 38.609375 133.300781 38.234375 C 134.074219 37.90625 134.683594 37.390625 135.152344 36.734375 L 133.675781 35.070312 C 133.019531 35.9375 132.105469 36.335938 130.957031 36.335938 C 130.183594 36.335938 129.574219 36.125 129.082031 35.679688 C 128.589844 35.257812 128.285156 34.648438 128.191406 33.898438 L 135.410156 33.898438 L 135.410156 32.65625 C 135.410156 30.898438 134.964844 29.515625 134.050781 28.53125 C 133.160156 27.546875 131.964844 27.054688 130.417969 27.054688 C 129.363281 27.054688 128.449219 27.3125 127.675781 27.78125 C 126.855469 28.273438 126.222656 28.976562 125.800781 29.867188 C 125.355469 30.757812 125.144531 31.765625 125.144531 32.890625 L 125.144531 33.195312 C 125.144531 34.882812 125.660156 36.242188 126.691406 37.25 C 127.722656 38.28125 129.082031 38.773438 130.746094 38.773438 Z M 130.394531 29.492188 C 131.050781 29.492188 131.542969 29.703125 131.871094 30.054688 C 132.222656 30.429688 132.410156 30.921875 132.433594 31.601562 L 132.433594 31.859375 L 128.238281 31.859375 C 128.332031 31.109375 128.566406 30.523438 128.941406 30.125 C 129.316406 29.703125 129.808594 29.492188 130.394531 29.492188 Z M 130.394531 29.492188 "/>
<path fill-rule="nonzero" fill="rgb(0%, 0%, 0%)" fill-opacity="1" d="M 144.410156 37.085938 C 144.410156 37.554688 144.550781 37.953125 144.878906 38.234375 C 145.160156 38.539062 145.582031 38.679688 146.097656 38.679688 C 146.589844 38.679688 146.988281 38.539062 147.316406 38.234375 C 147.621094 37.953125 147.808594 37.554688 147.808594 37.085938 C 147.808594 36.617188 147.621094 36.21875 147.316406 35.914062 C 146.988281 35.609375 146.589844 35.46875 146.097656 35.46875 C 145.605469 35.46875 145.183594 35.609375 144.878906 35.914062 C 144.550781 36.21875 144.410156 36.617188 144.410156 37.085938 Z M 144.410156 37.085938 "/>
<path fill-rule="nonzero" fill="rgb(0%, 0%, 0%)" fill-opacity="1" d="M 150.605469 37.085938 C 150.605469 37.554688 150.746094 37.953125 151.074219 38.234375 C 151.355469 38.539062 151.777344 38.679688 152.292969 38.679688 C 152.785156 38.679688 153.183594 38.539062 153.511719 38.234375 C 153.816406 37.953125 154.003906 37.554688 154.003906 37.085938 C 154.003906 36.617188 153.816406 36.21875 153.511719 35.914062 C 153.183594 35.609375 152.785156 35.46875 152.292969 35.46875 C 151.800781 35.46875 151.378906 35.609375 151.074219 35.914062 C 150.746094 36.21875 150.605469 36.617188 150.605469 37.085938 Z M 150.605469 37.085938 "/>
<path fill-rule="nonzero" fill="rgb(0%, 0%, 0%)" fill-opacity="1" d="M 156.804688 37.085938 C 156.804688 37.554688 156.945312 37.953125 157.273438 38.234375 C 157.554688 38.539062 157.976562 38.679688 158.492188 38.679688 C 158.984375 38.679688 159.382812 38.539062 159.710938 38.234375 C 160.015625 37.953125 160.203125 37.554688 160.203125 37.085938 C 160.203125 36.617188 160.015625 36.21875 159.710938 35.914062 C 159.382812 35.609375 158.984375 35.46875 158.492188 35.46875 C 158 35.46875 157.578125 35.609375 157.273438 35.914062 C 156.945312 36.21875 156.804688 36.617188 156.804688 37.085938 Z M 156.804688 37.085938 "/>
<path fill="none" stroke-width="1.99255" stroke-linecap="butt" stroke-linejoin="round" stroke="rgb(19.607843%, 19.607843%, 19.607843%)" stroke-opacity="1" stroke-miterlimit="10" d="M -141.07132 -18.806562 L 141.069305 -18.806562 L 141.069305 18.808021 L -141.07132 18.808021 Z M -141.07132 -18.806562 " transform="matrix(1.5, 0, 0, -1.5, 413.626511, 32.6925)"/>
<path fill-rule="nonzero" fill="rgb(0%, 0%, 0%)" fill-opacity="1" d="M 330.839844 31.976562 L 330.839844 29.515625 L 324.839844 29.515625 L 324.839844 25.90625 L 331.871094 25.90625 L 331.871094 23.375 L 321.675781 23.375 L 321.675781 38.5625 L 331.871094 38.5625 L 331.871094 36.03125 L 324.839844 36.03125 L 324.839844 31.976562 Z M 330.839844 31.976562 "/>
<path fill-rule="nonzero" fill="rgb(0%, 0%, 0%)" fill-opacity="1" d="M 336.285156 27.265625 L 333.449219 27.265625 L 333.449219 38.5625 L 336.449219 38.5625 L 336.449219 30.59375 C 336.871094 29.890625 337.527344 29.515625 338.371094 29.515625 C 339.027344 29.515625 339.472656 29.679688 339.753906 29.9375 C 340.011719 30.242188 340.175781 30.6875 340.175781 31.34375 L 340.175781 38.5625 L 343.175781 38.5625 L 343.175781 31.273438 C 343.152344 29.890625 342.871094 28.835938 342.285156 28.132812 C 341.699219 27.429688 340.808594 27.054688 339.613281 27.054688 C 338.253906 27.054688 337.175781 27.570312 336.355469 28.578125 Z M 336.285156 27.265625 "/>
<path fill-rule="nonzero" fill="rgb(0%, 0%, 0%)" fill-opacity="1" d="M 349.074219 24.5 L 346.074219 24.5 L 346.074219 27.265625 L 344.433594 27.265625 L 344.433594 29.46875 L 346.074219 29.46875 L 346.074219 35.5625 C 346.121094 37.71875 347.175781 38.773438 349.285156 38.773438 C 349.917969 38.773438 350.527344 38.679688 351.136719 38.492188 L 351.136719 36.21875 C 350.855469 36.265625 350.550781 36.289062 350.246094 36.289062 C 349.777344 36.289062 349.496094 36.21875 349.308594 36.007812 C 349.144531 35.84375 349.074219 35.539062 349.074219 35.117188 L 349.074219 29.46875 L 350.996094 29.46875 L 350.996094 27.265625 L 349.074219 27.265625 Z M 349.074219 24.5 "/>
<path fill-rule="nonzero" fill="rgb(0%, 0%, 0%)" fill-opacity="1" d="M 351.875 32.820312 L 351.875 32.9375 C 351.875 34.742188 352.34375 36.171875 353.328125 37.226562 C 354.289062 38.257812 355.601562 38.773438 357.21875 38.773438 C 358.835938 38.773438 360.148438 38.257812 361.132812 37.226562 C 362.09375 36.171875 362.585938 34.789062 362.585938 33.03125 L 362.5625 32.257812 C 362.445312 30.664062 361.90625 29.421875 360.945312 28.484375 C 359.984375 27.523438 358.742188 27.054688 357.21875 27.054688 C 356.164062 27.054688 355.203125 27.3125 354.40625 27.78125 C 353.585938 28.25 352.953125 28.953125 352.53125 29.820312 C 352.085938 30.6875 351.875 31.695312 351.875 32.820312 Z M 354.898438 33.03125 C 354.898438 31.835938 355.085938 30.945312 355.484375 30.382812 C 355.90625 29.796875 356.46875 29.492188 357.21875 29.492188 C 357.945312 29.492188 358.53125 29.796875 358.953125 30.382812 C 359.351562 30.945312 359.585938 31.765625 359.585938 32.820312 C 359.585938 34.0625 359.351562 34.953125 358.953125 35.515625 C 358.53125 36.054688 357.96875 36.335938 357.242188 36.335938 C 356.46875 36.335938 355.90625 36.054688 355.484375 35.492188 C 355.085938 34.929688 354.898438 34.085938 354.898438 33.03125 Z M 354.898438 33.03125 "/>
<path fill-rule="nonzero" fill="rgb(0%, 0%, 0%)" fill-opacity="1" d="M 367.207031 27.265625 L 364.371094 27.265625 L 364.371094 38.5625 L 367.371094 38.5625 L 367.371094 30.59375 C 367.792969 29.890625 368.449219 29.515625 369.292969 29.515625 C 369.949219 29.515625 370.394531 29.679688 370.675781 29.9375 C 370.933594 30.242188 371.097656 30.6875 371.097656 31.34375 L 371.097656 38.5625 L 374.097656 38.5625 L 374.097656 31.273438 C 374.074219 29.890625 373.792969 28.835938 373.207031 28.132812 C 372.621094 27.429688 371.730469 27.054688 370.535156 27.054688 C 369.175781 27.054688 368.097656 27.570312 367.277344 28.578125 Z M 367.207031 27.265625 "/>
<path fill-rule="nonzero" fill="rgb(0%, 0%, 0%)" fill-opacity="1" d="M 381.097656 36.335938 C 380.371094 36.335938 379.808594 36.101562 379.480469 35.585938 C 379.105469 35.070312 378.941406 34.25 378.941406 33.078125 L 378.941406 32.773438 C 378.941406 31.625 379.105469 30.78125 379.480469 30.265625 C 379.832031 29.75 380.371094 29.492188 381.074219 29.492188 C 381.636719 29.492188 382.105469 29.703125 382.433594 30.054688 C 382.785156 30.429688 382.972656 30.898438 382.996094 31.460938 L 385.808594 31.460938 C 385.808594 30.148438 385.363281 29.09375 384.519531 28.273438 C 383.652344 27.476562 382.527344 27.054688 381.121094 27.054688 C 379.480469 27.054688 378.238281 27.59375 377.300781 28.625 C 376.363281 29.65625 375.917969 31.039062 375.917969 32.773438 L 375.917969 32.984375 C 375.917969 34.789062 376.363281 36.21875 377.300781 37.226562 C 378.261719 38.257812 379.503906 38.773438 381.144531 38.773438 C 381.988281 38.773438 382.785156 38.609375 383.511719 38.234375 C 384.214844 37.90625 384.777344 37.414062 385.199219 36.757812 C 385.597656 36.125 385.808594 35.421875 385.808594 34.648438 L 382.996094 34.648438 C 382.972656 35.164062 382.785156 35.585938 382.433594 35.890625 C 382.105469 36.195312 381.660156 36.335938 381.097656 36.335938 Z M 381.097656 36.335938 "/>
<path fill-rule="nonzero" fill="rgb(0%, 0%, 0%)" fill-opacity="1" d="M 392.722656 38.773438 C 393.660156 38.773438 394.503906 38.609375 395.277344 38.234375 C 396.050781 37.90625 396.660156 37.390625 397.128906 36.734375 L 395.652344 35.070312 C 394.996094 35.9375 394.082031 36.335938 392.933594 36.335938 C 392.160156 36.335938 391.550781 36.125 391.058594 35.679688 C 390.566406 35.257812 390.261719 34.648438 390.167969 33.898438 L 397.386719 33.898438 L 397.386719 32.65625 C 397.386719 30.898438 396.941406 29.515625 396.027344 28.53125 C 395.136719 27.546875 393.941406 27.054688 392.394531 27.054688 C 391.339844 27.054688 390.425781 27.3125 389.652344 27.78125 C 388.832031 28.273438 388.199219 28.976562 387.777344 29.867188 C 387.332031 30.757812 387.121094 31.765625 387.121094 32.890625 L 387.121094 33.195312 C 387.121094 34.882812 387.636719 36.242188 388.667969 37.25 C 389.699219 38.28125 391.058594 38.773438 392.722656 38.773438 Z M 392.371094 29.492188 C 393.027344 29.492188 393.519531 29.703125 393.847656 30.054688 C 394.199219 30.429688 394.386719 30.921875 394.410156 31.601562 L 394.410156 31.859375 L 390.214844 31.859375 C 390.308594 31.109375 390.542969 30.523438 390.917969 30.125 C 391.292969 29.703125 391.785156 29.492188 392.371094 29.492188 Z M 392.371094 29.492188 "/>
<path fill-rule="nonzero" fill="rgb(0%, 0%, 0%)" fill-opacity="1" d="M 405.175781 35.445312 C 405.175781 35.796875 405.035156 36.101562 404.730469 36.3125 C 404.425781 36.523438 404.003906 36.640625 403.417969 36.640625 C 402.808594 36.640625 402.316406 36.5 401.941406 36.21875 C 401.566406 35.9375 401.378906 35.515625 401.355469 34.976562 L 398.496094 34.976562 C 398.496094 35.65625 398.683594 36.289062 399.105469 36.875 C 399.527344 37.460938 400.113281 37.929688 400.839844 38.257812 C 401.566406 38.609375 402.410156 38.773438 403.371094 38.773438 C 404.777344 38.773438 405.902344 38.445312 406.792969 37.8125 C 407.683594 37.179688 408.128906 36.335938 408.128906 35.304688 C 408.128906 33.875 407.308594 32.867188 405.738281 32.28125 C 405.222656 32.117188 404.589844 31.929688 403.839844 31.789062 C 403.066406 31.648438 402.527344 31.460938 402.222656 31.25 C 401.917969 31.039062 401.753906 30.78125 401.753906 30.429688 C 401.753906 30.101562 401.894531 29.796875 402.152344 29.5625 C 402.410156 29.328125 402.832031 29.210938 403.347656 29.210938 C 403.933594 29.210938 404.355469 29.351562 404.636719 29.632812 C 404.917969 29.9375 405.082031 30.265625 405.082031 30.6875 L 408.082031 30.6875 C 408.082031 29.632812 407.660156 28.765625 406.792969 28.085938 C 405.949219 27.40625 404.800781 27.054688 403.371094 27.054688 C 402.011719 27.054688 400.933594 27.40625 400.089844 28.0625 C 399.246094 28.742188 398.847656 29.585938 398.847656 30.570312 C 398.847656 32.304688 400.183594 33.453125 402.878906 34.015625 C 403.675781 34.179688 404.261719 34.34375 404.613281 34.554688 C 404.988281 34.789062 405.175781 35.070312 405.175781 35.445312 Z M 405.175781 35.445312 "/>
<path fill-rule="nonzero" fill="rgb(0%, 0%, 0%)" fill-opacity="1" d="M 423.277344 35.445312 C 423.277344 35.796875 423.136719 36.101562 422.832031 36.3125 C 422.527344 36.523438 422.105469 36.640625 421.519531 36.640625 C 420.910156 36.640625 420.417969 36.5 420.042969 36.21875 C 419.667969 35.9375 419.480469 35.515625 419.457031 34.976562 L 416.597656 34.976562 C 416.597656 35.65625 416.785156 36.289062 417.207031 36.875 C 417.628906 37.460938 418.214844 37.929688 418.941406 38.257812 C 419.667969 38.609375 420.511719 38.773438 421.472656 38.773438 C 422.878906 38.773438 424.003906 38.445312 424.894531 37.8125 C 425.785156 37.179688 426.230469 36.335938 426.230469 35.304688 C 426.230469 33.875 425.410156 32.867188 423.839844 32.28125 C 423.324219 32.117188 422.691406 31.929688 421.941406 31.789062 C 421.167969 31.648438 420.628906 31.460938 420.324219 31.25 C 420.019531 31.039062 419.855469 30.78125 419.855469 30.429688 C 419.855469 30.101562 419.996094 29.796875 420.253906 29.5625 C 420.511719 29.328125 420.933594 29.210938 421.449219 29.210938 C 422.035156 29.210938 422.457031 29.351562 422.738281 29.632812 C 423.019531 29.9375 423.183594 30.265625 423.183594 30.6875 L 426.183594 30.6875 C 426.183594 29.632812 425.761719 28.765625 424.894531 28.085938 C 424.050781 27.40625 422.902344 27.054688 421.472656 27.054688 C 420.113281 27.054688 419.035156 27.40625 418.191406 28.0625 C 417.347656 28.742188 416.949219 29.585938 416.949219 30.570312 C 416.949219 32.304688 418.285156 33.453125 420.980469 34.015625 C 421.777344 34.179688 422.363281 34.34375 422.714844 34.554688 C 423.089844 34.789062 423.277344 35.070312 423.277344 35.445312 Z M 423.277344 35.445312 "/>
<path fill-rule="nonzero" fill="rgb(0%, 0%, 0%)" fill-opacity="1" d="M 432.351562 22.351562 L 430.289062 25.585938 L 432.75 25.585938 L 435.632812 22.351562 Z M 432.351562 22.351562 "/>
<path fill-rule="nonzero" fill="rgb(0%, 0%, 0%)" fill-opacity="1" d="M 433.355469 38.773438 C 434.292969 38.773438 435.136719 38.609375 435.910156 38.234375 C 436.683594 37.90625 437.292969 37.390625 437.761719 36.734375 L 436.285156 35.070312 C 435.628906 35.9375 434.714844 36.335938 433.566406 36.335938 C 432.792969 36.335938 432.183594 36.125 431.691406 35.679688 C 431.199219 35.257812 430.894531 34.648438 430.800781 33.898438 L 438.019531 33.898438 L 438.019531 32.65625 C 438.019531 30.898438 437.574219 29.515625 436.660156 28.53125 C 435.769531 27.546875 434.574219 27.054688 433.027344 27.054688 C 431.972656 27.054688 431.058594 27.3125 430.285156 27.78125 C 429.464844 28.273438 428.832031 28.976562 428.410156 29.867188 C 427.964844 30.757812 427.753906 31.765625 427.753906 32.890625 L 427.753906 33.195312 C 427.753906 34.882812 428.269531 36.242188 429.300781 37.25 C 430.332031 38.28125 431.691406 38.773438 433.355469 38.773438 Z M 433.003906 29.492188 C 433.660156 29.492188 434.152344 29.703125 434.480469 30.054688 C 434.832031 30.429688 435.019531 30.921875 435.042969 31.601562 L 435.042969 31.859375 L 430.847656 31.859375 C 430.941406 31.109375 431.175781 30.523438 431.550781 30.125 C 431.925781 29.703125 432.417969 29.492188 433.003906 29.492188 Z M 433.003906 29.492188 "/>
<path fill-rule="nonzero" fill="rgb(0%, 0%, 0%)" fill-opacity="1" d="M 446.335938 32.820312 C 446.335938 34.695312 446.734375 36.171875 447.53125 37.226562 C 448.351562 38.257812 449.429688 38.773438 450.765625 38.773438 C 451.867188 38.773438 452.804688 38.398438 453.507812 37.601562 L 453.507812 42.898438 L 456.507812 42.898438 L 456.507812 27.265625 L 453.859375 27.265625 L 453.671875 28.460938 C 452.945312 27.523438 451.984375 27.054688 450.789062 27.054688 C 449.40625 27.054688 448.304688 27.570312 447.507812 28.601562 C 446.734375 29.632812 446.335938 31.039062 446.335938 32.820312 Z M 449.359375 33.03125 C 449.359375 31.8125 449.546875 30.921875 449.921875 30.359375 C 450.320312 29.796875 450.859375 29.492188 451.5625 29.492188 C 452.476562 29.492188 453.109375 29.867188 453.507812 30.570312 L 453.507812 35.234375 C 453.109375 35.984375 452.453125 36.335938 451.539062 36.335938 C 450.859375 36.335938 450.320312 36.054688 449.921875 35.515625 C 449.546875 34.953125 449.359375 34.109375 449.359375 33.03125 Z M 449.359375 33.03125 "/>
<path fill-rule="nonzero" fill="rgb(0%, 0%, 0%)" fill-opacity="1" d="M 465.632812 37.414062 L 465.726562 38.5625 L 468.539062 38.5625 L 468.539062 27.265625 L 465.539062 27.265625 L 465.539062 35.28125 C 465.140625 36.007812 464.4375 36.335938 463.429688 36.335938 C 462.351562 36.335938 461.8125 35.773438 461.8125 34.554688 L 461.8125 27.265625 L 458.8125 27.265625 L 458.8125 34.671875 C 458.8125 36.007812 459.117188 37.039062 459.773438 37.71875 C 460.40625 38.445312 461.320312 38.773438 462.539062 38.773438 C 463.875 38.773438 464.882812 38.304688 465.632812 37.414062 Z M 465.632812 37.414062 "/>
<path fill-rule="nonzero" fill="rgb(0%, 0%, 0%)" fill-opacity="1" d="M 476.007812 38.773438 C 476.945312 38.773438 477.789062 38.609375 478.5625 38.234375 C 479.335938 37.90625 479.945312 37.390625 480.414062 36.734375 L 478.9375 35.070312 C 478.28125 35.9375 477.367188 36.335938 476.21875 36.335938 C 475.445312 36.335938 474.835938 36.125 474.34375 35.679688 C 473.851562 35.257812 473.546875 34.648438 473.453125 33.898438 L 480.671875 33.898438 L 480.671875 32.65625 C 480.671875 30.898438 480.226562 29.515625 479.3125 28.53125 C 478.421875 27.546875 477.226562 27.054688 475.679688 27.054688 C 474.625 27.054688 473.710938 27.3125 472.9375 27.78125 C 472.117188 28.273438 471.484375 28.976562 471.0625 29.867188 C 470.617188 30.757812 470.40625 31.765625 470.40625 32.890625 L 470.40625 33.195312 C 470.40625 34.882812 470.921875 36.242188 471.953125 37.25 C 472.984375 38.28125 474.34375 38.773438 476.007812 38.773438 Z M 475.65625 29.492188 C 476.3125 29.492188 476.804688 29.703125 477.132812 30.054688 C 477.484375 30.429688 477.671875 30.921875 477.695312 31.601562 L 477.695312 31.859375 L 473.5 31.859375 C 473.59375 31.109375 473.828125 30.523438 474.203125 30.125 C 474.578125 29.703125 475.070312 29.492188 475.65625 29.492188 Z M 475.65625 29.492188 "/>
<path fill-rule="nonzero" fill="rgb(0%, 0%, 0%)" fill-opacity="1" d="M 489.667969 37.085938 C 489.667969 37.554688 489.808594 37.953125 490.136719 38.234375 C 490.417969 38.539062 490.839844 38.679688 491.355469 38.679688 C 491.847656 38.679688 492.246094 38.539062 492.574219 38.234375 C 492.878906 37.953125 493.066406 37.554688 493.066406 37.085938 C 493.066406 36.617188 492.878906 36.21875 492.574219 35.914062 C 492.246094 35.609375 491.847656 35.46875 491.355469 35.46875 C 490.863281 35.46875 490.441406 35.609375 490.136719 35.914062 C 489.808594 36.21875 489.667969 36.617188 489.667969 37.085938 Z M 489.667969 37.085938 "/>
<path fill-rule="nonzero" fill="rgb(0%, 0%, 0%)" fill-opacity="1" d="M 495.867188 37.085938 C 495.867188 37.554688 496.007812 37.953125 496.335938 38.234375 C 496.617188 38.539062 497.039062 38.679688 497.554688 38.679688 C 498.046875 38.679688 498.445312 38.539062 498.773438 38.234375 C 499.078125 37.953125 499.265625 37.554688 499.265625 37.085938 C 499.265625 36.617188 499.078125 36.21875 498.773438 35.914062 C 498.445312 35.609375 498.046875 35.46875 497.554688 35.46875 C 497.0625 35.46875 496.640625 35.609375 496.335938 35.914062 C 496.007812 36.21875 495.867188 36.617188 495.867188 37.085938 Z M 495.867188 37.085938 "/>
<path fill-rule="nonzero" fill="rgb(0%, 0%, 0%)" fill-opacity="1" d="M 502.0625 37.085938 C 502.0625 37.554688 502.203125 37.953125 502.53125 38.234375 C 502.8125 38.539062 503.234375 38.679688 503.75 38.679688 C 504.242188 38.679688 504.640625 38.539062 504.96875 38.234375 C 505.273438 37.953125 505.460938 37.554688 505.460938 37.085938 C 505.460938 36.617188 505.273438 36.21875 504.96875 35.914062 C 504.640625 35.609375 504.242188 35.46875 503.75 35.46875 C 503.257812 35.46875 502.835938 35.609375 502.53125 35.914062 C 502.203125 36.21875 502.0625 36.617188 502.0625 37.085938 Z M 502.0625 37.085938 "/>
<path fill="none" stroke-width="0.99628" stroke-linecap="butt" stroke-linejoin="round" stroke="rgb(19.607843%, 19.607843%, 19.607843%)" stroke-opacity="1" stroke-miterlimit="10" d="M -65.849019 -18.806938 L 65.846293 -18.806938 L 65.846293 18.807645 L -65.849019 18.807645 Z M -65.849019 -18.806938 " transform="matrix(1.5, 0, 0, -1.5, 103.253998, 89.855999)"/>
<path fill-rule="nonzero" fill="rgb(0%, 0%, 0%)" fill-opacity="1" d="M 89.75 96.613281 L 89.75 95.042969 L 82.109375 95.042969 L 86.164062 90.636719 C 88.085938 88.574219 89.046875 86.769531 89.046875 85.292969 C 89.046875 84.050781 88.601562 83.066406 87.804688 82.316406 C 86.984375 81.589844 85.882812 81.191406 84.476562 81.191406 C 82.953125 81.191406 81.734375 81.660156 80.820312 82.503906 C 79.929688 83.371094 79.484375 84.519531 79.484375 85.902344 L 81.429688 85.902344 C 81.429688 84.917969 81.6875 84.167969 82.226562 83.628906 C 82.765625 83.089844 83.492188 82.808594 84.476562 82.808594 C 85.25 82.808594 85.90625 83.066406 86.375 83.558594 C 86.84375 84.074219 87.101562 84.707031 87.101562 85.503906 C 87.101562 86.089844 86.9375 86.675781 86.65625 87.238281 C 86.351562 87.777344 85.8125 88.503906 85.039062 89.394531 L 79.789062 95.230469 L 79.789062 96.613281 Z M 89.75 96.613281 "/>
<path fill-rule="nonzero" fill="rgb(0%, 0%, 0%)" fill-opacity="1" d="M 106.824219 90.660156 L 102.535156 86.417969 C 102.277344 86.160156 102.253906 86.113281 102.066406 86.113281 C 101.855469 86.113281 101.644531 86.300781 101.644531 86.535156 C 101.644531 86.699219 101.691406 86.746094 101.925781 86.980469 L 106.191406 91.269531 L 101.925781 95.558594 C 101.691406 95.792969 101.644531 95.839844 101.644531 96.003906 C 101.644531 96.238281 101.855469 96.425781 102.066406 96.425781 C 102.253906 96.425781 102.277344 96.378906 102.535156 96.121094 L 106.800781 91.878906 L 111.230469 96.285156 C 111.253906 96.308594 111.417969 96.425781 111.535156 96.425781 C 111.792969 96.425781 111.980469 96.238281 111.980469 96.003906 C 111.980469 95.957031 111.980469 95.863281 111.910156 95.769531 C 111.886719 95.722656 108.488281 92.371094 107.410156 91.269531 L 111.324219 87.355469 C 111.441406 87.238281 111.746094 86.957031 111.863281 86.816406 C 111.886719 86.769531 111.980469 86.699219 111.980469 86.535156 C 111.980469 86.300781 111.792969 86.113281 111.535156 86.113281 C 111.371094 86.113281 111.277344 86.207031 111.042969 86.441406 Z M 106.824219 90.660156 "/>
<path fill-rule="nonzero" fill="rgb(0%, 0%, 0%)" fill-opacity="1" d="M 132.515625 91.503906 L 132.515625 81.425781 L 130.476562 81.425781 L 123.679688 91.949219 L 123.679688 93.097656 L 130.59375 93.097656 L 130.59375 96.613281 L 132.515625 96.613281 L 132.515625 93.097656 L 134.648438 93.097656 L 134.648438 91.503906 Z M 125.859375 91.503906 L 130.359375 84.472656 L 130.59375 84.074219 L 130.59375 91.503906 Z M 125.859375 91.503906 "/>
<path fill="none" stroke-width="0.99628" stroke-linecap="butt" stroke-linejoin="round" stroke="rgb(19.607843%, 19.607843%, 19.607843%)" stroke-opacity="1" stroke-miterlimit="10" d="M -141.07132 -18.806938 L 141.069305 -18.806938 L 141.069305 18.807645 L -141.07132 18.807645 Z M -141.07132 -18.806938 " transform="matrix(1.5, 0, 0, -1.5, 413.626511, 89.855999)"/>
<path fill-rule="nonzero" fill="rgb(0%, 0%, 0%)" fill-opacity="1" d="M 319.90625 90.878906 L 319.90625 80.800781 L 317.867188 80.800781 L 311.070312 91.324219 L 311.070312 92.472656 L 317.984375 92.472656 L 317.984375 95.988281 L 319.90625 95.988281 L 319.90625 92.472656 L 322.039062 92.472656 L 322.039062 90.878906 Z M 313.25 90.878906 L 317.75 83.847656 L 317.984375 83.449219 L 317.984375 90.878906 Z M 313.25 90.878906 "/>
<path fill-rule="nonzero" fill="rgb(0%, 0%, 0%)" fill-opacity="1" d="M 341.121094 90.035156 L 336.832031 85.792969 C 336.574219 85.535156 336.550781 85.488281 336.363281 85.488281 C 336.152344 85.488281 335.941406 85.675781 335.941406 85.910156 C 335.941406 86.074219 335.988281 86.121094 336.222656 86.355469 L 340.488281 90.644531 L 336.222656 94.933594 C 335.988281 95.167969 335.941406 95.214844 335.941406 95.378906 C 335.941406 95.613281 336.152344 95.800781 336.363281 95.800781 C 336.550781 95.800781 336.574219 95.753906 336.832031 95.496094 L 341.097656 91.253906 L 345.527344 95.660156 C 345.550781 95.683594 345.714844 95.800781 345.832031 95.800781 C 346.089844 95.800781 346.277344 95.613281 346.277344 95.378906 C 346.277344 95.332031 346.277344 95.238281 346.207031 95.144531 C 346.183594 95.097656 342.785156 91.746094 341.707031 90.644531 L 345.621094 86.730469 C 345.738281 86.613281 346.042969 86.332031 346.160156 86.191406 C 346.183594 86.144531 346.277344 86.074219 346.277344 85.910156 C 346.277344 85.675781 346.089844 85.488281 345.832031 85.488281 C 345.667969 85.488281 345.574219 85.582031 345.339844 85.816406 Z M 341.121094 90.035156 "/>
<path fill-rule="nonzero" fill="rgb(0%, 0%, 0%)" fill-opacity="1" d="M 370.953125 95.988281 L 370.953125 94.417969 L 363.3125 94.417969 L 367.367188 90.011719 C 369.289062 87.949219 370.25 86.144531 370.25 84.667969 C 370.25 83.425781 369.804688 82.441406 369.007812 81.691406 C 368.1875 80.964844 367.085938 80.566406 365.679688 80.566406 C 364.15625 80.566406 362.9375 81.035156 362.023438 81.878906 C 361.132812 82.746094 360.6875 83.894531 360.6875 85.277344 L 362.632812 85.277344 C 362.632812 84.292969 362.890625 83.542969 363.429688 83.003906 C 363.96875 82.464844 364.695312 82.183594 365.679688 82.183594 C 366.453125 82.183594 367.109375 82.441406 367.578125 82.933594 C 368.046875 83.449219 368.304688 84.082031 368.304688 84.878906 C 368.304688 85.464844 368.140625 86.050781 367.859375 86.613281 C 367.554688 87.152344 367.015625 87.878906 366.242188 88.769531 L 360.992188 94.605469 L 360.992188 95.988281 Z M 370.953125 95.988281 "/>
<path fill-rule="nonzero" fill="rgb(0%, 0%, 0%)" fill-opacity="1" d="M 373.097656 99.035156 C 373.613281 98.589844 374.058594 98.050781 374.410156 97.324219 C 374.761719 96.621094 374.925781 95.917969 374.925781 95.214844 L 374.925781 93.691406 L 373.050781 93.691406 L 373.050781 95.449219 C 373.003906 96.410156 372.652344 97.347656 372.019531 98.261719 Z M 373.097656 99.035156 "/>
<path fill-rule="nonzero" fill="rgb(0%, 0%, 0%)" fill-opacity="1" d="M 392.417969 90.878906 L 392.417969 80.800781 L 390.378906 80.800781 L 383.582031 91.324219 L 383.582031 92.472656 L 390.496094 92.472656 L 390.496094 95.988281 L 392.417969 95.988281 L 392.417969 92.472656 L 394.550781 92.472656 L 394.550781 90.878906 Z M 385.761719 90.878906 L 390.261719 83.847656 L 390.496094 83.449219 L 390.496094 90.878906 Z M 385.761719 90.878906 "/>
<path fill-rule="nonzero" fill="rgb(0%, 0%, 0%)" fill-opacity="1" d="M 413.636719 90.035156 L 409.347656 85.792969 C 409.089844 85.535156 409.066406 85.488281 408.878906 85.488281 C 408.667969 85.488281 408.457031 85.675781 408.457031 85.910156 C 408.457031 86.074219 408.503906 86.121094 408.738281 86.355469 L 413.003906 90.644531 L 408.738281 94.933594 C 408.503906 95.167969 408.457031 95.214844 408.457031 95.378906 C 408.457031 95.613281 408.667969 95.800781 408.878906 95.800781 C 409.066406 95.800781 409.089844 95.753906 409.347656 95.496094 L 413.613281 91.253906 L 418.042969 95.660156 C 418.066406 95.683594 418.230469 95.800781 418.347656 95.800781 C 418.605469 95.800781 418.792969 95.613281 418.792969 95.378906 C 418.792969 95.332031 418.792969 95.238281 418.722656 95.144531 C 418.699219 95.097656 415.300781 91.746094 414.222656 90.644531 L 418.136719 86.730469 C 418.253906 86.613281 418.558594 86.332031 418.675781 86.191406 C 418.699219 86.144531 418.792969 86.074219 418.792969 85.910156 C 418.792969 85.675781 418.605469 85.488281 418.347656 85.488281 C 418.183594 85.488281 418.089844 85.582031 417.855469 85.816406 Z M 413.636719 90.035156 "/>
<path fill-rule="nonzero" fill="rgb(0%, 0%, 0%)" fill-opacity="1" d="M 441.640625 90.878906 L 441.640625 80.800781 L 439.601562 80.800781 L 432.804688 91.324219 L 432.804688 92.472656 L 439.71875 92.472656 L 439.71875 95.988281 L 441.640625 95.988281 L 441.640625 92.472656 L 443.773438 92.472656 L 443.773438 90.878906 Z M 434.984375 90.878906 L 439.484375 83.847656 L 439.71875 83.449219 L 439.71875 90.878906 Z M 434.984375 90.878906 "/>
<path fill-rule="nonzero" fill="rgb(0%, 0%, 0%)" fill-opacity="1" d="M 445.613281 99.035156 C 446.128906 98.589844 446.574219 98.050781 446.925781 97.324219 C 447.277344 96.621094 447.441406 95.917969 447.441406 95.214844 L 447.441406 93.691406 L 445.566406 93.691406 L 445.566406 95.449219 C 445.519531 96.410156 445.167969 97.347656 444.535156 98.261719 Z M 445.613281 99.035156 "/>
<path fill-rule="nonzero" fill="rgb(0%, 0%, 0%)" fill-opacity="1" d="M 466.761719 95.988281 L 466.761719 94.417969 L 459.121094 94.417969 L 463.175781 90.011719 C 465.097656 87.949219 466.058594 86.144531 466.058594 84.667969 C 466.058594 83.425781 465.613281 82.441406 464.816406 81.691406 C 463.996094 80.964844 462.894531 80.566406 461.488281 80.566406 C 459.964844 80.566406 458.746094 81.035156 457.832031 81.878906 C 456.941406 82.746094 456.496094 83.894531 456.496094 85.277344 L 458.441406 85.277344 C 458.441406 84.292969 458.699219 83.542969 459.238281 83.003906 C 459.777344 82.464844 460.503906 82.183594 461.488281 82.183594 C 462.261719 82.183594 462.917969 82.441406 463.386719 82.933594 C 463.855469 83.449219 464.113281 84.082031 464.113281 84.878906 C 464.113281 85.464844 463.949219 86.050781 463.667969 86.613281 C 463.363281 87.152344 462.824219 87.878906 462.050781 88.769531 L 456.800781 94.605469 L 456.800781 95.988281 Z M 466.761719 95.988281 "/>
<path fill-rule="nonzero" fill="rgb(0%, 0%, 0%)" fill-opacity="1" d="M 486.152344 90.035156 L 481.863281 85.792969 C 481.605469 85.535156 481.582031 85.488281 481.394531 85.488281 C 481.183594 85.488281 480.972656 85.675781 480.972656 85.910156 C 480.972656 86.074219 481.019531 86.121094 481.253906 86.355469 L 485.519531 90.644531 L 481.253906 94.933594 C 481.019531 95.167969 480.972656 95.214844 480.972656 95.378906 C 480.972656 95.613281 481.183594 95.800781 481.394531 95.800781 C 481.582031 95.800781 481.605469 95.753906 481.863281 95.496094 L 486.128906 91.253906 L 490.558594 95.660156 C 490.582031 95.683594 490.746094 95.800781 490.863281 95.800781 C 491.121094 95.800781 491.308594 95.613281 491.308594 95.378906 C 491.308594 95.332031 491.308594 95.238281 491.238281 95.144531 C 491.214844 95.097656 487.816406 91.746094 486.738281 90.644531 L 490.652344 86.730469 C 490.769531 86.613281 491.074219 86.332031 491.191406 86.191406 C 491.214844 86.144531 491.308594 86.074219 491.308594 85.910156 C 491.308594 85.675781 491.121094 85.488281 490.863281 85.488281 C 490.699219 85.488281 490.605469 85.582031 490.371094 85.816406 Z M 486.152344 90.035156 "/>
<path fill-rule="nonzero" fill="rgb(0%, 0%, 0%)" fill-opacity="1" d="M 515.234375 84.761719 C 515.234375 83.472656 514.8125 82.488281 513.992188 81.714844 C 513.171875 80.964844 512.09375 80.566406 510.757812 80.566406 C 509.421875 80.566406 508.320312 80.964844 507.523438 81.714844 C 506.679688 82.488281 506.28125 83.472656 506.28125 84.761719 C 506.28125 85.511719 506.46875 86.167969 506.84375 86.777344 C 507.242188 87.363281 507.78125 87.855469 508.460938 88.160156 C 507.664062 88.511719 507.054688 89.027344 506.585938 89.660156 C 506.140625 90.316406 505.929688 91.066406 505.929688 91.886719 C 505.929688 93.199219 506.351562 94.253906 507.242188 95.027344 C 508.109375 95.824219 509.28125 96.199219 510.757812 96.199219 C 512.1875 96.199219 513.359375 95.824219 514.25 95.027344 C 515.140625 94.253906 515.585938 93.199219 515.585938 91.886719 C 515.585938 91.066406 515.351562 90.316406 514.882812 89.660156 C 514.414062 89.027344 513.804688 88.511719 513.007812 88.160156 C 513.6875 87.855469 514.226562 87.386719 514.625 86.800781 C 515.023438 86.191406 515.234375 85.535156 515.234375 84.761719 Z M 513.664062 91.839844 C 513.664062 92.707031 513.382812 93.386719 512.890625 93.878906 C 512.375 94.394531 511.671875 94.628906 510.757812 94.628906 C 509.84375 94.628906 509.140625 94.394531 508.625 93.902344 C 508.109375 93.410156 507.851562 92.707031 507.851562 91.863281 C 507.851562 91.019531 508.109375 90.292969 508.648438 89.777344 C 509.164062 89.238281 509.867188 88.957031 510.734375 88.957031 C 511.601562 88.957031 512.304688 89.238281 512.867188 89.777344 C 513.382812 90.292969 513.664062 90.996094 513.664062 91.839844 Z M 510.757812 82.183594 C 511.484375 82.183594 512.117188 82.441406 512.585938 82.910156 C 513.054688 83.402344 513.3125 84.011719 513.3125 84.785156 C 513.3125 85.558594 513.078125 86.191406 512.609375 86.660156 C 512.140625 87.128906 511.53125 87.363281 510.757812 87.363281 C 509.984375 87.363281 509.375 87.128906 508.90625 86.660156 C 508.4375 86.191406 508.226562 85.558594 508.226562 84.785156 C 508.226562 83.964844 508.460938 83.355469 508.929688 82.886719 C 509.398438 82.417969 509.984375 82.183594 510.757812 82.183594 Z M 510.757812 82.183594 "/>
<path fill="none" stroke-width="0.99628" stroke-linecap="butt" stroke-linejoin="round" stroke="rgb(19.607843%, 19.607843%, 19.607843%)" stroke-opacity="1" stroke-miterlimit="10" d="M -65.849019 -18.805313 L 65.846293 -18.805313 L 65.846293 18.804062 L -65.849019 18.804062 Z M -65.849019 -18.805313 " transform="matrix(1.5, 0, 0, -1.5, 103.253998, 146.272499)"/>
<path fill-rule="nonzero" fill="rgb(0%, 0%, 0%)" fill-opacity="1" d="M 78.828125 144.5 L 78.828125 146.070312 L 80.28125 146.070312 C 81.3125 146.09375 82.085938 146.351562 82.648438 146.820312 C 83.164062 147.289062 83.445312 147.96875 83.445312 148.835938 C 83.445312 149.75 83.1875 150.476562 82.695312 150.945312 C 82.179688 151.4375 81.476562 151.671875 80.5625 151.671875 C 79.695312 151.671875 78.992188 151.4375 78.476562 150.945312 C 77.960938 150.476562 77.703125 149.820312 77.703125 149.023438 L 75.757812 149.023438 C 75.757812 150.265625 76.179688 151.296875 77.070312 152.09375 C 77.984375 152.867188 79.132812 153.242188 80.5625 153.242188 C 81.992188 153.242188 83.164062 152.867188 84.054688 152.046875 C 84.945312 151.25 85.390625 150.171875 85.390625 148.789062 C 85.390625 147.921875 85.15625 147.171875 84.710938 146.5625 C 84.242188 145.953125 83.609375 145.507812 82.765625 145.226562 C 83.492188 144.921875 84.101562 144.476562 84.523438 143.84375 C 84.945312 143.210938 85.15625 142.578125 85.15625 141.921875 C 85.15625 140.585938 84.757812 139.554688 83.9375 138.78125 C 83.140625 138.007812 81.992188 137.609375 80.5625 137.609375 C 79.203125 137.609375 78.078125 138.03125 77.210938 138.828125 C 76.320312 139.648438 75.875 140.632812 75.875 141.828125 L 77.820312 141.828125 C 77.820312 141.03125 78.054688 140.398438 78.546875 139.929688 C 79.039062 139.460938 79.71875 139.226562 80.5625 139.226562 C 82.34375 139.226562 83.234375 140.117188 83.234375 141.898438 C 83.234375 142.695312 82.953125 143.304688 82.4375 143.773438 C 81.921875 144.242188 81.195312 144.5 80.28125 144.5 Z M 78.828125 144.5 "/>
<path fill-rule="nonzero" fill="rgb(0%, 0%, 0%)" fill-opacity="1" d="M 103.261719 147.078125 L 98.972656 142.835938 C 98.714844 142.578125 98.691406 142.53125 98.503906 142.53125 C 98.292969 142.53125 98.082031 142.71875 98.082031 142.953125 C 98.082031 143.117188 98.128906 143.164062 98.363281 143.398438 L 102.628906 147.6875 L 98.363281 151.976562 C 98.128906 152.210938 98.082031 152.257812 98.082031 152.421875 C 98.082031 152.65625 98.292969 152.84375 98.503906 152.84375 C 98.691406 152.84375 98.714844 152.796875 98.972656 152.539062 L 103.238281 148.296875 L 107.667969 152.703125 C 107.691406 152.726562 107.855469 152.84375 107.972656 152.84375 C 108.230469 152.84375 108.417969 152.65625 108.417969 152.421875 C 108.417969 152.375 108.417969 152.28125 108.347656 152.1875 C 108.324219 152.140625 104.925781 148.789062 103.847656 147.6875 L 107.761719 143.773438 C 107.878906 143.65625 108.183594 143.375 108.300781 143.234375 C 108.324219 143.1875 108.417969 143.117188 108.417969 142.953125 C 108.417969 142.71875 108.230469 142.53125 107.972656 142.53125 C 107.808594 142.53125 107.714844 142.625 107.480469 142.859375 Z M 103.261719 147.078125 "/>
<path fill-rule="nonzero" fill="rgb(0%, 0%, 0%)" fill-opacity="1" d="M 121.902344 145.414062 L 123.449219 145.8125 L 123.964844 145.390625 C 124.433594 145.039062 125.089844 144.851562 125.933594 144.851562 C 126.847656 144.851562 127.597656 145.15625 128.136719 145.765625 C 128.699219 146.375 128.980469 147.195312 128.980469 148.203125 C 128.980469 149.28125 128.722656 150.148438 128.207031 150.734375 C 127.691406 151.367188 126.988281 151.671875 126.097656 151.671875 C 125.253906 151.671875 124.597656 151.460938 124.105469 150.992188 C 123.589844 150.570312 123.285156 149.914062 123.191406 149.023438 L 121.339844 149.023438 C 121.457031 150.359375 121.949219 151.390625 122.792969 152.140625 C 123.660156 152.890625 124.738281 153.242188 126.097656 153.242188 C 127.597656 153.242188 128.769531 152.796875 129.613281 151.90625 C 130.480469 150.992188 130.902344 149.75 130.902344 148.179688 C 130.902344 146.632812 130.503906 145.390625 129.683594 144.476562 C 128.863281 143.585938 127.761719 143.117188 126.402344 143.117188 C 125.441406 143.117188 124.574219 143.328125 123.847656 143.75 L 124.292969 139.625 L 130.457031 139.625 L 130.457031 137.84375 L 122.675781 137.84375 Z M 121.902344 145.414062 "/>
<path fill="none" stroke-width="0.99628" stroke-linecap="butt" stroke-linejoin="round" stroke="rgb(19.607843%, 19.607843%, 19.607843%)" stroke-opacity="1" stroke-miterlimit="10" d="M -141.07132 -18.805313 L 141.069305 -18.805313 L 141.069305 18.804062 L -141.07132 18.804062 Z M -141.07132 -18.805313 " transform="matrix(1.5, 0, 0, -1.5, 413.626511, 146.272499)"/>
<path fill-rule="nonzero" fill="rgb(0%, 0%, 0%)" fill-opacity="1" d="M 391.058594 147.121094 L 436.195312 147.121094 L 436.195312 145.425781 L 391.058594 145.425781 Z M 391.058594 147.121094 "/>
<path fill="none" stroke-width="0.99628" stroke-linecap="butt" stroke-linejoin="round" stroke="rgb(19.607843%, 19.607843%, 19.607843%)" stroke-opacity="1" stroke-miterlimit="10" d="M -65.849019 -18.808889 L 65.846293 -18.808889 L 65.846293 18.805695 L -65.849019 18.805695 Z M -65.849019 -18.808889 " transform="matrix(1.5, 0, 0, -1.5, 103.253998, 202.689011)"/>
<path fill-rule="nonzero" fill="rgb(0%, 0%, 0%)" fill-opacity="1" d="M 79.574219 204.339844 L 79.574219 194.261719 L 77.535156 194.261719 L 70.738281 204.785156 L 70.738281 205.933594 L 77.652344 205.933594 L 77.652344 209.449219 L 79.574219 209.449219 L 79.574219 205.933594 L 81.707031 205.933594 L 81.707031 204.339844 Z M 72.917969 204.339844 L 77.417969 197.308594 L 77.652344 196.910156 L 77.652344 204.339844 Z M 72.917969 204.339844 "/>
<path fill-rule="nonzero" fill="rgb(0%, 0%, 0%)" fill-opacity="1" d="M 98.410156 203.496094 L 94.121094 199.253906 C 93.863281 198.996094 93.839844 198.949219 93.652344 198.949219 C 93.441406 198.949219 93.230469 199.136719 93.230469 199.371094 C 93.230469 199.535156 93.277344 199.582031 93.511719 199.816406 L 97.777344 204.105469 L 93.511719 208.394531 C 93.277344 208.628906 93.230469 208.675781 93.230469 208.839844 C 93.230469 209.074219 93.441406 209.261719 93.652344 209.261719 C 93.839844 209.261719 93.863281 209.214844 94.121094 208.957031 L 98.386719 204.714844 L 102.816406 209.121094 C 102.839844 209.144531 103.003906 209.261719 103.121094 209.261719 C 103.378906 209.261719 103.566406 209.074219 103.566406 208.839844 C 103.566406 208.792969 103.566406 208.699219 103.496094 208.605469 C 103.472656 208.558594 100.074219 205.207031 98.996094 204.105469 L 102.910156 200.191406 C 103.027344 200.074219 103.332031 199.792969 103.449219 199.652344 C 103.472656 199.605469 103.566406 199.535156 103.566406 199.371094 C 103.566406 199.136719 103.378906 198.949219 103.121094 198.949219 C 102.957031 198.949219 102.863281 199.042969 102.628906 199.277344 Z M 98.410156 203.496094 "/>
<path fill-rule="nonzero" fill="rgb(0%, 0%, 0%)" fill-opacity="1" d="M 121.367188 209.449219 L 121.367188 194.191406 L 121.085938 194.191406 L 115.53125 196.253906 L 115.53125 198.011719 L 119.421875 196.582031 L 119.421875 209.449219 Z M 121.367188 209.449219 "/>
<path fill-rule="nonzero" fill="rgb(0%, 0%, 0%)" fill-opacity="1" d="M 134.929688 202.980469 L 134.929688 200.472656 C 134.882812 198.292969 134.484375 196.675781 133.734375 195.621094 C 132.960938 194.566406 131.742188 194.027344 130.101562 194.027344 C 128.460938 194.027344 127.242188 194.589844 126.46875 195.667969 C 125.71875 196.746094 125.320312 198.410156 125.320312 200.636719 L 125.320312 203.238281 C 125.34375 205.371094 125.742188 206.988281 126.515625 208.066406 C 127.289062 209.121094 128.507812 209.660156 130.125 209.660156 C 131.765625 209.660156 132.984375 209.121094 133.757812 208.019531 C 134.507812 206.917969 134.929688 205.230469 134.929688 202.980469 Z M 133.007812 200.332031 L 133.007812 203.496094 C 132.960938 205.089844 132.726562 206.261719 132.257812 206.988281 C 131.789062 207.714844 131.085938 208.089844 130.125 208.089844 C 129.140625 208.089844 128.414062 207.691406 127.945312 206.894531 C 127.476562 206.144531 127.242188 204.925781 127.242188 203.261719 L 127.242188 200.167969 C 127.242188 198.644531 127.476562 197.496094 127.945312 196.746094 C 128.414062 196.019531 129.140625 195.644531 130.101562 195.644531 C 131.085938 195.644531 131.8125 196.019531 132.304688 196.746094 C 132.773438 197.496094 133.007812 198.691406 133.007812 200.332031 Z M 133.007812 200.332031 "/>
<path fill="none" stroke-width="0.99628" stroke-linecap="butt" stroke-linejoin="round" stroke="rgb(19.607843%, 19.607843%, 19.607843%)" stroke-opacity="1" stroke-miterlimit="10" d="M -141.07132 -18.808889 L 141.069305 -18.808889 L 141.069305 18.805695 L -141.07132 18.805695 Z M -141.07132 -18.808889 " transform="matrix(1.5, 0, 0, -1.5, 413.626511, 202.689011)"/>
<path fill-rule="nonzero" fill="rgb(0%, 0%, 0%)" fill-opacity="1" d="M 391.058594 203.535156 L 436.195312 203.535156 L 436.195312 201.839844 L 391.058594 201.839844 Z M 391.058594 203.535156 "/>
<path fill="none" stroke-width="0.99628" stroke-linecap="butt" stroke-linejoin="round" stroke="rgb(19.607843%, 19.607843%, 19.607843%)" stroke-opacity="1" stroke-miterlimit="10" d="M -65.849019 -18.804667 L 65.846293 -18.804667 L 65.846293 18.807312 L -65.849019 18.807312 Z M -65.849019 -18.804667 " transform="matrix(1.5, 0, 0, -1.5, 103.253998, 259.105499)"/>
<path fill-rule="nonzero" fill="rgb(0%, 0%, 0%)" fill-opacity="1" d="M 85.457031 251.757812 L 85.457031 250.679688 L 75.847656 250.679688 L 75.847656 252.25 L 83.488281 252.25 L 77.464844 265.867188 L 79.410156 265.867188 Z M 85.457031 251.757812 "/>
<path fill-rule="nonzero" fill="rgb(0%, 0%, 0%)" fill-opacity="1" d="M 102.773438 259.914062 L 98.484375 255.671875 C 98.226562 255.414062 98.203125 255.367188 98.015625 255.367188 C 97.804688 255.367188 97.59375 255.554688 97.59375 255.789062 C 97.59375 255.953125 97.640625 256 97.875 256.234375 L 102.140625 260.523438 L 97.875 264.8125 C 97.640625 265.046875 97.59375 265.09375 97.59375 265.257812 C 97.59375 265.492188 97.804688 265.679688 98.015625 265.679688 C 98.203125 265.679688 98.226562 265.632812 98.484375 265.375 L 102.75 261.132812 L 107.179688 265.539062 C 107.203125 265.5625 107.367188 265.679688 107.484375 265.679688 C 107.742188 265.679688 107.929688 265.492188 107.929688 265.257812 C 107.929688 265.210938 107.929688 265.117188 107.859375 265.023438 C 107.835938 264.976562 104.4375 261.625 103.359375 260.523438 L 107.273438 256.609375 C 107.390625 256.492188 107.695312 256.210938 107.8125 256.070312 C 107.835938 256.023438 107.929688 255.953125 107.929688 255.789062 C 107.929688 255.554688 107.742188 255.367188 107.484375 255.367188 C 107.320312 255.367188 107.226562 255.460938 106.992188 255.695312 Z M 102.773438 259.914062 "/>
<path fill-rule="nonzero" fill="rgb(0%, 0%, 0%)" fill-opacity="1" d="M 130.507812 265.867188 L 130.507812 264.296875 L 122.867188 264.296875 L 126.921875 259.890625 C 128.84375 257.828125 129.804688 256.023438 129.804688 254.546875 C 129.804688 253.304688 129.359375 252.320312 128.5625 251.570312 C 127.742188 250.84375 126.640625 250.445312 125.234375 250.445312 C 123.710938 250.445312 122.492188 250.914062 121.578125 251.757812 C 120.6875 252.625 120.242188 253.773438 120.242188 255.15625 L 122.1875 255.15625 C 122.1875 254.171875 122.445312 253.421875 122.984375 252.882812 C 123.523438 252.34375 124.25 252.0625 125.234375 252.0625 C 126.007812 252.0625 126.664062 252.320312 127.132812 252.8125 C 127.601562 253.328125 127.859375 253.960938 127.859375 254.757812 C 127.859375 255.34375 127.695312 255.929688 127.414062 256.492188 C 127.109375 257.03125 126.570312 257.757812 125.796875 258.648438 L 120.546875 264.484375 L 120.546875 265.867188 Z M 130.507812 265.867188 "/>
<path fill="none" stroke-width="0.99628" stroke-linecap="butt" stroke-linejoin="round" stroke="rgb(19.607843%, 19.607843%, 19.607843%)" stroke-opacity="1" stroke-miterlimit="10" d="M -141.07132 -18.804667 L 141.069305 -18.804667 L 141.069305 18.807312 L -141.07132 18.807312 Z M -141.07132 -18.804667 " transform="matrix(1.5, 0, 0, -1.5, 413.626511, 259.105499)"/>
<path fill-rule="nonzero" fill="rgb(0%, 0%, 0%)" fill-opacity="1" d="M 391.058594 259.957031 L 436.195312 259.957031 L 436.195312 258.257812 L 391.058594 258.257812 Z M 391.058594 259.957031 "/>
<path fill="none" stroke-width="0.99628" stroke-linecap="butt" stroke-linejoin="round" stroke="rgb(19.607843%, 19.607843%, 19.607843%)" stroke-opacity="1" stroke-miterlimit="10" d="M -65.849019 -18.805639 L 65.846293 -18.805639 L 65.846293 18.803736 L -65.849019 18.803736 Z M -65.849019 -18.805639 " transform="matrix(1.5, 0, 0, -1.5, 103.253998, 315.522011)"/>
<path fill-rule="nonzero" fill="rgb(0%, 0%, 0%)" fill-opacity="1" d="M 76.929688 314.664062 L 78.476562 315.0625 L 78.992188 314.640625 C 79.460938 314.289062 80.117188 314.101562 80.960938 314.101562 C 81.875 314.101562 82.625 314.40625 83.164062 315.015625 C 83.726562 315.625 84.007812 316.445312 84.007812 317.453125 C 84.007812 318.53125 83.75 319.398438 83.234375 319.984375 C 82.71875 320.617188 82.015625 320.921875 81.125 320.921875 C 80.28125 320.921875 79.625 320.710938 79.132812 320.242188 C 78.617188 319.820312 78.3125 319.164062 78.21875 318.273438 L 76.367188 318.273438 C 76.484375 319.609375 76.976562 320.640625 77.820312 321.390625 C 78.6875 322.140625 79.765625 322.492188 81.125 322.492188 C 82.625 322.492188 83.796875 322.046875 84.640625 321.15625 C 85.507812 320.242188 85.929688 319 85.929688 317.429688 C 85.929688 315.882812 85.53125 314.640625 84.710938 313.726562 C 83.890625 312.835938 82.789062 312.367188 81.429688 312.367188 C 80.46875 312.367188 79.601562 312.578125 78.875 313 L 79.320312 308.875 L 85.484375 308.875 L 85.484375 307.09375 L 77.703125 307.09375 Z M 76.929688 314.664062 "/>
<path fill-rule="nonzero" fill="rgb(0%, 0%, 0%)" fill-opacity="1" d="M 103.261719 316.328125 L 98.972656 312.085938 C 98.714844 311.828125 98.691406 311.78125 98.503906 311.78125 C 98.292969 311.78125 98.082031 311.96875 98.082031 312.203125 C 98.082031 312.367188 98.128906 312.414062 98.363281 312.648438 L 102.628906 316.9375 L 98.363281 321.226562 C 98.128906 321.460938 98.082031 321.507812 98.082031 321.671875 C 98.082031 321.90625 98.292969 322.09375 98.503906 322.09375 C 98.691406 322.09375 98.714844 322.046875 98.972656 321.789062 L 103.238281 317.546875 L 107.667969 321.953125 C 107.691406 321.976562 107.855469 322.09375 107.972656 322.09375 C 108.230469 322.09375 108.417969 321.90625 108.417969 321.671875 C 108.417969 321.625 108.417969 321.53125 108.347656 321.4375 C 108.324219 321.390625 104.925781 318.039062 103.847656 316.9375 L 107.761719 313.023438 C 107.878906 312.90625 108.183594 312.625 108.300781 312.484375 C 108.324219 312.4375 108.417969 312.367188 108.417969 312.203125 C 108.417969 311.96875 108.230469 311.78125 107.972656 311.78125 C 107.808594 311.78125 107.714844 311.875 107.480469 312.109375 Z M 103.261719 316.328125 "/>
<path fill-rule="nonzero" fill="rgb(0%, 0%, 0%)" fill-opacity="1" d="M 130.222656 311.054688 C 130.222656 309.765625 129.800781 308.78125 128.980469 308.007812 C 128.160156 307.257812 127.082031 306.859375 125.746094 306.859375 C 124.410156 306.859375 123.308594 307.257812 122.511719 308.007812 C 121.667969 308.78125 121.269531 309.765625 121.269531 311.054688 C 121.269531 311.804688 121.457031 312.460938 121.832031 313.070312 C 122.230469 313.65625 122.769531 314.148438 123.449219 314.453125 C 122.652344 314.804688 122.042969 315.320312 121.574219 315.953125 C 121.128906 316.609375 120.917969 317.359375 120.917969 318.179688 C 120.917969 319.492188 121.339844 320.546875 122.230469 321.320312 C 123.097656 322.117188 124.269531 322.492188 125.746094 322.492188 C 127.175781 322.492188 128.347656 322.117188 129.238281 321.320312 C 130.128906 320.546875 130.574219 319.492188 130.574219 318.179688 C 130.574219 317.359375 130.339844 316.609375 129.871094 315.953125 C 129.402344 315.320312 128.792969 314.804688 127.996094 314.453125 C 128.675781 314.148438 129.214844 313.679688 129.613281 313.09375 C 130.011719 312.484375 130.222656 311.828125 130.222656 311.054688 Z M 128.652344 318.132812 C 128.652344 319 128.371094 319.679688 127.878906 320.171875 C 127.363281 320.6875 126.660156 320.921875 125.746094 320.921875 C 124.832031 320.921875 124.128906 320.6875 123.613281 320.195312 C 123.097656 319.703125 122.839844 319 122.839844 318.15625 C 122.839844 317.3125 123.097656 316.585938 123.636719 316.070312 C 124.152344 315.53125 124.855469 315.25 125.722656 315.25 C 126.589844 315.25 127.292969 315.53125 127.855469 316.070312 C 128.371094 316.585938 128.652344 317.289062 128.652344 318.132812 Z M 125.746094 308.476562 C 126.472656 308.476562 127.105469 308.734375 127.574219 309.203125 C 128.042969 309.695312 128.300781 310.304688 128.300781 311.078125 C 128.300781 311.851562 128.066406 312.484375 127.597656 312.953125 C 127.128906 313.421875 126.519531 313.65625 125.746094 313.65625 C 124.972656 313.65625 124.363281 313.421875 123.894531 312.953125 C 123.425781 312.484375 123.214844 311.851562 123.214844 311.078125 C 123.214844 310.257812 123.449219 309.648438 123.917969 309.179688 C 124.386719 308.710938 124.972656 308.476562 125.746094 308.476562 Z M 125.746094 308.476562 "/>
<path fill="none" stroke-width="0.99628" stroke-linecap="butt" stroke-linejoin="round" stroke="rgb(19.607843%, 19.607843%, 19.607843%)" stroke-opacity="1" stroke-miterlimit="10" d="M -141.07132 -18.805639 L 141.069305 -18.805639 L 141.069305 18.803736 L -141.07132 18.803736 Z M -141.07132 -18.805639 " transform="matrix(1.5, 0, 0, -1.5, 413.626511, 315.522011)"/>
<path fill-rule="nonzero" fill="rgb(0%, 0%, 0%)" fill-opacity="1" d="M 391.058594 316.371094 L 436.195312 316.371094 L 436.195312 314.671875 L 391.058594 314.671875 Z M 391.058594 316.371094 "/>
</svg>
