<?xml version="1.0" encoding="UTF-8"?>
<svg xmlns="http://www.w3.org/2000/svg" xmlns:xlink="http://www.w3.org/1999/xlink" width="433.054504" height="111.880497" viewBox="0 0 433.054504 111.880497">
<path fill="none" stroke-width="0.74721" stroke-linecap="butt" stroke-linejoin="round" stroke="rgb(0%, 0%, 0%)" stroke-opacity="1" stroke-miterlimit="10" d="M -0.00050354 -0.00029246 L 213.48908 -0.00029246 " transform="matrix(1.5, 0, 0, -1.5, 103.594505, 34.022999)"/>
<path fill-rule="nonzero" fill="rgb(0%, 0%, 0%)" fill-opacity="1" d="M 427.597656 34.027344 L 421.558594 31.003906 L 423.824219 34.027344 L 421.558594 37.042969 "/>
<path fill-rule="nonzero" fill="rgb(0%, 0%, 0%)" fill-opacity="1" d="M 15.195312 31.265625 C 14.234375 30.703125 13.671875 30.5625 12.664062 30.5625 C 10.390625 30.5625 9.054688 32.554688 9.054688 34.476562 C 9.054688 36.515625 10.554688 38.320312 12.617188 38.320312 C 13.507812 38.320312 14.398438 38.085938 15.289062 37.476562 L 15.195312 36.375 C 14.351562 37.03125 13.460938 37.265625 12.617188 37.265625 C 11.257812 37.265625 10.34375 36.070312 10.34375 34.476562 C 10.34375 33.1875 10.953125 31.617188 12.6875 31.617188 C 13.554688 31.617188 14.09375 31.734375 15.007812 32.34375 Z M 15.195312 31.265625 "/>
<path fill-rule="nonzero" fill="rgb(0%, 0%, 0%)" fill-opacity="1" d="M 22.335938 33.375 C 22.335938 31.710938 21.140625 30.5625 19.617188 30.5625 C 18.539062 30.5625 17.8125 30.820312 17.039062 31.265625 L 17.132812 32.34375 C 18 31.734375 18.820312 31.523438 19.617188 31.523438 C 20.390625 31.523438 21.046875 32.179688 21.046875 33.398438 L 21.046875 34.101562 C 18.585938 34.148438 16.5 34.828125 16.5 36.28125 C 16.5 36.984375 16.945312 38.320312 18.375 38.320312 C 18.609375 38.320312 20.132812 38.273438 21.09375 37.546875 L 21.09375 38.132812 L 22.335938 38.132812 Z M 21.046875 35.953125 C 21.046875 36.28125 21.046875 36.679688 20.484375 37.007812 C 20.015625 37.289062 19.382812 37.3125 19.21875 37.3125 C 18.421875 37.3125 17.671875 36.9375 17.671875 36.234375 C 17.671875 35.085938 20.34375 34.96875 21.046875 34.945312 Z M 21.046875 35.953125 "/>
<path fill-rule="nonzero" fill="rgb(0%, 0%, 0%)" fill-opacity="1" d="M 26.226562 26.742188 L 25.007812 26.742188 L 25.007812 38.132812 L 26.226562 38.132812 Z M 26.226562 26.742188 "/>
<path fill-rule="nonzero" fill="rgb(0%, 0%, 0%)" fill-opacity="1" d="M 34.328125 31.265625 C 33.367188 30.703125 32.804688 30.5625 31.796875 30.5625 C 29.523438 30.5625 28.1875 32.554688 28.1875 34.476562 C 28.1875 36.515625 29.6875 38.320312 31.75 38.320312 C 32.640625 38.320312 33.53125 38.085938 34.421875 37.476562 L 34.328125 36.375 C 33.484375 37.03125 32.59375 37.265625 31.75 37.265625 C 30.390625 37.265625 29.476562 36.070312 29.476562 34.476562 C 29.476562 33.1875 30.085938 31.617188 31.820312 31.617188 C 32.6875 31.617188 33.226562 31.734375 34.140625 32.34375 Z M 34.328125 31.265625 "/>
<path fill-rule="nonzero" fill="rgb(0%, 0%, 0%)" fill-opacity="1" d="M 37.578125 26.953125 L 36.125 26.953125 L 36.125 28.429688 L 37.578125 28.429688 Z M 37.460938 30.84375 L 36.242188 30.84375 L 36.242188 38.132812 L 37.460938 38.132812 Z M 37.460938 30.84375 "/>
<path fill-rule="nonzero" fill="rgb(0%, 0%, 0%)" fill-opacity="1" d="M 46.542969 34.523438 C 46.542969 32.320312 44.902344 30.5625 42.933594 30.5625 C 40.917969 30.5625 39.324219 32.367188 39.324219 34.523438 C 39.324219 36.679688 41.011719 38.320312 42.933594 38.320312 C 44.902344 38.320312 46.542969 36.65625 46.542969 34.523438 Z M 42.933594 37.265625 C 41.785156 37.265625 40.613281 36.351562 40.613281 34.359375 C 40.613281 32.367188 41.855469 31.570312 42.933594 31.570312 C 44.082031 31.570312 45.253906 32.414062 45.253906 34.359375 C 45.253906 36.28125 44.128906 37.265625 42.933594 37.265625 Z M 42.933594 37.265625 "/>
<path fill-rule="nonzero" fill="rgb(0%, 0%, 0%)" fill-opacity="1" d="M 56.980469 25.804688 C 56.464844 26.296875 55.363281 27.304688 54.589844 29.320312 C 53.933594 31.078125 53.816406 32.835938 53.816406 34.03125 C 53.816406 39.328125 56.183594 41.507812 56.980469 42.234375 L 57.988281 42.234375 C 57.191406 41.460938 55.105469 39.328125 55.105469 34.03125 C 55.105469 33.09375 55.152344 31.171875 55.832031 29.25 C 56.511719 27.328125 57.449219 26.34375 57.988281 25.804688 Z M 56.980469 25.804688 "/>
<path fill-rule="nonzero" fill="rgb(0%, 0%, 0%)" fill-opacity="1" d="M 70.636719 33.234375 C 70.636719 32.132812 70.378906 30.65625 68.386719 30.65625 C 67.402344 30.65625 66.535156 31.125 65.925781 32.015625 C 65.503906 30.75 64.355469 30.65625 63.839844 30.65625 C 62.644531 30.65625 61.871094 31.335938 61.425781 31.921875 L 61.425781 30.75 L 60.253906 30.75 L 60.253906 38.132812 L 61.519531 38.132812 L 61.519531 34.101562 C 61.519531 33 61.964844 31.664062 63.183594 31.664062 C 64.707031 31.664062 64.800781 32.71875 64.800781 33.351562 L 64.800781 38.132812 L 66.089844 38.132812 L 66.089844 34.101562 C 66.089844 33 66.535156 31.664062 67.730469 31.664062 C 69.277344 31.664062 69.347656 32.71875 69.347656 33.351562 L 69.347656 38.132812 L 70.636719 38.132812 Z M 70.636719 33.234375 "/>
<path fill-rule="nonzero" fill="rgb(0%, 0%, 0%)" fill-opacity="1" d="M 77.765625 31.710938 C 78.117188 31.710938 78.585938 31.640625 78.984375 31.640625 C 79.265625 31.640625 79.921875 31.6875 79.945312 31.6875 L 79.757812 30.65625 C 78.609375 30.65625 77.671875 30.960938 77.179688 31.171875 C 76.828125 30.914062 76.265625 30.65625 75.609375 30.65625 C 74.203125 30.65625 72.984375 31.851562 72.984375 33.328125 C 72.984375 33.9375 73.21875 34.523438 73.546875 34.96875 C 73.054688 35.625 73.054688 36.28125 73.054688 36.351562 C 73.054688 36.796875 73.21875 37.265625 73.476562 37.617188 C 72.632812 38.109375 72.445312 38.882812 72.445312 39.304688 C 72.445312 40.523438 74.0625 41.507812 76.078125 41.507812 C 78.09375 41.507812 79.710938 40.546875 79.710938 39.28125 C 79.710938 37.007812 76.96875 37.007812 76.335938 37.007812 L 74.882812 37.007812 C 74.671875 37.007812 73.921875 37.007812 73.921875 36.117188 C 73.921875 35.953125 73.992188 35.695312 74.109375 35.53125 C 74.460938 35.789062 75 36.023438 75.609375 36.023438 C 77.085938 36.023438 78.234375 34.804688 78.234375 33.328125 C 78.234375 32.554688 77.882812 31.945312 77.695312 31.6875 Z M 75.609375 35.085938 C 75 35.085938 74.15625 34.6875 74.15625 33.328125 C 74.15625 31.96875 75 31.59375 75.609375 31.59375 C 76.3125 31.59375 77.085938 32.0625 77.085938 33.328125 C 77.085938 34.617188 76.3125 35.085938 75.609375 35.085938 Z M 76.335938 38.179688 C 76.710938 38.179688 78.5625 38.179688 78.5625 39.304688 C 78.5625 40.03125 77.4375 40.570312 76.078125 40.570312 C 74.742188 40.570312 73.59375 40.078125 73.59375 39.304688 C 73.59375 39.257812 73.59375 38.179688 74.859375 38.179688 Z M 76.335938 38.179688 "/>
<path fill-rule="nonzero" fill="rgb(0%, 0%, 0%)" fill-opacity="1" d="M 82.117188 42.234375 C 82.632812 41.742188 83.734375 40.734375 84.507812 38.71875 C 85.164062 36.960938 85.28125 35.226562 85.28125 34.03125 C 85.28125 28.710938 82.914062 26.53125 82.117188 25.804688 L 81.109375 25.804688 C 81.90625 26.601562 83.992188 28.710938 83.992188 34.03125 C 83.992188 34.945312 83.945312 36.867188 83.265625 38.8125 C 82.585938 40.710938 81.648438 41.695312 81.109375 42.234375 Z M 82.117188 42.234375 "/>
<path fill="none" stroke-width="0.3487" stroke-linecap="round" stroke-linejoin="round" stroke="rgb(0%, 0%, 0%)" stroke-opacity="1" stroke-miterlimit="10" d="M 8.504705 -3.484667 L 8.504705 3.486687 Z M 8.504705 -3.484667 " transform="matrix(1.5, 0, 0, -1.5, 103.594505, 34.022999)"/>
<path fill="none" stroke-width="0.3487" stroke-linecap="round" stroke-linejoin="round" stroke="rgb(0%, 0%, 0%)" stroke-opacity="1" stroke-miterlimit="10" d="M 57.192205 -3.484667 L 57.192205 3.486687 Z M 57.192205 -3.484667 " transform="matrix(1.5, 0, 0, -1.5, 103.594505, 34.022999)"/>
<path fill="none" stroke-width="0.3487" stroke-linecap="round" stroke-linejoin="round" stroke="rgb(0%, 0%, 0%)" stroke-opacity="1" stroke-miterlimit="10" d="M 105.874496 -3.484667 L 105.874496 3.486687 Z M 105.874496 -3.484667 " transform="matrix(1.5, 0, 0, -1.5, 103.594505, 34.022999)"/>
<path fill="none" stroke-width="0.3487" stroke-linecap="round" stroke-linejoin="round" stroke="rgb(0%, 0%, 0%)" stroke-opacity="1" stroke-miterlimit="10" d="M 154.561996 -3.484667 L 154.561996 3.486687 Z M 154.561996 -3.484667 " transform="matrix(1.5, 0, 0, -1.5, 103.594505, 34.022999)"/>
<path fill="none" stroke-width="0.3487" stroke-linecap="round" stroke-linejoin="round" stroke="rgb(0%, 0%, 0%)" stroke-opacity="1" stroke-miterlimit="10" d="M 203.246892 -3.484667 L 203.246892 3.486687 Z M 203.246892 -3.484667 " transform="matrix(1.5, 0, 0, -1.5, 103.594505, 34.022999)"/>
<path fill-rule="nonzero" fill="rgb(0%, 0%, 0%)" fill-opacity="1" d="M 119.246094 18.679688 C 119.246094 17.414062 119.152344 16.21875 118.519531 15.164062 C 118.074219 14.414062 117.230469 13.96875 116.363281 13.96875 C 115.683594 13.96875 114.722656 14.226562 114.113281 15.28125 C 113.480469 16.335938 113.457031 17.765625 113.457031 18.679688 C 113.457031 19.359375 113.457031 20.90625 114.042969 21.984375 C 114.722656 23.179688 115.753906 23.367188 116.339844 23.367188 C 117.113281 23.367188 118.097656 23.039062 118.660156 21.914062 C 119.175781 20.929688 119.246094 19.757812 119.246094 18.679688 Z M 116.363281 22.476562 C 114.558594 22.476562 114.558594 19.804688 114.558594 18.539062 C 114.558594 17.671875 114.558594 16.992188 114.769531 16.289062 C 115.027344 15.375 115.566406 14.835938 116.339844 14.835938 C 118.121094 14.835938 118.121094 17.273438 118.121094 18.539062 C 118.121094 19.453125 118.121094 20.367188 117.816406 21.257812 C 117.511719 22.171875 116.878906 22.476562 116.363281 22.476562 Z M 116.363281 22.476562 "/>
<path fill-rule="nonzero" fill="rgb(0%, 0%, 0%)" fill-opacity="1" d="M 180.300781 16.171875 C 180.886719 15 181.917969 14.8125 182.410156 14.8125 C 183.089844 14.8125 183.769531 15.1875 183.769531 16.03125 C 183.769531 16.523438 183.488281 17.671875 182.035156 17.8125 C 181.777344 17.835938 181.566406 17.859375 181.308594 17.859375 L 181.308594 18.75 L 182.316406 18.75 C 183.628906 18.75 184.050781 19.804688 184.050781 20.625 C 184.050781 21.679688 183.417969 22.476562 182.386719 22.476562 C 181.285156 22.476562 180.253906 21.867188 179.761719 21.140625 C 179.644531 21.679688 179.644531 21.726562 179.597656 22.007812 C 180.253906 22.804688 181.261719 23.367188 182.410156 23.367188 C 184.121094 23.367188 185.339844 22.03125 185.339844 20.625 C 185.339844 19.570312 184.542969 18.679688 183.441406 18.304688 C 184.402344 17.835938 184.964844 16.945312 184.964844 16.03125 C 184.964844 14.859375 183.816406 13.96875 182.433594 13.96875 C 181.308594 13.96875 180.347656 14.554688 179.785156 15.398438 Z M 180.300781 16.171875 "/>
<path fill-rule="nonzero" fill="rgb(0%, 0%, 0%)" fill-opacity="1" d="M 192.273438 18.679688 C 192.273438 17.414062 192.179688 16.21875 191.546875 15.164062 C 191.101562 14.414062 190.257812 13.96875 189.390625 13.96875 C 188.710938 13.96875 187.75 14.226562 187.140625 15.28125 C 186.507812 16.335938 186.484375 17.765625 186.484375 18.679688 C 186.484375 19.359375 186.484375 20.90625 187.070312 21.984375 C 187.75 23.179688 188.78125 23.367188 189.367188 23.367188 C 190.140625 23.367188 191.125 23.039062 191.6875 21.914062 C 192.203125 20.929688 192.273438 19.757812 192.273438 18.679688 Z M 189.390625 22.476562 C 187.585938 22.476562 187.585938 19.804688 187.585938 18.539062 C 187.585938 17.671875 187.585938 16.992188 187.796875 16.289062 C 188.054688 15.375 188.59375 14.835938 189.367188 14.835938 C 191.148438 14.835938 191.148438 17.273438 191.148438 18.539062 C 191.148438 19.453125 191.148438 20.367188 190.84375 21.257812 C 190.539062 22.171875 189.90625 22.476562 189.390625 22.476562 Z M 189.390625 22.476562 "/>
<path fill-rule="nonzero" fill="rgb(0%, 0%, 0%)" fill-opacity="1" d="M 199.183594 18.679688 C 199.183594 17.414062 199.089844 16.21875 198.457031 15.164062 C 198.011719 14.414062 197.167969 13.96875 196.300781 13.96875 C 195.621094 13.96875 194.660156 14.226562 194.050781 15.28125 C 193.417969 16.335938 193.394531 17.765625 193.394531 18.679688 C 193.394531 19.359375 193.394531 20.90625 193.980469 21.984375 C 194.660156 23.179688 195.691406 23.367188 196.277344 23.367188 C 197.050781 23.367188 198.035156 23.039062 198.597656 21.914062 C 199.113281 20.929688 199.183594 19.757812 199.183594 18.679688 Z M 196.300781 22.476562 C 194.496094 22.476562 194.496094 19.804688 194.496094 18.539062 C 194.496094 17.671875 194.496094 16.992188 194.707031 16.289062 C 194.964844 15.375 195.503906 14.835938 196.277344 14.835938 C 198.058594 14.835938 198.058594 17.273438 198.058594 18.539062 C 198.058594 19.453125 198.058594 20.367188 197.753906 21.257812 C 197.449219 22.171875 196.816406 22.476562 196.300781 22.476562 Z M 196.300781 22.476562 "/>
<path fill-rule="nonzero" fill="rgb(0%, 0%, 0%)" fill-opacity="1" d="M 257.78125 14.226562 C 257.125 13.992188 256.609375 13.96875 256.304688 13.96875 C 254.359375 13.96875 252.625 15.84375 252.625 18.75 C 252.625 22.429688 254.242188 23.367188 255.507812 23.367188 C 256.328125 23.367188 256.914062 23.0625 257.453125 22.453125 C 258.109375 21.75 258.367188 21.117188 258.367188 20.0625 C 258.367188 19.3125 258.25 18.632812 257.804688 17.90625 C 257.265625 17.0625 256.796875 16.828125 256.164062 16.828125 C 255.648438 16.828125 254.640625 16.992188 253.820312 17.929688 C 253.960938 16.125 254.875 14.8125 256.328125 14.8125 C 256.585938 14.8125 257.078125 14.8125 257.78125 15.09375 Z M 253.820312 20.109375 C 253.820312 19.921875 253.820312 19.898438 253.84375 19.757812 C 253.84375 18.726562 254.476562 17.71875 255.578125 17.71875 C 256.09375 17.71875 256.539062 17.90625 256.890625 18.539062 C 257.171875 19.007812 257.195312 19.453125 257.195312 20.0625 C 257.195312 20.578125 257.195312 21.140625 256.84375 21.726562 C 256.585938 22.125 256.210938 22.476562 255.507812 22.476562 C 254.078125 22.476562 253.867188 20.554688 253.820312 20.109375 Z M 253.820312 20.109375 "/>
<path fill-rule="nonzero" fill="rgb(0%, 0%, 0%)" fill-opacity="1" d="M 265.300781 18.679688 C 265.300781 17.414062 265.207031 16.21875 264.574219 15.164062 C 264.128906 14.414062 263.285156 13.96875 262.417969 13.96875 C 261.738281 13.96875 260.777344 14.226562 260.167969 15.28125 C 259.535156 16.335938 259.511719 17.765625 259.511719 18.679688 C 259.511719 19.359375 259.511719 20.90625 260.097656 21.984375 C 260.777344 23.179688 261.808594 23.367188 262.394531 23.367188 C 263.167969 23.367188 264.152344 23.039062 264.714844 21.914062 C 265.230469 20.929688 265.300781 19.757812 265.300781 18.679688 Z M 262.417969 22.476562 C 260.613281 22.476562 260.613281 19.804688 260.613281 18.539062 C 260.613281 17.671875 260.613281 16.992188 260.824219 16.289062 C 261.082031 15.375 261.621094 14.835938 262.394531 14.835938 C 264.175781 14.835938 264.175781 17.273438 264.175781 18.539062 C 264.175781 19.453125 264.175781 20.367188 263.871094 21.257812 C 263.566406 22.171875 262.933594 22.476562 262.417969 22.476562 Z M 262.417969 22.476562 "/>
<path fill-rule="nonzero" fill="rgb(0%, 0%, 0%)" fill-opacity="1" d="M 272.210938 18.679688 C 272.210938 17.414062 272.117188 16.21875 271.484375 15.164062 C 271.039062 14.414062 270.195312 13.96875 269.328125 13.96875 C 268.648438 13.96875 267.6875 14.226562 267.078125 15.28125 C 266.445312 16.335938 266.421875 17.765625 266.421875 18.679688 C 266.421875 19.359375 266.421875 20.90625 267.007812 21.984375 C 267.6875 23.179688 268.71875 23.367188 269.304688 23.367188 C 270.078125 23.367188 271.0625 23.039062 271.625 21.914062 C 272.140625 20.929688 272.210938 19.757812 272.210938 18.679688 Z M 269.328125 22.476562 C 267.523438 22.476562 267.523438 19.804688 267.523438 18.539062 C 267.523438 17.671875 267.523438 16.992188 267.734375 16.289062 C 267.992188 15.375 268.53125 14.835938 269.304688 14.835938 C 271.085938 14.835938 271.085938 17.273438 271.085938 18.539062 C 271.085938 19.453125 271.085938 20.367188 270.78125 21.257812 C 270.476562 22.171875 269.84375 22.476562 269.328125 22.476562 Z M 269.328125 22.476562 "/>
<path fill-rule="nonzero" fill="rgb(0%, 0%, 0%)" fill-opacity="1" d="M 326.050781 22.734375 C 326.660156 23.203125 327.269531 23.367188 327.902344 23.367188 C 329.707031 23.367188 331.394531 21.492188 331.394531 18.5625 C 331.394531 14.90625 329.824219 13.96875 328.558594 13.96875 C 327.808594 13.96875 327.128906 14.226562 326.542969 14.882812 C 325.863281 15.632812 325.652344 16.242188 325.652344 17.25 C 325.652344 18.1875 325.816406 18.820312 326.285156 19.5 C 326.753906 20.226562 327.199219 20.484375 327.855469 20.484375 C 329.003906 20.484375 329.824219 19.828125 330.199219 19.382812 C 329.988281 21.773438 328.792969 22.476562 327.902344 22.476562 C 327.527344 22.476562 327.011719 22.40625 326.496094 21.984375 Z M 330.152344 17.226562 C 330.175781 17.320312 330.175781 17.460938 330.175781 17.554688 C 330.175781 18.65625 329.472656 19.617188 328.441406 19.617188 C 327.714844 19.617188 327.386719 19.21875 327.175781 18.890625 C 326.824219 18.351562 326.824219 17.8125 326.824219 17.25 C 326.824219 16.664062 326.824219 16.101562 327.269531 15.492188 C 327.410156 15.28125 327.761719 14.8125 328.558594 14.8125 C 329.964844 14.8125 330.128906 16.757812 330.152344 17.226562 Z M 330.152344 17.226562 "/>
<path fill-rule="nonzero" fill="rgb(0%, 0%, 0%)" fill-opacity="1" d="M 338.328125 18.679688 C 338.328125 17.414062 338.234375 16.21875 337.601562 15.164062 C 337.15625 14.414062 336.3125 13.96875 335.445312 13.96875 C 334.765625 13.96875 333.804688 14.226562 333.195312 15.28125 C 332.5625 16.335938 332.539062 17.765625 332.539062 18.679688 C 332.539062 19.359375 332.539062 20.90625 333.125 21.984375 C 333.804688 23.179688 334.835938 23.367188 335.421875 23.367188 C 336.195312 23.367188 337.179688 23.039062 337.742188 21.914062 C 338.257812 20.929688 338.328125 19.757812 338.328125 18.679688 Z M 335.445312 22.476562 C 333.640625 22.476562 333.640625 19.804688 333.640625 18.539062 C 333.640625 17.671875 333.640625 16.992188 333.851562 16.289062 C 334.109375 15.375 334.648438 14.835938 335.421875 14.835938 C 337.203125 14.835938 337.203125 17.273438 337.203125 18.539062 C 337.203125 19.453125 337.203125 20.367188 336.898438 21.257812 C 336.59375 22.171875 335.960938 22.476562 335.445312 22.476562 Z M 335.445312 22.476562 "/>
<path fill-rule="nonzero" fill="rgb(0%, 0%, 0%)" fill-opacity="1" d="M 345.238281 18.679688 C 345.238281 17.414062 345.144531 16.21875 344.511719 15.164062 C 344.066406 14.414062 343.222656 13.96875 342.355469 13.96875 C 341.675781 13.96875 340.714844 14.226562 340.105469 15.28125 C 339.472656 16.335938 339.449219 17.765625 339.449219 18.679688 C 339.449219 19.359375 339.449219 20.90625 340.035156 21.984375 C 340.714844 23.179688 341.746094 23.367188 342.332031 23.367188 C 343.105469 23.367188 344.089844 23.039062 344.652344 21.914062 C 345.167969 20.929688 345.238281 19.757812 345.238281 18.679688 Z M 342.355469 22.476562 C 340.550781 22.476562 340.550781 19.804688 340.550781 18.539062 C 340.550781 17.671875 340.550781 16.992188 340.761719 16.289062 C 341.019531 15.375 341.558594 14.835938 342.332031 14.835938 C 344.113281 14.835938 344.113281 17.273438 344.113281 18.539062 C 344.113281 19.453125 344.113281 20.367188 343.808594 21.257812 C 343.503906 22.171875 342.871094 22.476562 342.355469 22.476562 Z M 342.355469 22.476562 "/>
<path fill-rule="nonzero" fill="rgb(0%, 0%, 0%)" fill-opacity="1" d="M 398.785156 13.96875 L 398.503906 13.96875 C 397.613281 14.835938 396.324219 14.835938 395.855469 14.835938 L 395.855469 15.679688 C 396.230469 15.679688 396.910156 15.679688 397.660156 15.375 L 397.660156 22.21875 L 395.925781 22.21875 L 395.925781 23.0625 L 400.519531 23.0625 L 400.519531 22.21875 L 398.785156 22.21875 Z M 398.785156 13.96875 "/>
<path fill-rule="nonzero" fill="rgb(0%, 0%, 0%)" fill-opacity="1" d="M 405.226562 22.054688 C 405.0625 22.054688 404.921875 22.078125 404.757812 22.078125 L 403.257812 22.078125 C 403.679688 21.679688 405.0625 20.414062 405.484375 20.0625 C 406.890625 18.914062 407.757812 18.1875 407.757812 16.875 C 407.757812 15.328125 406.65625 13.96875 404.804688 13.96875 C 403.398438 13.96875 402.53125 14.789062 402.132812 16.125 L 402.742188 16.898438 C 403.09375 15.328125 403.796875 14.882812 404.617188 14.882812 C 405.835938 14.882812 406.585938 15.796875 406.585938 16.898438 C 406.585938 18.117188 405.71875 18.914062 404.710938 19.804688 L 402.226562 22.148438 L 402.226562 23.0625 L 407.757812 23.0625 L 407.757812 22.054688 Z M 405.226562 22.054688 "/>
<path fill-rule="nonzero" fill="rgb(0%, 0%, 0%)" fill-opacity="1" d="M 414.8125 18.679688 C 414.8125 17.414062 414.71875 16.21875 414.085938 15.164062 C 413.640625 14.414062 412.796875 13.96875 411.929688 13.96875 C 411.25 13.96875 410.289062 14.226562 409.679688 15.28125 C 409.046875 16.335938 409.023438 17.765625 409.023438 18.679688 C 409.023438 19.359375 409.023438 20.90625 409.609375 21.984375 C 410.289062 23.179688 411.320312 23.367188 411.90625 23.367188 C 412.679688 23.367188 413.664062 23.039062 414.226562 21.914062 C 414.742188 20.929688 414.8125 19.757812 414.8125 18.679688 Z M 411.929688 22.476562 C 410.125 22.476562 410.125 19.804688 410.125 18.539062 C 410.125 17.671875 410.125 16.992188 410.335938 16.289062 C 410.59375 15.375 411.132812 14.835938 411.90625 14.835938 C 413.6875 14.835938 413.6875 17.273438 413.6875 18.539062 C 413.6875 19.453125 413.6875 20.367188 413.382812 21.257812 C 413.078125 22.171875 412.445312 22.476562 411.929688 22.476562 Z M 411.929688 22.476562 "/>
<path fill-rule="nonzero" fill="rgb(0%, 0%, 0%)" fill-opacity="1" d="M 421.722656 18.679688 C 421.722656 17.414062 421.628906 16.21875 420.996094 15.164062 C 420.550781 14.414062 419.707031 13.96875 418.839844 13.96875 C 418.160156 13.96875 417.199219 14.226562 416.589844 15.28125 C 415.957031 16.335938 415.933594 17.765625 415.933594 18.679688 C 415.933594 19.359375 415.933594 20.90625 416.519531 21.984375 C 417.199219 23.179688 418.230469 23.367188 418.816406 23.367188 C 419.589844 23.367188 420.574219 23.039062 421.136719 21.914062 C 421.652344 20.929688 421.722656 19.757812 421.722656 18.679688 Z M 418.839844 22.476562 C 417.035156 22.476562 417.035156 19.804688 417.035156 18.539062 C 417.035156 17.671875 417.035156 16.992188 417.246094 16.289062 C 417.503906 15.375 418.042969 14.835938 418.816406 14.835938 C 420.597656 14.835938 420.597656 17.273438 420.597656 18.539062 C 420.597656 19.453125 420.597656 20.367188 420.292969 21.257812 C 419.988281 22.171875 419.355469 22.476562 418.839844 22.476562 Z M 418.839844 22.476562 "/>
<path fill="none" stroke-width="0.74721" stroke-linecap="butt" stroke-linejoin="round" stroke="rgb(0%, 0%, 0%)" stroke-opacity="1" stroke-miterlimit="10" d="M -0.00050354 -29.224251 L 213.48908 -29.224251 " transform="matrix(1.5, 0, 0, -1.5, 103.594505, 34.022999)"/>
<path fill-rule="nonzero" fill="rgb(0%, 0%, 0%)" fill-opacity="1" d="M 427.597656 77.859375 L 421.558594 74.839844 L 423.824219 77.859375 L 421.558594 80.878906 "/>
<path fill="none" stroke-width="0.3487" stroke-linecap="round" stroke-linejoin="round" stroke="rgb(0%, 0%, 0%)" stroke-opacity="1" stroke-miterlimit="10" d="M 8.504705 -32.71123 L 8.504705 -25.734667 Z M 8.504705 -32.71123 " transform="matrix(1.5, 0, 0, -1.5, 103.594505, 34.022999)"/>
<path fill="none" stroke-width="0.3487" stroke-linecap="round" stroke-linejoin="round" stroke="rgb(0%, 0%, 0%)" stroke-opacity="1" stroke-miterlimit="10" d="M 57.192205 -32.71123 L 57.192205 -25.734667 Z M 57.192205 -32.71123 " transform="matrix(1.5, 0, 0, -1.5, 103.594505, 34.022999)"/>
<path fill="none" stroke-width="0.3487" stroke-linecap="round" stroke-linejoin="round" stroke="rgb(0%, 0%, 0%)" stroke-opacity="1" stroke-miterlimit="10" d="M 105.874496 -32.71123 L 105.874496 -25.734667 Z M 105.874496 -32.71123 " transform="matrix(1.5, 0, 0, -1.5, 103.594505, 34.022999)"/>
<path fill="none" stroke-width="0.3487" stroke-linecap="round" stroke-linejoin="round" stroke="rgb(0%, 0%, 0%)" stroke-opacity="1" stroke-miterlimit="10" d="M 154.561996 -32.71123 L 154.561996 -25.734667 Z M 154.561996 -32.71123 " transform="matrix(1.5, 0, 0, -1.5, 103.594505, 34.022999)"/>
<path fill="none" stroke-width="0.3487" stroke-linecap="round" stroke-linejoin="round" stroke="rgb(0%, 0%, 0%)" stroke-opacity="1" stroke-miterlimit="10" d="M 203.246892 -32.71123 L 203.246892 -25.734667 Z M 203.246892 -32.71123 " transform="matrix(1.5, 0, 0, -1.5, 103.594505, 34.022999)"/>
<path fill-rule="nonzero" fill="rgb(0%, 0%, 0%)" fill-opacity="1" d="M 113.484375 93.933594 C 113.484375 92.667969 113.390625 91.472656 112.757812 90.417969 C 112.3125 89.667969 111.46875 89.222656 110.601562 89.222656 C 109.921875 89.222656 108.960938 89.480469 108.351562 90.535156 C 107.71875 91.589844 107.695312 93.019531 107.695312 93.933594 C 107.695312 94.613281 107.695312 96.160156 108.28125 97.238281 C 108.960938 98.433594 109.992188 98.621094 110.578125 98.621094 C 111.351562 98.621094 112.335938 98.292969 112.898438 97.167969 C 113.414062 96.183594 113.484375 95.011719 113.484375 93.933594 Z M 110.601562 97.730469 C 108.796875 97.730469 108.796875 95.058594 108.796875 93.792969 C 108.796875 92.925781 108.796875 92.246094 109.007812 91.542969 C 109.265625 90.628906 109.804688 90.089844 110.578125 90.089844 C 112.359375 90.089844 112.359375 92.527344 112.359375 93.792969 C 112.359375 94.707031 112.359375 95.621094 112.054688 96.511719 C 111.75 97.425781 111.117188 97.730469 110.601562 97.730469 Z M 110.601562 97.730469 "/>
<path fill-rule="nonzero" fill="rgb(0%, 0%, 0%)" fill-opacity="1" d="M 123.070312 88.753906 C 123.164062 88.613281 123.164062 88.542969 123.164062 88.519531 C 123.164062 88.332031 123 88.214844 122.882812 88.214844 C 122.71875 88.214844 122.648438 88.355469 122.578125 88.449219 L 116.578125 98.503906 C 116.484375 98.667969 116.460938 98.714844 116.460938 98.785156 C 116.460938 98.949219 116.601562 99.066406 116.765625 99.066406 C 116.929688 99.066406 117 98.949219 117.070312 98.832031 Z M 124.78125 96.371094 C 124.78125 94.777344 123.867188 93.652344 122.882812 93.652344 C 121.875 93.652344 120.9375 94.800781 120.9375 96.347656 C 120.9375 97.964844 121.898438 99.066406 122.882812 99.066406 C 123.890625 99.066406 124.78125 97.917969 124.78125 96.371094 Z M 122.882812 98.199219 C 122.71875 98.199219 122.015625 98.128906 122.015625 96.371094 C 122.015625 94.613281 122.695312 94.519531 122.882812 94.519531 C 123.421875 94.519531 123.796875 95.386719 123.796875 96.347656 C 123.796875 97.378906 123.398438 98.199219 122.882812 98.199219 Z M 118.640625 90.933594 C 118.640625 89.363281 117.726562 88.214844 116.742188 88.214844 C 115.734375 88.214844 114.820312 89.363281 114.820312 90.933594 C 114.820312 92.527344 115.757812 93.652344 116.742188 93.652344 C 117.75 93.652344 118.640625 92.480469 118.640625 90.933594 Z M 116.742188 92.785156 C 116.578125 92.785156 115.875 92.714844 115.875 90.933594 C 115.875 89.199219 116.554688 89.105469 116.742188 89.105469 C 117.28125 89.105469 117.65625 89.972656 117.65625 90.933594 C 117.65625 91.941406 117.257812 92.785156 116.742188 92.785156 Z M 116.742188 92.785156 "/>
<path fill-rule="nonzero" fill="rgb(0%, 0%, 0%)" fill-opacity="1" d="M 180.386719 97.308594 C 180.222656 97.308594 180.082031 97.332031 179.917969 97.332031 L 178.417969 97.332031 C 178.839844 96.933594 180.222656 95.667969 180.644531 95.316406 C 182.050781 94.167969 182.917969 93.441406 182.917969 92.128906 C 182.917969 90.582031 181.816406 89.222656 179.964844 89.222656 C 178.558594 89.222656 177.691406 90.042969 177.292969 91.378906 L 177.902344 92.152344 C 178.253906 90.582031 178.957031 90.136719 179.777344 90.136719 C 180.996094 90.136719 181.746094 91.050781 181.746094 92.152344 C 181.746094 93.371094 180.878906 94.167969 179.871094 95.058594 L 177.386719 97.402344 L 177.386719 98.316406 L 182.917969 98.316406 L 182.917969 97.308594 Z M 180.386719 97.308594 "/>
<path fill-rule="nonzero" fill="rgb(0%, 0%, 0%)" fill-opacity="1" d="M 185.75 90.441406 L 189.359375 90.441406 L 189.359375 89.527344 L 184.695312 89.527344 L 184.695312 94.519531 L 185.679688 94.519531 C 186.101562 93.535156 186.921875 93.464844 187.179688 93.464844 C 187.742188 93.464844 188.539062 93.886719 188.539062 95.574219 C 188.539062 97.214844 187.578125 97.730469 186.757812 97.730469 C 186.054688 97.730469 185.140625 97.402344 184.625 96.511719 L 184.132812 97.285156 C 184.367188 97.589844 185.257812 98.621094 186.78125 98.621094 C 188.46875 98.621094 189.828125 97.261719 189.828125 95.574219 C 189.828125 93.910156 188.632812 92.574219 187.203125 92.574219 C 187.039062 92.574219 186.382812 92.574219 185.75 93.113281 Z M 185.75 90.441406 "/>
<path fill-rule="nonzero" fill="rgb(0%, 0%, 0%)" fill-opacity="1" d="M 199.554688 88.753906 C 199.648438 88.613281 199.648438 88.542969 199.648438 88.519531 C 199.648438 88.332031 199.484375 88.214844 199.367188 88.214844 C 199.203125 88.214844 199.132812 88.355469 199.0625 88.449219 L 193.0625 98.503906 C 192.96875 98.667969 192.945312 98.714844 192.945312 98.785156 C 192.945312 98.949219 193.085938 99.066406 193.25 99.066406 C 193.414062 99.066406 193.484375 98.949219 193.554688 98.832031 Z M 201.265625 96.371094 C 201.265625 94.777344 200.351562 93.652344 199.367188 93.652344 C 198.359375 93.652344 197.421875 94.800781 197.421875 96.347656 C 197.421875 97.964844 198.382812 99.066406 199.367188 99.066406 C 200.375 99.066406 201.265625 97.917969 201.265625 96.371094 Z M 199.367188 98.199219 C 199.203125 98.199219 198.5 98.128906 198.5 96.371094 C 198.5 94.613281 199.179688 94.519531 199.367188 94.519531 C 199.90625 94.519531 200.28125 95.386719 200.28125 96.347656 C 200.28125 97.378906 199.882812 98.199219 199.367188 98.199219 Z M 195.125 90.933594 C 195.125 89.363281 194.210938 88.214844 193.226562 88.214844 C 192.21875 88.214844 191.304688 89.363281 191.304688 90.933594 C 191.304688 92.527344 192.242188 93.652344 193.226562 93.652344 C 194.234375 93.652344 195.125 92.480469 195.125 90.933594 Z M 193.226562 92.785156 C 193.0625 92.785156 192.359375 92.714844 192.359375 90.933594 C 192.359375 89.199219 193.039062 89.105469 193.226562 89.105469 C 193.765625 89.105469 194.140625 89.972656 194.140625 90.933594 C 194.140625 91.941406 193.742188 92.785156 193.226562 92.785156 Z M 193.226562 92.785156 "/>
<path fill-rule="nonzero" fill="rgb(0%, 0%, 0%)" fill-opacity="1" d="M 251.847656 97.707031 C 252.363281 98.175781 253.019531 98.457031 253.722656 98.457031 C 255.082031 98.457031 256.277344 97.121094 256.277344 95.316406 C 256.277344 93.699219 255.410156 92.199219 254.121094 92.199219 C 253.746094 92.199219 252.738281 92.269531 251.824219 92.996094 L 251.824219 92.339844 L 250.746094 92.339844 L 250.746094 100.917969 L 251.847656 100.917969 Z M 251.847656 93.839844 C 252.035156 93.605469 252.527344 93.113281 253.300781 93.113281 C 254.308594 93.113281 255.152344 94.074219 255.152344 95.339844 C 255.152344 96.628906 254.214844 97.589844 253.160156 97.589844 C 252.738281 97.589844 252.246094 97.425781 251.847656 96.746094 Z M 251.847656 93.839844 "/>
<path fill-rule="nonzero" fill="rgb(0%, 0%, 0%)" fill-opacity="1" d="M 263.113281 93.933594 C 263.113281 92.667969 263.019531 91.472656 262.386719 90.417969 C 261.941406 89.667969 261.097656 89.222656 260.230469 89.222656 C 259.550781 89.222656 258.589844 89.480469 257.980469 90.535156 C 257.347656 91.589844 257.324219 93.019531 257.324219 93.933594 C 257.324219 94.613281 257.324219 96.160156 257.910156 97.238281 C 258.589844 98.433594 259.621094 98.621094 260.207031 98.621094 C 260.980469 98.621094 261.964844 98.292969 262.527344 97.167969 C 263.042969 96.183594 263.113281 95.011719 263.113281 93.933594 Z M 260.230469 97.730469 C 258.425781 97.730469 258.425781 95.058594 258.425781 93.792969 C 258.425781 92.925781 258.425781 92.246094 258.636719 91.542969 C 258.894531 90.628906 259.433594 90.089844 260.207031 90.089844 C 261.988281 90.089844 261.988281 92.527344 261.988281 93.792969 C 261.988281 94.707031 261.988281 95.621094 261.683594 96.511719 C 261.378906 97.425781 260.746094 97.730469 260.230469 97.730469 Z M 260.230469 97.730469 "/>
<path fill-rule="nonzero" fill="rgb(0%, 0%, 0%)" fill-opacity="1" d="M 272.695312 88.753906 C 272.789062 88.613281 272.789062 88.542969 272.789062 88.519531 C 272.789062 88.332031 272.625 88.214844 272.507812 88.214844 C 272.34375 88.214844 272.273438 88.355469 272.203125 88.449219 L 266.203125 98.503906 C 266.109375 98.667969 266.085938 98.714844 266.085938 98.785156 C 266.085938 98.949219 266.226562 99.066406 266.390625 99.066406 C 266.554688 99.066406 266.625 98.949219 266.695312 98.832031 Z M 274.40625 96.371094 C 274.40625 94.777344 273.492188 93.652344 272.507812 93.652344 C 271.5 93.652344 270.5625 94.800781 270.5625 96.347656 C 270.5625 97.964844 271.523438 99.066406 272.507812 99.066406 C 273.515625 99.066406 274.40625 97.917969 274.40625 96.371094 Z M 272.507812 98.199219 C 272.34375 98.199219 271.640625 98.128906 271.640625 96.371094 C 271.640625 94.613281 272.320312 94.519531 272.507812 94.519531 C 273.046875 94.519531 273.421875 95.386719 273.421875 96.347656 C 273.421875 97.378906 273.023438 98.199219 272.507812 98.199219 Z M 268.265625 90.933594 C 268.265625 89.363281 267.351562 88.214844 266.367188 88.214844 C 265.359375 88.214844 264.445312 89.363281 264.445312 90.933594 C 264.445312 92.527344 265.382812 93.652344 266.367188 93.652344 C 267.375 93.652344 268.265625 92.480469 268.265625 90.933594 Z M 266.367188 92.785156 C 266.203125 92.785156 265.5 92.714844 265.5 90.933594 C 265.5 89.199219 266.179688 89.105469 266.367188 89.105469 C 266.90625 89.105469 267.28125 89.972656 267.28125 90.933594 C 267.28125 91.941406 266.882812 92.785156 266.367188 92.785156 Z M 266.367188 92.785156 "/>
<path fill-rule="nonzero" fill="rgb(0%, 0%, 0%)" fill-opacity="1" d="M 326.746094 88.988281 L 325.667969 88.988281 L 325.667969 98.316406 L 326.746094 98.316406 Z M 326.746094 88.988281 "/>
<path fill-rule="nonzero" fill="rgb(0%, 0%, 0%)" fill-opacity="1" d="M 330 90.441406 L 333.609375 90.441406 L 333.609375 89.527344 L 328.945312 89.527344 L 328.945312 94.519531 L 329.929688 94.519531 C 330.351562 93.535156 331.171875 93.464844 331.429688 93.464844 C 331.992188 93.464844 332.789062 93.886719 332.789062 95.574219 C 332.789062 97.214844 331.828125 97.730469 331.007812 97.730469 C 330.304688 97.730469 329.390625 97.402344 328.875 96.511719 L 328.382812 97.285156 C 328.617188 97.589844 329.507812 98.621094 331.03125 98.621094 C 332.71875 98.621094 334.078125 97.261719 334.078125 95.574219 C 334.078125 93.910156 332.882812 92.574219 331.453125 92.574219 C 331.289062 92.574219 330.632812 92.574219 330 93.113281 Z M 330 90.441406 "/>
<path fill-rule="nonzero" fill="rgb(0%, 0%, 0%)" fill-opacity="1" d="M 343.800781 88.753906 C 343.894531 88.613281 343.894531 88.542969 343.894531 88.519531 C 343.894531 88.332031 343.730469 88.214844 343.613281 88.214844 C 343.449219 88.214844 343.378906 88.355469 343.308594 88.449219 L 337.308594 98.503906 C 337.214844 98.667969 337.191406 98.714844 337.191406 98.785156 C 337.191406 98.949219 337.332031 99.066406 337.496094 99.066406 C 337.660156 99.066406 337.730469 98.949219 337.800781 98.832031 Z M 345.511719 96.371094 C 345.511719 94.777344 344.597656 93.652344 343.613281 93.652344 C 342.605469 93.652344 341.667969 94.800781 341.667969 96.347656 C 341.667969 97.964844 342.628906 99.066406 343.613281 99.066406 C 344.621094 99.066406 345.511719 97.917969 345.511719 96.371094 Z M 343.613281 98.199219 C 343.449219 98.199219 342.746094 98.128906 342.746094 96.371094 C 342.746094 94.613281 343.425781 94.519531 343.613281 94.519531 C 344.152344 94.519531 344.527344 95.386719 344.527344 96.347656 C 344.527344 97.378906 344.128906 98.199219 343.613281 98.199219 Z M 339.371094 90.933594 C 339.371094 89.363281 338.457031 88.214844 337.472656 88.214844 C 336.464844 88.214844 335.550781 89.363281 335.550781 90.933594 C 335.550781 92.527344 336.488281 93.652344 337.472656 93.652344 C 338.480469 93.652344 339.371094 92.480469 339.371094 90.933594 Z M 337.472656 92.785156 C 337.308594 92.785156 336.605469 92.714844 336.605469 90.933594 C 336.605469 89.199219 337.285156 89.105469 337.472656 89.105469 C 338.011719 89.105469 338.386719 89.972656 338.386719 90.933594 C 338.386719 91.941406 337.988281 92.785156 337.472656 92.785156 Z M 337.472656 92.785156 "/>
<path fill-rule="nonzero" fill="rgb(0%, 0%, 0%)" fill-opacity="1" d="M 396.480469 89.222656 L 396.199219 89.222656 C 395.308594 90.089844 394.019531 90.089844 393.550781 90.089844 L 393.550781 90.933594 C 393.925781 90.933594 394.605469 90.933594 395.355469 90.628906 L 395.355469 97.472656 L 393.621094 97.472656 L 393.621094 98.316406 L 398.214844 98.316406 L 398.214844 97.472656 L 396.480469 97.472656 Z M 396.480469 89.222656 "/>
<path fill-rule="nonzero" fill="rgb(0%, 0%, 0%)" fill-opacity="1" d="M 405.597656 93.933594 C 405.597656 92.667969 405.503906 91.472656 404.871094 90.417969 C 404.425781 89.667969 403.582031 89.222656 402.714844 89.222656 C 402.035156 89.222656 401.074219 89.480469 400.464844 90.535156 C 399.832031 91.589844 399.808594 93.019531 399.808594 93.933594 C 399.808594 94.613281 399.808594 96.160156 400.394531 97.238281 C 401.074219 98.433594 402.105469 98.621094 402.691406 98.621094 C 403.464844 98.621094 404.449219 98.292969 405.011719 97.167969 C 405.527344 96.183594 405.597656 95.011719 405.597656 93.933594 Z M 402.714844 97.730469 C 400.910156 97.730469 400.910156 95.058594 400.910156 93.792969 C 400.910156 92.925781 400.910156 92.246094 401.121094 91.542969 C 401.378906 90.628906 401.917969 90.089844 402.691406 90.089844 C 404.472656 90.089844 404.472656 92.527344 404.472656 93.792969 C 404.472656 94.707031 404.472656 95.621094 404.167969 96.511719 C 403.863281 97.425781 403.230469 97.730469 402.714844 97.730469 Z M 402.714844 97.730469 "/>
<path fill-rule="nonzero" fill="rgb(0%, 0%, 0%)" fill-opacity="1" d="M 412.507812 93.933594 C 412.507812 92.667969 412.414062 91.472656 411.78125 90.417969 C 411.335938 89.667969 410.492188 89.222656 409.625 89.222656 C 408.945312 89.222656 407.984375 89.480469 407.375 90.535156 C 406.742188 91.589844 406.71875 93.019531 406.71875 93.933594 C 406.71875 94.613281 406.71875 96.160156 407.304688 97.238281 C 407.984375 98.433594 409.015625 98.621094 409.601562 98.621094 C 410.375 98.621094 411.359375 98.292969 411.921875 97.167969 C 412.4375 96.183594 412.507812 95.011719 412.507812 93.933594 Z M 409.625 97.730469 C 407.820312 97.730469 407.820312 95.058594 407.820312 93.792969 C 407.820312 92.925781 407.820312 92.246094 408.03125 91.542969 C 408.289062 90.628906 408.828125 90.089844 409.601562 90.089844 C 411.382812 90.089844 411.382812 92.527344 411.382812 93.792969 C 411.382812 94.707031 411.382812 95.621094 411.078125 96.511719 C 410.773438 97.425781 410.140625 97.730469 409.625 97.730469 Z M 409.625 97.730469 "/>
<path fill-rule="nonzero" fill="rgb(0%, 0%, 0%)" fill-opacity="1" d="M 422.089844 88.753906 C 422.183594 88.613281 422.183594 88.542969 422.183594 88.519531 C 422.183594 88.332031 422.019531 88.214844 421.902344 88.214844 C 421.738281 88.214844 421.667969 88.355469 421.597656 88.449219 L 415.597656 98.503906 C 415.503906 98.667969 415.480469 98.714844 415.480469 98.785156 C 415.480469 98.949219 415.621094 99.066406 415.785156 99.066406 C 415.949219 99.066406 416.019531 98.949219 416.089844 98.832031 Z M 423.800781 96.371094 C 423.800781 94.777344 422.886719 93.652344 421.902344 93.652344 C 420.894531 93.652344 419.957031 94.800781 419.957031 96.347656 C 419.957031 97.964844 420.917969 99.066406 421.902344 99.066406 C 422.910156 99.066406 423.800781 97.917969 423.800781 96.371094 Z M 421.902344 98.199219 C 421.738281 98.199219 421.035156 98.128906 421.035156 96.371094 C 421.035156 94.613281 421.714844 94.519531 421.902344 94.519531 C 422.441406 94.519531 422.816406 95.386719 422.816406 96.347656 C 422.816406 97.378906 422.417969 98.199219 421.902344 98.199219 Z M 417.660156 90.933594 C 417.660156 89.363281 416.746094 88.214844 415.761719 88.214844 C 414.753906 88.214844 413.839844 89.363281 413.839844 90.933594 C 413.839844 92.527344 414.777344 93.652344 415.761719 93.652344 C 416.769531 93.652344 417.660156 92.480469 417.660156 90.933594 Z M 415.761719 92.785156 C 415.597656 92.785156 414.894531 92.714844 414.894531 90.933594 C 414.894531 89.199219 415.574219 89.105469 415.761719 89.105469 C 416.300781 89.105469 416.675781 89.972656 416.675781 90.933594 C 416.675781 91.941406 416.277344 92.785156 415.761719 92.785156 Z M 415.761719 92.785156 "/>
<path fill-rule="nonzero" fill="rgb(0%, 0%, 0%)" fill-opacity="1" d="M 234.820312 49.34375 L 236.765625 49.34375 L 236.765625 48.5 L 234.820312 48.5 L 234.820312 46.789062 L 233.8125 46.789062 L 233.8125 48.5 L 232.640625 48.5 L 232.640625 49.34375 L 233.789062 49.34375 L 233.789062 52.789062 C 233.789062 53.585938 233.953125 54.617188 234.9375 54.617188 C 235.523438 54.617188 236.226562 54.5 236.976562 54.125 L 236.765625 53.28125 C 236.414062 53.539062 235.945312 53.703125 235.523438 53.703125 C 234.984375 53.703125 234.820312 53.234375 234.820312 52.53125 Z M 234.820312 49.34375 "/>
<path fill-rule="nonzero" fill="rgb(0%, 0%, 0%)" fill-opacity="1" d="M 243.117188 51.523438 C 243.117188 51.101562 243.117188 50.09375 242.578125 49.273438 C 242.015625 48.429688 241.148438 48.265625 240.632812 48.265625 C 239.085938 48.265625 237.84375 49.71875 237.84375 51.429688 C 237.84375 53.210938 239.15625 54.617188 240.84375 54.617188 C 241.5 54.617188 242.273438 54.453125 243.046875 53.960938 L 242.976562 53.046875 C 242.132812 53.632812 241.335938 53.75 240.867188 53.75 C 239.742188 53.75 238.875 52.765625 238.851562 51.523438 Z M 238.921875 50.726562 C 239.132812 49.882812 239.789062 49.15625 240.632812 49.15625 C 241.148438 49.15625 242.0625 49.367188 242.320312 50.726562 Z M 238.921875 50.726562 "/>
<path fill-rule="nonzero" fill="rgb(0%, 0%, 0%)" fill-opacity="1" d="M 247.128906 51.40625 L 249.660156 48.5 L 248.488281 48.5 L 246.660156 50.703125 L 244.761719 48.5 L 243.589844 48.5 L 246.191406 51.40625 L 243.519531 54.476562 L 244.691406 54.476562 L 246.660156 51.96875 L 248.699219 54.476562 L 249.894531 54.476562 Z M 247.128906 51.40625 "/>
<path fill-rule="nonzero" fill="rgb(0%, 0%, 0%)" fill-opacity="1" d="M 252.328125 49.34375 L 254.273438 49.34375 L 254.273438 48.5 L 252.328125 48.5 L 252.328125 46.789062 L 251.320312 46.789062 L 251.320312 48.5 L 250.148438 48.5 L 250.148438 49.34375 L 251.296875 49.34375 L 251.296875 52.789062 C 251.296875 53.585938 251.460938 54.617188 252.445312 54.617188 C 253.03125 54.617188 253.734375 54.5 254.484375 54.125 L 254.273438 53.28125 C 253.921875 53.539062 253.453125 53.703125 253.03125 53.703125 C 252.492188 53.703125 252.328125 53.234375 252.328125 52.53125 Z M 252.328125 49.34375 "/>
<path fill-rule="nonzero" fill="rgb(0%, 0%, 0%)" fill-opacity="1" d="M 261.699219 45.148438 L 260.621094 45.148438 L 260.621094 54.476562 L 261.722656 54.476562 L 261.722656 53.84375 C 261.910156 54.03125 262.589844 54.617188 263.574219 54.617188 C 264.980469 54.617188 266.152344 53.257812 266.152344 51.476562 C 266.152344 49.859375 265.261719 48.359375 263.925781 48.359375 C 263.574219 48.359375 262.613281 48.429688 261.699219 49.132812 Z M 261.722656 49.976562 C 261.933594 49.695312 262.425781 49.226562 263.175781 49.226562 C 263.996094 49.226562 265.027344 49.789062 265.027344 51.476562 C 265.027344 53.210938 263.878906 53.75 263.058594 53.75 C 262.191406 53.75 261.792969 53.046875 261.722656 52.90625 Z M 261.722656 49.976562 "/>
<path fill-rule="nonzero" fill="rgb(0%, 0%, 0%)" fill-opacity="1" d="M 272.753906 51.523438 C 272.753906 51.101562 272.753906 50.09375 272.214844 49.273438 C 271.652344 48.429688 270.785156 48.265625 270.269531 48.265625 C 268.722656 48.265625 267.480469 49.71875 267.480469 51.429688 C 267.480469 53.210938 268.792969 54.617188 270.480469 54.617188 C 271.136719 54.617188 271.910156 54.453125 272.683594 53.960938 L 272.613281 53.046875 C 271.769531 53.632812 270.972656 53.75 270.503906 53.75 C 269.378906 53.75 268.511719 52.765625 268.488281 51.523438 Z M 268.558594 50.726562 C 268.769531 49.882812 269.425781 49.15625 270.269531 49.15625 C 270.785156 49.15625 271.699219 49.367188 271.957031 50.726562 Z M 268.558594 50.726562 "/>
<path fill-rule="nonzero" fill="rgb(0%, 0%, 0%)" fill-opacity="1" d="M 275.335938 45.148438 L 274.257812 45.148438 L 274.257812 54.476562 L 275.335938 54.476562 Z M 275.335938 45.148438 "/>
<path fill-rule="nonzero" fill="rgb(0%, 0%, 0%)" fill-opacity="1" d="M 282.949219 51.523438 C 282.949219 49.765625 281.613281 48.265625 279.902344 48.265625 C 278.238281 48.265625 276.855469 49.71875 276.855469 51.523438 C 276.855469 53.28125 278.261719 54.617188 279.902344 54.617188 C 281.566406 54.617188 282.949219 53.257812 282.949219 51.523438 Z M 279.925781 53.703125 C 278.871094 53.703125 277.980469 52.90625 277.980469 51.382812 C 277.980469 49.8125 278.988281 49.15625 279.902344 49.15625 C 280.863281 49.15625 281.847656 49.835938 281.847656 51.382812 C 281.847656 52.953125 280.886719 53.703125 279.925781 53.703125 Z M 279.925781 53.703125 "/>
<path fill-rule="nonzero" fill="rgb(0%, 0%, 0%)" fill-opacity="1" d="M 292.210938 48.5 L 291.179688 48.5 C 290.875 49.460938 289.773438 52.90625 289.679688 53.726562 L 289.65625 53.726562 C 289.585938 53.164062 289.304688 52.25 289.070312 51.5 L 288.132812 48.5 L 287.148438 48.5 C 286.726562 49.8125 285.765625 52.835938 285.71875 53.679688 L 285.695312 53.679688 C 285.648438 53.1875 285.296875 51.96875 285.039062 51.125 L 284.242188 48.5 L 283.164062 48.5 L 285.0625 54.476562 L 286.1875 54.476562 C 286.398438 53.726562 286.914062 52.179688 286.984375 51.875 C 287.265625 50.914062 287.59375 49.859375 287.640625 49.273438 C 287.664062 49.53125 287.78125 50.046875 287.828125 50.1875 C 287.96875 50.773438 287.96875 50.796875 288.085938 51.148438 L 289.09375 54.476562 L 290.3125 54.476562 Z M 292.210938 48.5 "/>
<path fill="none" stroke-width="1.19553" stroke-linecap="butt" stroke-linejoin="round" stroke="rgb(0%, 0%, 0%)" stroke-opacity="1" stroke-miterlimit="10" d="M 66.48908 20.093458 L 47.890121 20.093458 C 43.856267 20.093458 40.585434 16.82002 40.585434 12.78877 L 40.585434 -42.008105 C 40.585434 -46.044563 43.856267 -49.312792 47.890121 -49.312792 L 66.48908 -49.312792 C 70.522934 -49.312792 73.793767 -46.044563 73.793767 -42.008105 L 73.793767 12.78877 C 73.793767 16.82002 70.522934 20.093458 66.48908 20.093458 Z M 66.48908 20.093458 " transform="matrix(1.5, 0, 0, -1.5, 103.594505, 34.022999)"/>
</svg>
