<?xml version="1.0" encoding="UTF-8"?>
<svg xmlns="http://www.w3.org/2000/svg" xmlns:xlink="http://www.w3.org/1999/xlink" width="127.61" height="180.335" viewBox="0 0 127.61 180.335">
<path fill-rule="nonzero" fill="rgb(40.000916%, 80.703735%, 96.237183%)" fill-opacity="1" stroke-width="0.99628" stroke-linecap="butt" stroke-linejoin="round" stroke="rgb(0%, 0%, 0%)" stroke-opacity="1" stroke-miterlimit="10" d="M 30.616844 22.109688 C 30.616844 26.808906 26.80825 30.613594 22.109031 30.613594 C 17.413719 30.613594 13.605125 26.808906 13.605125 22.109688 C 13.605125 17.414375 17.413719 13.605781 22.109031 13.605781 C 26.80825 13.605781 30.616844 17.414375 30.616844 22.109688 Z M 30.616844 22.109688 " transform="matrix(1, 0, 0, -1, -2.527, 63.805)"/>
<path fill-rule="nonzero" fill="rgb(40.000916%, 80.703735%, 96.237183%)" fill-opacity="1" stroke-width="0.99628" stroke-linecap="butt" stroke-linejoin="round" stroke="rgb(0%, 0%, 0%)" stroke-opacity="1" stroke-miterlimit="10" d="M 30.616844 44.222969 C 30.616844 48.918281 26.80825 52.726875 22.109031 52.726875 C 17.413719 52.726875 13.605125 48.918281 13.605125 44.222969 C 13.605125 39.52375 17.413719 35.719063 22.109031 35.719063 C 26.80825 35.719063 30.616844 39.52375 30.616844 44.222969 Z M 30.616844 44.222969 " transform="matrix(1, 0, 0, -1, -2.527, 63.805)"/>
<path fill-rule="nonzero" fill="rgb(40.000916%, 80.703735%, 96.237183%)" fill-opacity="1" stroke-width="0.99628" stroke-linecap="butt" stroke-linejoin="round" stroke="rgb(0%, 0%, 0%)" stroke-opacity="1" stroke-miterlimit="10" d="M 52.726219 22.109688 C 52.726219 26.808906 48.917625 30.613594 44.222313 30.613594 C 39.523094 30.613594 35.718406 26.808906 35.718406 22.109688 C 35.718406 17.414375 39.523094 13.605781 44.222313 13.605781 C 48.917625 13.605781 52.726219 17.414375 52.726219 22.109688 Z M 52.726219 22.109688 " transform="matrix(1, 0, 0, -1, -2.527, 63.805)"/>
<path fill-rule="nonzero" fill="rgb(40.000916%, 80.703735%, 96.237183%)" fill-opacity="1" stroke-width="0.99628" stroke-linecap="butt" stroke-linejoin="round" stroke="rgb(0%, 0%, 0%)" stroke-opacity="1" stroke-miterlimit="10" d="M 52.726219 44.222969 C 52.726219 48.918281 48.917625 52.726875 44.222313 52.726875 C 39.523094 52.726875 35.718406 48.918281 35.718406 44.222969 C 35.718406 39.52375 39.523094 35.719063 44.222313 35.719063 C 48.917625 35.719063 52.726219 39.52375 52.726219 44.222969 Z M 52.726219 44.222969 " transform="matrix(1, 0, 0, -1, -2.527, 63.805)"/>
<path fill-rule="nonzero" fill="rgb(40.000916%, 80.703735%, 96.237183%)" fill-opacity="1" stroke-width="0.99628" stroke-linecap="butt" stroke-linejoin="round" stroke="rgb(0%, 0%, 0%)" stroke-opacity="1" stroke-miterlimit="10" d="M 74.835594 22.109688 C 74.835594 26.808906 71.030906 30.613594 66.331688 30.613594 C 61.636375 30.613594 57.827781 26.808906 57.827781 22.109688 C 57.827781 17.414375 61.636375 13.605781 66.331688 13.605781 C 71.030906 13.605781 74.835594 17.414375 74.835594 22.109688 Z M 74.835594 22.109688 " transform="matrix(1, 0, 0, -1, -2.527, 63.805)"/>
<path fill-rule="nonzero" fill="rgb(40.000916%, 80.703735%, 96.237183%)" fill-opacity="1" stroke-width="0.99628" stroke-linecap="butt" stroke-linejoin="round" stroke="rgb(0%, 0%, 0%)" stroke-opacity="1" stroke-miterlimit="10" d="M 74.835594 44.222969 C 74.835594 48.918281 71.030906 52.726875 66.331688 52.726875 C 61.636375 52.726875 57.827781 48.918281 57.827781 44.222969 C 57.827781 39.52375 61.636375 35.719063 66.331688 35.719063 C 71.030906 35.719063 74.835594 39.52375 74.835594 44.222969 Z M 74.835594 44.222969 " transform="matrix(1, 0, 0, -1, -2.527, 63.805)"/>
<path fill-rule="nonzero" fill="rgb(40.000916%, 80.703735%, 96.237183%)" fill-opacity="1" stroke-width="0.99628" stroke-linecap="butt" stroke-linejoin="round" stroke="rgb(0%, 0%, 0%)" stroke-opacity="1" stroke-miterlimit="10" d="M 96.948875 22.109688 C 96.948875 26.808906 93.140281 30.613594 88.444969 30.613594 C 83.74575 30.613594 79.937156 26.808906 79.937156 22.109688 C 79.937156 17.414375 83.74575 13.605781 88.444969 13.605781 C 93.140281 13.605781 96.948875 17.414375 96.948875 22.109688 Z M 96.948875 22.109688 " transform="matrix(1, 0, 0, -1, -2.527, 63.805)"/>
<path fill-rule="nonzero" fill="rgb(40.000916%, 80.703735%, 96.237183%)" fill-opacity="1" stroke-width="0.99628" stroke-linecap="butt" stroke-linejoin="round" stroke="rgb(0%, 0%, 0%)" stroke-opacity="1" stroke-miterlimit="10" d="M 96.948875 44.222969 C 96.948875 48.918281 93.140281 52.726875 88.444969 52.726875 C 83.74575 52.726875 79.937156 48.918281 79.937156 44.222969 C 79.937156 39.52375 83.74575 35.719063 88.444969 35.719063 C 93.140281 35.719063 96.948875 39.52375 96.948875 44.222969 Z M 96.948875 44.222969 " transform="matrix(1, 0, 0, -1, -2.527, 63.805)"/>
<path fill-rule="nonzero" fill="rgb(40.000916%, 80.703735%, 96.237183%)" fill-opacity="1" stroke-width="0.99628" stroke-linecap="butt" stroke-linejoin="round" stroke="rgb(0%, 0%, 0%)" stroke-opacity="1" stroke-miterlimit="10" d="M 119.05825 22.109688 C 119.05825 26.808906 115.249656 30.613594 110.554344 30.613594 C 105.859031 30.613594 102.050438 26.808906 102.050438 22.109688 C 102.050438 17.414375 105.859031 13.605781 110.554344 13.605781 C 115.249656 13.605781 119.05825 17.414375 119.05825 22.109688 Z M 119.05825 22.109688 " transform="matrix(1, 0, 0, -1, -2.527, 63.805)"/>
<path fill-rule="nonzero" fill="rgb(40.000916%, 80.703735%, 96.237183%)" fill-opacity="1" stroke-width="0.99628" stroke-linecap="butt" stroke-linejoin="round" stroke="rgb(0%, 0%, 0%)" stroke-opacity="1" stroke-miterlimit="10" d="M 119.05825 44.222969 C 119.05825 48.918281 115.249656 52.726875 110.554344 52.726875 C 105.859031 52.726875 102.050438 48.918281 102.050438 44.222969 C 102.050438 39.52375 105.859031 35.719063 110.554344 35.719063 C 115.249656 35.719063 119.05825 39.52375 119.05825 44.222969 Z M 119.05825 44.222969 " transform="matrix(1, 0, 0, -1, -2.527, 63.805)"/>
<path fill="none" stroke-width="0.99628" stroke-linecap="butt" stroke-linejoin="round" stroke="rgb(0%, 0%, 0%)" stroke-opacity="1" stroke-miterlimit="10" d="M 116.155906 58.324531 L 16.511375 58.324531 C 11.812156 58.324531 8.007469 54.519844 8.007469 49.820625 L 8.007469 16.512031 C 8.007469 11.812813 11.812156 8.004219 16.511375 8.004219 L 116.155906 8.004219 C 120.851219 8.004219 124.659813 11.812813 124.659813 16.512031 L 124.659813 49.820625 C 124.659813 54.519844 120.851219 58.324531 116.155906 58.324531 Z M 116.155906 58.324531 " transform="matrix(1, 0, 0, -1, -2.527, 63.805)"/>
<path fill-rule="nonzero" fill="rgb(40.000916%, 80.703735%, 96.237183%)" fill-opacity="1" stroke-width="0.99628" stroke-linecap="butt" stroke-linejoin="round" stroke="rgb(0%, 0%, 0%)" stroke-opacity="1" stroke-miterlimit="10" d="M 30.616844 -37.417656 C 30.616844 -32.722344 26.80825 -28.91375 22.109031 -28.91375 C 17.413719 -28.91375 13.605125 -32.722344 13.605125 -37.417656 C 13.605125 -42.112969 17.413719 -45.921562 22.109031 -45.921562 C 26.80825 -45.921562 30.616844 -42.112969 30.616844 -37.417656 Z M 30.616844 -37.417656 " transform="matrix(1, 0, 0, -1, -2.527, 63.805)"/>
<path fill-rule="nonzero" fill="rgb(40.000916%, 80.703735%, 96.237183%)" fill-opacity="1" stroke-width="0.99628" stroke-linecap="butt" stroke-linejoin="round" stroke="rgb(0%, 0%, 0%)" stroke-opacity="1" stroke-miterlimit="10" d="M 30.616844 -15.308281 C 30.616844 -10.609062 26.80825 -6.804375 22.109031 -6.804375 C 17.413719 -6.804375 13.605125 -10.609062 13.605125 -15.308281 C 13.605125 -20.003594 17.413719 -23.812187 22.109031 -23.812187 C 26.80825 -23.812187 30.616844 -20.003594 30.616844 -15.308281 Z M 30.616844 -15.308281 " transform="matrix(1, 0, 0, -1, -2.527, 63.805)"/>
<path fill-rule="nonzero" fill="rgb(40.000916%, 80.703735%, 96.237183%)" fill-opacity="1" stroke-width="0.99628" stroke-linecap="butt" stroke-linejoin="round" stroke="rgb(0%, 0%, 0%)" stroke-opacity="1" stroke-miterlimit="10" d="M 52.726219 -37.417656 C 52.726219 -32.722344 48.917625 -28.91375 44.222313 -28.91375 C 39.523094 -28.91375 35.718406 -32.722344 35.718406 -37.417656 C 35.718406 -42.112969 39.523094 -45.921562 44.222313 -45.921562 C 48.917625 -45.921562 52.726219 -42.112969 52.726219 -37.417656 Z M 52.726219 -37.417656 " transform="matrix(1, 0, 0, -1, -2.527, 63.805)"/>
<path fill-rule="nonzero" fill="rgb(40.000916%, 80.703735%, 96.237183%)" fill-opacity="1" stroke-width="0.99628" stroke-linecap="butt" stroke-linejoin="round" stroke="rgb(0%, 0%, 0%)" stroke-opacity="1" stroke-miterlimit="10" d="M 52.726219 -15.308281 C 52.726219 -10.609062 48.917625 -6.804375 44.222313 -6.804375 C 39.523094 -6.804375 35.718406 -10.609062 35.718406 -15.308281 C 35.718406 -20.003594 39.523094 -23.812187 44.222313 -23.812187 C 48.917625 -23.812187 52.726219 -20.003594 52.726219 -15.308281 Z M 52.726219 -15.308281 " transform="matrix(1, 0, 0, -1, -2.527, 63.805)"/>
<path fill-rule="nonzero" fill="rgb(40.000916%, 80.703735%, 96.237183%)" fill-opacity="1" stroke-width="0.99628" stroke-linecap="butt" stroke-linejoin="round" stroke="rgb(0%, 0%, 0%)" stroke-opacity="1" stroke-miterlimit="10" d="M 74.835594 -37.417656 C 74.835594 -32.722344 71.030906 -28.91375 66.331688 -28.91375 C 61.636375 -28.91375 57.827781 -32.722344 57.827781 -37.417656 C 57.827781 -42.112969 61.636375 -45.921562 66.331688 -45.921562 C 71.030906 -45.921562 74.835594 -42.112969 74.835594 -37.417656 Z M 74.835594 -37.417656 " transform="matrix(1, 0, 0, -1, -2.527, 63.805)"/>
<path fill-rule="nonzero" fill="rgb(40.000916%, 80.703735%, 96.237183%)" fill-opacity="1" stroke-width="0.99628" stroke-linecap="butt" stroke-linejoin="round" stroke="rgb(0%, 0%, 0%)" stroke-opacity="1" stroke-miterlimit="10" d="M 74.835594 -15.308281 C 74.835594 -10.609062 71.030906 -6.804375 66.331688 -6.804375 C 61.636375 -6.804375 57.827781 -10.609062 57.827781 -15.308281 C 57.827781 -20.003594 61.636375 -23.812187 66.331688 -23.812187 C 71.030906 -23.812187 74.835594 -20.003594 74.835594 -15.308281 Z M 74.835594 -15.308281 " transform="matrix(1, 0, 0, -1, -2.527, 63.805)"/>
<path fill-rule="nonzero" fill="rgb(40.000916%, 80.703735%, 96.237183%)" fill-opacity="1" stroke-width="0.99628" stroke-linecap="butt" stroke-linejoin="round" stroke="rgb(0%, 0%, 0%)" stroke-opacity="1" stroke-miterlimit="10" d="M 96.948875 -37.417656 C 96.948875 -32.722344 93.140281 -28.91375 88.444969 -28.91375 C 83.74575 -28.91375 79.937156 -32.722344 79.937156 -37.417656 C 79.937156 -42.112969 83.74575 -45.921562 88.444969 -45.921562 C 93.140281 -45.921562 96.948875 -42.112969 96.948875 -37.417656 Z M 96.948875 -37.417656 " transform="matrix(1, 0, 0, -1, -2.527, 63.805)"/>
<path fill-rule="nonzero" fill="rgb(40.000916%, 80.703735%, 96.237183%)" fill-opacity="1" stroke-width="0.99628" stroke-linecap="butt" stroke-linejoin="round" stroke="rgb(0%, 0%, 0%)" stroke-opacity="1" stroke-miterlimit="10" d="M 96.948875 -15.308281 C 96.948875 -10.609062 93.140281 -6.804375 88.444969 -6.804375 C 83.74575 -6.804375 79.937156 -10.609062 79.937156 -15.308281 C 79.937156 -20.003594 83.74575 -23.812187 88.444969 -23.812187 C 93.140281 -23.812187 96.948875 -20.003594 96.948875 -15.308281 Z M 96.948875 -15.308281 " transform="matrix(1, 0, 0, -1, -2.527, 63.805)"/>
<path fill-rule="nonzero" fill="rgb(40.000916%, 80.703735%, 96.237183%)" fill-opacity="1" stroke-width="0.99628" stroke-linecap="butt" stroke-linejoin="round" stroke="rgb(0%, 0%, 0%)" stroke-opacity="1" stroke-miterlimit="10" d="M 119.05825 -37.417656 C 119.05825 -32.722344 115.249656 -28.91375 110.554344 -28.91375 C 105.859031 -28.91375 102.050438 -32.722344 102.050438 -37.417656 C 102.050438 -42.112969 105.859031 -45.921562 110.554344 -45.921562 C 115.249656 -45.921562 119.05825 -42.112969 119.05825 -37.417656 Z M 119.05825 -37.417656 " transform="matrix(1, 0, 0, -1, -2.527, 63.805)"/>
<path fill-rule="nonzero" fill="rgb(40.000916%, 80.703735%, 96.237183%)" fill-opacity="1" stroke-width="0.99628" stroke-linecap="butt" stroke-linejoin="round" stroke="rgb(0%, 0%, 0%)" stroke-opacity="1" stroke-miterlimit="10" d="M 119.05825 -15.308281 C 119.05825 -10.609062 115.249656 -6.804375 110.554344 -6.804375 C 105.859031 -6.804375 102.050438 -10.609062 102.050438 -15.308281 C 102.050438 -20.003594 105.859031 -23.812187 110.554344 -23.812187 C 115.249656 -23.812187 119.05825 -20.003594 119.05825 -15.308281 Z M 119.05825 -15.308281 " transform="matrix(1, 0, 0, -1, -2.527, 63.805)"/>
<path fill="none" stroke-width="0.99628" stroke-linecap="butt" stroke-linejoin="round" stroke="rgb(0%, 0%, 0%)" stroke-opacity="1" stroke-miterlimit="10" d="M 116.155906 -1.202812 L 16.511375 -1.202812 C 11.812156 -1.202812 8.007469 -5.011406 8.007469 -9.706719 L 8.007469 -43.019219 C 8.007469 -47.714531 11.812156 -51.523125 16.511375 -51.523125 L 116.155906 -51.523125 C 120.851219 -51.523125 124.659813 -47.714531 124.659813 -43.019219 L 124.659813 -9.706719 C 124.659813 -5.011406 120.851219 -1.202812 116.155906 -1.202812 Z M 116.155906 -1.202812 " transform="matrix(1, 0, 0, -1, -2.527, 63.805)"/>
<path fill-rule="nonzero" fill="rgb(40.000916%, 80.703735%, 96.237183%)" fill-opacity="1" stroke-width="0.99628" stroke-linecap="butt" stroke-linejoin="round" stroke="rgb(0%, 0%, 0%)" stroke-opacity="1" stroke-miterlimit="10" d="M 30.616844 -96.948906 C 30.616844 -92.249687 26.80825 -88.441094 22.109031 -88.441094 C 17.413719 -88.441094 13.605125 -92.249687 13.605125 -96.948906 C 13.605125 -101.644219 17.413719 -105.452812 22.109031 -105.452812 C 26.80825 -105.452812 30.616844 -101.644219 30.616844 -96.948906 Z M 30.616844 -96.948906 " transform="matrix(1, 0, 0, -1, -2.527, 63.805)"/>
<path fill-rule="nonzero" fill="rgb(40.000916%, 80.703735%, 96.237183%)" fill-opacity="1" stroke-width="0.99628" stroke-linecap="butt" stroke-linejoin="round" stroke="rgb(0%, 0%, 0%)" stroke-opacity="1" stroke-miterlimit="10" d="M 30.616844 -74.835625 C 30.616844 -70.140312 26.80825 -66.331719 22.109031 -66.331719 C 17.413719 -66.331719 13.605125 -70.140312 13.605125 -74.835625 C 13.605125 -79.534844 17.413719 -83.339531 22.109031 -83.339531 C 26.80825 -83.339531 30.616844 -79.534844 30.616844 -74.835625 Z M 30.616844 -74.835625 " transform="matrix(1, 0, 0, -1, -2.527, 63.805)"/>
<path fill-rule="nonzero" fill="rgb(40.000916%, 80.703735%, 96.237183%)" fill-opacity="1" stroke-width="0.99628" stroke-linecap="butt" stroke-linejoin="round" stroke="rgb(0%, 0%, 0%)" stroke-opacity="1" stroke-miterlimit="10" d="M 52.726219 -96.948906 C 52.726219 -92.249687 48.917625 -88.441094 44.222313 -88.441094 C 39.523094 -88.441094 35.718406 -92.249687 35.718406 -96.948906 C 35.718406 -101.644219 39.523094 -105.452812 44.222313 -105.452812 C 48.917625 -105.452812 52.726219 -101.644219 52.726219 -96.948906 Z M 52.726219 -96.948906 " transform="matrix(1, 0, 0, -1, -2.527, 63.805)"/>
<path fill-rule="nonzero" fill="rgb(40.000916%, 80.703735%, 96.237183%)" fill-opacity="1" stroke-width="0.99628" stroke-linecap="butt" stroke-linejoin="round" stroke="rgb(0%, 0%, 0%)" stroke-opacity="1" stroke-miterlimit="10" d="M 52.726219 -74.835625 C 52.726219 -70.140312 48.917625 -66.331719 44.222313 -66.331719 C 39.523094 -66.331719 35.718406 -70.140312 35.718406 -74.835625 C 35.718406 -79.534844 39.523094 -83.339531 44.222313 -83.339531 C 48.917625 -83.339531 52.726219 -79.534844 52.726219 -74.835625 Z M 52.726219 -74.835625 " transform="matrix(1, 0, 0, -1, -2.527, 63.805)"/>
<path fill-rule="nonzero" fill="rgb(40.000916%, 80.703735%, 96.237183%)" fill-opacity="1" stroke-width="0.99628" stroke-linecap="butt" stroke-linejoin="round" stroke="rgb(0%, 0%, 0%)" stroke-opacity="1" stroke-miterlimit="10" d="M 74.835594 -96.948906 C 74.835594 -92.249687 71.030906 -88.441094 66.331688 -88.441094 C 61.636375 -88.441094 57.827781 -92.249687 57.827781 -96.948906 C 57.827781 -101.644219 61.636375 -105.452812 66.331688 -105.452812 C 71.030906 -105.452812 74.835594 -101.644219 74.835594 -96.948906 Z M 74.835594 -96.948906 " transform="matrix(1, 0, 0, -1, -2.527, 63.805)"/>
<path fill-rule="nonzero" fill="rgb(40.000916%, 80.703735%, 96.237183%)" fill-opacity="1" stroke-width="0.99628" stroke-linecap="butt" stroke-linejoin="round" stroke="rgb(0%, 0%, 0%)" stroke-opacity="1" stroke-miterlimit="10" d="M 74.835594 -74.835625 C 74.835594 -70.140312 71.030906 -66.331719 66.331688 -66.331719 C 61.636375 -66.331719 57.827781 -70.140312 57.827781 -74.835625 C 57.827781 -79.534844 61.636375 -83.339531 66.331688 -83.339531 C 71.030906 -83.339531 74.835594 -79.534844 74.835594 -74.835625 Z M 74.835594 -74.835625 " transform="matrix(1, 0, 0, -1, -2.527, 63.805)"/>
<path fill-rule="nonzero" fill="rgb(40.000916%, 80.703735%, 96.237183%)" fill-opacity="1" stroke-width="0.99628" stroke-linecap="butt" stroke-linejoin="round" stroke="rgb(0%, 0%, 0%)" stroke-opacity="1" stroke-miterlimit="10" d="M 96.948875 -96.948906 C 96.948875 -92.249687 93.140281 -88.441094 88.444969 -88.441094 C 83.74575 -88.441094 79.937156 -92.249687 79.937156 -96.948906 C 79.937156 -101.644219 83.74575 -105.452812 88.444969 -105.452812 C 93.140281 -105.452812 96.948875 -101.644219 96.948875 -96.948906 Z M 96.948875 -96.948906 " transform="matrix(1, 0, 0, -1, -2.527, 63.805)"/>
<path fill-rule="nonzero" fill="rgb(40.000916%, 80.703735%, 96.237183%)" fill-opacity="1" stroke-width="0.99628" stroke-linecap="butt" stroke-linejoin="round" stroke="rgb(0%, 0%, 0%)" stroke-opacity="1" stroke-miterlimit="10" d="M 96.948875 -74.835625 C 96.948875 -70.140312 93.140281 -66.331719 88.444969 -66.331719 C 83.74575 -66.331719 79.937156 -70.140312 79.937156 -74.835625 C 79.937156 -79.534844 83.74575 -83.339531 88.444969 -83.339531 C 93.140281 -83.339531 96.948875 -79.534844 96.948875 -74.835625 Z M 96.948875 -74.835625 " transform="matrix(1, 0, 0, -1, -2.527, 63.805)"/>
<path fill-rule="nonzero" fill="rgb(40.000916%, 80.703735%, 96.237183%)" fill-opacity="1" stroke-width="0.99628" stroke-linecap="butt" stroke-linejoin="round" stroke="rgb(0%, 0%, 0%)" stroke-opacity="1" stroke-miterlimit="10" d="M 119.05825 -96.948906 C 119.05825 -92.249687 115.249656 -88.441094 110.554344 -88.441094 C 105.859031 -88.441094 102.050438 -92.249687 102.050438 -96.948906 C 102.050438 -101.644219 105.859031 -105.452812 110.554344 -105.452812 C 115.249656 -105.452812 119.05825 -101.644219 119.05825 -96.948906 Z M 119.05825 -96.948906 " transform="matrix(1, 0, 0, -1, -2.527, 63.805)"/>
<path fill-rule="nonzero" fill="rgb(40.000916%, 80.703735%, 96.237183%)" fill-opacity="1" stroke-width="0.99628" stroke-linecap="butt" stroke-linejoin="round" stroke="rgb(0%, 0%, 0%)" stroke-opacity="1" stroke-miterlimit="10" d="M 119.05825 -74.835625 C 119.05825 -70.140312 115.249656 -66.331719 110.554344 -66.331719 C 105.859031 -66.331719 102.050438 -70.140312 102.050438 -74.835625 C 102.050438 -79.534844 105.859031 -83.339531 110.554344 -83.339531 C 115.249656 -83.339531 119.05825 -79.534844 119.05825 -74.835625 Z M 119.05825 -74.835625 " transform="matrix(1, 0, 0, -1, -2.527, 63.805)"/>
<path fill="none" stroke-width="0.99628" stroke-linecap="butt" stroke-linejoin="round" stroke="rgb(0%, 0%, 0%)" stroke-opacity="1" stroke-miterlimit="10" d="M 116.155906 -60.730156 L 16.511375 -60.730156 C 11.812156 -60.730156 8.007469 -64.53875 8.007469 -69.234062 L 8.007469 -102.546562 C 8.007469 -107.245781 11.812156 -111.050469 16.511375 -111.050469 L 116.155906 -111.050469 C 120.851219 -111.050469 124.659813 -107.245781 124.659813 -102.546562 L 124.659813 -69.234062 C 124.659813 -64.53875 120.851219 -60.730156 116.155906 -60.730156 Z M 116.155906 -60.730156 " transform="matrix(1, 0, 0, -1, -2.527, 63.805)"/>
</svg>
