<?xml version="1.0" encoding="UTF-8"?>
<svg xmlns="http://www.w3.org/2000/svg" xmlns:xlink="http://www.w3.org/1999/xlink" width="205.240494" height="77.781" viewBox="0 0 205.240494 77.781">
<path fill-rule="nonzero" fill="rgb(40%, 80.784314%, 96.078431%)" fill-opacity="1" stroke-width="0.74721" stroke-linecap="butt" stroke-linejoin="round" stroke="rgb(0%, 0%, 0%)" stroke-opacity="1" stroke-miterlimit="10" d="M 25.072937 18.108229 C 25.072937 21.957188 21.95575 25.074375 18.109396 25.074375 C 14.265646 25.074375 11.14325 21.957188 11.14325 18.108229 C 11.14325 14.261875 14.265646 11.144688 18.109396 11.144688 C 21.95575 11.144688 25.072937 14.261875 25.072937 18.108229 Z M 25.072937 18.108229 " transform="matrix(1.5, 0, 0, -1.5, -1.8555, 79.635)"/>
<path fill-rule="nonzero" fill="rgb(40%, 80.784314%, 96.078431%)" fill-opacity="1" stroke-width="0.74721" stroke-linecap="butt" stroke-linejoin="round" stroke="rgb(0%, 0%, 0%)" stroke-opacity="1" stroke-miterlimit="10" d="M 25.072937 36.217604 C 25.072937 40.066563 21.95575 43.18375 18.109396 43.18375 C 14.265646 43.18375 11.14325 40.066563 11.14325 36.217604 C 11.14325 32.37125 14.265646 29.254063 18.109396 29.254063 C 21.95575 29.254063 25.072937 32.37125 25.072937 36.217604 Z M 25.072937 36.217604 " transform="matrix(1.5, 0, 0, -1.5, -1.8555, 79.635)"/>
<path fill-rule="nonzero" fill="rgb(40%, 80.784314%, 96.078431%)" fill-opacity="1" stroke-width="0.74721" stroke-linecap="butt" stroke-linejoin="round" stroke="rgb(0%, 0%, 0%)" stroke-opacity="1" stroke-miterlimit="10" d="M 43.182312 18.108229 C 43.182312 21.957188 40.065125 25.074375 36.218771 25.074375 C 32.369812 25.074375 29.252625 21.957188 29.252625 18.108229 C 29.252625 14.261875 32.369812 11.144688 36.218771 11.144688 C 40.065125 11.144688 43.182312 14.261875 43.182312 18.108229 Z M 43.182312 18.108229 " transform="matrix(1.5, 0, 0, -1.5, -1.8555, 79.635)"/>
<path fill-rule="nonzero" fill="rgb(40%, 80.784314%, 96.078431%)" fill-opacity="1" stroke-width="0.74721" stroke-linecap="butt" stroke-linejoin="round" stroke="rgb(0%, 0%, 0%)" stroke-opacity="1" stroke-miterlimit="10" d="M 43.182312 36.217604 C 43.182312 40.066563 40.065125 43.18375 36.218771 43.18375 C 32.369812 43.18375 29.252625 40.066563 29.252625 36.217604 C 29.252625 32.37125 32.369812 29.254063 36.218771 29.254063 C 40.065125 29.254063 43.182312 32.37125 43.182312 36.217604 Z M 43.182312 36.217604 " transform="matrix(1.5, 0, 0, -1.5, -1.8555, 79.635)"/>
<path fill-rule="nonzero" fill="rgb(40%, 80.784314%, 96.078431%)" fill-opacity="1" stroke-width="0.74721" stroke-linecap="butt" stroke-linejoin="round" stroke="rgb(0%, 0%, 0%)" stroke-opacity="1" stroke-miterlimit="10" d="M 61.291687 18.108229 C 61.291687 21.957188 58.1745 25.074375 54.328146 25.074375 C 50.479187 25.074375 47.362 21.957188 47.362 18.108229 C 47.362 14.261875 50.479187 11.144688 54.328146 11.144688 C 58.1745 11.144688 61.291687 14.261875 61.291687 18.108229 Z M 61.291687 18.108229 " transform="matrix(1.5, 0, 0, -1.5, -1.8555, 79.635)"/>
<path fill-rule="nonzero" fill="rgb(40%, 80.784314%, 96.078431%)" fill-opacity="1" stroke-width="0.74721" stroke-linecap="butt" stroke-linejoin="round" stroke="rgb(0%, 0%, 0%)" stroke-opacity="1" stroke-miterlimit="10" d="M 61.291687 36.217604 C 61.291687 40.066563 58.1745 43.18375 54.328146 43.18375 C 50.479187 43.18375 47.362 40.066563 47.362 36.217604 C 47.362 32.37125 50.479187 29.254063 54.328146 29.254063 C 58.1745 29.254063 61.291687 32.37125 61.291687 36.217604 Z M 61.291687 36.217604 " transform="matrix(1.5, 0, 0, -1.5, -1.8555, 79.635)"/>
<path fill="none" stroke-width="0.74721" stroke-linecap="butt" stroke-linejoin="round" stroke="rgb(0%, 0%, 0%)" stroke-opacity="1" stroke-miterlimit="10" d="M 58.880229 47.733229 L 13.557312 47.733229 C 9.708354 47.733229 6.593771 44.618646 6.593771 40.769688 L 6.593771 13.556146 C 6.593771 9.712396 9.708354 6.59 13.557312 6.59 L 58.880229 6.59 C 62.723979 6.59 65.846375 9.712396 65.846375 13.556146 L 65.846375 40.769688 C 65.846375 44.618646 62.723979 47.733229 58.880229 47.733229 Z M 58.880229 47.733229 " transform="matrix(1.5, 0, 0, -1.5, -1.8555, 79.635)"/>
<path fill-rule="nonzero" fill="rgb(40%, 80.784314%, 96.078431%)" fill-opacity="1" stroke-width="0.74721" stroke-linecap="butt" stroke-linejoin="round" stroke="rgb(0%, 0%, 0%)" stroke-opacity="1" stroke-miterlimit="10" d="M 91.940125 18.108229 C 91.940125 21.957188 88.817729 25.074375 84.973979 25.074375 C 81.127625 25.074375 78.010437 21.957188 78.010437 18.108229 C 78.010437 14.261875 81.127625 11.144688 84.973979 11.144688 C 88.817729 11.144688 91.940125 14.261875 91.940125 18.108229 Z M 91.940125 18.108229 " transform="matrix(1.5, 0, 0, -1.5, -1.8555, 79.635)"/>
<path fill-rule="nonzero" fill="rgb(40%, 80.784314%, 96.078431%)" fill-opacity="1" stroke-width="0.74721" stroke-linecap="butt" stroke-linejoin="round" stroke="rgb(0%, 0%, 0%)" stroke-opacity="1" stroke-miterlimit="10" d="M 91.940125 36.217604 C 91.940125 40.066563 88.817729 43.18375 84.973979 43.18375 C 81.127625 43.18375 78.010437 40.066563 78.010437 36.217604 C 78.010437 32.37125 81.127625 29.254063 84.973979 29.254063 C 88.817729 29.254063 91.940125 32.37125 91.940125 36.217604 Z M 91.940125 36.217604 " transform="matrix(1.5, 0, 0, -1.5, -1.8555, 79.635)"/>
<path fill-rule="nonzero" fill="rgb(40%, 80.784314%, 96.078431%)" fill-opacity="1" stroke-width="0.74721" stroke-linecap="butt" stroke-linejoin="round" stroke="rgb(0%, 0%, 0%)" stroke-opacity="1" stroke-miterlimit="10" d="M 110.0495 18.108229 C 110.0495 21.957188 106.927104 25.074375 103.083354 25.074375 C 99.237 25.074375 96.119812 21.957188 96.119812 18.108229 C 96.119812 14.261875 99.237 11.144688 103.083354 11.144688 C 106.927104 11.144688 110.0495 14.261875 110.0495 18.108229 Z M 110.0495 18.108229 " transform="matrix(1.5, 0, 0, -1.5, -1.8555, 79.635)"/>
<path fill-rule="nonzero" fill="rgb(40%, 80.784314%, 96.078431%)" fill-opacity="1" stroke-width="0.74721" stroke-linecap="butt" stroke-linejoin="round" stroke="rgb(0%, 0%, 0%)" stroke-opacity="1" stroke-miterlimit="10" d="M 110.0495 36.217604 C 110.0495 40.066563 106.927104 43.18375 103.083354 43.18375 C 99.237 43.18375 96.119812 40.066563 96.119812 36.217604 C 96.119812 32.37125 99.237 29.254063 103.083354 29.254063 C 106.927104 29.254063 110.0495 32.37125 110.0495 36.217604 Z M 110.0495 36.217604 " transform="matrix(1.5, 0, 0, -1.5, -1.8555, 79.635)"/>
<path fill-rule="nonzero" fill="rgb(40%, 80.784314%, 96.078431%)" fill-opacity="1" stroke-width="0.74721" stroke-linecap="butt" stroke-linejoin="round" stroke="rgb(0%, 0%, 0%)" stroke-opacity="1" stroke-miterlimit="10" d="M 128.158875 18.108229 C 128.158875 21.957188 125.036479 25.074375 121.192729 25.074375 C 117.346375 25.074375 114.223979 21.957188 114.223979 18.108229 C 114.223979 14.261875 117.346375 11.144688 121.192729 11.144688 C 125.036479 11.144688 128.158875 14.261875 128.158875 18.108229 Z M 128.158875 18.108229 " transform="matrix(1.5, 0, 0, -1.5, -1.8555, 79.635)"/>
<path fill-rule="nonzero" fill="rgb(40%, 80.784314%, 96.078431%)" fill-opacity="1" stroke-width="0.74721" stroke-linecap="butt" stroke-linejoin="round" stroke="rgb(0%, 0%, 0%)" stroke-opacity="1" stroke-miterlimit="10" d="M 128.158875 36.217604 C 128.158875 40.066563 125.036479 43.18375 121.192729 43.18375 C 117.346375 43.18375 114.223979 40.066563 114.223979 36.217604 C 114.223979 32.37125 117.346375 29.254063 121.192729 29.254063 C 125.036479 29.254063 128.158875 32.37125 128.158875 36.217604 Z M 128.158875 36.217604 " transform="matrix(1.5, 0, 0, -1.5, -1.8555, 79.635)"/>
<path fill="none" stroke-width="0.74721" stroke-linecap="butt" stroke-linejoin="round" stroke="rgb(0%, 0%, 0%)" stroke-opacity="1" stroke-miterlimit="10" d="M 125.744812 47.733229 L 80.421896 47.733229 C 76.572937 47.733229 73.45575 44.618646 73.45575 40.769688 L 73.45575 13.556146 C 73.45575 9.712396 76.572937 6.59 80.421896 6.59 L 125.744812 6.59 C 129.593771 6.59 132.708354 9.712396 132.708354 13.556146 L 132.708354 40.769688 C 132.708354 44.618646 129.593771 47.733229 125.744812 47.733229 Z M 125.744812 47.733229 " transform="matrix(1.5, 0, 0, -1.5, -1.8555, 79.635)"/>
</svg>
