<?xml version="1.0" encoding="UTF-8"?>
<svg xmlns="http://www.w3.org/2000/svg" xmlns:xlink="http://www.w3.org/1999/xlink" width="255.762489" height="384.767258" viewBox="0 0 255.762489 384.767258">
<path fill-rule="nonzero" fill="rgb(40%, 80.784314%, 96.078431%)" fill-opacity="1" stroke-width="0.74721" stroke-linecap="butt" stroke-linejoin="round" stroke="rgb(0%, 0%, 0%)" stroke-opacity="1" stroke-miterlimit="10" d="M -12.035663 -19.559091 C -12.035663 -15.402841 -15.403966 -12.034537 -19.560216 -12.034537 C -23.712002 -12.034537 -27.078073 -15.402841 -27.078073 -19.559091 C -27.078073 -23.710876 -23.712002 -27.081412 -19.560216 -27.081412 C -15.403966 -27.081412 -12.035663 -23.710876 -12.035663 -19.559091 Z M -12.035663 -19.559091 " transform="matrix(1.75, 0, 0, -1.75, 60.746003, 60.744247)"/>
<path fill-rule="nonzero" fill="rgb(40%, 80.784314%, 96.078431%)" fill-opacity="1" stroke-width="0.74721" stroke-linecap="butt" stroke-linejoin="round" stroke="rgb(0%, 0%, 0%)" stroke-opacity="1" stroke-miterlimit="10" d="M 7.522373 0.00117711 C 7.522373 4.157427 4.156302 7.523499 0.0000517709 7.523499 C -4.153966 7.523499 -7.520038 4.157427 -7.520038 0.00117711 C -7.520038 -4.155073 -4.153966 -7.523376 0.0000517709 -7.523376 C 4.156302 -7.523376 7.522373 -4.155073 7.522373 0.00117711 Z M 7.522373 0.00117711 " transform="matrix(1.75, 0, 0, -1.75, 60.746003, 60.744247)"/>
<path fill-rule="nonzero" fill="rgb(40%, 80.784314%, 96.078431%)" fill-opacity="1" stroke-width="0.74721" stroke-linecap="butt" stroke-linejoin="round" stroke="rgb(0%, 0%, 0%)" stroke-opacity="1" stroke-miterlimit="10" d="M 27.080409 19.559213 C 27.080409 23.710999 23.714337 27.081534 19.558087 27.081534 C 15.406302 27.081534 12.033534 23.710999 12.033534 19.559213 C 12.033534 15.402963 15.406302 12.034659 19.558087 12.034659 C 23.714337 12.034659 27.080409 15.402963 27.080409 19.559213 Z M 27.080409 19.559213 " transform="matrix(1.75, 0, 0, -1.75, 60.746003, 60.744247)"/>
<path fill-rule="nonzero" fill="rgb(40%, 80.784314%, 96.078431%)" fill-opacity="1" stroke-width="0.74721" stroke-linecap="butt" stroke-linejoin="round" stroke="rgb(0%, 0%, 0%)" stroke-opacity="1" stroke-miterlimit="10" d="M -12.035663 19.559213 C -12.035663 23.710999 -15.403966 27.081534 -19.560216 27.081534 C -23.712002 27.081534 -27.078073 23.710999 -27.078073 19.559213 C -27.078073 15.402963 -23.712002 12.034659 -19.560216 12.034659 C -15.403966 12.034659 -12.035663 15.402963 -12.035663 19.559213 Z M -12.035663 19.559213 " transform="matrix(1.75, 0, 0, -1.75, 60.746003, 60.744247)"/>
<path fill-rule="nonzero" fill="rgb(40%, 80.784314%, 96.078431%)" fill-opacity="1" stroke-width="0.74721" stroke-linecap="butt" stroke-linejoin="round" stroke="rgb(0%, 0%, 0%)" stroke-opacity="1" stroke-miterlimit="10" d="M 27.080409 -19.559091 C 27.080409 -15.402841 23.714337 -12.034537 19.558087 -12.034537 C 15.406302 -12.034537 12.033534 -15.402841 12.033534 -19.559091 C 12.033534 -23.710876 15.406302 -27.081412 19.558087 -27.081412 C 23.714337 -27.081412 27.080409 -23.710876 27.080409 -19.559091 Z M 27.080409 -19.559091 " transform="matrix(1.75, 0, 0, -1.75, 60.746003, 60.744247)"/>
<path fill="none" stroke-width="0.74721" stroke-linecap="butt" stroke-linejoin="round" stroke="rgb(0%, 0%, 0%)" stroke-opacity="1" stroke-miterlimit="10" d="M 24.823712 32.347159 L -24.825841 32.347159 C -28.977627 32.347159 -32.343698 28.976624 -32.343698 24.824838 L -32.343698 -24.824716 C -32.343698 -28.976501 -28.977627 -32.347037 -24.825841 -32.347037 L 24.823712 -32.347037 C 28.979962 -32.347037 32.346034 -28.976501 32.346034 -24.824716 L 32.346034 24.824838 C 32.346034 28.976624 28.979962 32.347159 24.823712 32.347159 Z M 24.823712 32.347159 " transform="matrix(1.75, 0, 0, -1.75, 60.746003, 60.744247)"/>
<path fill-rule="nonzero" fill="rgb(40%, 80.784314%, 96.078431%)" fill-opacity="1" stroke-width="0.74721" stroke-linecap="butt" stroke-linejoin="round" stroke="rgb(0%, 0%, 0%)" stroke-opacity="1" stroke-miterlimit="10" d="M 64.689784 -19.559091 C 64.689784 -15.402841 61.323712 -12.034537 57.171927 -12.034537 C 53.015677 -12.034537 49.647373 -15.402841 49.647373 -19.559091 C 49.647373 -23.710876 53.015677 -27.081412 57.171927 -27.081412 C 61.323712 -27.081412 64.689784 -23.710876 64.689784 -19.559091 Z M 64.689784 -19.559091 " transform="matrix(1.75, 0, 0, -1.75, 60.746003, 60.744247)"/>
<path fill-rule="nonzero" fill="rgb(40%, 80.784314%, 96.078431%)" fill-opacity="1" stroke-width="0.74721" stroke-linecap="butt" stroke-linejoin="round" stroke="rgb(0%, 0%, 0%)" stroke-opacity="1" stroke-miterlimit="10" d="M 84.250052 0.00117711 C 84.250052 4.157427 80.881748 7.523499 76.729962 7.523499 C 72.573712 7.523499 69.205409 4.157427 69.205409 0.00117711 C 69.205409 -4.155073 72.573712 -7.523376 76.729962 -7.523376 C 80.881748 -7.523376 84.250052 -4.155073 84.250052 0.00117711 Z M 84.250052 0.00117711 " transform="matrix(1.75, 0, 0, -1.75, 60.746003, 60.744247)"/>
<path fill-rule="nonzero" fill="rgb(40%, 80.784314%, 96.078431%)" fill-opacity="1" stroke-width="0.74721" stroke-linecap="butt" stroke-linejoin="round" stroke="rgb(0%, 0%, 0%)" stroke-opacity="1" stroke-miterlimit="10" d="M 103.808087 19.559213 C 103.808087 23.710999 100.439784 27.081534 96.283534 27.081534 C 92.131748 27.081534 88.765677 23.710999 88.765677 19.559213 C 88.765677 15.402963 92.131748 12.034659 96.283534 12.034659 C 100.439784 12.034659 103.808087 15.402963 103.808087 19.559213 Z M 103.808087 19.559213 " transform="matrix(1.75, 0, 0, -1.75, 60.746003, 60.744247)"/>
<path fill-rule="nonzero" fill="rgb(40%, 80.784314%, 96.078431%)" fill-opacity="1" stroke-width="0.74721" stroke-linecap="butt" stroke-linejoin="round" stroke="rgb(0%, 0%, 0%)" stroke-opacity="1" stroke-miterlimit="10" d="M 64.689784 19.559213 C 64.689784 23.710999 61.323712 27.081534 57.171927 27.081534 C 53.015677 27.081534 49.647373 23.710999 49.647373 19.559213 C 49.647373 15.402963 53.015677 12.034659 57.171927 12.034659 C 61.323712 12.034659 64.689784 15.402963 64.689784 19.559213 Z M 64.689784 19.559213 " transform="matrix(1.75, 0, 0, -1.75, 60.746003, 60.744247)"/>
<path fill-rule="nonzero" fill="rgb(40%, 80.784314%, 96.078431%)" fill-opacity="1" stroke-width="0.74721" stroke-linecap="butt" stroke-linejoin="round" stroke="rgb(0%, 0%, 0%)" stroke-opacity="1" stroke-miterlimit="10" d="M 103.808087 -19.559091 C 103.808087 -15.402841 100.439784 -12.034537 96.283534 -12.034537 C 92.131748 -12.034537 88.765677 -15.402841 88.765677 -19.559091 C 88.765677 -23.710876 92.131748 -27.081412 96.283534 -27.081412 C 100.439784 -27.081412 103.808087 -23.710876 103.808087 -19.559091 Z M 103.808087 -19.559091 " transform="matrix(1.75, 0, 0, -1.75, 60.746003, 60.744247)"/>
<path fill="none" stroke-width="0.74721" stroke-linecap="butt" stroke-linejoin="round" stroke="rgb(0%, 0%, 0%)" stroke-opacity="1" stroke-miterlimit="10" d="M 101.549159 32.347159 L 51.906302 32.347159 C 47.750052 32.347159 44.381748 28.976624 44.381748 24.824838 L 44.381748 -24.824716 C 44.381748 -28.976501 47.750052 -32.347037 51.906302 -32.347037 L 101.549159 -32.347037 C 105.705409 -32.347037 109.073712 -28.976501 109.073712 -24.824716 L 109.073712 24.824838 C 109.073712 28.976624 105.705409 32.347159 101.549159 32.347159 Z M 101.549159 32.347159 " transform="matrix(1.75, 0, 0, -1.75, 60.746003, 60.744247)"/>
<path fill-rule="nonzero" fill="rgb(40%, 80.784314%, 96.078431%)" fill-opacity="1" stroke-width="0.74721" stroke-linecap="butt" stroke-linejoin="round" stroke="rgb(0%, 0%, 0%)" stroke-opacity="1" stroke-miterlimit="10" d="M 25.578177 -94.780073 C 25.578177 -90.623823 22.209873 -87.257751 18.053623 -87.257751 C 13.897373 -87.257751 10.531302 -90.623823 10.531302 -94.780073 C 10.531302 -98.936323 13.897373 -102.304626 18.053623 -102.304626 C 22.209873 -102.304626 25.578177 -98.936323 25.578177 -94.780073 Z M 25.578177 -94.780073 " transform="matrix(1.75, 0, 0, -1.75, 60.746003, 60.744247)"/>
<path fill-rule="nonzero" fill="rgb(40%, 80.784314%, 96.078431%)" fill-opacity="1" stroke-width="0.74721" stroke-linecap="butt" stroke-linejoin="round" stroke="rgb(0%, 0%, 0%)" stroke-opacity="1" stroke-miterlimit="10" d="M 45.136212 -75.222037 C 45.136212 -71.070251 41.765677 -67.699716 37.611659 -67.699716 C 33.455409 -67.699716 30.089337 -71.070251 30.089337 -75.222037 C 30.089337 -79.378287 33.455409 -82.746591 37.611659 -82.746591 C 41.765677 -82.746591 45.136212 -79.378287 45.136212 -75.222037 Z M 45.136212 -75.222037 " transform="matrix(1.75, 0, 0, -1.75, 60.746003, 60.744247)"/>
<path fill-rule="nonzero" fill="rgb(40%, 80.784314%, 96.078431%)" fill-opacity="1" stroke-width="0.74721" stroke-linecap="butt" stroke-linejoin="round" stroke="rgb(0%, 0%, 0%)" stroke-opacity="1" stroke-miterlimit="10" d="M 64.689784 -55.664001 C 64.689784 -51.512216 61.323712 -48.143912 57.171927 -48.143912 C 53.015677 -48.143912 49.647373 -51.512216 49.647373 -55.664001 C 49.647373 -59.820251 53.015677 -63.186323 57.171927 -63.186323 C 61.323712 -63.186323 64.689784 -59.820251 64.689784 -55.664001 Z M 64.689784 -55.664001 " transform="matrix(1.75, 0, 0, -1.75, 60.746003, 60.744247)"/>
<path fill-rule="nonzero" fill="rgb(40%, 80.784314%, 96.078431%)" fill-opacity="1" stroke-width="0.74721" stroke-linecap="butt" stroke-linejoin="round" stroke="rgb(0%, 0%, 0%)" stroke-opacity="1" stroke-miterlimit="10" d="M 25.578177 -55.664001 C 25.578177 -51.512216 22.209873 -48.143912 18.053623 -48.143912 C 13.897373 -48.143912 10.531302 -51.512216 10.531302 -55.664001 C 10.531302 -59.820251 13.897373 -63.186323 18.053623 -63.186323 C 22.209873 -63.186323 25.578177 -59.820251 25.578177 -55.664001 Z M 25.578177 -55.664001 " transform="matrix(1.75, 0, 0, -1.75, 60.746003, 60.744247)"/>
<path fill-rule="nonzero" fill="rgb(40%, 80.784314%, 96.078431%)" fill-opacity="1" stroke-width="0.74721" stroke-linecap="butt" stroke-linejoin="round" stroke="rgb(0%, 0%, 0%)" stroke-opacity="1" stroke-miterlimit="10" d="M 64.689784 -94.780073 C 64.689784 -90.623823 61.323712 -87.257751 57.171927 -87.257751 C 53.015677 -87.257751 49.647373 -90.623823 49.647373 -94.780073 C 49.647373 -98.936323 53.015677 -102.304626 57.171927 -102.304626 C 61.323712 -102.304626 64.689784 -98.936323 64.689784 -94.780073 Z M 64.689784 -94.780073 " transform="matrix(1.75, 0, 0, -1.75, 60.746003, 60.744247)"/>
<path fill="none" stroke-width="0.74721" stroke-linecap="butt" stroke-linejoin="round" stroke="rgb(0%, 0%, 0%)" stroke-opacity="1" stroke-miterlimit="10" d="M 62.437552 -42.878287 L 12.787998 -42.878287 C 8.631748 -42.878287 5.265677 -46.246591 5.265677 -50.398376 L 5.265677 -100.045698 C 5.265677 -104.201948 8.631748 -107.570251 12.787998 -107.570251 L 62.437552 -107.570251 C 66.589337 -107.570251 69.955409 -104.201948 69.955409 -100.045698 L 69.955409 -50.398376 C 69.955409 -46.246591 66.589337 -42.878287 62.437552 -42.878287 Z M 62.437552 -42.878287 " transform="matrix(1.75, 0, 0, -1.75, 60.746003, 60.744247)"/>
<path fill-rule="nonzero" fill="rgb(40%, 80.784314%, 96.078431%)" fill-opacity="1" stroke-width="0.74721" stroke-linecap="butt" stroke-linejoin="round" stroke="rgb(0%, 0%, 0%)" stroke-opacity="1" stroke-miterlimit="10" d="M -12.035663 -170.003287 C -12.035663 -165.851501 -15.403966 -162.480966 -19.560216 -162.480966 C -23.712002 -162.480966 -27.078073 -165.851501 -27.078073 -170.003287 C -27.078073 -174.159537 -23.712002 -177.527841 -19.560216 -177.527841 C -15.403966 -177.527841 -12.035663 -174.159537 -12.035663 -170.003287 Z M -12.035663 -170.003287 " transform="matrix(1.75, 0, 0, -1.75, 60.746003, 60.744247)"/>
<path fill-rule="nonzero" fill="rgb(40%, 80.784314%, 96.078431%)" fill-opacity="1" stroke-width="0.74721" stroke-linecap="butt" stroke-linejoin="round" stroke="rgb(0%, 0%, 0%)" stroke-opacity="1" stroke-miterlimit="10" d="M 7.522373 -150.445251 C 7.522373 -146.293466 4.156302 -142.925162 0.0000517709 -142.925162 C -4.153966 -142.925162 -7.520038 -146.293466 -7.520038 -150.445251 C -7.520038 -154.601501 -4.153966 -157.967573 0.0000517709 -157.967573 C 4.156302 -157.967573 7.522373 -154.601501 7.522373 -150.445251 Z M 7.522373 -150.445251 " transform="matrix(1.75, 0, 0, -1.75, 60.746003, 60.744247)"/>
<path fill-rule="nonzero" fill="rgb(40%, 80.784314%, 96.078431%)" fill-opacity="1" stroke-width="0.74721" stroke-linecap="butt" stroke-linejoin="round" stroke="rgb(0%, 0%, 0%)" stroke-opacity="1" stroke-miterlimit="10" d="M 27.080409 -130.887216 C 27.080409 -126.733198 23.714337 -123.367126 19.558087 -123.367126 C 15.406302 -123.367126 12.033534 -126.733198 12.033534 -130.887216 C 12.033534 -135.043466 15.406302 -138.409537 19.558087 -138.409537 C 23.714337 -138.409537 27.080409 -135.043466 27.080409 -130.887216 Z M 27.080409 -130.887216 " transform="matrix(1.75, 0, 0, -1.75, 60.746003, 60.744247)"/>
<path fill-rule="nonzero" fill="rgb(40%, 80.784314%, 96.078431%)" fill-opacity="1" stroke-width="0.74721" stroke-linecap="butt" stroke-linejoin="round" stroke="rgb(0%, 0%, 0%)" stroke-opacity="1" stroke-miterlimit="10" d="M -12.035663 -130.887216 C -12.035663 -126.733198 -15.403966 -123.367126 -19.560216 -123.367126 C -23.712002 -123.367126 -27.078073 -126.733198 -27.078073 -130.887216 C -27.078073 -135.043466 -23.712002 -138.409537 -19.560216 -138.409537 C -15.403966 -138.409537 -12.035663 -135.043466 -12.035663 -130.887216 Z M -12.035663 -130.887216 " transform="matrix(1.75, 0, 0, -1.75, 60.746003, 60.744247)"/>
<path fill-rule="nonzero" fill="rgb(40%, 80.784314%, 96.078431%)" fill-opacity="1" stroke-width="0.74721" stroke-linecap="butt" stroke-linejoin="round" stroke="rgb(0%, 0%, 0%)" stroke-opacity="1" stroke-miterlimit="10" d="M 27.080409 -170.003287 C 27.080409 -165.851501 23.714337 -162.480966 19.558087 -162.480966 C 15.406302 -162.480966 12.033534 -165.851501 12.033534 -170.003287 C 12.033534 -174.159537 15.406302 -177.527841 19.558087 -177.527841 C 23.714337 -177.527841 27.080409 -174.159537 27.080409 -170.003287 Z M 27.080409 -170.003287 " transform="matrix(1.75, 0, 0, -1.75, 60.746003, 60.744247)"/>
<path fill="none" stroke-width="0.74721" stroke-linecap="butt" stroke-linejoin="round" stroke="rgb(0%, 0%, 0%)" stroke-opacity="1" stroke-miterlimit="10" d="M 24.823712 -118.101501 L -24.825841 -118.101501 C -28.977627 -118.101501 -32.343698 -121.467573 -32.343698 -125.621591 L -32.343698 -175.268912 C -32.343698 -179.425162 -28.977627 -182.793466 -24.825841 -182.793466 L 24.823712 -182.793466 C 28.979962 -182.793466 32.346034 -179.425162 32.346034 -175.268912 L 32.346034 -125.621591 C 32.346034 -121.467573 28.979962 -118.101501 24.823712 -118.101501 Z M 24.823712 -118.101501 " transform="matrix(1.75, 0, 0, -1.75, 60.746003, 60.744247)"/>
<path fill-rule="nonzero" fill="rgb(40%, 80.784314%, 96.078431%)" fill-opacity="1" stroke-width="0.74721" stroke-linecap="butt" stroke-linejoin="round" stroke="rgb(0%, 0%, 0%)" stroke-opacity="1" stroke-miterlimit="10" d="M 64.689784 -170.003287 C 64.689784 -165.851501 61.323712 -162.480966 57.171927 -162.480966 C 53.015677 -162.480966 49.647373 -165.851501 49.647373 -170.003287 C 49.647373 -174.159537 53.015677 -177.527841 57.171927 -177.527841 C 61.323712 -177.527841 64.689784 -174.159537 64.689784 -170.003287 Z M 64.689784 -170.003287 " transform="matrix(1.75, 0, 0, -1.75, 60.746003, 60.744247)"/>
<path fill-rule="nonzero" fill="rgb(40%, 80.784314%, 96.078431%)" fill-opacity="1" stroke-width="0.74721" stroke-linecap="butt" stroke-linejoin="round" stroke="rgb(0%, 0%, 0%)" stroke-opacity="1" stroke-miterlimit="10" d="M 84.250052 -150.445251 C 84.250052 -146.293466 80.881748 -142.925162 76.729962 -142.925162 C 72.573712 -142.925162 69.205409 -146.293466 69.205409 -150.445251 C 69.205409 -154.601501 72.573712 -157.967573 76.729962 -157.967573 C 80.881748 -157.967573 84.250052 -154.601501 84.250052 -150.445251 Z M 84.250052 -150.445251 " transform="matrix(1.75, 0, 0, -1.75, 60.746003, 60.744247)"/>
<path fill-rule="nonzero" fill="rgb(40%, 80.784314%, 96.078431%)" fill-opacity="1" stroke-width="0.74721" stroke-linecap="butt" stroke-linejoin="round" stroke="rgb(0%, 0%, 0%)" stroke-opacity="1" stroke-miterlimit="10" d="M 103.808087 -130.887216 C 103.808087 -126.733198 100.439784 -123.367126 96.283534 -123.367126 C 92.131748 -123.367126 88.765677 -126.733198 88.765677 -130.887216 C 88.765677 -135.043466 92.131748 -138.409537 96.283534 -138.409537 C 100.439784 -138.409537 103.808087 -135.043466 103.808087 -130.887216 Z M 103.808087 -130.887216 " transform="matrix(1.75, 0, 0, -1.75, 60.746003, 60.744247)"/>
<path fill-rule="nonzero" fill="rgb(40%, 80.784314%, 96.078431%)" fill-opacity="1" stroke-width="0.74721" stroke-linecap="butt" stroke-linejoin="round" stroke="rgb(0%, 0%, 0%)" stroke-opacity="1" stroke-miterlimit="10" d="M 64.689784 -130.887216 C 64.689784 -126.733198 61.323712 -123.367126 57.171927 -123.367126 C 53.015677 -123.367126 49.647373 -126.733198 49.647373 -130.887216 C 49.647373 -135.043466 53.015677 -138.409537 57.171927 -138.409537 C 61.323712 -138.409537 64.689784 -135.043466 64.689784 -130.887216 Z M 64.689784 -130.887216 " transform="matrix(1.75, 0, 0, -1.75, 60.746003, 60.744247)"/>
<path fill-rule="nonzero" fill="rgb(40%, 80.784314%, 96.078431%)" fill-opacity="1" stroke-width="0.74721" stroke-linecap="butt" stroke-linejoin="round" stroke="rgb(0%, 0%, 0%)" stroke-opacity="1" stroke-miterlimit="10" d="M 103.808087 -170.003287 C 103.808087 -165.851501 100.439784 -162.480966 96.283534 -162.480966 C 92.131748 -162.480966 88.765677 -165.851501 88.765677 -170.003287 C 88.765677 -174.159537 92.131748 -177.527841 96.283534 -177.527841 C 100.439784 -177.527841 103.808087 -174.159537 103.808087 -170.003287 Z M 103.808087 -170.003287 " transform="matrix(1.75, 0, 0, -1.75, 60.746003, 60.744247)"/>
<path fill="none" stroke-width="0.74721" stroke-linecap="butt" stroke-linejoin="round" stroke="rgb(0%, 0%, 0%)" stroke-opacity="1" stroke-miterlimit="10" d="M 101.549159 -118.101501 L 51.906302 -118.101501 C 47.750052 -118.101501 44.381748 -121.467573 44.381748 -125.621591 L 44.381748 -175.268912 C 44.381748 -179.425162 47.750052 -182.793466 51.906302 -182.793466 L 101.549159 -182.793466 C 105.705409 -182.793466 109.073712 -179.425162 109.073712 -175.268912 L 109.073712 -125.621591 C 109.073712 -121.467573 105.705409 -118.101501 101.549159 -118.101501 Z M 101.549159 -118.101501 " transform="matrix(1.75, 0, 0, -1.75, 60.746003, 60.744247)"/>
</svg>
