<?xml version="1.0" encoding="UTF-8"?>
<svg xmlns="http://www.w3.org/2000/svg" xmlns:xlink="http://www.w3.org/1999/xlink" width="165.151497" height="66.507002" viewBox="0 0 165.151497 66.507002">
<path fill-rule="nonzero" fill="rgb(40%, 80.784314%, 96.078431%)" fill-opacity="1" stroke-width="0.74721" stroke-linecap="butt" stroke-linejoin="round" stroke="rgb(0%, 0%, 0%)" stroke-opacity="1" stroke-miterlimit="10" d="M 20.40975 14.739937 C 20.40975 17.872749 17.870687 20.409208 14.740479 20.409208 C 11.610271 20.409208 9.068604 17.872749 9.068604 14.739937 C 9.068604 11.607124 11.610271 9.07327 14.740479 9.07327 C 17.870687 9.07327 20.40975 11.607124 20.40975 14.739937 Z M 20.40975 14.739937 " transform="matrix(1.5, 0, 0, -1.5, 0.0885, 66.418499)"/>
<path fill-rule="nonzero" fill="rgb(40%, 80.784314%, 96.078431%)" fill-opacity="1" stroke-width="0.74721" stroke-linecap="butt" stroke-linejoin="round" stroke="rgb(0%, 0%, 0%)" stroke-opacity="1" stroke-miterlimit="10" d="M 20.40975 29.482124 C 20.40975 32.612333 17.870687 35.151395 14.740479 35.151395 C 11.610271 35.151395 9.068604 32.612333 9.068604 29.482124 C 9.068604 26.349312 11.610271 23.810249 14.740479 23.810249 C 17.870687 23.810249 20.40975 26.349312 20.40975 29.482124 Z M 20.40975 29.482124 " transform="matrix(1.5, 0, 0, -1.5, 0.0885, 66.418499)"/>
<path fill-rule="nonzero" fill="rgb(40%, 80.784314%, 96.078431%)" fill-opacity="1" stroke-width="0.74721" stroke-linecap="butt" stroke-linejoin="round" stroke="rgb(0%, 0%, 0%)" stroke-opacity="1" stroke-miterlimit="10" d="M 35.146729 14.739937 C 35.146729 17.872749 32.612875 20.409208 29.480062 20.409208 C 26.34725 20.409208 23.813396 17.872749 23.813396 14.739937 C 23.813396 11.607124 26.34725 9.07327 29.480062 9.07327 C 32.612875 9.07327 35.146729 11.607124 35.146729 14.739937 Z M 35.146729 14.739937 " transform="matrix(1.5, 0, 0, -1.5, 0.0885, 66.418499)"/>
<path fill-rule="nonzero" fill="rgb(40%, 80.784314%, 96.078431%)" fill-opacity="1" stroke-width="0.74721" stroke-linecap="butt" stroke-linejoin="round" stroke="rgb(0%, 0%, 0%)" stroke-opacity="1" stroke-miterlimit="10" d="M 35.146729 29.482124 C 35.146729 32.612333 32.612875 35.151395 29.480062 35.151395 C 26.34725 35.151395 23.813396 32.612333 23.813396 29.482124 C 23.813396 26.349312 26.34725 23.810249 29.480062 23.810249 C 32.612875 23.810249 35.146729 26.349312 35.146729 29.482124 Z M 35.146729 29.482124 " transform="matrix(1.5, 0, 0, -1.5, 0.0885, 66.418499)"/>
<path fill-rule="nonzero" fill="rgb(40%, 80.784314%, 96.078431%)" fill-opacity="1" stroke-width="0.74721" stroke-linecap="butt" stroke-linejoin="round" stroke="rgb(0%, 0%, 0%)" stroke-opacity="1" stroke-miterlimit="10" d="M 49.891521 14.739937 C 49.891521 17.872749 47.349854 20.409208 44.22225 20.409208 C 41.089437 20.409208 38.550375 17.872749 38.550375 14.739937 C 38.550375 11.607124 41.089437 9.07327 44.22225 9.07327 C 47.349854 9.07327 49.891521 11.607124 49.891521 14.739937 Z M 49.891521 14.739937 " transform="matrix(1.5, 0, 0, -1.5, 0.0885, 66.418499)"/>
<path fill-rule="nonzero" fill="rgb(40%, 80.784314%, 96.078431%)" fill-opacity="1" stroke-width="0.74721" stroke-linecap="butt" stroke-linejoin="round" stroke="rgb(0%, 0%, 0%)" stroke-opacity="1" stroke-miterlimit="10" d="M 49.891521 29.482124 C 49.891521 32.612333 47.349854 35.151395 44.22225 35.151395 C 41.089437 35.151395 38.550375 32.612333 38.550375 29.482124 C 38.550375 26.349312 41.089437 23.810249 44.22225 23.810249 C 47.349854 23.810249 49.891521 26.349312 49.891521 29.482124 Z M 49.891521 29.482124 " transform="matrix(1.5, 0, 0, -1.5, 0.0885, 66.418499)"/>
<path fill="none" stroke-width="0.74721" stroke-linecap="butt" stroke-linejoin="round" stroke="rgb(0%, 0%, 0%)" stroke-opacity="1" stroke-miterlimit="10" d="M 47.995687 38.924833 L 10.964437 38.924833 C 7.834229 38.924833 5.297771 36.388374 5.297771 33.255562 L 5.297771 10.966499 C 5.297771 7.833687 7.834229 5.294624 10.964437 5.294624 L 47.995687 5.294624 C 51.1285 5.294624 53.662354 7.833687 53.662354 10.966499 L 53.662354 33.255562 C 53.662354 36.388374 51.1285 38.924833 47.995687 38.924833 Z M 47.995687 38.924833 " transform="matrix(1.5, 0, 0, -1.5, 0.0885, 66.418499)"/>
<path fill-rule="nonzero" fill="rgb(40%, 80.784314%, 96.078431%)" fill-opacity="1" stroke-width="0.74721" stroke-linecap="butt" stroke-linejoin="round" stroke="rgb(0%, 0%, 0%)" stroke-opacity="1" stroke-miterlimit="10" d="M 71.433187 14.739937 C 71.433187 17.872749 68.894125 20.409208 65.766521 20.409208 C 62.631104 20.409208 60.094646 17.872749 60.094646 14.739937 C 60.094646 11.607124 62.631104 9.07327 65.766521 9.07327 C 68.894125 9.07327 71.433187 11.607124 71.433187 14.739937 Z M 71.433187 14.739937 " transform="matrix(1.5, 0, 0, -1.5, 0.0885, 66.418499)"/>
<path fill-rule="nonzero" fill="rgb(40%, 80.784314%, 96.078431%)" fill-opacity="1" stroke-width="0.74721" stroke-linecap="butt" stroke-linejoin="round" stroke="rgb(0%, 0%, 0%)" stroke-opacity="1" stroke-miterlimit="10" d="M 71.433187 29.482124 C 71.433187 32.612333 68.894125 35.151395 65.766521 35.151395 C 62.631104 35.151395 60.094646 32.612333 60.094646 29.482124 C 60.094646 26.349312 62.631104 23.810249 65.766521 23.810249 C 68.894125 23.810249 71.433187 26.349312 71.433187 29.482124 Z M 71.433187 29.482124 " transform="matrix(1.5, 0, 0, -1.5, 0.0885, 66.418499)"/>
<path fill-rule="nonzero" fill="rgb(40%, 80.784314%, 96.078431%)" fill-opacity="1" stroke-width="0.74721" stroke-linecap="butt" stroke-linejoin="round" stroke="rgb(0%, 0%, 0%)" stroke-opacity="1" stroke-miterlimit="10" d="M 86.172771 14.739937 C 86.172771 17.872749 83.636312 20.409208 80.5035 20.409208 C 77.375896 20.409208 74.834229 17.872749 74.834229 14.739937 C 74.834229 11.607124 77.375896 9.07327 80.5035 9.07327 C 83.636312 9.07327 86.172771 11.607124 86.172771 14.739937 Z M 86.172771 14.739937 " transform="matrix(1.5, 0, 0, -1.5, 0.0885, 66.418499)"/>
<path fill-rule="nonzero" fill="rgb(40%, 80.784314%, 96.078431%)" fill-opacity="1" stroke-width="0.74721" stroke-linecap="butt" stroke-linejoin="round" stroke="rgb(0%, 0%, 0%)" stroke-opacity="1" stroke-miterlimit="10" d="M 86.172771 29.482124 C 86.172771 32.612333 83.636312 35.151395 80.5035 35.151395 C 77.375896 35.151395 74.834229 32.612333 74.834229 29.482124 C 74.834229 26.349312 77.375896 23.810249 80.5035 23.810249 C 83.636312 23.810249 86.172771 26.349312 86.172771 29.482124 Z M 86.172771 29.482124 " transform="matrix(1.5, 0, 0, -1.5, 0.0885, 66.418499)"/>
<path fill-rule="nonzero" fill="rgb(40%, 80.784314%, 96.078431%)" fill-opacity="1" stroke-width="0.74721" stroke-linecap="butt" stroke-linejoin="round" stroke="rgb(0%, 0%, 0%)" stroke-opacity="1" stroke-miterlimit="10" d="M 100.912354 14.739937 C 100.912354 17.872749 98.375896 20.409208 95.245687 20.409208 C 92.112875 20.409208 89.573812 17.872749 89.573812 14.739937 C 89.573812 11.607124 92.112875 9.07327 95.245687 9.07327 C 98.375896 9.07327 100.912354 11.607124 100.912354 14.739937 Z M 100.912354 14.739937 " transform="matrix(1.5, 0, 0, -1.5, 0.0885, 66.418499)"/>
<path fill-rule="nonzero" fill="rgb(40%, 80.784314%, 96.078431%)" fill-opacity="1" stroke-width="0.74721" stroke-linecap="butt" stroke-linejoin="round" stroke="rgb(0%, 0%, 0%)" stroke-opacity="1" stroke-miterlimit="10" d="M 100.912354 29.482124 C 100.912354 32.612333 98.375896 35.151395 95.245687 35.151395 C 92.112875 35.151395 89.573812 32.612333 89.573812 29.482124 C 89.573812 26.349312 92.112875 23.810249 95.245687 23.810249 C 98.375896 23.810249 100.912354 26.349312 100.912354 29.482124 Z M 100.912354 29.482124 " transform="matrix(1.5, 0, 0, -1.5, 0.0885, 66.418499)"/>
<path fill="none" stroke-width="0.74721" stroke-linecap="butt" stroke-linejoin="round" stroke="rgb(0%, 0%, 0%)" stroke-opacity="1" stroke-miterlimit="10" d="M 99.019125 38.924833 L 61.987875 38.924833 C 58.860271 38.924833 56.318604 36.388374 56.318604 33.255562 L 56.318604 10.966499 C 56.318604 7.833687 58.860271 5.294624 61.987875 5.294624 L 99.019125 5.294624 C 102.151937 5.294624 104.688396 7.833687 104.688396 10.966499 L 104.688396 33.255562 C 104.688396 36.388374 102.151937 38.924833 99.019125 38.924833 Z M 99.019125 38.924833 " transform="matrix(1.5, 0, 0, -1.5, 0.0885, 66.418499)"/>
</svg>
