<?xml version="1.0" encoding="UTF-8"?>
<svg xmlns="http://www.w3.org/2000/svg" xmlns:xlink="http://www.w3.org/1999/xlink" width="173.654995" height="66.507002" viewBox="0 0 173.654995 66.507002">
<path fill-rule="nonzero" fill="rgb(40%, 80.784314%, 96.078431%)" fill-opacity="1" stroke-width="0.74721" stroke-linecap="butt" stroke-linejoin="round" stroke="rgb(0%, 0%, 0%)" stroke-opacity="1" stroke-miterlimit="10" d="M 20.40975 14.739937 C 20.40975 17.872749 17.870687 20.409208 14.740479 20.409208 C 11.610271 20.409208 9.068604 17.872749 9.068604 14.739937 C 9.068604 11.607124 11.610271 9.07327 14.740479 9.07327 C 17.870687 9.07327 20.40975 11.607124 20.40975 14.739937 Z M 20.40975 14.739937 " transform="matrix(1.5, 0, 0, -1.5, 0.0885, 66.418499)"/>
<path fill-rule="nonzero" fill="rgb(40%, 80.784314%, 96.078431%)" fill-opacity="1" stroke-width="0.74721" stroke-linecap="butt" stroke-linejoin="round" stroke="rgb(0%, 0%, 0%)" stroke-opacity="1" stroke-miterlimit="10" d="M 20.40975 29.482124 C 20.40975 32.612333 17.870687 35.151395 14.740479 35.151395 C 11.610271 35.151395 9.068604 32.612333 9.068604 29.482124 C 9.068604 26.349312 11.610271 23.810249 14.740479 23.810249 C 17.870687 23.810249 20.40975 26.349312 20.40975 29.482124 Z M 20.40975 29.482124 " transform="matrix(1.5, 0, 0, -1.5, 0.0885, 66.418499)"/>
<path fill-rule="nonzero" fill="rgb(40%, 80.784314%, 96.078431%)" fill-opacity="1" stroke-width="0.74721" stroke-linecap="butt" stroke-linejoin="round" stroke="rgb(0%, 0%, 0%)" stroke-opacity="1" stroke-miterlimit="10" d="M 35.146729 14.739937 C 35.146729 17.872749 32.612875 20.409208 29.480062 20.409208 C 26.34725 20.409208 23.813396 17.872749 23.813396 14.739937 C 23.813396 11.607124 26.34725 9.07327 29.480062 9.07327 C 32.612875 9.07327 35.146729 11.607124 35.146729 14.739937 Z M 35.146729 14.739937 " transform="matrix(1.5, 0, 0, -1.5, 0.0885, 66.418499)"/>
<path fill-rule="nonzero" fill="rgb(40%, 80.784314%, 96.078431%)" fill-opacity="1" stroke-width="0.74721" stroke-linecap="butt" stroke-linejoin="round" stroke="rgb(0%, 0%, 0%)" stroke-opacity="1" stroke-miterlimit="10" d="M 35.146729 29.482124 C 35.146729 32.612333 32.612875 35.151395 29.480062 35.151395 C 26.34725 35.151395 23.813396 32.612333 23.813396 29.482124 C 23.813396 26.349312 26.34725 23.810249 29.480062 23.810249 C 32.612875 23.810249 35.146729 26.349312 35.146729 29.482124 Z M 35.146729 29.482124 " transform="matrix(1.5, 0, 0, -1.5, 0.0885, 66.418499)"/>
<path fill-rule="nonzero" fill="rgb(40%, 80.784314%, 96.078431%)" fill-opacity="1" stroke-width="0.74721" stroke-linecap="butt" stroke-linejoin="round" stroke="rgb(0%, 0%, 0%)" stroke-opacity="1" stroke-miterlimit="10" d="M 49.891521 14.739937 C 49.891521 17.872749 47.349854 20.409208 44.22225 20.409208 C 41.089437 20.409208 38.550375 17.872749 38.550375 14.739937 C 38.550375 11.607124 41.089437 9.07327 44.22225 9.07327 C 47.349854 9.07327 49.891521 11.607124 49.891521 14.739937 Z M 49.891521 14.739937 " transform="matrix(1.5, 0, 0, -1.5, 0.0885, 66.418499)"/>
<path fill-rule="nonzero" fill="rgb(40%, 80.784314%, 96.078431%)" fill-opacity="1" stroke-width="0.74721" stroke-linecap="butt" stroke-linejoin="round" stroke="rgb(0%, 0%, 0%)" stroke-opacity="1" stroke-miterlimit="10" d="M 49.891521 29.482124 C 49.891521 32.612333 47.349854 35.151395 44.22225 35.151395 C 41.089437 35.151395 38.550375 32.612333 38.550375 29.482124 C 38.550375 26.349312 41.089437 23.810249 44.22225 23.810249 C 47.349854 23.810249 49.891521 26.349312 49.891521 29.482124 Z M 49.891521 29.482124 " transform="matrix(1.5, 0, 0, -1.5, 0.0885, 66.418499)"/>
<path fill="none" stroke-width="0.74721" stroke-linecap="butt" stroke-linejoin="round" stroke="rgb(0%, 0%, 0%)" stroke-opacity="1" stroke-miterlimit="10" d="M 47.995687 38.924833 L 10.964437 38.924833 C 7.834229 38.924833 5.297771 36.388374 5.297771 33.255562 L 5.297771 10.966499 C 5.297771 7.833687 7.834229 5.294624 10.964437 5.294624 L 47.995687 5.294624 C 51.1285 5.294624 53.662354 7.833687 53.662354 10.966499 L 53.662354 33.255562 C 53.662354 36.388374 51.1285 38.924833 47.995687 38.924833 Z M 47.995687 38.924833 " transform="matrix(1.5, 0, 0, -1.5, 0.0885, 66.418499)"/>
<path fill-rule="nonzero" fill="rgb(40%, 80.784314%, 96.078431%)" fill-opacity="1" stroke-width="0.74721" stroke-linecap="butt" stroke-linejoin="round" stroke="rgb(0%, 0%, 0%)" stroke-opacity="1" stroke-miterlimit="10" d="M 77.099854 14.739937 C 77.099854 17.872749 74.563396 20.409208 71.433187 20.409208 C 68.300375 20.409208 65.766521 17.872749 65.766521 14.739937 C 65.766521 11.607124 68.300375 9.07327 71.433187 9.07327 C 74.563396 9.07327 77.099854 11.607124 77.099854 14.739937 Z M 77.099854 14.739937 " transform="matrix(1.5, 0, 0, -1.5, 0.0885, 66.418499)"/>
<path fill-rule="nonzero" fill="rgb(40%, 80.784314%, 96.078431%)" fill-opacity="1" stroke-width="0.74721" stroke-linecap="butt" stroke-linejoin="round" stroke="rgb(0%, 0%, 0%)" stroke-opacity="1" stroke-miterlimit="10" d="M 77.099854 29.482124 C 77.099854 32.612333 74.563396 35.151395 71.433187 35.151395 C 68.300375 35.151395 65.766521 32.612333 65.766521 29.482124 C 65.766521 26.349312 68.300375 23.810249 71.433187 23.810249 C 74.563396 23.810249 77.099854 26.349312 77.099854 29.482124 Z M 77.099854 29.482124 " transform="matrix(1.5, 0, 0, -1.5, 0.0885, 66.418499)"/>
<path fill-rule="nonzero" fill="rgb(40%, 80.784314%, 96.078431%)" fill-opacity="1" stroke-width="0.74721" stroke-linecap="butt" stroke-linejoin="round" stroke="rgb(0%, 0%, 0%)" stroke-opacity="1" stroke-miterlimit="10" d="M 91.844646 14.739937 C 91.844646 17.872749 89.302979 20.409208 86.172771 20.409208 C 83.042562 20.409208 80.5035 17.872749 80.5035 14.739937 C 80.5035 11.607124 83.042562 9.07327 86.172771 9.07327 C 89.302979 9.07327 91.844646 11.607124 91.844646 14.739937 Z M 91.844646 14.739937 " transform="matrix(1.5, 0, 0, -1.5, 0.0885, 66.418499)"/>
<path fill-rule="nonzero" fill="rgb(40%, 80.784314%, 96.078431%)" fill-opacity="1" stroke-width="0.74721" stroke-linecap="butt" stroke-linejoin="round" stroke="rgb(0%, 0%, 0%)" stroke-opacity="1" stroke-miterlimit="10" d="M 91.844646 29.482124 C 91.844646 32.612333 89.302979 35.151395 86.172771 35.151395 C 83.042562 35.151395 80.5035 32.612333 80.5035 29.482124 C 80.5035 26.349312 83.042562 23.810249 86.172771 23.810249 C 89.302979 23.810249 91.844646 26.349312 91.844646 29.482124 Z M 91.844646 29.482124 " transform="matrix(1.5, 0, 0, -1.5, 0.0885, 66.418499)"/>
<path fill-rule="nonzero" fill="rgb(40%, 80.784314%, 96.078431%)" fill-opacity="1" stroke-width="0.74721" stroke-linecap="butt" stroke-linejoin="round" stroke="rgb(0%, 0%, 0%)" stroke-opacity="1" stroke-miterlimit="10" d="M 106.581625 14.739937 C 106.581625 17.872749 104.042562 20.409208 100.912354 20.409208 C 97.782146 20.409208 95.245687 17.872749 95.245687 14.739937 C 95.245687 11.607124 97.782146 9.07327 100.912354 9.07327 C 104.042562 9.07327 106.581625 11.607124 106.581625 14.739937 Z M 106.581625 14.739937 " transform="matrix(1.5, 0, 0, -1.5, 0.0885, 66.418499)"/>
<path fill-rule="nonzero" fill="rgb(40%, 80.784314%, 96.078431%)" fill-opacity="1" stroke-width="0.74721" stroke-linecap="butt" stroke-linejoin="round" stroke="rgb(0%, 0%, 0%)" stroke-opacity="1" stroke-miterlimit="10" d="M 106.581625 29.482124 C 106.581625 32.612333 104.042562 35.151395 100.912354 35.151395 C 97.782146 35.151395 95.245687 32.612333 95.245687 29.482124 C 95.245687 26.349312 97.782146 23.810249 100.912354 23.810249 C 104.042562 23.810249 106.581625 26.349312 106.581625 29.482124 Z M 106.581625 29.482124 " transform="matrix(1.5, 0, 0, -1.5, 0.0885, 66.418499)"/>
<path fill="none" stroke-width="0.74721" stroke-linecap="butt" stroke-linejoin="round" stroke="rgb(0%, 0%, 0%)" stroke-opacity="1" stroke-miterlimit="10" d="M 104.688396 38.924833 L 67.657146 38.924833 C 64.526937 38.924833 61.987875 36.388374 61.987875 33.255562 L 61.987875 10.966499 C 61.987875 7.833687 64.526937 5.294624 67.657146 5.294624 L 104.688396 5.294624 C 107.818604 5.294624 110.360271 7.833687 110.360271 10.966499 L 110.360271 33.255562 C 110.360271 36.388374 107.818604 38.924833 104.688396 38.924833 Z M 104.688396 38.924833 " transform="matrix(1.5, 0, 0, -1.5, 0.0885, 66.418499)"/>
</svg>
