<?xml version="1.0" encoding="UTF-8"?>
<svg xmlns="http://www.w3.org/2000/svg" xmlns:xlink="http://www.w3.org/1999/xlink" width="146.355" height="205.240494" viewBox="0 0 146.355 205.240494">
<path fill-rule="nonzero" fill="rgb(40%, 80.784314%, 96.078431%)" fill-opacity="1" stroke-width="0.74721" stroke-linecap="butt" stroke-linejoin="round" stroke="rgb(0%, 0%, 0%)" stroke-opacity="1" stroke-miterlimit="10" d="M 22.793104 16.464687 C 22.793104 19.959479 19.959771 22.798021 16.462375 22.798021 C 12.964979 22.798021 10.131646 19.959479 10.131646 16.464687 C 10.131646 12.964687 12.964979 10.131354 16.462375 10.131354 C 19.959771 10.131354 22.793104 12.964687 22.793104 16.464687 Z M 22.793104 16.464687 " transform="matrix(1.5, 0, 0, -1.5, -0.9045, 73.1775)"/>
<path fill-rule="nonzero" fill="rgb(40%, 80.784314%, 96.078431%)" fill-opacity="1" stroke-width="0.74721" stroke-linecap="butt" stroke-linejoin="round" stroke="rgb(0%, 0%, 0%)" stroke-opacity="1" stroke-miterlimit="10" d="M 22.793104 32.925625 C 22.793104 36.423021 19.959771 39.256354 16.462375 39.256354 C 12.964979 39.256354 10.131646 36.423021 10.131646 32.925625 C 10.131646 29.428229 12.964979 26.594896 16.462375 26.594896 C 19.959771 26.594896 22.793104 29.428229 22.793104 32.925625 Z M 22.793104 32.925625 " transform="matrix(1.5, 0, 0, -1.5, -0.9045, 73.1775)"/>
<path fill-rule="nonzero" fill="rgb(40%, 80.784314%, 96.078431%)" fill-opacity="1" stroke-width="0.74721" stroke-linecap="butt" stroke-linejoin="round" stroke="rgb(0%, 0%, 0%)" stroke-opacity="1" stroke-miterlimit="10" d="M 39.25925 16.464687 C 39.25925 19.959479 36.423312 22.798021 32.928521 22.798021 C 29.428521 22.798021 26.595187 19.959479 26.595187 16.464687 C 26.595187 12.964687 29.428521 10.131354 32.928521 10.131354 C 36.423312 10.131354 39.25925 12.964687 39.25925 16.464687 Z M 39.25925 16.464687 " transform="matrix(1.5, 0, 0, -1.5, -0.9045, 73.1775)"/>
<path fill-rule="nonzero" fill="rgb(40%, 80.784314%, 96.078431%)" fill-opacity="1" stroke-width="0.74721" stroke-linecap="butt" stroke-linejoin="round" stroke="rgb(0%, 0%, 0%)" stroke-opacity="1" stroke-miterlimit="10" d="M 39.25925 32.925625 C 39.25925 36.423021 36.423312 39.256354 32.928521 39.256354 C 29.428521 39.256354 26.595187 36.423021 26.595187 32.925625 C 26.595187 29.428229 29.428521 26.594896 32.928521 26.594896 C 36.423312 26.594896 39.25925 29.428229 39.25925 32.925625 Z M 39.25925 32.925625 " transform="matrix(1.5, 0, 0, -1.5, -0.9045, 73.1775)"/>
<path fill-rule="nonzero" fill="rgb(40%, 80.784314%, 96.078431%)" fill-opacity="1" stroke-width="0.74721" stroke-linecap="butt" stroke-linejoin="round" stroke="rgb(0%, 0%, 0%)" stroke-opacity="1" stroke-miterlimit="10" d="M 55.720187 16.464687 C 55.720187 19.959479 52.88425 22.798021 49.386854 22.798021 C 45.892062 22.798021 43.056125 19.959479 43.056125 16.464687 C 43.056125 12.964687 45.892062 10.131354 49.386854 10.131354 C 52.88425 10.131354 55.720187 12.964687 55.720187 16.464687 Z M 55.720187 16.464687 " transform="matrix(1.5, 0, 0, -1.5, -0.9045, 73.1775)"/>
<path fill-rule="nonzero" fill="rgb(40%, 80.784314%, 96.078431%)" fill-opacity="1" stroke-width="0.74721" stroke-linecap="butt" stroke-linejoin="round" stroke="rgb(0%, 0%, 0%)" stroke-opacity="1" stroke-miterlimit="10" d="M 55.720187 32.925625 C 55.720187 36.423021 52.88425 39.256354 49.386854 39.256354 C 45.892062 39.256354 43.056125 36.423021 43.056125 32.925625 C 43.056125 29.428229 45.892062 26.594896 49.386854 26.594896 C 52.88425 26.594896 55.720187 29.428229 55.720187 32.925625 Z M 55.720187 32.925625 " transform="matrix(1.5, 0, 0, -1.5, -0.9045, 73.1775)"/>
<path fill-rule="nonzero" fill="rgb(40%, 80.784314%, 96.078431%)" fill-opacity="1" stroke-width="0.74721" stroke-linecap="butt" stroke-linejoin="round" stroke="rgb(0%, 0%, 0%)" stroke-opacity="1" stroke-miterlimit="10" d="M 72.183729 16.464687 C 72.183729 19.959479 69.350396 22.798021 65.853 22.798021 C 62.353 22.798021 59.522271 19.959479 59.522271 16.464687 C 59.522271 12.964687 62.353 10.131354 65.853 10.131354 C 69.350396 10.131354 72.183729 12.964687 72.183729 16.464687 Z M 72.183729 16.464687 " transform="matrix(1.5, 0, 0, -1.5, -0.9045, 73.1775)"/>
<path fill-rule="nonzero" fill="rgb(40%, 80.784314%, 96.078431%)" fill-opacity="1" stroke-width="0.74721" stroke-linecap="butt" stroke-linejoin="round" stroke="rgb(0%, 0%, 0%)" stroke-opacity="1" stroke-miterlimit="10" d="M 72.183729 32.925625 C 72.183729 36.423021 69.350396 39.256354 65.853 39.256354 C 62.353 39.256354 59.522271 36.423021 59.522271 32.925625 C 59.522271 29.428229 62.353 26.594896 65.853 26.594896 C 69.350396 26.594896 72.183729 29.428229 72.183729 32.925625 Z M 72.183729 32.925625 " transform="matrix(1.5, 0, 0, -1.5, -0.9045, 73.1775)"/>
<path fill-rule="nonzero" fill="rgb(40%, 80.784314%, 96.078431%)" fill-opacity="1" stroke-width="0.74721" stroke-linecap="butt" stroke-linejoin="round" stroke="rgb(0%, 0%, 0%)" stroke-opacity="1" stroke-miterlimit="10" d="M 88.647271 16.464687 C 88.647271 19.959479 85.808729 22.798021 82.313937 22.798021 C 78.819146 22.798021 75.980604 19.959479 75.980604 16.464687 C 75.980604 12.964687 78.819146 10.131354 82.313937 10.131354 C 85.808729 10.131354 88.647271 12.964687 88.647271 16.464687 Z M 88.647271 16.464687 " transform="matrix(1.5, 0, 0, -1.5, -0.9045, 73.1775)"/>
<path fill-rule="nonzero" fill="rgb(40%, 80.784314%, 96.078431%)" fill-opacity="1" stroke-width="0.74721" stroke-linecap="butt" stroke-linejoin="round" stroke="rgb(0%, 0%, 0%)" stroke-opacity="1" stroke-miterlimit="10" d="M 88.647271 32.925625 C 88.647271 36.423021 85.808729 39.256354 82.313937 39.256354 C 78.819146 39.256354 75.980604 36.423021 75.980604 32.925625 C 75.980604 29.428229 78.819146 26.594896 82.313937 26.594896 C 85.808729 26.594896 88.647271 29.428229 88.647271 32.925625 Z M 88.647271 32.925625 " transform="matrix(1.5, 0, 0, -1.5, -0.9045, 73.1775)"/>
<path fill="none" stroke-width="0.74721" stroke-linecap="butt" stroke-linejoin="round" stroke="rgb(0%, 0%, 0%)" stroke-opacity="1" stroke-miterlimit="10" d="M 86.485812 43.428229 L 12.2905 43.428229 C 8.793104 43.428229 5.959771 40.5975 5.959771 37.0975 L 5.959771 12.287604 C 5.959771 8.792812 8.793104 5.956875 12.2905 5.956875 L 86.485812 5.956875 C 89.985812 5.956875 92.819146 8.792812 92.819146 12.287604 L 92.819146 37.0975 C 92.819146 40.5975 89.985812 43.428229 86.485812 43.428229 Z M 86.485812 43.428229 " transform="matrix(1.5, 0, 0, -1.5, -0.9045, 73.1775)"/>
<path fill-rule="nonzero" fill="rgb(40%, 80.784314%, 96.078431%)" fill-opacity="1" stroke-width="0.74721" stroke-linecap="butt" stroke-linejoin="round" stroke="rgb(0%, 0%, 0%)" stroke-opacity="1" stroke-miterlimit="10" d="M 22.793104 -27.858229 C 22.793104 -24.363438 19.959771 -21.5275 16.462375 -21.5275 C 12.964979 -21.5275 10.131646 -24.363438 10.131646 -27.858229 C 10.131646 -31.355625 12.964979 -34.191563 16.462375 -34.191563 C 19.959771 -34.191563 22.793104 -31.355625 22.793104 -27.858229 Z M 22.793104 -27.858229 " transform="matrix(1.5, 0, 0, -1.5, -0.9045, 73.1775)"/>
<path fill-rule="nonzero" fill="rgb(40%, 80.784314%, 96.078431%)" fill-opacity="1" stroke-width="0.74721" stroke-linecap="butt" stroke-linejoin="round" stroke="rgb(0%, 0%, 0%)" stroke-opacity="1" stroke-miterlimit="10" d="M 22.793104 -11.399896 C 22.793104 -7.899896 19.959771 -5.066563 16.462375 -5.066563 C 12.964979 -5.066563 10.131646 -7.899896 10.131646 -11.399896 C 10.131646 -14.894688 12.964979 -17.730625 16.462375 -17.730625 C 19.959771 -17.730625 22.793104 -14.894688 22.793104 -11.399896 Z M 22.793104 -11.399896 " transform="matrix(1.5, 0, 0, -1.5, -0.9045, 73.1775)"/>
<path fill-rule="nonzero" fill="rgb(40%, 80.784314%, 96.078431%)" fill-opacity="1" stroke-width="0.74721" stroke-linecap="butt" stroke-linejoin="round" stroke="rgb(0%, 0%, 0%)" stroke-opacity="1" stroke-miterlimit="10" d="M 39.25925 -27.858229 C 39.25925 -24.363438 36.423312 -21.5275 32.928521 -21.5275 C 29.428521 -21.5275 26.595187 -24.363438 26.595187 -27.858229 C 26.595187 -31.355625 29.428521 -34.191563 32.928521 -34.191563 C 36.423312 -34.191563 39.25925 -31.355625 39.25925 -27.858229 Z M 39.25925 -27.858229 " transform="matrix(1.5, 0, 0, -1.5, -0.9045, 73.1775)"/>
<path fill-rule="nonzero" fill="rgb(40%, 80.784314%, 96.078431%)" fill-opacity="1" stroke-width="0.74721" stroke-linecap="butt" stroke-linejoin="round" stroke="rgb(0%, 0%, 0%)" stroke-opacity="1" stroke-miterlimit="10" d="M 39.25925 -11.399896 C 39.25925 -7.899896 36.423312 -5.066563 32.928521 -5.066563 C 29.428521 -5.066563 26.595187 -7.899896 26.595187 -11.399896 C 26.595187 -14.894688 29.428521 -17.730625 32.928521 -17.730625 C 36.423312 -17.730625 39.25925 -14.894688 39.25925 -11.399896 Z M 39.25925 -11.399896 " transform="matrix(1.5, 0, 0, -1.5, -0.9045, 73.1775)"/>
<path fill-rule="nonzero" fill="rgb(40%, 80.784314%, 96.078431%)" fill-opacity="1" stroke-width="0.74721" stroke-linecap="butt" stroke-linejoin="round" stroke="rgb(0%, 0%, 0%)" stroke-opacity="1" stroke-miterlimit="10" d="M 55.720187 -27.858229 C 55.720187 -24.363438 52.88425 -21.5275 49.386854 -21.5275 C 45.892062 -21.5275 43.056125 -24.363438 43.056125 -27.858229 C 43.056125 -31.355625 45.892062 -34.191563 49.386854 -34.191563 C 52.88425 -34.191563 55.720187 -31.355625 55.720187 -27.858229 Z M 55.720187 -27.858229 " transform="matrix(1.5, 0, 0, -1.5, -0.9045, 73.1775)"/>
<path fill-rule="nonzero" fill="rgb(40%, 80.784314%, 96.078431%)" fill-opacity="1" stroke-width="0.74721" stroke-linecap="butt" stroke-linejoin="round" stroke="rgb(0%, 0%, 0%)" stroke-opacity="1" stroke-miterlimit="10" d="M 55.720187 -11.399896 C 55.720187 -7.899896 52.88425 -5.066563 49.386854 -5.066563 C 45.892062 -5.066563 43.056125 -7.899896 43.056125 -11.399896 C 43.056125 -14.894688 45.892062 -17.730625 49.386854 -17.730625 C 52.88425 -17.730625 55.720187 -14.894688 55.720187 -11.399896 Z M 55.720187 -11.399896 " transform="matrix(1.5, 0, 0, -1.5, -0.9045, 73.1775)"/>
<path fill-rule="nonzero" fill="rgb(40%, 80.784314%, 96.078431%)" fill-opacity="1" stroke-width="0.74721" stroke-linecap="butt" stroke-linejoin="round" stroke="rgb(0%, 0%, 0%)" stroke-opacity="1" stroke-miterlimit="10" d="M 72.183729 -27.858229 C 72.183729 -24.363438 69.350396 -21.5275 65.853 -21.5275 C 62.353 -21.5275 59.522271 -24.363438 59.522271 -27.858229 C 59.522271 -31.355625 62.353 -34.191563 65.853 -34.191563 C 69.350396 -34.191563 72.183729 -31.355625 72.183729 -27.858229 Z M 72.183729 -27.858229 " transform="matrix(1.5, 0, 0, -1.5, -0.9045, 73.1775)"/>
<path fill-rule="nonzero" fill="rgb(40%, 80.784314%, 96.078431%)" fill-opacity="1" stroke-width="0.74721" stroke-linecap="butt" stroke-linejoin="round" stroke="rgb(0%, 0%, 0%)" stroke-opacity="1" stroke-miterlimit="10" d="M 72.183729 -11.399896 C 72.183729 -7.899896 69.350396 -5.066563 65.853 -5.066563 C 62.353 -5.066563 59.522271 -7.899896 59.522271 -11.399896 C 59.522271 -14.894688 62.353 -17.730625 65.853 -17.730625 C 69.350396 -17.730625 72.183729 -14.894688 72.183729 -11.399896 Z M 72.183729 -11.399896 " transform="matrix(1.5, 0, 0, -1.5, -0.9045, 73.1775)"/>
<path fill-rule="nonzero" fill="rgb(40%, 80.784314%, 96.078431%)" fill-opacity="1" stroke-width="0.74721" stroke-linecap="butt" stroke-linejoin="round" stroke="rgb(0%, 0%, 0%)" stroke-opacity="1" stroke-miterlimit="10" d="M 88.647271 -27.858229 C 88.647271 -24.363438 85.808729 -21.5275 82.313937 -21.5275 C 78.819146 -21.5275 75.980604 -24.363438 75.980604 -27.858229 C 75.980604 -31.355625 78.819146 -34.191563 82.313937 -34.191563 C 85.808729 -34.191563 88.647271 -31.355625 88.647271 -27.858229 Z M 88.647271 -27.858229 " transform="matrix(1.5, 0, 0, -1.5, -0.9045, 73.1775)"/>
<path fill-rule="nonzero" fill="rgb(40%, 80.784314%, 96.078431%)" fill-opacity="1" stroke-width="0.74721" stroke-linecap="butt" stroke-linejoin="round" stroke="rgb(0%, 0%, 0%)" stroke-opacity="1" stroke-miterlimit="10" d="M 88.647271 -11.399896 C 88.647271 -7.899896 85.808729 -5.066563 82.313937 -5.066563 C 78.819146 -5.066563 75.980604 -7.899896 75.980604 -11.399896 C 75.980604 -14.894688 78.819146 -17.730625 82.313937 -17.730625 C 85.808729 -17.730625 88.647271 -14.894688 88.647271 -11.399896 Z M 88.647271 -11.399896 " transform="matrix(1.5, 0, 0, -1.5, -0.9045, 73.1775)"/>
<path fill="none" stroke-width="0.74721" stroke-linecap="butt" stroke-linejoin="round" stroke="rgb(0%, 0%, 0%)" stroke-opacity="1" stroke-miterlimit="10" d="M 86.485812 -0.889479 L 12.2905 -0.889479 C 8.793104 -0.889479 5.959771 -3.728021 5.959771 -7.222813 L 5.959771 -32.030104 C 5.959771 -35.530104 8.793104 -38.363438 12.2905 -38.363438 L 86.485812 -38.363438 C 89.985812 -38.363438 92.819146 -35.530104 92.819146 -32.030104 L 92.819146 -7.222813 C 92.819146 -3.728021 89.985812 -0.889479 86.485812 -0.889479 Z M 86.485812 -0.889479 " transform="matrix(1.5, 0, 0, -1.5, -0.9045, 73.1775)"/>
<path fill-rule="nonzero" fill="rgb(40%, 80.784314%, 96.078431%)" fill-opacity="1" stroke-width="0.74721" stroke-linecap="butt" stroke-linejoin="round" stroke="rgb(0%, 0%, 0%)" stroke-opacity="1" stroke-miterlimit="10" d="M 22.793104 -72.18375 C 22.793104 -68.686354 19.959771 -65.853021 16.462375 -65.853021 C 12.964979 -65.853021 10.131646 -68.686354 10.131646 -72.18375 C 10.131646 -75.681146 12.964979 -78.514479 16.462375 -78.514479 C 19.959771 -78.514479 22.793104 -75.681146 22.793104 -72.18375 Z M 22.793104 -72.18375 " transform="matrix(1.5, 0, 0, -1.5, -0.9045, 73.1775)"/>
<path fill-rule="nonzero" fill="rgb(40%, 80.784314%, 96.078431%)" fill-opacity="1" stroke-width="0.74721" stroke-linecap="butt" stroke-linejoin="round" stroke="rgb(0%, 0%, 0%)" stroke-opacity="1" stroke-miterlimit="10" d="M 22.793104 -55.717604 C 22.793104 -52.222813 19.959771 -49.386875 16.462375 -49.386875 C 12.964979 -49.386875 10.131646 -52.222813 10.131646 -55.717604 C 10.131646 -59.217604 12.964979 -62.050938 16.462375 -62.050938 C 19.959771 -62.050938 22.793104 -59.217604 22.793104 -55.717604 Z M 22.793104 -55.717604 " transform="matrix(1.5, 0, 0, -1.5, -0.9045, 73.1775)"/>
<path fill-rule="nonzero" fill="rgb(40%, 80.784314%, 96.078431%)" fill-opacity="1" stroke-width="0.74721" stroke-linecap="butt" stroke-linejoin="round" stroke="rgb(0%, 0%, 0%)" stroke-opacity="1" stroke-miterlimit="10" d="M 39.25925 -72.18375 C 39.25925 -68.686354 36.423312 -65.853021 32.928521 -65.853021 C 29.428521 -65.853021 26.595187 -68.686354 26.595187 -72.18375 C 26.595187 -75.681146 29.428521 -78.514479 32.928521 -78.514479 C 36.423312 -78.514479 39.25925 -75.681146 39.25925 -72.18375 Z M 39.25925 -72.18375 " transform="matrix(1.5, 0, 0, -1.5, -0.9045, 73.1775)"/>
<path fill-rule="nonzero" fill="rgb(40%, 80.784314%, 96.078431%)" fill-opacity="1" stroke-width="0.74721" stroke-linecap="butt" stroke-linejoin="round" stroke="rgb(0%, 0%, 0%)" stroke-opacity="1" stroke-miterlimit="10" d="M 39.25925 -55.717604 C 39.25925 -52.222813 36.423312 -49.386875 32.928521 -49.386875 C 29.428521 -49.386875 26.595187 -52.222813 26.595187 -55.717604 C 26.595187 -59.217604 29.428521 -62.050938 32.928521 -62.050938 C 36.423312 -62.050938 39.25925 -59.217604 39.25925 -55.717604 Z M 39.25925 -55.717604 " transform="matrix(1.5, 0, 0, -1.5, -0.9045, 73.1775)"/>
<path fill-rule="nonzero" fill="rgb(40%, 80.784314%, 96.078431%)" fill-opacity="1" stroke-width="0.74721" stroke-linecap="butt" stroke-linejoin="round" stroke="rgb(0%, 0%, 0%)" stroke-opacity="1" stroke-miterlimit="10" d="M 55.720187 -72.18375 C 55.720187 -68.686354 52.88425 -65.853021 49.386854 -65.853021 C 45.892062 -65.853021 43.056125 -68.686354 43.056125 -72.18375 C 43.056125 -75.681146 45.892062 -78.514479 49.386854 -78.514479 C 52.88425 -78.514479 55.720187 -75.681146 55.720187 -72.18375 Z M 55.720187 -72.18375 " transform="matrix(1.5, 0, 0, -1.5, -0.9045, 73.1775)"/>
<path fill-rule="nonzero" fill="rgb(40%, 80.784314%, 96.078431%)" fill-opacity="1" stroke-width="0.74721" stroke-linecap="butt" stroke-linejoin="round" stroke="rgb(0%, 0%, 0%)" stroke-opacity="1" stroke-miterlimit="10" d="M 55.720187 -55.717604 C 55.720187 -52.222813 52.88425 -49.386875 49.386854 -49.386875 C 45.892062 -49.386875 43.056125 -52.222813 43.056125 -55.717604 C 43.056125 -59.217604 45.892062 -62.050938 49.386854 -62.050938 C 52.88425 -62.050938 55.720187 -59.217604 55.720187 -55.717604 Z M 55.720187 -55.717604 " transform="matrix(1.5, 0, 0, -1.5, -0.9045, 73.1775)"/>
<path fill-rule="nonzero" fill="rgb(40%, 80.784314%, 96.078431%)" fill-opacity="1" stroke-width="0.74721" stroke-linecap="butt" stroke-linejoin="round" stroke="rgb(0%, 0%, 0%)" stroke-opacity="1" stroke-miterlimit="10" d="M 72.183729 -72.18375 C 72.183729 -68.686354 69.350396 -65.853021 65.853 -65.853021 C 62.353 -65.853021 59.522271 -68.686354 59.522271 -72.18375 C 59.522271 -75.681146 62.353 -78.514479 65.853 -78.514479 C 69.350396 -78.514479 72.183729 -75.681146 72.183729 -72.18375 Z M 72.183729 -72.18375 " transform="matrix(1.5, 0, 0, -1.5, -0.9045, 73.1775)"/>
<path fill-rule="nonzero" fill="rgb(40%, 80.784314%, 96.078431%)" fill-opacity="1" stroke-width="0.74721" stroke-linecap="butt" stroke-linejoin="round" stroke="rgb(0%, 0%, 0%)" stroke-opacity="1" stroke-miterlimit="10" d="M 72.183729 -55.717604 C 72.183729 -52.222813 69.350396 -49.386875 65.853 -49.386875 C 62.353 -49.386875 59.522271 -52.222813 59.522271 -55.717604 C 59.522271 -59.217604 62.353 -62.050938 65.853 -62.050938 C 69.350396 -62.050938 72.183729 -59.217604 72.183729 -55.717604 Z M 72.183729 -55.717604 " transform="matrix(1.5, 0, 0, -1.5, -0.9045, 73.1775)"/>
<path fill-rule="nonzero" fill="rgb(40%, 80.784314%, 96.078431%)" fill-opacity="1" stroke-width="0.74721" stroke-linecap="butt" stroke-linejoin="round" stroke="rgb(0%, 0%, 0%)" stroke-opacity="1" stroke-miterlimit="10" d="M 88.647271 -72.18375 C 88.647271 -68.686354 85.808729 -65.853021 82.313937 -65.853021 C 78.819146 -65.853021 75.980604 -68.686354 75.980604 -72.18375 C 75.980604 -75.681146 78.819146 -78.514479 82.313937 -78.514479 C 85.808729 -78.514479 88.647271 -75.681146 88.647271 -72.18375 Z M 88.647271 -72.18375 " transform="matrix(1.5, 0, 0, -1.5, -0.9045, 73.1775)"/>
<path fill-rule="nonzero" fill="rgb(40%, 80.784314%, 96.078431%)" fill-opacity="1" stroke-width="0.74721" stroke-linecap="butt" stroke-linejoin="round" stroke="rgb(0%, 0%, 0%)" stroke-opacity="1" stroke-miterlimit="10" d="M 88.647271 -55.717604 C 88.647271 -52.222813 85.808729 -49.386875 82.313937 -49.386875 C 78.819146 -49.386875 75.980604 -52.222813 75.980604 -55.717604 C 75.980604 -59.217604 78.819146 -62.050938 82.313937 -62.050938 C 85.808729 -62.050938 88.647271 -59.217604 88.647271 -55.717604 Z M 88.647271 -55.717604 " transform="matrix(1.5, 0, 0, -1.5, -0.9045, 73.1775)"/>
<path fill="none" stroke-width="0.74721" stroke-linecap="butt" stroke-linejoin="round" stroke="rgb(0%, 0%, 0%)" stroke-opacity="1" stroke-miterlimit="10" d="M 86.485812 -45.215 L 12.2905 -45.215 C 8.793104 -45.215 5.959771 -48.050938 5.959771 -51.545729 L 5.959771 -76.355625 C 5.959771 -79.853021 8.793104 -82.686354 12.2905 -82.686354 L 86.485812 -82.686354 C 89.985812 -82.686354 92.819146 -79.853021 92.819146 -76.355625 L 92.819146 -51.545729 C 92.819146 -48.050938 89.985812 -45.215 86.485812 -45.215 Z M 86.485812 -45.215 " transform="matrix(1.5, 0, 0, -1.5, -0.9045, 73.1775)"/>
</svg>
