<?xml version="1.0" encoding="UTF-8"?>
<svg xmlns="http://www.w3.org/2000/svg" xmlns:xlink="http://www.w3.org/1999/xlink" width="316.836243" height="210.536251" viewBox="0 0 316.836243 210.536251">
<path fill-rule="nonzero" fill="rgb(40%, 80.784314%, 96.078431%)" fill-opacity="1" stroke-width="0.99628" stroke-linecap="butt" stroke-linejoin="round" stroke="rgb(0%, 0%, 0%)" stroke-opacity="1" stroke-miterlimit="10" d="M 30.617625 22.111252 C 30.617625 26.805002 26.80825 30.614377 22.10825 30.614377 C 17.4145 30.614377 13.605125 26.805002 13.605125 22.111252 C 13.605125 17.414377 17.4145 13.608127 22.10825 13.608127 C 26.80825 13.608127 30.617625 17.414377 30.617625 22.111252 Z M 30.617625 22.111252 " transform="matrix(1.25, 0, 0, -1.25, -3.15875, 213.693752)"/>
<path fill-rule="nonzero" fill="rgb(40%, 80.784314%, 96.078431%)" fill-opacity="1" stroke-width="0.99628" stroke-linecap="butt" stroke-linejoin="round" stroke="rgb(0%, 0%, 0%)" stroke-opacity="1" stroke-miterlimit="10" d="M 52.727 44.220627 C 52.727 48.920627 48.917625 52.723752 44.223875 52.723752 C 39.523875 52.723752 35.717625 48.920627 35.717625 44.220627 C 35.717625 39.523752 39.523875 35.717502 44.223875 35.717502 C 48.917625 35.717502 52.727 39.523752 52.727 44.220627 Z M 52.727 44.220627 " transform="matrix(1.25, 0, 0, -1.25, -3.15875, 213.693752)"/>
<path fill-rule="nonzero" fill="rgb(40%, 80.784314%, 96.078431%)" fill-opacity="1" stroke-width="0.99628" stroke-linecap="butt" stroke-linejoin="round" stroke="rgb(0%, 0%, 0%)" stroke-opacity="1" stroke-miterlimit="10" d="M 74.836375 66.333127 C 74.836375 71.030002 71.030125 74.836252 66.33325 74.836252 C 61.636375 74.836252 57.827 71.030002 57.827 66.333127 C 57.827 61.633127 61.636375 57.830002 66.33325 57.830002 C 71.030125 57.830002 74.836375 61.633127 74.836375 66.333127 Z M 74.836375 66.333127 " transform="matrix(1.25, 0, 0, -1.25, -3.15875, 213.693752)"/>
<path fill="none" stroke-width="0.99628" stroke-linecap="butt" stroke-linejoin="round" stroke="rgb(0%, 0%, 0%)" stroke-opacity="1" stroke-miterlimit="10" d="M 71.93325 80.436252 L 16.511375 80.436252 C 11.811375 80.436252 8.00825 76.630002 8.00825 71.930002 L 8.00825 16.508127 C 8.00825 11.814377 11.811375 8.005002 16.511375 8.005002 L 71.93325 8.005002 C 76.630125 8.005002 80.436375 11.814377 80.436375 16.508127 L 80.436375 71.930002 C 80.436375 76.630002 76.630125 80.436252 71.93325 80.436252 Z M 71.93325 80.436252 " transform="matrix(1.25, 0, 0, -1.25, -3.15875, 213.693752)"/>
<path fill-rule="nonzero" fill="rgb(40%, 80.784314%, 96.078431%)" fill-opacity="1" stroke-width="0.99628" stroke-linecap="butt" stroke-linejoin="round" stroke="rgb(0%, 0%, 0%)" stroke-opacity="1" stroke-miterlimit="10" d="M 115.655125 22.111252 C 115.655125 26.805002 111.848875 30.614377 107.152 30.614377 C 102.45825 30.614377 98.648875 26.805002 98.648875 22.111252 C 98.648875 17.414377 102.45825 13.608127 107.152 13.608127 C 111.848875 13.608127 115.655125 17.414377 115.655125 22.111252 Z M 115.655125 22.111252 " transform="matrix(1.25, 0, 0, -1.25, -3.15875, 213.693752)"/>
<path fill-rule="nonzero" fill="rgb(40%, 80.784314%, 96.078431%)" fill-opacity="1" stroke-width="0.99628" stroke-linecap="butt" stroke-linejoin="round" stroke="rgb(0%, 0%, 0%)" stroke-opacity="1" stroke-miterlimit="10" d="M 137.7645 44.220627 C 137.7645 48.920627 133.961375 52.723752 129.261375 52.723752 C 124.567625 52.723752 120.75825 48.920627 120.75825 44.220627 C 120.75825 39.523752 124.567625 35.717502 129.261375 35.717502 C 133.961375 35.717502 137.7645 39.523752 137.7645 44.220627 Z M 137.7645 44.220627 " transform="matrix(1.25, 0, 0, -1.25, -3.15875, 213.693752)"/>
<path fill-rule="nonzero" fill="rgb(40%, 80.784314%, 96.078431%)" fill-opacity="1" stroke-width="0.99628" stroke-linecap="butt" stroke-linejoin="round" stroke="rgb(0%, 0%, 0%)" stroke-opacity="1" stroke-miterlimit="10" d="M 159.877 66.333127 C 159.877 71.030002 156.07075 74.836252 151.373875 74.836252 C 146.673875 74.836252 142.87075 71.030002 142.87075 66.333127 C 142.87075 61.633127 146.673875 57.830002 151.373875 57.830002 C 156.07075 57.830002 159.877 61.633127 159.877 66.333127 Z M 159.877 66.333127 " transform="matrix(1.25, 0, 0, -1.25, -3.15875, 213.693752)"/>
<path fill="none" stroke-width="0.99628" stroke-linecap="butt" stroke-linejoin="round" stroke="rgb(0%, 0%, 0%)" stroke-opacity="1" stroke-miterlimit="10" d="M 156.977 80.436252 L 101.552 80.436252 C 96.855125 80.436252 93.04575 76.630002 93.04575 71.930002 L 93.04575 16.508127 C 93.04575 11.814377 96.855125 8.005002 101.552 8.005002 L 156.977 8.005002 C 161.67075 8.005002 165.480125 11.814377 165.480125 16.508127 L 165.480125 71.930002 C 165.480125 76.630002 161.67075 80.436252 156.977 80.436252 Z M 156.977 80.436252 " transform="matrix(1.25, 0, 0, -1.25, -3.15875, 213.693752)"/>
<path fill-rule="nonzero" fill="rgb(40%, 80.784314%, 96.078431%)" fill-opacity="1" stroke-width="0.99628" stroke-linecap="butt" stroke-linejoin="round" stroke="rgb(0%, 0%, 0%)" stroke-opacity="1" stroke-miterlimit="10" d="M 200.698875 22.111252 C 200.698875 26.805002 196.8895 30.614377 192.19575 30.614377 C 187.49575 30.614377 183.6895 26.805002 183.6895 22.111252 C 183.6895 17.414377 187.49575 13.608127 192.19575 13.608127 C 196.8895 13.608127 200.698875 17.414377 200.698875 22.111252 Z M 200.698875 22.111252 " transform="matrix(1.25, 0, 0, -1.25, -3.15875, 213.693752)"/>
<path fill-rule="nonzero" fill="rgb(40%, 80.784314%, 96.078431%)" fill-opacity="1" stroke-width="0.99628" stroke-linecap="butt" stroke-linejoin="round" stroke="rgb(0%, 0%, 0%)" stroke-opacity="1" stroke-miterlimit="10" d="M 222.80825 44.220627 C 222.80825 48.920627 218.998875 52.723752 214.305125 52.723752 C 209.60825 52.723752 205.798875 48.920627 205.798875 44.220627 C 205.798875 39.523752 209.60825 35.717502 214.305125 35.717502 C 218.998875 35.717502 222.80825 39.523752 222.80825 44.220627 Z M 222.80825 44.220627 " transform="matrix(1.25, 0, 0, -1.25, -3.15875, 213.693752)"/>
<path fill-rule="nonzero" fill="rgb(40%, 80.784314%, 96.078431%)" fill-opacity="1" stroke-width="0.99628" stroke-linecap="butt" stroke-linejoin="round" stroke="rgb(0%, 0%, 0%)" stroke-opacity="1" stroke-miterlimit="10" d="M 244.917625 66.333127 C 244.917625 71.030002 241.111375 74.836252 236.4145 74.836252 C 231.717625 74.836252 227.90825 71.030002 227.90825 66.333127 C 227.90825 61.633127 231.717625 57.830002 236.4145 57.830002 C 241.111375 57.830002 244.917625 61.633127 244.917625 66.333127 Z M 244.917625 66.333127 " transform="matrix(1.25, 0, 0, -1.25, -3.15875, 213.693752)"/>
<path fill="none" stroke-width="0.99628" stroke-linecap="butt" stroke-linejoin="round" stroke="rgb(0%, 0%, 0%)" stroke-opacity="1" stroke-miterlimit="10" d="M 242.0145 80.436252 L 186.592625 80.436252 C 181.892625 80.436252 178.0895 76.630002 178.0895 71.930002 L 178.0895 16.508127 C 178.0895 11.814377 181.892625 8.005002 186.592625 8.005002 L 242.0145 8.005002 C 246.711375 8.005002 250.517625 11.814377 250.517625 16.508127 L 250.517625 71.930002 C 250.517625 76.630002 246.711375 80.436252 242.0145 80.436252 Z M 242.0145 80.436252 " transform="matrix(1.25, 0, 0, -1.25, -3.15875, 213.693752)"/>
<path fill-rule="nonzero" fill="rgb(40%, 80.784314%, 96.078431%)" fill-opacity="1" stroke-width="0.99628" stroke-linecap="butt" stroke-linejoin="round" stroke="rgb(0%, 0%, 0%)" stroke-opacity="1" stroke-miterlimit="10" d="M 30.617625 107.148752 C 30.617625 111.848752 26.80825 115.658127 22.10825 115.658127 C 17.4145 115.658127 13.605125 111.848752 13.605125 107.148752 C 13.605125 102.455002 17.4145 98.645627 22.10825 98.645627 C 26.80825 98.645627 30.617625 102.455002 30.617625 107.148752 Z M 30.617625 107.148752 " transform="matrix(1.25, 0, 0, -1.25, -3.15875, 213.693752)"/>
<path fill-rule="nonzero" fill="rgb(40%, 80.784314%, 96.078431%)" fill-opacity="1" stroke-width="0.99628" stroke-linecap="butt" stroke-linejoin="round" stroke="rgb(0%, 0%, 0%)" stroke-opacity="1" stroke-miterlimit="10" d="M 52.727 129.264377 C 52.727 133.958127 48.917625 137.767502 44.223875 137.767502 C 39.523875 137.767502 35.717625 133.958127 35.717625 129.264377 C 35.717625 124.564377 39.523875 120.758127 44.223875 120.758127 C 48.917625 120.758127 52.727 124.564377 52.727 129.264377 Z M 52.727 129.264377 " transform="matrix(1.25, 0, 0, -1.25, -3.15875, 213.693752)"/>
<path fill-rule="nonzero" fill="rgb(40%, 80.784314%, 96.078431%)" fill-opacity="1" stroke-width="0.99628" stroke-linecap="butt" stroke-linejoin="round" stroke="rgb(0%, 0%, 0%)" stroke-opacity="1" stroke-miterlimit="10" d="M 74.836375 151.373752 C 74.836375 156.070627 71.030125 159.876877 66.33325 159.876877 C 61.636375 159.876877 57.827 156.070627 57.827 151.373752 C 57.827 146.676877 61.636375 142.867502 66.33325 142.867502 C 71.030125 142.867502 74.836375 146.676877 74.836375 151.373752 Z M 74.836375 151.373752 " transform="matrix(1.25, 0, 0, -1.25, -3.15875, 213.693752)"/>
<path fill="none" stroke-width="0.99628" stroke-linecap="butt" stroke-linejoin="round" stroke="rgb(0%, 0%, 0%)" stroke-opacity="1" stroke-miterlimit="10" d="M 71.93325 165.476877 L 16.511375 165.476877 C 11.811375 165.476877 8.00825 161.670627 8.00825 156.973752 L 8.00825 101.551877 C 8.00825 96.851877 11.811375 93.048752 16.511375 93.048752 L 71.93325 93.048752 C 76.630125 93.048752 80.436375 96.851877 80.436375 101.551877 L 80.436375 156.973752 C 80.436375 161.670627 76.630125 165.476877 71.93325 165.476877 Z M 71.93325 165.476877 " transform="matrix(1.25, 0, 0, -1.25, -3.15875, 213.693752)"/>
<path fill-rule="nonzero" fill="rgb(40%, 80.784314%, 96.078431%)" fill-opacity="1" stroke-width="0.99628" stroke-linecap="butt" stroke-linejoin="round" stroke="rgb(0%, 0%, 0%)" stroke-opacity="1" stroke-miterlimit="10" d="M 115.655125 107.148752 C 115.655125 111.848752 111.848875 115.658127 107.152 115.658127 C 102.45825 115.658127 98.648875 111.848752 98.648875 107.148752 C 98.648875 102.455002 102.45825 98.645627 107.152 98.645627 C 111.848875 98.645627 115.655125 102.455002 115.655125 107.148752 Z M 115.655125 107.148752 " transform="matrix(1.25, 0, 0, -1.25, -3.15875, 213.693752)"/>
<path fill-rule="nonzero" fill="rgb(40%, 80.784314%, 96.078431%)" fill-opacity="1" stroke-width="0.99628" stroke-linecap="butt" stroke-linejoin="round" stroke="rgb(0%, 0%, 0%)" stroke-opacity="1" stroke-miterlimit="10" d="M 137.7645 129.264377 C 137.7645 133.958127 133.961375 137.767502 129.261375 137.767502 C 124.567625 137.767502 120.75825 133.958127 120.75825 129.264377 C 120.75825 124.564377 124.567625 120.758127 129.261375 120.758127 C 133.961375 120.758127 137.7645 124.564377 137.7645 129.264377 Z M 137.7645 129.264377 " transform="matrix(1.25, 0, 0, -1.25, -3.15875, 213.693752)"/>
<path fill-rule="nonzero" fill="rgb(40%, 80.784314%, 96.078431%)" fill-opacity="1" stroke-width="0.99628" stroke-linecap="butt" stroke-linejoin="round" stroke="rgb(0%, 0%, 0%)" stroke-opacity="1" stroke-miterlimit="10" d="M 159.877 151.373752 C 159.877 156.070627 156.07075 159.876877 151.373875 159.876877 C 146.673875 159.876877 142.87075 156.070627 142.87075 151.373752 C 142.87075 146.676877 146.673875 142.867502 151.373875 142.867502 C 156.07075 142.867502 159.877 146.676877 159.877 151.373752 Z M 159.877 151.373752 " transform="matrix(1.25, 0, 0, -1.25, -3.15875, 213.693752)"/>
<path fill="none" stroke-width="0.99628" stroke-linecap="butt" stroke-linejoin="round" stroke="rgb(0%, 0%, 0%)" stroke-opacity="1" stroke-miterlimit="10" d="M 156.977 165.476877 L 101.552 165.476877 C 96.855125 165.476877 93.04575 161.670627 93.04575 156.973752 L 93.04575 101.551877 C 93.04575 96.851877 96.855125 93.048752 101.552 93.048752 L 156.977 93.048752 C 161.67075 93.048752 165.480125 96.851877 165.480125 101.551877 L 165.480125 156.973752 C 165.480125 161.670627 161.67075 165.476877 156.977 165.476877 Z M 156.977 165.476877 " transform="matrix(1.25, 0, 0, -1.25, -3.15875, 213.693752)"/>
<path fill-rule="nonzero" fill="rgb(40%, 80.784314%, 96.078431%)" fill-opacity="1" stroke-width="0.99628" stroke-linecap="butt" stroke-linejoin="round" stroke="rgb(0%, 0%, 0%)" stroke-opacity="1" stroke-miterlimit="10" d="M 200.698875 107.148752 C 200.698875 111.848752 196.8895 115.658127 192.19575 115.658127 C 187.49575 115.658127 183.6895 111.848752 183.6895 107.148752 C 183.6895 102.455002 187.49575 98.645627 192.19575 98.645627 C 196.8895 98.645627 200.698875 102.455002 200.698875 107.148752 Z M 200.698875 107.148752 " transform="matrix(1.25, 0, 0, -1.25, -3.15875, 213.693752)"/>
<path fill-rule="nonzero" fill="rgb(40%, 80.784314%, 96.078431%)" fill-opacity="1" stroke-width="0.99628" stroke-linecap="butt" stroke-linejoin="round" stroke="rgb(0%, 0%, 0%)" stroke-opacity="1" stroke-miterlimit="10" d="M 222.80825 129.264377 C 222.80825 133.958127 218.998875 137.767502 214.305125 137.767502 C 209.60825 137.767502 205.798875 133.958127 205.798875 129.264377 C 205.798875 124.564377 209.60825 120.758127 214.305125 120.758127 C 218.998875 120.758127 222.80825 124.564377 222.80825 129.264377 Z M 222.80825 129.264377 " transform="matrix(1.25, 0, 0, -1.25, -3.15875, 213.693752)"/>
<path fill-rule="nonzero" fill="rgb(40%, 80.784314%, 96.078431%)" fill-opacity="1" stroke-width="0.99628" stroke-linecap="butt" stroke-linejoin="round" stroke="rgb(0%, 0%, 0%)" stroke-opacity="1" stroke-miterlimit="10" d="M 244.917625 151.373752 C 244.917625 156.070627 241.111375 159.876877 236.4145 159.876877 C 231.717625 159.876877 227.90825 156.070627 227.90825 151.373752 C 227.90825 146.676877 231.717625 142.867502 236.4145 142.867502 C 241.111375 142.867502 244.917625 146.676877 244.917625 151.373752 Z M 244.917625 151.373752 " transform="matrix(1.25, 0, 0, -1.25, -3.15875, 213.693752)"/>
<path fill="none" stroke-width="0.99628" stroke-linecap="butt" stroke-linejoin="round" stroke="rgb(0%, 0%, 0%)" stroke-opacity="1" stroke-miterlimit="10" d="M 242.0145 165.476877 L 186.592625 165.476877 C 181.892625 165.476877 178.0895 161.670627 178.0895 156.973752 L 178.0895 101.551877 C 178.0895 96.851877 181.892625 93.048752 186.592625 93.048752 L 242.0145 93.048752 C 246.711375 93.048752 250.517625 96.851877 250.517625 101.551877 L 250.517625 156.973752 C 250.517625 161.670627 246.711375 165.476877 242.0145 165.476877 Z M 242.0145 165.476877 " transform="matrix(1.25, 0, 0, -1.25, -3.15875, 213.693752)"/>
</svg>
