<?xml version="1.0" encoding="UTF-8"?>
<svg xmlns="http://www.w3.org/2000/svg" xmlns:xlink="http://www.w3.org/1999/xlink" width="159.512501" height="225.418758" viewBox="0 0 159.512501 225.418758">
<path fill-rule="nonzero" fill="rgb(40%, 80.784314%, 96.078431%)" fill-opacity="1" stroke-width="0.99628" stroke-linecap="butt" stroke-linejoin="round" stroke="rgb(0%, 0%, 0%)" stroke-opacity="1" stroke-miterlimit="10" d="M 30.617625 22.11125 C 30.617625 26.808125 26.80825 30.614375 22.10825 30.614375 C 17.4145 30.614375 13.605125 26.808125 13.605125 22.11125 C 13.605125 17.414375 17.4145 13.605 22.10825 13.605 C 26.80825 13.605 30.617625 17.414375 30.617625 22.11125 Z M 30.617625 22.11125 " transform="matrix(1.25, 0, 0, -1.25, -3.15875, 79.75625)"/>
<path fill-rule="nonzero" fill="rgb(40%, 80.784314%, 96.078431%)" fill-opacity="1" stroke-width="0.99628" stroke-linecap="butt" stroke-linejoin="round" stroke="rgb(0%, 0%, 0%)" stroke-opacity="1" stroke-miterlimit="10" d="M 30.617625 44.22375 C 30.617625 48.9175 26.80825 52.726875 22.10825 52.726875 C 17.4145 52.726875 13.605125 48.9175 13.605125 44.22375 C 13.605125 39.52375 17.4145 35.720625 22.10825 35.720625 C 26.80825 35.720625 30.617625 39.52375 30.617625 44.22375 Z M 30.617625 44.22375 " transform="matrix(1.25, 0, 0, -1.25, -3.15875, 79.75625)"/>
<path fill-rule="nonzero" fill="rgb(40%, 80.784314%, 96.078431%)" fill-opacity="1" stroke-width="0.99628" stroke-linecap="butt" stroke-linejoin="round" stroke="rgb(0%, 0%, 0%)" stroke-opacity="1" stroke-miterlimit="10" d="M 52.727 22.11125 C 52.727 26.808125 48.917625 30.614375 44.223875 30.614375 C 39.523875 30.614375 35.717625 26.808125 35.717625 22.11125 C 35.717625 17.414375 39.523875 13.605 44.223875 13.605 C 48.917625 13.605 52.727 17.414375 52.727 22.11125 Z M 52.727 22.11125 " transform="matrix(1.25, 0, 0, -1.25, -3.15875, 79.75625)"/>
<path fill-rule="nonzero" fill="rgb(40%, 80.784314%, 96.078431%)" fill-opacity="1" stroke-width="0.99628" stroke-linecap="butt" stroke-linejoin="round" stroke="rgb(0%, 0%, 0%)" stroke-opacity="1" stroke-miterlimit="10" d="M 52.727 44.22375 C 52.727 48.9175 48.917625 52.726875 44.223875 52.726875 C 39.523875 52.726875 35.717625 48.9175 35.717625 44.22375 C 35.717625 39.52375 39.523875 35.720625 44.223875 35.720625 C 48.917625 35.720625 52.727 39.52375 52.727 44.22375 Z M 52.727 44.22375 " transform="matrix(1.25, 0, 0, -1.25, -3.15875, 79.75625)"/>
<path fill-rule="nonzero" fill="rgb(40%, 80.784314%, 96.078431%)" fill-opacity="1" stroke-width="0.99628" stroke-linecap="butt" stroke-linejoin="round" stroke="rgb(0%, 0%, 0%)" stroke-opacity="1" stroke-miterlimit="10" d="M 74.836375 22.11125 C 74.836375 26.808125 71.030125 30.614375 66.33325 30.614375 C 61.636375 30.614375 57.827 26.808125 57.827 22.11125 C 57.827 17.414375 61.636375 13.605 66.33325 13.605 C 71.030125 13.605 74.836375 17.414375 74.836375 22.11125 Z M 74.836375 22.11125 " transform="matrix(1.25, 0, 0, -1.25, -3.15875, 79.75625)"/>
<path fill-rule="nonzero" fill="rgb(40%, 80.784314%, 96.078431%)" fill-opacity="1" stroke-width="0.99628" stroke-linecap="butt" stroke-linejoin="round" stroke="rgb(0%, 0%, 0%)" stroke-opacity="1" stroke-miterlimit="10" d="M 74.836375 44.22375 C 74.836375 48.9175 71.030125 52.726875 66.33325 52.726875 C 61.636375 52.726875 57.827 48.9175 57.827 44.22375 C 57.827 39.52375 61.636375 35.720625 66.33325 35.720625 C 71.030125 35.720625 74.836375 39.52375 74.836375 44.22375 Z M 74.836375 44.22375 " transform="matrix(1.25, 0, 0, -1.25, -3.15875, 79.75625)"/>
<path fill-rule="nonzero" fill="rgb(40%, 80.784314%, 96.078431%)" fill-opacity="1" stroke-width="0.99628" stroke-linecap="butt" stroke-linejoin="round" stroke="rgb(0%, 0%, 0%)" stroke-opacity="1" stroke-miterlimit="10" d="M 96.948875 22.11125 C 96.948875 26.808125 93.1395 30.614375 88.44575 30.614375 C 83.74575 30.614375 79.936375 26.808125 79.936375 22.11125 C 79.936375 17.414375 83.74575 13.605 88.44575 13.605 C 93.1395 13.605 96.948875 17.414375 96.948875 22.11125 Z M 96.948875 22.11125 " transform="matrix(1.25, 0, 0, -1.25, -3.15875, 79.75625)"/>
<path fill-rule="nonzero" fill="rgb(40%, 80.784314%, 96.078431%)" fill-opacity="1" stroke-width="0.99628" stroke-linecap="butt" stroke-linejoin="round" stroke="rgb(0%, 0%, 0%)" stroke-opacity="1" stroke-miterlimit="10" d="M 96.948875 44.22375 C 96.948875 48.9175 93.1395 52.726875 88.44575 52.726875 C 83.74575 52.726875 79.936375 48.9175 79.936375 44.22375 C 79.936375 39.52375 83.74575 35.720625 88.44575 35.720625 C 93.1395 35.720625 96.948875 39.52375 96.948875 44.22375 Z M 96.948875 44.22375 " transform="matrix(1.25, 0, 0, -1.25, -3.15875, 79.75625)"/>
<path fill-rule="nonzero" fill="rgb(40%, 80.784314%, 96.078431%)" fill-opacity="1" stroke-width="0.99628" stroke-linecap="butt" stroke-linejoin="round" stroke="rgb(0%, 0%, 0%)" stroke-opacity="1" stroke-miterlimit="10" d="M 119.05825 22.11125 C 119.05825 26.808125 115.248875 30.614375 110.555125 30.614375 C 105.85825 30.614375 102.052 26.808125 102.052 22.11125 C 102.052 17.414375 105.85825 13.605 110.555125 13.605 C 115.248875 13.605 119.05825 17.414375 119.05825 22.11125 Z M 119.05825 22.11125 " transform="matrix(1.25, 0, 0, -1.25, -3.15875, 79.75625)"/>
<path fill-rule="nonzero" fill="rgb(40%, 80.784314%, 96.078431%)" fill-opacity="1" stroke-width="0.99628" stroke-linecap="butt" stroke-linejoin="round" stroke="rgb(0%, 0%, 0%)" stroke-opacity="1" stroke-miterlimit="10" d="M 119.05825 44.22375 C 119.05825 48.9175 115.248875 52.726875 110.555125 52.726875 C 105.85825 52.726875 102.052 48.9175 102.052 44.22375 C 102.052 39.52375 105.85825 35.720625 110.555125 35.720625 C 115.248875 35.720625 119.05825 39.52375 119.05825 44.22375 Z M 119.05825 44.22375 " transform="matrix(1.25, 0, 0, -1.25, -3.15875, 79.75625)"/>
<path fill="none" stroke-width="0.99628" stroke-linecap="butt" stroke-linejoin="round" stroke="rgb(0%, 0%, 0%)" stroke-opacity="1" stroke-miterlimit="10" d="M 116.155125 58.32375 L 16.511375 58.32375 C 11.811375 58.32375 8.00825 54.520625 8.00825 49.820625 L 8.00825 16.51125 C 8.00825 11.814375 11.811375 8.005 16.511375 8.005 L 116.155125 8.005 C 120.852 8.005 124.661375 11.814375 124.661375 16.51125 L 124.661375 49.820625 C 124.661375 54.520625 120.852 58.32375 116.155125 58.32375 Z M 116.155125 58.32375 " transform="matrix(1.25, 0, 0, -1.25, -3.15875, 79.75625)"/>
<path fill-rule="nonzero" fill="rgb(40%, 80.784314%, 96.078431%)" fill-opacity="1" stroke-width="0.99628" stroke-linecap="butt" stroke-linejoin="round" stroke="rgb(0%, 0%, 0%)" stroke-opacity="1" stroke-miterlimit="10" d="M 30.617625 -37.416875 C 30.617625 -32.723125 26.80825 -28.91375 22.10825 -28.91375 C 17.4145 -28.91375 13.605125 -32.723125 13.605125 -37.416875 C 13.605125 -42.11375 17.4145 -45.92 22.10825 -45.92 C 26.80825 -45.92 30.617625 -42.11375 30.617625 -37.416875 Z M 30.617625 -37.416875 " transform="matrix(1.25, 0, 0, -1.25, -3.15875, 79.75625)"/>
<path fill-rule="nonzero" fill="rgb(40%, 80.784314%, 96.078431%)" fill-opacity="1" stroke-width="0.99628" stroke-linecap="butt" stroke-linejoin="round" stroke="rgb(0%, 0%, 0%)" stroke-opacity="1" stroke-miterlimit="10" d="M 30.617625 -15.3075 C 30.617625 -10.6075 26.80825 -6.804375 22.10825 -6.804375 C 17.4145 -6.804375 13.605125 -10.6075 13.605125 -15.3075 C 13.605125 -20.004375 17.4145 -23.810625 22.10825 -23.810625 C 26.80825 -23.810625 30.617625 -20.004375 30.617625 -15.3075 Z M 30.617625 -15.3075 " transform="matrix(1.25, 0, 0, -1.25, -3.15875, 79.75625)"/>
<path fill-rule="nonzero" fill="rgb(40%, 80.784314%, 96.078431%)" fill-opacity="1" stroke-width="0.99628" stroke-linecap="butt" stroke-linejoin="round" stroke="rgb(0%, 0%, 0%)" stroke-opacity="1" stroke-miterlimit="10" d="M 52.727 -37.416875 C 52.727 -32.723125 48.917625 -28.91375 44.223875 -28.91375 C 39.523875 -28.91375 35.717625 -32.723125 35.717625 -37.416875 C 35.717625 -42.11375 39.523875 -45.92 44.223875 -45.92 C 48.917625 -45.92 52.727 -42.11375 52.727 -37.416875 Z M 52.727 -37.416875 " transform="matrix(1.25, 0, 0, -1.25, -3.15875, 79.75625)"/>
<path fill-rule="nonzero" fill="rgb(40%, 80.784314%, 96.078431%)" fill-opacity="1" stroke-width="0.99628" stroke-linecap="butt" stroke-linejoin="round" stroke="rgb(0%, 0%, 0%)" stroke-opacity="1" stroke-miterlimit="10" d="M 52.727 -15.3075 C 52.727 -10.6075 48.917625 -6.804375 44.223875 -6.804375 C 39.523875 -6.804375 35.717625 -10.6075 35.717625 -15.3075 C 35.717625 -20.004375 39.523875 -23.810625 44.223875 -23.810625 C 48.917625 -23.810625 52.727 -20.004375 52.727 -15.3075 Z M 52.727 -15.3075 " transform="matrix(1.25, 0, 0, -1.25, -3.15875, 79.75625)"/>
<path fill-rule="nonzero" fill="rgb(40%, 80.784314%, 96.078431%)" fill-opacity="1" stroke-width="0.99628" stroke-linecap="butt" stroke-linejoin="round" stroke="rgb(0%, 0%, 0%)" stroke-opacity="1" stroke-miterlimit="10" d="M 74.836375 -37.416875 C 74.836375 -32.723125 71.030125 -28.91375 66.33325 -28.91375 C 61.636375 -28.91375 57.827 -32.723125 57.827 -37.416875 C 57.827 -42.11375 61.636375 -45.92 66.33325 -45.92 C 71.030125 -45.92 74.836375 -42.11375 74.836375 -37.416875 Z M 74.836375 -37.416875 " transform="matrix(1.25, 0, 0, -1.25, -3.15875, 79.75625)"/>
<path fill-rule="nonzero" fill="rgb(40%, 80.784314%, 96.078431%)" fill-opacity="1" stroke-width="0.99628" stroke-linecap="butt" stroke-linejoin="round" stroke="rgb(0%, 0%, 0%)" stroke-opacity="1" stroke-miterlimit="10" d="M 74.836375 -15.3075 C 74.836375 -10.6075 71.030125 -6.804375 66.33325 -6.804375 C 61.636375 -6.804375 57.827 -10.6075 57.827 -15.3075 C 57.827 -20.004375 61.636375 -23.810625 66.33325 -23.810625 C 71.030125 -23.810625 74.836375 -20.004375 74.836375 -15.3075 Z M 74.836375 -15.3075 " transform="matrix(1.25, 0, 0, -1.25, -3.15875, 79.75625)"/>
<path fill-rule="nonzero" fill="rgb(40%, 80.784314%, 96.078431%)" fill-opacity="1" stroke-width="0.99628" stroke-linecap="butt" stroke-linejoin="round" stroke="rgb(0%, 0%, 0%)" stroke-opacity="1" stroke-miterlimit="10" d="M 96.948875 -37.416875 C 96.948875 -32.723125 93.1395 -28.91375 88.44575 -28.91375 C 83.74575 -28.91375 79.936375 -32.723125 79.936375 -37.416875 C 79.936375 -42.11375 83.74575 -45.92 88.44575 -45.92 C 93.1395 -45.92 96.948875 -42.11375 96.948875 -37.416875 Z M 96.948875 -37.416875 " transform="matrix(1.25, 0, 0, -1.25, -3.15875, 79.75625)"/>
<path fill-rule="nonzero" fill="rgb(40%, 80.784314%, 96.078431%)" fill-opacity="1" stroke-width="0.99628" stroke-linecap="butt" stroke-linejoin="round" stroke="rgb(0%, 0%, 0%)" stroke-opacity="1" stroke-miterlimit="10" d="M 96.948875 -15.3075 C 96.948875 -10.6075 93.1395 -6.804375 88.44575 -6.804375 C 83.74575 -6.804375 79.936375 -10.6075 79.936375 -15.3075 C 79.936375 -20.004375 83.74575 -23.810625 88.44575 -23.810625 C 93.1395 -23.810625 96.948875 -20.004375 96.948875 -15.3075 Z M 96.948875 -15.3075 " transform="matrix(1.25, 0, 0, -1.25, -3.15875, 79.75625)"/>
<path fill-rule="nonzero" fill="rgb(40%, 80.784314%, 96.078431%)" fill-opacity="1" stroke-width="0.99628" stroke-linecap="butt" stroke-linejoin="round" stroke="rgb(0%, 0%, 0%)" stroke-opacity="1" stroke-miterlimit="10" d="M 119.05825 -37.416875 C 119.05825 -32.723125 115.248875 -28.91375 110.555125 -28.91375 C 105.85825 -28.91375 102.052 -32.723125 102.052 -37.416875 C 102.052 -42.11375 105.85825 -45.92 110.555125 -45.92 C 115.248875 -45.92 119.05825 -42.11375 119.05825 -37.416875 Z M 119.05825 -37.416875 " transform="matrix(1.25, 0, 0, -1.25, -3.15875, 79.75625)"/>
<path fill-rule="nonzero" fill="rgb(40%, 80.784314%, 96.078431%)" fill-opacity="1" stroke-width="0.99628" stroke-linecap="butt" stroke-linejoin="round" stroke="rgb(0%, 0%, 0%)" stroke-opacity="1" stroke-miterlimit="10" d="M 119.05825 -15.3075 C 119.05825 -10.6075 115.248875 -6.804375 110.555125 -6.804375 C 105.85825 -6.804375 102.052 -10.6075 102.052 -15.3075 C 102.052 -20.004375 105.85825 -23.810625 110.555125 -23.810625 C 115.248875 -23.810625 119.05825 -20.004375 119.05825 -15.3075 Z M 119.05825 -15.3075 " transform="matrix(1.25, 0, 0, -1.25, -3.15875, 79.75625)"/>
<path fill="none" stroke-width="0.99628" stroke-linecap="butt" stroke-linejoin="round" stroke="rgb(0%, 0%, 0%)" stroke-opacity="1" stroke-miterlimit="10" d="M 116.155125 -1.20125 L 16.511375 -1.20125 C 11.811375 -1.20125 8.00825 -5.010625 8.00825 -9.7075 L 8.00825 -43.02 C 8.00825 -47.71375 11.811375 -51.523125 16.511375 -51.523125 L 116.155125 -51.523125 C 120.852 -51.523125 124.661375 -47.71375 124.661375 -43.02 L 124.661375 -9.7075 C 124.661375 -5.010625 120.852 -1.20125 116.155125 -1.20125 Z M 116.155125 -1.20125 " transform="matrix(1.25, 0, 0, -1.25, -3.15875, 79.75625)"/>
<path fill-rule="nonzero" fill="rgb(40%, 80.784314%, 96.078431%)" fill-opacity="1" stroke-width="0.99628" stroke-linecap="butt" stroke-linejoin="round" stroke="rgb(0%, 0%, 0%)" stroke-opacity="1" stroke-miterlimit="10" d="M 30.617625 -96.948125 C 30.617625 -92.248125 26.80825 -88.441875 22.10825 -88.441875 C 17.4145 -88.441875 13.605125 -92.248125 13.605125 -96.948125 C 13.605125 -101.645 17.4145 -105.45125 22.10825 -105.45125 C 26.80825 -105.45125 30.617625 -101.645 30.617625 -96.948125 Z M 30.617625 -96.948125 " transform="matrix(1.25, 0, 0, -1.25, -3.15875, 79.75625)"/>
<path fill-rule="nonzero" fill="rgb(40%, 80.784314%, 96.078431%)" fill-opacity="1" stroke-width="0.99628" stroke-linecap="butt" stroke-linejoin="round" stroke="rgb(0%, 0%, 0%)" stroke-opacity="1" stroke-miterlimit="10" d="M 30.617625 -74.835625 C 30.617625 -70.13875 26.80825 -66.3325 22.10825 -66.3325 C 17.4145 -66.3325 13.605125 -70.13875 13.605125 -74.835625 C 13.605125 -79.535625 17.4145 -83.33875 22.10825 -83.33875 C 26.80825 -83.33875 30.617625 -79.535625 30.617625 -74.835625 Z M 30.617625 -74.835625 " transform="matrix(1.25, 0, 0, -1.25, -3.15875, 79.75625)"/>
<path fill-rule="nonzero" fill="rgb(40%, 80.784314%, 96.078431%)" fill-opacity="1" stroke-width="0.99628" stroke-linecap="butt" stroke-linejoin="round" stroke="rgb(0%, 0%, 0%)" stroke-opacity="1" stroke-miterlimit="10" d="M 52.727 -96.948125 C 52.727 -92.248125 48.917625 -88.441875 44.223875 -88.441875 C 39.523875 -88.441875 35.717625 -92.248125 35.717625 -96.948125 C 35.717625 -101.645 39.523875 -105.45125 44.223875 -105.45125 C 48.917625 -105.45125 52.727 -101.645 52.727 -96.948125 Z M 52.727 -96.948125 " transform="matrix(1.25, 0, 0, -1.25, -3.15875, 79.75625)"/>
<path fill-rule="nonzero" fill="rgb(40%, 80.784314%, 96.078431%)" fill-opacity="1" stroke-width="0.99628" stroke-linecap="butt" stroke-linejoin="round" stroke="rgb(0%, 0%, 0%)" stroke-opacity="1" stroke-miterlimit="10" d="M 52.727 -74.835625 C 52.727 -70.13875 48.917625 -66.3325 44.223875 -66.3325 C 39.523875 -66.3325 35.717625 -70.13875 35.717625 -74.835625 C 35.717625 -79.535625 39.523875 -83.33875 44.223875 -83.33875 C 48.917625 -83.33875 52.727 -79.535625 52.727 -74.835625 Z M 52.727 -74.835625 " transform="matrix(1.25, 0, 0, -1.25, -3.15875, 79.75625)"/>
<path fill-rule="nonzero" fill="rgb(40%, 80.784314%, 96.078431%)" fill-opacity="1" stroke-width="0.99628" stroke-linecap="butt" stroke-linejoin="round" stroke="rgb(0%, 0%, 0%)" stroke-opacity="1" stroke-miterlimit="10" d="M 74.836375 -96.948125 C 74.836375 -92.248125 71.030125 -88.441875 66.33325 -88.441875 C 61.636375 -88.441875 57.827 -92.248125 57.827 -96.948125 C 57.827 -101.645 61.636375 -105.45125 66.33325 -105.45125 C 71.030125 -105.45125 74.836375 -101.645 74.836375 -96.948125 Z M 74.836375 -96.948125 " transform="matrix(1.25, 0, 0, -1.25, -3.15875, 79.75625)"/>
<path fill-rule="nonzero" fill="rgb(40%, 80.784314%, 96.078431%)" fill-opacity="1" stroke-width="0.99628" stroke-linecap="butt" stroke-linejoin="round" stroke="rgb(0%, 0%, 0%)" stroke-opacity="1" stroke-miterlimit="10" d="M 74.836375 -74.835625 C 74.836375 -70.13875 71.030125 -66.3325 66.33325 -66.3325 C 61.636375 -66.3325 57.827 -70.13875 57.827 -74.835625 C 57.827 -79.535625 61.636375 -83.33875 66.33325 -83.33875 C 71.030125 -83.33875 74.836375 -79.535625 74.836375 -74.835625 Z M 74.836375 -74.835625 " transform="matrix(1.25, 0, 0, -1.25, -3.15875, 79.75625)"/>
<path fill-rule="nonzero" fill="rgb(40%, 80.784314%, 96.078431%)" fill-opacity="1" stroke-width="0.99628" stroke-linecap="butt" stroke-linejoin="round" stroke="rgb(0%, 0%, 0%)" stroke-opacity="1" stroke-miterlimit="10" d="M 96.948875 -96.948125 C 96.948875 -92.248125 93.1395 -88.441875 88.44575 -88.441875 C 83.74575 -88.441875 79.936375 -92.248125 79.936375 -96.948125 C 79.936375 -101.645 83.74575 -105.45125 88.44575 -105.45125 C 93.1395 -105.45125 96.948875 -101.645 96.948875 -96.948125 Z M 96.948875 -96.948125 " transform="matrix(1.25, 0, 0, -1.25, -3.15875, 79.75625)"/>
<path fill-rule="nonzero" fill="rgb(40%, 80.784314%, 96.078431%)" fill-opacity="1" stroke-width="0.99628" stroke-linecap="butt" stroke-linejoin="round" stroke="rgb(0%, 0%, 0%)" stroke-opacity="1" stroke-miterlimit="10" d="M 96.948875 -74.835625 C 96.948875 -70.13875 93.1395 -66.3325 88.44575 -66.3325 C 83.74575 -66.3325 79.936375 -70.13875 79.936375 -74.835625 C 79.936375 -79.535625 83.74575 -83.33875 88.44575 -83.33875 C 93.1395 -83.33875 96.948875 -79.535625 96.948875 -74.835625 Z M 96.948875 -74.835625 " transform="matrix(1.25, 0, 0, -1.25, -3.15875, 79.75625)"/>
<path fill-rule="nonzero" fill="rgb(40%, 80.784314%, 96.078431%)" fill-opacity="1" stroke-width="0.99628" stroke-linecap="butt" stroke-linejoin="round" stroke="rgb(0%, 0%, 0%)" stroke-opacity="1" stroke-miterlimit="10" d="M 119.05825 -96.948125 C 119.05825 -92.248125 115.248875 -88.441875 110.555125 -88.441875 C 105.85825 -88.441875 102.052 -92.248125 102.052 -96.948125 C 102.052 -101.645 105.85825 -105.45125 110.555125 -105.45125 C 115.248875 -105.45125 119.05825 -101.645 119.05825 -96.948125 Z M 119.05825 -96.948125 " transform="matrix(1.25, 0, 0, -1.25, -3.15875, 79.75625)"/>
<path fill-rule="nonzero" fill="rgb(40%, 80.784314%, 96.078431%)" fill-opacity="1" stroke-width="0.99628" stroke-linecap="butt" stroke-linejoin="round" stroke="rgb(0%, 0%, 0%)" stroke-opacity="1" stroke-miterlimit="10" d="M 119.05825 -74.835625 C 119.05825 -70.13875 115.248875 -66.3325 110.555125 -66.3325 C 105.85825 -66.3325 102.052 -70.13875 102.052 -74.835625 C 102.052 -79.535625 105.85825 -83.33875 110.555125 -83.33875 C 115.248875 -83.33875 119.05825 -79.535625 119.05825 -74.835625 Z M 119.05825 -74.835625 " transform="matrix(1.25, 0, 0, -1.25, -3.15875, 79.75625)"/>
<path fill="none" stroke-width="0.99628" stroke-linecap="butt" stroke-linejoin="round" stroke="rgb(0%, 0%, 0%)" stroke-opacity="1" stroke-miterlimit="10" d="M 116.155125 -60.729375 L 16.511375 -60.729375 C 11.811375 -60.729375 8.00825 -64.53875 8.00825 -69.2325 L 8.00825 -102.545 C 8.00825 -107.245 11.811375 -111.05125 16.511375 -111.05125 L 116.155125 -111.05125 C 120.852 -111.05125 124.661375 -107.245 124.661375 -102.545 L 124.661375 -69.2325 C 124.661375 -64.53875 120.852 -60.729375 116.155125 -60.729375 Z M 116.155125 -60.729375 " transform="matrix(1.25, 0, 0, -1.25, -3.15875, 79.75625)"/>
</svg>
