<?xml version="1.0" encoding="UTF-8"?>
<svg xmlns="http://www.w3.org/2000/svg" xmlns:xlink="http://www.w3.org/1999/xlink" width="114.041" height="152.921" viewBox="0 0 114.041 152.921">
<defs>
<clipPath id="clip-0">
<path clip-rule="nonzero" d="M 0 0 L 114.039062 0 L 114.039062 57 L 0 57 Z M 0 0 "/>
</clipPath>
<clipPath id="clip-1">
<path clip-rule="nonzero" d="M 0 48 L 114.039062 48 L 114.039062 105 L 0 105 Z M 0 48 "/>
</clipPath>
<clipPath id="clip-2">
<path clip-rule="nonzero" d="M 0 96 L 114.039062 96 L 114.039062 152.921875 L 0 152.921875 Z M 0 96 "/>
</clipPath>
</defs>
<path fill-rule="nonzero" fill="rgb(30.000305%, 77.487183%, 95.610046%)" fill-opacity="1" stroke-width="0.3985" stroke-linecap="butt" stroke-linejoin="miter" stroke="rgb(0%, 0%, 0%)" stroke-opacity="1" stroke-miterlimit="10" d="M 8.101094 9.720375 C 8.101094 14.193031 4.472187 17.818031 -0.00046875 17.818031 C -4.473125 17.818031 -8.098125 14.193031 -8.098125 9.720375 C -8.098125 5.247719 -4.473125 1.618813 -0.00046875 1.618813 C 4.472187 1.618813 8.101094 5.247719 8.101094 9.720375 Z M 8.101094 9.720375 " transform="matrix(1, 0, 0, -1, 57.02, 27.861)"/>
<path fill-rule="nonzero" fill="rgb(30.000305%, 77.487183%, 95.610046%)" fill-opacity="1" stroke-width="0.3985" stroke-linecap="butt" stroke-linejoin="miter" stroke="rgb(0%, 0%, 0%)" stroke-opacity="1" stroke-miterlimit="10" d="M 8.101094 -9.721031 C 8.101094 -5.244469 4.472187 -1.619469 -0.00046875 -1.619469 C -4.473125 -1.619469 -8.098125 -5.244469 -8.098125 -9.721031 C -8.098125 -14.193687 -4.473125 -17.818687 -0.00046875 -17.818687 C 4.472187 -17.818687 8.101094 -14.193687 8.101094 -9.721031 Z M 8.101094 -9.721031 " transform="matrix(1, 0, 0, -1, 57.02, 27.861)"/>
<path fill-rule="nonzero" fill="rgb(30.000305%, 77.487183%, 95.610046%)" fill-opacity="1" stroke-width="0.3985" stroke-linecap="butt" stroke-linejoin="miter" stroke="rgb(0%, 0%, 0%)" stroke-opacity="1" stroke-miterlimit="10" d="M 27.538594 9.720375 C 27.538594 14.193031 23.913594 17.818031 19.440937 17.818031 C 14.968281 17.818031 11.339375 14.193031 11.339375 9.720375 C 11.339375 5.247719 14.968281 1.618813 19.440937 1.618813 C 23.913594 1.618813 27.538594 5.247719 27.538594 9.720375 Z M 27.538594 9.720375 " transform="matrix(1, 0, 0, -1, 57.02, 27.861)"/>
<path fill-rule="nonzero" fill="rgb(30.000305%, 77.487183%, 95.610046%)" fill-opacity="1" stroke-width="0.3985" stroke-linecap="butt" stroke-linejoin="miter" stroke="rgb(0%, 0%, 0%)" stroke-opacity="1" stroke-miterlimit="10" d="M 27.538594 -9.721031 C 27.538594 -5.244469 23.913594 -1.619469 19.440937 -1.619469 C 14.968281 -1.619469 11.339375 -5.244469 11.339375 -9.721031 C 11.339375 -14.193687 14.968281 -17.818687 19.440937 -17.818687 C 23.913594 -17.818687 27.538594 -14.193687 27.538594 -9.721031 Z M 27.538594 -9.721031 " transform="matrix(1, 0, 0, -1, 57.02, 27.861)"/>
<path fill-rule="nonzero" fill="rgb(30.000305%, 77.487183%, 95.610046%)" fill-opacity="1" stroke-width="0.3985" stroke-linecap="butt" stroke-linejoin="miter" stroke="rgb(0%, 0%, 0%)" stroke-opacity="1" stroke-miterlimit="10" d="M 46.98 9.720375 C 46.98 14.193031 43.355 17.818031 38.882344 17.818031 C 34.405781 17.818031 30.780781 14.193031 30.780781 9.720375 C 30.780781 5.247719 34.405781 1.618813 38.882344 1.618813 C 43.355 1.618813 46.98 5.247719 46.98 9.720375 Z M 46.98 9.720375 " transform="matrix(1, 0, 0, -1, 57.02, 27.861)"/>
<path fill-rule="nonzero" fill="rgb(30.000305%, 77.487183%, 95.610046%)" fill-opacity="1" stroke-width="0.3985" stroke-linecap="butt" stroke-linejoin="miter" stroke="rgb(0%, 0%, 0%)" stroke-opacity="1" stroke-miterlimit="10" d="M 46.98 -9.721031 C 46.98 -5.244469 43.355 -1.619469 38.882344 -1.619469 C 34.405781 -1.619469 30.780781 -5.244469 30.780781 -9.721031 C 30.780781 -14.193687 34.405781 -17.818687 38.882344 -17.818687 C 43.355 -17.818687 46.98 -14.193687 46.98 -9.721031 Z M 46.98 -9.721031 " transform="matrix(1, 0, 0, -1, 57.02, 27.861)"/>
<path fill-rule="nonzero" fill="rgb(30.000305%, 77.487183%, 95.610046%)" fill-opacity="1" stroke-width="0.3985" stroke-linecap="butt" stroke-linejoin="miter" stroke="rgb(0%, 0%, 0%)" stroke-opacity="1" stroke-miterlimit="10" d="M -11.340313 9.720375 C -11.340313 14.193031 -14.965313 17.818031 -19.441875 17.818031 C -23.914531 17.818031 -27.539531 14.193031 -27.539531 9.720375 C -27.539531 5.247719 -23.914531 1.618813 -19.441875 1.618813 C -14.965313 1.618813 -11.340313 5.247719 -11.340313 9.720375 Z M -11.340313 9.720375 " transform="matrix(1, 0, 0, -1, 57.02, 27.861)"/>
<path fill-rule="nonzero" fill="rgb(30.000305%, 77.487183%, 95.610046%)" fill-opacity="1" stroke-width="0.3985" stroke-linecap="butt" stroke-linejoin="miter" stroke="rgb(0%, 0%, 0%)" stroke-opacity="1" stroke-miterlimit="10" d="M -11.340313 -9.721031 C -11.340313 -5.244469 -14.965313 -1.619469 -19.441875 -1.619469 C -23.914531 -1.619469 -27.539531 -5.244469 -27.539531 -9.721031 C -27.539531 -14.193687 -23.914531 -17.818687 -19.441875 -17.818687 C -14.965313 -17.818687 -11.340313 -14.193687 -11.340313 -9.721031 Z M -11.340313 -9.721031 " transform="matrix(1, 0, 0, -1, 57.02, 27.861)"/>
<path fill-rule="nonzero" fill="rgb(30.000305%, 77.487183%, 95.610046%)" fill-opacity="1" stroke-width="0.3985" stroke-linecap="butt" stroke-linejoin="miter" stroke="rgb(0%, 0%, 0%)" stroke-opacity="1" stroke-miterlimit="10" d="M -30.781719 9.720375 C -30.781719 14.193031 -34.406719 17.818031 -38.879375 17.818031 C -43.355938 17.818031 -46.980938 14.193031 -46.980938 9.720375 C -46.980938 5.247719 -43.355938 1.618813 -38.879375 1.618813 C -34.406719 1.618813 -30.781719 5.247719 -30.781719 9.720375 Z M -30.781719 9.720375 " transform="matrix(1, 0, 0, -1, 57.02, 27.861)"/>
<path fill-rule="nonzero" fill="rgb(30.000305%, 77.487183%, 95.610046%)" fill-opacity="1" stroke-width="0.3985" stroke-linecap="butt" stroke-linejoin="miter" stroke="rgb(0%, 0%, 0%)" stroke-opacity="1" stroke-miterlimit="10" d="M -30.781719 -9.721031 C -30.781719 -5.244469 -34.406719 -1.619469 -38.879375 -1.619469 C -43.355938 -1.619469 -46.980938 -5.244469 -46.980938 -9.721031 C -46.980938 -14.193687 -43.355938 -17.818687 -38.879375 -17.818687 C -34.406719 -17.818687 -30.781719 -14.193687 -30.781719 -9.721031 Z M -30.781719 -9.721031 " transform="matrix(1, 0, 0, -1, 57.02, 27.861)"/>
<g clip-path="url(#clip-0)">
<path fill="none" stroke-width="0.3985" stroke-linecap="butt" stroke-linejoin="miter" stroke="rgb(0%, 0%, 0%)" stroke-opacity="1" stroke-miterlimit="10" d="M -51.840313 -14.709312 L -51.840313 14.708656 C -51.840313 19.111 -48.273906 22.681313 -43.871563 22.681313 L 43.870625 22.681313 C 48.272969 22.681313 51.839375 19.111 51.839375 14.708656 L 51.839375 -14.709312 C 51.839375 -19.111656 48.272969 -22.681969 43.870625 -22.681969 L -43.871563 -22.681969 C -48.273906 -22.681969 -51.840313 -19.111656 -51.840313 -14.709312 Z M -51.840313 -14.709312 " transform="matrix(1, 0, 0, -1, 57.02, 27.861)"/>
</g>
<path fill-rule="nonzero" fill="rgb(30.000305%, 77.487183%, 95.610046%)" fill-opacity="1" stroke-width="0.3985" stroke-linecap="butt" stroke-linejoin="miter" stroke="rgb(0%, 0%, 0%)" stroke-opacity="1" stroke-miterlimit="10" d="M 8.101094 -38.881187 C 8.101094 -34.408531 4.472187 -30.779625 -0.00046875 -30.779625 C -4.473125 -30.779625 -8.098125 -34.408531 -8.098125 -38.881187 C -8.098125 -43.353844 -4.473125 -46.978844 -0.00046875 -46.978844 C 4.472187 -46.978844 8.101094 -43.353844 8.101094 -38.881187 Z M 8.101094 -38.881187 " transform="matrix(1, 0, 0, -1, 57.02, 27.861)"/>
<path fill-rule="nonzero" fill="rgb(30.000305%, 77.487183%, 95.610046%)" fill-opacity="1" stroke-width="0.3985" stroke-linecap="butt" stroke-linejoin="miter" stroke="rgb(0%, 0%, 0%)" stroke-opacity="1" stroke-miterlimit="10" d="M 8.101094 -58.318687 C 8.101094 -53.846031 4.472187 -50.221031 -0.00046875 -50.221031 C -4.473125 -50.221031 -8.098125 -53.846031 -8.098125 -58.318687 C -8.098125 -62.79525 -4.473125 -66.42025 -0.00046875 -66.42025 C 4.472187 -66.42025 8.101094 -62.79525 8.101094 -58.318687 Z M 8.101094 -58.318687 " transform="matrix(1, 0, 0, -1, 57.02, 27.861)"/>
<path fill-rule="nonzero" fill="rgb(30.000305%, 77.487183%, 95.610046%)" fill-opacity="1" stroke-width="0.3985" stroke-linecap="butt" stroke-linejoin="miter" stroke="rgb(0%, 0%, 0%)" stroke-opacity="1" stroke-miterlimit="10" d="M 27.538594 -38.881187 C 27.538594 -34.408531 23.913594 -30.779625 19.440937 -30.779625 C 14.968281 -30.779625 11.339375 -34.408531 11.339375 -38.881187 C 11.339375 -43.353844 14.968281 -46.978844 19.440937 -46.978844 C 23.913594 -46.978844 27.538594 -43.353844 27.538594 -38.881187 Z M 27.538594 -38.881187 " transform="matrix(1, 0, 0, -1, 57.02, 27.861)"/>
<path fill-rule="nonzero" fill="rgb(30.000305%, 77.487183%, 95.610046%)" fill-opacity="1" stroke-width="0.3985" stroke-linecap="butt" stroke-linejoin="miter" stroke="rgb(0%, 0%, 0%)" stroke-opacity="1" stroke-miterlimit="10" d="M 27.538594 -58.318687 C 27.538594 -53.846031 23.913594 -50.221031 19.440937 -50.221031 C 14.968281 -50.221031 11.339375 -53.846031 11.339375 -58.318687 C 11.339375 -62.79525 14.968281 -66.42025 19.440937 -66.42025 C 23.913594 -66.42025 27.538594 -62.79525 27.538594 -58.318687 Z M 27.538594 -58.318687 " transform="matrix(1, 0, 0, -1, 57.02, 27.861)"/>
<path fill-rule="nonzero" fill="rgb(30.000305%, 77.487183%, 95.610046%)" fill-opacity="1" stroke-width="0.3985" stroke-linecap="butt" stroke-linejoin="miter" stroke="rgb(0%, 0%, 0%)" stroke-opacity="1" stroke-miterlimit="10" d="M 46.98 -38.881187 C 46.98 -34.408531 43.355 -30.779625 38.882344 -30.779625 C 34.405781 -30.779625 30.780781 -34.408531 30.780781 -38.881187 C 30.780781 -43.353844 34.405781 -46.978844 38.882344 -46.978844 C 43.355 -46.978844 46.98 -43.353844 46.98 -38.881187 Z M 46.98 -38.881187 " transform="matrix(1, 0, 0, -1, 57.02, 27.861)"/>
<path fill-rule="nonzero" fill="rgb(30.000305%, 77.487183%, 95.610046%)" fill-opacity="1" stroke-width="0.3985" stroke-linecap="butt" stroke-linejoin="miter" stroke="rgb(0%, 0%, 0%)" stroke-opacity="1" stroke-miterlimit="10" d="M 46.98 -58.318687 C 46.98 -53.846031 43.355 -50.221031 38.882344 -50.221031 C 34.405781 -50.221031 30.780781 -53.846031 30.780781 -58.318687 C 30.780781 -62.79525 34.405781 -66.42025 38.882344 -66.42025 C 43.355 -66.42025 46.98 -62.79525 46.98 -58.318687 Z M 46.98 -58.318687 " transform="matrix(1, 0, 0, -1, 57.02, 27.861)"/>
<path fill-rule="nonzero" fill="rgb(30.000305%, 77.487183%, 95.610046%)" fill-opacity="1" stroke-width="0.3985" stroke-linecap="butt" stroke-linejoin="miter" stroke="rgb(0%, 0%, 0%)" stroke-opacity="1" stroke-miterlimit="10" d="M -11.340313 -38.881187 C -11.340313 -34.408531 -14.965313 -30.779625 -19.441875 -30.779625 C -23.914531 -30.779625 -27.539531 -34.408531 -27.539531 -38.881187 C -27.539531 -43.353844 -23.914531 -46.978844 -19.441875 -46.978844 C -14.965313 -46.978844 -11.340313 -43.353844 -11.340313 -38.881187 Z M -11.340313 -38.881187 " transform="matrix(1, 0, 0, -1, 57.02, 27.861)"/>
<path fill-rule="nonzero" fill="rgb(30.000305%, 77.487183%, 95.610046%)" fill-opacity="1" stroke-width="0.3985" stroke-linecap="butt" stroke-linejoin="miter" stroke="rgb(0%, 0%, 0%)" stroke-opacity="1" stroke-miterlimit="10" d="M -11.340313 -58.318687 C -11.340313 -53.846031 -14.965313 -50.221031 -19.441875 -50.221031 C -23.914531 -50.221031 -27.539531 -53.846031 -27.539531 -58.318687 C -27.539531 -62.79525 -23.914531 -66.42025 -19.441875 -66.42025 C -14.965313 -66.42025 -11.340313 -62.79525 -11.340313 -58.318687 Z M -11.340313 -58.318687 " transform="matrix(1, 0, 0, -1, 57.02, 27.861)"/>
<path fill-rule="nonzero" fill="rgb(30.000305%, 77.487183%, 95.610046%)" fill-opacity="1" stroke-width="0.3985" stroke-linecap="butt" stroke-linejoin="miter" stroke="rgb(0%, 0%, 0%)" stroke-opacity="1" stroke-miterlimit="10" d="M -30.781719 -38.881187 C -30.781719 -34.408531 -34.406719 -30.779625 -38.879375 -30.779625 C -43.355938 -30.779625 -46.980938 -34.408531 -46.980938 -38.881187 C -46.980938 -43.353844 -43.355938 -46.978844 -38.879375 -46.978844 C -34.406719 -46.978844 -30.781719 -43.353844 -30.781719 -38.881187 Z M -30.781719 -38.881187 " transform="matrix(1, 0, 0, -1, 57.02, 27.861)"/>
<path fill-rule="nonzero" fill="rgb(30.000305%, 77.487183%, 95.610046%)" fill-opacity="1" stroke-width="0.3985" stroke-linecap="butt" stroke-linejoin="miter" stroke="rgb(0%, 0%, 0%)" stroke-opacity="1" stroke-miterlimit="10" d="M -30.781719 -58.318687 C -30.781719 -53.846031 -34.406719 -50.221031 -38.879375 -50.221031 C -43.355938 -50.221031 -46.980938 -53.846031 -46.980938 -58.318687 C -46.980938 -62.79525 -43.355938 -66.42025 -38.879375 -66.42025 C -34.406719 -66.42025 -30.781719 -62.79525 -30.781719 -58.318687 Z M -30.781719 -58.318687 " transform="matrix(1, 0, 0, -1, 57.02, 27.861)"/>
<g clip-path="url(#clip-1)">
<path fill="none" stroke-width="0.3985" stroke-linecap="butt" stroke-linejoin="miter" stroke="rgb(0%, 0%, 0%)" stroke-opacity="1" stroke-miterlimit="10" d="M -51.840313 -63.310875 L -51.840313 -33.889 C -51.840313 -29.486656 -48.273906 -25.92025 -43.871563 -25.92025 L 43.870625 -25.92025 C 48.272969 -25.92025 51.839375 -29.486656 51.839375 -33.889 L 51.839375 -63.310875 C 51.839375 -67.713219 48.272969 -71.279625 43.870625 -71.279625 L -43.871563 -71.279625 C -48.273906 -71.279625 -51.840313 -67.713219 -51.840313 -63.310875 Z M -51.840313 -63.310875 " transform="matrix(1, 0, 0, -1, 57.02, 27.861)"/>
</g>
<path fill-rule="nonzero" fill="rgb(30.000305%, 77.487183%, 95.610046%)" fill-opacity="1" stroke-width="0.3985" stroke-linecap="butt" stroke-linejoin="miter" stroke="rgb(0%, 0%, 0%)" stroke-opacity="1" stroke-miterlimit="10" d="M 8.101094 -87.48275 C 8.101094 -83.006187 4.472187 -79.381187 -0.00046875 -79.381187 C -4.473125 -79.381187 -8.098125 -83.006187 -8.098125 -87.48275 C -8.098125 -91.955406 -4.473125 -95.580406 -0.00046875 -95.580406 C 4.472187 -95.580406 8.101094 -91.955406 8.101094 -87.48275 Z M 8.101094 -87.48275 " transform="matrix(1, 0, 0, -1, 57.02, 27.861)"/>
<path fill-rule="nonzero" fill="rgb(30.000305%, 77.487183%, 95.610046%)" fill-opacity="1" stroke-width="0.3985" stroke-linecap="butt" stroke-linejoin="miter" stroke="rgb(0%, 0%, 0%)" stroke-opacity="1" stroke-miterlimit="10" d="M 8.101094 -106.92025 C 8.101094 -102.447594 4.472187 -98.818687 -0.00046875 -98.818687 C -4.473125 -98.818687 -8.098125 -102.447594 -8.098125 -106.92025 C -8.098125 -111.392906 -4.473125 -115.021812 -0.00046875 -115.021812 C 4.472187 -115.021812 8.101094 -111.392906 8.101094 -106.92025 Z M 8.101094 -106.92025 " transform="matrix(1, 0, 0, -1, 57.02, 27.861)"/>
<path fill-rule="nonzero" fill="rgb(30.000305%, 77.487183%, 95.610046%)" fill-opacity="1" stroke-width="0.3985" stroke-linecap="butt" stroke-linejoin="miter" stroke="rgb(0%, 0%, 0%)" stroke-opacity="1" stroke-miterlimit="10" d="M 27.538594 -87.48275 C 27.538594 -83.006187 23.913594 -79.381187 19.440937 -79.381187 C 14.968281 -79.381187 11.339375 -83.006187 11.339375 -87.48275 C 11.339375 -91.955406 14.968281 -95.580406 19.440937 -95.580406 C 23.913594 -95.580406 27.538594 -91.955406 27.538594 -87.48275 Z M 27.538594 -87.48275 " transform="matrix(1, 0, 0, -1, 57.02, 27.861)"/>
<path fill-rule="nonzero" fill="rgb(30.000305%, 77.487183%, 95.610046%)" fill-opacity="1" stroke-width="0.3985" stroke-linecap="butt" stroke-linejoin="miter" stroke="rgb(0%, 0%, 0%)" stroke-opacity="1" stroke-miterlimit="10" d="M 27.538594 -106.92025 C 27.538594 -102.447594 23.913594 -98.818687 19.440937 -98.818687 C 14.968281 -98.818687 11.339375 -102.447594 11.339375 -106.92025 C 11.339375 -111.392906 14.968281 -115.021812 19.440937 -115.021812 C 23.913594 -115.021812 27.538594 -111.392906 27.538594 -106.92025 Z M 27.538594 -106.92025 " transform="matrix(1, 0, 0, -1, 57.02, 27.861)"/>
<path fill-rule="nonzero" fill="rgb(30.000305%, 77.487183%, 95.610046%)" fill-opacity="1" stroke-width="0.3985" stroke-linecap="butt" stroke-linejoin="miter" stroke="rgb(0%, 0%, 0%)" stroke-opacity="1" stroke-miterlimit="10" d="M 46.98 -87.48275 C 46.98 -83.006187 43.355 -79.381187 38.882344 -79.381187 C 34.405781 -79.381187 30.780781 -83.006187 30.780781 -87.48275 C 30.780781 -91.955406 34.405781 -95.580406 38.882344 -95.580406 C 43.355 -95.580406 46.98 -91.955406 46.98 -87.48275 Z M 46.98 -87.48275 " transform="matrix(1, 0, 0, -1, 57.02, 27.861)"/>
<path fill-rule="nonzero" fill="rgb(30.000305%, 77.487183%, 95.610046%)" fill-opacity="1" stroke-width="0.3985" stroke-linecap="butt" stroke-linejoin="miter" stroke="rgb(0%, 0%, 0%)" stroke-opacity="1" stroke-miterlimit="10" d="M 46.98 -106.92025 C 46.98 -102.447594 43.355 -98.818687 38.882344 -98.818687 C 34.405781 -98.818687 30.780781 -102.447594 30.780781 -106.92025 C 30.780781 -111.392906 34.405781 -115.021812 38.882344 -115.021812 C 43.355 -115.021812 46.98 -111.392906 46.98 -106.92025 Z M 46.98 -106.92025 " transform="matrix(1, 0, 0, -1, 57.02, 27.861)"/>
<path fill-rule="nonzero" fill="rgb(30.000305%, 77.487183%, 95.610046%)" fill-opacity="1" stroke-width="0.3985" stroke-linecap="butt" stroke-linejoin="miter" stroke="rgb(0%, 0%, 0%)" stroke-opacity="1" stroke-miterlimit="10" d="M -11.340313 -87.48275 C -11.340313 -83.006187 -14.965313 -79.381187 -19.441875 -79.381187 C -23.914531 -79.381187 -27.539531 -83.006187 -27.539531 -87.48275 C -27.539531 -91.955406 -23.914531 -95.580406 -19.441875 -95.580406 C -14.965313 -95.580406 -11.340313 -91.955406 -11.340313 -87.48275 Z M -11.340313 -87.48275 " transform="matrix(1, 0, 0, -1, 57.02, 27.861)"/>
<path fill-rule="nonzero" fill="rgb(30.000305%, 77.487183%, 95.610046%)" fill-opacity="1" stroke-width="0.3985" stroke-linecap="butt" stroke-linejoin="miter" stroke="rgb(0%, 0%, 0%)" stroke-opacity="1" stroke-miterlimit="10" d="M -11.340313 -106.92025 C -11.340313 -102.447594 -14.965313 -98.818687 -19.441875 -98.818687 C -23.914531 -98.818687 -27.539531 -102.447594 -27.539531 -106.92025 C -27.539531 -111.392906 -23.914531 -115.021812 -19.441875 -115.021812 C -14.965313 -115.021812 -11.340313 -111.392906 -11.340313 -106.92025 Z M -11.340313 -106.92025 " transform="matrix(1, 0, 0, -1, 57.02, 27.861)"/>
<path fill-rule="nonzero" fill="rgb(30.000305%, 77.487183%, 95.610046%)" fill-opacity="1" stroke-width="0.3985" stroke-linecap="butt" stroke-linejoin="miter" stroke="rgb(0%, 0%, 0%)" stroke-opacity="1" stroke-miterlimit="10" d="M -30.781719 -87.48275 C -30.781719 -83.006187 -34.406719 -79.381187 -38.879375 -79.381187 C -43.355938 -79.381187 -46.980938 -83.006187 -46.980938 -87.48275 C -46.980938 -91.955406 -43.355938 -95.580406 -38.879375 -95.580406 C -34.406719 -95.580406 -30.781719 -91.955406 -30.781719 -87.48275 Z M -30.781719 -87.48275 " transform="matrix(1, 0, 0, -1, 57.02, 27.861)"/>
<path fill-rule="nonzero" fill="rgb(30.000305%, 77.487183%, 95.610046%)" fill-opacity="1" stroke-width="0.3985" stroke-linecap="butt" stroke-linejoin="miter" stroke="rgb(0%, 0%, 0%)" stroke-opacity="1" stroke-miterlimit="10" d="M -30.781719 -106.92025 C -30.781719 -102.447594 -34.406719 -98.818687 -38.879375 -98.818687 C -43.355938 -98.818687 -46.980938 -102.447594 -46.980938 -106.92025 C -46.980938 -111.392906 -43.355938 -115.021812 -38.879375 -115.021812 C -34.406719 -115.021812 -30.781719 -111.392906 -30.781719 -106.92025 Z M -30.781719 -106.92025 " transform="matrix(1, 0, 0, -1, 57.02, 27.861)"/>
<g clip-path="url(#clip-2)">
<path fill="none" stroke-width="0.3985" stroke-linecap="butt" stroke-linejoin="miter" stroke="rgb(0%, 0%, 0%)" stroke-opacity="1" stroke-miterlimit="10" d="M -51.840313 -111.912437 L -51.840313 -82.490562 C -51.840313 -78.088219 -48.273906 -74.521812 -43.871563 -74.521812 L 43.870625 -74.521812 C 48.272969 -74.521812 51.839375 -78.088219 51.839375 -82.490562 L 51.839375 -111.912437 C 51.839375 -116.310875 48.272969 -119.881187 43.870625 -119.881187 L -43.871563 -119.881187 C -48.273906 -119.881187 -51.840313 -116.310875 -51.840313 -111.912437 Z M -51.840313 -111.912437 " transform="matrix(1, 0, 0, -1, 57.02, 27.861)"/>
</g>
</svg>
