<?xml version="1.0" encoding="UTF-8"?>
<svg xmlns="http://www.w3.org/2000/svg" xmlns:xlink="http://www.w3.org/1999/xlink" width="215.688011" height="92.407499" viewBox="0 0 215.688011 92.407499">
<path fill-rule="nonzero" fill="rgb(40%, 80.784314%, 96.078431%)" fill-opacity="1" stroke-width="0.74721" stroke-linecap="butt" stroke-linejoin="round" stroke="rgb(0%, 0%, 0%)" stroke-opacity="1" stroke-miterlimit="10" d="M 25.072937 18.111833 C 25.072937 21.955583 21.95575 25.075375 18.109396 25.075375 C 14.265646 25.075375 11.14325 21.955583 11.14325 18.111833 C 11.14325 14.262875 14.265646 11.145687 18.109396 11.145687 C 21.95575 11.145687 25.072937 14.262875 25.072937 18.111833 Z M 25.072937 18.111833 " transform="matrix(1.5, 0, 0, -1.5, -1.8555, 94.261499)"/>
<path fill-rule="nonzero" fill="rgb(40%, 80.784314%, 96.078431%)" fill-opacity="1" stroke-width="0.74721" stroke-linecap="butt" stroke-linejoin="round" stroke="rgb(0%, 0%, 0%)" stroke-opacity="1" stroke-miterlimit="10" d="M 43.182312 18.111833 C 43.182312 21.955583 40.065125 25.075375 36.218771 25.075375 C 32.369812 25.075375 29.252625 21.955583 29.252625 18.111833 C 29.252625 14.262875 32.369812 11.145687 36.218771 11.145687 C 40.065125 11.145687 43.182312 14.262875 43.182312 18.111833 Z M 43.182312 18.111833 " transform="matrix(1.5, 0, 0, -1.5, -1.8555, 94.261499)"/>
<path fill="none" stroke-width="0.74721" stroke-linecap="butt" stroke-linejoin="round" stroke="rgb(0%, 0%, 0%)" stroke-opacity="1" stroke-miterlimit="10" d="M 40.770854 29.627458 L 13.557312 29.627458 C 9.708354 29.627458 6.593771 26.51027 6.593771 22.661312 L 6.593771 13.557145 C 6.593771 9.708187 9.708354 6.591 13.557312 6.591 L 40.770854 6.591 C 44.614604 6.591 47.737 9.708187 47.737 13.557145 L 47.737 22.661312 C 47.737 26.51027 44.614604 29.627458 40.770854 29.627458 Z M 40.770854 29.627458 " transform="matrix(1.5, 0, 0, -1.5, -1.8555, 94.261499)"/>
<path fill-rule="nonzero" fill="rgb(40%, 80.784314%, 96.078431%)" fill-opacity="1" stroke-width="0.74721" stroke-linecap="butt" stroke-linejoin="round" stroke="rgb(0%, 0%, 0%)" stroke-opacity="1" stroke-miterlimit="10" d="M 71.046896 18.111833 C 71.046896 21.955583 67.9245 25.075375 64.078146 25.075375 C 60.234396 25.075375 57.112 21.955583 57.112 18.111833 C 57.112 14.262875 60.234396 11.145687 64.078146 11.145687 C 67.9245 11.145687 71.046896 14.262875 71.046896 18.111833 Z M 71.046896 18.111833 " transform="matrix(1.5, 0, 0, -1.5, -1.8555, 94.261499)"/>
<path fill-rule="nonzero" fill="rgb(40%, 80.784314%, 96.078431%)" fill-opacity="1" stroke-width="0.74721" stroke-linecap="butt" stroke-linejoin="round" stroke="rgb(0%, 0%, 0%)" stroke-opacity="1" stroke-miterlimit="10" d="M 89.151062 18.111833 C 89.151062 21.955583 86.033875 25.075375 82.187521 25.075375 C 78.343771 25.075375 75.221375 21.955583 75.221375 18.111833 C 75.221375 14.262875 78.343771 11.145687 82.187521 11.145687 C 86.033875 11.145687 89.151062 14.262875 89.151062 18.111833 Z M 89.151062 18.111833 " transform="matrix(1.5, 0, 0, -1.5, -1.8555, 94.261499)"/>
<path fill="none" stroke-width="0.74721" stroke-linecap="butt" stroke-linejoin="round" stroke="rgb(0%, 0%, 0%)" stroke-opacity="1" stroke-miterlimit="10" d="M 86.739604 29.627458 L 59.526062 29.627458 C 55.677104 29.627458 52.562521 26.51027 52.562521 22.661312 L 52.562521 13.557145 C 52.562521 9.708187 55.677104 6.591 59.526062 6.591 L 86.739604 6.591 C 90.588562 6.591 93.70575 9.708187 93.70575 13.557145 L 93.70575 22.661312 C 93.70575 26.51027 90.588562 29.627458 86.739604 29.627458 Z M 86.739604 29.627458 " transform="matrix(1.5, 0, 0, -1.5, -1.8555, 94.261499)"/>
<path fill-rule="nonzero" fill="rgb(40%, 80.784314%, 96.078431%)" fill-opacity="1" stroke-width="0.74721" stroke-linecap="butt" stroke-linejoin="round" stroke="rgb(0%, 0%, 0%)" stroke-opacity="1" stroke-miterlimit="10" d="M 117.015646 18.111833 C 117.015646 21.955583 113.89325 25.075375 110.0495 25.075375 C 106.203146 25.075375 103.083354 21.955583 103.083354 18.111833 C 103.083354 14.262875 106.203146 11.145687 110.0495 11.145687 C 113.89325 11.145687 117.015646 14.262875 117.015646 18.111833 Z M 117.015646 18.111833 " transform="matrix(1.5, 0, 0, -1.5, -1.8555, 94.261499)"/>
<path fill-rule="nonzero" fill="rgb(40%, 80.784314%, 96.078431%)" fill-opacity="1" stroke-width="0.74721" stroke-linecap="butt" stroke-linejoin="round" stroke="rgb(0%, 0%, 0%)" stroke-opacity="1" stroke-miterlimit="10" d="M 135.125021 18.111833 C 135.125021 21.955583 132.002625 25.075375 128.158875 25.075375 C 124.312521 25.075375 121.192729 21.955583 121.192729 18.111833 C 121.192729 14.262875 124.312521 11.145687 128.158875 11.145687 C 132.002625 11.145687 135.125021 14.262875 135.125021 18.111833 Z M 135.125021 18.111833 " transform="matrix(1.5, 0, 0, -1.5, -1.8555, 94.261499)"/>
<path fill="none" stroke-width="0.74721" stroke-linecap="butt" stroke-linejoin="round" stroke="rgb(0%, 0%, 0%)" stroke-opacity="1" stroke-miterlimit="10" d="M 132.708354 29.627458 L 105.494812 29.627458 C 101.645854 29.627458 98.531271 26.51027 98.531271 22.661312 L 98.531271 13.557145 C 98.531271 9.708187 101.645854 6.591 105.494812 6.591 L 132.708354 6.591 C 136.557312 6.591 139.6745 9.708187 139.6745 13.557145 L 139.6745 22.661312 C 139.6745 26.51027 136.557312 29.627458 132.708354 29.627458 Z M 132.708354 29.627458 " transform="matrix(1.5, 0, 0, -1.5, -1.8555, 94.261499)"/>
<path fill-rule="nonzero" fill="rgb(40%, 80.784314%, 96.078431%)" fill-opacity="1" stroke-width="0.74721" stroke-linecap="butt" stroke-linejoin="round" stroke="rgb(0%, 0%, 0%)" stroke-opacity="1" stroke-miterlimit="10" d="M 25.072937 45.971208 C 25.072937 49.817562 21.95575 52.93475 18.109396 52.93475 C 14.265646 52.93475 11.14325 49.817562 11.14325 45.971208 C 11.14325 42.12225 14.265646 39.005062 18.109396 39.005062 C 21.95575 39.005062 25.072937 42.12225 25.072937 45.971208 Z M 25.072937 45.971208 " transform="matrix(1.5, 0, 0, -1.5, -1.8555, 94.261499)"/>
<path fill-rule="nonzero" fill="rgb(40%, 80.784314%, 96.078431%)" fill-opacity="1" stroke-width="0.74721" stroke-linecap="butt" stroke-linejoin="round" stroke="rgb(0%, 0%, 0%)" stroke-opacity="1" stroke-miterlimit="10" d="M 43.182312 45.971208 C 43.182312 49.817562 40.065125 52.93475 36.218771 52.93475 C 32.369812 52.93475 29.252625 49.817562 29.252625 45.971208 C 29.252625 42.12225 32.369812 39.005062 36.218771 39.005062 C 40.065125 39.005062 43.182312 42.12225 43.182312 45.971208 Z M 43.182312 45.971208 " transform="matrix(1.5, 0, 0, -1.5, -1.8555, 94.261499)"/>
<path fill="none" stroke-width="0.74721" stroke-linecap="butt" stroke-linejoin="round" stroke="rgb(0%, 0%, 0%)" stroke-opacity="1" stroke-miterlimit="10" d="M 40.770854 57.486833 L 13.557312 57.486833 C 9.708354 57.486833 6.593771 54.369645 6.593771 50.520687 L 6.593771 41.41652 C 6.593771 37.57277 9.708354 34.450375 13.557312 34.450375 L 40.770854 34.450375 C 44.614604 34.450375 47.737 37.57277 47.737 41.41652 L 47.737 50.520687 C 47.737 54.369645 44.614604 57.486833 40.770854 57.486833 Z M 40.770854 57.486833 " transform="matrix(1.5, 0, 0, -1.5, -1.8555, 94.261499)"/>
<path fill-rule="nonzero" fill="rgb(40%, 80.784314%, 96.078431%)" fill-opacity="1" stroke-width="0.74721" stroke-linecap="butt" stroke-linejoin="round" stroke="rgb(0%, 0%, 0%)" stroke-opacity="1" stroke-miterlimit="10" d="M 71.046896 45.971208 C 71.046896 49.817562 67.9245 52.93475 64.078146 52.93475 C 60.234396 52.93475 57.112 49.817562 57.112 45.971208 C 57.112 42.12225 60.234396 39.005062 64.078146 39.005062 C 67.9245 39.005062 71.046896 42.12225 71.046896 45.971208 Z M 71.046896 45.971208 " transform="matrix(1.5, 0, 0, -1.5, -1.8555, 94.261499)"/>
<path fill-rule="nonzero" fill="rgb(40%, 80.784314%, 96.078431%)" fill-opacity="1" stroke-width="0.74721" stroke-linecap="butt" stroke-linejoin="round" stroke="rgb(0%, 0%, 0%)" stroke-opacity="1" stroke-miterlimit="10" d="M 89.151062 45.971208 C 89.151062 49.817562 86.033875 52.93475 82.187521 52.93475 C 78.343771 52.93475 75.221375 49.817562 75.221375 45.971208 C 75.221375 42.12225 78.343771 39.005062 82.187521 39.005062 C 86.033875 39.005062 89.151062 42.12225 89.151062 45.971208 Z M 89.151062 45.971208 " transform="matrix(1.5, 0, 0, -1.5, -1.8555, 94.261499)"/>
<path fill="none" stroke-width="0.74721" stroke-linecap="butt" stroke-linejoin="round" stroke="rgb(0%, 0%, 0%)" stroke-opacity="1" stroke-miterlimit="10" d="M 86.739604 57.486833 L 59.526062 57.486833 C 55.677104 57.486833 52.562521 54.369645 52.562521 50.520687 L 52.562521 41.41652 C 52.562521 37.57277 55.677104 34.450375 59.526062 34.450375 L 86.739604 34.450375 C 90.588562 34.450375 93.70575 37.57277 93.70575 41.41652 L 93.70575 50.520687 C 93.70575 54.369645 90.588562 57.486833 86.739604 57.486833 Z M 86.739604 57.486833 " transform="matrix(1.5, 0, 0, -1.5, -1.8555, 94.261499)"/>
<path fill-rule="nonzero" fill="rgb(40%, 80.784314%, 96.078431%)" fill-opacity="1" stroke-width="0.74721" stroke-linecap="butt" stroke-linejoin="round" stroke="rgb(0%, 0%, 0%)" stroke-opacity="1" stroke-miterlimit="10" d="M 117.015646 45.971208 C 117.015646 49.817562 113.89325 52.93475 110.0495 52.93475 C 106.203146 52.93475 103.083354 49.817562 103.083354 45.971208 C 103.083354 42.12225 106.203146 39.005062 110.0495 39.005062 C 113.89325 39.005062 117.015646 42.12225 117.015646 45.971208 Z M 117.015646 45.971208 " transform="matrix(1.5, 0, 0, -1.5, -1.8555, 94.261499)"/>
<path fill-rule="nonzero" fill="rgb(40%, 80.784314%, 96.078431%)" fill-opacity="1" stroke-width="0.74721" stroke-linecap="butt" stroke-linejoin="round" stroke="rgb(0%, 0%, 0%)" stroke-opacity="1" stroke-miterlimit="10" d="M 135.125021 45.971208 C 135.125021 49.817562 132.002625 52.93475 128.158875 52.93475 C 124.312521 52.93475 121.192729 49.817562 121.192729 45.971208 C 121.192729 42.12225 124.312521 39.005062 128.158875 39.005062 C 132.002625 39.005062 135.125021 42.12225 135.125021 45.971208 Z M 135.125021 45.971208 " transform="matrix(1.5, 0, 0, -1.5, -1.8555, 94.261499)"/>
<path fill="none" stroke-width="0.74721" stroke-linecap="butt" stroke-linejoin="round" stroke="rgb(0%, 0%, 0%)" stroke-opacity="1" stroke-miterlimit="10" d="M 132.708354 57.486833 L 105.494812 57.486833 C 101.645854 57.486833 98.531271 54.369645 98.531271 50.520687 L 98.531271 41.41652 C 98.531271 37.57277 101.645854 34.450375 105.494812 34.450375 L 132.708354 34.450375 C 136.557312 34.450375 139.6745 37.57277 139.6745 41.41652 L 139.6745 50.520687 C 139.6745 54.369645 136.557312 57.486833 132.708354 57.486833 Z M 132.708354 57.486833 " transform="matrix(1.5, 0, 0, -1.5, -1.8555, 94.261499)"/>
</svg>
