<?xml version="1.0" encoding="UTF-8"?>
<svg xmlns="http://www.w3.org/2000/svg" xmlns:xlink="http://www.w3.org/1999/xlink" width="246.538246" height="85.939003" viewBox="0 0 246.538246 85.939003">
<path fill-rule="nonzero" fill="rgb(40%, 80.784314%, 96.078431%)" fill-opacity="1" stroke-width="0.74721" stroke-linecap="butt" stroke-linejoin="round" stroke="rgb(0%, 0%, 0%)" stroke-opacity="1" stroke-miterlimit="10" d="M 27.079875 19.55841 C 27.079875 23.712427 23.713804 27.078499 19.557554 27.078499 C 15.403536 27.078499 12.037464 23.712427 12.037464 19.55841 C 12.037464 15.40216 15.403536 12.036088 19.557554 12.036088 C 23.713804 12.036088 27.079875 15.40216 27.079875 19.55841 Z M 27.079875 19.55841 " transform="matrix(1.75, 0, 0, -1.75, -8.37025, 94.309248)"/>
<path fill-rule="nonzero" fill="rgb(40%, 80.784314%, 96.078431%)" fill-opacity="1" stroke-width="0.74721" stroke-linecap="butt" stroke-linejoin="round" stroke="rgb(0%, 0%, 0%)" stroke-opacity="1" stroke-miterlimit="10" d="M 27.079875 39.118677 C 27.079875 43.270463 23.713804 46.636535 19.557554 46.636535 C 15.403536 46.636535 12.037464 43.270463 12.037464 39.118677 C 12.037464 34.962427 15.403536 31.594124 19.557554 31.594124 C 23.713804 31.594124 27.079875 34.962427 27.079875 39.118677 Z M 27.079875 39.118677 " transform="matrix(1.75, 0, 0, -1.75, -8.37025, 94.309248)"/>
<path fill-rule="nonzero" fill="rgb(40%, 80.784314%, 96.078431%)" fill-opacity="1" stroke-width="0.74721" stroke-linecap="butt" stroke-linejoin="round" stroke="rgb(0%, 0%, 0%)" stroke-opacity="1" stroke-miterlimit="10" d="M 46.637911 19.55841 C 46.637911 23.712427 43.271839 27.078499 39.115589 27.078499 C 34.963804 27.078499 31.5955 23.712427 31.5955 19.55841 C 31.5955 15.40216 34.963804 12.036088 39.115589 12.036088 C 43.271839 12.036088 46.637911 15.40216 46.637911 19.55841 Z M 46.637911 19.55841 " transform="matrix(1.75, 0, 0, -1.75, -8.37025, 94.309248)"/>
<path fill-rule="nonzero" fill="rgb(40%, 80.784314%, 96.078431%)" fill-opacity="1" stroke-width="0.74721" stroke-linecap="butt" stroke-linejoin="round" stroke="rgb(0%, 0%, 0%)" stroke-opacity="1" stroke-miterlimit="10" d="M 46.637911 39.118677 C 46.637911 43.270463 43.271839 46.636535 39.115589 46.636535 C 34.963804 46.636535 31.5955 43.270463 31.5955 39.118677 C 31.5955 34.962427 34.963804 31.594124 39.115589 31.594124 C 43.271839 31.594124 46.637911 34.962427 46.637911 39.118677 Z M 46.637911 39.118677 " transform="matrix(1.75, 0, 0, -1.75, -8.37025, 94.309248)"/>
<path fill-rule="nonzero" fill="rgb(40%, 80.784314%, 96.078431%)" fill-opacity="1" stroke-width="0.74721" stroke-linecap="butt" stroke-linejoin="round" stroke="rgb(0%, 0%, 0%)" stroke-opacity="1" stroke-miterlimit="10" d="M 66.198179 19.55841 C 66.198179 23.712427 62.829875 27.078499 58.673625 27.078499 C 54.521839 27.078499 51.151304 23.712427 51.151304 19.55841 C 51.151304 15.40216 54.521839 12.036088 58.673625 12.036088 C 62.829875 12.036088 66.198179 15.40216 66.198179 19.55841 Z M 66.198179 19.55841 " transform="matrix(1.75, 0, 0, -1.75, -8.37025, 94.309248)"/>
<path fill-rule="nonzero" fill="rgb(40%, 80.784314%, 96.078431%)" fill-opacity="1" stroke-width="0.74721" stroke-linecap="butt" stroke-linejoin="round" stroke="rgb(0%, 0%, 0%)" stroke-opacity="1" stroke-miterlimit="10" d="M 66.198179 39.118677 C 66.198179 43.270463 62.829875 46.636535 58.673625 46.636535 C 54.521839 46.636535 51.151304 43.270463 51.151304 39.118677 C 51.151304 34.962427 54.521839 31.594124 58.673625 31.594124 C 62.829875 31.594124 66.198179 34.962427 66.198179 39.118677 Z M 66.198179 39.118677 " transform="matrix(1.75, 0, 0, -1.75, -8.37025, 94.309248)"/>
<path fill="none" stroke-width="0.74721" stroke-linecap="butt" stroke-linejoin="round" stroke="rgb(0%, 0%, 0%)" stroke-opacity="1" stroke-miterlimit="10" d="M 63.559786 51.524927 L 14.669161 51.524927 C 10.517375 51.524927 7.151304 48.156624 7.151304 44.004838 L 7.151304 14.672249 C 7.151304 10.515999 10.517375 7.149927 14.669161 7.149927 L 63.559786 7.149927 C 67.716036 7.149927 71.084339 10.515999 71.084339 14.672249 L 71.084339 44.004838 C 71.084339 48.156624 67.716036 51.524927 63.559786 51.524927 Z M 63.559786 51.524927 " transform="matrix(1.75, 0, 0, -1.75, -8.37025, 94.309248)"/>
<path fill-rule="nonzero" fill="rgb(40%, 80.784314%, 96.078431%)" fill-opacity="1" stroke-width="0.74721" stroke-linecap="butt" stroke-linejoin="round" stroke="rgb(0%, 0%, 0%)" stroke-opacity="1" stroke-miterlimit="10" d="M 99.294161 19.55841 C 99.294161 23.712427 95.928089 27.078499 91.771839 27.078499 C 87.620054 27.078499 84.25175 23.712427 84.25175 19.55841 C 84.25175 15.40216 87.620054 12.036088 91.771839 12.036088 C 95.928089 12.036088 99.294161 15.40216 99.294161 19.55841 Z M 99.294161 19.55841 " transform="matrix(1.75, 0, 0, -1.75, -8.37025, 94.309248)"/>
<path fill-rule="nonzero" fill="rgb(40%, 80.784314%, 96.078431%)" fill-opacity="1" stroke-width="0.74721" stroke-linecap="butt" stroke-linejoin="round" stroke="rgb(0%, 0%, 0%)" stroke-opacity="1" stroke-miterlimit="10" d="M 99.294161 39.118677 C 99.294161 43.270463 95.928089 46.636535 91.771839 46.636535 C 87.620054 46.636535 84.25175 43.270463 84.25175 39.118677 C 84.25175 34.962427 87.620054 31.594124 91.771839 31.594124 C 95.928089 31.594124 99.294161 34.962427 99.294161 39.118677 Z M 99.294161 39.118677 " transform="matrix(1.75, 0, 0, -1.75, -8.37025, 94.309248)"/>
<path fill-rule="nonzero" fill="rgb(40%, 80.784314%, 96.078431%)" fill-opacity="1" stroke-width="0.74721" stroke-linecap="butt" stroke-linejoin="round" stroke="rgb(0%, 0%, 0%)" stroke-opacity="1" stroke-miterlimit="10" d="M 118.854429 19.55841 C 118.854429 23.712427 115.486125 27.078499 111.329875 27.078499 C 107.178089 27.078499 103.807554 23.712427 103.807554 19.55841 C 103.807554 15.40216 107.178089 12.036088 111.329875 12.036088 C 115.486125 12.036088 118.854429 15.40216 118.854429 19.55841 Z M 118.854429 19.55841 " transform="matrix(1.75, 0, 0, -1.75, -8.37025, 94.309248)"/>
<path fill-rule="nonzero" fill="rgb(40%, 80.784314%, 96.078431%)" fill-opacity="1" stroke-width="0.74721" stroke-linecap="butt" stroke-linejoin="round" stroke="rgb(0%, 0%, 0%)" stroke-opacity="1" stroke-miterlimit="10" d="M 118.854429 39.118677 C 118.854429 43.270463 115.486125 46.636535 111.329875 46.636535 C 107.178089 46.636535 103.807554 43.270463 103.807554 39.118677 C 103.807554 34.962427 107.178089 31.594124 111.329875 31.594124 C 115.486125 31.594124 118.854429 34.962427 118.854429 39.118677 Z M 118.854429 39.118677 " transform="matrix(1.75, 0, 0, -1.75, -8.37025, 94.309248)"/>
<path fill-rule="nonzero" fill="rgb(40%, 80.784314%, 96.078431%)" fill-opacity="1" stroke-width="0.74721" stroke-linecap="butt" stroke-linejoin="round" stroke="rgb(0%, 0%, 0%)" stroke-opacity="1" stroke-miterlimit="10" d="M 138.412464 19.55841 C 138.412464 23.712427 135.039696 27.078499 130.887911 27.078499 C 126.731661 27.078499 123.365589 23.712427 123.365589 19.55841 C 123.365589 15.40216 126.731661 12.036088 130.887911 12.036088 C 135.039696 12.036088 138.412464 15.40216 138.412464 19.55841 Z M 138.412464 19.55841 " transform="matrix(1.75, 0, 0, -1.75, -8.37025, 94.309248)"/>
<path fill-rule="nonzero" fill="rgb(40%, 80.784314%, 96.078431%)" fill-opacity="1" stroke-width="0.74721" stroke-linecap="butt" stroke-linejoin="round" stroke="rgb(0%, 0%, 0%)" stroke-opacity="1" stroke-miterlimit="10" d="M 138.412464 39.118677 C 138.412464 43.270463 135.039696 46.636535 130.887911 46.636535 C 126.731661 46.636535 123.365589 43.270463 123.365589 39.118677 C 123.365589 34.962427 126.731661 31.594124 130.887911 31.594124 C 135.039696 31.594124 138.412464 34.962427 138.412464 39.118677 Z M 138.412464 39.118677 " transform="matrix(1.75, 0, 0, -1.75, -8.37025, 94.309248)"/>
<path fill="none" stroke-width="0.74721" stroke-linecap="butt" stroke-linejoin="round" stroke="rgb(0%, 0%, 0%)" stroke-opacity="1" stroke-miterlimit="10" d="M 135.774071 51.524927 L 86.885679 51.524927 C 82.731661 51.524927 79.361125 48.156624 79.361125 44.004838 L 79.361125 14.672249 C 79.361125 10.515999 82.731661 7.149927 86.885679 7.149927 L 135.774071 7.149927 C 139.930321 7.149927 143.298625 10.515999 143.298625 14.672249 L 143.298625 44.004838 C 143.298625 48.156624 139.930321 51.524927 135.774071 51.524927 Z M 135.774071 51.524927 " transform="matrix(1.75, 0, 0, -1.75, -8.37025, 94.309248)"/>
</svg>
