<?xml version="1.0" encoding="UTF-8"?>
<svg xmlns="http://www.w3.org/2000/svg" xmlns:xlink="http://www.w3.org/1999/xlink" width="168.429" height="83.389" viewBox="0 0 168.429 83.389">
<path fill-rule="nonzero" fill="rgb(40.000916%, 80.703735%, 96.237183%)" fill-opacity="1" stroke-width="0.99628" stroke-linecap="butt" stroke-linejoin="round" stroke="rgb(0%, 0%, 0%)" stroke-opacity="1" stroke-miterlimit="10" d="M 30.616844 22.110312 C 30.616844 26.805625 26.80825 30.614219 22.109031 30.614219 C 17.413719 30.614219 13.605125 26.805625 13.605125 22.110312 C 13.605125 17.415 17.413719 13.606406 22.109031 13.606406 C 26.80825 13.606406 30.616844 17.415 30.616844 22.110312 Z M 30.616844 22.110312 " transform="matrix(1, 0, 0, -1, -2.527, 85.915)"/>
<path fill-rule="nonzero" fill="rgb(40.000916%, 80.703735%, 96.237183%)" fill-opacity="1" stroke-width="0.99628" stroke-linecap="butt" stroke-linejoin="round" stroke="rgb(0%, 0%, 0%)" stroke-opacity="1" stroke-miterlimit="10" d="M 52.726219 44.219687 C 52.726219 48.918906 48.917625 52.7275 44.222313 52.7275 C 39.523094 52.7275 35.718406 48.918906 35.718406 44.219687 C 35.718406 39.524375 39.523094 35.715781 44.222313 35.715781 C 48.917625 35.715781 52.726219 39.524375 52.726219 44.219687 Z M 52.726219 44.219687 " transform="matrix(1, 0, 0, -1, -2.527, 85.915)"/>
<path fill-rule="nonzero" fill="rgb(40.000916%, 80.703735%, 96.237183%)" fill-opacity="1" stroke-width="0.99628" stroke-linecap="butt" stroke-linejoin="round" stroke="rgb(0%, 0%, 0%)" stroke-opacity="1" stroke-miterlimit="10" d="M 74.835594 66.332969 C 74.835594 71.028281 71.030906 74.836875 66.331688 74.836875 C 61.636375 74.836875 57.827781 71.028281 57.827781 66.332969 C 57.827781 61.63375 61.636375 57.829062 66.331688 57.829062 C 71.030906 57.829062 74.835594 61.63375 74.835594 66.332969 Z M 74.835594 66.332969 " transform="matrix(1, 0, 0, -1, -2.527, 85.915)"/>
<path fill="none" stroke-width="0.99628" stroke-linecap="butt" stroke-linejoin="round" stroke="rgb(0%, 0%, 0%)" stroke-opacity="1" stroke-miterlimit="10" d="M 71.93325 80.438437 L 16.511375 80.438437 C 11.812156 80.438437 8.007469 76.629844 8.007469 71.934531 L 8.007469 16.50875 C 8.007469 11.813437 11.812156 8.004844 16.511375 8.004844 L 71.93325 8.004844 C 76.628563 8.004844 80.437156 11.813437 80.437156 16.50875 L 80.437156 71.934531 C 80.437156 76.629844 76.628563 80.438437 71.93325 80.438437 Z M 71.93325 80.438437 " transform="matrix(1, 0, 0, -1, -2.527, 85.915)"/>
<path fill-rule="nonzero" fill="rgb(40.000916%, 80.703735%, 96.237183%)" fill-opacity="1" stroke-width="0.99628" stroke-linecap="butt" stroke-linejoin="round" stroke="rgb(0%, 0%, 0%)" stroke-opacity="1" stroke-miterlimit="10" d="M 115.655906 22.110312 C 115.655906 26.805625 111.847313 30.614219 107.152 30.614219 C 102.456688 30.614219 98.648094 26.805625 98.648094 22.110312 C 98.648094 17.415 102.456688 13.606406 107.152 13.606406 C 111.847313 13.606406 115.655906 17.415 115.655906 22.110312 Z M 115.655906 22.110312 " transform="matrix(1, 0, 0, -1, -2.527, 85.915)"/>
<path fill-rule="nonzero" fill="rgb(40.000916%, 80.703735%, 96.237183%)" fill-opacity="1" stroke-width="0.99628" stroke-linecap="butt" stroke-linejoin="round" stroke="rgb(0%, 0%, 0%)" stroke-opacity="1" stroke-miterlimit="10" d="M 137.765281 44.219687 C 137.765281 48.918906 133.960594 52.7275 129.261375 52.7275 C 124.566063 52.7275 120.757469 48.918906 120.757469 44.219687 C 120.757469 39.524375 124.566063 35.715781 129.261375 35.715781 C 133.960594 35.715781 137.765281 39.524375 137.765281 44.219687 Z M 137.765281 44.219687 " transform="matrix(1, 0, 0, -1, -2.527, 85.915)"/>
<path fill-rule="nonzero" fill="rgb(40.000916%, 80.703735%, 96.237183%)" fill-opacity="1" stroke-width="0.99628" stroke-linecap="butt" stroke-linejoin="round" stroke="rgb(0%, 0%, 0%)" stroke-opacity="1" stroke-miterlimit="10" d="M 159.878562 66.332969 C 159.878562 71.028281 156.069969 74.836875 151.374656 74.836875 C 146.675437 74.836875 142.87075 71.028281 142.87075 66.332969 C 142.87075 61.63375 146.675437 57.829062 151.374656 57.829062 C 156.069969 57.829062 159.878562 61.63375 159.878562 66.332969 Z M 159.878562 66.332969 " transform="matrix(1, 0, 0, -1, -2.527, 85.915)"/>
<path fill="none" stroke-width="0.99628" stroke-linecap="butt" stroke-linejoin="round" stroke="rgb(0%, 0%, 0%)" stroke-opacity="1" stroke-miterlimit="10" d="M 156.976219 80.438437 L 101.550438 80.438437 C 96.855125 80.438437 93.046531 76.629844 93.046531 71.934531 L 93.046531 16.50875 C 93.046531 11.813437 96.855125 8.004844 101.550438 8.004844 L 156.976219 8.004844 C 161.671531 8.004844 165.480125 11.813437 165.480125 16.50875 L 165.480125 71.934531 C 165.480125 76.629844 161.671531 80.438437 156.976219 80.438437 Z M 156.976219 80.438437 " transform="matrix(1, 0, 0, -1, -2.527, 85.915)"/>
</svg>
