<?xml version="1.0" encoding="UTF-8"?>
<svg xmlns="http://www.w3.org/2000/svg" xmlns:xlink="http://www.w3.org/1999/xlink" width="170.254498" height="66.507002" viewBox="0 0 170.254498 66.507002">
<path fill-rule="nonzero" fill="rgb(40%, 80.784314%, 96.078431%)" fill-opacity="1" stroke-width="0.74721" stroke-linecap="butt" stroke-linejoin="round" stroke="rgb(0%, 0%, 0%)" stroke-opacity="1" stroke-miterlimit="10" d="M 20.40975 14.739937 C 20.40975 17.872749 17.870687 20.409208 14.740479 20.409208 C 11.610271 20.409208 9.068604 17.872749 9.068604 14.739937 C 9.068604 11.607124 11.610271 9.07327 14.740479 9.07327 C 17.870687 9.07327 20.40975 11.607124 20.40975 14.739937 Z M 20.40975 14.739937 " transform="matrix(1.5, 0, 0, -1.5, 0.0885, 66.418499)"/>
<path fill-rule="nonzero" fill="rgb(40%, 80.784314%, 96.078431%)" fill-opacity="1" stroke-width="0.74721" stroke-linecap="butt" stroke-linejoin="round" stroke="rgb(0%, 0%, 0%)" stroke-opacity="1" stroke-miterlimit="10" d="M 20.40975 29.482124 C 20.40975 32.612333 17.870687 35.151395 14.740479 35.151395 C 11.610271 35.151395 9.068604 32.612333 9.068604 29.482124 C 9.068604 26.349312 11.610271 23.810249 14.740479 23.810249 C 17.870687 23.810249 20.40975 26.349312 20.40975 29.482124 Z M 20.40975 29.482124 " transform="matrix(1.5, 0, 0, -1.5, 0.0885, 66.418499)"/>
<path fill-rule="nonzero" fill="rgb(40%, 80.784314%, 96.078431%)" fill-opacity="1" stroke-width="0.74721" stroke-linecap="butt" stroke-linejoin="round" stroke="rgb(0%, 0%, 0%)" stroke-opacity="1" stroke-miterlimit="10" d="M 35.146729 14.739937 C 35.146729 17.872749 32.612875 20.409208 29.480062 20.409208 C 26.34725 20.409208 23.813396 17.872749 23.813396 14.739937 C 23.813396 11.607124 26.34725 9.07327 29.480062 9.07327 C 32.612875 9.07327 35.146729 11.607124 35.146729 14.739937 Z M 35.146729 14.739937 " transform="matrix(1.5, 0, 0, -1.5, 0.0885, 66.418499)"/>
<path fill-rule="nonzero" fill="rgb(40%, 80.784314%, 96.078431%)" fill-opacity="1" stroke-width="0.74721" stroke-linecap="butt" stroke-linejoin="round" stroke="rgb(0%, 0%, 0%)" stroke-opacity="1" stroke-miterlimit="10" d="M 35.146729 29.482124 C 35.146729 32.612333 32.612875 35.151395 29.480062 35.151395 C 26.34725 35.151395 23.813396 32.612333 23.813396 29.482124 C 23.813396 26.349312 26.34725 23.810249 29.480062 23.810249 C 32.612875 23.810249 35.146729 26.349312 35.146729 29.482124 Z M 35.146729 29.482124 " transform="matrix(1.5, 0, 0, -1.5, 0.0885, 66.418499)"/>
<path fill-rule="nonzero" fill="rgb(40%, 80.784314%, 96.078431%)" fill-opacity="1" stroke-width="0.74721" stroke-linecap="butt" stroke-linejoin="round" stroke="rgb(0%, 0%, 0%)" stroke-opacity="1" stroke-miterlimit="10" d="M 49.891521 14.739937 C 49.891521 17.872749 47.349854 20.409208 44.22225 20.409208 C 41.089437 20.409208 38.550375 17.872749 38.550375 14.739937 C 38.550375 11.607124 41.089437 9.07327 44.22225 9.07327 C 47.349854 9.07327 49.891521 11.607124 49.891521 14.739937 Z M 49.891521 14.739937 " transform="matrix(1.5, 0, 0, -1.5, 0.0885, 66.418499)"/>
<path fill-rule="nonzero" fill="rgb(40%, 80.784314%, 96.078431%)" fill-opacity="1" stroke-width="0.74721" stroke-linecap="butt" stroke-linejoin="round" stroke="rgb(0%, 0%, 0%)" stroke-opacity="1" stroke-miterlimit="10" d="M 49.891521 29.482124 C 49.891521 32.612333 47.349854 35.151395 44.22225 35.151395 C 41.089437 35.151395 38.550375 32.612333 38.550375 29.482124 C 38.550375 26.349312 41.089437 23.810249 44.22225 23.810249 C 47.349854 23.810249 49.891521 26.349312 49.891521 29.482124 Z M 49.891521 29.482124 " transform="matrix(1.5, 0, 0, -1.5, 0.0885, 66.418499)"/>
<path fill="none" stroke-width="0.74721" stroke-linecap="butt" stroke-linejoin="round" stroke="rgb(0%, 0%, 0%)" stroke-opacity="1" stroke-miterlimit="10" d="M 47.995687 38.924833 L 10.964437 38.924833 C 7.834229 38.924833 5.297771 36.388374 5.297771 33.255562 L 5.297771 10.966499 C 5.297771 7.833687 7.834229 5.294624 10.964437 5.294624 L 47.995687 5.294624 C 51.1285 5.294624 53.662354 7.833687 53.662354 10.966499 L 53.662354 33.255562 C 53.662354 36.388374 51.1285 38.924833 47.995687 38.924833 Z M 47.995687 38.924833 " transform="matrix(1.5, 0, 0, -1.5, 0.0885, 66.418499)"/>
<path fill-rule="nonzero" fill="rgb(40%, 80.784314%, 96.078431%)" fill-opacity="1" stroke-width="0.74721" stroke-linecap="butt" stroke-linejoin="round" stroke="rgb(0%, 0%, 0%)" stroke-opacity="1" stroke-miterlimit="10" d="M 74.834229 14.739937 C 74.834229 17.872749 72.297771 20.409208 69.162354 20.409208 C 66.03475 20.409208 63.495687 17.872749 63.495687 14.739937 C 63.495687 11.607124 66.03475 9.07327 69.162354 9.07327 C 72.297771 9.07327 74.834229 11.607124 74.834229 14.739937 Z M 74.834229 14.739937 " transform="matrix(1.5, 0, 0, -1.5, 0.0885, 66.418499)"/>
<path fill-rule="nonzero" fill="rgb(40%, 80.784314%, 96.078431%)" fill-opacity="1" stroke-width="0.74721" stroke-linecap="butt" stroke-linejoin="round" stroke="rgb(0%, 0%, 0%)" stroke-opacity="1" stroke-miterlimit="10" d="M 74.834229 29.482124 C 74.834229 32.612333 72.297771 35.151395 69.162354 35.151395 C 66.03475 35.151395 63.495687 32.612333 63.495687 29.482124 C 63.495687 26.349312 66.03475 23.810249 69.162354 23.810249 C 72.297771 23.810249 74.834229 26.349312 74.834229 29.482124 Z M 74.834229 29.482124 " transform="matrix(1.5, 0, 0, -1.5, 0.0885, 66.418499)"/>
<path fill-rule="nonzero" fill="rgb(40%, 80.784314%, 96.078431%)" fill-opacity="1" stroke-width="0.74721" stroke-linecap="butt" stroke-linejoin="round" stroke="rgb(0%, 0%, 0%)" stroke-opacity="1" stroke-miterlimit="10" d="M 89.573812 14.739937 C 89.573812 17.872749 87.03475 20.409208 83.907146 20.409208 C 80.771729 20.409208 78.237875 17.872749 78.237875 14.739937 C 78.237875 11.607124 80.771729 9.07327 83.907146 9.07327 C 87.03475 9.07327 89.573812 11.607124 89.573812 14.739937 Z M 89.573812 14.739937 " transform="matrix(1.5, 0, 0, -1.5, 0.0885, 66.418499)"/>
<path fill-rule="nonzero" fill="rgb(40%, 80.784314%, 96.078431%)" fill-opacity="1" stroke-width="0.74721" stroke-linecap="butt" stroke-linejoin="round" stroke="rgb(0%, 0%, 0%)" stroke-opacity="1" stroke-miterlimit="10" d="M 89.573812 29.482124 C 89.573812 32.612333 87.03475 35.151395 83.907146 35.151395 C 80.771729 35.151395 78.237875 32.612333 78.237875 29.482124 C 78.237875 26.349312 80.771729 23.810249 83.907146 23.810249 C 87.03475 23.810249 89.573812 26.349312 89.573812 29.482124 Z M 89.573812 29.482124 " transform="matrix(1.5, 0, 0, -1.5, 0.0885, 66.418499)"/>
<path fill-rule="nonzero" fill="rgb(40%, 80.784314%, 96.078431%)" fill-opacity="1" stroke-width="0.74721" stroke-linecap="butt" stroke-linejoin="round" stroke="rgb(0%, 0%, 0%)" stroke-opacity="1" stroke-miterlimit="10" d="M 104.316 14.739937 C 104.316 17.872749 101.776937 20.409208 98.644125 20.409208 C 95.516521 20.409208 92.974854 17.872749 92.974854 14.739937 C 92.974854 11.607124 95.516521 9.07327 98.644125 9.07327 C 101.776937 9.07327 104.316 11.607124 104.316 14.739937 Z M 104.316 14.739937 " transform="matrix(1.5, 0, 0, -1.5, 0.0885, 66.418499)"/>
<path fill-rule="nonzero" fill="rgb(40%, 80.784314%, 96.078431%)" fill-opacity="1" stroke-width="0.74721" stroke-linecap="butt" stroke-linejoin="round" stroke="rgb(0%, 0%, 0%)" stroke-opacity="1" stroke-miterlimit="10" d="M 104.316 29.482124 C 104.316 32.612333 101.776937 35.151395 98.644125 35.151395 C 95.516521 35.151395 92.974854 32.612333 92.974854 29.482124 C 92.974854 26.349312 95.516521 23.810249 98.644125 23.810249 C 101.776937 23.810249 104.316 26.349312 104.316 29.482124 Z M 104.316 29.482124 " transform="matrix(1.5, 0, 0, -1.5, 0.0885, 66.418499)"/>
<path fill="none" stroke-width="0.74721" stroke-linecap="butt" stroke-linejoin="round" stroke="rgb(0%, 0%, 0%)" stroke-opacity="1" stroke-miterlimit="10" d="M 102.422771 38.924833 L 65.391521 38.924833 C 62.256104 38.924833 59.72225 36.388374 59.72225 33.255562 L 59.72225 10.966499 C 59.72225 7.833687 62.256104 5.294624 65.391521 5.294624 L 102.422771 5.294624 C 105.550375 5.294624 108.089437 7.833687 108.089437 10.966499 L 108.089437 33.255562 C 108.089437 36.388374 105.550375 38.924833 102.422771 38.924833 Z M 102.422771 38.924833 " transform="matrix(1.5, 0, 0, -1.5, 0.0885, 66.418499)"/>
</svg>
