<?xml version="1.0" encoding="UTF-8"?>
<svg xmlns="http://www.w3.org/2000/svg" xmlns:xlink="http://www.w3.org/1999/xlink" width="194.622002" height="287.698494" viewBox="0 0 194.622002 287.698494">
<path fill-rule="nonzero" fill="rgb(40%, 80.784314%, 96.078431%)" fill-opacity="1" stroke-width="0.74721" stroke-linecap="butt" stroke-linejoin="round" stroke="rgb(0%, 0%, 0%)" stroke-opacity="1" stroke-miterlimit="10" d="M -10.13148 -16.46327 C -10.13148 -12.965874 -12.964813 -10.129936 -16.464813 -10.129936 C -19.959605 -10.129936 -22.792938 -12.965874 -22.792938 -16.46327 C -22.792938 -19.958061 -19.959605 -22.793999 -16.464813 -22.793999 C -12.964813 -22.793999 -10.13148 -19.958061 -10.13148 -16.46327 Z M -10.13148 -16.46327 " transform="matrix(1.5, 0, 0, -1.5, 48.873001, 48.871502)"/>
<path fill-rule="nonzero" fill="rgb(40%, 80.784314%, 96.078431%)" fill-opacity="1" stroke-width="0.74721" stroke-linecap="butt" stroke-linejoin="round" stroke="rgb(0%, 0%, 0%)" stroke-opacity="1" stroke-miterlimit="10" d="M 6.332062 -0.00233205 C 6.332062 3.497668 3.496124 6.331001 0.0013326 6.331001 C -3.496063 6.331001 -6.332001 3.497668 -6.332001 -0.00233205 C -6.332001 -3.497124 -3.496063 -6.333061 0.0013326 -6.333061 C 3.496124 -6.333061 6.332062 -3.497124 6.332062 -0.00233205 Z M 6.332062 -0.00233205 " transform="matrix(1.5, 0, 0, -1.5, 48.873001, 48.871502)"/>
<path fill-rule="nonzero" fill="rgb(40%, 80.784314%, 96.078431%)" fill-opacity="1" stroke-width="0.74721" stroke-linecap="butt" stroke-linejoin="round" stroke="rgb(0%, 0%, 0%)" stroke-opacity="1" stroke-miterlimit="10" d="M 22.792999 16.463814 C 22.792999 19.958605 19.96227 22.794543 16.46227 22.794543 C 12.964874 22.794543 10.134145 19.958605 10.134145 16.463814 C 10.134145 12.966418 12.964874 10.13048 16.46227 10.13048 C 19.96227 10.13048 22.792999 12.966418 22.792999 16.463814 Z M 22.792999 16.463814 " transform="matrix(1.5, 0, 0, -1.5, 48.873001, 48.871502)"/>
<path fill-rule="nonzero" fill="rgb(40%, 80.784314%, 96.078431%)" fill-opacity="1" stroke-width="0.74721" stroke-linecap="butt" stroke-linejoin="round" stroke="rgb(0%, 0%, 0%)" stroke-opacity="1" stroke-miterlimit="10" d="M -10.13148 16.463814 C -10.13148 19.958605 -12.964813 22.794543 -16.464813 22.794543 C -19.959605 22.794543 -22.792938 19.958605 -22.792938 16.463814 C -22.792938 12.966418 -19.959605 10.13048 -16.464813 10.13048 C -12.964813 10.13048 -10.13148 12.966418 -10.13148 16.463814 Z M -10.13148 16.463814 " transform="matrix(1.5, 0, 0, -1.5, 48.873001, 48.871502)"/>
<path fill-rule="nonzero" fill="rgb(40%, 80.784314%, 96.078431%)" fill-opacity="1" stroke-width="0.74721" stroke-linecap="butt" stroke-linejoin="round" stroke="rgb(0%, 0%, 0%)" stroke-opacity="1" stroke-miterlimit="10" d="M 22.792999 -16.46327 C 22.792999 -12.965874 19.96227 -10.129936 16.46227 -10.129936 C 12.964874 -10.129936 10.134145 -12.965874 10.134145 -16.46327 C 10.134145 -19.958061 12.964874 -22.793999 16.46227 -22.793999 C 19.96227 -22.793999 22.792999 -19.958061 22.792999 -16.46327 Z M 22.792999 -16.46327 " transform="matrix(1.5, 0, 0, -1.5, 48.873001, 48.871502)"/>
<path fill="none" stroke-width="0.74721" stroke-linecap="butt" stroke-linejoin="round" stroke="rgb(0%, 0%, 0%)" stroke-opacity="1" stroke-miterlimit="10" d="M 20.894562 27.22423 L -20.894501 27.22423 C -24.389292 27.22423 -27.22523 24.393501 -27.22523 20.893501 L -27.22523 -20.895561 C -27.22523 -24.392957 -24.389292 -27.228895 -20.894501 -27.228895 L 20.894562 -27.228895 C 24.391958 -27.228895 27.227895 -24.392957 27.227895 -20.895561 L 27.227895 20.893501 C 27.227895 24.393501 24.391958 27.22423 20.894562 27.22423 Z M 20.894562 27.22423 " transform="matrix(1.5, 0, 0, -1.5, 48.873001, 48.871502)"/>
<path fill-rule="nonzero" fill="rgb(40%, 80.784314%, 96.078431%)" fill-opacity="1" stroke-width="0.74721" stroke-linecap="butt" stroke-linejoin="round" stroke="rgb(0%, 0%, 0%)" stroke-opacity="1" stroke-miterlimit="10" d="M 54.454458 -16.46327 C 54.454458 -12.965874 51.621124 -10.129936 48.121124 -10.129936 C 44.626333 -10.129936 41.790395 -12.965874 41.790395 -16.46327 C 41.790395 -19.958061 44.626333 -22.793999 48.121124 -22.793999 C 51.621124 -22.793999 54.454458 -19.958061 54.454458 -16.46327 Z M 54.454458 -16.46327 " transform="matrix(1.5, 0, 0, -1.5, 48.873001, 48.871502)"/>
<path fill-rule="nonzero" fill="rgb(40%, 80.784314%, 96.078431%)" fill-opacity="1" stroke-width="0.74721" stroke-linecap="butt" stroke-linejoin="round" stroke="rgb(0%, 0%, 0%)" stroke-opacity="1" stroke-miterlimit="10" d="M 70.917999 -0.00233205 C 70.917999 3.497668 68.082062 6.331001 64.58727 6.331001 C 61.089874 6.331001 58.253937 3.497668 58.253937 -0.00233205 C 58.253937 -3.497124 61.089874 -6.333061 64.58727 -6.333061 C 68.082062 -6.333061 70.917999 -3.497124 70.917999 -0.00233205 Z M 70.917999 -0.00233205 " transform="matrix(1.5, 0, 0, -1.5, 48.873001, 48.871502)"/>
<path fill-rule="nonzero" fill="rgb(40%, 80.784314%, 96.078431%)" fill-opacity="1" stroke-width="0.74721" stroke-linecap="butt" stroke-linejoin="round" stroke="rgb(0%, 0%, 0%)" stroke-opacity="1" stroke-miterlimit="10" d="M 87.378937 16.463814 C 87.378937 19.958605 84.548208 22.794543 81.048208 22.794543 C 77.550812 22.794543 74.714874 19.958605 74.714874 16.463814 C 74.714874 12.966418 77.550812 10.13048 81.048208 10.13048 C 84.548208 10.13048 87.378937 12.966418 87.378937 16.463814 Z M 87.378937 16.463814 " transform="matrix(1.5, 0, 0, -1.5, 48.873001, 48.871502)"/>
<path fill-rule="nonzero" fill="rgb(40%, 80.784314%, 96.078431%)" fill-opacity="1" stroke-width="0.74721" stroke-linecap="butt" stroke-linejoin="round" stroke="rgb(0%, 0%, 0%)" stroke-opacity="1" stroke-miterlimit="10" d="M 54.454458 16.463814 C 54.454458 19.958605 51.621124 22.794543 48.121124 22.794543 C 44.626333 22.794543 41.790395 19.958605 41.790395 16.463814 C 41.790395 12.966418 44.626333 10.13048 48.121124 10.13048 C 51.621124 10.13048 54.454458 12.966418 54.454458 16.463814 Z M 54.454458 16.463814 " transform="matrix(1.5, 0, 0, -1.5, 48.873001, 48.871502)"/>
<path fill-rule="nonzero" fill="rgb(40%, 80.784314%, 96.078431%)" fill-opacity="1" stroke-width="0.74721" stroke-linecap="butt" stroke-linejoin="round" stroke="rgb(0%, 0%, 0%)" stroke-opacity="1" stroke-miterlimit="10" d="M 87.378937 -16.46327 C 87.378937 -12.965874 84.548208 -10.129936 81.048208 -10.129936 C 77.550812 -10.129936 74.714874 -12.965874 74.714874 -16.46327 C 74.714874 -19.958061 77.550812 -22.793999 81.048208 -22.793999 C 84.548208 -22.793999 87.378937 -19.958061 87.378937 -16.46327 Z M 87.378937 -16.46327 " transform="matrix(1.5, 0, 0, -1.5, 48.873001, 48.871502)"/>
<path fill="none" stroke-width="0.74721" stroke-linecap="butt" stroke-linejoin="round" stroke="rgb(0%, 0%, 0%)" stroke-opacity="1" stroke-miterlimit="10" d="M 85.480499 27.22423 L 43.691437 27.22423 C 40.191437 27.22423 37.360708 24.393501 37.360708 20.893501 L 37.360708 -20.895561 C 37.360708 -24.392957 40.191437 -27.228895 43.691437 -27.228895 L 85.480499 -27.228895 C 88.977895 -27.228895 91.813833 -24.392957 91.813833 -20.895561 L 91.813833 20.893501 C 91.813833 24.393501 88.977895 27.22423 85.480499 27.22423 Z M 85.480499 27.22423 " transform="matrix(1.5, 0, 0, -1.5, 48.873001, 48.871502)"/>
<path fill-rule="nonzero" fill="rgb(40%, 80.784314%, 96.078431%)" fill-opacity="1" stroke-width="0.74721" stroke-linecap="butt" stroke-linejoin="round" stroke="rgb(0%, 0%, 0%)" stroke-opacity="1" stroke-miterlimit="10" d="M 21.527374 -79.783582 C 21.527374 -76.286186 18.696645 -73.450249 15.196645 -73.450249 C 11.699249 -73.450249 8.863312 -76.286186 8.863312 -79.783582 C 8.863312 -83.278374 11.699249 -86.114311 15.196645 -86.114311 C 18.696645 -86.114311 21.527374 -83.278374 21.527374 -79.783582 Z M 21.527374 -79.783582 " transform="matrix(1.5, 0, 0, -1.5, 48.873001, 48.871502)"/>
<path fill-rule="nonzero" fill="rgb(40%, 80.784314%, 96.078431%)" fill-opacity="1" stroke-width="0.74721" stroke-linecap="butt" stroke-linejoin="round" stroke="rgb(0%, 0%, 0%)" stroke-opacity="1" stroke-miterlimit="10" d="M 37.99352 -63.317436 C 37.99352 -59.822645 35.157583 -56.986707 31.660187 -56.986707 C 28.165395 -56.986707 25.329458 -59.822645 25.329458 -63.317436 C 25.329458 -66.817436 28.165395 -69.65077 31.660187 -69.65077 C 35.157583 -69.65077 37.99352 -66.817436 37.99352 -63.317436 Z M 37.99352 -63.317436 " transform="matrix(1.5, 0, 0, -1.5, 48.873001, 48.871502)"/>
<path fill-rule="nonzero" fill="rgb(40%, 80.784314%, 96.078431%)" fill-opacity="1" stroke-width="0.74721" stroke-linecap="butt" stroke-linejoin="round" stroke="rgb(0%, 0%, 0%)" stroke-opacity="1" stroke-miterlimit="10" d="M 54.454458 -46.856499 C 54.454458 -43.361707 51.621124 -40.52577 48.121124 -40.52577 C 44.626333 -40.52577 41.790395 -43.361707 41.790395 -46.856499 C 41.790395 -50.353895 44.626333 -53.189832 48.121124 -53.189832 C 51.621124 -53.189832 54.454458 -50.353895 54.454458 -46.856499 Z M 54.454458 -46.856499 " transform="matrix(1.5, 0, 0, -1.5, 48.873001, 48.871502)"/>
<path fill-rule="nonzero" fill="rgb(40%, 80.784314%, 96.078431%)" fill-opacity="1" stroke-width="0.74721" stroke-linecap="butt" stroke-linejoin="round" stroke="rgb(0%, 0%, 0%)" stroke-opacity="1" stroke-miterlimit="10" d="M 21.527374 -46.856499 C 21.527374 -43.361707 18.696645 -40.52577 15.196645 -40.52577 C 11.699249 -40.52577 8.863312 -43.361707 8.863312 -46.856499 C 8.863312 -50.353895 11.699249 -53.189832 15.196645 -53.189832 C 18.696645 -53.189832 21.527374 -50.353895 21.527374 -46.856499 Z M 21.527374 -46.856499 " transform="matrix(1.5, 0, 0, -1.5, 48.873001, 48.871502)"/>
<path fill-rule="nonzero" fill="rgb(40%, 80.784314%, 96.078431%)" fill-opacity="1" stroke-width="0.74721" stroke-linecap="butt" stroke-linejoin="round" stroke="rgb(0%, 0%, 0%)" stroke-opacity="1" stroke-miterlimit="10" d="M 54.454458 -79.783582 C 54.454458 -76.286186 51.621124 -73.450249 48.121124 -73.450249 C 44.626333 -73.450249 41.790395 -76.286186 41.790395 -79.783582 C 41.790395 -83.278374 44.626333 -86.114311 48.121124 -86.114311 C 51.621124 -86.114311 54.454458 -83.278374 54.454458 -79.783582 Z M 54.454458 -79.783582 " transform="matrix(1.5, 0, 0, -1.5, 48.873001, 48.871502)"/>
<path fill="none" stroke-width="0.74721" stroke-linecap="butt" stroke-linejoin="round" stroke="rgb(0%, 0%, 0%)" stroke-opacity="1" stroke-miterlimit="10" d="M 52.55602 -36.090874 L 10.766958 -36.090874 C 7.266958 -36.090874 4.433624 -38.926811 4.433624 -42.424207 L 4.433624 -84.215874 C 4.433624 -87.71327 7.266958 -90.543999 10.766958 -90.543999 L 52.55602 -90.543999 C 56.050812 -90.543999 58.886749 -87.71327 58.886749 -84.215874 L 58.886749 -42.424207 C 58.886749 -38.926811 56.050812 -36.090874 52.55602 -36.090874 Z M 52.55602 -36.090874 " transform="matrix(1.5, 0, 0, -1.5, 48.873001, 48.871502)"/>
<path fill-rule="nonzero" fill="rgb(40%, 80.784314%, 96.078431%)" fill-opacity="1" stroke-width="0.74721" stroke-linecap="butt" stroke-linejoin="round" stroke="rgb(0%, 0%, 0%)" stroke-opacity="1" stroke-miterlimit="10" d="M -10.13148 -143.098686 C -10.13148 -139.603895 -12.964813 -136.770561 -16.464813 -136.770561 C -19.959605 -136.770561 -22.792938 -139.603895 -22.792938 -143.098686 C -22.792938 -146.598686 -19.959605 -149.43202 -16.464813 -149.43202 C -12.964813 -149.43202 -10.13148 -146.598686 -10.13148 -143.098686 Z M -10.13148 -143.098686 " transform="matrix(1.5, 0, 0, -1.5, 48.873001, 48.871502)"/>
<path fill-rule="nonzero" fill="rgb(40%, 80.784314%, 96.078431%)" fill-opacity="1" stroke-width="0.74721" stroke-linecap="butt" stroke-linejoin="round" stroke="rgb(0%, 0%, 0%)" stroke-opacity="1" stroke-miterlimit="10" d="M 6.332062 -126.637749 C 6.332062 -123.142957 3.496124 -120.30702 0.0013326 -120.30702 C -3.496063 -120.30702 -6.332001 -123.142957 -6.332001 -126.637749 C -6.332001 -130.135145 -3.496063 -132.971082 0.0013326 -132.971082 C 3.496124 -132.971082 6.332062 -130.135145 6.332062 -126.637749 Z M 6.332062 -126.637749 " transform="matrix(1.5, 0, 0, -1.5, 48.873001, 48.871502)"/>
<path fill-rule="nonzero" fill="rgb(40%, 80.784314%, 96.078431%)" fill-opacity="1" stroke-width="0.74721" stroke-linecap="butt" stroke-linejoin="round" stroke="rgb(0%, 0%, 0%)" stroke-opacity="1" stroke-miterlimit="10" d="M 22.792999 -110.174207 C 22.792999 -106.676811 19.96227 -103.846082 16.46227 -103.846082 C 12.964874 -103.846082 10.134145 -106.676811 10.134145 -110.174207 C 10.134145 -113.674207 12.964874 -116.504936 16.46227 -116.504936 C 19.96227 -116.504936 22.792999 -113.674207 22.792999 -110.174207 Z M 22.792999 -110.174207 " transform="matrix(1.5, 0, 0, -1.5, 48.873001, 48.871502)"/>
<path fill-rule="nonzero" fill="rgb(40%, 80.784314%, 96.078431%)" fill-opacity="1" stroke-width="0.74721" stroke-linecap="butt" stroke-linejoin="round" stroke="rgb(0%, 0%, 0%)" stroke-opacity="1" stroke-miterlimit="10" d="M -10.13148 -110.174207 C -10.13148 -106.676811 -12.964813 -103.846082 -16.464813 -103.846082 C -19.959605 -103.846082 -22.792938 -106.676811 -22.792938 -110.174207 C -22.792938 -113.674207 -19.959605 -116.504936 -16.464813 -116.504936 C -12.964813 -116.504936 -10.13148 -113.674207 -10.13148 -110.174207 Z M -10.13148 -110.174207 " transform="matrix(1.5, 0, 0, -1.5, 48.873001, 48.871502)"/>
<path fill-rule="nonzero" fill="rgb(40%, 80.784314%, 96.078431%)" fill-opacity="1" stroke-width="0.74721" stroke-linecap="butt" stroke-linejoin="round" stroke="rgb(0%, 0%, 0%)" stroke-opacity="1" stroke-miterlimit="10" d="M 22.792999 -143.098686 C 22.792999 -139.603895 19.96227 -136.770561 16.46227 -136.770561 C 12.964874 -136.770561 10.134145 -139.603895 10.134145 -143.098686 C 10.134145 -146.598686 12.964874 -149.43202 16.46227 -149.43202 C 19.96227 -149.43202 22.792999 -146.598686 22.792999 -143.098686 Z M 22.792999 -143.098686 " transform="matrix(1.5, 0, 0, -1.5, 48.873001, 48.871502)"/>
<path fill="none" stroke-width="0.74721" stroke-linecap="butt" stroke-linejoin="round" stroke="rgb(0%, 0%, 0%)" stroke-opacity="1" stroke-miterlimit="10" d="M 20.894562 -99.411186 L -20.894501 -99.411186 C -24.389292 -99.411186 -27.22523 -102.247124 -27.22523 -105.74452 L -27.22523 -147.533582 C -27.22523 -151.028374 -24.389292 -153.864311 -20.894501 -153.864311 L 20.894562 -153.864311 C 24.391958 -153.864311 27.227895 -151.028374 27.227895 -147.533582 L 27.227895 -105.74452 C 27.227895 -102.247124 24.391958 -99.411186 20.894562 -99.411186 Z M 20.894562 -99.411186 " transform="matrix(1.5, 0, 0, -1.5, 48.873001, 48.871502)"/>
<path fill-rule="nonzero" fill="rgb(40%, 80.784314%, 96.078431%)" fill-opacity="1" stroke-width="0.74721" stroke-linecap="butt" stroke-linejoin="round" stroke="rgb(0%, 0%, 0%)" stroke-opacity="1" stroke-miterlimit="10" d="M 54.454458 -143.098686 C 54.454458 -139.603895 51.621124 -136.770561 48.121124 -136.770561 C 44.626333 -136.770561 41.790395 -139.603895 41.790395 -143.098686 C 41.790395 -146.598686 44.626333 -149.43202 48.121124 -149.43202 C 51.621124 -149.43202 54.454458 -146.598686 54.454458 -143.098686 Z M 54.454458 -143.098686 " transform="matrix(1.5, 0, 0, -1.5, 48.873001, 48.871502)"/>
<path fill-rule="nonzero" fill="rgb(40%, 80.784314%, 96.078431%)" fill-opacity="1" stroke-width="0.74721" stroke-linecap="butt" stroke-linejoin="round" stroke="rgb(0%, 0%, 0%)" stroke-opacity="1" stroke-miterlimit="10" d="M 70.917999 -126.637749 C 70.917999 -123.142957 68.082062 -120.30702 64.58727 -120.30702 C 61.089874 -120.30702 58.253937 -123.142957 58.253937 -126.637749 C 58.253937 -130.135145 61.089874 -132.971082 64.58727 -132.971082 C 68.082062 -132.971082 70.917999 -130.135145 70.917999 -126.637749 Z M 70.917999 -126.637749 " transform="matrix(1.5, 0, 0, -1.5, 48.873001, 48.871502)"/>
<path fill-rule="nonzero" fill="rgb(40%, 80.784314%, 96.078431%)" fill-opacity="1" stroke-width="0.74721" stroke-linecap="butt" stroke-linejoin="round" stroke="rgb(0%, 0%, 0%)" stroke-opacity="1" stroke-miterlimit="10" d="M 87.378937 -110.174207 C 87.378937 -106.676811 84.548208 -103.846082 81.048208 -103.846082 C 77.550812 -103.846082 74.714874 -106.676811 74.714874 -110.174207 C 74.714874 -113.674207 77.550812 -116.504936 81.048208 -116.504936 C 84.548208 -116.504936 87.378937 -113.674207 87.378937 -110.174207 Z M 87.378937 -110.174207 " transform="matrix(1.5, 0, 0, -1.5, 48.873001, 48.871502)"/>
<path fill-rule="nonzero" fill="rgb(40%, 80.784314%, 96.078431%)" fill-opacity="1" stroke-width="0.74721" stroke-linecap="butt" stroke-linejoin="round" stroke="rgb(0%, 0%, 0%)" stroke-opacity="1" stroke-miterlimit="10" d="M 54.454458 -110.174207 C 54.454458 -106.676811 51.621124 -103.846082 48.121124 -103.846082 C 44.626333 -103.846082 41.790395 -106.676811 41.790395 -110.174207 C 41.790395 -113.674207 44.626333 -116.504936 48.121124 -116.504936 C 51.621124 -116.504936 54.454458 -113.674207 54.454458 -110.174207 Z M 54.454458 -110.174207 " transform="matrix(1.5, 0, 0, -1.5, 48.873001, 48.871502)"/>
<path fill-rule="nonzero" fill="rgb(40%, 80.784314%, 96.078431%)" fill-opacity="1" stroke-width="0.74721" stroke-linecap="butt" stroke-linejoin="round" stroke="rgb(0%, 0%, 0%)" stroke-opacity="1" stroke-miterlimit="10" d="M 87.378937 -143.098686 C 87.378937 -139.603895 84.548208 -136.770561 81.048208 -136.770561 C 77.550812 -136.770561 74.714874 -139.603895 74.714874 -143.098686 C 74.714874 -146.598686 77.550812 -149.43202 81.048208 -149.43202 C 84.548208 -149.43202 87.378937 -146.598686 87.378937 -143.098686 Z M 87.378937 -143.098686 " transform="matrix(1.5, 0, 0, -1.5, 48.873001, 48.871502)"/>
<path fill="none" stroke-width="0.74721" stroke-linecap="butt" stroke-linejoin="round" stroke="rgb(0%, 0%, 0%)" stroke-opacity="1" stroke-miterlimit="10" d="M 85.480499 -99.411186 L 43.691437 -99.411186 C 40.191437 -99.411186 37.360708 -102.247124 37.360708 -105.74452 L 37.360708 -147.533582 C 37.360708 -151.028374 40.191437 -153.864311 43.691437 -153.864311 L 85.480499 -153.864311 C 88.977895 -153.864311 91.813833 -151.028374 91.813833 -147.533582 L 91.813833 -105.74452 C 91.813833 -102.247124 88.977895 -99.411186 85.480499 -99.411186 Z M 85.480499 -99.411186 " transform="matrix(1.5, 0, 0, -1.5, 48.873001, 48.871502)"/>
</svg>
