<?xml version="1.0" encoding="UTF-8"?>
<svg xmlns="http://www.w3.org/2000/svg" xmlns:xlink="http://www.w3.org/1999/xlink" width="253.469" height="168.429" viewBox="0 0 253.469 168.429">
<path fill-rule="nonzero" fill="rgb(40.000916%, 80.703735%, 96.237183%)" fill-opacity="1" stroke-width="0.99628" stroke-linecap="butt" stroke-linejoin="round" stroke="rgb(0%, 0%, 0%)" stroke-opacity="1" stroke-miterlimit="10" d="M 30.616844 22.11125 C 30.616844 26.806563 26.80825 30.615156 22.109031 30.615156 C 17.413719 30.615156 13.605125 26.806563 13.605125 22.11125 C 13.605125 17.415938 17.413719 13.607344 22.109031 13.607344 C 26.80825 13.607344 30.616844 17.415938 30.616844 22.11125 Z M 30.616844 22.11125 " transform="matrix(1, 0, 0, -1, -2.527, 170.955)"/>
<path fill-rule="nonzero" fill="rgb(40.000916%, 80.703735%, 96.237183%)" fill-opacity="1" stroke-width="0.99628" stroke-linecap="butt" stroke-linejoin="round" stroke="rgb(0%, 0%, 0%)" stroke-opacity="1" stroke-miterlimit="10" d="M 52.726219 44.220625 C 52.726219 48.919844 48.917625 52.724531 44.222313 52.724531 C 39.523094 52.724531 35.718406 48.919844 35.718406 44.220625 C 35.718406 39.525313 39.523094 35.716719 44.222313 35.716719 C 48.917625 35.716719 52.726219 39.525313 52.726219 44.220625 Z M 52.726219 44.220625 " transform="matrix(1, 0, 0, -1, -2.527, 170.955)"/>
<path fill-rule="nonzero" fill="rgb(40.000916%, 80.703735%, 96.237183%)" fill-opacity="1" stroke-width="0.99628" stroke-linecap="butt" stroke-linejoin="round" stroke="rgb(0%, 0%, 0%)" stroke-opacity="1" stroke-miterlimit="10" d="M 74.835594 66.333906 C 74.835594 71.029219 71.030906 74.837813 66.331688 74.837813 C 61.636375 74.837813 57.827781 71.029219 57.827781 66.333906 C 57.827781 61.634688 61.636375 57.83 66.331688 57.83 C 71.030906 57.83 74.835594 61.634688 74.835594 66.333906 Z M 74.835594 66.333906 " transform="matrix(1, 0, 0, -1, -2.527, 170.955)"/>
<path fill="none" stroke-width="0.99628" stroke-linecap="butt" stroke-linejoin="round" stroke="rgb(0%, 0%, 0%)" stroke-opacity="1" stroke-miterlimit="10" d="M 71.93325 80.435469 L 16.511375 80.435469 C 11.812156 80.435469 8.007469 76.630781 8.007469 71.931563 L 8.007469 16.509688 C 8.007469 11.814375 11.812156 8.005781 16.511375 8.005781 L 71.93325 8.005781 C 76.628563 8.005781 80.437156 11.814375 80.437156 16.509688 L 80.437156 71.931563 C 80.437156 76.630781 76.628563 80.435469 71.93325 80.435469 Z M 71.93325 80.435469 " transform="matrix(1, 0, 0, -1, -2.527, 170.955)"/>
<path fill-rule="nonzero" fill="rgb(40.000916%, 80.703735%, 96.237183%)" fill-opacity="1" stroke-width="0.99628" stroke-linecap="butt" stroke-linejoin="round" stroke="rgb(0%, 0%, 0%)" stroke-opacity="1" stroke-miterlimit="10" d="M 115.655906 22.11125 C 115.655906 26.806563 111.847313 30.615156 107.152 30.615156 C 102.456688 30.615156 98.648094 26.806563 98.648094 22.11125 C 98.648094 17.415938 102.456688 13.607344 107.152 13.607344 C 111.847313 13.607344 115.655906 17.415938 115.655906 22.11125 Z M 115.655906 22.11125 " transform="matrix(1, 0, 0, -1, -2.527, 170.955)"/>
<path fill-rule="nonzero" fill="rgb(40.000916%, 80.703735%, 96.237183%)" fill-opacity="1" stroke-width="0.99628" stroke-linecap="butt" stroke-linejoin="round" stroke="rgb(0%, 0%, 0%)" stroke-opacity="1" stroke-miterlimit="10" d="M 137.765281 44.220625 C 137.765281 48.919844 133.960594 52.724531 129.261375 52.724531 C 124.566063 52.724531 120.757469 48.919844 120.757469 44.220625 C 120.757469 39.525313 124.566063 35.716719 129.261375 35.716719 C 133.960594 35.716719 137.765281 39.525313 137.765281 44.220625 Z M 137.765281 44.220625 " transform="matrix(1, 0, 0, -1, -2.527, 170.955)"/>
<path fill-rule="nonzero" fill="rgb(40.000916%, 80.703735%, 96.237183%)" fill-opacity="1" stroke-width="0.99628" stroke-linecap="butt" stroke-linejoin="round" stroke="rgb(0%, 0%, 0%)" stroke-opacity="1" stroke-miterlimit="10" d="M 159.878562 66.333906 C 159.878562 71.029219 156.069969 74.837813 151.374656 74.837813 C 146.675437 74.837813 142.87075 71.029219 142.87075 66.333906 C 142.87075 61.634688 146.675437 57.83 151.374656 57.83 C 156.069969 57.83 159.878562 61.634688 159.878562 66.333906 Z M 159.878562 66.333906 " transform="matrix(1, 0, 0, -1, -2.527, 170.955)"/>
<path fill="none" stroke-width="0.99628" stroke-linecap="butt" stroke-linejoin="round" stroke="rgb(0%, 0%, 0%)" stroke-opacity="1" stroke-miterlimit="10" d="M 156.976219 80.435469 L 101.550438 80.435469 C 96.855125 80.435469 93.046531 76.630781 93.046531 71.931563 L 93.046531 16.509688 C 93.046531 11.814375 96.855125 8.005781 101.550438 8.005781 L 156.976219 8.005781 C 161.671531 8.005781 165.480125 11.814375 165.480125 16.509688 L 165.480125 71.931563 C 165.480125 76.630781 161.671531 80.435469 156.976219 80.435469 Z M 156.976219 80.435469 " transform="matrix(1, 0, 0, -1, -2.527, 170.955)"/>
<path fill-rule="nonzero" fill="rgb(40.000916%, 80.703735%, 96.237183%)" fill-opacity="1" stroke-width="0.99628" stroke-linecap="butt" stroke-linejoin="round" stroke="rgb(0%, 0%, 0%)" stroke-opacity="1" stroke-miterlimit="10" d="M 200.698875 22.11125 C 200.698875 26.806563 196.890281 30.615156 192.194969 30.615156 C 187.49575 30.615156 183.691062 26.806563 183.691062 22.11125 C 183.691062 17.415938 187.49575 13.607344 192.194969 13.607344 C 196.890281 13.607344 200.698875 17.415938 200.698875 22.11125 Z M 200.698875 22.11125 " transform="matrix(1, 0, 0, -1, -2.527, 170.955)"/>
<path fill-rule="nonzero" fill="rgb(40.000916%, 80.703735%, 96.237183%)" fill-opacity="1" stroke-width="0.99628" stroke-linecap="butt" stroke-linejoin="round" stroke="rgb(0%, 0%, 0%)" stroke-opacity="1" stroke-miterlimit="10" d="M 222.80825 44.220625 C 222.80825 48.919844 218.999656 52.724531 214.304344 52.724531 C 209.609031 52.724531 205.800437 48.919844 205.800437 44.220625 C 205.800437 39.525313 209.609031 35.716719 214.304344 35.716719 C 218.999656 35.716719 222.80825 39.525313 222.80825 44.220625 Z M 222.80825 44.220625 " transform="matrix(1, 0, 0, -1, -2.527, 170.955)"/>
<path fill-rule="nonzero" fill="rgb(40.000916%, 80.703735%, 96.237183%)" fill-opacity="1" stroke-width="0.99628" stroke-linecap="butt" stroke-linejoin="round" stroke="rgb(0%, 0%, 0%)" stroke-opacity="1" stroke-miterlimit="10" d="M 244.917625 66.333906 C 244.917625 71.029219 241.112937 74.837813 236.413719 74.837813 C 231.718406 74.837813 227.909812 71.029219 227.909812 66.333906 C 227.909812 61.634688 231.718406 57.83 236.413719 57.83 C 241.112937 57.83 244.917625 61.634688 244.917625 66.333906 Z M 244.917625 66.333906 " transform="matrix(1, 0, 0, -1, -2.527, 170.955)"/>
<path fill="none" stroke-width="0.99628" stroke-linecap="butt" stroke-linejoin="round" stroke="rgb(0%, 0%, 0%)" stroke-opacity="1" stroke-miterlimit="10" d="M 242.015281 80.435469 L 186.593406 80.435469 C 181.894187 80.435469 178.0895 76.630781 178.0895 71.931563 L 178.0895 16.509688 C 178.0895 11.814375 181.894187 8.005781 186.593406 8.005781 L 242.015281 8.005781 C 246.710594 8.005781 250.519187 11.814375 250.519187 16.509688 L 250.519187 71.931563 C 250.519187 76.630781 246.710594 80.435469 242.015281 80.435469 Z M 242.015281 80.435469 " transform="matrix(1, 0, 0, -1, -2.527, 170.955)"/>
<path fill-rule="nonzero" fill="rgb(40.000916%, 80.703735%, 96.237183%)" fill-opacity="1" stroke-width="0.99628" stroke-linecap="butt" stroke-linejoin="round" stroke="rgb(0%, 0%, 0%)" stroke-opacity="1" stroke-miterlimit="10" d="M 30.616844 107.150313 C 30.616844 111.849531 26.80825 115.658125 22.109031 115.658125 C 17.413719 115.658125 13.605125 111.849531 13.605125 107.150313 C 13.605125 102.455 17.413719 98.646406 22.109031 98.646406 C 26.80825 98.646406 30.616844 102.455 30.616844 107.150313 Z M 30.616844 107.150313 " transform="matrix(1, 0, 0, -1, -2.527, 170.955)"/>
<path fill-rule="nonzero" fill="rgb(40.000916%, 80.703735%, 96.237183%)" fill-opacity="1" stroke-width="0.99628" stroke-linecap="butt" stroke-linejoin="round" stroke="rgb(0%, 0%, 0%)" stroke-opacity="1" stroke-miterlimit="10" d="M 52.726219 129.263594 C 52.726219 133.958906 48.917625 137.7675 44.222313 137.7675 C 39.523094 137.7675 35.718406 133.958906 35.718406 129.263594 C 35.718406 124.564375 39.523094 120.759688 44.222313 120.759688 C 48.917625 120.759688 52.726219 124.564375 52.726219 129.263594 Z M 52.726219 129.263594 " transform="matrix(1, 0, 0, -1, -2.527, 170.955)"/>
<path fill-rule="nonzero" fill="rgb(40.000916%, 80.703735%, 96.237183%)" fill-opacity="1" stroke-width="0.99628" stroke-linecap="butt" stroke-linejoin="round" stroke="rgb(0%, 0%, 0%)" stroke-opacity="1" stroke-miterlimit="10" d="M 74.835594 151.372969 C 74.835594 156.072188 71.030906 159.876875 66.331688 159.876875 C 61.636375 159.876875 57.827781 156.072188 57.827781 151.372969 C 57.827781 146.677656 61.636375 142.869063 66.331688 142.869063 C 71.030906 142.869063 74.835594 146.677656 74.835594 151.372969 Z M 74.835594 151.372969 " transform="matrix(1, 0, 0, -1, -2.527, 170.955)"/>
<path fill="none" stroke-width="0.99628" stroke-linecap="butt" stroke-linejoin="round" stroke="rgb(0%, 0%, 0%)" stroke-opacity="1" stroke-miterlimit="10" d="M 71.93325 165.478438 L 16.511375 165.478438 C 11.812156 165.478438 8.007469 161.669844 8.007469 156.974531 L 8.007469 101.552656 C 8.007469 96.853438 11.812156 93.04875 16.511375 93.04875 L 71.93325 93.04875 C 76.628563 93.04875 80.437156 96.853438 80.437156 101.552656 L 80.437156 156.974531 C 80.437156 161.669844 76.628563 165.478438 71.93325 165.478438 Z M 71.93325 165.478438 " transform="matrix(1, 0, 0, -1, -2.527, 170.955)"/>
<path fill-rule="nonzero" fill="rgb(40.000916%, 80.703735%, 96.237183%)" fill-opacity="1" stroke-width="0.99628" stroke-linecap="butt" stroke-linejoin="round" stroke="rgb(0%, 0%, 0%)" stroke-opacity="1" stroke-miterlimit="10" d="M 115.655906 107.150313 C 115.655906 111.849531 111.847313 115.658125 107.152 115.658125 C 102.456688 115.658125 98.648094 111.849531 98.648094 107.150313 C 98.648094 102.455 102.456688 98.646406 107.152 98.646406 C 111.847313 98.646406 115.655906 102.455 115.655906 107.150313 Z M 115.655906 107.150313 " transform="matrix(1, 0, 0, -1, -2.527, 170.955)"/>
<path fill-rule="nonzero" fill="rgb(40.000916%, 80.703735%, 96.237183%)" fill-opacity="1" stroke-width="0.99628" stroke-linecap="butt" stroke-linejoin="round" stroke="rgb(0%, 0%, 0%)" stroke-opacity="1" stroke-miterlimit="10" d="M 137.765281 129.263594 C 137.765281 133.958906 133.960594 137.7675 129.261375 137.7675 C 124.566063 137.7675 120.757469 133.958906 120.757469 129.263594 C 120.757469 124.564375 124.566063 120.759688 129.261375 120.759688 C 133.960594 120.759688 137.765281 124.564375 137.765281 129.263594 Z M 137.765281 129.263594 " transform="matrix(1, 0, 0, -1, -2.527, 170.955)"/>
<path fill-rule="nonzero" fill="rgb(40.000916%, 80.703735%, 96.237183%)" fill-opacity="1" stroke-width="0.99628" stroke-linecap="butt" stroke-linejoin="round" stroke="rgb(0%, 0%, 0%)" stroke-opacity="1" stroke-miterlimit="10" d="M 159.878562 151.372969 C 159.878562 156.072188 156.069969 159.876875 151.374656 159.876875 C 146.675437 159.876875 142.87075 156.072188 142.87075 151.372969 C 142.87075 146.677656 146.675437 142.869063 151.374656 142.869063 C 156.069969 142.869063 159.878562 146.677656 159.878562 151.372969 Z M 159.878562 151.372969 " transform="matrix(1, 0, 0, -1, -2.527, 170.955)"/>
<path fill="none" stroke-width="0.99628" stroke-linecap="butt" stroke-linejoin="round" stroke="rgb(0%, 0%, 0%)" stroke-opacity="1" stroke-miterlimit="10" d="M 156.976219 165.478438 L 101.550438 165.478438 C 96.855125 165.478438 93.046531 161.669844 93.046531 156.974531 L 93.046531 101.552656 C 93.046531 96.853438 96.855125 93.04875 101.550438 93.04875 L 156.976219 93.04875 C 161.671531 93.04875 165.480125 96.853438 165.480125 101.552656 L 165.480125 156.974531 C 165.480125 161.669844 161.671531 165.478438 156.976219 165.478438 Z M 156.976219 165.478438 " transform="matrix(1, 0, 0, -1, -2.527, 170.955)"/>
<path fill-rule="nonzero" fill="rgb(40.000916%, 80.703735%, 96.237183%)" fill-opacity="1" stroke-width="0.99628" stroke-linecap="butt" stroke-linejoin="round" stroke="rgb(0%, 0%, 0%)" stroke-opacity="1" stroke-miterlimit="10" d="M 200.698875 107.150313 C 200.698875 111.849531 196.890281 115.658125 192.194969 115.658125 C 187.49575 115.658125 183.691062 111.849531 183.691062 107.150313 C 183.691062 102.455 187.49575 98.646406 192.194969 98.646406 C 196.890281 98.646406 200.698875 102.455 200.698875 107.150313 Z M 200.698875 107.150313 " transform="matrix(1, 0, 0, -1, -2.527, 170.955)"/>
<path fill-rule="nonzero" fill="rgb(40.000916%, 80.703735%, 96.237183%)" fill-opacity="1" stroke-width="0.99628" stroke-linecap="butt" stroke-linejoin="round" stroke="rgb(0%, 0%, 0%)" stroke-opacity="1" stroke-miterlimit="10" d="M 222.80825 129.263594 C 222.80825 133.958906 218.999656 137.7675 214.304344 137.7675 C 209.609031 137.7675 205.800437 133.958906 205.800437 129.263594 C 205.800437 124.564375 209.609031 120.759688 214.304344 120.759688 C 218.999656 120.759688 222.80825 124.564375 222.80825 129.263594 Z M 222.80825 129.263594 " transform="matrix(1, 0, 0, -1, -2.527, 170.955)"/>
<path fill-rule="nonzero" fill="rgb(40.000916%, 80.703735%, 96.237183%)" fill-opacity="1" stroke-width="0.99628" stroke-linecap="butt" stroke-linejoin="round" stroke="rgb(0%, 0%, 0%)" stroke-opacity="1" stroke-miterlimit="10" d="M 244.917625 151.372969 C 244.917625 156.072188 241.112937 159.876875 236.413719 159.876875 C 231.718406 159.876875 227.909812 156.072188 227.909812 151.372969 C 227.909812 146.677656 231.718406 142.869063 236.413719 142.869063 C 241.112937 142.869063 244.917625 146.677656 244.917625 151.372969 Z M 244.917625 151.372969 " transform="matrix(1, 0, 0, -1, -2.527, 170.955)"/>
<path fill="none" stroke-width="0.99628" stroke-linecap="butt" stroke-linejoin="round" stroke="rgb(0%, 0%, 0%)" stroke-opacity="1" stroke-miterlimit="10" d="M 242.015281 165.478438 L 186.593406 165.478438 C 181.894187 165.478438 178.0895 161.669844 178.0895 156.974531 L 178.0895 101.552656 C 178.0895 96.853438 181.894187 93.04875 186.593406 93.04875 L 242.015281 93.04875 C 246.710594 93.04875 250.519187 96.853438 250.519187 101.552656 L 250.519187 156.974531 C 250.519187 161.669844 246.710594 165.478438 242.015281 165.478438 Z M 242.015281 165.478438 " transform="matrix(1, 0, 0, -1, -2.527, 170.955)"/>
</svg>
