<?xml version="1.0" encoding="UTF-8"?>
<svg xmlns="http://www.w3.org/2000/svg" xmlns:xlink="http://www.w3.org/1999/xlink" width="213.215" height="142.349" viewBox="0 0 213.215 142.349">
<path fill-rule="nonzero" fill="rgb(40.000916%, 80.703735%, 96.237183%)" fill-opacity="1" stroke-width="0.99628" stroke-linecap="butt" stroke-linejoin="round" stroke="rgb(0%, 0%, 0%)" stroke-opacity="1" stroke-miterlimit="10" d="M 25.511344 18.42675 C 25.511344 22.340812 22.339469 25.512687 18.425406 25.512687 C 14.511344 25.512687 11.339469 22.340812 11.339469 18.42675 C 11.339469 14.512687 14.511344 11.336906 18.425406 11.336906 C 22.339469 11.336906 25.511344 14.512687 25.511344 18.42675 Z M 25.511344 18.42675 " transform="matrix(1, 0, 0, -1, -1.109, 143.458)"/>
<path fill-rule="nonzero" fill="rgb(40.000916%, 80.703735%, 96.237183%)" fill-opacity="1" stroke-width="0.99628" stroke-linecap="butt" stroke-linejoin="round" stroke="rgb(0%, 0%, 0%)" stroke-opacity="1" stroke-miterlimit="10" d="M 43.937125 36.852531 C 43.937125 40.766594 40.76525 43.938469 36.851188 43.938469 C 32.937125 43.938469 29.76525 40.766594 29.76525 36.852531 C 29.76525 32.938469 32.937125 29.762687 36.851188 29.762687 C 40.76525 29.762687 43.937125 32.938469 43.937125 36.852531 Z M 43.937125 36.852531 " transform="matrix(1, 0, 0, -1, -1.109, 143.458)"/>
<path fill-rule="nonzero" fill="rgb(40.000916%, 80.703735%, 96.237183%)" fill-opacity="1" stroke-width="0.99628" stroke-linecap="butt" stroke-linejoin="round" stroke="rgb(0%, 0%, 0%)" stroke-opacity="1" stroke-miterlimit="10" d="M 62.362906 55.278312 C 62.362906 59.188469 59.191031 62.36425 55.276969 62.36425 C 51.362906 62.36425 48.191031 59.188469 48.191031 55.278312 C 48.191031 51.36425 51.362906 48.188469 55.276969 48.188469 C 59.191031 48.188469 62.362906 51.36425 62.362906 55.278312 Z M 62.362906 55.278312 " transform="matrix(1, 0, 0, -1, -1.109, 143.458)"/>
<path fill="none" stroke-width="0.99628" stroke-linecap="butt" stroke-linejoin="round" stroke="rgb(0%, 0%, 0%)" stroke-opacity="1" stroke-miterlimit="10" d="M 60.026969 67.11425 L 13.675406 67.11425 C 9.761344 67.11425 6.589469 63.938469 6.589469 60.028312 L 6.589469 13.67675 C 6.589469 9.762687 9.761344 6.586906 13.675406 6.586906 L 60.026969 6.586906 C 63.941031 6.586906 67.112906 9.762687 67.112906 13.67675 L 67.112906 60.028312 C 67.112906 63.938469 63.941031 67.11425 60.026969 67.11425 Z M 60.026969 67.11425 " transform="matrix(1, 0, 0, -1, -1.109, 143.458)"/>
<path fill-rule="nonzero" fill="rgb(40.000916%, 80.703735%, 96.237183%)" fill-opacity="1" stroke-width="0.99628" stroke-linecap="butt" stroke-linejoin="round" stroke="rgb(0%, 0%, 0%)" stroke-opacity="1" stroke-miterlimit="10" d="M 96.378531 18.42675 C 96.378531 22.340812 93.206656 25.512687 89.292594 25.512687 C 85.378531 25.512687 82.206656 22.340812 82.206656 18.42675 C 82.206656 14.512687 85.378531 11.336906 89.292594 11.336906 C 93.206656 11.336906 96.378531 14.512687 96.378531 18.42675 Z M 96.378531 18.42675 " transform="matrix(1, 0, 0, -1, -1.109, 143.458)"/>
<path fill-rule="nonzero" fill="rgb(40.000916%, 80.703735%, 96.237183%)" fill-opacity="1" stroke-width="0.99628" stroke-linecap="butt" stroke-linejoin="round" stroke="rgb(0%, 0%, 0%)" stroke-opacity="1" stroke-miterlimit="10" d="M 114.804312 36.852531 C 114.804312 40.766594 111.632437 43.938469 107.718375 43.938469 C 103.804312 43.938469 100.632437 40.766594 100.632437 36.852531 C 100.632437 32.938469 103.804312 29.762687 107.718375 29.762687 C 111.632437 29.762687 114.804312 32.938469 114.804312 36.852531 Z M 114.804312 36.852531 " transform="matrix(1, 0, 0, -1, -1.109, 143.458)"/>
<path fill-rule="nonzero" fill="rgb(40.000916%, 80.703735%, 96.237183%)" fill-opacity="1" stroke-width="0.99628" stroke-linecap="butt" stroke-linejoin="round" stroke="rgb(0%, 0%, 0%)" stroke-opacity="1" stroke-miterlimit="10" d="M 133.230094 55.278312 C 133.230094 59.188469 130.058219 62.36425 126.144156 62.36425 C 122.230094 62.36425 119.058219 59.188469 119.058219 55.278312 C 119.058219 51.36425 122.230094 48.188469 126.144156 48.188469 C 130.058219 48.188469 133.230094 51.36425 133.230094 55.278312 Z M 133.230094 55.278312 " transform="matrix(1, 0, 0, -1, -1.109, 143.458)"/>
<path fill="none" stroke-width="0.99628" stroke-linecap="butt" stroke-linejoin="round" stroke="rgb(0%, 0%, 0%)" stroke-opacity="1" stroke-miterlimit="10" d="M 130.894156 67.11425 L 84.542594 67.11425 C 80.628531 67.11425 77.456656 63.938469 77.456656 60.028312 L 77.456656 13.67675 C 77.456656 9.762687 80.628531 6.586906 84.542594 6.586906 L 130.894156 6.586906 C 134.808219 6.586906 137.980094 9.762687 137.980094 13.67675 L 137.980094 60.028312 C 137.980094 63.938469 134.808219 67.11425 130.894156 67.11425 Z M 130.894156 67.11425 " transform="matrix(1, 0, 0, -1, -1.109, 143.458)"/>
<path fill-rule="nonzero" fill="rgb(40.000916%, 80.703735%, 96.237183%)" fill-opacity="1" stroke-width="0.99628" stroke-linecap="butt" stroke-linejoin="round" stroke="rgb(0%, 0%, 0%)" stroke-opacity="1" stroke-miterlimit="10" d="M 167.245719 18.42675 C 167.245719 22.340812 164.073844 25.512687 160.159781 25.512687 C 156.245719 25.512687 153.073844 22.340812 153.073844 18.42675 C 153.073844 14.512687 156.245719 11.336906 160.159781 11.336906 C 164.073844 11.336906 167.245719 14.512687 167.245719 18.42675 Z M 167.245719 18.42675 " transform="matrix(1, 0, 0, -1, -1.109, 143.458)"/>
<path fill-rule="nonzero" fill="rgb(40.000916%, 80.703735%, 96.237183%)" fill-opacity="1" stroke-width="0.99628" stroke-linecap="butt" stroke-linejoin="round" stroke="rgb(0%, 0%, 0%)" stroke-opacity="1" stroke-miterlimit="10" d="M 185.6715 36.852531 C 185.6715 40.766594 182.499625 43.938469 178.585563 43.938469 C 174.6715 43.938469 171.499625 40.766594 171.499625 36.852531 C 171.499625 32.938469 174.6715 29.762687 178.585563 29.762687 C 182.499625 29.762687 185.6715 32.938469 185.6715 36.852531 Z M 185.6715 36.852531 " transform="matrix(1, 0, 0, -1, -1.109, 143.458)"/>
<path fill-rule="nonzero" fill="rgb(40.000916%, 80.703735%, 96.237183%)" fill-opacity="1" stroke-width="0.99628" stroke-linecap="butt" stroke-linejoin="round" stroke="rgb(0%, 0%, 0%)" stroke-opacity="1" stroke-miterlimit="10" d="M 204.097281 55.278312 C 204.097281 59.188469 200.925406 62.36425 197.011344 62.36425 C 193.097281 62.36425 189.925406 59.188469 189.925406 55.278312 C 189.925406 51.36425 193.097281 48.188469 197.011344 48.188469 C 200.925406 48.188469 204.097281 51.36425 204.097281 55.278312 Z M 204.097281 55.278312 " transform="matrix(1, 0, 0, -1, -1.109, 143.458)"/>
<path fill="none" stroke-width="0.99628" stroke-linecap="butt" stroke-linejoin="round" stroke="rgb(0%, 0%, 0%)" stroke-opacity="1" stroke-miterlimit="10" d="M 201.761344 67.11425 L 155.409781 67.11425 C 151.495719 67.11425 148.323844 63.938469 148.323844 60.028312 L 148.323844 13.67675 C 148.323844 9.762687 151.495719 6.586906 155.409781 6.586906 L 201.761344 6.586906 C 205.675406 6.586906 208.847281 9.762687 208.847281 13.67675 L 208.847281 60.028312 C 208.847281 63.938469 205.675406 67.11425 201.761344 67.11425 Z M 201.761344 67.11425 " transform="matrix(1, 0, 0, -1, -1.109, 143.458)"/>
<path fill-rule="nonzero" fill="rgb(40.000916%, 80.703735%, 96.237183%)" fill-opacity="1" stroke-width="0.99628" stroke-linecap="butt" stroke-linejoin="round" stroke="rgb(0%, 0%, 0%)" stroke-opacity="1" stroke-miterlimit="10" d="M 25.511344 89.293937 C 25.511344 93.208 22.339469 96.379875 18.425406 96.379875 C 14.511344 96.379875 11.339469 93.208 11.339469 89.293937 C 11.339469 85.379875 14.511344 82.204094 18.425406 82.204094 C 22.339469 82.204094 25.511344 85.379875 25.511344 89.293937 Z M 25.511344 89.293937 " transform="matrix(1, 0, 0, -1, -1.109, 143.458)"/>
<path fill-rule="nonzero" fill="rgb(40.000916%, 80.703735%, 96.237183%)" fill-opacity="1" stroke-width="0.99628" stroke-linecap="butt" stroke-linejoin="round" stroke="rgb(0%, 0%, 0%)" stroke-opacity="1" stroke-miterlimit="10" d="M 43.937125 107.719719 C 43.937125 111.629875 40.76525 114.805656 36.851188 114.805656 C 32.937125 114.805656 29.76525 111.629875 29.76525 107.719719 C 29.76525 103.805656 32.937125 100.629875 36.851188 100.629875 C 40.76525 100.629875 43.937125 103.805656 43.937125 107.719719 Z M 43.937125 107.719719 " transform="matrix(1, 0, 0, -1, -1.109, 143.458)"/>
<path fill-rule="nonzero" fill="rgb(40.000916%, 80.703735%, 96.237183%)" fill-opacity="1" stroke-width="0.99628" stroke-linecap="butt" stroke-linejoin="round" stroke="rgb(0%, 0%, 0%)" stroke-opacity="1" stroke-miterlimit="10" d="M 62.362906 126.141594 C 62.362906 130.055656 59.191031 133.231437 55.276969 133.231437 C 51.362906 133.231437 48.191031 130.055656 48.191031 126.141594 C 48.191031 122.227531 51.362906 119.055656 55.276969 119.055656 C 59.191031 119.055656 62.362906 122.227531 62.362906 126.141594 Z M 62.362906 126.141594 " transform="matrix(1, 0, 0, -1, -1.109, 143.458)"/>
<path fill="none" stroke-width="0.99628" stroke-linecap="butt" stroke-linejoin="round" stroke="rgb(0%, 0%, 0%)" stroke-opacity="1" stroke-miterlimit="10" d="M 60.026969 137.981437 L 13.675406 137.981437 C 9.761344 137.981437 6.589469 134.805656 6.589469 130.891594 L 6.589469 84.543937 C 6.589469 80.629875 9.761344 77.454094 13.675406 77.454094 L 60.026969 77.454094 C 63.941031 77.454094 67.112906 80.629875 67.112906 84.543937 L 67.112906 130.891594 C 67.112906 134.805656 63.941031 137.981437 60.026969 137.981437 Z M 60.026969 137.981437 " transform="matrix(1, 0, 0, -1, -1.109, 143.458)"/>
<path fill-rule="nonzero" fill="rgb(40.000916%, 80.703735%, 96.237183%)" fill-opacity="1" stroke-width="0.99628" stroke-linecap="butt" stroke-linejoin="round" stroke="rgb(0%, 0%, 0%)" stroke-opacity="1" stroke-miterlimit="10" d="M 96.378531 89.293937 C 96.378531 93.208 93.206656 96.379875 89.292594 96.379875 C 85.378531 96.379875 82.206656 93.208 82.206656 89.293937 C 82.206656 85.379875 85.378531 82.204094 89.292594 82.204094 C 93.206656 82.204094 96.378531 85.379875 96.378531 89.293937 Z M 96.378531 89.293937 " transform="matrix(1, 0, 0, -1, -1.109, 143.458)"/>
<path fill-rule="nonzero" fill="rgb(40.000916%, 80.703735%, 96.237183%)" fill-opacity="1" stroke-width="0.99628" stroke-linecap="butt" stroke-linejoin="round" stroke="rgb(0%, 0%, 0%)" stroke-opacity="1" stroke-miterlimit="10" d="M 114.804312 107.719719 C 114.804312 111.629875 111.632437 114.805656 107.718375 114.805656 C 103.804312 114.805656 100.632437 111.629875 100.632437 107.719719 C 100.632437 103.805656 103.804312 100.629875 107.718375 100.629875 C 111.632437 100.629875 114.804312 103.805656 114.804312 107.719719 Z M 114.804312 107.719719 " transform="matrix(1, 0, 0, -1, -1.109, 143.458)"/>
<path fill-rule="nonzero" fill="rgb(40.000916%, 80.703735%, 96.237183%)" fill-opacity="1" stroke-width="0.99628" stroke-linecap="butt" stroke-linejoin="round" stroke="rgb(0%, 0%, 0%)" stroke-opacity="1" stroke-miterlimit="10" d="M 133.230094 126.141594 C 133.230094 130.055656 130.058219 133.231437 126.144156 133.231437 C 122.230094 133.231437 119.058219 130.055656 119.058219 126.141594 C 119.058219 122.227531 122.230094 119.055656 126.144156 119.055656 C 130.058219 119.055656 133.230094 122.227531 133.230094 126.141594 Z M 133.230094 126.141594 " transform="matrix(1, 0, 0, -1, -1.109, 143.458)"/>
<path fill="none" stroke-width="0.99628" stroke-linecap="butt" stroke-linejoin="round" stroke="rgb(0%, 0%, 0%)" stroke-opacity="1" stroke-miterlimit="10" d="M 130.894156 137.981437 L 84.542594 137.981437 C 80.628531 137.981437 77.456656 134.805656 77.456656 130.891594 L 77.456656 84.543937 C 77.456656 80.629875 80.628531 77.454094 84.542594 77.454094 L 130.894156 77.454094 C 134.808219 77.454094 137.980094 80.629875 137.980094 84.543937 L 137.980094 130.891594 C 137.980094 134.805656 134.808219 137.981437 130.894156 137.981437 Z M 130.894156 137.981437 " transform="matrix(1, 0, 0, -1, -1.109, 143.458)"/>
<path fill-rule="nonzero" fill="rgb(40.000916%, 80.703735%, 96.237183%)" fill-opacity="1" stroke-width="0.99628" stroke-linecap="butt" stroke-linejoin="round" stroke="rgb(0%, 0%, 0%)" stroke-opacity="1" stroke-miterlimit="10" d="M 167.245719 89.293937 C 167.245719 93.208 164.073844 96.379875 160.159781 96.379875 C 156.245719 96.379875 153.073844 93.208 153.073844 89.293937 C 153.073844 85.379875 156.245719 82.204094 160.159781 82.204094 C 164.073844 82.204094 167.245719 85.379875 167.245719 89.293937 Z M 167.245719 89.293937 " transform="matrix(1, 0, 0, -1, -1.109, 143.458)"/>
<path fill-rule="nonzero" fill="rgb(40.000916%, 80.703735%, 96.237183%)" fill-opacity="1" stroke-width="0.99628" stroke-linecap="butt" stroke-linejoin="round" stroke="rgb(0%, 0%, 0%)" stroke-opacity="1" stroke-miterlimit="10" d="M 185.6715 107.719719 C 185.6715 111.629875 182.499625 114.805656 178.585563 114.805656 C 174.6715 114.805656 171.499625 111.629875 171.499625 107.719719 C 171.499625 103.805656 174.6715 100.629875 178.585563 100.629875 C 182.499625 100.629875 185.6715 103.805656 185.6715 107.719719 Z M 185.6715 107.719719 " transform="matrix(1, 0, 0, -1, -1.109, 143.458)"/>
<path fill-rule="nonzero" fill="rgb(40.000916%, 80.703735%, 96.237183%)" fill-opacity="1" stroke-width="0.99628" stroke-linecap="butt" stroke-linejoin="round" stroke="rgb(0%, 0%, 0%)" stroke-opacity="1" stroke-miterlimit="10" d="M 204.097281 126.141594 C 204.097281 130.055656 200.925406 133.231437 197.011344 133.231437 C 193.097281 133.231437 189.925406 130.055656 189.925406 126.141594 C 189.925406 122.227531 193.097281 119.055656 197.011344 119.055656 C 200.925406 119.055656 204.097281 122.227531 204.097281 126.141594 Z M 204.097281 126.141594 " transform="matrix(1, 0, 0, -1, -1.109, 143.458)"/>
<path fill="none" stroke-width="0.99628" stroke-linecap="butt" stroke-linejoin="round" stroke="rgb(0%, 0%, 0%)" stroke-opacity="1" stroke-miterlimit="10" d="M 201.761344 137.981437 L 155.409781 137.981437 C 151.495719 137.981437 148.323844 134.805656 148.323844 130.891594 L 148.323844 84.543937 C 148.323844 80.629875 151.495719 77.454094 155.409781 77.454094 L 201.761344 77.454094 C 205.675406 77.454094 208.847281 80.629875 208.847281 84.543937 L 208.847281 130.891594 C 208.847281 134.805656 205.675406 137.981437 201.761344 137.981437 Z M 201.761344 137.981437 " transform="matrix(1, 0, 0, -1, -1.109, 143.458)"/>
</svg>
