<?xml version="1.0" encoding="UTF-8"?>
<svg xmlns="http://www.w3.org/2000/svg" xmlns:xlink="http://www.w3.org/1999/xlink" width="210.536251" height="104.23625" viewBox="0 0 210.536251 104.23625">
<path fill-rule="nonzero" fill="rgb(40%, 80.784314%, 96.078431%)" fill-opacity="1" stroke-width="0.99628" stroke-linecap="butt" stroke-linejoin="round" stroke="rgb(0%, 0%, 0%)" stroke-opacity="1" stroke-miterlimit="10" d="M 30.617625 22.108751 C 30.617625 26.805626 26.80825 30.615001 22.10825 30.615001 C 17.4145 30.615001 13.605125 26.805626 13.605125 22.108751 C 13.605125 17.415001 17.4145 13.605626 22.10825 13.605626 C 26.80825 13.605626 30.617625 17.415001 30.617625 22.108751 Z M 30.617625 22.108751 " transform="matrix(1.25, 0, 0, -1.25, -3.15875, 107.393751)"/>
<path fill-rule="nonzero" fill="rgb(40%, 80.784314%, 96.078431%)" fill-opacity="1" stroke-width="0.99628" stroke-linecap="butt" stroke-linejoin="round" stroke="rgb(0%, 0%, 0%)" stroke-opacity="1" stroke-miterlimit="10" d="M 52.727 44.218126 C 52.727 48.918126 48.917625 52.727501 44.223875 52.727501 C 39.523875 52.727501 35.717625 48.918126 35.717625 44.218126 C 35.717625 39.524376 39.523875 35.715001 44.223875 35.715001 C 48.917625 35.715001 52.727 39.524376 52.727 44.218126 Z M 52.727 44.218126 " transform="matrix(1.25, 0, 0, -1.25, -3.15875, 107.393751)"/>
<path fill-rule="nonzero" fill="rgb(40%, 80.784314%, 96.078431%)" fill-opacity="1" stroke-width="0.99628" stroke-linecap="butt" stroke-linejoin="round" stroke="rgb(0%, 0%, 0%)" stroke-opacity="1" stroke-miterlimit="10" d="M 74.836375 66.333751 C 74.836375 71.027501 71.030125 74.836876 66.33325 74.836876 C 61.636375 74.836876 57.827 71.027501 57.827 66.333751 C 57.827 61.633751 61.636375 57.827501 66.33325 57.827501 C 71.030125 57.827501 74.836375 61.633751 74.836375 66.333751 Z M 74.836375 66.333751 " transform="matrix(1.25, 0, 0, -1.25, -3.15875, 107.393751)"/>
<path fill="none" stroke-width="0.99628" stroke-linecap="butt" stroke-linejoin="round" stroke="rgb(0%, 0%, 0%)" stroke-opacity="1" stroke-miterlimit="10" d="M 71.93325 80.436876 L 16.511375 80.436876 C 11.811375 80.436876 8.00825 76.630626 8.00825 71.933751 L 8.00825 16.508751 C 8.00825 11.811876 11.811375 8.005626 16.511375 8.005626 L 71.93325 8.005626 C 76.630125 8.005626 80.436375 11.811876 80.436375 16.508751 L 80.436375 71.933751 C 80.436375 76.630626 76.630125 80.436876 71.93325 80.436876 Z M 71.93325 80.436876 " transform="matrix(1.25, 0, 0, -1.25, -3.15875, 107.393751)"/>
<path fill-rule="nonzero" fill="rgb(40%, 80.784314%, 96.078431%)" fill-opacity="1" stroke-width="0.99628" stroke-linecap="butt" stroke-linejoin="round" stroke="rgb(0%, 0%, 0%)" stroke-opacity="1" stroke-miterlimit="10" d="M 115.655125 22.108751 C 115.655125 26.805626 111.848875 30.615001 107.152 30.615001 C 102.45825 30.615001 98.648875 26.805626 98.648875 22.108751 C 98.648875 17.415001 102.45825 13.605626 107.152 13.605626 C 111.848875 13.605626 115.655125 17.415001 115.655125 22.108751 Z M 115.655125 22.108751 " transform="matrix(1.25, 0, 0, -1.25, -3.15875, 107.393751)"/>
<path fill-rule="nonzero" fill="rgb(40%, 80.784314%, 96.078431%)" fill-opacity="1" stroke-width="0.99628" stroke-linecap="butt" stroke-linejoin="round" stroke="rgb(0%, 0%, 0%)" stroke-opacity="1" stroke-miterlimit="10" d="M 137.7645 44.218126 C 137.7645 48.918126 133.961375 52.727501 129.261375 52.727501 C 124.567625 52.727501 120.75825 48.918126 120.75825 44.218126 C 120.75825 39.524376 124.567625 35.715001 129.261375 35.715001 C 133.961375 35.715001 137.7645 39.524376 137.7645 44.218126 Z M 137.7645 44.218126 " transform="matrix(1.25, 0, 0, -1.25, -3.15875, 107.393751)"/>
<path fill-rule="nonzero" fill="rgb(40%, 80.784314%, 96.078431%)" fill-opacity="1" stroke-width="0.99628" stroke-linecap="butt" stroke-linejoin="round" stroke="rgb(0%, 0%, 0%)" stroke-opacity="1" stroke-miterlimit="10" d="M 159.877 66.333751 C 159.877 71.027501 156.07075 74.836876 151.373875 74.836876 C 146.673875 74.836876 142.87075 71.027501 142.87075 66.333751 C 142.87075 61.633751 146.673875 57.827501 151.373875 57.827501 C 156.07075 57.827501 159.877 61.633751 159.877 66.333751 Z M 159.877 66.333751 " transform="matrix(1.25, 0, 0, -1.25, -3.15875, 107.393751)"/>
<path fill="none" stroke-width="0.99628" stroke-linecap="butt" stroke-linejoin="round" stroke="rgb(0%, 0%, 0%)" stroke-opacity="1" stroke-miterlimit="10" d="M 156.977 80.436876 L 101.552 80.436876 C 96.855125 80.436876 93.04575 76.630626 93.04575 71.933751 L 93.04575 16.508751 C 93.04575 11.811876 96.855125 8.005626 101.552 8.005626 L 156.977 8.005626 C 161.67075 8.005626 165.480125 11.811876 165.480125 16.508751 L 165.480125 71.933751 C 165.480125 76.630626 161.67075 80.436876 156.977 80.436876 Z M 156.977 80.436876 " transform="matrix(1.25, 0, 0, -1.25, -3.15875, 107.393751)"/>
</svg>
