<?xml version="1.0" encoding="UTF-8"?>
<svg xmlns="http://www.w3.org/2000/svg" xmlns:xlink="http://www.w3.org/1999/xlink" width="142.349" height="71.483" viewBox="0 0 142.349 71.483">
<path fill-rule="nonzero" fill="rgb(40.000916%, 80.703735%, 96.237183%)" fill-opacity="1" stroke-width="0.99628" stroke-linecap="butt" stroke-linejoin="round" stroke="rgb(0%, 0%, 0%)" stroke-opacity="1" stroke-miterlimit="10" d="M 25.511344 18.424031 C 25.511344 22.338094 22.339469 25.513875 18.425406 25.513875 C 14.511344 25.513875 11.339469 22.338094 11.339469 18.424031 C 11.339469 14.509969 14.511344 11.338094 18.425406 11.338094 C 22.339469 11.338094 25.511344 14.509969 25.511344 18.424031 Z M 25.511344 18.424031 " transform="matrix(1, 0, 0, -1, -1.109, 72.592)"/>
<path fill-rule="nonzero" fill="rgb(40.000916%, 80.703735%, 96.237183%)" fill-opacity="1" stroke-width="0.99628" stroke-linecap="butt" stroke-linejoin="round" stroke="rgb(0%, 0%, 0%)" stroke-opacity="1" stroke-miterlimit="10" d="M 43.937125 36.849812 C 43.937125 40.763875 40.76525 43.93575 36.851188 43.93575 C 32.937125 43.93575 29.76525 40.763875 29.76525 36.849812 C 29.76525 32.93575 32.937125 29.763875 36.851188 29.763875 C 40.76525 29.763875 43.937125 32.93575 43.937125 36.849812 Z M 43.937125 36.849812 " transform="matrix(1, 0, 0, -1, -1.109, 72.592)"/>
<path fill-rule="nonzero" fill="rgb(40.000916%, 80.703735%, 96.237183%)" fill-opacity="1" stroke-width="0.99628" stroke-linecap="butt" stroke-linejoin="round" stroke="rgb(0%, 0%, 0%)" stroke-opacity="1" stroke-miterlimit="10" d="M 62.362906 55.275594 C 62.362906 59.189656 59.191031 62.361531 55.276969 62.361531 C 51.362906 62.361531 48.191031 59.189656 48.191031 55.275594 C 48.191031 51.361531 51.362906 48.189656 55.276969 48.189656 C 59.191031 48.189656 62.362906 51.361531 62.362906 55.275594 Z M 62.362906 55.275594 " transform="matrix(1, 0, 0, -1, -1.109, 72.592)"/>
<path fill="none" stroke-width="0.99628" stroke-linecap="butt" stroke-linejoin="round" stroke="rgb(0%, 0%, 0%)" stroke-opacity="1" stroke-miterlimit="10" d="M 60.026969 67.111531 L 13.675406 67.111531 C 9.761344 67.111531 6.589469 63.939656 6.589469 60.025594 L 6.589469 13.674031 C 6.589469 9.759969 9.761344 6.588094 13.675406 6.588094 L 60.026969 6.588094 C 63.941031 6.588094 67.112906 9.759969 67.112906 13.674031 L 67.112906 60.025594 C 67.112906 63.939656 63.941031 67.111531 60.026969 67.111531 Z M 60.026969 67.111531 " transform="matrix(1, 0, 0, -1, -1.109, 72.592)"/>
<path fill-rule="nonzero" fill="rgb(40.000916%, 80.703735%, 96.237183%)" fill-opacity="1" stroke-width="0.99628" stroke-linecap="butt" stroke-linejoin="round" stroke="rgb(0%, 0%, 0%)" stroke-opacity="1" stroke-miterlimit="10" d="M 96.378531 18.424031 C 96.378531 22.338094 93.206656 25.513875 89.292594 25.513875 C 85.378531 25.513875 82.206656 22.338094 82.206656 18.424031 C 82.206656 14.509969 85.378531 11.338094 89.292594 11.338094 C 93.206656 11.338094 96.378531 14.509969 96.378531 18.424031 Z M 96.378531 18.424031 " transform="matrix(1, 0, 0, -1, -1.109, 72.592)"/>
<path fill-rule="nonzero" fill="rgb(40.000916%, 80.703735%, 96.237183%)" fill-opacity="1" stroke-width="0.99628" stroke-linecap="butt" stroke-linejoin="round" stroke="rgb(0%, 0%, 0%)" stroke-opacity="1" stroke-miterlimit="10" d="M 114.804312 36.849812 C 114.804312 40.763875 111.632437 43.93575 107.718375 43.93575 C 103.804312 43.93575 100.632437 40.763875 100.632437 36.849812 C 100.632437 32.93575 103.804312 29.763875 107.718375 29.763875 C 111.632437 29.763875 114.804312 32.93575 114.804312 36.849812 Z M 114.804312 36.849812 " transform="matrix(1, 0, 0, -1, -1.109, 72.592)"/>
<path fill-rule="nonzero" fill="rgb(40.000916%, 80.703735%, 96.237183%)" fill-opacity="1" stroke-width="0.99628" stroke-linecap="butt" stroke-linejoin="round" stroke="rgb(0%, 0%, 0%)" stroke-opacity="1" stroke-miterlimit="10" d="M 133.230094 55.275594 C 133.230094 59.189656 130.058219 62.361531 126.144156 62.361531 C 122.230094 62.361531 119.058219 59.189656 119.058219 55.275594 C 119.058219 51.361531 122.230094 48.189656 126.144156 48.189656 C 130.058219 48.189656 133.230094 51.361531 133.230094 55.275594 Z M 133.230094 55.275594 " transform="matrix(1, 0, 0, -1, -1.109, 72.592)"/>
<path fill="none" stroke-width="0.99628" stroke-linecap="butt" stroke-linejoin="round" stroke="rgb(0%, 0%, 0%)" stroke-opacity="1" stroke-miterlimit="10" d="M 130.894156 67.111531 L 84.542594 67.111531 C 80.628531 67.111531 77.456656 63.939656 77.456656 60.025594 L 77.456656 13.674031 C 77.456656 9.759969 80.628531 6.588094 84.542594 6.588094 L 130.894156 6.588094 C 134.808219 6.588094 137.980094 9.759969 137.980094 13.674031 L 137.980094 60.025594 C 137.980094 63.939656 134.808219 67.111531 130.894156 67.111531 Z M 130.894156 67.111531 " transform="matrix(1, 0, 0, -1, -1.109, 72.592)"/>
</svg>
