<?xml version="1.0" encoding="UTF-8"?>
<svg xmlns="http://www.w3.org/2000/svg" xmlns:xlink="http://www.w3.org/1999/xlink" width="316.836243" height="210.536251" viewBox="0 0 316.836243 210.536251">
<path fill-rule="nonzero" fill="rgb(40%, 80.784314%, 96.078431%)" fill-opacity="1" stroke-width="0.99628" stroke-linecap="butt" stroke-linejoin="round" stroke="rgb(0%, 0%, 0%)" stroke-opacity="1" stroke-miterlimit="10" d="M 30.614125 22.109998 C 30.614125 26.806873 26.80475 30.616248 22.111 30.616248 C 17.414125 30.616248 13.607875 26.806873 13.607875 22.109998 C 13.607875 17.416248 17.414125 13.606873 22.111 13.606873 C 26.80475 13.606873 30.614125 17.416248 30.614125 22.109998 Z M 30.614125 22.109998 " transform="matrix(1.25, 0, 0, -1.25, 103.1425, 160.543747)"/>
<path fill-rule="nonzero" fill="rgb(40%, 80.784314%, 96.078431%)" fill-opacity="1" stroke-width="0.99628" stroke-linecap="butt" stroke-linejoin="round" stroke="rgb(0%, 0%, 0%)" stroke-opacity="1" stroke-miterlimit="10" d="M 52.7235 44.219373 C 52.7235 48.919373 48.920375 52.725623 44.220375 52.725623 C 39.5235 52.725623 35.71725 48.919373 35.71725 44.219373 C 35.71725 39.525623 39.5235 35.716248 44.220375 35.716248 C 48.920375 35.716248 52.7235 39.525623 52.7235 44.219373 Z M 52.7235 44.219373 " transform="matrix(1.25, 0, 0, -1.25, 103.1425, 160.543747)"/>
<path fill-rule="nonzero" fill="rgb(40%, 80.784314%, 96.078431%)" fill-opacity="1" stroke-width="0.99628" stroke-linecap="butt" stroke-linejoin="round" stroke="rgb(0%, 0%, 0%)" stroke-opacity="1" stroke-miterlimit="10" d="M 74.836 66.334998 C 74.836 71.028748 71.02975 74.838123 66.332875 74.838123 C 61.632875 74.838123 57.82975 71.028748 57.82975 66.334998 C 57.82975 61.634998 61.632875 57.828748 66.332875 57.828748 C 71.02975 57.828748 74.836 61.634998 74.836 66.334998 Z M 74.836 66.334998 " transform="matrix(1.25, 0, 0, -1.25, 103.1425, 160.543747)"/>
<path fill-rule="nonzero" fill="rgb(40%, 80.784314%, 96.078431%)" fill-opacity="1" stroke-width="0.99628" stroke-linecap="butt" stroke-linejoin="round" stroke="rgb(0%, 0%, 0%)" stroke-opacity="1" stroke-miterlimit="10" d="M 30.614125 66.334998 C 30.614125 71.028748 26.80475 74.838123 22.111 74.838123 C 17.414125 74.838123 13.607875 71.028748 13.607875 66.334998 C 13.607875 61.634998 17.414125 57.828748 22.111 57.828748 C 26.80475 57.828748 30.614125 61.634998 30.614125 66.334998 Z M 30.614125 66.334998 " transform="matrix(1.25, 0, 0, -1.25, 103.1425, 160.543747)"/>
<path fill-rule="nonzero" fill="rgb(40%, 80.784314%, 96.078431%)" fill-opacity="1" stroke-width="0.99628" stroke-linecap="butt" stroke-linejoin="round" stroke="rgb(0%, 0%, 0%)" stroke-opacity="1" stroke-miterlimit="10" d="M 74.836 22.109998 C 74.836 26.806873 71.02975 30.616248 66.332875 30.616248 C 61.632875 30.616248 57.82975 26.806873 57.82975 22.109998 C 57.82975 17.416248 61.632875 13.606873 66.332875 13.606873 C 71.02975 13.606873 74.836 17.416248 74.836 22.109998 Z M 74.836 22.109998 " transform="matrix(1.25, 0, 0, -1.25, 103.1425, 160.543747)"/>
<path fill="none" stroke-width="0.99628" stroke-linecap="butt" stroke-linejoin="round" stroke="rgb(0%, 0%, 0%)" stroke-opacity="1" stroke-miterlimit="10" d="M 71.92975 80.438123 L 16.507875 80.438123 C 11.814125 80.438123 8.00475 76.631873 8.00475 71.931873 L 8.00475 16.509998 C 8.00475 11.813123 11.814125 8.006873 16.507875 8.006873 L 71.92975 8.006873 C 76.62975 8.006873 80.436 11.813123 80.436 16.509998 L 80.436 71.931873 C 80.436 76.631873 76.62975 80.438123 71.92975 80.438123 Z M 71.92975 80.438123 " transform="matrix(1.25, 0, 0, -1.25, 103.1425, 160.543747)"/>
<path fill-rule="nonzero" fill="rgb(40%, 80.784314%, 96.078431%)" fill-opacity="1" stroke-width="0.99628" stroke-linecap="butt" stroke-linejoin="round" stroke="rgb(0%, 0%, 0%)" stroke-opacity="1" stroke-miterlimit="10" d="M 115.657875 64.631873 C 115.657875 69.328748 111.8485 73.134998 107.15475 73.134998 C 102.45475 73.134998 98.645375 69.328748 98.645375 64.631873 C 98.645375 59.934998 102.45475 56.125623 107.15475 56.125623 C 111.8485 56.125623 115.657875 59.934998 115.657875 64.631873 Z M 115.657875 64.631873 " transform="matrix(1.25, 0, 0, -1.25, 103.1425, 160.543747)"/>
<path fill-rule="nonzero" fill="rgb(40%, 80.784314%, 96.078431%)" fill-opacity="1" stroke-width="0.99628" stroke-linecap="butt" stroke-linejoin="round" stroke="rgb(0%, 0%, 0%)" stroke-opacity="1" stroke-miterlimit="10" d="M 137.76725 86.744373 C 137.76725 91.438123 133.957875 95.247498 129.264125 95.247498 C 124.56725 95.247498 120.757875 91.438123 120.757875 86.744373 C 120.757875 82.044373 124.56725 78.241248 129.264125 78.241248 C 133.957875 78.241248 137.76725 82.044373 137.76725 86.744373 Z M 137.76725 86.744373 " transform="matrix(1.25, 0, 0, -1.25, 103.1425, 160.543747)"/>
<path fill-rule="nonzero" fill="rgb(40%, 80.784314%, 96.078431%)" fill-opacity="1" stroke-width="0.99628" stroke-linecap="butt" stroke-linejoin="round" stroke="rgb(0%, 0%, 0%)" stroke-opacity="1" stroke-miterlimit="10" d="M 159.876625 108.853748 C 159.876625 113.547498 156.070375 117.356873 151.3735 117.356873 C 146.676625 117.356873 142.86725 113.547498 142.86725 108.853748 C 142.86725 104.156873 146.676625 100.350623 151.3735 100.350623 C 156.070375 100.350623 159.876625 104.156873 159.876625 108.853748 Z M 159.876625 108.853748 " transform="matrix(1.25, 0, 0, -1.25, 103.1425, 160.543747)"/>
<path fill-rule="nonzero" fill="rgb(40%, 80.784314%, 96.078431%)" fill-opacity="1" stroke-width="0.99628" stroke-linecap="butt" stroke-linejoin="round" stroke="rgb(0%, 0%, 0%)" stroke-opacity="1" stroke-miterlimit="10" d="M 115.657875 108.853748 C 115.657875 113.547498 111.8485 117.356873 107.15475 117.356873 C 102.45475 117.356873 98.645375 113.547498 98.645375 108.853748 C 98.645375 104.156873 102.45475 100.350623 107.15475 100.350623 C 111.8485 100.350623 115.657875 104.156873 115.657875 108.853748 Z M 115.657875 108.853748 " transform="matrix(1.25, 0, 0, -1.25, 103.1425, 160.543747)"/>
<path fill-rule="nonzero" fill="rgb(40%, 80.784314%, 96.078431%)" fill-opacity="1" stroke-width="0.99628" stroke-linecap="butt" stroke-linejoin="round" stroke="rgb(0%, 0%, 0%)" stroke-opacity="1" stroke-miterlimit="10" d="M 159.876625 64.631873 C 159.876625 69.328748 156.070375 73.134998 151.3735 73.134998 C 146.676625 73.134998 142.86725 69.328748 142.86725 64.631873 C 142.86725 59.934998 146.676625 56.125623 151.3735 56.125623 C 156.070375 56.125623 159.876625 59.934998 159.876625 64.631873 Z M 159.876625 64.631873 " transform="matrix(1.25, 0, 0, -1.25, 103.1425, 160.543747)"/>
<path fill="none" stroke-width="0.99628" stroke-linecap="butt" stroke-linejoin="round" stroke="rgb(0%, 0%, 0%)" stroke-opacity="1" stroke-miterlimit="10" d="M 156.9735 122.959998 L 101.551625 122.959998 C 96.851625 122.959998 93.0485 119.150623 93.0485 114.453748 L 93.0485 59.031873 C 93.0485 54.334998 96.851625 50.525623 101.551625 50.525623 L 156.9735 50.525623 C 161.670375 50.525623 165.476625 54.334998 165.476625 59.031873 L 165.476625 114.453748 C 165.476625 119.150623 161.670375 122.959998 156.9735 122.959998 Z M 156.9735 122.959998 " transform="matrix(1.25, 0, 0, -1.25, 103.1425, 160.543747)"/>
<path fill-rule="nonzero" fill="rgb(40%, 80.784314%, 96.078431%)" fill-opacity="1" stroke-width="0.99628" stroke-linecap="butt" stroke-linejoin="round" stroke="rgb(0%, 0%, 0%)" stroke-opacity="1" stroke-miterlimit="10" d="M 115.657875 -20.408752 C 115.657875 -15.711877 111.8485 -11.905627 107.15475 -11.905627 C 102.45475 -11.905627 98.645375 -15.711877 98.645375 -20.408752 C 98.645375 -25.108752 102.45475 -28.911877 107.15475 -28.911877 C 111.8485 -28.911877 115.657875 -25.108752 115.657875 -20.408752 Z M 115.657875 -20.408752 " transform="matrix(1.25, 0, 0, -1.25, 103.1425, 160.543747)"/>
<path fill-rule="nonzero" fill="rgb(40%, 80.784314%, 96.078431%)" fill-opacity="1" stroke-width="0.99628" stroke-linecap="butt" stroke-linejoin="round" stroke="rgb(0%, 0%, 0%)" stroke-opacity="1" stroke-miterlimit="10" d="M 137.76725 1.700623 C 137.76725 6.397498 133.957875 10.203748 129.264125 10.203748 C 124.56725 10.203748 120.757875 6.397498 120.757875 1.700623 C 120.757875 -2.993127 124.56725 -6.802502 129.264125 -6.802502 C 133.957875 -6.802502 137.76725 -2.993127 137.76725 1.700623 Z M 137.76725 1.700623 " transform="matrix(1.25, 0, 0, -1.25, 103.1425, 160.543747)"/>
<path fill-rule="nonzero" fill="rgb(40%, 80.784314%, 96.078431%)" fill-opacity="1" stroke-width="0.99628" stroke-linecap="butt" stroke-linejoin="round" stroke="rgb(0%, 0%, 0%)" stroke-opacity="1" stroke-miterlimit="10" d="M 159.876625 23.809998 C 159.876625 28.509998 156.070375 32.313123 151.3735 32.313123 C 146.676625 32.313123 142.86725 28.509998 142.86725 23.809998 C 142.86725 19.116248 146.676625 15.306873 151.3735 15.306873 C 156.070375 15.306873 159.876625 19.116248 159.876625 23.809998 Z M 159.876625 23.809998 " transform="matrix(1.25, 0, 0, -1.25, 103.1425, 160.543747)"/>
<path fill-rule="nonzero" fill="rgb(40%, 80.784314%, 96.078431%)" fill-opacity="1" stroke-width="0.99628" stroke-linecap="butt" stroke-linejoin="round" stroke="rgb(0%, 0%, 0%)" stroke-opacity="1" stroke-miterlimit="10" d="M 115.657875 23.809998 C 115.657875 28.509998 111.8485 32.313123 107.15475 32.313123 C 102.45475 32.313123 98.645375 28.509998 98.645375 23.809998 C 98.645375 19.116248 102.45475 15.306873 107.15475 15.306873 C 111.8485 15.306873 115.657875 19.116248 115.657875 23.809998 Z M 115.657875 23.809998 " transform="matrix(1.25, 0, 0, -1.25, 103.1425, 160.543747)"/>
<path fill-rule="nonzero" fill="rgb(40%, 80.784314%, 96.078431%)" fill-opacity="1" stroke-width="0.99628" stroke-linecap="butt" stroke-linejoin="round" stroke="rgb(0%, 0%, 0%)" stroke-opacity="1" stroke-miterlimit="10" d="M 159.876625 -20.408752 C 159.876625 -15.711877 156.070375 -11.905627 151.3735 -11.905627 C 146.676625 -11.905627 142.86725 -15.711877 142.86725 -20.408752 C 142.86725 -25.108752 146.676625 -28.911877 151.3735 -28.911877 C 156.070375 -28.911877 159.876625 -25.108752 159.876625 -20.408752 Z M 159.876625 -20.408752 " transform="matrix(1.25, 0, 0, -1.25, 103.1425, 160.543747)"/>
<path fill="none" stroke-width="0.99628" stroke-linecap="butt" stroke-linejoin="round" stroke="rgb(0%, 0%, 0%)" stroke-opacity="1" stroke-miterlimit="10" d="M 156.9735 37.916248 L 101.551625 37.916248 C 96.851625 37.916248 93.0485 34.109998 93.0485 29.413123 L 93.0485 -26.008752 C 93.0485 -30.705627 96.851625 -34.515002 101.551625 -34.515002 L 156.9735 -34.515002 C 161.670375 -34.515002 165.476625 -30.705627 165.476625 -26.008752 L 165.476625 29.413123 C 165.476625 34.109998 161.670375 37.916248 156.9735 37.916248 Z M 156.9735 37.916248 " transform="matrix(1.25, 0, 0, -1.25, 103.1425, 160.543747)"/>
<path fill-rule="nonzero" fill="rgb(40%, 80.784314%, 96.078431%)" fill-opacity="1" stroke-width="0.99628" stroke-linecap="butt" stroke-linejoin="round" stroke="rgb(0%, 0%, 0%)" stroke-opacity="1" stroke-miterlimit="10" d="M -54.429625 64.631873 C -54.429625 69.328748 -58.23275 73.134998 -62.93275 73.134998 C -67.6265 73.134998 -71.435875 69.328748 -71.435875 64.631873 C -71.435875 59.934998 -67.6265 56.125623 -62.93275 56.125623 C -58.23275 56.125623 -54.429625 59.934998 -54.429625 64.631873 Z M -54.429625 64.631873 " transform="matrix(1.25, 0, 0, -1.25, 103.1425, 160.543747)"/>
<path fill-rule="nonzero" fill="rgb(40%, 80.784314%, 96.078431%)" fill-opacity="1" stroke-width="0.99628" stroke-linecap="butt" stroke-linejoin="round" stroke="rgb(0%, 0%, 0%)" stroke-opacity="1" stroke-miterlimit="10" d="M -32.314 86.744373 C -32.314 91.438123 -36.123375 95.247498 -40.82025 95.247498 C -45.517125 95.247498 -49.323375 91.438123 -49.323375 86.744373 C -49.323375 82.044373 -45.517125 78.241248 -40.82025 78.241248 C -36.123375 78.241248 -32.314 82.044373 -32.314 86.744373 Z M -32.314 86.744373 " transform="matrix(1.25, 0, 0, -1.25, 103.1425, 160.543747)"/>
<path fill-rule="nonzero" fill="rgb(40%, 80.784314%, 96.078431%)" fill-opacity="1" stroke-width="0.99628" stroke-linecap="butt" stroke-linejoin="round" stroke="rgb(0%, 0%, 0%)" stroke-opacity="1" stroke-miterlimit="10" d="M -10.204625 108.853748 C -10.204625 113.547498 -14.014 117.356873 -18.710875 117.356873 C -23.404625 117.356873 -27.214 113.547498 -27.214 108.853748 C -27.214 104.156873 -23.404625 100.350623 -18.710875 100.350623 C -14.014 100.350623 -10.204625 104.156873 -10.204625 108.853748 Z M -10.204625 108.853748 " transform="matrix(1.25, 0, 0, -1.25, 103.1425, 160.543747)"/>
<path fill-rule="nonzero" fill="rgb(40%, 80.784314%, 96.078431%)" fill-opacity="1" stroke-width="0.99628" stroke-linecap="butt" stroke-linejoin="round" stroke="rgb(0%, 0%, 0%)" stroke-opacity="1" stroke-miterlimit="10" d="M -54.429625 108.853748 C -54.429625 113.547498 -58.23275 117.356873 -62.93275 117.356873 C -67.6265 117.356873 -71.435875 113.547498 -71.435875 108.853748 C -71.435875 104.156873 -67.6265 100.350623 -62.93275 100.350623 C -58.23275 100.350623 -54.429625 104.156873 -54.429625 108.853748 Z M -54.429625 108.853748 " transform="matrix(1.25, 0, 0, -1.25, 103.1425, 160.543747)"/>
<path fill-rule="nonzero" fill="rgb(40%, 80.784314%, 96.078431%)" fill-opacity="1" stroke-width="0.99628" stroke-linecap="butt" stroke-linejoin="round" stroke="rgb(0%, 0%, 0%)" stroke-opacity="1" stroke-miterlimit="10" d="M -10.204625 64.631873 C -10.204625 69.328748 -14.014 73.134998 -18.710875 73.134998 C -23.404625 73.134998 -27.214 69.328748 -27.214 64.631873 C -27.214 59.934998 -23.404625 56.125623 -18.710875 56.125623 C -14.014 56.125623 -10.204625 59.934998 -10.204625 64.631873 Z M -10.204625 64.631873 " transform="matrix(1.25, 0, 0, -1.25, 103.1425, 160.543747)"/>
<path fill="none" stroke-width="0.99628" stroke-linecap="butt" stroke-linejoin="round" stroke="rgb(0%, 0%, 0%)" stroke-opacity="1" stroke-miterlimit="10" d="M -13.10775 122.959998 L -68.529625 122.959998 C -73.229625 122.959998 -77.03275 119.150623 -77.03275 114.453748 L -77.03275 59.031873 C -77.03275 54.334998 -73.229625 50.525623 -68.529625 50.525623 L -13.10775 50.525623 C -8.414 50.525623 -4.604625 54.334998 -4.604625 59.031873 L -4.604625 114.453748 C -4.604625 119.150623 -8.414 122.959998 -13.10775 122.959998 Z M -13.10775 122.959998 " transform="matrix(1.25, 0, 0, -1.25, 103.1425, 160.543747)"/>
<path fill-rule="nonzero" fill="rgb(40%, 80.784314%, 96.078431%)" fill-opacity="1" stroke-width="0.99628" stroke-linecap="butt" stroke-linejoin="round" stroke="rgb(0%, 0%, 0%)" stroke-opacity="1" stroke-miterlimit="10" d="M -54.429625 -20.408752 C -54.429625 -15.711877 -58.23275 -11.905627 -62.93275 -11.905627 C -67.6265 -11.905627 -71.435875 -15.711877 -71.435875 -20.408752 C -71.435875 -25.108752 -67.6265 -28.911877 -62.93275 -28.911877 C -58.23275 -28.911877 -54.429625 -25.108752 -54.429625 -20.408752 Z M -54.429625 -20.408752 " transform="matrix(1.25, 0, 0, -1.25, 103.1425, 160.543747)"/>
<path fill-rule="nonzero" fill="rgb(40%, 80.784314%, 96.078431%)" fill-opacity="1" stroke-width="0.99628" stroke-linecap="butt" stroke-linejoin="round" stroke="rgb(0%, 0%, 0%)" stroke-opacity="1" stroke-miterlimit="10" d="M -32.314 1.700623 C -32.314 6.397498 -36.123375 10.203748 -40.82025 10.203748 C -45.517125 10.203748 -49.323375 6.397498 -49.323375 1.700623 C -49.323375 -2.993127 -45.517125 -6.802502 -40.82025 -6.802502 C -36.123375 -6.802502 -32.314 -2.993127 -32.314 1.700623 Z M -32.314 1.700623 " transform="matrix(1.25, 0, 0, -1.25, 103.1425, 160.543747)"/>
<path fill-rule="nonzero" fill="rgb(40%, 80.784314%, 96.078431%)" fill-opacity="1" stroke-width="0.99628" stroke-linecap="butt" stroke-linejoin="round" stroke="rgb(0%, 0%, 0%)" stroke-opacity="1" stroke-miterlimit="10" d="M -10.204625 23.809998 C -10.204625 28.509998 -14.014 32.313123 -18.710875 32.313123 C -23.404625 32.313123 -27.214 28.509998 -27.214 23.809998 C -27.214 19.116248 -23.404625 15.306873 -18.710875 15.306873 C -14.014 15.306873 -10.204625 19.116248 -10.204625 23.809998 Z M -10.204625 23.809998 " transform="matrix(1.25, 0, 0, -1.25, 103.1425, 160.543747)"/>
<path fill-rule="nonzero" fill="rgb(40%, 80.784314%, 96.078431%)" fill-opacity="1" stroke-width="0.99628" stroke-linecap="butt" stroke-linejoin="round" stroke="rgb(0%, 0%, 0%)" stroke-opacity="1" stroke-miterlimit="10" d="M -54.429625 23.809998 C -54.429625 28.509998 -58.23275 32.313123 -62.93275 32.313123 C -67.6265 32.313123 -71.435875 28.509998 -71.435875 23.809998 C -71.435875 19.116248 -67.6265 15.306873 -62.93275 15.306873 C -58.23275 15.306873 -54.429625 19.116248 -54.429625 23.809998 Z M -54.429625 23.809998 " transform="matrix(1.25, 0, 0, -1.25, 103.1425, 160.543747)"/>
<path fill-rule="nonzero" fill="rgb(40%, 80.784314%, 96.078431%)" fill-opacity="1" stroke-width="0.99628" stroke-linecap="butt" stroke-linejoin="round" stroke="rgb(0%, 0%, 0%)" stroke-opacity="1" stroke-miterlimit="10" d="M -10.204625 -20.408752 C -10.204625 -15.711877 -14.014 -11.905627 -18.710875 -11.905627 C -23.404625 -11.905627 -27.214 -15.711877 -27.214 -20.408752 C -27.214 -25.108752 -23.404625 -28.911877 -18.710875 -28.911877 C -14.014 -28.911877 -10.204625 -25.108752 -10.204625 -20.408752 Z M -10.204625 -20.408752 " transform="matrix(1.25, 0, 0, -1.25, 103.1425, 160.543747)"/>
<path fill="none" stroke-width="0.99628" stroke-linecap="butt" stroke-linejoin="round" stroke="rgb(0%, 0%, 0%)" stroke-opacity="1" stroke-miterlimit="10" d="M -13.10775 37.916248 L -68.529625 37.916248 C -73.229625 37.916248 -77.03275 34.109998 -77.03275 29.413123 L -77.03275 -26.008752 C -77.03275 -30.705627 -73.229625 -34.515002 -68.529625 -34.515002 L -13.10775 -34.515002 C -8.414 -34.515002 -4.604625 -30.705627 -4.604625 -26.008752 L -4.604625 29.413123 C -4.604625 34.109998 -8.414 37.916248 -13.10775 37.916248 Z M -13.10775 37.916248 " transform="matrix(1.25, 0, 0, -1.25, 103.1425, 160.543747)"/>
</svg>
