<?xml version="1.0" encoding="UTF-8"?>
<svg xmlns="http://www.w3.org/2000/svg" xmlns:xlink="http://www.w3.org/1999/xlink" width="192.721504" height="97.744503" viewBox="0 0 192.721504 97.744503">
<path fill-rule="nonzero" fill="rgb(40%, 80.784314%, 96.078431%)" fill-opacity="1" stroke-width="0.74721" stroke-linecap="butt" stroke-linejoin="round" stroke="rgb(0%, 0%, 0%)" stroke-opacity="1" stroke-miterlimit="10" d="M -10.13148 -16.46327 C -10.13148 -12.965874 -12.964813 -10.129936 -16.464813 -10.129936 C -19.959605 -10.129936 -22.792938 -12.965874 -22.792938 -16.46327 C -22.792938 -19.958061 -19.959605 -22.793999 -16.464813 -22.793999 C -12.964813 -22.793999 -10.13148 -19.958061 -10.13148 -16.46327 Z M -10.13148 -16.46327 " transform="matrix(1.5, 0, 0, -1.5, 48.873001, 48.871502)"/>
<path fill-rule="nonzero" fill="rgb(40%, 80.784314%, 96.078431%)" fill-opacity="1" stroke-width="0.74721" stroke-linecap="butt" stroke-linejoin="round" stroke="rgb(0%, 0%, 0%)" stroke-opacity="1" stroke-miterlimit="10" d="M 6.332062 -0.00233205 C 6.332062 3.497668 3.496124 6.331001 0.0013326 6.331001 C -3.496063 6.331001 -6.332001 3.497668 -6.332001 -0.00233205 C -6.332001 -3.497124 -3.496063 -6.333061 0.0013326 -6.333061 C 3.496124 -6.333061 6.332062 -3.497124 6.332062 -0.00233205 Z M 6.332062 -0.00233205 " transform="matrix(1.5, 0, 0, -1.5, 48.873001, 48.871502)"/>
<path fill-rule="nonzero" fill="rgb(40%, 80.784314%, 96.078431%)" fill-opacity="1" stroke-width="0.74721" stroke-linecap="butt" stroke-linejoin="round" stroke="rgb(0%, 0%, 0%)" stroke-opacity="1" stroke-miterlimit="10" d="M 22.792999 16.463814 C 22.792999 19.958605 19.96227 22.794543 16.46227 22.794543 C 12.964874 22.794543 10.134145 19.958605 10.134145 16.463814 C 10.134145 12.966418 12.964874 10.13048 16.46227 10.13048 C 19.96227 10.13048 22.792999 12.966418 22.792999 16.463814 Z M 22.792999 16.463814 " transform="matrix(1.5, 0, 0, -1.5, 48.873001, 48.871502)"/>
<path fill="none" stroke-width="0.74721" stroke-linecap="butt" stroke-linejoin="round" stroke="rgb(0%, 0%, 0%)" stroke-opacity="1" stroke-miterlimit="10" d="M 20.894562 27.22423 L -20.894501 27.22423 C -24.389292 27.22423 -27.22523 24.393501 -27.22523 20.893501 L -27.22523 -20.895561 C -27.22523 -24.392957 -24.389292 -27.228895 -20.894501 -27.228895 L 20.894562 -27.228895 C 24.391958 -27.228895 27.227895 -24.392957 27.227895 -20.895561 L 27.227895 20.893501 C 27.227895 24.393501 24.391958 27.22423 20.894562 27.22423 Z M 20.894562 27.22423 " transform="matrix(1.5, 0, 0, -1.5, 48.873001, 48.871502)"/>
<path fill-rule="nonzero" fill="rgb(40%, 80.784314%, 96.078431%)" fill-opacity="1" stroke-width="0.74721" stroke-linecap="butt" stroke-linejoin="round" stroke="rgb(0%, 0%, 0%)" stroke-opacity="1" stroke-miterlimit="10" d="M 53.188833 -16.46327 C 53.188833 -12.965874 50.352895 -10.129936 46.855499 -10.129936 C 43.360708 -10.129936 40.52477 -12.965874 40.52477 -16.46327 C 40.52477 -19.958061 43.360708 -22.793999 46.855499 -22.793999 C 50.352895 -22.793999 53.188833 -19.958061 53.188833 -16.46327 Z M 53.188833 -16.46327 " transform="matrix(1.5, 0, 0, -1.5, 48.873001, 48.871502)"/>
<path fill-rule="nonzero" fill="rgb(40%, 80.784314%, 96.078431%)" fill-opacity="1" stroke-width="0.74721" stroke-linecap="butt" stroke-linejoin="round" stroke="rgb(0%, 0%, 0%)" stroke-opacity="1" stroke-miterlimit="10" d="M 69.652374 -0.00233205 C 69.652374 3.497668 66.816437 6.331001 63.321645 6.331001 C 59.821645 6.331001 56.988312 3.497668 56.988312 -0.00233205 C 56.988312 -3.497124 59.821645 -6.333061 63.321645 -6.333061 C 66.816437 -6.333061 69.652374 -3.497124 69.652374 -0.00233205 Z M 69.652374 -0.00233205 " transform="matrix(1.5, 0, 0, -1.5, 48.873001, 48.871502)"/>
<path fill-rule="nonzero" fill="rgb(40%, 80.784314%, 96.078431%)" fill-opacity="1" stroke-width="0.74721" stroke-linecap="butt" stroke-linejoin="round" stroke="rgb(0%, 0%, 0%)" stroke-opacity="1" stroke-miterlimit="10" d="M 86.113312 16.463814 C 86.113312 19.958605 83.277374 22.794543 79.782583 22.794543 C 76.285187 22.794543 73.449249 19.958605 73.449249 16.463814 C 73.449249 12.966418 76.285187 10.13048 79.782583 10.13048 C 83.277374 10.13048 86.113312 12.966418 86.113312 16.463814 Z M 86.113312 16.463814 " transform="matrix(1.5, 0, 0, -1.5, 48.873001, 48.871502)"/>
<path fill="none" stroke-width="0.74721" stroke-linecap="butt" stroke-linejoin="round" stroke="rgb(0%, 0%, 0%)" stroke-opacity="1" stroke-miterlimit="10" d="M 84.214874 27.22423 L 42.423208 27.22423 C 38.925812 27.22423 36.089874 24.393501 36.089874 20.893501 L 36.089874 -20.895561 C 36.089874 -24.392957 38.925812 -27.228895 42.423208 -27.228895 L 84.214874 -27.228895 C 87.71227 -27.228895 90.548208 -24.392957 90.548208 -20.895561 L 90.548208 20.893501 C 90.548208 24.393501 87.71227 27.22423 84.214874 27.22423 Z M 84.214874 27.22423 " transform="matrix(1.5, 0, 0, -1.5, 48.873001, 48.871502)"/>
</svg>
