<?xml version="1.0" encoding="UTF-8"?>
<svg xmlns="http://www.w3.org/2000/svg" xmlns:xlink="http://www.w3.org/1999/xlink" width="216.914997" height="91.479998" viewBox="0 0 216.914997 91.479998">
<path fill-rule="nonzero" fill="rgb(40%, 80.784314%, 96.078431%)" fill-opacity="1" stroke-width="0.99628" stroke-linecap="butt" stroke-linejoin="round" stroke="rgb(0%, 0%, 0%)" stroke-opacity="1" stroke-miterlimit="10" d="M 30.617625 22.113124 C 30.617625 26.806874 26.80825 30.616249 22.10825 30.616249 C 17.4145 30.616249 13.605125 26.806874 13.605125 22.113124 C 13.605125 17.413124 17.4145 13.609999 22.10825 13.609999 C 26.80825 13.609999 30.617625 17.413124 30.617625 22.113124 Z M 30.617625 22.113124 " transform="matrix(1.25, 0, 0, -1.25, -3.15875, 94.637499)"/>
<path fill-rule="nonzero" fill="rgb(40%, 80.784314%, 96.078431%)" fill-opacity="1" stroke-width="0.99628" stroke-linecap="butt" stroke-linejoin="round" stroke="rgb(0%, 0%, 0%)" stroke-opacity="1" stroke-miterlimit="10" d="M 52.727 22.113124 C 52.727 26.806874 48.917625 30.616249 44.223875 30.616249 C 39.523875 30.616249 35.717625 26.806874 35.717625 22.113124 C 35.717625 17.413124 39.523875 13.609999 44.223875 13.609999 C 48.917625 13.609999 52.727 17.413124 52.727 22.113124 Z M 52.727 22.113124 " transform="matrix(1.25, 0, 0, -1.25, -3.15875, 94.637499)"/>
<path fill="none" stroke-width="0.99628" stroke-linecap="butt" stroke-linejoin="round" stroke="rgb(0%, 0%, 0%)" stroke-opacity="1" stroke-miterlimit="10" d="M 49.823875 36.213124 L 16.511375 36.213124 C 11.811375 36.213124 8.00825 32.409999 8.00825 27.709999 L 8.00825 16.509999 C 8.00825 11.813124 11.811375 8.006874 16.511375 8.006874 L 49.823875 8.006874 C 54.52075 8.006874 58.327 11.813124 58.327 16.509999 L 58.327 27.709999 C 58.327 32.409999 54.52075 36.213124 49.823875 36.213124 Z M 49.823875 36.213124 " transform="matrix(1.25, 0, 0, -1.25, -3.15875, 94.637499)"/>
<path fill-rule="nonzero" fill="rgb(40%, 80.784314%, 96.078431%)" fill-opacity="1" stroke-width="0.99628" stroke-linecap="butt" stroke-linejoin="round" stroke="rgb(0%, 0%, 0%)" stroke-opacity="1" stroke-miterlimit="10" d="M 86.742625 22.113124 C 86.742625 26.806874 82.93325 30.616249 78.2395 30.616249 C 73.542625 30.616249 69.73325 26.806874 69.73325 22.113124 C 69.73325 17.413124 73.542625 13.609999 78.2395 13.609999 C 82.93325 13.609999 86.742625 17.413124 86.742625 22.113124 Z M 86.742625 22.113124 " transform="matrix(1.25, 0, 0, -1.25, -3.15875, 94.637499)"/>
<path fill-rule="nonzero" fill="rgb(40%, 80.784314%, 96.078431%)" fill-opacity="1" stroke-width="0.99628" stroke-linecap="butt" stroke-linejoin="round" stroke="rgb(0%, 0%, 0%)" stroke-opacity="1" stroke-miterlimit="10" d="M 108.852 22.113124 C 108.852 26.806874 105.04575 30.616249 100.348875 30.616249 C 95.652 30.616249 91.842625 26.806874 91.842625 22.113124 C 91.842625 17.413124 95.652 13.609999 100.348875 13.609999 C 105.04575 13.609999 108.852 17.413124 108.852 22.113124 Z M 108.852 22.113124 " transform="matrix(1.25, 0, 0, -1.25, -3.15875, 94.637499)"/>
<path fill="none" stroke-width="0.99628" stroke-linecap="butt" stroke-linejoin="round" stroke="rgb(0%, 0%, 0%)" stroke-opacity="1" stroke-miterlimit="10" d="M 105.948875 36.213124 L 72.636375 36.213124 C 67.942625 36.213124 64.13325 32.409999 64.13325 27.709999 L 64.13325 16.509999 C 64.13325 11.813124 67.942625 8.006874 72.636375 8.006874 L 105.948875 8.006874 C 110.648875 8.006874 114.452 11.813124 114.452 16.509999 L 114.452 27.709999 C 114.452 32.409999 110.648875 36.213124 105.948875 36.213124 Z M 105.948875 36.213124 " transform="matrix(1.25, 0, 0, -1.25, -3.15875, 94.637499)"/>
<path fill-rule="nonzero" fill="rgb(40%, 80.784314%, 96.078431%)" fill-opacity="1" stroke-width="0.99628" stroke-linecap="butt" stroke-linejoin="round" stroke="rgb(0%, 0%, 0%)" stroke-opacity="1" stroke-miterlimit="10" d="M 142.87075 22.113124 C 142.87075 26.806874 139.061375 30.616249 134.367625 30.616249 C 129.667625 30.616249 125.8645 26.806874 125.8645 22.113124 C 125.8645 17.413124 129.667625 13.609999 134.367625 13.609999 C 139.061375 13.609999 142.87075 17.413124 142.87075 22.113124 Z M 142.87075 22.113124 " transform="matrix(1.25, 0, 0, -1.25, -3.15875, 94.637499)"/>
<path fill-rule="nonzero" fill="rgb(40%, 80.784314%, 96.078431%)" fill-opacity="1" stroke-width="0.99628" stroke-linecap="butt" stroke-linejoin="round" stroke="rgb(0%, 0%, 0%)" stroke-opacity="1" stroke-miterlimit="10" d="M 164.980125 22.113124 C 164.980125 26.806874 161.17075 30.616249 156.477 30.616249 C 151.780125 30.616249 147.97075 26.806874 147.97075 22.113124 C 147.97075 17.413124 151.780125 13.609999 156.477 13.609999 C 161.17075 13.609999 164.980125 17.413124 164.980125 22.113124 Z M 164.980125 22.113124 " transform="matrix(1.25, 0, 0, -1.25, -3.15875, 94.637499)"/>
<path fill="none" stroke-width="0.99628" stroke-linecap="butt" stroke-linejoin="round" stroke="rgb(0%, 0%, 0%)" stroke-opacity="1" stroke-miterlimit="10" d="M 162.077 36.213124 L 128.7645 36.213124 C 124.07075 36.213124 120.261375 32.409999 120.261375 27.709999 L 120.261375 16.509999 C 120.261375 11.813124 124.07075 8.006874 128.7645 8.006874 L 162.077 8.006874 C 166.773875 8.006874 170.580125 11.813124 170.580125 16.509999 L 170.580125 27.709999 C 170.580125 32.409999 166.773875 36.213124 162.077 36.213124 Z M 162.077 36.213124 " transform="matrix(1.25, 0, 0, -1.25, -3.15875, 94.637499)"/>
<path fill-rule="nonzero" fill="rgb(40%, 80.784314%, 96.078431%)" fill-opacity="1" stroke-width="0.99628" stroke-linecap="butt" stroke-linejoin="round" stroke="rgb(0%, 0%, 0%)" stroke-opacity="1" stroke-miterlimit="10" d="M 30.617625 56.128749 C 30.617625 60.822499 26.80825 64.631874 22.10825 64.631874 C 17.4145 64.631874 13.605125 60.822499 13.605125 56.128749 C 13.605125 51.428749 17.4145 47.625624 22.10825 47.625624 C 26.80825 47.625624 30.617625 51.428749 30.617625 56.128749 Z M 30.617625 56.128749 " transform="matrix(1.25, 0, 0, -1.25, -3.15875, 94.637499)"/>
<path fill-rule="nonzero" fill="rgb(40%, 80.784314%, 96.078431%)" fill-opacity="1" stroke-width="0.99628" stroke-linecap="butt" stroke-linejoin="round" stroke="rgb(0%, 0%, 0%)" stroke-opacity="1" stroke-miterlimit="10" d="M 52.727 56.128749 C 52.727 60.822499 48.917625 64.631874 44.223875 64.631874 C 39.523875 64.631874 35.717625 60.822499 35.717625 56.128749 C 35.717625 51.428749 39.523875 47.625624 44.223875 47.625624 C 48.917625 47.625624 52.727 51.428749 52.727 56.128749 Z M 52.727 56.128749 " transform="matrix(1.25, 0, 0, -1.25, -3.15875, 94.637499)"/>
<path fill="none" stroke-width="0.99628" stroke-linecap="butt" stroke-linejoin="round" stroke="rgb(0%, 0%, 0%)" stroke-opacity="1" stroke-miterlimit="10" d="M 49.823875 70.234999 L 16.511375 70.234999 C 11.811375 70.234999 8.00825 66.425624 8.00825 61.728749 L 8.00825 50.525624 C 8.00825 45.831874 11.811375 42.022499 16.511375 42.022499 L 49.823875 42.022499 C 54.52075 42.022499 58.327 45.831874 58.327 50.525624 L 58.327 61.728749 C 58.327 66.425624 54.52075 70.234999 49.823875 70.234999 Z M 49.823875 70.234999 " transform="matrix(1.25, 0, 0, -1.25, -3.15875, 94.637499)"/>
<path fill-rule="nonzero" fill="rgb(40%, 80.784314%, 96.078431%)" fill-opacity="1" stroke-width="0.99628" stroke-linecap="butt" stroke-linejoin="round" stroke="rgb(0%, 0%, 0%)" stroke-opacity="1" stroke-miterlimit="10" d="M 86.742625 56.128749 C 86.742625 60.822499 82.93325 64.631874 78.2395 64.631874 C 73.542625 64.631874 69.73325 60.822499 69.73325 56.128749 C 69.73325 51.428749 73.542625 47.625624 78.2395 47.625624 C 82.93325 47.625624 86.742625 51.428749 86.742625 56.128749 Z M 86.742625 56.128749 " transform="matrix(1.25, 0, 0, -1.25, -3.15875, 94.637499)"/>
<path fill-rule="nonzero" fill="rgb(40%, 80.784314%, 96.078431%)" fill-opacity="1" stroke-width="0.99628" stroke-linecap="butt" stroke-linejoin="round" stroke="rgb(0%, 0%, 0%)" stroke-opacity="1" stroke-miterlimit="10" d="M 108.852 56.128749 C 108.852 60.822499 105.04575 64.631874 100.348875 64.631874 C 95.652 64.631874 91.842625 60.822499 91.842625 56.128749 C 91.842625 51.428749 95.652 47.625624 100.348875 47.625624 C 105.04575 47.625624 108.852 51.428749 108.852 56.128749 Z M 108.852 56.128749 " transform="matrix(1.25, 0, 0, -1.25, -3.15875, 94.637499)"/>
<path fill="none" stroke-width="0.99628" stroke-linecap="butt" stroke-linejoin="round" stroke="rgb(0%, 0%, 0%)" stroke-opacity="1" stroke-miterlimit="10" d="M 105.948875 70.234999 L 72.636375 70.234999 C 67.942625 70.234999 64.13325 66.425624 64.13325 61.728749 L 64.13325 50.525624 C 64.13325 45.831874 67.942625 42.022499 72.636375 42.022499 L 105.948875 42.022499 C 110.648875 42.022499 114.452 45.831874 114.452 50.525624 L 114.452 61.728749 C 114.452 66.425624 110.648875 70.234999 105.948875 70.234999 Z M 105.948875 70.234999 " transform="matrix(1.25, 0, 0, -1.25, -3.15875, 94.637499)"/>
<path fill-rule="nonzero" fill="rgb(40%, 80.784314%, 96.078431%)" fill-opacity="1" stroke-width="0.99628" stroke-linecap="butt" stroke-linejoin="round" stroke="rgb(0%, 0%, 0%)" stroke-opacity="1" stroke-miterlimit="10" d="M 142.87075 56.128749 C 142.87075 60.822499 139.061375 64.631874 134.367625 64.631874 C 129.667625 64.631874 125.8645 60.822499 125.8645 56.128749 C 125.8645 51.428749 129.667625 47.625624 134.367625 47.625624 C 139.061375 47.625624 142.87075 51.428749 142.87075 56.128749 Z M 142.87075 56.128749 " transform="matrix(1.25, 0, 0, -1.25, -3.15875, 94.637499)"/>
<path fill-rule="nonzero" fill="rgb(40%, 80.784314%, 96.078431%)" fill-opacity="1" stroke-width="0.99628" stroke-linecap="butt" stroke-linejoin="round" stroke="rgb(0%, 0%, 0%)" stroke-opacity="1" stroke-miterlimit="10" d="M 164.980125 56.128749 C 164.980125 60.822499 161.17075 64.631874 156.477 64.631874 C 151.780125 64.631874 147.97075 60.822499 147.97075 56.128749 C 147.97075 51.428749 151.780125 47.625624 156.477 47.625624 C 161.17075 47.625624 164.980125 51.428749 164.980125 56.128749 Z M 164.980125 56.128749 " transform="matrix(1.25, 0, 0, -1.25, -3.15875, 94.637499)"/>
<path fill="none" stroke-width="0.99628" stroke-linecap="butt" stroke-linejoin="round" stroke="rgb(0%, 0%, 0%)" stroke-opacity="1" stroke-miterlimit="10" d="M 162.077 70.234999 L 128.7645 70.234999 C 124.07075 70.234999 120.261375 66.425624 120.261375 61.728749 L 120.261375 50.525624 C 120.261375 45.831874 124.07075 42.022499 128.7645 42.022499 L 162.077 42.022499 C 166.773875 42.022499 170.580125 45.831874 170.580125 50.525624 L 170.580125 61.728749 C 170.580125 66.425624 166.773875 70.234999 162.077 70.234999 Z M 162.077 70.234999 " transform="matrix(1.25, 0, 0, -1.25, -3.15875, 94.637499)"/>
</svg>
