<?xml version="1.0" encoding="UTF-8"?>
<svg xmlns="http://www.w3.org/2000/svg" xmlns:xlink="http://www.w3.org/1999/xlink" width="192.721504" height="287.698494" viewBox="0 0 192.721504 287.698494">
<path fill-rule="nonzero" fill="rgb(40%, 80.784314%, 96.078431%)" fill-opacity="1" stroke-width="0.74721" stroke-linecap="butt" stroke-linejoin="round" stroke="rgb(0%, 0%, 0%)" stroke-opacity="1" stroke-miterlimit="10" d="M -10.13148 -16.462692 C -10.13148 -12.965296 -12.964813 -10.129359 -16.464813 -10.129359 C -19.959605 -10.129359 -22.792938 -12.965296 -22.792938 -16.462692 C -22.792938 -19.957484 -19.959605 -22.793421 -16.464813 -22.793421 C -12.964813 -22.793421 -10.13148 -19.957484 -10.13148 -16.462692 Z M -10.13148 -16.462692 " transform="matrix(1.5, 0, 0, -1.5, 48.873001, 238.825493)"/>
<path fill-rule="nonzero" fill="rgb(40%, 80.784314%, 96.078431%)" fill-opacity="1" stroke-width="0.74721" stroke-linecap="butt" stroke-linejoin="round" stroke="rgb(0%, 0%, 0%)" stroke-opacity="1" stroke-miterlimit="10" d="M 6.332062 -0.00175476 C 6.332062 3.498245 3.496124 6.331579 0.0013326 6.331579 C -3.496063 6.331579 -6.332001 3.498245 -6.332001 -0.00175476 C -6.332001 -3.496546 -3.496063 -6.332484 0.0013326 -6.332484 C 3.496124 -6.332484 6.332062 -3.496546 6.332062 -0.00175476 Z M 6.332062 -0.00175476 " transform="matrix(1.5, 0, 0, -1.5, 48.873001, 238.825493)"/>
<path fill-rule="nonzero" fill="rgb(40%, 80.784314%, 96.078431%)" fill-opacity="1" stroke-width="0.74721" stroke-linecap="butt" stroke-linejoin="round" stroke="rgb(0%, 0%, 0%)" stroke-opacity="1" stroke-miterlimit="10" d="M 22.792999 16.464391 C 22.792999 19.959183 19.96227 22.79512 16.46227 22.79512 C 12.964874 22.79512 10.134145 19.959183 10.134145 16.464391 C 10.134145 12.966995 12.964874 10.131058 16.46227 10.131058 C 19.96227 10.131058 22.792999 12.966995 22.792999 16.464391 Z M 22.792999 16.464391 " transform="matrix(1.5, 0, 0, -1.5, 48.873001, 238.825493)"/>
<path fill="none" stroke-width="0.74721" stroke-linecap="butt" stroke-linejoin="round" stroke="rgb(0%, 0%, 0%)" stroke-opacity="1" stroke-miterlimit="10" d="M 20.894562 27.230016 L -20.894501 27.230016 C -24.389292 27.230016 -27.22523 24.394079 -27.22523 20.896683 L -27.22523 -20.894984 C -27.22523 -24.39238 -24.389292 -27.228317 -20.894501 -27.228317 L 20.894562 -27.228317 C 24.391958 -27.228317 27.227895 -24.39238 27.227895 -20.894984 L 27.227895 20.896683 C 27.227895 24.394079 24.391958 27.230016 20.894562 27.230016 Z M 20.894562 27.230016 " transform="matrix(1.5, 0, 0, -1.5, 48.873001, 238.825493)"/>
<path fill-rule="nonzero" fill="rgb(40%, 80.784314%, 96.078431%)" fill-opacity="1" stroke-width="0.74721" stroke-linecap="butt" stroke-linejoin="round" stroke="rgb(0%, 0%, 0%)" stroke-opacity="1" stroke-miterlimit="10" d="M 53.188833 -16.462692 C 53.188833 -12.965296 50.352895 -10.129359 46.855499 -10.129359 C 43.360708 -10.129359 40.52477 -12.965296 40.52477 -16.462692 C 40.52477 -19.957484 43.360708 -22.793421 46.855499 -22.793421 C 50.352895 -22.793421 53.188833 -19.957484 53.188833 -16.462692 Z M 53.188833 -16.462692 " transform="matrix(1.5, 0, 0, -1.5, 48.873001, 238.825493)"/>
<path fill-rule="nonzero" fill="rgb(40%, 80.784314%, 96.078431%)" fill-opacity="1" stroke-width="0.74721" stroke-linecap="butt" stroke-linejoin="round" stroke="rgb(0%, 0%, 0%)" stroke-opacity="1" stroke-miterlimit="10" d="M 69.652374 -0.00175476 C 69.652374 3.498245 66.816437 6.331579 63.321645 6.331579 C 59.821645 6.331579 56.988312 3.498245 56.988312 -0.00175476 C 56.988312 -3.496546 59.821645 -6.332484 63.321645 -6.332484 C 66.816437 -6.332484 69.652374 -3.496546 69.652374 -0.00175476 Z M 69.652374 -0.00175476 " transform="matrix(1.5, 0, 0, -1.5, 48.873001, 238.825493)"/>
<path fill-rule="nonzero" fill="rgb(40%, 80.784314%, 96.078431%)" fill-opacity="1" stroke-width="0.74721" stroke-linecap="butt" stroke-linejoin="round" stroke="rgb(0%, 0%, 0%)" stroke-opacity="1" stroke-miterlimit="10" d="M 86.113312 16.464391 C 86.113312 19.959183 83.277374 22.79512 79.782583 22.79512 C 76.285187 22.79512 73.449249 19.959183 73.449249 16.464391 C 73.449249 12.966995 76.285187 10.131058 79.782583 10.131058 C 83.277374 10.131058 86.113312 12.966995 86.113312 16.464391 Z M 86.113312 16.464391 " transform="matrix(1.5, 0, 0, -1.5, 48.873001, 238.825493)"/>
<path fill="none" stroke-width="0.74721" stroke-linecap="butt" stroke-linejoin="round" stroke="rgb(0%, 0%, 0%)" stroke-opacity="1" stroke-miterlimit="10" d="M 84.214874 27.230016 L 42.423208 27.230016 C 38.925812 27.230016 36.089874 24.394079 36.089874 20.896683 L 36.089874 -20.894984 C 36.089874 -24.39238 38.925812 -27.228317 42.423208 -27.228317 L 84.214874 -27.228317 C 87.71227 -27.228317 90.548208 -24.39238 90.548208 -20.894984 L 90.548208 20.896683 C 90.548208 24.394079 87.71227 27.230016 84.214874 27.230016 Z M 84.214874 27.230016 " transform="matrix(1.5, 0, 0, -1.5, 48.873001, 238.825493)"/>
<path fill-rule="nonzero" fill="rgb(40%, 80.784314%, 96.078431%)" fill-opacity="1" stroke-width="0.74721" stroke-linecap="butt" stroke-linejoin="round" stroke="rgb(0%, 0%, 0%)" stroke-opacity="1" stroke-miterlimit="10" d="M -10.13148 46.85762 C -10.13148 50.355016 -12.964813 53.190954 -16.464813 53.190954 C -19.959605 53.190954 -22.792938 50.355016 -22.792938 46.85762 C -22.792938 43.35762 -19.959605 40.526891 -16.464813 40.526891 C -12.964813 40.526891 -10.13148 43.35762 -10.13148 46.85762 Z M -10.13148 46.85762 " transform="matrix(1.5, 0, 0, -1.5, 48.873001, 238.825493)"/>
<path fill-rule="nonzero" fill="rgb(40%, 80.784314%, 96.078431%)" fill-opacity="1" stroke-width="0.74721" stroke-linecap="butt" stroke-linejoin="round" stroke="rgb(0%, 0%, 0%)" stroke-opacity="1" stroke-miterlimit="10" d="M 6.332062 63.318558 C 6.332062 66.815954 3.496124 69.651891 0.0013326 69.651891 C -3.496063 69.651891 -6.332001 66.815954 -6.332001 63.318558 C -6.332001 59.823766 -3.496063 56.987829 0.0013326 56.987829 C 3.496124 56.987829 6.332062 59.823766 6.332062 63.318558 Z M 6.332062 63.318558 " transform="matrix(1.5, 0, 0, -1.5, 48.873001, 238.825493)"/>
<path fill-rule="nonzero" fill="rgb(40%, 80.784314%, 96.078431%)" fill-opacity="1" stroke-width="0.74721" stroke-linecap="butt" stroke-linejoin="round" stroke="rgb(0%, 0%, 0%)" stroke-opacity="1" stroke-miterlimit="10" d="M 22.792999 79.784704 C 22.792999 83.279495 19.96227 86.115433 16.46227 86.115433 C 12.964874 86.115433 10.134145 83.279495 10.134145 79.784704 C 10.134145 76.284704 12.964874 73.45137 16.46227 73.45137 C 19.96227 73.45137 22.792999 76.284704 22.792999 79.784704 Z M 22.792999 79.784704 " transform="matrix(1.5, 0, 0, -1.5, 48.873001, 238.825493)"/>
<path fill="none" stroke-width="0.74721" stroke-linecap="butt" stroke-linejoin="round" stroke="rgb(0%, 0%, 0%)" stroke-opacity="1" stroke-miterlimit="10" d="M 20.894562 90.54512 L -20.894501 90.54512 C -24.389292 90.54512 -27.22523 87.709183 -27.22523 84.214391 L -27.22523 42.425329 C -27.22523 38.927933 -24.389292 36.091995 -20.894501 36.091995 L 20.894562 36.091995 C 24.391958 36.091995 27.227895 38.927933 27.227895 42.425329 L 27.227895 84.214391 C 27.227895 87.709183 24.391958 90.54512 20.894562 90.54512 Z M 20.894562 90.54512 " transform="matrix(1.5, 0, 0, -1.5, 48.873001, 238.825493)"/>
<path fill-rule="nonzero" fill="rgb(40%, 80.784314%, 96.078431%)" fill-opacity="1" stroke-width="0.74721" stroke-linecap="butt" stroke-linejoin="round" stroke="rgb(0%, 0%, 0%)" stroke-opacity="1" stroke-miterlimit="10" d="M 53.188833 46.85762 C 53.188833 50.355016 50.352895 53.190954 46.855499 53.190954 C 43.360708 53.190954 40.52477 50.355016 40.52477 46.85762 C 40.52477 43.35762 43.360708 40.526891 46.855499 40.526891 C 50.352895 40.526891 53.188833 43.35762 53.188833 46.85762 Z M 53.188833 46.85762 " transform="matrix(1.5, 0, 0, -1.5, 48.873001, 238.825493)"/>
<path fill-rule="nonzero" fill="rgb(40%, 80.784314%, 96.078431%)" fill-opacity="1" stroke-width="0.74721" stroke-linecap="butt" stroke-linejoin="round" stroke="rgb(0%, 0%, 0%)" stroke-opacity="1" stroke-miterlimit="10" d="M 69.652374 63.318558 C 69.652374 66.815954 66.816437 69.651891 63.321645 69.651891 C 59.821645 69.651891 56.988312 66.815954 56.988312 63.318558 C 56.988312 59.823766 59.821645 56.987829 63.321645 56.987829 C 66.816437 56.987829 69.652374 59.823766 69.652374 63.318558 Z M 69.652374 63.318558 " transform="matrix(1.5, 0, 0, -1.5, 48.873001, 238.825493)"/>
<path fill-rule="nonzero" fill="rgb(40%, 80.784314%, 96.078431%)" fill-opacity="1" stroke-width="0.74721" stroke-linecap="butt" stroke-linejoin="round" stroke="rgb(0%, 0%, 0%)" stroke-opacity="1" stroke-miterlimit="10" d="M 86.113312 79.784704 C 86.113312 83.279495 83.277374 86.115433 79.782583 86.115433 C 76.285187 86.115433 73.449249 83.279495 73.449249 79.784704 C 73.449249 76.284704 76.285187 73.45137 79.782583 73.45137 C 83.277374 73.45137 86.113312 76.284704 86.113312 79.784704 Z M 86.113312 79.784704 " transform="matrix(1.5, 0, 0, -1.5, 48.873001, 238.825493)"/>
<path fill="none" stroke-width="0.74721" stroke-linecap="butt" stroke-linejoin="round" stroke="rgb(0%, 0%, 0%)" stroke-opacity="1" stroke-miterlimit="10" d="M 84.214874 90.54512 L 42.423208 90.54512 C 38.925812 90.54512 36.089874 87.709183 36.089874 84.214391 L 36.089874 42.425329 C 36.089874 38.927933 38.925812 36.091995 42.423208 36.091995 L 84.214874 36.091995 C 87.71227 36.091995 90.548208 38.927933 90.548208 42.425329 L 90.548208 84.214391 C 90.548208 87.709183 87.71227 90.54512 84.214874 90.54512 Z M 84.214874 90.54512 " transform="matrix(1.5, 0, 0, -1.5, 48.873001, 238.825493)"/>
<path fill-rule="nonzero" fill="rgb(40%, 80.784314%, 96.078431%)" fill-opacity="1" stroke-width="0.74721" stroke-linecap="butt" stroke-linejoin="round" stroke="rgb(0%, 0%, 0%)" stroke-opacity="1" stroke-miterlimit="10" d="M -10.13148 110.175329 C -10.13148 113.67012 -12.964813 116.506058 -16.464813 116.506058 C -19.959605 116.506058 -22.792938 113.67012 -22.792938 110.175329 C -22.792938 106.677933 -19.959605 103.841995 -16.464813 103.841995 C -12.964813 103.841995 -10.13148 106.677933 -10.13148 110.175329 Z M -10.13148 110.175329 " transform="matrix(1.5, 0, 0, -1.5, 48.873001, 238.825493)"/>
<path fill-rule="nonzero" fill="rgb(40%, 80.784314%, 96.078431%)" fill-opacity="1" stroke-width="0.74721" stroke-linecap="butt" stroke-linejoin="round" stroke="rgb(0%, 0%, 0%)" stroke-opacity="1" stroke-miterlimit="10" d="M 6.332062 126.63887 C 6.332062 130.136266 3.496124 132.972204 0.0013326 132.972204 C -3.496063 132.972204 -6.332001 130.136266 -6.332001 126.63887 C -6.332001 123.13887 -3.496063 120.308141 0.0013326 120.308141 C 3.496124 120.308141 6.332062 123.13887 6.332062 126.63887 Z M 6.332062 126.63887 " transform="matrix(1.5, 0, 0, -1.5, 48.873001, 238.825493)"/>
<path fill-rule="nonzero" fill="rgb(40%, 80.784314%, 96.078431%)" fill-opacity="1" stroke-width="0.74721" stroke-linecap="butt" stroke-linejoin="round" stroke="rgb(0%, 0%, 0%)" stroke-opacity="1" stroke-miterlimit="10" d="M 22.792999 143.099808 C 22.792999 146.597204 19.96227 149.433141 16.46227 149.433141 C 12.964874 149.433141 10.134145 146.597204 10.134145 143.099808 C 10.134145 139.605016 12.964874 136.769079 16.46227 136.769079 C 19.96227 136.769079 22.792999 139.605016 22.792999 143.099808 Z M 22.792999 143.099808 " transform="matrix(1.5, 0, 0, -1.5, 48.873001, 238.825493)"/>
<path fill="none" stroke-width="0.74721" stroke-linecap="butt" stroke-linejoin="round" stroke="rgb(0%, 0%, 0%)" stroke-opacity="1" stroke-miterlimit="10" d="M 20.894562 153.865433 L -20.894501 153.865433 C -24.389292 153.865433 -27.22523 151.029495 -27.22523 147.534704 L -27.22523 105.745641 C -27.22523 102.245641 -24.389292 99.412308 -20.894501 99.412308 L 20.894562 99.412308 C 24.391958 99.412308 27.227895 102.245641 27.227895 105.745641 L 27.227895 147.534704 C 27.227895 151.029495 24.391958 153.865433 20.894562 153.865433 Z M 20.894562 153.865433 " transform="matrix(1.5, 0, 0, -1.5, 48.873001, 238.825493)"/>
<path fill-rule="nonzero" fill="rgb(40%, 80.784314%, 96.078431%)" fill-opacity="1" stroke-width="0.74721" stroke-linecap="butt" stroke-linejoin="round" stroke="rgb(0%, 0%, 0%)" stroke-opacity="1" stroke-miterlimit="10" d="M 53.188833 110.175329 C 53.188833 113.67012 50.352895 116.506058 46.855499 116.506058 C 43.360708 116.506058 40.52477 113.67012 40.52477 110.175329 C 40.52477 106.677933 43.360708 103.841995 46.855499 103.841995 C 50.352895 103.841995 53.188833 106.677933 53.188833 110.175329 Z M 53.188833 110.175329 " transform="matrix(1.5, 0, 0, -1.5, 48.873001, 238.825493)"/>
<path fill-rule="nonzero" fill="rgb(40%, 80.784314%, 96.078431%)" fill-opacity="1" stroke-width="0.74721" stroke-linecap="butt" stroke-linejoin="round" stroke="rgb(0%, 0%, 0%)" stroke-opacity="1" stroke-miterlimit="10" d="M 69.652374 126.63887 C 69.652374 130.136266 66.816437 132.972204 63.321645 132.972204 C 59.821645 132.972204 56.988312 130.136266 56.988312 126.63887 C 56.988312 123.13887 59.821645 120.308141 63.321645 120.308141 C 66.816437 120.308141 69.652374 123.13887 69.652374 126.63887 Z M 69.652374 126.63887 " transform="matrix(1.5, 0, 0, -1.5, 48.873001, 238.825493)"/>
<path fill-rule="nonzero" fill="rgb(40%, 80.784314%, 96.078431%)" fill-opacity="1" stroke-width="0.74721" stroke-linecap="butt" stroke-linejoin="round" stroke="rgb(0%, 0%, 0%)" stroke-opacity="1" stroke-miterlimit="10" d="M 86.113312 143.099808 C 86.113312 146.597204 83.277374 149.433141 79.782583 149.433141 C 76.285187 149.433141 73.449249 146.597204 73.449249 143.099808 C 73.449249 139.605016 76.285187 136.769079 79.782583 136.769079 C 83.277374 136.769079 86.113312 139.605016 86.113312 143.099808 Z M 86.113312 143.099808 " transform="matrix(1.5, 0, 0, -1.5, 48.873001, 238.825493)"/>
<path fill="none" stroke-width="0.74721" stroke-linecap="butt" stroke-linejoin="round" stroke="rgb(0%, 0%, 0%)" stroke-opacity="1" stroke-miterlimit="10" d="M 84.214874 153.865433 L 42.423208 153.865433 C 38.925812 153.865433 36.089874 151.029495 36.089874 147.534704 L 36.089874 105.745641 C 36.089874 102.245641 38.925812 99.412308 42.423208 99.412308 L 84.214874 99.412308 C 87.71227 99.412308 90.548208 102.245641 90.548208 105.745641 L 90.548208 147.534704 C 90.548208 151.029495 87.71227 153.865433 84.214874 153.865433 Z M 84.214874 153.865433 " transform="matrix(1.5, 0, 0, -1.5, 48.873001, 238.825493)"/>
</svg>
