<?xml version="1.0" encoding="UTF-8"?>
<svg xmlns="http://www.w3.org/2000/svg" xmlns:xlink="http://www.w3.org/1999/xlink" width="253.128757" height="384.767258" viewBox="0 0 253.128757 384.767258">
<path fill-rule="nonzero" fill="rgb(40%, 80.784314%, 96.078431%)" fill-opacity="1" stroke-width="0.74721" stroke-linecap="butt" stroke-linejoin="round" stroke="rgb(0%, 0%, 0%)" stroke-opacity="1" stroke-miterlimit="10" d="M -12.035663 -19.559287 C -12.035663 -15.403037 -15.403966 -12.036966 -19.560216 -12.036966 C -23.712002 -12.036966 -27.078073 -15.403037 -27.078073 -19.559287 C -27.078073 -23.711073 -23.712002 -27.079376 -19.560216 -27.079376 C -15.403966 -27.079376 -12.035663 -23.711073 -12.035663 -19.559287 Z M -12.035663 -19.559287 " transform="matrix(1.75, 0, 0, -1.75, 60.746003, 324.021248)"/>
<path fill-rule="nonzero" fill="rgb(40%, 80.784314%, 96.078431%)" fill-opacity="1" stroke-width="0.74721" stroke-linecap="butt" stroke-linejoin="round" stroke="rgb(0%, 0%, 0%)" stroke-opacity="1" stroke-miterlimit="10" d="M 7.522373 -0.00125122 C 7.522373 4.154999 4.156302 7.523302 0.0000517709 7.523302 C -4.153966 7.523302 -7.520038 4.154999 -7.520038 -0.00125122 C -7.520038 -4.153037 -4.153966 -7.521341 0.0000517709 -7.521341 C 4.156302 -7.521341 7.522373 -4.153037 7.522373 -0.00125122 Z M 7.522373 -0.00125122 " transform="matrix(1.75, 0, 0, -1.75, 60.746003, 324.021248)"/>
<path fill-rule="nonzero" fill="rgb(40%, 80.784314%, 96.078431%)" fill-opacity="1" stroke-width="0.74721" stroke-linecap="butt" stroke-linejoin="round" stroke="rgb(0%, 0%, 0%)" stroke-opacity="1" stroke-miterlimit="10" d="M 27.080409 19.556784 C 27.080409 23.713034 23.714337 27.081338 19.558087 27.081338 C 15.406302 27.081338 12.033534 23.713034 12.033534 19.556784 C 12.033534 15.404999 15.406302 12.034463 19.558087 12.034463 C 23.714337 12.034463 27.080409 15.404999 27.080409 19.556784 Z M 27.080409 19.556784 " transform="matrix(1.75, 0, 0, -1.75, 60.746003, 324.021248)"/>
<path fill="none" stroke-width="0.74721" stroke-linecap="butt" stroke-linejoin="round" stroke="rgb(0%, 0%, 0%)" stroke-opacity="1" stroke-miterlimit="10" d="M 24.823712 32.346963 L -24.825841 32.346963 C -28.977627 32.346963 -32.343698 28.978659 -32.343698 24.822409 L -32.343698 -24.824912 C -32.343698 -28.976698 -28.977627 -32.345001 -24.825841 -32.345001 L 24.823712 -32.345001 C 28.979962 -32.345001 32.346034 -28.976698 32.346034 -24.824912 L 32.346034 24.822409 C 32.346034 28.978659 28.979962 32.346963 24.823712 32.346963 Z M 24.823712 32.346963 " transform="matrix(1.75, 0, 0, -1.75, 60.746003, 324.021248)"/>
<path fill-rule="nonzero" fill="rgb(40%, 80.784314%, 96.078431%)" fill-opacity="1" stroke-width="0.74721" stroke-linecap="butt" stroke-linejoin="round" stroke="rgb(0%, 0%, 0%)" stroke-opacity="1" stroke-miterlimit="10" d="M 63.187552 -19.559287 C 63.187552 -15.403037 59.819248 -12.036966 55.667462 -12.036966 C 51.511212 -12.036966 48.142909 -15.403037 48.142909 -19.559287 C 48.142909 -23.711073 51.511212 -27.079376 55.667462 -27.079376 C 59.819248 -27.079376 63.187552 -23.711073 63.187552 -19.559287 Z M 63.187552 -19.559287 " transform="matrix(1.75, 0, 0, -1.75, 60.746003, 324.021248)"/>
<path fill-rule="nonzero" fill="rgb(40%, 80.784314%, 96.078431%)" fill-opacity="1" stroke-width="0.74721" stroke-linecap="butt" stroke-linejoin="round" stroke="rgb(0%, 0%, 0%)" stroke-opacity="1" stroke-miterlimit="10" d="M 82.745587 -0.00125122 C 82.745587 4.154999 79.377284 7.523302 75.221034 7.523302 C 71.069248 7.523302 67.703177 4.154999 67.703177 -0.00125122 C 67.703177 -4.153037 71.069248 -7.521341 75.221034 -7.521341 C 79.377284 -7.521341 82.745587 -4.153037 82.745587 -0.00125122 Z M 82.745587 -0.00125122 " transform="matrix(1.75, 0, 0, -1.75, 60.746003, 324.021248)"/>
<path fill-rule="nonzero" fill="rgb(40%, 80.784314%, 96.078431%)" fill-opacity="1" stroke-width="0.74721" stroke-linecap="butt" stroke-linejoin="round" stroke="rgb(0%, 0%, 0%)" stroke-opacity="1" stroke-miterlimit="10" d="M 102.303623 19.556784 C 102.303623 23.713034 98.937552 27.081338 94.781302 27.081338 C 90.627284 27.081338 87.261212 23.713034 87.261212 19.556784 C 87.261212 15.404999 90.627284 12.034463 94.781302 12.034463 C 98.937552 12.034463 102.303623 15.404999 102.303623 19.556784 Z M 102.303623 19.556784 " transform="matrix(1.75, 0, 0, -1.75, 60.746003, 324.021248)"/>
<path fill="none" stroke-width="0.74721" stroke-linecap="butt" stroke-linejoin="round" stroke="rgb(0%, 0%, 0%)" stroke-opacity="1" stroke-miterlimit="10" d="M 100.046927 32.346963 L 50.401837 32.346963 C 46.245587 32.346963 42.877284 28.978659 42.877284 24.822409 L 42.877284 -24.824912 C 42.877284 -28.976698 46.245587 -32.345001 50.401837 -32.345001 L 100.046927 -32.345001 C 104.203177 -32.345001 107.569248 -28.976698 107.569248 -24.824912 L 107.569248 24.822409 C 107.569248 28.978659 104.203177 32.346963 100.046927 32.346963 Z M 100.046927 32.346963 " transform="matrix(1.75, 0, 0, -1.75, 60.746003, 324.021248)"/>
<path fill-rule="nonzero" fill="rgb(40%, 80.784314%, 96.078431%)" fill-opacity="1" stroke-width="0.74721" stroke-linecap="butt" stroke-linejoin="round" stroke="rgb(0%, 0%, 0%)" stroke-opacity="1" stroke-miterlimit="10" d="M -12.035663 55.666159 C -12.035663 59.820177 -15.403966 63.186249 -19.560216 63.186249 C -23.712002 63.186249 -27.078073 59.820177 -27.078073 55.666159 C -27.078073 51.509909 -23.712002 48.143838 -19.560216 48.143838 C -15.403966 48.143838 -12.035663 51.509909 -12.035663 55.666159 Z M -12.035663 55.666159 " transform="matrix(1.75, 0, 0, -1.75, 60.746003, 324.021248)"/>
<path fill-rule="nonzero" fill="rgb(40%, 80.784314%, 96.078431%)" fill-opacity="1" stroke-width="0.74721" stroke-linecap="butt" stroke-linejoin="round" stroke="rgb(0%, 0%, 0%)" stroke-opacity="1" stroke-miterlimit="10" d="M 7.522373 75.221963 C 7.522373 79.378213 4.156302 82.744284 0.0000517709 82.744284 C -4.153966 82.744284 -7.520038 79.378213 -7.520038 75.221963 C -7.520038 71.070177 -4.153966 67.701874 0.0000517709 67.701874 C 4.156302 67.701874 7.522373 71.070177 7.522373 75.221963 Z M 7.522373 75.221963 " transform="matrix(1.75, 0, 0, -1.75, 60.746003, 324.021248)"/>
<path fill-rule="nonzero" fill="rgb(40%, 80.784314%, 96.078431%)" fill-opacity="1" stroke-width="0.74721" stroke-linecap="butt" stroke-linejoin="round" stroke="rgb(0%, 0%, 0%)" stroke-opacity="1" stroke-miterlimit="10" d="M 27.080409 94.779999 C 27.080409 98.936249 23.714337 102.304552 19.558087 102.304552 C 15.406302 102.304552 12.033534 98.936249 12.033534 94.779999 C 12.033534 90.628213 15.406302 87.259909 19.558087 87.259909 C 23.714337 87.259909 27.080409 90.628213 27.080409 94.779999 Z M 27.080409 94.779999 " transform="matrix(1.75, 0, 0, -1.75, 60.746003, 324.021248)"/>
<path fill="none" stroke-width="0.74721" stroke-linecap="butt" stroke-linejoin="round" stroke="rgb(0%, 0%, 0%)" stroke-opacity="1" stroke-miterlimit="10" d="M 24.823712 107.570177 L -24.825841 107.570177 C -28.977627 107.570177 -32.343698 104.201874 -32.343698 100.045624 L -32.343698 50.400534 C -32.343698 46.244284 -28.977627 42.878213 -24.825841 42.878213 L 24.823712 42.878213 C 28.979962 42.878213 32.346034 46.244284 32.346034 50.400534 L 32.346034 100.045624 C 32.346034 104.201874 28.979962 107.570177 24.823712 107.570177 Z M 24.823712 107.570177 " transform="matrix(1.75, 0, 0, -1.75, 60.746003, 324.021248)"/>
<path fill-rule="nonzero" fill="rgb(40%, 80.784314%, 96.078431%)" fill-opacity="1" stroke-width="0.74721" stroke-linecap="butt" stroke-linejoin="round" stroke="rgb(0%, 0%, 0%)" stroke-opacity="1" stroke-miterlimit="10" d="M 63.187552 55.666159 C 63.187552 59.820177 59.819248 63.186249 55.667462 63.186249 C 51.511212 63.186249 48.142909 59.820177 48.142909 55.666159 C 48.142909 51.509909 51.511212 48.143838 55.667462 48.143838 C 59.819248 48.143838 63.187552 51.509909 63.187552 55.666159 Z M 63.187552 55.666159 " transform="matrix(1.75, 0, 0, -1.75, 60.746003, 324.021248)"/>
<path fill-rule="nonzero" fill="rgb(40%, 80.784314%, 96.078431%)" fill-opacity="1" stroke-width="0.74721" stroke-linecap="butt" stroke-linejoin="round" stroke="rgb(0%, 0%, 0%)" stroke-opacity="1" stroke-miterlimit="10" d="M 82.745587 75.221963 C 82.745587 79.378213 79.377284 82.744284 75.221034 82.744284 C 71.069248 82.744284 67.703177 79.378213 67.703177 75.221963 C 67.703177 71.070177 71.069248 67.701874 75.221034 67.701874 C 79.377284 67.701874 82.745587 71.070177 82.745587 75.221963 Z M 82.745587 75.221963 " transform="matrix(1.75, 0, 0, -1.75, 60.746003, 324.021248)"/>
<path fill-rule="nonzero" fill="rgb(40%, 80.784314%, 96.078431%)" fill-opacity="1" stroke-width="0.74721" stroke-linecap="butt" stroke-linejoin="round" stroke="rgb(0%, 0%, 0%)" stroke-opacity="1" stroke-miterlimit="10" d="M 102.303623 94.779999 C 102.303623 98.936249 98.937552 102.304552 94.781302 102.304552 C 90.627284 102.304552 87.261212 98.936249 87.261212 94.779999 C 87.261212 90.628213 90.627284 87.259909 94.781302 87.259909 C 98.937552 87.259909 102.303623 90.628213 102.303623 94.779999 Z M 102.303623 94.779999 " transform="matrix(1.75, 0, 0, -1.75, 60.746003, 324.021248)"/>
<path fill="none" stroke-width="0.74721" stroke-linecap="butt" stroke-linejoin="round" stroke="rgb(0%, 0%, 0%)" stroke-opacity="1" stroke-miterlimit="10" d="M 100.046927 107.570177 L 50.401837 107.570177 C 46.245587 107.570177 42.877284 104.201874 42.877284 100.045624 L 42.877284 50.400534 C 42.877284 46.244284 46.245587 42.878213 50.401837 42.878213 L 100.046927 42.878213 C 104.203177 42.878213 107.569248 46.244284 107.569248 50.400534 L 107.569248 100.045624 C 107.569248 104.201874 104.203177 107.570177 100.046927 107.570177 Z M 100.046927 107.570177 " transform="matrix(1.75, 0, 0, -1.75, 60.746003, 324.021248)"/>
<path fill-rule="nonzero" fill="rgb(40%, 80.784314%, 96.078431%)" fill-opacity="1" stroke-width="0.74721" stroke-linecap="butt" stroke-linejoin="round" stroke="rgb(0%, 0%, 0%)" stroke-opacity="1" stroke-miterlimit="10" d="M -12.035663 130.889374 C -12.035663 135.041159 -15.403966 138.409463 -19.560216 138.409463 C -23.712002 138.409463 -27.078073 135.041159 -27.078073 130.889374 C -27.078073 126.733124 -23.712002 123.367052 -19.560216 123.367052 C -15.403966 123.367052 -12.035663 126.733124 -12.035663 130.889374 Z M -12.035663 130.889374 " transform="matrix(1.75, 0, 0, -1.75, 60.746003, 324.021248)"/>
<path fill-rule="nonzero" fill="rgb(40%, 80.784314%, 96.078431%)" fill-opacity="1" stroke-width="0.74721" stroke-linecap="butt" stroke-linejoin="round" stroke="rgb(0%, 0%, 0%)" stroke-opacity="1" stroke-miterlimit="10" d="M 7.522373 150.447409 C 7.522373 154.601427 4.156302 157.967499 0.0000517709 157.967499 C -4.153966 157.967499 -7.520038 154.601427 -7.520038 150.447409 C -7.520038 146.291159 -4.153966 142.925088 0.0000517709 142.925088 C 4.156302 142.925088 7.522373 146.291159 7.522373 150.447409 Z M 7.522373 150.447409 " transform="matrix(1.75, 0, 0, -1.75, 60.746003, 324.021248)"/>
<path fill-rule="nonzero" fill="rgb(40%, 80.784314%, 96.078431%)" fill-opacity="1" stroke-width="0.74721" stroke-linecap="butt" stroke-linejoin="round" stroke="rgb(0%, 0%, 0%)" stroke-opacity="1" stroke-miterlimit="10" d="M 27.080409 170.003213 C 27.080409 174.159463 23.714337 177.525534 19.558087 177.525534 C 15.406302 177.525534 12.033534 174.159463 12.033534 170.003213 C 12.033534 165.851427 15.406302 162.483124 19.558087 162.483124 C 23.714337 162.483124 27.080409 165.851427 27.080409 170.003213 Z M 27.080409 170.003213 " transform="matrix(1.75, 0, 0, -1.75, 60.746003, 324.021248)"/>
<path fill="none" stroke-width="0.74721" stroke-linecap="butt" stroke-linejoin="round" stroke="rgb(0%, 0%, 0%)" stroke-opacity="1" stroke-miterlimit="10" d="M 24.823712 182.791159 L -24.825841 182.791159 C -28.977627 182.791159 -32.343698 179.425088 -32.343698 175.268838 L -32.343698 125.623749 C -32.343698 121.467499 -28.977627 118.101427 -24.825841 118.101427 L 24.823712 118.101427 C 28.979962 118.101427 32.346034 121.467499 32.346034 125.623749 L 32.346034 175.268838 C 32.346034 179.425088 28.979962 182.791159 24.823712 182.791159 Z M 24.823712 182.791159 " transform="matrix(1.75, 0, 0, -1.75, 60.746003, 324.021248)"/>
<path fill-rule="nonzero" fill="rgb(40%, 80.784314%, 96.078431%)" fill-opacity="1" stroke-width="0.74721" stroke-linecap="butt" stroke-linejoin="round" stroke="rgb(0%, 0%, 0%)" stroke-opacity="1" stroke-miterlimit="10" d="M 63.187552 130.889374 C 63.187552 135.041159 59.819248 138.409463 55.667462 138.409463 C 51.511212 138.409463 48.142909 135.041159 48.142909 130.889374 C 48.142909 126.733124 51.511212 123.367052 55.667462 123.367052 C 59.819248 123.367052 63.187552 126.733124 63.187552 130.889374 Z M 63.187552 130.889374 " transform="matrix(1.75, 0, 0, -1.75, 60.746003, 324.021248)"/>
<path fill-rule="nonzero" fill="rgb(40%, 80.784314%, 96.078431%)" fill-opacity="1" stroke-width="0.74721" stroke-linecap="butt" stroke-linejoin="round" stroke="rgb(0%, 0%, 0%)" stroke-opacity="1" stroke-miterlimit="10" d="M 82.745587 150.447409 C 82.745587 154.601427 79.377284 157.967499 75.221034 157.967499 C 71.069248 157.967499 67.703177 154.601427 67.703177 150.447409 C 67.703177 146.291159 71.069248 142.925088 75.221034 142.925088 C 79.377284 142.925088 82.745587 146.291159 82.745587 150.447409 Z M 82.745587 150.447409 " transform="matrix(1.75, 0, 0, -1.75, 60.746003, 324.021248)"/>
<path fill-rule="nonzero" fill="rgb(40%, 80.784314%, 96.078431%)" fill-opacity="1" stroke-width="0.74721" stroke-linecap="butt" stroke-linejoin="round" stroke="rgb(0%, 0%, 0%)" stroke-opacity="1" stroke-miterlimit="10" d="M 102.303623 170.003213 C 102.303623 174.159463 98.937552 177.525534 94.781302 177.525534 C 90.627284 177.525534 87.261212 174.159463 87.261212 170.003213 C 87.261212 165.851427 90.627284 162.483124 94.781302 162.483124 C 98.937552 162.483124 102.303623 165.851427 102.303623 170.003213 Z M 102.303623 170.003213 " transform="matrix(1.75, 0, 0, -1.75, 60.746003, 324.021248)"/>
<path fill="none" stroke-width="0.74721" stroke-linecap="butt" stroke-linejoin="round" stroke="rgb(0%, 0%, 0%)" stroke-opacity="1" stroke-miterlimit="10" d="M 100.046927 182.791159 L 50.401837 182.791159 C 46.245587 182.791159 42.877284 179.425088 42.877284 175.268838 L 42.877284 125.623749 C 42.877284 121.467499 46.245587 118.101427 50.401837 118.101427 L 100.046927 118.101427 C 104.203177 118.101427 107.569248 121.467499 107.569248 125.623749 L 107.569248 175.268838 C 107.569248 179.425088 104.203177 182.791159 100.046927 182.791159 Z M 100.046927 182.791159 " transform="matrix(1.75, 0, 0, -1.75, 60.746003, 324.021248)"/>
</svg>
