<?xml version="1.0" encoding="UTF-8"?>
<svg xmlns="http://www.w3.org/2000/svg" xmlns:xlink="http://www.w3.org/1999/xlink" width="199.906254" height="76.598749" viewBox="0 0 199.906254 76.598749">
<path fill-rule="nonzero" fill="rgb(40%, 80.784314%, 96.078431%)" fill-opacity="1" stroke-width="0.99628" stroke-linecap="butt" stroke-linejoin="round" stroke="rgb(0%, 0%, 0%)" stroke-opacity="1" stroke-miterlimit="10" d="M 30.617625 22.11125 C 30.617625 26.808125 26.80825 30.614375 22.10825 30.614375 C 17.4145 30.614375 13.605125 26.808125 13.605125 22.11125 C 13.605125 17.414375 17.4145 13.605 22.10825 13.605 C 26.80825 13.605 30.617625 17.414375 30.617625 22.11125 Z M 30.617625 22.11125 " transform="matrix(1.25, 0, 0, -1.25, -3.15875, 79.75625)"/>
<path fill-rule="nonzero" fill="rgb(40%, 80.784314%, 96.078431%)" fill-opacity="1" stroke-width="0.99628" stroke-linecap="butt" stroke-linejoin="round" stroke="rgb(0%, 0%, 0%)" stroke-opacity="1" stroke-miterlimit="10" d="M 30.617625 44.22375 C 30.617625 48.9175 26.80825 52.726875 22.10825 52.726875 C 17.4145 52.726875 13.605125 48.9175 13.605125 44.22375 C 13.605125 39.52375 17.4145 35.720625 22.10825 35.720625 C 26.80825 35.720625 30.617625 39.52375 30.617625 44.22375 Z M 30.617625 44.22375 " transform="matrix(1.25, 0, 0, -1.25, -3.15875, 79.75625)"/>
<path fill-rule="nonzero" fill="rgb(40%, 80.784314%, 96.078431%)" fill-opacity="1" stroke-width="0.99628" stroke-linecap="butt" stroke-linejoin="round" stroke="rgb(0%, 0%, 0%)" stroke-opacity="1" stroke-miterlimit="10" d="M 52.727 22.11125 C 52.727 26.808125 48.917625 30.614375 44.223875 30.614375 C 39.523875 30.614375 35.717625 26.808125 35.717625 22.11125 C 35.717625 17.414375 39.523875 13.605 44.223875 13.605 C 48.917625 13.605 52.727 17.414375 52.727 22.11125 Z M 52.727 22.11125 " transform="matrix(1.25, 0, 0, -1.25, -3.15875, 79.75625)"/>
<path fill-rule="nonzero" fill="rgb(40%, 80.784314%, 96.078431%)" fill-opacity="1" stroke-width="0.99628" stroke-linecap="butt" stroke-linejoin="round" stroke="rgb(0%, 0%, 0%)" stroke-opacity="1" stroke-miterlimit="10" d="M 52.727 44.22375 C 52.727 48.9175 48.917625 52.726875 44.223875 52.726875 C 39.523875 52.726875 35.717625 48.9175 35.717625 44.22375 C 35.717625 39.52375 39.523875 35.720625 44.223875 35.720625 C 48.917625 35.720625 52.727 39.52375 52.727 44.22375 Z M 52.727 44.22375 " transform="matrix(1.25, 0, 0, -1.25, -3.15875, 79.75625)"/>
<path fill-rule="nonzero" fill="rgb(40%, 80.784314%, 96.078431%)" fill-opacity="1" stroke-width="0.99628" stroke-linecap="butt" stroke-linejoin="round" stroke="rgb(0%, 0%, 0%)" stroke-opacity="1" stroke-miterlimit="10" d="M 74.836375 22.11125 C 74.836375 26.808125 71.030125 30.614375 66.33325 30.614375 C 61.636375 30.614375 57.827 26.808125 57.827 22.11125 C 57.827 17.414375 61.636375 13.605 66.33325 13.605 C 71.030125 13.605 74.836375 17.414375 74.836375 22.11125 Z M 74.836375 22.11125 " transform="matrix(1.25, 0, 0, -1.25, -3.15875, 79.75625)"/>
<path fill-rule="nonzero" fill="rgb(40%, 80.784314%, 96.078431%)" fill-opacity="1" stroke-width="0.99628" stroke-linecap="butt" stroke-linejoin="round" stroke="rgb(0%, 0%, 0%)" stroke-opacity="1" stroke-miterlimit="10" d="M 74.836375 44.22375 C 74.836375 48.9175 71.030125 52.726875 66.33325 52.726875 C 61.636375 52.726875 57.827 48.9175 57.827 44.22375 C 57.827 39.52375 61.636375 35.720625 66.33325 35.720625 C 71.030125 35.720625 74.836375 39.52375 74.836375 44.22375 Z M 74.836375 44.22375 " transform="matrix(1.25, 0, 0, -1.25, -3.15875, 79.75625)"/>
<path fill="none" stroke-width="0.99628" stroke-linecap="butt" stroke-linejoin="round" stroke="rgb(0%, 0%, 0%)" stroke-opacity="1" stroke-miterlimit="10" d="M 71.93325 58.32375 L 16.511375 58.32375 C 11.811375 58.32375 8.00825 54.520625 8.00825 49.820625 L 8.00825 16.51125 C 8.00825 11.814375 11.811375 8.005 16.511375 8.005 L 71.93325 8.005 C 76.630125 8.005 80.436375 11.814375 80.436375 16.51125 L 80.436375 49.820625 C 80.436375 54.520625 76.630125 58.32375 71.93325 58.32375 Z M 71.93325 58.32375 " transform="matrix(1.25, 0, 0, -1.25, -3.15875, 79.75625)"/>
<path fill-rule="nonzero" fill="rgb(40%, 80.784314%, 96.078431%)" fill-opacity="1" stroke-width="0.99628" stroke-linecap="butt" stroke-linejoin="round" stroke="rgb(0%, 0%, 0%)" stroke-opacity="1" stroke-miterlimit="10" d="M 107.152 22.11125 C 107.152 26.808125 103.342625 30.614375 98.648875 30.614375 C 93.952 30.614375 90.14575 26.808125 90.14575 22.11125 C 90.14575 17.414375 93.952 13.605 98.648875 13.605 C 103.342625 13.605 107.152 17.414375 107.152 22.11125 Z M 107.152 22.11125 " transform="matrix(1.25, 0, 0, -1.25, -3.15875, 79.75625)"/>
<path fill-rule="nonzero" fill="rgb(40%, 80.784314%, 96.078431%)" fill-opacity="1" stroke-width="0.99628" stroke-linecap="butt" stroke-linejoin="round" stroke="rgb(0%, 0%, 0%)" stroke-opacity="1" stroke-miterlimit="10" d="M 107.152 44.22375 C 107.152 48.9175 103.342625 52.726875 98.648875 52.726875 C 93.952 52.726875 90.14575 48.9175 90.14575 44.22375 C 90.14575 39.52375 93.952 35.720625 98.648875 35.720625 C 103.342625 35.720625 107.152 39.52375 107.152 44.22375 Z M 107.152 44.22375 " transform="matrix(1.25, 0, 0, -1.25, -3.15875, 79.75625)"/>
<path fill-rule="nonzero" fill="rgb(40%, 80.784314%, 96.078431%)" fill-opacity="1" stroke-width="0.99628" stroke-linecap="butt" stroke-linejoin="round" stroke="rgb(0%, 0%, 0%)" stroke-opacity="1" stroke-miterlimit="10" d="M 129.261375 22.11125 C 129.261375 26.808125 125.45825 30.614375 120.75825 30.614375 C 116.061375 30.614375 112.255125 26.808125 112.255125 22.11125 C 112.255125 17.414375 116.061375 13.605 120.75825 13.605 C 125.45825 13.605 129.261375 17.414375 129.261375 22.11125 Z M 129.261375 22.11125 " transform="matrix(1.25, 0, 0, -1.25, -3.15875, 79.75625)"/>
<path fill-rule="nonzero" fill="rgb(40%, 80.784314%, 96.078431%)" fill-opacity="1" stroke-width="0.99628" stroke-linecap="butt" stroke-linejoin="round" stroke="rgb(0%, 0%, 0%)" stroke-opacity="1" stroke-miterlimit="10" d="M 129.261375 44.22375 C 129.261375 48.9175 125.45825 52.726875 120.75825 52.726875 C 116.061375 52.726875 112.255125 48.9175 112.255125 44.22375 C 112.255125 39.52375 116.061375 35.720625 120.75825 35.720625 C 125.45825 35.720625 129.261375 39.52375 129.261375 44.22375 Z M 129.261375 44.22375 " transform="matrix(1.25, 0, 0, -1.25, -3.15875, 79.75625)"/>
<path fill-rule="nonzero" fill="rgb(40%, 80.784314%, 96.078431%)" fill-opacity="1" stroke-width="0.99628" stroke-linecap="butt" stroke-linejoin="round" stroke="rgb(0%, 0%, 0%)" stroke-opacity="1" stroke-miterlimit="10" d="M 151.373875 22.11125 C 151.373875 26.808125 147.5645 30.614375 142.87075 30.614375 C 138.17075 30.614375 134.367625 26.808125 134.367625 22.11125 C 134.367625 17.414375 138.17075 13.605 142.87075 13.605 C 147.5645 13.605 151.373875 17.414375 151.373875 22.11125 Z M 151.373875 22.11125 " transform="matrix(1.25, 0, 0, -1.25, -3.15875, 79.75625)"/>
<path fill-rule="nonzero" fill="rgb(40%, 80.784314%, 96.078431%)" fill-opacity="1" stroke-width="0.99628" stroke-linecap="butt" stroke-linejoin="round" stroke="rgb(0%, 0%, 0%)" stroke-opacity="1" stroke-miterlimit="10" d="M 151.373875 44.22375 C 151.373875 48.9175 147.5645 52.726875 142.87075 52.726875 C 138.17075 52.726875 134.367625 48.9175 134.367625 44.22375 C 134.367625 39.52375 138.17075 35.720625 142.87075 35.720625 C 147.5645 35.720625 151.373875 39.52375 151.373875 44.22375 Z M 151.373875 44.22375 " transform="matrix(1.25, 0, 0, -1.25, -3.15875, 79.75625)"/>
<path fill="none" stroke-width="0.99628" stroke-linecap="butt" stroke-linejoin="round" stroke="rgb(0%, 0%, 0%)" stroke-opacity="1" stroke-miterlimit="10" d="M 148.467625 58.32375 L 93.04575 58.32375 C 88.352 58.32375 84.542625 54.520625 84.542625 49.820625 L 84.542625 16.51125 C 84.542625 11.814375 88.352 8.005 93.04575 8.005 L 148.467625 8.005 C 153.167625 8.005 156.977 11.814375 156.977 16.51125 L 156.977 49.820625 C 156.977 54.520625 153.167625 58.32375 148.467625 58.32375 Z M 148.467625 58.32375 " transform="matrix(1.25, 0, 0, -1.25, -3.15875, 79.75625)"/>
</svg>
