<?xml version="1.0" encoding="UTF-8"?>
<svg xmlns="http://www.w3.org/2000/svg" xmlns:xlink="http://www.w3.org/1999/xlink" width="259.273499" height="174.235497" viewBox="0 0 259.273499 174.235497">
<path fill-rule="nonzero" fill="rgb(40%, 80.784314%, 96.078431%)" fill-opacity="1" stroke-width="0.74721" stroke-linecap="butt" stroke-linejoin="round" stroke="rgb(0%, 0%, 0%)" stroke-opacity="1" stroke-miterlimit="10" d="M -9.072441 -14.737105 C -9.072441 -11.609501 -11.606295 -9.070438 -14.739108 -9.070438 C -17.869316 -9.070438 -20.408379 -11.609501 -20.408379 -14.737105 C -20.408379 -17.869918 -17.869316 -20.40898 -14.739108 -20.40898 C -11.606295 -20.40898 -9.072441 -17.869918 -9.072441 -14.737105 Z M -9.072441 -14.737105 " transform="matrix(1.5, 0, 0, -1.5, 129.636005, 87.116999)"/>
<path fill-rule="nonzero" fill="rgb(40%, 80.784314%, 96.078431%)" fill-opacity="1" stroke-width="0.74721" stroke-linecap="butt" stroke-linejoin="round" stroke="rgb(0%, 0%, 0%)" stroke-opacity="1" stroke-miterlimit="10" d="M 5.669746 -0.000125885 C 5.669746 3.132687 3.130684 5.669145 0.00307973 5.669145 C -3.129733 5.669145 -5.668795 3.132687 -5.668795 -0.000125885 C -5.668795 -3.132938 -3.129733 -5.666793 0.00307973 -5.666793 C 3.130684 -5.666793 5.669746 -3.132938 5.669746 -0.000125885 Z M 5.669746 -0.000125885 " transform="matrix(1.5, 0, 0, -1.5, 129.636005, 87.116999)"/>
<path fill-rule="nonzero" fill="rgb(40%, 80.784314%, 96.078431%)" fill-opacity="1" stroke-width="0.74721" stroke-linecap="butt" stroke-linejoin="round" stroke="rgb(0%, 0%, 0%)" stroke-opacity="1" stroke-miterlimit="10" d="M 20.40933 14.742062 C 20.40933 17.87227 17.872871 20.411332 14.740059 20.411332 C 11.607246 20.411332 9.073392 17.87227 9.073392 14.742062 C 9.073392 11.609249 11.607246 9.070187 14.740059 9.070187 C 17.872871 9.070187 20.40933 11.609249 20.40933 14.742062 Z M 20.40933 14.742062 " transform="matrix(1.5, 0, 0, -1.5, 129.636005, 87.116999)"/>
<path fill-rule="nonzero" fill="rgb(40%, 80.784314%, 96.078431%)" fill-opacity="1" stroke-width="0.74721" stroke-linecap="butt" stroke-linejoin="round" stroke="rgb(0%, 0%, 0%)" stroke-opacity="1" stroke-miterlimit="10" d="M -9.072441 14.742062 C -9.072441 17.87227 -11.606295 20.411332 -14.739108 20.411332 C -17.869316 20.411332 -20.408379 17.87227 -20.408379 14.742062 C -20.408379 11.609249 -17.869316 9.070187 -14.739108 9.070187 C -11.606295 9.070187 -9.072441 11.609249 -9.072441 14.742062 Z M -9.072441 14.742062 " transform="matrix(1.5, 0, 0, -1.5, 129.636005, 87.116999)"/>
<path fill-rule="nonzero" fill="rgb(40%, 80.784314%, 96.078431%)" fill-opacity="1" stroke-width="0.74721" stroke-linecap="butt" stroke-linejoin="round" stroke="rgb(0%, 0%, 0%)" stroke-opacity="1" stroke-miterlimit="10" d="M 20.40933 -14.737105 C 20.40933 -11.609501 17.872871 -9.070438 14.740059 -9.070438 C 11.607246 -9.070438 9.073392 -11.609501 9.073392 -14.737105 C 9.073392 -17.869918 11.607246 -20.40898 14.740059 -20.40898 C 17.872871 -20.40898 20.40933 -17.869918 20.40933 -14.737105 Z M 20.40933 -14.737105 " transform="matrix(1.5, 0, 0, -1.5, 129.636005, 87.116999)"/>
<path fill="none" stroke-width="0.74721" stroke-linecap="butt" stroke-linejoin="round" stroke="rgb(0%, 0%, 0%)" stroke-opacity="1" stroke-miterlimit="10" d="M 18.708809 24.380082 L -18.707858 24.380082 C -21.838066 24.380082 -24.377129 21.84102 -24.377129 18.708207 L -24.377129 -18.705855 C -24.377129 -21.838668 -21.838066 -24.37773 -18.707858 -24.37773 L 18.708809 -24.37773 C 21.841621 -24.37773 24.37808 -21.838668 24.37808 -18.705855 L 24.37808 18.708207 C 24.37808 21.84102 21.841621 24.380082 18.708809 24.380082 Z M 18.708809 24.380082 " transform="matrix(1.5, 0, 0, -1.5, 129.636005, 87.116999)"/>
<path fill-rule="nonzero" fill="rgb(40%, 80.784314%, 96.078431%)" fill-opacity="1" stroke-width="0.74721" stroke-linecap="butt" stroke-linejoin="round" stroke="rgb(0%, 0%, 0%)" stroke-opacity="1" stroke-miterlimit="10" d="M 47.622871 13.606645 C 47.622871 16.739457 45.083809 19.27852 41.950996 19.27852 C 38.823392 19.27852 36.28433 16.739457 36.28433 13.606645 C 36.28433 10.476437 38.823392 7.937374 41.950996 7.937374 C 45.083809 7.937374 47.622871 10.476437 47.622871 13.606645 Z M 47.622871 13.606645 " transform="matrix(1.5, 0, 0, -1.5, 129.636005, 87.116999)"/>
<path fill-rule="nonzero" fill="rgb(40%, 80.784314%, 96.078431%)" fill-opacity="1" stroke-width="0.74721" stroke-linecap="butt" stroke-linejoin="round" stroke="rgb(0%, 0%, 0%)" stroke-opacity="1" stroke-miterlimit="10" d="M 62.362455 28.348832 C 62.362455 31.476437 59.823392 34.015499 56.693184 34.015499 C 53.560371 34.015499 51.026517 31.476437 51.026517 28.348832 C 51.026517 25.21602 53.560371 22.676957 56.693184 22.676957 C 59.823392 22.676957 62.362455 25.21602 62.362455 28.348832 Z M 62.362455 28.348832 " transform="matrix(1.5, 0, 0, -1.5, 129.636005, 87.116999)"/>
<path fill-rule="nonzero" fill="rgb(40%, 80.784314%, 96.078431%)" fill-opacity="1" stroke-width="0.74721" stroke-linecap="butt" stroke-linejoin="round" stroke="rgb(0%, 0%, 0%)" stroke-opacity="1" stroke-miterlimit="10" d="M 77.104642 43.085812 C 77.104642 46.218624 74.56558 48.757687 71.432767 48.757687 C 68.302559 48.757687 65.763496 46.218624 65.763496 43.085812 C 65.763496 39.958207 68.302559 37.419145 71.432767 37.419145 C 74.56558 37.419145 77.104642 39.958207 77.104642 43.085812 Z M 77.104642 43.085812 " transform="matrix(1.5, 0, 0, -1.5, 129.636005, 87.116999)"/>
<path fill-rule="nonzero" fill="rgb(40%, 80.784314%, 96.078431%)" fill-opacity="1" stroke-width="0.74721" stroke-linecap="butt" stroke-linejoin="round" stroke="rgb(0%, 0%, 0%)" stroke-opacity="1" stroke-miterlimit="10" d="M 47.622871 43.085812 C 47.622871 46.218624 45.083809 48.757687 41.950996 48.757687 C 38.823392 48.757687 36.28433 46.218624 36.28433 43.085812 C 36.28433 39.958207 38.823392 37.419145 41.950996 37.419145 C 45.083809 37.419145 47.622871 39.958207 47.622871 43.085812 Z M 47.622871 43.085812 " transform="matrix(1.5, 0, 0, -1.5, 129.636005, 87.116999)"/>
<path fill-rule="nonzero" fill="rgb(40%, 80.784314%, 96.078431%)" fill-opacity="1" stroke-width="0.74721" stroke-linecap="butt" stroke-linejoin="round" stroke="rgb(0%, 0%, 0%)" stroke-opacity="1" stroke-miterlimit="10" d="M 77.104642 13.606645 C 77.104642 16.739457 74.56558 19.27852 71.432767 19.27852 C 68.302559 19.27852 65.763496 16.739457 65.763496 13.606645 C 65.763496 10.476437 68.302559 7.937374 71.432767 7.937374 C 74.56558 7.937374 77.104642 10.476437 77.104642 13.606645 Z M 77.104642 13.606645 " transform="matrix(1.5, 0, 0, -1.5, 129.636005, 87.116999)"/>
<path fill="none" stroke-width="0.74721" stroke-linecap="butt" stroke-linejoin="round" stroke="rgb(0%, 0%, 0%)" stroke-opacity="1" stroke-miterlimit="10" d="M 75.401517 52.723832 L 37.982246 52.723832 C 34.854642 52.723832 32.31558 50.187374 32.31558 47.054562 L 32.31558 9.637895 C 32.31558 6.507687 34.854642 3.968624 37.982246 3.968624 L 75.401517 3.968624 C 78.53433 3.968624 81.073392 6.507687 81.073392 9.637895 L 81.073392 47.054562 C 81.073392 50.187374 78.53433 52.723832 75.401517 52.723832 Z M 75.401517 52.723832 " transform="matrix(1.5, 0, 0, -1.5, 129.636005, 87.116999)"/>
<path fill-rule="nonzero" fill="rgb(40%, 80.784314%, 96.078431%)" fill-opacity="1" stroke-width="0.74721" stroke-linecap="butt" stroke-linejoin="round" stroke="rgb(0%, 0%, 0%)" stroke-opacity="1" stroke-miterlimit="10" d="M 47.622871 -43.086063 C 47.622871 -39.955855 45.083809 -37.416793 41.950996 -37.416793 C 38.823392 -37.416793 36.28433 -39.955855 36.28433 -43.086063 C 36.28433 -46.218876 38.823392 -48.75273 41.950996 -48.75273 C 45.083809 -48.75273 47.622871 -46.218876 47.622871 -43.086063 Z M 47.622871 -43.086063 " transform="matrix(1.5, 0, 0, -1.5, 129.636005, 87.116999)"/>
<path fill-rule="nonzero" fill="rgb(40%, 80.784314%, 96.078431%)" fill-opacity="1" stroke-width="0.74721" stroke-linecap="butt" stroke-linejoin="round" stroke="rgb(0%, 0%, 0%)" stroke-opacity="1" stroke-miterlimit="10" d="M 62.362455 -28.34648 C 62.362455 -25.213668 59.823392 -22.674605 56.693184 -22.674605 C 53.560371 -22.674605 51.026517 -25.213668 51.026517 -28.34648 C 51.026517 -31.476688 53.560371 -34.015751 56.693184 -34.015751 C 59.823392 -34.015751 62.362455 -31.476688 62.362455 -28.34648 Z M 62.362455 -28.34648 " transform="matrix(1.5, 0, 0, -1.5, 129.636005, 87.116999)"/>
<path fill-rule="nonzero" fill="rgb(40%, 80.784314%, 96.078431%)" fill-opacity="1" stroke-width="0.74721" stroke-linecap="butt" stroke-linejoin="round" stroke="rgb(0%, 0%, 0%)" stroke-opacity="1" stroke-miterlimit="10" d="M 77.104642 -13.604293 C 77.104642 -10.476688 74.56558 -7.937626 71.432767 -7.937626 C 68.302559 -7.937626 65.763496 -10.476688 65.763496 -13.604293 C 65.763496 -16.737105 68.302559 -19.273563 71.432767 -19.273563 C 74.56558 -19.273563 77.104642 -16.737105 77.104642 -13.604293 Z M 77.104642 -13.604293 " transform="matrix(1.5, 0, 0, -1.5, 129.636005, 87.116999)"/>
<path fill-rule="nonzero" fill="rgb(40%, 80.784314%, 96.078431%)" fill-opacity="1" stroke-width="0.74721" stroke-linecap="butt" stroke-linejoin="round" stroke="rgb(0%, 0%, 0%)" stroke-opacity="1" stroke-miterlimit="10" d="M 47.622871 -13.604293 C 47.622871 -10.476688 45.083809 -7.937626 41.950996 -7.937626 C 38.823392 -7.937626 36.28433 -10.476688 36.28433 -13.604293 C 36.28433 -16.737105 38.823392 -19.273563 41.950996 -19.273563 C 45.083809 -19.273563 47.622871 -16.737105 47.622871 -13.604293 Z M 47.622871 -13.604293 " transform="matrix(1.5, 0, 0, -1.5, 129.636005, 87.116999)"/>
<path fill-rule="nonzero" fill="rgb(40%, 80.784314%, 96.078431%)" fill-opacity="1" stroke-width="0.74721" stroke-linecap="butt" stroke-linejoin="round" stroke="rgb(0%, 0%, 0%)" stroke-opacity="1" stroke-miterlimit="10" d="M 77.104642 -43.086063 C 77.104642 -39.955855 74.56558 -37.416793 71.432767 -37.416793 C 68.302559 -37.416793 65.763496 -39.955855 65.763496 -43.086063 C 65.763496 -46.218876 68.302559 -48.75273 71.432767 -48.75273 C 74.56558 -48.75273 77.104642 -46.218876 77.104642 -43.086063 Z M 77.104642 -43.086063 " transform="matrix(1.5, 0, 0, -1.5, 129.636005, 87.116999)"/>
<path fill="none" stroke-width="0.74721" stroke-linecap="butt" stroke-linejoin="round" stroke="rgb(0%, 0%, 0%)" stroke-opacity="1" stroke-miterlimit="10" d="M 75.401517 -3.968876 L 37.982246 -3.968876 C 34.854642 -3.968876 32.31558 -6.507938 32.31558 -9.635543 L 32.31558 -47.054813 C 32.31558 -50.187626 34.854642 -52.72148 37.982246 -52.72148 L 75.401517 -52.72148 C 78.53433 -52.72148 81.073392 -50.187626 81.073392 -47.054813 L 81.073392 -9.635543 C 81.073392 -6.507938 78.53433 -3.968876 75.401517 -3.968876 Z M 75.401517 -3.968876 " transform="matrix(1.5, 0, 0, -1.5, 129.636005, 87.116999)"/>
<path fill-rule="nonzero" fill="rgb(40%, 80.784314%, 96.078431%)" fill-opacity="1" stroke-width="0.74721" stroke-linecap="butt" stroke-linejoin="round" stroke="rgb(0%, 0%, 0%)" stroke-opacity="1" stroke-miterlimit="10" d="M -65.762545 13.606645 C -65.762545 16.739457 -68.301608 19.27852 -71.431816 19.27852 C -74.564629 19.27852 -77.103691 16.739457 -77.103691 13.606645 C -77.103691 10.476437 -74.564629 7.937374 -71.431816 7.937374 C -68.301608 7.937374 -65.762545 10.476437 -65.762545 13.606645 Z M -65.762545 13.606645 " transform="matrix(1.5, 0, 0, -1.5, 129.636005, 87.116999)"/>
<path fill-rule="nonzero" fill="rgb(40%, 80.784314%, 96.078431%)" fill-opacity="1" stroke-width="0.74721" stroke-linecap="butt" stroke-linejoin="round" stroke="rgb(0%, 0%, 0%)" stroke-opacity="1" stroke-miterlimit="10" d="M -51.020358 28.348832 C -51.020358 31.476437 -53.55942 34.015499 -56.692233 34.015499 C -59.822441 34.015499 -62.361504 31.476437 -62.361504 28.348832 C -62.361504 25.21602 -59.822441 22.676957 -56.692233 22.676957 C -53.55942 22.676957 -51.020358 25.21602 -51.020358 28.348832 Z M -51.020358 28.348832 " transform="matrix(1.5, 0, 0, -1.5, 129.636005, 87.116999)"/>
<path fill-rule="nonzero" fill="rgb(40%, 80.784314%, 96.078431%)" fill-opacity="1" stroke-width="0.74721" stroke-linecap="butt" stroke-linejoin="round" stroke="rgb(0%, 0%, 0%)" stroke-opacity="1" stroke-miterlimit="10" d="M -36.283379 43.085812 C -36.283379 46.218624 -38.822441 48.757687 -41.950045 48.757687 C -45.082858 48.757687 -47.62192 46.218624 -47.62192 43.085812 C -47.62192 39.958207 -45.082858 37.419145 -41.950045 37.419145 C -38.822441 37.419145 -36.283379 39.958207 -36.283379 43.085812 Z M -36.283379 43.085812 " transform="matrix(1.5, 0, 0, -1.5, 129.636005, 87.116999)"/>
<path fill-rule="nonzero" fill="rgb(40%, 80.784314%, 96.078431%)" fill-opacity="1" stroke-width="0.74721" stroke-linecap="butt" stroke-linejoin="round" stroke="rgb(0%, 0%, 0%)" stroke-opacity="1" stroke-miterlimit="10" d="M -65.762545 43.085812 C -65.762545 46.218624 -68.301608 48.757687 -71.431816 48.757687 C -74.564629 48.757687 -77.103691 46.218624 -77.103691 43.085812 C -77.103691 39.958207 -74.564629 37.419145 -71.431816 37.419145 C -68.301608 37.419145 -65.762545 39.958207 -65.762545 43.085812 Z M -65.762545 43.085812 " transform="matrix(1.5, 0, 0, -1.5, 129.636005, 87.116999)"/>
<path fill-rule="nonzero" fill="rgb(40%, 80.784314%, 96.078431%)" fill-opacity="1" stroke-width="0.74721" stroke-linecap="butt" stroke-linejoin="round" stroke="rgb(0%, 0%, 0%)" stroke-opacity="1" stroke-miterlimit="10" d="M -36.283379 13.606645 C -36.283379 16.739457 -38.822441 19.27852 -41.950045 19.27852 C -45.082858 19.27852 -47.62192 16.739457 -47.62192 13.606645 C -47.62192 10.476437 -45.082858 7.937374 -41.950045 7.937374 C -38.822441 7.937374 -36.283379 10.476437 -36.283379 13.606645 Z M -36.283379 13.606645 " transform="matrix(1.5, 0, 0, -1.5, 129.636005, 87.116999)"/>
<path fill="none" stroke-width="0.74721" stroke-linecap="butt" stroke-linejoin="round" stroke="rgb(0%, 0%, 0%)" stroke-opacity="1" stroke-miterlimit="10" d="M -37.981295 52.723832 L -75.400566 52.723832 C -78.533379 52.723832 -81.072441 50.187374 -81.072441 47.054562 L -81.072441 9.637895 C -81.072441 6.507687 -78.533379 3.968624 -75.400566 3.968624 L -37.981295 3.968624 C -34.853691 3.968624 -32.314629 6.507687 -32.314629 9.637895 L -32.314629 47.054562 C -32.314629 50.187374 -34.853691 52.723832 -37.981295 52.723832 Z M -37.981295 52.723832 " transform="matrix(1.5, 0, 0, -1.5, 129.636005, 87.116999)"/>
<path fill-rule="nonzero" fill="rgb(40%, 80.784314%, 96.078431%)" fill-opacity="1" stroke-width="0.74721" stroke-linecap="butt" stroke-linejoin="round" stroke="rgb(0%, 0%, 0%)" stroke-opacity="1" stroke-miterlimit="10" d="M -65.762545 -43.086063 C -65.762545 -39.955855 -68.301608 -37.416793 -71.431816 -37.416793 C -74.564629 -37.416793 -77.103691 -39.955855 -77.103691 -43.086063 C -77.103691 -46.218876 -74.564629 -48.75273 -71.431816 -48.75273 C -68.301608 -48.75273 -65.762545 -46.218876 -65.762545 -43.086063 Z M -65.762545 -43.086063 " transform="matrix(1.5, 0, 0, -1.5, 129.636005, 87.116999)"/>
<path fill-rule="nonzero" fill="rgb(40%, 80.784314%, 96.078431%)" fill-opacity="1" stroke-width="0.74721" stroke-linecap="butt" stroke-linejoin="round" stroke="rgb(0%, 0%, 0%)" stroke-opacity="1" stroke-miterlimit="10" d="M -51.020358 -28.34648 C -51.020358 -25.213668 -53.55942 -22.674605 -56.692233 -22.674605 C -59.822441 -22.674605 -62.361504 -25.213668 -62.361504 -28.34648 C -62.361504 -31.476688 -59.822441 -34.015751 -56.692233 -34.015751 C -53.55942 -34.015751 -51.020358 -31.476688 -51.020358 -28.34648 Z M -51.020358 -28.34648 " transform="matrix(1.5, 0, 0, -1.5, 129.636005, 87.116999)"/>
<path fill-rule="nonzero" fill="rgb(40%, 80.784314%, 96.078431%)" fill-opacity="1" stroke-width="0.74721" stroke-linecap="butt" stroke-linejoin="round" stroke="rgb(0%, 0%, 0%)" stroke-opacity="1" stroke-miterlimit="10" d="M -36.283379 -13.604293 C -36.283379 -10.476688 -38.822441 -7.937626 -41.950045 -7.937626 C -45.082858 -7.937626 -47.62192 -10.476688 -47.62192 -13.604293 C -47.62192 -16.737105 -45.082858 -19.273563 -41.950045 -19.273563 C -38.822441 -19.273563 -36.283379 -16.737105 -36.283379 -13.604293 Z M -36.283379 -13.604293 " transform="matrix(1.5, 0, 0, -1.5, 129.636005, 87.116999)"/>
<path fill-rule="nonzero" fill="rgb(40%, 80.784314%, 96.078431%)" fill-opacity="1" stroke-width="0.74721" stroke-linecap="butt" stroke-linejoin="round" stroke="rgb(0%, 0%, 0%)" stroke-opacity="1" stroke-miterlimit="10" d="M -65.762545 -13.604293 C -65.762545 -10.476688 -68.301608 -7.937626 -71.431816 -7.937626 C -74.564629 -7.937626 -77.103691 -10.476688 -77.103691 -13.604293 C -77.103691 -16.737105 -74.564629 -19.273563 -71.431816 -19.273563 C -68.301608 -19.273563 -65.762545 -16.737105 -65.762545 -13.604293 Z M -65.762545 -13.604293 " transform="matrix(1.5, 0, 0, -1.5, 129.636005, 87.116999)"/>
<path fill-rule="nonzero" fill="rgb(40%, 80.784314%, 96.078431%)" fill-opacity="1" stroke-width="0.74721" stroke-linecap="butt" stroke-linejoin="round" stroke="rgb(0%, 0%, 0%)" stroke-opacity="1" stroke-miterlimit="10" d="M -36.283379 -43.086063 C -36.283379 -39.955855 -38.822441 -37.416793 -41.950045 -37.416793 C -45.082858 -37.416793 -47.62192 -39.955855 -47.62192 -43.086063 C -47.62192 -46.218876 -45.082858 -48.75273 -41.950045 -48.75273 C -38.822441 -48.75273 -36.283379 -46.218876 -36.283379 -43.086063 Z M -36.283379 -43.086063 " transform="matrix(1.5, 0, 0, -1.5, 129.636005, 87.116999)"/>
<path fill="none" stroke-width="0.74721" stroke-linecap="butt" stroke-linejoin="round" stroke="rgb(0%, 0%, 0%)" stroke-opacity="1" stroke-miterlimit="10" d="M -37.981295 -3.968876 L -75.400566 -3.968876 C -78.533379 -3.968876 -81.072441 -6.507938 -81.072441 -9.635543 L -81.072441 -47.054813 C -81.072441 -50.187626 -78.533379 -52.72148 -75.400566 -52.72148 L -37.981295 -52.72148 C -34.853691 -52.72148 -32.314629 -50.187626 -32.314629 -47.054813 L -32.314629 -9.635543 C -32.314629 -6.507938 -34.853691 -3.968876 -37.981295 -3.968876 Z M -37.981295 -3.968876 " transform="matrix(1.5, 0, 0, -1.5, 129.636005, 87.116999)"/>
</svg>
